<?xml version="1.0" encoding="UTF-8" standalone="no"?>
<!DOCTYPE svg  PUBLIC '-//W3C//DTD SVG 1.1//EN'  'http://www.w3.org/Graphics/SVG/1.1/DTD/svg11.dtd'>
<!-- Creator: CorelDRAW X5 -->
<svg style="shape-rendering:geometricPrecision;text-rendering:geometricPrecision;image-rendering:optimizeQuality" xmlns="http://www.w3.org/2000/svg" fill-rule="evenodd" xml:space="preserve" height="500px" width="500px" clip-rule="evenodd" xmlns:xlink="http://www.w3.org/1999/xlink" viewBox="0 0 12764 16208">
 <defs>
  <style type="text/css">
   <![CDATA[
    .fil5 {fill:#000200}
    .fil6 {fill:#15406B}
    .fil3 {fill:#1563B0}
    .fil1 {fill:#1D82EA}
    .fil12 {fill:#262626}
    .fil8 {fill:rgb(39, 39, 39)}
    .fil15 {fill:#2F2F2F}
    .fil14 {fill:#3E3E3E}
    .fil18 {fill:#3F3F3F}
    .fil17 {fill:#4D4D4D}
    .fil9 {fill:#535353}
    .fil10 {fill:#5A5A5A}
    .fil13 {fill:#686868}
    .fil11 {fill:#6B6B6B}
    .fil16 {fill:#9B9B9B}
    .fil0 {fill:#CCCC33}
    .fil4 {fill:#FFCC99}
    .fil2 {fill:#FFFF2B}
    .fil7 {fill:white}
   ]]>
  </style>
 </defs>
 <g id="Layer_x0020_1">
  <ellipse cy="6499" cx="6552" rx="252" class="fil0" ry="261"/>
  <path class="fil1" d="m4409 11548c43 26 29-17 60 78 7 20 14 62 20 86-41-58-68-96-80-164zm-22 76c-131 27-239 39-383-11-96-34-79-47-97-82 129 13 26 47 479 94zm2882-188c107 28 157 109 298 122 67 6 146-7 212 5 59 10 77 38 134 39-27 3-345-3-383-6-108-9-216-82-260-159zl-62-44 62 44zm-2860 112c-16-9-120-108-163-141-62-47-140-75-170-130 105 26 308 175 332 271zm-390-329c37 13 52 7 58 58l-58-58zm-35-53l35 53c-43-11-39-2-35-53zc-94-64-18-8-70-106-23-44-22-42-62-49 84-7 119 84 132 155zm3108-184c53 118 183 200 310 241 205 67 285 38 469-33-161 233-711 89-798-213-23-45-24-3 0-42l18 47zm-2189 165c-298 49-723-28-892-291 200 81 22 193 892 291zm2899-409l81 40c-14-4-28-6-42-13-65-30-11-4-40-28zc-159 12-712-100-771-252 227 155 631 146 771 252zm-892-2772c6-5 12-14 38-27l122-38c218-72 215-82 413-177-99 143-402 244-572 241zm-966-117c-671-61 0 0 0 0zm190-283c-224-64-359-38-510-235 100 34 150 104 244 133 113 35 171 11 266 102zm829 132c161-38 339-347 449-468-55 175-248 480-449 468zm-2725 2306c15-70 136-289 175-376 56-124 111-247 162-373 193-477 499-988 717-1443 86-180 229-643 315-762-39 211-251 622-259 777 150 220 296 164 505 205-230 62-400 18-532-184l-130 276c74 96 420 261 544 287-236 42-486-208-567-245-221 274-769 1690-931 1839zm3175-2968c88 96 447 1104 501 1298 132 467 275 935 407 1397-170-337-332-970-446-1359-70-238-144-449-233-679-48-124-228-557-230-657zm-893 434c5 200 141 444-1 654 60-338-40-446-42-753-167-53-268-123-427-169 184-30 245 122 447 109l13-134c-128-42-270-93-348-205 136 62 180 124 345 151l62-243c-19 466-56 281-49 589zm893-434c-29-26-25-16-44-64l-54-190c36 73 91 169 98 253zm909 2694c58-26 41-367 35-434-18-178-274-923-338-1107-109-317-391-1183-445-1476-237-2-484-10-720 2-242 12-138 148-427 54-59-19-122-12-187-12-471 1-942 39-1412 45-4 220-25 495-49 714-25 238-109 399-170 625-56 209-39 439-132 641-62 135-89 83-137 259-28 102-59 206-89 307-59 199-123 398-177 598-63 232-64 402-110 641-56 289-174 273-251 523-61 198-215 297-342 445 32 101 374 565 456 585 89 21 766-148 832-198 149-691 631-1240 1015-1803 251-366 459-1065 600-1522 25-82 49-201 82-275 30-68 131-154 190-113-12 13-247 116-203 385 127 789 570 1556 600 1855 24 237-64 49 33 546 131 672-62 649-176 975 75 67 556 202 685 240 313 93 421 192 689-29 26-277-210-237-84-1297 14-120 350-867 230-1174z"/>
  <path class="fil2" d="m4255 3928c117-168 481-303 692-276-91 40-232 49-371 113-98 45-230 132-321 162zm-110-837c88 240 317 344 318 601-59-219-340-382-318-601zm529-101l153 372c-63-16-135-102-153-155l77 40c-25-86-74-171-76-258zm-1 218c-74-28-271-176-319-237 64 21 113 65 171 105 30 21 50 40 79 59 67 45 47 10 69 72zm2238-281c95 90 148 250 221 359l54 199c-78-12-65-91-145-268-45-100-108-183-130-290zm-2557 45l-58-41 58 41zm-58-41l-60-38 60 38zm-60-38l-61-39 61 39zm-61-39l-62-48 62 48zm284 64c-35-19-59-34-93-55-95-58-45-9-83-82 68 31 137 81 176 138zm925-368c80 69 74 246 9 321l-9-321zm953 84c45 52 39 87 64 155 23 63 46 76 89 120-142 1-156-160-153-275zm-1230 97l-41 66c21-71 1-33 41-66zm-852 31c-51-43-28 10-31-63l31 63zm418 230c-13-13-15-10-28-35-30-54-87-271-91-321 36 60 115 283 119 356zm434-261c5-76 38-138 56-217 24-108 9-131 13-225 29 126 56 362-69 443zm-830 1449c508 316 1376 293 1878 133 91-319-122-970-128-1151 22 139 102 346 136 518 46 237 36 390 53 620 42 168 730 259 723 234 102 21 587 28 547-490 11-355-138-552-193-847 76 125 161 306 188 455l394-67c-37-30-151-141-203-182-80-63-161-114-241-175-311-234-16-76-500-331l-20 32c-41-55-309-160-517-309-56-40-27-25-77-42-285 286-710 92-953-297-123-197-95-164-109-390-13 67-145 287-199 336-72 66-286 103-409 165-124 63-244 137-362 213-237 151-108 110-357 213 106 390 191 585 268 1009 18 100 28 282 83 354z"/>
  <path class="fil3" d="m7726 14825c102 60 49 183 121 276 73 96 154 92 251 132-405 35-283-322-423-375-113-42-386-96-333-438-4 351 351 384 385 404zm-901-1904c104 0 38-4 52 17 130 6 488 24 574 87 46 94 16 238 21 346l-25 127c-2-4-6-9-7-12-21-58-15-52-14-104l-24-310-533-108-58-12c-17 180-65 157-4 375 31 110 85 206 105 317 121-9 420-9 505 70 40 129 13 285 15 421l-38 92-7-108c7-422 11-385-473-471-10 145-35 279-17 428 77 80 133 61 154 197 82 511-55 191-138 671-13 72-9 152-45 214-117 202-114 371 134 470 285 114 966 204 1290 220 193 9 819 33 973-15-27-618-93-467-571-707-303-152-577-267-678-611-71-243 5-1565 97-1762 83-177 167-294 92-506-135 47-178 164-349 128-235-50-872-254-1077-337-217 423 68 558 47 883z"/>
  <path class="fil1" d="m3339 6118c97 6 125 53 187 124l-18 152c-11-180 7-154-109-221-38-22-40-25-59-55zm-210-213c63 18 61 49 110 106 46 55 81 56 101 107-78-20-182-141-210-213zc-150-25-278-430-145-790-6 169-59 271-23 462 30 160 124 216 168 328zm227-1206c-18 270 191 553-7 864 163-405-59-587-24-888 16-140 75-282 91-423 29-253-28-392-21-440 33 178 72 266 46 465-18 137-76 293-85 423zm623 867c24-75 76-166 117-239 65-115 66-129 97-259 49-207 67-451 27-655-84-69-185-255-269-344-111-118-182-188-300-295-206-186-464-359-725-463-84 182-58 527-5 737 59 238 158 346 303 509-119-52-191-151-269-248-320 351-141 709-117 1140 12 209-76 392-99 605-28 260 15 390 50 633 421-76 668-211 1138-201-6-153-50-580-106-706-125 54-244 129-372 52 109-21 206-37 303-95 76-45 168-150 227-170z"/>
  <path class="fil2" d="m3622 8640c215 72 157-65 319 16 140 70 190 43 294-48-94 212-229 107-375 65-134 35-104 61-236-12l-47-19c32-21-9-36 45-3zm574-356c74 25 128 46 181 104l-161-61c-29 13-223 140-377 123-124-14-205-188-186-283 24 110 68 154 141 231 86 10 142-22 224-31 118-14 86-31 178-82zm-1050-898l7-14 422-90 72 412c-197 4-309 8-506 44l24-52 426-39-50-320-395 59zm-197-229c-36-42 1 54-33-52-9-29-5-44 2-71l31 123zm703-370c11 149 131 305 196 438 119 242 34 409 83 555-63-102-40-350-122-517-78-158-175-294-157-476zm-703 370l60 104 459-110-84-307-447 84c151-49 313-115 478-119l104 364c-77 50-445 124-549 118l-20-134zm-219-381c125 375 335 878 512 1232 85 170 219 431 265 607 33 125 87 186 223 214 132 27 123-82 339 17 320 147 391-59 440-329 30-167 37-228 13-399-25-182 10-186-168-271-337-159-278-104-375-496-47-191-21-210 14-384 27-136 21-280 14-418-203-81-1126 93-1277 226z"/>
  <path class="fil2" d="m9007 7964l-46-48-13 37c-59 29-158 153-207 211 71 62 148 174 155 273-143-118-107-306-336-290l-106 108c42-230 136-120 264-148 49-11 135-151 198-204h116c57-77 99-101 163-78-157 36-88 55-187 139zm463 79c-153 147-191-138-222-192-68-118-145-140-197-251 404 211 161 453 420 443zm-853-302c-45-67-31-67-44-149-36-222-49-93 0-157l44 306zm-81-293c-184-45-214-55-276-239-55-165-14-255 10-402-6 147-38 236 29 390 118 274 126 93 238 251zm621 484c83-8 145 239 156 310l197-88-3-91-37-20c44-73-4-186-25-269-18-71-47-197-78-259-82-163-411-59-549-118-96-98-232-838-382-1071-182 83-532 336-807 425 12 76 167 646 194 701 29 58 401 410 462 448 80-60 34-60 146-85-67 111-235 122-10 468 26 3-6 29 36-24 7 174 210 268 221 269 79-18 132-63 215-63 108 0 110 29 233-11 9-123-83-272-116-393 88 82 124 239 171 352l121-142-145-340z"/>
  <path class="fil2" d="m6170 1586c26-101 53-100 160-102l-160 102zm-166 48l-56-244c86 44 86 157 56 244zm-534-724c73 164 489 655 512 753 31 132-54 300 19 417l89 13c122-141 9-372 210-490 131-77 319-193 414-300 50-739-926-1101-1243-393z"/>
  <path class="fil1" d="m7693 4470l1-16-1-28c5-24 4-18 44-122 39-89 49-226 57-323-44 36-85 117-127 161-51 54-79 64-133 105-66 51-81 159-224 257 38 96-12 346-32 461-40 236-65 185-2 437 18 72 88 375 113 421 34 62 289 183 362 201 334-506 22-912-60-1553zm182 2061c-62-107-50-381 34-484l-34 484zm-129-446c-144-35-218-126-334-197 24 246 132 580 203 821 201-47 491-267 687-342-40-111-314-507-399-584-24 116-50 234-158 301zm-242-2398c8 86 30 166 37 255 9 105-10 175-7 268 106-93 214-276 296-404l-26-159-300 39z"/>
  <path class="fil2" d="m3645 3540c11-170 228-215 367-187-188 69-215 17-367 187zm-340-320c41-164 246-196 392-210-67 62-251 89-392 210zm-379 90c228 28 628 265 784 424 144 148 466 455 510 678 56-201-232-1367-339-1584-233 6-914 237-954 482z"/>
  <path class="fil1" d="m6645 5036c-18-9-57-25-73-38-39-32-15-10-40-62l113 101zm-207 902c251-97 199 32 369-4 176-37 119-91 358-81-72 17-34-7-89 36l49 266-68-273c-102 26-211 107-302 108-156 3-115-93-289 4-138 77-472 148-583 6 163 80 369 33 533-42l4-85c6 22 11 44 17 65zm687 216c51 73 12 43 40 132l273-24-50-297c-138-97-213-154-215-342l131 48-17-39c-7-97-137-356-197-439 60 59 45 117 139 202-25-164-57-165-15-343l37-178-2-63-128-11 52 172c-54-40-89-145-102-218 99 19 95 41 206 34-17-86 5-178 8-270-190 53-154 49-356 32-10 214-40 481-9 690 27 183 117 412 129 581l-107-389c-465 66-349-88-611-3 15 85 31 174 49 260l-56-241c-206 95-395 240-642 79 320 81 361 17 616-116-41-218-80-358-111-591-92-14-144 63-250 95 64-71 174-101 237-146-27-149-20-256-10-405-286 44-515 93-811 93-51 495 167 973 230 1340-174-292-235-981-265-1337-302-25-824-43-1039-288-52 35-5 245-3 318 7 265 7 412-71 693 475 534 244 334 487 696 77-17 219-90 315-122 136-46 271-63 413-31-57 72-182 178-254 250-79 78-252 333-313 368 109-245 410-480 461-589-185 2-454 66-617 143l147 366c71 189 32 108 760 101 189-2 541 3 713-29 135-219 298-166 463-29l255-11 100-41-11-105zm-1542-352c38 42 69 117 75 182l-75-182zm-163-120c-111-20-209-76-236-190l236 190zm810-900c111 28 232 62 294 156-103-56-168-106-290-124 5 224 45 351 97 562 220 18 373 63 602 60-14-158-44-249-45-426 0-112 26-383-1-469-220-15-495-61-676-175-16 128-26 294 19 416zm1139 1142c-17-125-24-233-154-258 25 101 66 202 154 258zm-155-872c-46-28-38-31-41-79l41 79z"/>
  <path class="fil4" d="m5873 2267c83-11 199 4 200 99-83-18-151-32-200-99zm-81-108c259 12 247 12 455 127-155-20-286-81-477-91l-57-9 80-27zm-309 201c3-136-9-361 67-466 5 188-27 323-45 502 85 101 126 162 261 215 122 48 306 81 428 18 122-64 312-505 343-642-60 14-349 88-396 114-176 100-129-8-282-77-60-27-120-53-179-80-102-48-270-162-357-183-64 227-12 444 161 601z"/>
  <path class="fil5" d="m5621 1532c102 7 237 50 255 162-157 33-202-37-255-162zm312 462c27-359 33-321-261-717-70-95-138-192-208-287-118-161-120-171-124-377-141 228-265 649-135 933 65 141 195 195 324 270 93 54 306 176 403 178z"/>
  <path class="fil5" d="m6290 1806c-2-126 199-138 295-114-46 122-175 144-295 114zm-43-118l-78 344c668-84 790-403 760-1024-99 171-90 271-268 401-135 99-281 183-414 278z"/>
  <path class="fil6" d="m6802 6356c25 115 44 205-19 313l775-2c-9-92-64-288-119-358l-638 46zm-1924 70c-40 112-42 216-51 334l1524-51c-77-111-71-185-67-314l-1406 31z"/>
  <path class="fil3" d="m3959 13886l77 2 120-424c-131-27-110 48-143 166-23 81-60 177-54 256zm-573 1009c-25 44 22 28-64 47l64-47zc197-275 149-365 162-685 6-148 135-515 234-616-73 222-190 437-189 677 0 152-12 568-207 625zm-764 752c120 78 745 117 902 93 170-26 229-51 367-151 176-127 106-172 47-344-44-130-2-340-11-499-8-146-15-342-41-482-13-73-38-158-36-232l178-606 89-29 27-63-52-52c15-102 85-455 135-527l151-13c238-442 403-480 308-744-157 13-763 212-874 180-158-46-361-481-486-584-103 61-227 225-243 356-5 39 72 410 83 496l95 56-25 595-67 2 9 155c72 48 40-3 64 63l-4 521-73 14c-18 460 5 546-242 945-122 197-365 614-301 848zm454-2665c52 38 64 51 119 48l22-504c-55-37-61-51-120-53l-21 509zm-20 792l137 20 6-472-123-41-20 493zm1201-978c-47 76-121 390-108 476l99 6 157-484-148 2z"/>
  <path class="fil7" d="m6290 1806c119 30 249 8 295-114-96-24-297-12-295 114z"/>
  <path class="fil7" d="m5621 1532c54 125 98 196 255 162-18-113-153-156-255-162z"/>
  <path class="fil8" d="m3075 13281l123 41-6 472-137-20 20-493zm3477-7025c125 0 227 108 227 242s-101 242-227 242c-125 0-227-108-227-242s101-242 227-242zm-2928 2405c131 73 101 47 236 12 146 42 282 147 375-65-104 90-155 118-294 48-162-81-104 56-319-16-54-33-13-18-45 3l47 19zm592-334l161 61c-53-58-106-79-181-104-92 52-59 68-178 82-81 10-137 41-224 31-73-77-117-121-141-231-19 95 61 270 186 283 153 17 348-110 377-123zm-1063-955l-7 14 395-59 50 320-426 39-24 52c197-36 308-39 506-44l-72-412-422 90zm-204-215l-31-123c-7 26-11 41-2 71 34 106-3 11 33 52l20 134c104 6 472-67 549-118l-104-364c-165 4-327 70-478 119l447-84 84 307-459 110-60-104zm982 623c-49-146 36-313-83-555-66-133-186-290-196-438-17 182 79 318 157 476 82 167 59 415 122 517zm5539 263c-259 10-15-231-420-443 52 111 129 133 197 251 31 54 70 338 222 192l37 20 3 91-197 88c-12-71-74-318-156-310l145 340-121 142c-47-114-83-270-171-352 32 121 124 270 116 393-123 40-125 11-233 11-84 0-136 45-215 63-11-1-213-94-221-269-42 53-10 26-36 24-225-346-57-357 10-468-112 25-65 24-146 85-62-39-434-391-462-448-27-55-182-624-194-701 274-89 624-341 807-425 150 233 286 972 382 1071 139 59 468-45 549 118 31 62 61 189 78 259 21 84 69 197 25 269zm-934-595c-112-158-120 23-238-251-66-154-35-243-29-390-24 148-65 237-10 402 62 184 92 194 276 239zm81 293l-44-306c-49 65-36-64 0 157 13 82-1 82 44 149zm331 212c21-39 31-13 59 11 99-84 31-103 187-139-64-23-107 1-163 78h-116c-63 53-150 193-198 204-127 28-221-81-264 148l106-108c229-17 194 171 336 290-7-100-83-212-155-273 50-58 149-182 207-211zm-1536-917c-7-85-62-181-98-253l54 190c19 48 15 38 44 64 1 100 181 533 230 657 90 230 163 440 233 679 114 389 276 1023 446 1359 120 307-216 1054-230 1174-126 1061 110 1021 84 1297-267 221-376 121-689 29-129-38-610-173-685-240 114-326 308-302 176-975-97-498-9-310-33-546-30-300-474-1066-600-1855-43-268 191-372 203-385-59-41-160 45-190 113-33 74-57 193-82 275-141 457-350 1156-600 1522-384 562-866 1112-1015 1803-67 50-744 219-832 198-82-20-424-484-456-585 128-148 281-247 342-445 77-251 196-235 251-523 46-238 46-409 110-641 54-199 118-399 177-598 30-101 61-205 89-307 48-175 75-124 137-259 92-202 75-432 132-641 61-226 145-387 170-625 23-219 44-495 49-714 470-6 941-44 1412-45 65 0 128-7 187 12 289 94 185-42 427-54 237-12 483-4 720-2 54 293 336 1159 445 1476 63 184 320 929 338 1107 7 67 24 408-35 434-133-462-275-930-407-1397-55-194-414-1202-501-1298zm-3175 2968c162-149 710-1564 931-1839 81 37 330 288 567 245-124-25-470-190-544-287l130-276c132 202 301 246 532 184-209-41-355 15-505-205 8-155 221-566 259-777-87 119-229 582-315 762-218 455-525 966-717 1443-51 126-106 249-162 373-39 87-160 306-175 376zm2864-2989h-67c-428-19-234 59-476 112l10-246-62 243c-165-28-209-89-345-151 78 112 220 162 348 205l-13 134c-202 14-264-139-447-109 159 46 261 116 427 169 3 307 102 415 42 753 142-210 6-455 1-654-3-133 67-164 152-241 91-84 225-30 341-22-324-148-358-2-465 58 9-119-19-70 74-108 179-73 52-123 480-143zm-192 952c170 3 473-98 572-241-197 94-194 105-413 177l-122 38c-26 13-31 21-38 27zm-929-104l-64-51c-112-8-342-143-425-221 44 138 348 258 489 271zm982-164c201 13 394-293 449-468-110 121-288 429-449 468zm-829-132c-96-91-153-66-266-102-94-29-143-99-244-133 151 197 286 171 510 235zm1965 7666c-97-40-178-36-251-132-71-93-18-216-121-276-34-20-389-53-385-404-52 342 221 395 333 438 140 53 18 410 423 375zm-4712-338c195-56 207-473 207-625-1-239 117-454 189-677-100 102-228 468-234 616-14 320 35 410-162 685l-64 47c86-19 38-3 64-47zm1023-3347c12 68 39 106 80 164-6-24-13-65-20-86-31-95-17-52-60-78-24-96-227-246-332-271-6-51-21-45-58-58l-35-53c-13-70-48-161-132-155 40 7 38 5 62 49 53 98-24 42 70 106-5 51-9 41 35 53l58 58c29 55 107 83 170 130 43 32 147 132 163 141zm494-400c-869-98-692-210-892-291 168 263 594 340 892 291zm2899-409c-141-107-545-98-771-252 60 153 613 264 771 252 29 24-26-2 40 28 14 6 28 9 42 13l-81-40zm-728 238c86 302 636 446 798 213-185 71-265 100-469 33-127-41-257-123-310-241l-18-47c-25 39-24-3 0 42zm195 459c44 78 152 150 260 159 39 3 356 10 383 6-57-1-75-28-134-39-66-11-145 2-212-5-141-14-191-94-298-122zm-2882 188c-454-47-350-81-479-94 18 35 1 48 97 82 144 50 251 38 383 11zm5361-1538c-18-68 5-28-42-59-29-107-765-1229-845-1519l290-2c156 365 704 1008 978 1378 43 58 115 162 171 178 23 58 51 83 104 120-43-68-42-99-104-120-31-114-1058-1418-1105-1602 83-80 132-189 257-223 172 200 868 1120 998 1200l-937-1231c88-131-36-491-83-636-86-268-352-178-596-202-93-243-213-950-395-1085l-96 41c-142-183-269-407-419-596 14-470-23-830-223-1259l-17 1c82 641 403 1046 68 1552-73-18-328-139-362-201-25-45-95-349-113-421-64-253-38-201 2-437 19-115 69-365 32-461 142-98 158-206 224-257 54-41 82-51 133-105 42-44 80-94 123-130-8 97-23 203-62 291-45 101-39 111-45 168l17-1 9-51c133-208 104-381 116-474 25-179 121-46-11-301l123-32c-32-104-654-573-731-620-307-187-575-210-858-466 37-110 126-263 174-380 120-290 47-144 262-314 204-161 206-837 176-934-76 23-136 262-201 343-129-924-1050-939-1322-373-97-100-45-218-65-361-112 46-225 432-251 556-49 233-26 473 145 636-13 135-118 325-200 437-99 136-254 122-424 210-190 98-416 231-588 365-66 51-156 59-238 79-220 56-754 212-882 386-70 94-108 397-113 527-10 266 27 325 105 554-116 190-213 262-204 517 7 211 56 439 71 654 15 213-75 404-98 624-29 276 23 397 51 647l-75 53c203 468 349 912 577 1367 54 109 99 215 150 327 47 103 70 273 152 344 162 139 230 58 368 56 64-1 116 36 173 58 80 30 144 27 229 30-49 273-187 654-267 934-56 194-79 295-103 498-19 160-29 350-134 476-222 268-29 268-493 696-105 97-144 52-264 331-58 135 36 367 55 521l-65 34-20 592 89 46 10 184-95-14-25 586 107 16c19 431-23 594-235 950-153 258-345 558-309 875 33 72 1072 312 1420-101 98-117 17-212-22-328-38-114 0-304-5-442-6-165-88-749-62-845l165-12 136-496c-55-53-41-26-21-107 92-2 39 12 101-22 29-129 104-323 149-461 47-143-21-60 13-164 57-172 316-342 308-551-6-168-88-135-20-351 35-113 75-204 127-309 377-763 668-987 991-1546 147-254 359-960 447-1265 52 102 152 579 195 733 98 353 301 636 387 1001 41 172-15 271 9 429 40 274 149 542 39 816-106 264-229 341-268 661-46 375 204 320 83 739-35 121-1 271 42 384 77 202 82 153 64 375-24 307-14 292 94 380 91 74 81 285 79 397-106 142-124 163-157 354-13 75-9 149-43 213-44 81-61 77-69 185-16 197 19 238 185 323 127 64 275 98 417 118 337 47 570 108 929 125 195 9 858 33 1012-21 11-108-23-481-106-551-231-197-1031-284-1153-868-64-303 10-942 44-1269 33-310-9-254 130-540 201-414-284-768-79-1781 32-159 138-315 177-501 40-191 58-411 72-606 65-922-357-1362-524-2171 62 32 317 292 403 363 3 174 54 280 157 415 39 50 99 111 146 151 93 79 127 48 229 29 101 217 775 1380 910 1486 19 65-5 29 42 59 19 53 13 51 56 82-19-56-13-52-56-82zm999-295c-54-72-24-66-100-108 36 53 44 74 100 108zm-127-133c-35-75-21-78-88-115l88 115zm-99-125c-16-57-11-52-61-87 18 55 8 48 61 87zm-3877-4496l-113-101c24 53 1 31 40 62 17 14 55 29 73 38zm1230 1494l34-484c-84 103-96 377-34 484zm-2292-728l75 182c-6-65-37-140-75-182-63-367-281-845-230-1340 296 0 525-50 811-93-10 149-18 256 10 405-62 45-173 75-237 146 106-31 158-109 250-95 30 233 70 373 111 591-255 133-296 197-616 116 247 161 432 24 637-71l97 411 1 86c-164 75-370 122-533 42 111 142 446 71 583-6 174-97 133-2 289-4 91-2 200-83 302-108l68 273 11 105-100 41-255 11c-166-137-329-191-463 29-172 33-524 28-713 29-727 7-688 87-760-101l-147-366c163-77 433-141 617-143-51 109-352 344-461 589 76-60 234-289 313-368 72-71 197-178 254-250-142-31-277-15-413 31-95 33-238 105-315 122-42-62-69-107-89-143 109-53 533-375 565-440-144-54-641 11-765 115l-1-1 578-611c-167-119-537-36-710 40 190-25 457-119 644-28-142 125-411 420-514 598-47-56-110-129-196-226 78-281 78-428 71-693-2-73-49-283 3-318 215 246 737 263 1039 288 30 356 91 1045 265 1337zm1582 485c-27-89 11-59-40-132l-49-266c56-44 17-19 89-36-239-10-182 44-358 81-170 36-118-93-369 4l-11-66-11-1 10 1-74-443c230-38 126 73 590 7l116 417c-13-169-111-426-139-610-31-209-1-477 9-690 202 17 166 20 356-32-3 92-25 184-8 270-111 7-107-16-206-34 13 73 48 178 102 218 3 49-5 51 41 79-42 177-10 179 15 343-118-141-31-102-90-159l-49-43c9 33 183 408 214 478l-31-29-101-20c2 189 77 245 215 342l50 297-273 24zm-1745-604l-236-190c27 115 125 170 236 190zm-1012-261c190-43 485-152 692-101-52 49-431 322-501 411-66-122-35-121-190-310zm777-216c-37-102-163-162-275-178 41 32 92 48 145 78 64 36 83 79 131 99zm-1836 356c198-311-11-593 7-864 9-129 67-286 85-423 26-199-13-287-46-465-7 48 50 187 21 440-16 142-75 283-91 423-35 300 187 482 24 888zm-10 555c19 30 21 33 59 55 116 67 98 41 109 221l18-152c-62-71-90-118-187-124-20-51-55-52-101-107-48-58-47-89-110-106-44-112-138-168-168-328-36-191 16-293 23-462-133 360-5 765 145 790 29 73 132 193 210 213zm880-1705c-43-222-365-530-510-678-156-160-556-397-784-424 40-244 721-476 954-482 107 217 396 1383 339 1584zm-1293-1102c261 105 519 278 725 463 118 107 189 177 300 295 84 89 184 275 269 344 40 205 22 449-27 655-31 131-32 144-97 259-41 72-92 164-117 239-59 20-151 125-227 170-97 57-194 73-303 95 128 77 247 2 372-52 56 126 100 553 106 706-470-9-717 125-1138 201-35-243-78-373-50-633 23-213 111-396 99-605-24-431-204-789 117-1140 78 98 150 197 269 248-145-163-244-271-303-509-52-210-79-555 5-737zm3986-384c23 107 85 190 130 290 80 177 67 256 145 268l-54-199c-74-109-127-269-221-359l20-32c484 255 189 97 500 331 81 61 161 113 241 175 53 41 167 152 203 182l-394 67c-27-149-112-330-188-455 54 295 204 492 193 847-12 396-216 503-547 490 25-318-65-1221-225-1522-224-123-500-7-767-65 25-71 24-53 5-125l-70 172c-137-24-172-75-358-81-171-5-369 32-525 57 132 4 382-30 525-17 182 17 215 63 356 96 87-30 37-50 142-40 263 25 488-79 692 4 81 259 185 783 218 932 24 227 16 358-21 583-210-15-550-70-695-227-17-230-7-382-53-620-33-172-113-379-136-518 6 181 219 832 128 1151-256 48-544 85-804 80-4-215-220-1201-331-1357 53 227 304 861 304 1363-604 0-608-55-1048-219-55-72-65-254-83-354-77-424-161-620-268-1009 249-103 121-62 357-213 119-76 238-150 362-213s337-99 409-165c54-49 187-270 199-336 14 226-14 193 109 390 242 388 667 583 953 297 50 17 21 2 77 42 209 149 476 254 517 309zm-3606 295c141-120 325-147 392-210-146 13-351 46-392 210zm340 320c152-171 179-118 367-187-139-28-356 17-367 187zm1464-812c-40 33-20-5-41 66l41-66c125-80 99-317 69-443-4 95 11 117-13 225-18 79-52 141-56 217zm-852 31l-31-63c3 73-19 20 31 63zm417 447c18 52 90 139 153 155l-153-372c-5-73-84-296-119-356 4 50 62 267 91 321 14 25 15 22 28 35 2 87 51 172 76 258l-77-40c-21-62-2-26-69-72-29-20-49-38-79-59-57-40-107-84-171-105 48 61 245 208 319 237zm-211 484c-1-257-229-361-318-601-22 219 258 381 318 601zm-207 236c91-30 222-117 321-162 139-64 280-73 371-113-211-27-575 108-692 276zm205-1011c-39-57-108-107-176-138 38 73-12 24 83 82 35 21 58 37 93 55zm934-47c65-75 71-252-9-321l9 321zm1097 38c-43-44-66-57-89-120-25-68-19-103-64-155-3 115 11 276 153 275zm-618-640c49 67 117 81 200 99-2-95-117-110-200-99zm-81-108l-80 27 57 9c191 10 322 71 477 91-208-116-196-115-455-127zm212-525c30-88 30-201-56-244l56 244zm166-48l160-102c-106 1-134 1-160 102zm1216 12533l7 108 38-92c-2-136 25-292-15-421-84-80-383-80-505-70-20-111-74-207-105-317-62-218-13-195 4-375l58 12 533 108 24 310c-1 52-7 45 14 104 1 3 5 8 7 12l25-127c-6-108 25-252-21-346-86-63-444-81-574-87-14-21 52-17-52-17 21-325-264-460-47-883 205 83 842 286 1077 337 171 37 214-81 349-128 75 213-10 329-92 506-92 197-168 1519-97 1762 101 344 374 459 678 611 478 240 544 89 571 707-154 48-780 24-973 15-324-16-1005-106-1290-220-248-99-252-268-135-470 36-62 32-142 45-214 84-480 220-160 138-671-22-136-78-117-154-197-18-149 8-283 17-428 484 86 480 49 473 471zm-173-9065l-41-79-52-172 128 11 2 63-37 178zm-3254 8832c-6-79 32-175 54-256 33-118 12-192 143-166l-120 424-77-2zm-862-1413c60 1 65 15 120 53l-22 504c-55 3-68-10-119-48l21-509zm1309 321l-157 484-99-6c-13-86 61-400 108-476l148-2zm-1080-1200c125 103 328 538 486 584 111 32 717-166 874-180 95 264-70 302-308 744l-151 13c-49 72-120 425-135 527l52 52-27 63-89 29-178 606c-2 74 22 159 36 232 26 141 33 337 41 482 8 158-34 369 11 499 59 173 130 218-47 344-138 99-196 124-367 151-157 24-782-15-902-93-64-234 179-651 301-848 246-399 223-485 242-945l73-14 4-521c-24-66 9-16-64-63l-9-155 67-2 25-595-95-56c-11-86-87-457-83-496 16-131 140-295 243-356zm-595-4819c151-133 1074-307 1277-226 7 138 13 282-14 418-35 174-62 194-14 384 97 392 39 337 375 496 179 84 143 88 168 271 24 170 17 232-13 399-49 270-120 476-440 329-216-99-207 10-339-17-136-28-190-89-223-214-46-177-180-437-265-607-177-354-387-857-512-1232zm3554-380c-4 129-10 202 67 314l-1524 51c9-118 11-222 51-334l1406-31zm1155-86c54 70 109 266 119 358l-775 2c63-108 45-198 19-313l638-46zm306-226c107-67 134-185 158-301 84 77 359 473 399 584-196 74-486 295-687 342-71-241-179-575-203-821 116 71 190 162 334 197zm-3767-519c129-75 143-222 220-314 127 110 326 377 400 547 118 272 258 478 213 701-24 116-50 718-64 891-35 454-182 623-182 741-51-318 20-209-444-429-56-167-154-453-116-623 27-124 44-193 47-324 7-316-17-231-87-279-2-170-34-350-63-518-65-376-6-155 76-394zm3390 360c-88-56-128-157-154-258 130 25 137 133 154 258zm-483-1383c27 86 1 357 1 469 1 177 30 268 45 426-229 3-382-43-602-60-52-211-92-339-97-562 123 18 187 68 290 124-63-94-183-127-294-156-45-121-35-288-19-416 181 114 456 160 676 175zm918-896l26 159c-82 127-190 311-296 404-3-93 16-163 7-268-7-89-29-169-37-255l300-39zm-2321-1287c-173-157-225-375-161-601 87 22 256 136 357 183 59 28 119 54 179 80 153 69 106 177 282 77 46-26 336-100 396-114-30 137-220 578-343 642-121 63-305 30-428-18-135-53-176-114-261-215 18-178 50-314 45-502-76 105-64 330-67 466zm448-366c-98-2-310-124-403-178-129-75-259-129-324-270-130-284-6-705 135-933 4 207 6 216 124 377 70 96 138 192 208 287 294 396 287 358 261 717zm316-306c133-96 278-180 414-278 178-130 169-230 268-401 30 620-92 940-760 1024l78-344zm-778-778c317-708 1293-346 1243 393-95 107-282 224-414 300-201 117-88 349-210 490l-89-13c-73-117 12-285-19-417-23-98-439-589-512-753z"/>
  <polygon points="4511 5420 4583 5396" class="fil9"/>
  <polygon points="9902 10308 9872 10239" class="fil10"/>
  <polygon points="7269 11436 7207 11393" class="fil11"/>
  <polygon points="4198 10067 4237 10004" class="fil12"/>
  <polygon points="4177 2852 4114 2805" class="fil13"/>
  <polygon points="4297 2929 4237 2891" class="fil14"/>
  <polygon points="4355 2971 4297 2929" class="fil15"/>
  <polygon points="4198 10067 4147 10129" class="fil14"/>
  <polygon points="3146 7386 3153 7372" class="fil16"/>
  <polygon points="4497 5269 4446 5329" class="fil17"/>
  <polygon points="4237 2891 4177 2852" class="fil9"/>
  <polygon points="9805 10168 9849 10236" class="fil18"/>
 </g>
</svg>
