<?xml version="1.0" encoding="UTF-8" standalone="no"?>
<!DOCTYPE svg  PUBLIC '-//W3C//DTD SVG 1.1//EN'  'http://www.w3.org/Graphics/SVG/1.1/DTD/svg11.dtd'>
<!-- Creator: CorelDRAW X5 -->
<svg style="shape-rendering:geometricPrecision;text-rendering:geometricPrecision;image-rendering:optimizeQuality" xmlns="http://www.w3.org/2000/svg" fill-rule="evenodd" xml:space="preserve" height="500px" width="500px" clip-rule="evenodd" xmlns:xlink="http://www.w3.org/1999/xlink" viewBox="0 0 12764 16208">
 <defs>
  <style type="text/css">
   <![CDATA[
    .fil0 {fill:#003399}
    .fil8 {fill:rgb(39, 39, 39)}
    .fil6 {fill:#454545}
    .fil7 {fill:gray}
    .fil2 {fill:#9999FF}
    .fil1 {fill:#CCCCFF}
    .fil3 {fill:#E6E6E6}
    .fil4 {fill:#FFCC00}
    .fil5 {fill:#FFFFCC}
   ]]>
  </style>
 </defs>
 <g id="Layer_x0020_1">
  <path class="fil0" d="m8726 11817c33-90 90-79 224-156 480-277 1031-716 1150-1314-286 63-456 119-779 144-669 50-1799-32-2411-209-505-146-1326-548-1700-941l-428-449c-518 62-2078 1120-1777 1991l526-275c-21 80-134 113-206 153-458 253-1241 623-1583 844-864 557-650 671-151 1075 125 102 356 236 382 318-148-52-253-184-370-243-80 151-127 603-71 780 333 104 992 104 1380 105 491 1 876-39 1290-191 24-173-6-244-35-404-213 31-689 89-841-54 49-36 174 24 255 36 299 44 603-16 873-126 297-121 160-109 508-52 609 100 1264 106 1862-3 470-86 536-139 903-282 100-39 96-3 96-2-97 85-332 138-447 198-4 2-13 14-16 10-3-5-11 6-16 10 862 96 1692 335 2464 679 128 57 227 102 348 168 109 60 225 136 326 175-143-337-184-796-206-1197-14-245 46-1172-53-1298-66-77-539-146-678-13-69 66-75 70-139 119-141 108-479 349-682 405zm2183 1946c-178-206-219-222-474-293 32 476 426 617 474 293z"/>
  <path class="fil1" d="m5429 6806c90 270 415 536 726 546 68 2 141-7 201-24 33-10 47-14 76-32l54-43c-106-22-608-180-659-308 103 30 216 100 323 145 343 145 696 218 1074 261 854 96 1961 24 2780-284 96-36 213-111 303-125 263-43 511-37 778-103 135-33 236-62 253-205 29-242-93-227-95-228l-90-39c229-15 449-102 494-320 71-340-224-341-491-305 33-77 30-52 130-78 303-77 664-286 199-538-383-208-1138-111-1198-146 84-72 407-39 542-48l-33-70c-143-32-604-571-993 265-135 289 24 229-421 395-984 367-2125 385-3101-23-63-26-239-88-232-132 48-23 89 19 161 52 60 28 124 54 186 71-94-156-252-311-496-361-987-204-603 1533-469 1675z"/>
  <path class="fil1" d="m7771 7433c52 382 85 705 55 1108-18 233-101 781-210 953-388 34-1019-134-1369-230 87 34 241 136 355 188 914 421 2079 775 3072 462 323-102 487-176 655-418 436-628 764-1940 471-2543-92-30-273 15-392 25-169 15-196 55-339 112-802 321-1458 302-2297 344z"/>
  <path class="fil2" d="m5389 6854c-199-482-373-1594 194-1761 560-165 828 405 949 456 136 57 539 149 676 160-209-651-978-943-1031-993-307-89-605-221-954-307-156-38-362-64-506-116-138-51-294-153-321-302l-6-45c-213 144-43 715 45 952 100 292 197 561 279 859 182 654 265 1322 169 2030-81 597-163 412 210 770 173 167 415 328 678 459 526 262 1161 400 1828 441 28-144 88-298 120-463 112-575 84-992 6-1563-246-4-498-28-733-64-111-17-221-38-325-63-168-40-127 11-276 60-482 159-851-226-1002-508z"/>
  <path class="fil1" d="m6107 3888c-9 8 15-1-32 24-177 97-835 209-1206-47 223 40 357 105 621 110 238 4 451-86 617-87zm-1797-2524c20 3 55-17 152-108s80-125 145-185 88-135 251-221c0 0-242 276-267 397 0 0-96 158-280 117-1-22-9-36-9-46 5-133 111-265 162-372-153 125-191 272-266 402-3 6-16 24-19 28-5 7-16 21-22 27-44-224-16-235 27-439-131 126-115 358-140 558-47-86-69-128-83-483-36 68-45 265-24 326-3 73 15 81 21 150 5 57 9 85-14 122-36-40-101-157-91-204-17 122 49 278 91 368 112-79-12-39 177-187 167-132 192-206 189-249zm1797 2524c13-12 6-13 43-31 33-16 22-6 61-15-86 64-60 38-104 47zm-2888-1681c154-96 479-218 574-4-202-162-345 5-574 4zm1654-592c106 24 221 38 338 32 52-3 113-12 159-29 36-13 31-12 55-31l54-51c-23 302-542 133-606 80zm-714 84c4-87-2-59-39-22-96 59-119 127-22 230 178 190 173 85 188 193-119-43-237-145-287-266-234 254 156 376 156 377l-57 17c-33 0-23-2-48-10-167-58-155-220-186-250-175-83-414-104-612-20-547 230-328 782 133 714 232-34 250-148 357-205 102-55 113-13 119-8-129 85-306 128-244 371 46 178 274 420 405 562 55 59 107 100 144 180 53 114 95 352 263 316 24 392 415 384 800 487 444 119 686 232 972 314 24 27 273 146 334 184 562 353 559 617 747 862 855 110 1607-39 2310-334-244-283-1185-782-1544-923-269-106-1150-278-1367-502-113-116-134-257-162-462-196 116-369 324-733 351-921 69-1514-834-1271-1396 48-111 164-264 265-282 39-41 69-60 123-82 134-57 289-89 435-102 280-24 274-197 293-453-324-108-470-248-1019-187-176 20-369 74-279 277 106 240 227 178 284 311-287-82-326-335-370-396-92 117-54 175 31 248 182 156 181 39 195 149-140-30-280-120-313-243z"/>
  <path class="fil3" d="m5739 3319c290 84 253 80 522-16-112 145-335 154-460 79-45-27-41-34-63-63zm-648-842c104-116 200-183 351-152-92 57-142 26-247 121 79 474 756 797 1243 519 278-159 261-253 362-282-47 202-504 486-915 418-558-92-631-444-740-603-53 51-46 54-135 80l81-101zm-304-289c-26 41-50 45-93 85-324 302-179 782 37 1082 190 264 745 569 1229 420 397-122 736-484 921-775 252-395 316-837 238-1370-415 134-710-90-954-353-83-90-118-177-201-279-28 44-19 29-51 68-396 487-195 917-295 1147-37-46-28-73-25-154 2-64 6-77-5-142-65 65-63 92-157 109-65 12-151 12-228 26-170 31-281 100-416 134z"/>
  <path class="fil1" d="m10584 10829l-34 31-20-47c5-256 28-298 135-481-185 130-196 313-254 451-21 50-49 84-71 142-163 431 80 1060 245 1459 49 120 281 536 281 587-69 15-16 17-51-22-9-10-29-50-39-70-24-50-46-90-73-143-118-225-243-508-321-752l-60-147c-15 570 0 1027 91 1576l239 72-115-241c78 15 22-11 65 43 70 87 268 618 834 588-131-176-276-229-295-345 69 16 62 46 126 103 48 44 66 56 110 105 177 197 634 482 873 256 449-425-570-1978-837-2417-116-190-231-360-335-545-136-241 58-474 183-568-124 27-213 117-266 213-98 174 8 213-262 164-1-201 121-336 196-472-114 56-312 299-344 460z"/>
  <path class="fil1" d="m4383 5700c145 81 210 184 333 265-33-262-199-679-284-936-48-145-77-344-191-431-104-80-281-153-448-153-832 0-561 1355-499 1875 67-32 73-59 157-76-36 75-457 297-186 831 116-59 155-20 256 24 67 29 43 13 118-16 56-22 90-22 137-41 74-179 63-106 174-215-34-172-31-324 77-411 57-46 250-134 340-122 67 9 7-14 41 18-195 121-537 47-414 490 129 2 261-73 335 3-178 58-341 8-456 146-184 223 89 560 568 202 214-160 155-271 211-363 137 170-211 416-293 477 93 34 142 56 207 118 46 45 135 132 86 205-47-51-37-88-96-153-213-231-373-72-584-90-31 325 115 612 350 689 358 117 499-184 522-480 23-299-43-652-124-927-37-126-89-264-151-364-173-276-202-115-204-341l18-225zm-606 1402c-163 12-240 81-258 244-43 383 196 886 661 683-169-168-250-316-258-665-49-100-129-33-145-262zm-121 918c4-75 9-16-39-90-206-312-148-505-92-785-125-49-216-100-305 52-202 343 137 921 437 823z"/>
  <path class="fil4" d="m8776 10301c-1165 0-2251-417-3164-1019-150-99-702-463-772-647 65 27 308 251 393 318 334 262 883 605 1280 781 671 298 1389 523 2220 523 432 0 1425-90 1737-404 114-114 118-244-30-312-77-35-49-26-86 1 1 94-4-81 49 51-106 64-166 124-301 194-476 246-810 290-1348 290-799 0-2004-428-2631-832-236-152-478-201-877-498-120-89-284-230-357-329-48 67-62 213-76 315-22 166 158 310 299 449 52 51 124 127 186 179 267 223 552 419 919 607 832 425 2458 617 3507 429 367-66 459-96 446-316-449 147-883 222-1394 222z"/>
  <path class="fil1" d="m877 14916c120-54 239-166 328-242 118-101 256-81 440-119 322-66 593-163 890-247 461-130 1392-304 1718-537 38-284-159-224-350-178-492 117-1314 103-1805 67-476-35-444-120-1012 164-212 106-220 116-265 226-43 106-210 224-367 395 161-93 270-185 470-260 23 182 16 96 88 232-111 44-344 232-430 335 220-53 417-218 611-283-68 115-277 306-315 447z"/>
  <path class="fil2" d="m6875 4014c99 113 458 204 645 245 253 56 459 126 682 222 583 249 695 384 1147 646l-229-212c-95-82-160-140-258-215-181-138-338-253-549-374-263-152-1063-496-1438-312z"/>
  <path class="fil5" d="m6430 871c3 203 322 365 546 315-21-105-121-159-222-218-80-46-218-151-324-97z"/>
  <path class="fil6" d="m6107 3888c44-8 18 18 104-47-39 9-28-1-61 15-37 18-30 20-43 31z"/>
  <polygon points="10584 10829 10531 10813 10550 10860" class="fil7"/>
  <path class="fil8" d="m877 14916c38-141 247-332 315-447-194 65-390 231-611 283 86-103 319-291 430-335-72-137-65-50-88-232-200 75-310 167-470 260 157-171 324-289 367-395 45-110 54-120 265-226 569-284 537-199 1012-164 492 36 1314 50 1805-67 191-46 387-106 350 178-325 233-1257 407-1718 537-297 84-569 181-890 247-184 38-321 18-440 119-89 76-208 189-328 242zm5230-11028c-165 2-378 92-617 87-264-5-398-70-621-110 371 256 1028 144 1206 47 47-26 23-17 32-24zm-367-570c21 28 18 35 63 63 124 76 348 67 460-79-270 96-233 100-522 16zm-867-1703c63 53 582 222 606-80l-54 51c-24 19-19 18-55 31-46 17-107 26-159 29-117 7-232-8-338-32zm139 963c90-25 82-29 135-80 109 159 182 510 740 603 411 68 868-216 915-418-101 29-84 123-362 282-487 279-1164-45-1243-519 104-95 155-64 247-121-151-31-247 36-351 152l-81 101zm-1793-371c229 0 372-166 574-4-94-214-420-92-574 4zm7217 11263c254 71 296 86 474 293-48 324-442 183-474-293zm-1709-1653c203-56 541-297 682-405 64-49 70-52 139-119 139-133 613-63 678 13 98 126 39 1054 53 1298 22 401 63 860 206 1197-101-39-218-115-326-175-121-67-220-111-348-168-772-344-1601-583-2464-679 5-4 13-15 16-10s12-8 16-10c115-61 350-113 447-198 0 0 5-37-96 2-367 143-433 196-903 282-598 110-1253 103-1862 3-348-57-211-69-508 52-270 110-574 170-873 126-80-12-205-73-255-36 151 143 628 85 841 54 29 160 59 231 35 404-415 151-799 191-1290 191-389-1-1048-1-1380-105-56-176-10-629 71-780 117 60 222 191 370 243-27-81-257-216-382-318-500-404-713-518 151-1075 343-221 1125-590 1583-844 72-40 185-73 206-153l-526 275c-302-871 1259-1929 1777-1991l428 449c374 393 1195 795 1700 941 612 177 1741 259 2411 209 323-24 493-81 779-144-119 598-670 1037-1150 1314-134 77-190 65-224 156zm1804-1004l53 16c32-161 230-405 344-460-75 136-198 271-196 472 270 50 164 10 262-164 54-96 142-186 266-213-125 94-319 327-183 568 105 186 219 355 335 545 268 440 1286 1992 837 2417-239 226-696-58-873-256-44-49-62-61-110-105-63-57-57-87-126-103 19 116 165 169 295 345-565 30-764-501-834-588-44-55 12-29-65-43l115 241-239-72c-91-549-107-1006-91-1576l60 147c78 243 203 526 321 752 28 53 49 93 73 143 10 20 29 59 39 70 35 39-17 37 51 22 0-51-232-467-281-587-164-398-408-1028-245-1459 22-58 51-93 71-142 58-137 69-321 254-451-108 183-130 225-135 481zm-1755-512c511 0 945-76 1394-222 13 220-79 250-446 316-1049 189-2675-3-3507-429-367-188-652-384-919-607-62-52-134-127-186-179-141-139-320-283-299-449 13-102 27-248 76-315 73 99 237 240 357 329 399 297 641 346 877 498 627 404 1832 832 2631 832 538 0 872-44 1348-290 135-70 195-130 301-194-53-131-48 43-49-51 37-28 9-37 86-1 148 68 144 197 30 312-312 314-1305 404-1737 404-831 0-1549-225-2220-523-397-176-946-518-1280-781-85-67-328-291-393-318 70 184 622 548 772 647 913 602 1999 1019 3164 1019zm-4999-3200c16 230 96 162 145 262 8 349 89 497 258 665-464 203-703-300-661-683 18-163 96-232 258-244zm3994 332c839-42 1495-23 2297-344 142-57 170-97 339-112 118-10 299-55 392-25 293 603-35 1915-471 2543-168 242-332 317-655 418-993 312-2158-41-3072-462-114-52-268-154-355-188 350 96 981 264 1369 230 108-172 192-720 210-953 31-402-3-726-55-1108zm-4116 586c-300 98-639-480-437-823 89-151 180-101 305-52-56 280-114 473 92 785 49 74 44 16 39 90zm771-2234c281 258 299 162 357 458 48 244 90 521 88 781-27-43-35-108-45-158-12-61-25-113-41-174-192-772-442-488-359-908zm-62 140c2 226 31 65 204 341 63 100 114 239 151 364 81 275 147 628 124 927-23 296-164 598-522 480-235-77-381-364-350-689 212 18 372-141 584 90 59 64 49 102 96 153 48-73-40-160-86-205-64-63-113-85-207-118 82-61 429-307 293-477-55 92 4 203-211 363-479 358-752 21-568-202 114-138 278-88 456-146-74-77-207-1-335-3-124-444 219-370 414-490-35-32 25-9-41-18-90-12-283 76-340 122-107 87-111 239-77 411-110 109-100 36-174 215-46 20-81 19-137 41-75 30-51 45-118 16-101-44-140-83-256-24-271-534 150-757 186-831-85 17-91 43-157 76-62-520-334-1875 499-1875 167 0 344 73 448 153 114 87 143 286 191 431 84 257 251 674 284 936-123-81-189-183-333-265l-18 225zm44-4585c33-14 148-191 189-236l84-78c-127 243-136 306-273 314zm-472 25c-33-150 24-325 24-326l11 192c-1 110 26 205 73 291 25-200 9-432 140-558-43 204-71 215-27 439 2-2 5-8 11-13 2 3 9-10 11-14 3-4 15-23 19-28 75-129 113-277 266-402-51 107-157 239-162 372-1 30 72 98-180 296-188 148-64 108-177 187-42-90-107-246-91-368-10 48 55 165 91 204 23-37 20-65 14-122-7-69-24-77-21-150zm6867 3489l-8 9 33 70c-134 9-458-24-542 48 60 36 815-61 1198 146 464 252 104 461-199 538-101 26-97 1-130 78 267-36 562-35 492 305-45 218-265 304-494 320l90 39c1 0 123-15 95 228-17 143-118 172-253 205-268 66-516 60-778 103-90 15-207 89-303 125-819 307-1926 379-2780 284-379-43-731-116-1074-261-107-45-220-114-323-145 51 128 552 286 659 308l-54 43c-29 17-43 22-76 32-60 17-133 27-201 24-312-10-636-276-726-546-63 0-48-15-40 48 150 282 520 667 1001 508 149-49 108-100 276-60 104 25 214 46 325 63 235 36 487 59 733 64 79 571 107 988-6 1563-32 165-92 320-120 463-666-41-1302-179-1828-441-262-131-504-292-678-459-372-358-291-174-210-770 96-708 13-1376-169-2030-83-297-179-567-279-859-77-223-241-711-81-920l37-32 6 45c27 150 183 252 321 302 144 53 350 78 506 116 349 86 647 218 954 307 40 19 10 2 21-40-286-81-528-195-972-314-385-103-776-95-800-487-168 36-210-203-263-316-37-80-89-120-144-180-131-142-359-384-405-562-62-243 114-286 244-371-6-5-17-47-119 8-106 57-125 171-357 205-461 68-679-483-133-714 198-84 437-63 612 20 31 30 19 193 186 250 24 8 15 10 48 10l57-17s-390-123-156-377c51 121 168 223 287 266-15-108-9-3-188-193-97-103-74-171 22-230l34-27 5 49c33 124 173 214 313 243-13-111-12 7-195-149-85-73-123-131-31-248 44 61 83 314 370 396-56-133-178-71-284-311-90-203 103-258 279-277 548-61 695 78 1019 187-19 255-13 428-293 453-145 13-300 44-435 102-54 23-84 41-123 82l10 13c134-34 245-103 416-134 77-14 164-14 228-26 93-17 92-45 157-109 11 65 7 78 5 142-2 80-11 107 25 154 100-230-102-660 295-1147 32-39 23-24 51-68l-12-10c-179 67-258 381-312 507-360-174-585-221-1056-188 70-244 283-369 372-514-330 33-402 372-611 533 33-265 338-564 455-683-397 129-532 516-623 605 8-267 124-374 200-565-144 64-334 336-358 571-51-197 2-337 1-517-150 228-134 386-124 684l-115-256c-41 388 152 607 115 750-207-34-310-108-552-48-169 42-328 140-406 262-111 173-106 712 625 526-35 443 476 722 568 955 125 318 84 162 196 318-148 201-67 394-46 638-214-109-390-238-712-130-651 218-326 1642-319 1881 3 112-104 195-113 358-10 180 67 306 69 411 2 81-102 175-99 362 4 251 229 705 548 617 105-29 31-32 139 23 136 69 240 51 372-7 195-85 387 212 649-205-8 81-24 159-41 235-47 202-19 105 34 234 35 85-44 372-48 499-554 114-1375 735-1670 1255-150 264-203 474-137 815-362 144-1706 818-1836 1207-96 287 387 480 426 589-10 251-213 716-9 875-166 74-653 229-735 384-109 205-16 69-253 305-69 69-236 204-227 341 128-97 364-301 552-356l62 147c-104 53-401 281-438 387l36 11c42 5 19 27 222-65 93-43 157-80 248-118-56 103-187 194-169 339 130 3 276-152 355-215 174-138 180-93 440-141 327-61 605-159 908-250 368-111 1580-350 1759-570 26-143-14-212-114-265 158-124 40-296 38-486 140-57 239-80 372-145 94-46 77-50 186-28 429 84 796 115 1247 109 314-4 670-42 962-112 611-145 2037 319 2578 543 319 132 589 271 885 446 107 63 233 188 390 117 79-36 81-99 123-162 576 249 366 16 678 207 199 122 514 171 660-3 292-346-80-1066-232-1371-205-411-423-757-650-1131-228-376-576-667-132-1002 54-41 67-55 115-98-415-12-445 303-525 412-75-5-196 35-3-276l217-295c-158 30-211 81-299 171-160 161-116 167-212 277 6-233 178-401 294-513-217 41-368 201-442 391-48 122-73 194-123 306-51 114-64 229-71 362-211-44-340-65-565-54 34-51 43-58 89-104 226-228 418-694 463-1018 140-75 265-124 336-245 119-203-46-268-151-348 42-101 151-265 254-514 167-401 274-865 278-1311 1-118-8-248-24-363-15-111-58-249-62-346 136-49 291-37 418-117s139-264 59-420c140-122 296-74 352-330 51-231-54-365-262-389 121-66 259-107 310-210 114-229-277-436-514-489-76-17-146-25-226-33s-76 0-140-51c-17-13 7-9-53-43zm-1455 273c-453-262-564-397-1147-646-223-95-428-166-682-222-187-41-546-132-645-245 376-184 1175 160 1438 312 210 121 368 235 549 374 98 75 163 133 258 215l229 212zm-2595-4159c101 59 201 113 222 218-224 50-543-112-546-315 106-54 244 51 324 97zm-801 20l12 10c83 102 117 189 201 279 244 263 539 487 954 353 78 533 14 975-238 1370-185 291-524 653-921 775-484 149-1039-156-1229-420-216-300-361-780-37-1082 43-40 67-45 93-85l-10-13c-101 17-217 171-265 282-242 561 351 1465 1271 1396 363-27 536-235 733-351 28 205 49 346 162 462 217 223 1098 396 1367 502 359 141 1301 640 1544 923-704 295-1456 445-2310 334-188-244-184-509-747-862-61-38-310-157-334-184-12 42 19 59-21 40 53 50 822 341 1031 993-136-11-539-103-676-160-121-50-389-621-949-456-567 167-393 1279-194 1761-8-63-23-48 40-48-134-142-518-1879 469-1675 245 51 402 205 496 361-61-17-126-43-186-71-72-34-113-75-161-52-6 44 169 105 232 132 976 408 2118 390 3101 23 445-166 286-106 421-395 389-836 850-297 993-265l8-9c-12-29 5-4-21-35-60-72-200-133-288-159-334-102-511 35-669 318-57 102-100 284-169 374-92-64-444-430-655-597-231-183-461-366-754-513-361-181-796-363-1245-302-119 16-166 62-252-2-116-87-179-252-186-459l297-369c88-130 167-265 229-436 64-176 100-350 110-547 17-334-78-439 1-587 197-372-130-764-360-872-250-119-574-63-773 104-98 82-81 112-115 219z"/>
 </g>
</svg>
