<?xml version="1.0" encoding="UTF-8" standalone="no"?>
<!DOCTYPE svg  PUBLIC '-//W3C//DTD SVG 1.1//EN'  'http://www.w3.org/Graphics/SVG/1.1/DTD/svg11.dtd'>
<!-- Creator: CorelDRAW X5 -->
<svg style="shape-rendering:geometricPrecision;text-rendering:geometricPrecision;image-rendering:optimizeQuality" xmlns="http://www.w3.org/2000/svg" fill-rule="evenodd" xml:space="preserve" height="500px" width="500px" clip-rule="evenodd" xmlns:xlink="http://www.w3.org/1999/xlink" viewBox="0 0 12764 16208">
 <defs>
  <style type="text/css">
   <![CDATA[
    .fil0 {fill:rgb(39, 39, 39)}
    .fil1 {fill:#2D8AD7}
    .fil3 {fill:#D5212A}
    .fil2 {fill:#FEFEFE}
   ]]>
  </style>
 </defs>
 <g id="Layer_x0020_1">
  <path id="border" d="m876 11995l-51 333c-144-51-200-216-259-296 51-60 199-87 309-37h1zm-11 335c10-47 50-330 56-338 20-34 92-59 134-60 64-1 117 21 180 54-33 117-206 362-370 343zm-336-671c86-37 235-63 372-1l-20 283c-176-41-212 0-330 39-33-54-37-233-23-320h1zm708 267c-212-76-219-16-308-10-4-36 7-190 17-229 24-89 103-137 164-134 29 1 102 26 126 44 26 21 14 30 11 104-3 69 1 162-10 225h-1zm149-356c-3 60-59 255-103 293-6-33 1-129 4-172 3-41-1-127 99-122zm-203-358l60 313c-146-46-197 6-293 34-6-29-3-229 3-269 11-94 152-104 230-79zm-672-265c3 84-9 247-19 340-9 74-14 54-51 110l80 33c82-167 262-212 382-160 0 93 17 253 0 343-209-79-316-9-383-9-1-29 13-69 16-93l-1-36c-37 31-51 13-54 72-1 41-1 76-11 119-37-50-67-139-34-230-37-56-46-63-54-129-7-60-26-260-4-308 16-34 97-59 137-50l-1-3zm393 263c-62 11-209-30-368 100-9-31 10-220 14-269 11-132 31-182 140-209 41-10 87-10 133 4 69 20 60 54 67 107 7 51 21 220 13 267v-1zm330-9c37-14 124-40 166-39 6 93 24 245-6 349l-109 46c-11-133-43-232-51-356zm-63-46c-39 6-63-10-112 3-40 10-67 26-107 43l-6-26-14-202c-4-82 0-172 93-200 54-17 80 1 89 51l57 330zm-619-681c11 40-33 419-34 425-170 31-162 74-112-129 14-59 30-114 50-173 30-87 31-89 96-123zm325 323c-36 10-116-34-237 9-43 16-33 24-73 30 40-312-6-398 143-413 109-11 137 14 143 82 1 20 4 39 7 59 7 67 17 166 19 235h-1zm197-405c10 60 36 259 26 322-34 13-60 14-94 29-30 11-63 33-93 37-7-40-1-92-4-134-10-173-53-206 26-246 41-21 77-39 139-9l1 1zm53-13c40-10 64-33 107-34-39 220 140 558 163 767-16 9-167 41-186 43-10-56-62-330-54-378l94-46-29-56-67 60c-13-31-26-202-29-255-3-47-6-53 0-100v-1zm-469-469c50-13 93-36 167 4 6 104-14 205-1 350 3 34 13 79 10 112-33 3-72-10-112-7-47 3-73 19-109 23 11-79 20-160 27-237 6-60 3-202 17-245zm-104-54c76 64 59 139 49 275-7 84-19 225-34 306l-66-4 20-277c7-102 13-196 31-300v1zm316 47c31-13 104-31 144-19 73 21 66 70 66 132 0 53-3 107-4 160-1 54 7 110 3 156-39-3-69-1-106 6s-70 24-100 23c-7-56-17-416-3-458zm312-30c123 54 146 43 126 174-10 62-37 189-60 247l-123 36c-10-40-4-177-4-227 1-124-10-123 63-232l-1 1zm-582-449c6 11 4 6 7 21 3 9 3 19 4 27 1 17 3 34 4 53 4 82 4 257-13 328-74-59-47-106-39-196 6-63 16-170 37-233h-1zm9195 4112c-4-16-46-233-44-236 7-70 157-140 202-136 9 123 54 136-9 199-31 30-130 162-149 173zm-9137-4102c53-39 240-79 213 92-19 109-21 222-40 323l-173 3v-416-1zm269 37c67-21 233-43 216 86-7 53-44 266-59 306-103-37-129-13-209-23 14-82 23-305 53-369h-1zm273 62c66 3 129-10 186 50l-53 308c-130-49-90-40-210-37 26-97 39-229 77-322v1zm8639 3288c24 29 93 250 97 287-43 30-117 44-195 114-13-21-60-195-69-229-20-87 117-167 166-173zm174 475c-14-27-14-64-19-94-7-46-13-54 20-99 47-62 90-117 150-157 47-31 122-64 192-3 60 53 127 87 129 160-23 14-33 13-62 20l-183 57c-77 29-150 69-226 116h-1zm-9004-4262c90-36 232-3 316 82l-152 349c-133-103-150-41-247-53l84-379-1 1zm8579 3433c54 33 206 257 232 310-1 1-4 1-6 4-1 3-4 3-6 4-51 29-67 20-122 73l-44 34c-31-63-49-129-82-196-56-112-50-89 29-229l-1-1zm375 608c0-123-203-333 123-453 24 17 170 206 185 236-97 47-130 10-263 182-21 29-24 29-46 36h1zm-9223-4242c104-26 207 129 216 200 4 37-54 303-69 363-129-82-156-23-239-17 9-107 40-461 90-546h1zm9128 3938l-109-163c-40-56-77-102-113-159 43-103 146-233 232-124 46 60 152 217 183 249-51 53-130 40-193 197zm-569-616c109 92 183 186 269 283l-82 113c-41-41-92-119-140-180-56-70-97-109-49-216h1zm1270 933c-77-57-144-150-212-209 63-156 170-243 280-287 80-33 102 11 167 69 46 40 113 92 146 140-47 69-316 253-382 287zm-1596-1240c74 43 247 213 299 277l-43 112-302-246c1-39 24-100 44-143h1zm-27-30l-63 146-328-217c76-166 113-202 196-123 44 41 173 157 196 195h-1zm661 599l-265-287c34-106 92-177 166-203 76 53 252 237 286 303-30 27-64 46-99 80-31 31-56 80-87 107h-1zm-8243-3337c-66-37-92-66-172-89-56-16-132-7-163-20l86-303c31-3 4-3 34 1 6 0 24 4 30 6 196 40 296 11 402 26-72 132-154 242-217 379zm-624-669c50 34 96 84 154 124 57 40 129 70 182 110l-89 320c-34-39-49-79-93-120-73-70-104-46-160-79 11-43 21-82 31-124 9-39 36-96 17-126-37 9-37 47-70 72 44-134 33-67 26-177h1zm9594 4434c-60-31-170-205-197-257 31-103 116-186 185-220l320 164c-16 24-54 31-83 50-100 66-170 150-225 265v-1zm-232-279c-21-20-163-235-216-300 34-92 116-206 209-142 60 41 136 150 193 203-24 30-66 59-97 96-34 40-63 89-87 142l-1 1zm-794-472c-29-21-63-64-92-90-39-36-173-153-189-192-23-57 63-226 152-213 60 9 213 219 299 285-72 84-112 66-170 212v-1zm-784-362l-245-170c29-119 39-220 150-265 29 17 205 206 220 233-53 56-93 120-126 202zm1326 495c-46-46-93-112-142-166-27-30-46-50-74-80-27-27-64-56-80-87 54-103 130-163 215-177 47 26 109 120 142 164 37 49 117 146 127 177-122 7-143 136-189 167l1 1zm485 84c-66-44-183-187-205-245l103-84c93 51 162 107 269 154-43 56-109 82-169 174h1zm-2095-784c-44-33-130-132-156-170-46-70 60-279 99-372 73 57 147 193 219 266-37 40-66 44-103 103-39 62-43 107-60 173h1zm738 249l-263-245 97-192 21 11c54-79 133-86 199 9 20 30 122 159 132 185-46 26-64 24-106 73-40 47-54 96-79 157l-1 1zm-7126-2898c46-96 84-102 92-217-16 9-21 17-33 36-11 19-21 37-33 56-66 103-146 223-196 332l-187-79c-10 24 9 56 41 72 33 17 80 31 117 50-16 39-157 245-232 412l-206-69c36-74 62-156 100-232 50-100 92-97 132-153l-27-43c27-57 196-335 233-353 14-7 319-86 336-89-34 62-29 31-24 60 54 11 37-11 74-57 21-26 47-47 70-59-33 77-199 299-256 335l-1-1zm9140 3892l-247-222c26-136 114-199 189-265 0-21 0-33-10-53-89 56-169 185-219 293-112-63-212-130-333-186 26-76 132-162 190-166 60-4 212 31 283 37 153 10 96 19 142 24 39 4 23-36 136 11 110 46 187 102 283 154-29 39-365 339-413 370zm-1149-1070c137-16 87-67 190 63 43 54 103 134 159 183l-90 107c-36-27-106-132-137-172-24-31-114-140-120-182h-1zm-320 166c-34-27-76-74-104-104-34-34-67-67-100-104s-76-70-74-113c1-60 43-117 80-149 76-63 200-56 279 34 64 74 92 169 152 233-27 27-30 17-64 36-70 37-129 93-167 167zm-842-375c-34-23-144-144-173-185-64-92-14-183 54-239 43-36 167-96 233-31 31 30 137 180 144 202-180 89-143 33-260 253h1zm935-129l93-47 210 300c-19 27-77 59-104 63-23-29-190-292-199-318v1zm-416 149c-36-34-136-170-166-220-20-34-27-44-4-89 82-156 167-180 322-169 16 17 180 269 179 293-232-20-197-19-330 185zm-764-296c-53-41-149-167-186-230-17-30-36-47-7-89 62-87 225-230 302-269 24 34 202 316 207 336-56 24-127 10-187 46-69 39-90 119-130 206h1zm3796 1170c-196 319-595 562-920 707-266 119-541 398-771 572-49 37-107 87-160 116-149 80-423 137-525-76-74-156 239-380 365-432 172-70 266-64 362-112 193-94 426-290 616-465 266-246 609-544 963-595 49-7 177-34 166 49-9 62-62 180-96 235v1zm-3252-1177c-44-34-109-166-163-215 51-134 174-207 265-226 93-20 102-11 150 62 23 34 72 107 83 143-26 16-57 14-92 23-34 9-69 20-96 34-67 37-99 109-147 177v1zm511-247l200 315c-24 21-67 44-106 46-47-69-163-276-195-313 23-29 64-41 100-46v-1zm1957 1403l-346-179c63-39 471-169 538-183 169-36 406-99 621 0-74 40-160-46-619 237-62 39-132 94-193 124zm-2216-1622c24-29 57-37 86-53 36 33 130 187 147 229-29 29-60 33-92 50-37-30-123-182-142-226zm-436 197c-31-36-193-296-203-336 47-40 328-112 422-116 20 21 123 187 140 223l-23 9c-4 1-19 3-26 4-144 21-226 100-310 216zm-824-769c73 29 90-1 153 14-24 66-56 129-179 53-56-34-100-110-107-153 43-44 97-104 150-103 69 3 113 104 113 144-46 4-100-6-129 44h-1zm1096 309c41-9 129-10 162 30 20 24 70 112 80 139-29 26-69 36-107 49-31-41-120-173-133-219l-1 1zm-4452-1632c4-80-10-242 16-320 56-14 142-62 225-41 64 16 74 36 84 83 7 39 17 83 20 117-31 34-296 156-343 160l-1 1zm3201 1186l-49-116c124-120 152-56 227-6l-179 120v1zm330-104c16-20 60-40 89-64 34-30 50-54 76-94 40-60 106-51 189-113 57 40 124 136 179 187 31 31 74 66 117 86 69 33 100 19 154 31 16 37 29 67 47 104l154 322c-69 24-349-9-672 189-263 160-338 329-478 661-43-37-129-232-152-285-79-174-152-421-200-615-39-153-64-159 1-353 89 109 133 418 393 403 295-16 177-322 103-459h-1zm-406-44c-27-20-50-51-69-80 20-84 90-107 136-133 27 26 70 99 74 130-76 27-70 37-142 83zm-2735-1224c-9-13-3-3-10-19l-14-57c-6-30-13-49-11-79 227-90 216 72 34 154h1zm2622 1104l-60-87c27-47 129-119 169-133 20 21 46 56 60 82-51 24-123 72-167 137l-1 1zm455 50c17-43 21-46 57-66 29-16 40-31 73-17-11 74-70 100-130 83zm-880-482c77 40 70 46 107 185 16 62 41 140 49 197-99-53-182-270-156-382zm123 16c51 31 56 59 64 102 49 222 129 236 134 316-176-56-180-276-199-418zm-2879-1234c89 4 183 10 176 107-4 60-20 196-36 249-23 0-11-3-29-4 0 0-20-6-39-1 54 66 60 57 57 149-1 59 0 134-10 183-87-93-86-193-102-325-10-84-33-283-20-359l1 1zm3463 1499c21-34 100-110 133-123 57 46 100 130 154 179-59 76-209 89-250 29-7-11-34-70-37-84zm-363 13c-117-102 23-250 129-262 21 30 59 107 59 139-86 37-104 53-187 123zm-2875-1462c133-6 83-66 255 11 9 60-4 200 0 272-49 10-99-27-252 17-27 9-13 7-41 9l40-309h-1zm-3448-1048c29 84-1 210 27 286 77-69 72-285 84-380 51-389 506-578 738-754 233-177 313-213 658-149 236 44 616 156 768 330 116 134 276 412 362 569 285 519 426 1e3 525 1585 7 46 49 296 77 338l37-60 102 92c295-122 421-203 689-379 253-166 406-263 692-363 117-40 621-153 691 11 16 36 24 59 40 94 67 143 100 209 186 345 77 122 217 283 243 328-67 219-83 439-17 601 87 215 230 283 506 332-53 73-76 99-120 186-1146-465-1815 14-2868-319-153-49-299-104-453-142-681-164-1047-544-1282-991-157-299-162-493-380-822-113-170-3-429 54-616-50-11-133 110-160 173-76 183-37 340-54 495-9 84-30 173-59 259-19 53-92 233-124 266-74 74-518 173-635 185-232 23-535-31-698-232-66-82-70-93-43-216 39-176 84-353 147-528 41-114 183-458 263-518l3-4zm6239 2333c9-82 26-302 190-286l17 152c-37 16-70 31-104 56-47 31-72 67-103 79zm-2486-1273c59-3 126-11 193 23l-21 223c-14 6-163 37-186 34 11-73-7-223 13-280h1zm3321 1433c21-64 99-90 117-49 11 29-21 51-37 59-30 14-47 10-80-10zm-412-33c-29-29-66-117-67-157-1-33 21-53 46-74 13-11 24-20 36-30l34-20c1 0 4-1 6-3 21 29 80 127 87 156-60 47-96 70-143 129h1zm-526-646c27 82-19 275-87 365l-41 37c-9-20-9-20-11-46-1-17-1-36-1-54 0-37 4-77 13-116 10-39 26-77 47-110 20-31 46-62 82-76zm-2071-752c6 30-13 72-9 147 3 60 17 97 23 140-29 24-89 59-123 66 9-67 10-129 19-200 13-110-1-126 92-154l-1 1zm33 61c34-17 93-24 136-24 27 33 33 73 54 110-34 41-140 86-186 90-11-39-9-133-4-176zm2796 1157c30-33 117-122 152-140 34 40 72 106 86 150 24 70-39 120-89 162-40-21-132-132-149-170v-1zm768 443c-7-89 49-213 129-216 49 84-70 199-129 216zm-1473-858l57 41c-24 63-43 84-64 163-14 56-31 134-93 157 20-62 43-122 60-183 17-62 23-127 39-179h1zm-2633-1256c70 13 112 17 177 69 19 14 34 29 36 43l-54 279c-120-24-153-19-249 1-10-49 59-326 92-392h-1zm2991 1488c-17-62 70-103 113-113 24 41 34 90 40 146l-112 87c-27 20-13 17-44 17 20-124 104-119 62-192l-60 54h1zm1060 596l-72-64c-3-6 3-296 252-190-36 37-69 46-109 96-46 56-50 92-72 159zm-735-465c-27-29-64-100-70-136 43-37 117-79 170-102 30 23 41 62 59 100-20 31-127 124-157 137h-1zm609 360c-107-72-16-329 187-243-31 34-66 43-104 90-40 49-59 93-83 153zm-3663-1877c66-6 163 43 197 93l-57 225c-69-20-133-16-195-19-11-57 26-240 56-300l-1 1zm-611-245c62 9 119 17 180 59 40 27 104 77 102 122-1 31-66 329-76 355-96-49-119-33-192-53-9-51-29-439-14-481v-1zm4172 2010c-80-46-24-186 79-246l76 44c-36 51-90 50-154 202zm-1149-383c40-129 76-106 159-149 62-31 130-92 193-90-20 37-46 67-72 102-79 104-16 16-190 89-24 10-77 47-89 49h-1zm-2221-1063c-7-41 21-157 41-192 21-37 34-41 76-34 36 6 70 17 103 30-20 39-106 180-144 192-16 4-60 7-77 6l1-1zm3291 1336c-17-14-46-109-51-136 19-31 90-79 122-93l60 50c-49 67-83 82-130 179zm-1010-429l17-67-96-44c21-27 104-73 162-134l144 107c-47 70-174 133-227 139zm-182-146c27-57 146-167 190-179 67 43 19 92-34 127-40 27-112 44-156 51zm664 253c9-53 19-100 67-133 37-24 92-30 126 23-24 26-62 41-93 60-37 21-66 47-102 50h1zm-3850-1792c57 21 134 84 177 122 87 77 62 72 66 180 3 93 24 322 6 402-47-99-147-521-247-704h-1zm4304 1945l-67-72c20-37 62-64 90-76 44-19 72-7 110 29l-132 119h-1zm-385-313l-46-14c11-41 36-53 64-30 0 29 0 21-19 44zm179-56l296 124c-41 47-132 84-182 123-33-39-36-76-59-122-20-39-50-83-56-124v-1zm-438-53c-47-16-120-56-146-90 36-13 243-63 265-63-30 89-63 110-119 152v1zm-2260-585c-14-30-24-69-21-103 46-16 103-26 149-37l446-124c-51 76-212 106-285 134-99 39-192 94-290 130h1zm-699-913c46-13 84-6 132 24 19 11 30 23 46 37 62 57 36 54-13 309-89-41-164-60-242-93l77-279v1zm523 197l-116 269c-72-36-146-57-206-89 1-26 51-227 60-240 36-63 206 20 263 60h-1zm2090 861c50-9 92 64 54 119-69-14-87-67-54-119zm-3041-1221c96-86 262 19 333 103 63 76 49 66 20 173-11 44-30 147-47 183-73-110-174-126-305-159l3-255c27 0 62 0 90-14l-93-31h-1zm3524 1589c-6-76 11-196 104-199l23 129c-23 21-102 66-127 70zm-2452-907l-192-47c37-86 67-217 143-257 93-50 149 3 233 66l-183 240-1-1zm2064 797c20-29 63-41 96-54 79-30 219-70 299-72-40 76-104 119-166 143-77 31-132 36-230-19l1 1zm-1339-652c34-62 239-349 313-405l11-7c1-3 4-3 6-3 9 31 29 226 47 319 7 33 17 67 23 103-51 10 6 6-57-3-16-3-33-4-51-6-36-3-62-3-99-3-57 0-142 13-193 4zm-2167-1118c84 60 54 186 29 290-39-57-44-199-29-290zm100 14c129 47 192 129 223 219 13 34 10 252 6 305-104-77-127-100-255-166l26-358zm3094 1309c37-44 142-96 190-100 34 49 31 164 62 227-24 26-79 53-107 70l-144-197zm757 604c-54 34-86 86-119 152l-77-67 56-64c20-11 39 20 82-9 93-60 143-76 187-104-6-36-23-60-31-93-7-31-17-63-23-97l89-50c34 31 44 73 73 112 113 159 182 170 315 270l-36 84c-130-20-243-86-340-157-41 6 10 3-23 9-53 10-73-37-153 14l1 1zm-3012-1505c-27-17-86-9-129-19l39-160 203 123c6 7 4 26 3 36-1 9-4 26-7 36-6 26-7 44-17 70-31-21-63-69-92-87v1zm2563 1194c-6-137 40-222 166-260 157-49 190 24 183 169-26 13-57 14-86 20-84 17-226 73-263 72zm-2067-1114l-82 113c-54-26-90-49-150-66-44-13-99-14-137-30l31-134 336 117h1zm-1570-900c29 43 50 408 47 436-30-36-46-77-69-119-20-36-47-83-72-116l93-203v1zm4317 1981c210 41 83-11 197 134 43 56 90 97 144 140l44 40c1-1 3 4 4 6-27 6-44 3-73-4-159-43-316-239-318-316zm-2770-988c77-99 57-84 176-74 67 6 156 7 223 21-27 40-124 137-159 156-117-90-110-66-239-103h-1zm2956 1018c29-1 77 9 113 20 40 13 37 31 56 69 17 34 80 133 87 169-102-50-236-176-256-257zm187 39c174-57 192 193 192 195-64-20-89-37-126-84-27-34-54-73-66-112v1zm-1523-635c39-84 185-129 267-123 13 44 77 247 73 285-90 29-116 40-197 103-31-33-127-219-144-265h1zm851 336c29-16 63-30 102-19 17 40 16 142 7 195l-97-6-10-170h-1zm-402 84c-16-47-29-133-39-183-13-69 50-102 116-126 157-57 250 17 267 182-60 3-140-40-276 66-23 19-46 49-69 62zm-2579-1376c89-31 107-11 180 47 43 34 39 34 24 86-9 34-10 60-26 93l-225-63 46-163zm3920 1560c14 26 23 72 31 102 9 33 27 72 20 112-110-31-140-126-156-196l104-17zm-3654-1498c92-9 182-6 286 37 97 40 137 79 54 240-67-3-330-60-390-96l50-182zm-1077-153c14-107 10-209 56-319 36 47 33 130 43 185l39-149c92 43 119 83 174 140l-84 96c33-3 33-13 64-14l-43 237c-34-31-53-72-99-109-62-50-93-41-150-69v1zm4850 1598l92 233c-66 17-106 1-126-53-11-30-37-110-39-143l72-37h1zm-4272-1608c84-26 183-120 273-186 4 16 4 1 0 26l-53 176-92-69c-14 79-14 59 47 97 34 21 30 16 17 57l-96 330c-70-51-87-96-183-139-103-47-130-23-210-33 21-114 13-225 74-339 39-11 195 4 245 16l-26 66 3-3zm3277 1117c17 24 44 154 46 192-39 19-77 30-123 39-14-34-39-140-33-183l110-47zm-2566 116c39-80 348-452 421-526 106-109 113-124 263-130 99-4 217-9 309-7-36 27-132 69-180 87-39 16-143 70-176 100 60 6 169-30 219-46 74-24 133-67 203-87-90 110-110 143-217 202 3 67-3 63-51 126-82 106-186 123-323 172-126 44-325 86-466 109v1zm-190-1121c34-77 126-325 164-376 41-54 226-3 313 79l-90 402c-213-144-270-73-388-104zm2160 850c-21-66-10-54 47-109 37-36 63-62 104-66 24-3 119 1 139 11 27 13 133 315 134 336-72-20-137-29-199-14-100 23-116 66-153 83l-73-240v-1zm1723 855c-20-27-83-189-77-229 90 37 93 23 113 99 13 47 21 102-37 130h1zm-2181-1121c47-83 170-146 253-137 27 41 129 279 127 325-54 21-90 20-140 44-20 10-40 21-62 34-16 10-21 16-31 23s-10 6-17 10c-1 0-6 4-6 3s-4 1-6 3c-31-47-40-103-62-156-21-57-39-93-56-149h-1zm-2888-669c-14-40-77-574-72-621 20 23 27 41 46 67 26 37 41 36 67 63 60 64 33 256 24 333-7 64 4 134-64 156l-1 1zm924 10c30-83 49-172 79-255 31-87 99-116 149-173 40 20 119 87 147 120-39 112-114 282-163 396-103-62-100-57-212-90v1zm1151 436c94-102 286-213 376-323 62 30 160 124 197 170 62 76 73 126 96 209 74 255 215 606 353 834 102 166 280 358 287 373-41 41-84 70-126 116-39 43-77 107-113 144-54-31-219-283-256-342-389-626-255-1070-310-1206-60-7-192 13-256 20-67 7-180 17-250 4h1zm-2108-1081c-43-36-49-72-29-130 14-41 50-114 80-140l-51 272v-1zm172 283c-7-93 90-418 162-542 43-74 49-97 123-92-76 166-134 287-189 466-39 127-24 170-94 167h-1zm1412 780c24-87 43-182 107-222 179-109 406-147 619-41-20 34-259 223-312 267-36 30-51 19-104 16-37-1-66-4-106-7-46-3-176-4-205-14v1zm2131 308c26-19 119-34 142-34 37 72 114 259 124 342-24 20-104 54-140 50-26-64-36-124-60-183-19-43-56-133-66-174zm-482-212c57-69 136-124 222-127 40-1 40 4 59 36l153 282c-62 14-97-21-177 19s-103 84-136 104c-20-37-113-273-119-313h-1zm-436-230c33-27 195-109 246-47 6 7 50 102 57 116 16 34 40 84 64 112-41 31-112 4-252 136-30-31-49-110-66-156-11-29-14-50-26-80-16-39-24-43-26-79l1-1zm-1143-1048c44 10 117 29 152 54 37 30 1 92-14 143-29 96-49 219-76 300-143-86-146-73-293-107 37-77 180-340 232-390zm1960 1127c62 41 203 232 219 285-26 13-109 26-142 21-29-37-122-227-137-273 26-14 31-23 59-33h1zm-1071-332c66-89 149-173 233-192 83 56 172 236 227 318-36 14-79 20-122 36-41 16-67 34-110 53-14-10-225-203-230-215h1zm-2337-1167c80-16 123 46 152 99-79 220-122 137-209 559-29-24-69-94-86-129-49-104 93-428 143-529zm2875 1353c51-136 263-259 388-229 6 96 37 276 24 365-106-20-210 43-279 124-34-37-103-202-133-262v1zm-2567-478c26-106 93-322 154-403 93-123 120-20 236-267 4 6 54 180-82 173 7 27 17 33 29 53-47 94-265 398-338 443v1zm51-758c43-17 99-36 144-40l-67 119-50-9-4 64c31 3 16-10 34 6-16 59-39 110-47 172-10 64 16 97 1 142-39 116-83 223-119 340-31-23-59-53-92-79-31-26-64-43-94-72 40-116 79-242 132-350 63-130 109-172 195-255l-31-39h-1zm1207 708c-11-44 62-245 74-280 70-185 255-170 310-112 31 33 64 329 64 330-213-53-240-57-451 62h1zm-568-442c156-29 87 136 249-182 53 43 117 107 144 160-34 76-149 253-225 421-33-9-80-50-109-72-66-47-20-43-57-94-30-40-39-49-39-102 1-43 17-89 36-132zm1180 757c1-27-1-24-16-50-50-87-47-120-83-222-17-46-16-44 16-99 47-82 72-127 144-153 54-20 140-17 207-3 19 37 37 112 50 153 14 49 43 102 59 146-47 47-117 62-203 177-73 99-140 92-207 169-299-133-439-72-684 31 0-3-1-6-1-7l-1-21c0-1 6-29 6-30 40-166 43-302 147-382 87-67 263-123 415-27 30 72 76 303 123 335l29-17zm-1292-871c-7-27-17-37-33-62-17-26-27-36-34-64 67 41 117 106 170 160l-53 133c-24-37-16-67-34-109-33 10-41 11-62 29 11 83 53 172 49 275l-60-6c20 67 14 112-46 180-41 47-84 93-130 134-83 76-46 67-166 47-69-11-132-13-192-20 63-76 94-74 222-243 67-90 133-182 207-266 33 40 53 109 89 132l37-13c-9-44-84-109-107-162 51-53 62-29 40-102-9-27-27-94-24-120 19 27 41 72 63 97l66-20-1-1zm-648-216c57-97 139-100 243-50-40 19-83 10-124 19-41 10-51 53-87 87-44-19-104-76-144-104 27-20 51-20 102-23l11 72zm3092 1433c4-90-24-217-23-322 0-126 137-185 226-183 13 59-27 206-49 275-20 66-77 205-154 230zm-2462-1409l44 56-94-36c3-1 6-3 7-4l43-17v1zm-1113 159c-41-103-87-473-83-605 1-50 13-54 49-94 23-26 46-60 74-74 62 80 99 219 102 346 3 133-67 300-142 428zm2872 712c40-140 318-338 528-270 19 92 87 276 93 392-87 31-139 7-220 60-84 54-109 122-176 174-27-26-86-137-113-180-39-59-74-114-110-176h-1zm-2048-1040c-59-21-119-33-123-90 16-21 124 19 123 90zm289 169c-62-44-137-96-89-169 84 19 187 99 243 162 9 9 19 20 26 30 17 26 13 9 13 34-99-31-126-73-209-113 1 29 13 39 16 56zm1184 655c-14-29-26-146-30-185-9-83-27-112 37-174 66-64 247-205 312-210-1 53 20 146 30 202 7 46 37 163 33 200-87 9-140-19-220 14-79 31-100 106-162 153zm-1014-442c36-126 90-89 126-217 26-93 59-167 103-250 41 60 0 164-46 245-47 82-74 169-124 250l-59-26v-1zm-529-541c19-24 83-70 109-79 56 46 162 143 127 226-19 47-9 20-23 27-24 3-67-11-92-26-17-49-3-47-47-84-24-20-54-43-73-64h-1zm308 119c29-53 192-235 236-269 257 56 136 287 33 465-26-17-77-77-114-106-46-36-97-64-156-90h1zm-985-461c30-31 225-219 275-242 49 69 79 225 57 338-11 59-166 247-210 322-21-39-14-126-44-225-26-86-74-174-77-195v1zm584 298c9-17 103-132 142-143 23 70-40 144-90 170l-51-27zm-3147-1417c-14 9-4 4-20 10-24 9-69 7-96 4-39-4-84-13-127-34l19-62 223 80 1 1zm3995 1861c0-16 64-239 74-272 107 56 160 137 219 216l-132 223c-9-6-160-142-162-166v-1zm1939 519c80-80 210-162 339-106 17 50 23 302 4 365-173 37-139 43-257 127-10-21-29-159-39-197-13-51-44-144-46-189h-1zm-605 233c-39-36-94-225-106-299-33-212 413-382 522-270 33 33 113 252 122 289-51 9-96-4-162 9-210 41-279 166-376 272zm-2296-1287c50-66 179-189 239-200 36 150-120 99-233 336l97 17 6 49c-56-16-143-51-177-90-4-57 53-53 92-72-1-1-3-4-3-6l-10-17c-9-14 0 4-10-16v-1zm1303 488c17-6-4-4 20-1 56 7 102 67 152 31-10-17-3-10-23-26-23-17-93-44-120-56-170-74-100-146-360-256l70-103 277 298c64 82 27 43 50 47 47 9 24 4 70 41 27 21 40 29 73 31 6 19 1 1 0 34l137 34c17 33 31 169 19 207-124-51-163-19-262-13l117-180-59-13-113 230c-92-39-16-26-195-83l144-222 1-3zm-4513-2062c106 50 190 79 299 114-34 49-72 97-139 84-64-11-137-37-196-73l37-127-1 1zm-295-182l-26 57c26 44 31 64 4 122-37 1-60 17-103 7 20-56 40-94 74-132l-47-46c19-9 26-9 50-10 17-1 27-1 47 1zm349 54c109 31 193 56 303 106-63 129-49 112-240 29-113-49-106-27-63-136v1zm3494 1715c41-36 265-226 299-236 27 30 49 66 64 103 24 57 7 72-33 122-47 62-112 132-167 192-30-19-49-63-79-96-20-21-74-66-86-86l1 1zm-677 260c102-207 335-463 496-565l62 34c-27 54-277 159-353 300-113 212 308 157 375 312-54-21-103-51-156-76-103-47-126 77-423-6zm-266-379c-24-84 82-442 120-551 9 14 3 4 9 20 1 3 3 10 4 13 43 174-27 382-133 516v1zm2311 685c136 6 246-130 332-200 20 23 24 84 21 117-51 37-116 63-179 106-82 56-107 89-150 122l-21 11-3-156zm-336-312c72-109 431-127 562 20-39 130-136 207-253 176-99-27-246-129-309-196zm-476-405c30 34 56 76 82 113 50 70 31 56-11 144-31-29-39-70-64-106-37-50-44-43-76-70l-17-19 89-62-1-1zm-4435-1659c-60-20-51-92-30-153 41 29 74 96 30 153zm3387 1312c53-47 239-146 293-160 17 26 39 94 46 133 33 182-186 276-260 366-17-30-13-54-17-94-16-123-60-223-62-245zm-2996-1263c40-56 87-72 162-60 54 9 179 47 217 83l-43 103-336-126zm-229 296c-56-174-70-147-1-219 57-59 140-127 203-123-87 152-143 140-202 342zm6117 2124c30-40 122-119 162-139 77-37 119-13 227 26 21 74 100 220 104 329-134 6-167-30-343 122-24-19-17-14-27-44-6-17-7-24-14-41-29-67-80-205-109-252zm-572 195c-19-39-76-318-46-380 56-116 236-180 323-192 47 37 220 300 229 343-342-16-442 180-506 230v-1zm-1968-1180c13-41 302-174 349-189 24 24 26 43 39 73 60 139 20 164-40 220-51 47-209 174-256 190 11-103 82-123 126-187-31 3-43 11-74 21-40 14-43 16-76 16l63-104c-63-7-67 4-130-39v-1zm-3654-1324c-36-137 127-315 296-230-67 64-170 86-262 196-11 14-20 26-34 33v1zm4503 1526c24-13 176-59 205-60 62 67 110 136 144 209 59 122 50 119-51 200-44-21-132-127-164-166-47-56-110-120-133-182v-1zm-386-147c33-39 130-123 166-139 11 23 36 134 40 170 7 60-57 113-99 136-36-47-54-113-107-167zm-1093-49c-9-16-10-17-3-54 64-346-72-330 1-453 43-74 150-136 230-156 93 76 77 233 37 375-31 113-49 102-123 166-46 39-96 80-143 123zm-3045-1492c1-37-14-87 4-129 16-34 67-76 90-87 66-33 195-19 225 73-3 1-6 1-7 1l-86 13c-30 6-53 10-80 24-84 46-110 92-147 104h1zm-34-147c-70-94-76-236 84-262 113-17 289 43 259 172-220-92-282 57-342 90h-1zm5607 2387c-14-119-30-90 57-183 44-47 104-106 137-157 26 21 100 122 114 150-21 19-54 23-87 37-173 74-122 84-222 153zm-1911-1107c17-11 295-104 322-107 21 39 44 174 24 232l-297 144c-7-41-3-94-11-137-9-46-33-99-36-132h-1zm-3288-1180c-10-27-4-69-6-99-1-44-3-50 31-82 53-47 102-76 169-76 170 0 270 140 237 279-74-67-180-202-376-163-1 29 0 20 11 44 76 1 119-41 227 31 62 41 104 106 97 176-183-93-207-103-393-114l1 3zm5567 2081c24-80 172-209 348-69 70 57 236 229 267 295-112 26-154-34-355 170-20-24-39-69-59-103-56-93-136-205-202-295v1zm-5036-2103c21-51 67-62 117-41-14 49-70 67-117 41zm3865 1673c31-26 74-37 113-57 173-90 157-93 236-31 39 30 69 67 96 102l-256 295c-17-20-14-17-26-44-23-54-27-67-60-120-27-44-86-104-104-143h1zm-3888-1768c-53 0-93-63-57-86 23-16 89 24 57 86zm2456 965c47-21 103-36 149-51 50-17 104-39 153-47 40 66 23 279-7 359-20 56-27 49-67 64-64 27-156 90-213 117 3-76 33-143 31-236-1-94-27-142-44-206h-1zm-2932-1121c49-93 83-93 136-103 39-7 54-19 89 19 19 20 41 47 49 67-43 6-99-1-142 1-50 3-93 13-130 16h-1zm5037 2301c37-21 56-76 67-117 56-192-44-54 173-285 14 17 13 11 21 47l19 120c-34 26-69 50-109 82-40 31-74 64-37 112 27-21 49-46 72-64-19 53-90 127-126 147l37-77c-103-27-70 29-137 84-92-47-109-72-223-86-80-10-139 0-212-3 29-39 72-77 106-117 96-114 132-199 229-182 53 10 139 46 170 79 10 79-56 182-50 262v-1zm82-545l-16 230c-90-50-134-56-227-82l126-164 117 16zm-4474-1744l9 137c-23 14-89 33-117 31l-37-137 146-30v-1zm3021 1592c21-27 87-59 154-130 53-56 92-116 123-190 106 40 154 51 192 119 73 132 192 328 133 509-34 17-154 57-187 54-147-206-99-310-143-473-27 60-16 146-60 189-34 33-104 92-134 112-17-23-46-132-79-189h1zm-3939-1749c31-21 129-40 169-46 72-10 117-1 185 41-20 26-127 100-156 110-79-50-97-72-197-106zm5778 2183l215 109c-40 41-136 44-217 177-31-26-87-120-96-153l99-133zm-4683-2051c16 34 7 113-4 153l-134 17c-3-36-3-126 9-159l130-11zm-769-182c14-17 172-40 206-39 11 27 19 54 17 93-77-17-142-4-223-54zm4640 1948c44-30 157-82 235-134 99 94-79 263-89 270l-146-136zm-4225-1862c37-6 126-29 169-23 11 36 13 63 4 100-44 16-94 33-143 44-17-24-33-84-30-122zm5222 1899c20 29 102 276 99 322-77-30-196-57-246-122l147-202v1zm-1210-267c26 47 109 196 112 239-34 24-93 47-134 67-37 17-90 49-129 62-7-29 1-83-9-143-9-51-16-84-31-132-23-69-106-223-106-233 56 19 112 39 167 57 84 29 94 19 129 83h1zm-1197-512c21-11 316-82 343-82 23 80 27 277-56 352-64 59-266 110-302 107 53-187 23-232 13-378h1zm-2873-1274c10 21 37 89 36 119-56 6-77-24-107 31 93-3 132 54 112 137l-104 9c-23-24-74-100-82-127 102-10 37-80 47-146 31-13 70-23 99-24v1zm609 227c10 36 10 120 0 162l-162 16c-10-39 0-126 11-166l150-11zm4132 2e3c-10-37 6-96 7-140 1-59 24-82 76-100l53 109c-19 33-104 112-136 132zm-4468-2118c57 6 104-16 164-3l-9 99c-30 13-132 26-160 20-4-34-4-82 6-116h-1zm4678 2197c-11-33-40-173-30-197 7-20 51-74 66-94 11-17 23-34 36-51 7-9 9-11 19-20 11-10 10-9 19-13 44 59 82 123 37 199-21 37-107 157-146 179v-1zm-4759-2347c24 31 37 80 46 119-21 11-134 41-160 41-14-34-37-87-37-127l153-33h-1zm3949 1874c33-9 326-33 366-27-53 86-130 114-210 156-26 13-40 26-69 36-23-26-79-136-87-166v1zm-3341-1598c20 53 21 100 24 164-33 13-143-3-182-17l4-157 154 10h-1zm3769 1651c-16-64 57-80 59-80l27 9c3-1 4 3 6 6-4 49-44 84-92 66zm-3959-1819l-4 116c-33 11-104 24-137 20l-10-112 152-26v1zm482 213c4 46 14 160-1 209l-239-74c-7-41-6-134 9-180l232 46zm3652 1510c23 23 82 127 41 202-37-43 10-86-56-119-11 36-10 83-30 110l-84-29 129-162v-3zm-4508-1851c1-1 4-3 6-3l19-7c7-3 19-4 26-6 19-3 27-3 46-4 39-1 70 1 114 20l-33 112c-43 10-96 36-150 30-1-49-23-90-29-142h1zm3024 1231c14-10 263-147 270-149-11 136-185 423-279 482-3-23 17-130 17-170 0-54-14-123-9-164v1zm-1892-601l-239-83 7-206c66 29 176 59 196 119 11 33 34 136 36 170zm3561 1297l89 33-119 154c-14-26-31-107-34-139l64-49zm233 127c-90-34-37-143 31-60-7 37-9 34-31 60zm-4317-1931l4 122-207 4 7-132 196 6zm1761 769c127 43 236 51 356 83-19 100-66 279-153 325-23 11-263 89-287 92 120-312 66-449 84-499zm-315 606c-14-62-63-295-66-352-4-84 20-302 44-393l286 127c17 112 6 242-29 370-21 82-34 147-87 176-26 14-47 21-74 36-29 16-40 26-74 36zm2227 378c20-67 51-76 94-100 54-31 51-59 82-122 16 19 21 73 24 94-23 34-160 123-199 127h-1zm-3630-1762c36-3 166 3 209 16l-19 163-209-41 17-137h1zm2399 887c-17 150-30 186-144 220-53 16-193 54-242 56 62-134 63-177 99-302l287 26zm-2835-1060c24-16 140-44 169-43-6 53-6 143-24 195l-127 13c-9-30-3-57-6-87-3-31-7-53-10-77h-1zm678 185c39-4 92 4 130 19l50 235-196-80 16-173zm2121 1711c-21-94-9-72-46-199 23-33 177-94 247-163 90-87 123-217 164-339 86 96 142 316 77 495l-212-97c-9 96 0 122-74 205-41 47-94 103-147 130l-10-31zm488-200c9-103 33-139 21-245-13-117-44-142-57-202 50 24 114 72 164 102 47 29 39 24 46 72 14 97 94 366 92 379-72-27-209-67-267-106h1zm-3087-1751c64 0 146-39 216-29-13 74-13 146-40 226l-195 3 20-199-1-1zm2682 1118l142 50c-29 26-133 89-174 97l33-147zm-1985-825c24-6 395 30 448 37 137 19 358 73 446 186l-57 379c-197 39-485 21-719-79-3-110-100-413-117-522v-1zm3210 1038c20 41 69 197 73 245-23 27-39 29-62 54 72 26 83 39 117 82-23 33-73 44-112 51-76-143-159-205-190-283l174-150-1 1zm176 373l53-36-3-92c72 36 84 23 54 93-19 41-33 84-51 126-20-30-30-49-83-63l4-166c59 50 19 79 27 136l-1 1zm179 239c17-17 57-34 79-49 74-51 285-270 355-346 40-43 86-122 143-127-70 189-176 805-575 522h-1zm-3297-1990c-17 94-36 174-87 269l-207-37 97-257 196 26h1zm724 558c43-24 355-72 421-56-9 89-24 166-59 256-24 60-86 207-134 233-56 13-276-100-289-153-4-17 10-134 17-153 13-30 31-34 40-60 4-14 1-46 4-69v1zm-963-569c-27 73-39 166-79 233-27 44-34 34-84 34-36-1-66 0-103-10 30-99 27-172 41-262l223 6 1-1zm2858 1282c34-34 72-59 109-100 17-19 34-39 50-63l36-47c1-1 4-1 6-4 1-3 4-3 6-4 26 49 69 177 82 237 13 57-10 76-56 117-27 26-69 60-100 79-23-20-124-185-133-213l1-1zm-2077-1126c36 23 102 89 129 119 36 39 7 97-21 183l-195-97 87-205zm-370 150c54-96 80-154 127-256l217 96-83 193-262-34v1zm2806 1058c1-1 4-3 6-3 36-17 46-14 86-30 30-11 53-24 79-43 4 10 3 6 4 20l-11 149c-1 39-1 130-16 160-93-23-84-41-106-110-16-50-33-92-43-144l1 1zm1 532c-11 10-132 40-153 46-116 29-259 57-329-54-27-44-46-102-60-147-137-442-60-297-80-672l273 426c97 143 190 312 349 400v1zm-3683-1919c3-1 6-1 9-1 93-13 97-84 282-87-97 139-182 29-243 122l152-13c13 56-10 190-23 256l-219-6c-1-51 26-153 24-222 23-21 23 6 36-10 1-3 6 0 6 0l-26-39h3zm967 66c-4 44-73 199-104 227-34 31-147 24-206 10 47-113 49-174 83-277l229 39-1 1zm3061 1698c-47-100 40-245 87-362 62 51-24 43 129 130-36 60-167 192-216 232zm-2134-1227c93 7 242 21 333 63 17 70-4 195-30 276-17 53-89 226-154 245-37 11-289-54-345-72 49-90 96-147 136-256 36-99 34-180 59-256h1zm1087 917c-76-29-183-126-252-170 107-229 53-33 154-368 124 127 97 163 94 255-4 97 0 189 3 283zm991 213c-20-13-72-59-80-72-19-29-6-62-4-96 4-72-4-142 3-206 31 24 46 41 84 60 33 16 70 20 99 36l-102 277zm-1869-535c64-93 104-143 139-266 29-104 20-173 33-263 97 41 187 96 273 152-6 90-92 279-143 353-40 59-76 34-144 31-51-3-110 0-157-7zm1014-183c17-26 97-90 126-119 40-41 79-97 117-132 26 31 120 243 133 296 17 66-23 114-66 164-37 43-82 92-129 109-21-23-73-126-92-162-23-44-64-123-90-156v-1zm-373 247c-37-80 14-409 37-463 102 117 57 285-37 463zm820-142c9-6 4-3 17-7 3-1 17-4 19-4 17-4 23-4 39-7 70-17 143-50 193-99 17 23 9 7 16 29 19 57 11 247-30 335l-146 37c-30-37-37-97-57-144-20-49-34-90-49-137l-1-1zm-3297-1073c43-83 119-107 177-122 46-10 160-30 206-30-119 147-189 180-383 152zm4039 1653c-13-117-1-106 72-209 41-57 100-169 137-185-9 159 73 106-46 240-110 126-113 173-189 174-30 83-136 237-246 229 6 17 1 9 14 24 4 4 14 13 17 16-46 3-89 1-122 20-54 53 39 133 37 169-1 19 3 4-7 14-66 1-103-102-114-159 33-37 69-43 80-99 11-57 1-57 31-126 33 30 27 63 86 73l177-222 70 39h1zm-2017-1071c112-94 130-60 242-266l233 126c-11 92-67 186-109 262 17 23 17 16 30 43l-67 80c59 63 37 29 20 205-4 47-6 176-23 206l-195-63c89-137 126-205 160-369 10-47 10-49-26-79-73-62-174-107-267-146l1 1zm-988-380c30-37 72-49 112-80 34-26 69-54 103-90l173 120c-46 89-117 143-183 162-110 31-122-50-205-112zm-754-200c7-9 153-169 154-169 26-16 179-17 217-10-96 136-199 216-370 180l-1-1zm1207 267c100 7 230-44 350-24-40 67-203 260-276 266-66 6-124 6-187 14-57 7-129 24-180 24 36-59 66-87 87-159-34 24-76 84-109 126-23-23-11-110-3-146 72 23 57 30 166-54 54-41 82-100 124-139l123 34c-34 30-59 24-97 59l1-1zm-714-193c19-24 96-74 150-140 43-51 33-31 53-51l246 124c-27 57-143 123-185 137-74 26-182-53-265-70zm-262-63c6-7 166-170 172-174 43-29 192 17 249 47-43 51-120 120-174 152-44 26-195-7-246-26v1zm1386 229c109 14 213 36 320 76-59 110-143 207-230 227-77 19-236-21-328-36 36-43 83-80 123-126 41-47 73-96 114-143v1zm-625-233c26-24 73-59 112-47 56 17 275 173 318 233-43 10-136-21-185-41l-17-73c-80 76-146-23-227-72zm3114 1279c9-23 3-10 13-24l40 4c-19 31-17 29-53 21v-1zm-3566-1472c21-50 89-46 144-10-14 63-89 49-144 10zm2789 1094c189 69 149 56 319 51 4 21 0 34-1 41-14 80-69 310-127 340-179 93-195-330-190-435v1zm-2636-1070c70-97 247 27 356 77-9 26-46 46-72 66l-285-143zm2160 831c122-44 176-70 289-130l69-34c23-10 7-4 26-7 17 51 51 289 51 353 0 113-215 173-282 176-20-24-153-326-153-356v-1zm964 722c-60 84-62 106-157 107-94-123-19-339 36-516 90 82 51 79 246 235-26 51-87 124-123 176l-1-1zm-1323-515l-54 119c-33-27-87-120-100-157 24-29 62-53 92-83 140-139 144-207 209-369l156 272c-41 86-162 203-229 250l-73-31zm1686 104c-7 59-17 153-41 203l-63-33c4 64 27 150-53 207l-9-33c-1-10-1-16-3-27-1-19-3-37-4-60 0-43 9-84 33-129l63 41c20-159-39-76 74-240 7 20 4 7 4 34 0 11-3 26-3 36h1zm-1589-588c-49 182-139 305-275 410l-70-120c47-87 90-140 133-247 36-89 50-180 80-260 34 27 93 97 122 132 29 34 23 34 10 86zm695 112c255 109 318 57 449 79l-64 322c-50 19-109 26-170 16-51-9-157-36-173-89-4-17-43-322-41-329v1zm675 668c-82-33-174-150-217-206-44-57-30-56-14-139 10-54 16-109 31-163 29 31 66 126 119 199 60 83 90 100 176 170l-94 139zm-1302-835c99-27 176-37 259-74 69-30 159-79 223-144 17 27 80 272 86 319-53 60-326 174-395 203l-160-269-14-36 1 1zm-149-180c50-47 343-109 502-372 11 9 74 159 87 192 13 31 40 64 13 102-79 110-359 219-485 216l-117-137zm1027-167c92 41 157 60 247 92l-44 456c-136-3-295 20-438-83-49-34-60-120-73-179-11-50-46-153-47-189 29-7 69-3 103-4 149-11 173-56 252-92v-1zm-1021 109c77-126 339-295 442-305-53 87-137 152-207 195-62 37-179 97-235 110zm1671 672c-21 102-66 137-107 219-142-69-247-270-280-362-30-84 6-369 26-491l164 329c29 51 59 102 93 154 34 53 73 100 103 150h1zm-1131-1011c17-11 24-11 50-17l146-14c57 0 152 4 210 24 9 43 26 90 36 136 17 74 6 74-59 109-70 39-173 57-285 24-9-41-30-92-46-132-17-46-43-84-53-132v1zm1113 907c-72-67-348-559-345-722 93 56 222 265 247 332 37 96 102 273 97 390zm-395-628c-172-66-259-69-260-276 67 29 159 66 216 107 33 24 53 39 56 74 1 23-1 69-11 94zm-6162 403l-43 102c1 43-17 136-19 192 0 79 3 114-17 200-16 66-44 156-10 199 44 56 144 49 207 80 72 150 60 189 302 215 170 19 225-40 322-195 190-303 177-299 429-398 57-23 113-40 176-57 451-122 734 200 1316 297 163 27 262 17 408 20 10 44-9 119-10 169-1 56 3 107 7 163 20 230 73 167 16 335-83 245-162 499-195 747-84 631 219 784-56 1363-152-129-73-400-943-602-556-129-585 29-945 253-515 322-416 313-728 761-240 345-358 761-448 1163-143 645-193 1044-252 1669-16 173-14 376-43 542-36 205-119 369-132 579-21 333 124 1031 349 1299 27 33 66 62 92 92l80 33c89-4 144 24 273-51 220-130 406-621 439-891 63-526-209-880-166-1104 0-3 1-4 1-7s1-4 1-7c23-112 49-216 69-326 19-97 29-227 50-316 126-516 681-878 901-1412 53-127 70-233 112-358 164 179 229 711 614 1174 415 501 875 568 1425 749 531 174 961 183 1490 146 449-31 1007-19 1516 215l119 428c46 150 96 277 160 418 475 1043 1528 758 1838 2141 50 222 72 739 449 738 345-1 512-212 787-436 303-247 303-223 559-399 31-21 62-26 100-41 240-93 473-266 655-471 46-51 122-176 156-209l66-159c0-73 63-166-46-283-76-83-212-107-318-113-157-7-472 51-582 96-163 66-372 159-546 164-212 7-488-86-652-236-222-205-671-914-828-1204-126-232-223-382-345-631-17-36-34-96-60-133 37-83 87-114 112-219 51-219-212-282-396-443-117-102-176-245-39-319 100-54 265-21 383-56 330-94 202-594-153-456-279 107-338 40-596 7-89-11-143 4-205 1-4-44-1-104-4-154-17-333-149-752-385-994 46-256 117-333 123-685 4-229-33-432-109-596-79-172-182-335-362-486-76-64-56-36-73-127-19-96-49-189-77-286-14-49-50-99-14-159 276-475 376-888 356-1382-16-373-129-709-408-944-40-33-114-72-146-106l-153-64c-122-7-157-64-412-39-396 41-711 315-897 708-245-120-426-202-684-203-103-1-147-64-282-157-395-275-479-296-931-257-664 56-1070 285-1652 428-216 53-235 49-433 69-97 10-338 60-421 83-172 49-167 89-246 140l1-3z" class="fil0"/>
  <path class="fil1" d="m1223 7113c-80 59-222 402-263 518-63 174-109 352-147 528-27 123-23 134 43 216 163 200 466 255 698 232 117-11 559-110 635-185 33-33 107-213 124-266 30-86 50-174 59-259 17-154-23-313 54-495 26-62 110-183 160-173-59 187-169 446-54 616 219 330 225 523 380 822 235 448 601 825 1282 991 154 37 300 93 453 142 1053 335 1721-146 2868 319 44-87 69-113 120-186-275-47-418-116-506-332-66-162-50-382 17-601-26-43-166-205-243-328-86-136-119-200-186-345-16-36-26-59-40-94-72-164-574-53-691-11-286 99-439 197-692 363-269 176-396 257-689 379l-102-92-37 60c-29-41-70-293-77-338-99-585-240-1066-525-1585-86-157-246-435-362-569-150-173-532-286-768-330-343-64-425-29-658 149-232 176-688 365-738 754-13 96-7 312-84 380-29-77 1-202-27-286l-3 4z"/>
  <path class="fil1" d="m8149 9925c74 137 190 442-103 459-260 14-303-295-393-403-66 195-40 200-1 353 49 195 122 441 200 615 24 53 110 247 152 285 140-332 215-499 478-661 323-197 604-166 672-189l-154-322c-19-37-30-67-47-104-53-13-84 1-154-31-43-20-86-54-117-86-54-51-122-147-179-187-83 62-149 53-189 113-27 40-41 64-76 94-29 24-73 44-89 64h1z"/>
  <path class="fil1" d="m6125 7368c70 13 183 3 250-4 64-7 196-27 256-20 56 134-79 578 310 1206 37 60 202 310 256 342 36-37 73-102 113-144 41-46 84-76 126-116-9-16-187-206-287-373-139-227-279-579-353-834-24-83-36-133-96-209-37-46-136-139-197-170-90 109-282 222-376 323h-1z"/>
  <path class="fil1" d="m3212 3153c17 109 114 413 117 522 235 100 522 117 719 79l57-379c-90-112-309-166-446-186-53-7-423-43-448-37v1z"/>
  <path class="fil1" d="m5427 8130c142-24 340-66 466-109 137-49 242-66 323-172 49-64 54-59 51-126 106-59 127-92 217-202-69 20-127 64-203 87-51 16-160 51-219 46 33-30 137-86 176-100 49-19 144-60 180-87-92-1-210 3-309 7-152 6-157 21-263 130-73 74-382 446-421 526v-1z"/>
  <path class="fil2" d="m6458 4697c-159-90-250-257-349-400l-273-426c20 373-57 230 80 672 14 46 31 103 60 147 69 112 213 83 329 54 23-6 142-37 153-46v-1z"/>
  <path class="fil2" d="m6776 4803c399 283 505-333 575-522-57 6-102 83-143 127-70 76-280 295-355 346-21 14-62 31-79 49h1z"/>
  <path class="fil3" d="m8076 8583c4 34 14 67 23 97 9 33 26 59 31 93-46 29-94 43-187 104-44 29-63-4-82 9l-56 64 77 67c31-67 64-119 119-152 82-51 102-4 153-14 34-6-17-3 23-9 97 73 210 137 340 157l36-84c-133-99-202-110-315-270-27-39-39-80-73-112l-89 50-1-1z"/>
  <path class="fil3" d="m5636 4679c-1 10 82 164 106 233 16 49 24 80 31 132 10 62 1 116 9 143 39-13 92-44 129-62 41-20 100-41 134-67-3-43-86-192-112-239-34-66-44-56-129-83-56-19-112-39-167-57h-1zm-1e3 3437c10-26 74-323 76-355 3-44-62-94-102-122-62-41-117-50-180-59-14 41 6 431 14 481 73 20 96 6 192 53v1zm223-775c43 10 102 1 129 19 29 19 59 66 92 87 10-27 13-46 17-70 1-10 6-27 7-36 1-10 3-30-3-36l-203-123-39 160v-1zm814 332c-86-62-140-114-233-66-76 40-104 172-143 257l192 47 183-240 1 1zm-697 501c-20 57-1 207-13 280 23 1 170-29 186-34l21-223c-67-33-134-26-193-23h-1zm219 156c-9 72-10 133-19 200 34-9 94-43 123-66-4-44-20-82-23-140-4-76 14-117 9-147-93 29-79 44-92 154l1-1zm-616 283c3-92-3-84-57-149 17-4 39 1 39 1 17 3 6 6 29 4 16-54 31-190 36-249 7-97-87-104-176-107-13 76 10 275 20 359 16 132 13 232 102 325 10-49 7-124 10-183l-1-1zm-501-1383c26-104 54-230-29-290-16 92-10 233 29 290zm60-320c57 27 90 17 150 69 44 37 63 77 99 109l43-237c-31 1-33 11-64 14l84-96c-56-59-83-97-174-140l-39 149c-10-56-7-139-43-185-46 110-41 212-56 319v-1zm578-10l26-66c-50-11-207-27-245-16-60 114-53 225-74 339 79 10 107-14 210 33 96 43 113 87 183 139l96-330c11-41 16-36-17-57-62-39-62-19-47-97l92 69 53-176c3-24 3-10 0-26-90 66-189 162-273 186l-3 3zm235 99l-46 163 225 63c16-33 17-59 26-93 13-53 19-51-24-86-73-59-92-77-180-47zm265 64l-50 182c60 34 323 93 390 96 83-162 41-200-54-240-104-43-193-46-286-37zm243 471c129 37 122 13 239 103 34-19 132-116 159-156-67-14-156-16-223-21-119-10-99-26-176 74h1zm-310-210l-31 134c39 16 94 17 137 30 60 17 96 40 150 66l82-113-336-117h-1zm220 269c-57-40-227-123-263-60-9 14-59 216-60 240 62 31 136 51 206 89l116-269h1zm-601 82c77 33 153 51 242 93 49-255 74-252 13-309-16-14-27-26-46-37-47-30-86-37-132-24l-77 279v-1zm-350-443l93 31c-29 16-63 14-90 14l-3 255c130 33 230 49 305 159 17-36 36-139 47-183 29-107 41-97-20-173-70-86-237-190-333-103h1zm-46-57c-31-90-94-172-223-219l-26 358c127 64 152 87 255 166 4-51 7-269-6-305zm-229 196c100 183 200 605 247 704 19-80-3-309-6-402-3-109 21-103-66-180-41-37-120-102-177-122h1zm635 356c-33 66-102 342-92 392 96-20 130-26 249-1l54-279c-1-14-17-29-36-43-64-51-107-56-177-69h1zm263 103c-30 60-67 243-56 300 63 3 127-1 195 19l57-225c-33-50-130-99-197-93l1-1zm190 319c17 1 62-1 77-6 39-11 124-153 144-192-34-11-67-24-103-30-41-7-54-3-76 34-20 34-49 150-41 192l-1 1zm90 92c-4 43-7 137 4 176 46-4 152-49 186-90-21-37-27-77-54-110-44 0-102 6-136 24zm222 69c99-36 192-90 290-130 73-29 233-59 285-134l-446 124c-46 11-103 21-149 37-3 34 9 73 21 103h-1zm-535 350c182-83 193-243-34-154-1 30 6 49 11 79l14 57c6 16 1 6 10 19h-1zm-392 187c47-6 312-126 343-160-1-34-11-80-20-117-10-47-20-67-84-83-84-21-170 27-225 41-24 79-10 240-16 320l1-1zm17-373c30-1 14 0 41-9 153-44 205-7 252-17-4-72 9-210 0-272-173-76-122-17-255-11l-40 309h1zm3097-812c10 41 47 132 66 174 26 57 34 119 60 183 34 3 114-30 140-50-10-82-87-270-124-342-23 0-116 17-142 34zm-260 441c37-17 53-60 153-83 62-14 129-4 199 14-3-20-109-322-134-336-21-10-114-14-139-11-41 6-66 31-104 66-59 54-69 41-47 109l73 240v1zm62 276c23-13 46-44 69-62 136-106 216-63 276-66-16-164-110-239-267-182-66 24-130 57-116 126 10 50 21 136 39 183zm-287-114l144 197c29-16 83-44 107-70-30-63-27-179-62-227-49 4-153 56-190 100zm308 293c37 1 179-54 263-72 27-6 59-7 86-20 6-144-26-217-183-169-126 39-172 123-166 260zm-94-103c-33 50-13 104 54 119 37-53-4-127-54-119zm475-160l10 170 97 6c9-53 10-154-7-195-39-11-72 3-102 19h1zm-49-227c-6 43 19 149 33 183 44-9 84-20 123-39-1-37-29-167-46-192l-110 47zm-1071-847c1 36 10 41 26 79 11 29 14 50 26 80 17 46 36 124 66 156 140-132 209-103 252-136-24-27-49-77-64-112-7-14-51-109-57-116-53-62-213 20-246 47l-1 1zm285-67c31 60 99 223 133 262 69-82 173-146 279-124 11-89-20-270-24-365-124-30-335 93-388 229v-1zm330-684c1 44 34 137 46 189 10 40 29 176 39 197 119-84 84-90 257-127 20-64 14-315-4-365-129-56-257 26-339 106h1zm-732-186c66-49 164-245 506-230-9-43-182-306-229-343-87 13-267 76-323 192-30 63 26 343 46 380v1zm295-631c66 92 146 202 202 295 20 34 39 79 59 103 200-205 243-146 355-170-30-66-197-239-267-295-176-142-323-11-348 69v-1zm-167 1051c97-107 166-230 376-272 66-13 112 0 162-9-9-37-89-256-122-289-109-112-555 59-522 270 11 76 67 263 106 299zm443-615c29 46 80 183 109 252 7 19 9 24 14 41 10 30 3 26 27 44 176-152 209-116 343-122-4-107-83-255-104-329-109-39-150-64-227-26-41 20-133 99-162 139zm-707 880c6 11 216 205 230 215 43-19 69-37 110-53s84-21 122-36c-56-82-144-262-227-318-84 20-167 103-233 192h-1zm-157-27l-29 17c-49-31-93-263-123-335-153-96-329-40-415 27-103 80-107 216-147 382 0 0-6 29-6 30l1 21c0 1 0 4 1 7 245-104 385-164 684-31 67-77 134-70 207-169 86-116 156-129 203-177-16-44-44-97-59-146-13-43-31-116-50-153-66-14-153-17-207 3-72 26-96 72-144 153-31 54-33 54-16 99 37 102 33 134 83 222 14 26 17 23 16 50zm-802 413c30 10 159 13 205 14 39 1 69 4 106 7 53 3 69 14 104-16 54-44 292-235 312-267-215-107-442-67-619 41-64 40-83 134-107 222v-1zm1482 604c17 46 112 230 144 265 82-63 106-74 197-103 4-37-60-239-73-285-83-6-229 39-267 123h-1zm-143-362c17 56 34 92 56 149 20 53 29 110 62 156 3-1 6-4 6-3s4-1 6-3c7-4 7-3 17-10 11-7 17-13 31-23 21-13 43-24 62-34 50-24 84-23 140-44 1-46-100-283-127-325-83-10-206 54-253 137h1zm309-146c6 40 99 276 119 313 33-20 56-64 136-104s117-4 177-19l-153-282c-19-31-17-37-59-36-86 3-164 57-222 127h1zm323-119c14 44 109 236 137 273 33 4 116-9 142-21-17-53-157-243-219-285-27 9-34 19-59 33h-1zm-16-44c76-24 134-163 154-230 20-70 60-217 49-275-89-1-226 57-226 183 0 103 27 230 23 322zm-702-539c36 62 72 117 110 176 29 43 86 154 113 180 67-53 92-120 176-174 82-53 133-29 220-60-6-117-74-302-93-392-209-67-486 130-528 270h1zm-362-1149c-4-80 60-183 50-262-31-33-117-69-170-79-97-17-133 67-229 182-34 41-77 79-106 117 72 4 132-7 212 3 114 14 132 39 223 86 67-56 34-112 137-84l-37 77c36-20 107-94 126-147-21 19-43 43-72 64-37-46-4-80 37-112 41-31 74-56 109-82l-19-120c-7-36-7-30-21-47-217 230-117 92-173 285-11 41-31 97-67 117v1zm-842 518l132-223c-59-79-113-160-219-216-10 33-74 257-74 272 0 24 152 160 162 166v1zm21 54c-51 51-195 315-232 390 147 34 150 21 293 107 27-82 47-205 76-300 16-51 51-114 14-143-33-27-107-44-152-54zm119 455c210-119 236-114 451-62 0-3-33-299-64-330-56-59-240-72-310 112-14 36-86 236-74 280h-1zm489-93c62-49 83-122 162-153 82-33 134-6 220-14 4-37-26-154-33-200-9-56-31-149-30-202-64 6-246 146-312 210-64 63-44 92-37 174 4 40 16 157 30 185zm-44-536l3 156 21-11c44-33 69-66 150-122 63-43 127-69 179-106 1-33-3-93-21-117-86 69-195 206-332 200zm-970 94l59 26c50-80 79-169 124-250 46-79 87-185 46-245-44 84-77 157-103 250-36 130-90 92-126 217v1zm-1041-290c-49 102-192 425-143 529 16 34 57 106 86 129 87-422 130-340 209-559-29-53-70-114-152-99zm-205 489l51-272c-30 27-66 99-80 140-20 60-14 96 29 130v1zm33 635c69-21 57-93 64-156 9-77 36-269-24-333-26-27-40-27-67-63-19-26-26-44-46-67-6 47 57 581 72 621l1-1zm-230-179c26 33 51 80 72 116 23 41 39 82 69 119 3-29-20-393-47-436l-93 203v-1zm1221-1076c57 24 110 54 156 90 37 29 89 89 114 106 103-177 225-409-33-465-43 34-207 216-236 269h-1zm51 206l-43 17c-1 1-4 3-7 4l94 36-44-56v-1c-3-17-13-27-16-56 82 40 110 82 209 113 1-26 4-9-13-34-7-10-19-21-26-30-57-64-159-144-243-162-49 74 27 126 89 169zm403-280c260 110 189 182 360 256 27 11 97 39 120 56 21 16 13 9 23 26-50 36-96-24-152-31-24-3-3-4-20 1l-144 222c179 57 103 44 195 83l113-230 59 13-117 180c99-6 137-39 262 13 13-39-1-174-19-207l-137-34c1-34 6-16 0-34-33-3-47-10-73-31-47-37-24-34-70-41-24-4 14 34-50-47l-277-297-70 103-1 3zm-259 1416c117 31 174-39 388 104l90-402c-87-82-273-133-313-79-39 51-130 299-164 376zm-1048-1322c298 83 320-41 423 6 53 24 102 53 156 76-67-154-488-100-375-312 76-142 326-246 353-300l-62-34c-162 102-393 358-496 565zm336-275c10 21 1 1 10 16l10 17c1 1 3 4 3 6-39 17-96 14-92 72 34 39 120 74 177 90l-6-49-97-17c113-236 269-186 233-336-59 13-189 134-239 200v1zm113 90l51 27c51-26 114-102 90-170-39 11-133 126-142 143zm89-403c63 43 67 33 130 39l-63 104c33 0 36-1 76-16 31-10 41-19 74-21-44 64-114 84-126 187 46-14 205-142 256-190 62-57 100-82 40-220-13-29-13-49-39-73-47 14-336 147-349 189v1zm137 328c11 20 66 64 86 86 30 34 49 79 79 96 56-60 120-130 167-192 40-51 57-66 33-122-16-39-37-74-64-103-34 10-257 199-299 236l-1-1zm-130 122c19 23 49 44 73 64 46 39 30 36 47 84 24 14 67 29 92 26 14-7 3 20 23-27 34-83-72-182-127-226-26 9-90 53-109 79h1zm-53 66c4 57 64 69 123 90 1-72-107-112-123-90zm-217 236l-11-72c-50 1-74 1-102 23 40 29 100 86 144 104 36-33 46-77 87-87 41-9 84 0 124-19-103-49-185-47-243 50zm-271 722c70 3 57-40 94-167 54-179 113-300 189-466-74-6-80 16-123 92-72 126-169 449-162 542h1zm391-657l31 39c-86 84-132 126-195 255-53 109-92 235-132 350 29 29 62 46 94 72 33 26 59 56 92 79 37-119 82-225 119-340 14-44-11-77-1-142 10-62 33-113 47-172-17-17-3-4-34-6l4-64 50 9 67-119c-44 4-102 21-144 40h1zm-54 758c73-46 290-349 338-443-11-20-21-27-29-53 136 7 86-169 82-173-116 247-143 144-236 267-62 82-129 297-154 403v-1zm581-606l-66 20c-21-26-44-70-63-97-3 26 16 93 24 120 21 73 11 49-40 102 23 53 97 119 107 162l-37 13c-37-21-56-92-89-132-74 84-140 177-207 266-126 169-157 167-222 243 60 9 123 9 192 20 120 20 83 29 166-47 46-41 89-87 130-134 60-69 66-113 46-180l60 6c3-103-39-193-49-275 19-17 27-19 62-29 19 41 11 72 34 109l53-133c-51-56-103-119-170-160 7 29 17 39 34 64 16 24 26 34 33 62l1 1zm110 114c-19 43-34 89-36 132-1 51 9 60 39 102 39 51-9 47 57 94 29 21 76 63 109 72 76-167 190-345 225-421-27-53-92-117-144-160-162 318-93 153-249 182zm-246 751c113 33 110 30 212 90 49-116 123-285 163-396-29-33-107-100-147-120-50 57-117 86-149 173-30 83-50 172-79 255v-1zm144-2032c31 57 60 166 79 189 31-20 100-79 134-112 44-41 33-127 60-189 44 163-4 267 143 473 33 3 153-39 187-54 59-182-60-379-133-509-37-67-86-79-192-119-33 74-72 136-123 190-67 72-133 102-154 130h-1zm456 403c23 62 86 126 133 182 33 39 120 146 164 166 102-82 110-79 51-200-36-73-83-142-144-209-29 3-180 47-205 60v1zm322 379c63 67 210 169 309 196 117 31 215-44 253-176-132-146-491-129-562-20zm725 172c100-69 49-79 222-153 34-14 66-19 87-37-14-29-89-130-114-150-34 51-94 110-137 157-87 93-72 66-57 183zm237-386c9 31 64 127 96 153 82-132 177-134 217-177l-215-109-99 133zm136-179c50 64 167 92 246 122 3-46-77-293-99-322l-147 202v-1zm-1808-134c53 54 73 120 107 167 43-23 106-76 99-136-4-34-29-146-40-170-37 16-133 100-166 139zm146 185l17 19c31 27 40 20 76 70 26 36 33 77 64 106 44-89 62-74 11-144-26-36-50-79-82-113l-89 62 1 1zm1316-810l-53 36c-9-57 31-87-27-136l-4 166c53 14 63 34 83 63 19-41 34-84 51-126 30-69 19-57-54-93l3 92 1-1zm-814-1672c56-13 173-73 235-110 69-41 153-106 207-195-103 10-365 179-442 305zm539-339c10 47 34 86 53 132 16 40 37 90 46 132 112 33 215 14 285-24 64-34 76-34 59-109-10-46-27-94-36-136-59-21-153-26-210-24l-146 14c-26 4-31 6-50 17v-1zm718 279c10-26 13-72 11-94-3-36-23-51-56-74-57-41-149-80-216-107 1 207 89 210 260 276zm395 626c4-117-60-295-97-390-26-67-154-276-247-332-3 163 275 655 345 722zm-63 486l-63-41c-26 44-34 86-33 129 0 23 1 43 4 60 1 10 1 17 3 27l9 33c79-57 57-143 53-207l63 33c24-50 36-144 41-203 1-10 3-23 3-36 0-27 1-14-4-34-113 166-54 82-74 240h-1zm-24-162c41-82 84-117 107-219-30-50-70-96-103-150-34-54-63-103-93-154l-164-329c-20 122-56 406-26 491 33 92 137 293 280 362h-1zm-542-1e3c-79 36-104 80-252 92-33 3-74-3-103 4 3 36 36 139 47 189 13 57 26 144 73 179 143 103 302 80 438 83l44-456c-92-31-156-49-247-92v1zm-878 348l14 36 160 269c69-29 342-144 395-203-6-47-69-293-86-319-64 66-156 116-223 144-83 36-160 47-259 74l-1-1zm-150-180l117 137c126 3 406-106 485-216 27-37-1-70-13-102-13-31-76-183-87-192-160 263-452 325-502 372zm-262 526l70 120c136-106 226-229 275-410 13-51 19-51-10-86-29-34-87-104-122-132-31 80-46 172-80 260-43 109-86 160-133 247zm92 156c14 37 69 130 100 157l54-119 73 31c67-47 189-164 229-250l-156-272c-64 160-70 230-209 369-30 30-67 56-92 83zm232 129c26 33 67 112 90 156 19 36 70 139 92 162 46-17 92-66 129-109 44-50 83-99 66-164-13-53-107-263-133-296-37 34-76 90-117 132-29 29-109 93-126 119v1zm283-298c0 31 133 332 153 356 69-3 282-62 282-176 0-64-34-302-51-353-19 3-3-1-26 7l-69 34c-113 60-169 86-289 130v1zm432-166c-1 7 37 312 41 329 14 53 120 80 173 89 63 10 120 3 170-16l64-322c-133-20-196 31-449-79v-1zm675 668l94-139c-84-72-116-89-176-170-53-73-90-166-119-199-16 54-21 107-31 163-16 84-29 82 14 139 43 56 136 173 217 206zm-302 328c96-1 97-23 157-107 37-51 97-124 123-176-195-154-154-153-246-235-54 177-130 393-36 516l1 1zm-329-591c-4 103 11 528 190 435 60-31 113-260 127-340 1-7 6-20 1-41-172 4-132 17-319-51v-1zm-313 164c16 49 29 90 49 137s27 106 57 144l146-37c41-89 50-277 30-335-7-23 1-7-16-29-51 49-124 82-193 99-16 4-20 3-39 7-1 0-16 4-19 4-13 4-9 3-17 7l1 1zm-240 252c9 29 110 193 133 213 31-19 73-53 100-79 46-41 69-60 56-117-13-60-56-189-82-237-1 1-4 1-6 4-1 3-4 4-6 4l-36 47c-17 23-34 44-50 63-39 41-76 67-109 100l-1 1zm705 458c49-40 180-170 216-232-153-87-69-79-129-130-47 116-134 262-87 362zm-56-97l102-277c-29-16-66-20-99-36-39-19-51-34-84-60-7 64 1 134-3 206-3 34-14 67 4 96 9 13 62 60 80 72zm-289-279c10 53 27 94 43 144 21 69 13 87 106 110 14-30 13-123 16-160l11-149c-1-14-1-10-4-20-24 19-49 31-79 43-40 16-51 13-86 30-1 0-4 3-6 3l-1-1zm-209 174c31 79 114 139 190 283 39-7 89-20 112-51-34-43-46-56-117-82 23-26 39-27 62-54-6-47-54-203-73-245l-174 150 1-1zm-3208-1580c195 29 265-4 383-152-46 0-160 20-206 30-59 14-134 39-177 122zm894 402l195 97c30-87 57-144 21-183-27-30-93-96-129-119l-87 205zm1583 812c94-180 139-346 37-463-23 54-74 383-37 463zm-4095-408c186 11 210 21 393 114 7-70-36-134-97-176-109-74-153-30-227-31-11-24-13-17-11-44 196-40 302 96 376 163 31-139-67-279-237-279-67 0-116 29-169 76-34 30-34 37-31 82 1 30-4 72 6 99l-1-3zm3454 343c46 9 106 6 157 7 69 3 104 27 144-31 51-76 137-265 143-353-84-56-176-110-273-152-14 90-4 159-33 263-34 123-74 173-139 266zm-1861-1113c-14 90-11 164-41 262 37 10 67 9 103 10 49 1 57 11 84-34 40-66 50-159 79-233l-223-6-1 1zm266-9l-97 257 207 37c50-94 70-174 87-269l-196-26h-1zm39-27c172 37 276-44 370-180-39-7-192-6-217 10-1 0-147 160-154 169l1 1zm193 44c-33 102-36 164-83 277 59 14 172 20 206-10 31-29 100-185 104-227l-229-39 1-1zm137 302l262 34 83-193-217-96c-47 102-72 162-127 256v-1zm163-273c83 19 190 96 265 70 43-14 157-80 185-137l-246-124c-20 20-10 0-53 51-54 66-133 116-150 140zm-260-63c51 17 202 51 246 26 54-31 130-100 174-152-57-30-207-76-249-47-4 3-166 166-172 174v-1zm309-197c56 37 130 53 144-10-54-34-122-40-144 10zm152 24l285 143c26-19 63-40 72-66-109-50-286-174-356-77zm300 167c80 49 147 147 227 72l17 73c50 20 142 53 185 41-43-62-263-216-318-233-39-11-86 23-112 47zm-240 195c83 62 94 143 205 112 66-19 139-73 183-162l-173-120c-33 36-69 64-103 90-40 30-82 43-112 80zm453 67c37-34 63-29 97-59l-123-34c-44 39-70 97-124 139-110 84-94 77-166 54-9 37-20 123 3 146 33-41 74-102 109-126-21 72-51 100-87 159 51 0 123-17 180-24 63-7 122-7 187-14 73-7 237-200 276-266-120-20-250 31-350 24l-1 1zm-326 345c-3 21 0 53-4 69-9 26-27 30-40 60-9 19-21 136-17 153 13 53 233 164 289 153 50-26 112-173 134-233 36-90 50-166 59-256-66-16-378 31-421 56v-1zm466-57c-24 76-21 157-59 256-40 109-87 166-136 256 56 19 308 83 345 72 64-20 137-192 154-245 26-82 47-205 30-276-92-41-240-56-333-63h-1zm270-315c-41 47-73 96-114 143-39 44-87 83-123 126 92 14 250 54 328 36 86-20 172-117 230-227-107-41-212-62-320-76v-1zm124 342c93 39 195 84 267 146 36 30 36 31 26 79-34 164-70 232-160 369l195 63c17-30 19-159 23-206 16-176 39-142-20-205l67-80c-13-27-14-20-30-43 41-76 96-172 109-262l-233-126c-112 206-130 173-242 266l-1-1zm-3109 205c47 26 103 7 117-41-50-20-96-9-117 41zm-21-96c31-62-34-102-57-86-36 24 4 86 57 86zm-947 167c44-57 11-124-30-153-21 62-31 134 30 153zm285 388l-19 62c43 21 89 29 127 34 27 3 72 4 96-4 16-6 6-1 20-10l-223-80-1-1zm236-904c82 50 146 39 223 54 1-39-6-66-17-93-34-1-192 21-206 39zm-582 564l47 46c-33 39-54 76-74 132 41 11 66-6 103-7 29-59 23-77-4-122l26-57c-21-3-30-3-47-1-24 1-31 1-50 10zm1397-541l10 112c33 4 104-10 137-20l4-116-152 26v-1zm-867 170c37-4 80-14 130-16 44-1 100 4 142-1-7-20-30-47-49-67-33-37-50-26-89-19-53 10-87 10-136 103h1zm679-152c-9 34-9 80-6 116 29 6 130-7 160-20l9-99c-60-13-107 9-164 3h1zm-182 195l37 137c27 1 94-17 117-31l-9-137-146 30v1zm-31-150c-3 39 13 99 30 122 49-11 99-29 143-44 9-37 6-64-4-100-43-6-132 17-169 23zm225 107c-11 33-11 123-9 159l134-17c11-41 20-120 4-153l-130 11zm-243-270c0 39 23 92 37 127 26 0 139-30 160-41-7-37-20-87-46-119l-153 33h1zm609 69l-7 132 207-4-4-122-196-6zm-413-120c6 51 27 94 29 142 53 6 107-20 150-30l33-112c-43-17-76-21-114-20-20 1-27 1-46 4-7 1-19 3-26 6l-19 7c-1 0-4 1-6 3h-1zm-950 988c60-202 114-190 202-342-63-4-146 64-203 123-70 72-54 44 1 219zm1171-689c-11 40-21 127-11 166l162-16c10-41 10-126 0-162l-150 11zm-6-356c3 24 7 46 10 77 3 30-1 57 6 87l127-13c19-51 19-142 24-195-27 0-144 29-169 43h1zm-1241 861c14-9 23-20 34-33 90-110 195-133 262-196-169-84-330 93-296 230v-1zm1436-519l-4 157c39 16 150 30 182 17-3-64-4-112-24-164l-154-10h1zm-1329-107c100 36 119 56 197 106 29-10 136-84 156-110-67-43-113-51-185-41-39 6-137 23-169 46zm1570-62l-17 137 209 41 19-163c-43-13-173-17-209-16h-1zm242 13l-16 173 196 80-50-235c-39-14-93-23-130-19zm-1230-44c-10 67 54 136-47 146 6 27 59 103 82 127l104-9c20-82-19-140-112-137 30-56 51-26 107-31 1-30-26-99-36-119-29 1-67 11-99 24v-1zm-392 655c-44 109-50 86 63 136 192 83 177 100 240-29-110-50-195-76-303-106v-1zm-320-99c37-11 63-59 147-104 27-14 50-19 80-24l86-13c1 0 4-1 7-1-30-92-159-106-225-73-23 11-74 54-90 87-19 41-3 92-4 129h-1zm266 225l-37 127c59 34 132 62 196 73 67 13 104-36 139-84-107-37-192-66-299-114l1-1zm62-172l336 126 43-103c-39-36-163-74-217-83-74-11-123 4-162 60zm1613-146l239 83c0-34-24-137-36-170-20-60-130-90-196-119l-7 206zm-475-661l-20 199 195-3c27-80 27-152 40-226-70-10-152 29-216 29l1 1zm207 408c-14 46-16 139-9 180l239 74c14-49 6-163 1-209l-232-46zm-1708 199c60-33 122-182 342-90 30-129-144-190-259-172-160 26-153 167-84 262h1zm1761-688l26 39c-1 0-4-3-6 0-13 16-14-10-36 10 0 69-27 170-24 222l219 6c11-66 36-202 23-256l-152 13c60-94 146 16 243-122-185 4-189 74-282 87-1 0-6 0-9 1h-3zm1147 2530c106-134 176-342 133-516 0-3-3-10-4-13-6-17 0-6-9-20-39 109-144 466-120 551v-1zm230-835c34-10 44-19 74-36 27-16 49-23 74-36 53-29 66-93 87-176 34-129 44-259 29-370l-286-127c-24 92-50 309-44 393 3 57 51 290 66 352zm315-605c-19 50 36 187-84 499 24-3 265-80 287-92 87-44 134-223 153-325-122-33-229-40-356-83zm393 82c-36 124-37 167-99 302 47-1 189-40 242-56 114-34 127-70 144-220l-287-26zm303 176c41-9 147-72 174-97l-142-50-33 147zm-43 79c-6 41 9 110 9 164 0 40-21 147-17 170 96-59 269-346 279-482-7 1-257 139-270 149v-1zm-386 103c10 144 39 190-13 378 36 3 236-49 302-107 83-74 77-272 56-352-27 0-322 72-343 82h-1zm-349 109c17 64 43 113 44 206s-27 159-31 236c57-27 149-90 213-117 40-17 47-10 67-64 30-80 47-293 7-359-49 10-102 30-153 47-46 16-102 30-149 51h1zm-292 689c47-43 97-84 143-123 74-63 92-53 123-166 39-142 56-299-37-375-80 20-187 82-230 156-72 124 64 107-1 453-7 39-6 39 3 54zm-114 927c76-127 144-295 142-428-3-127-40-266-102-346-29 14-51 49-74 74-36 40-47 44-49 94-4 132 41 502 83 605zm74-825c4 20 51 109 77 195 30 99 23 186 44 225 44-76 199-263 210-322 21-113-9-269-57-338-51 23-245 210-275 242v-1zm319-279c1 21 46 122 62 245 4 40 0 64 17 94 74-90 293-186 260-366-7-39-27-106-46-133-54 16-240 114-293 160zm338-182c3 33 27 86 36 132 7 43 3 96 11 137l298-144c20-56-3-192-24-232-27 3-305 96-322 107h1zm356-134c37 127 26 106 46 199l10 31c54-27 106-83 147-130 73-83 64-110 74-205l212 97c63-179 7-399-77-495-41 122-74 252-164 339-70 69-225 130-247 163zm535-1c59 39 195 79 267 106 3-11-77-282-92-379-7-46 1-43-46-72-51-31-114-79-164-102 14 60 46 83 57 202 11 106-13 140-21 245h-1zm-97-549c67 44 176 142 252 170-3-94-7-186-3-283 4-92 31-127-94-255-102 335-47 137-154 368zm875 790c39-4 176-92 199-127-3-21-7-76-24-94-30 63-27 90-82 122-43 24-73 33-94 100h1zm699-438l-70-39-177 222c-59-10-51-43-86-73-30 69-20 67-31 126-11 56-47 62-80 99 11 57 49 162 114 159 10-10 6 4 7-14 1-36-92-114-37-169 33-20 76-17 122-20-3-3-14-11-17-16-13-16-9-7-14-24 110 7 216-147 246-229 76-1 79-49 189-174 117-134 37-82 46-240-39 17-97 127-137 185-73 103-84 92-72 209h-1zm-648 505c49 19 87-17 92-66-1-1-4-7-6-6l-27-9c-1 0-74 16-59 80zm46 67l84 29c20-27 17-73 30-110 66 34 19 77 56 119 40-74-19-177-41-202l-129 162v3zm249-34c3 31 20 113 34 139l119-154-89-33-64 49zm298 79c23-24 24-21 31-60-70-83-122 26-31 60zm-210 310c39-20 124-142 146-179 44-76 7-140-37-199-9 4-7 3-19 13-9 9-11 11-19 20-13 16-24 34-36 51-14 20-59 76-66 94-10 26 19 166 30 197v1zm-212-80c31-20 117-97 136-132l-53-109c-51 17-73 41-76 100-1 44-17 103-7 140zm-147-223l-126 164c94 26 137 31 227 82l16-230-117-16zm-636 182c17 39 77 97 104 143 31 53 37 66 60 120 11 27 9 24 26 44l256-295c-27-36-57-72-96-102-79-62-62-59-236 31-40 20-83 31-113 57h-1zm328-169l146 136c10-7 189-176 89-270-77 51-190 104-235 134zm-142-185c9 30 64 140 87 166 29-10 44-23 69-36 80-41 157-70 210-156-40-6-333 17-366 27v-1z"/>
  <path class="fil3" d="m1202 9530c-39 93-51 225-77 322 120-4 80-11 210 37l53-308c-56-60-119-49-186-50v-1zm-322 2459c-112-50-259-23-309 37 59 80 113 246 259 296l51-333h-1zm-342-518l1 36c-3 26-16 64-16 93 67 0 174-70 383 9 16-90 0-250 0-343-120-51-300-7-382 160l-80-33c37-56 43-36 51-110 10-93 23-257 19-340-39-9-122 17-137 50-21 47-3 247 4 308 9 66 17 73 54 129-31 93-1 182 34 230 10-41 10-77 11-119 3-59 17-40 54-72l1 3zm-6 182c-14 87-11 266 23 320 117-40 154-82 330-39l20-283c-137-62-286-36-372 1h-1zm708 269c11-62 7-156 10-225 3-76 14-84-11-104-23-20-97-43-126-44-62-3-140 46-164 134-10 39-21 193-17 229 89-6 97-66 308 10h1zm150-356c-99-6-96 80-99 122-3 43-10 139-4 172 44-40 100-233 103-293zm-522 758c164 19 338-227 370-343-63-33-116-56-180-54-41 1-114 26-134 60-4 7-46 290-56 338zm-312-2470c-19 104-24 199-31 300l-20 277 66 4c16-82 27-222 34-306 10-136 27-210-49-275v-1zm89 299c-9 79-17 159-27 237 36-4 62-19 109-23 40-3 79 9 112 7 3-33-7-77-10-112-13-146 7-247 1-350-76-40-117-17-167-4-14 43-10 185-17 245zm227-252c-14 41-4 402 3 458 29 1 63-14 100-23 37-7 67-9 106-6 3-46-4-103-3-156s4-107 4-160c0-62 7-112-66-132-40-11-113 7-144 19zm312-30c-72 107-60 107-63 232-1 50-7 187 4 227l123-36c23-59 51-186 60-247 20-132-1-120-126-174l1-1zm-628 599c-66 36-67 36-96 123-20 59-36 114-50 173-50 203-59 160 112 129 1-7 46-385 34-425zm325 325c-1-69-10-167-19-235-3-20-4-40-7-59-6-67-36-93-143-82-149 14-103 102-143 413 40-6 30-14 73-30 123-43 202 1 237-9h1zm196-406c-63-31-97-13-139 9-77 40-36 72-26 246 3 43-3 94 4 134 30-4 63-26 93-37 34-13 59-16 94-29 9-64-16-262-26-322l-1-1zm82 343l67-60 29 56-94 46c-7 47 44 322 54 378 19 0 169-34 186-43-23-209-202-546-163-767-41 1-67 24-107 34-7 47-4 53 0 100 4 53 16 225 29 255v1zm-250 475c7-46-7-216-13-267-7-53 1-87-67-107-46-14-92-14-133-4-109 27-129 77-140 209-4 49-23 237-14 269 159-130 308-89 368-100v1zm209-386c-9-49-33-69-89-51-93 29-97 119-93 200l14 202 6 26c40-19 67-33 107-43 49-13 73 3 112-3l-57-330zm122 378c7 124 39 223 51 356l109-46c30-104 11-256 6-349-41-3-129 24-166 39zm-51 10c-79-26-219-16-230 79-6 40-9 240-3 269 96-29 147-80 293-34l-60-313zm-445-2801c7 110 19 44-26 177 31-24 33-63 70-72 19 30-9 87-17 126-10 43-19 82-31 124 54 33 87 10 160 79 44 43 59 83 93 120l89-320c-53-39-124-70-182-110-59-40-104-90-154-124h-1zm624 669c63-139 146-247 217-379-106-16-206 14-402-26-6-1-24-4-30-6-30-3-1-4-34-1l-86 303c31 13 107 3 163 20 80 23 106 53 172 89zm489-202c57-34 223-257 256-335-23 11-50 33-70 59-37 46-20 69-74 57-6-29-10 1 24-60-16 1-322 82-336 89-36 19-205 298-233 353l27 43c-41 56-82 53-132 153-37 74-63 157-100 232l206 69c74-166 216-373 232-412-37-17-84-33-117-50-31-16-51-49-41-72l187 79c50-109 130-229 196-332 11-19 21-37 33-56 11-19 17-27 33-36-7 116-46 122-92 217l1 1zm-927 535c97 10 114-51 247 53l152-349c-84-86-226-117-316-82l-84 379 1-1zm-185-579c-50 86-82 439-90 546 83-4 110-63 239 17 14-60 73-328 69-363-10-70-112-226-216-200h-1zm-134 612c-4-16-1-10-7-21-20 63-31 170-37 233-7 90-36 137 39 196 17-70 17-246 13-328-1-20-1-36-4-53-1-9-3-19-4-27h1zm50 405l173-3c19-102 21-215 40-323 27-169-160-130-213-92v416 1zm269-379c-30 64-39 287-53 369 82 9 107-14 209 23 14-41 51-255 59-306 17-129-147-107-216-86h1z"/>
  <path class="fil3" d="m7973 10167c29-50 83-41 129-44 0-40-46-142-113-144-51-3-107 59-150 103 7 44 51 119 107 153 123 76 154 14 179-53-63-16-80 14-153-14h1z"/>
  <path class="fil3" d="m9489 12547l82-113c-87-96-160-192-269-283-49 107-7 146 49 216 49 62 99 139 140 180h-1zm1508 220c49-31 385-332 413-370-96-53-172-109-283-154-113-47-97-7-136-11-46-4 11-13-142-24-72-4-223-41-283-37-59 4-164 92-190 166 122 56 223 123 333 186 50-109 130-237 219-293 10 21 10 31 10 53-74 66-163 129-189 265l247 222zm1239-385c33-54 87-173 96-235 10-83-117-56-166-49-353 51-697 349-963 595-190 174-422 370-616 465-96 47-190 41-362 112-126 51-439 276-365 432 102 213 376 156 525 76 53-29 110-79 160-116 232-176 506-455 771-572 325-144 724-388 920-707v-1zm-785-21c62-30 130-86 193-124 459-283 545-197 619-237-215-99-452-36-621 0-67 14-475 144-538 183l346 179zm-1858 103c-77 140-83 116-29 229 33 67 51 133 82 196l44-34c54-53 70-44 122-73 1 0 4-1 6-4 1-3 4-3 6-4-24-53-177-277-232-310l1 1zm279 305c62-157 142-144 193-197-31-33-137-190-183-249-84-109-189 20-232 124 36 57 74 104 113 159l109 163zm235-206c24-53 54-103 87-142 31-37 73-66 97-96-57-53-133-162-193-203-93-66-174 50-209 142 53 66 195 280 216 300l1-1zm235-255c59-94 126-119 169-174-107-46-176-102-269-154l-103 84c20 57 139 200 205 245h-1zm-499 511c-49 6-186 86-166 173 9 34 56 209 69 229 76-72 152-84 195-114-4-37-73-259-97-287zm126 255c21-7 24-9 46-36 132-172 166-134 263-182-16-29-160-219-185-236-326 120-123 329-123 453h-1zm370-232c54-114 124-199 225-265 29-19 67-26 83-50l-320-164c-69 34-153 119-185 220 26 54 137 227 197 257v1zm-541 692c19-11 117-143 149-173 63-63 17-76 9-199-44-4-195 66-202 136 0 3 40 222 44 236zm219-240c76-47 149-87 226-116l183-57c29-7 37-6 62-20-1-74-69-107-129-160-70-62-144-29-192 3-59 39-103 94-150 157-33 44-27 53-20 99 4 30 4 69 19 94h1zm556-210c66-34 335-219 382-287-33-47-100-100-146-140-67-57-87-102-167-69-110 44-216 132-280 287 66 57 134 152 212 209zm-1589-1310c24-63 39-110 79-157 41-49 60-47 106-73-10-26-110-156-132-185-66-94-144-87-199-9l-21-11-97 192 263 245 1-1zm-34 40c-23-37-152-153-196-195-83-79-120-43-196 123l328 217 63-146h1zm256-305c132-203 99-205 330-185 1-24-163-276-179-293-154-11-239 13-322 169-24 44-16 54 4 89 30 51 130 186 166 220zm323 355c39-74 97-130 167-167 34-19 37-9 64-36-60-64-87-159-152-233-79-90-203-97-279-34-39 31-79 90-80 149-1 43 41 76 74 113s66 70 100 104c30 30 72 79 104 104zm-216 227c59-146 100-127 170-212-86-64-239-276-299-285-89-13-174 156-152 213 16 39 150 156 189 192 29 27 63 69 92 90v1zm298 322c31-27 56-76 87-107 34-34 69-53 99-80-33-66-210-250-286-303-74 24-130 96-166 203l265 287h1zm-1364-888c17-66 21-112 60-173 37-59 66-62 103-103-73-73-146-210-219-266-39 93-144 302-99 372 26 39 112 139 156 170h-1zm196-312c39-89 62-167 130-206 62-36 132-21 187-46-7-20-185-302-207-336-79 39-240 183-302 269-29 40-10 59 7 89 37 63 133 190 186 230h-1zm356-276c84-116 167-195 310-216 7-1 21-3 26-4l23-9c-17-36-120-203-140-223-94 4-375 76-422 116 10 40 170 300 203 336zm272-461c14 46 102 177 133 219 39-13 79-24 107-49-10-27-60-114-80-139-33-40-120-39-162-30l1-1zm-541 1253c34-82 74-147 126-202-17-27-192-216-220-233-112 44-122 146-150 265l245 170zm157-240c117-220 80-164 260-253-7-21-113-172-144-202-67-64-190-4-233 31-69 57-119 149-54 239 29 40 137 162 173 185h-1zm297-282c50-70 80-142 147-177 27-14 62-26 96-34 34-9 66-7 92-23-13-36-60-109-83-143-49-73-57-82-150-62-90 19-213 92-265 226 54 49 119 180 163 215v-1zm250-468c19 44 106 197 142 226 30-17 62-21 92-50-17-41-112-196-147-229-29 16-62 24-86 53zm260 219c-36 6-77 17-100 46 31 37 147 245 195 313 39-1 82-24 106-46l-200-315v1zm127 402c9 26 176 289 199 318 27-4 86-36 104-63l-210-300-93 47v-1zm227 338c6 41 94 150 120 182 31 40 102 144 137 172l90-107c-56-49-116-129-159-183-103-130-53-79-190-63h1zm7 526c44-31 66-160 189-167-10-30-90-127-127-177-33-44-94-139-142-164-86 13-160 73-215 177 16 31 53 60 80 87 29 30 49 50 74 80 47 53 96 120 142 166l-1-1zm-880-379c-20 44-44 104-44 143l302 246 43-112c-53-66-225-236-299-277h-1z"/>
  <path class="fil3" d="m8116 9393c17 39 110 149 149 170 50-41 113-92 89-162-16-44-51-110-86-150-34 19-122 109-152 140v1z"/>
  <path class="fil3" d="m7910 9610c4 13 30 73 37 84 41 60 192 47 250-29-53-49-97-133-154-179-33 13-112 89-133 123z"/>
  <path class="fil3" d="m8230 8520c1 79 159 273 318 316 29 7 47 10 73 4-1-1-3-7-4-6l-44-40c-54-43-102-84-144-140-114-146 13-93-197-134z"/>
  <path class="fil3" d="m7511 9052c51-6 180-69 227-139l-144-107c-57 62-140 106-162 134l96 44-17 67z"/>
  <path class="fil3" d="m7547 9623c84-70 102-86 187-123 0-30-37-107-59-139-106 11-246 160-129 262z"/>
  <path class="fil3" d="m7358 8927c-36 13-62 44-82 76-21 33-37 73-47 110-10 40-13 79-13 116 0 19 0 37 1 54 3 26 3 26 11 46l41-37c69-92 114-283 87-365z"/>
  <path class="fil3" d="m7886 9573c47-59 82-82 143-129-7-29-67-127-87-156-1 1-4 3-6 3l-34 20c-13 9-23 17-36 30-24 21-47 41-46 74 1 39 39 129 67 157h-1z"/>
  <path class="fil3" d="m7554 8709c97 54 153 50 230 19 62-26 126-67 166-143-80 0-220 40-299 72-33 13-76 26-96 54l-1-1z"/>
  <path class="fil3" d="m7462 9447c31-11 56-47 103-79 34-23 67-40 104-56l-17-152c-164-16-180 205-190 286z"/>
  <path class="fil3" d="m8240 8944c7 41 36 86 56 124 24 46 27 83 59 122 50-37 140-76 182-123l-296-124v1z"/>
  <path class="fil3" d="m8830 9808c21-67 26-103 72-159 40-50 73-59 109-96-250-106-255 186-252 190l72 64z"/>
  <path class="fil3" d="m8095 9343c30-13 139-107 157-137-17-37-29-76-59-100-51 23-127 64-170 102 6 36 43 107 70 136h1z"/>
  <path class="fil3" d="m7743 9881c72-46 67-56 142-83-3-31-46-104-74-130-46 26-116 49-136 133 19 27 41 60 69 80z"/>
  <path class="fil3" d="m7311 9514c-36-139-30-144-107-185-26 112 57 330 156 382-7-57-33-136-49-197z"/>
  <path class="fil3" d="m8704 9703c24-60 41-104 83-153 40-49 73-56 104-90-203-86-295 172-187 243z"/>
  <path class="fil3" d="m7452 9208c11-3 64-39 89-49 176-73 113 16 190-89 24-33 51-63 72-102-63-1-130 59-193 90-83 43-119 20-159 149h1z"/>
  <path class="fil3" d="m7328 9346c19 142 23 362 199 418-6-80-86-94-134-316-10-43-13-69-64-102z"/>
  <path class="fil3" d="m8416 8550c20 82 156 207 256 257-7-36-70-134-87-169-19-37-16-54-56-69-36-11-84-21-113-20z"/>
  <path class="fil3" d="m7996 9909c-76-50-103-116-227 6l49 116 179-120v-1z"/>
  <path class="fil3" d="m7630 9760c44-66 116-113 167-137-14-26-39-60-60-82-40 14-142 86-169 133l60 87 1-1z"/>
  <path class="fil3" d="m8917 8543c1 34 27 113 39 143 20 53 60 70 126 53l-92-233-72 37h-1z"/>
  <path class="fil3" d="m7830 9157c43 73-41 67-62 192 33 0 19 1 44-17l112-87c-6-56-16-104-40-146-44 10-130 51-113 113l60-54h-1z"/>
  <path class="fil3" d="m7803 8891c56-41 89-63 119-152-20-1-229 50-265 63 26 33 99 74 146 90v-1z"/>
  <path class="fil3" d="m8602 9592c64-153 119-150 154-202l-76-44c-103 60-157 200-79 246z"/>
  <path class="fil3" d="m8521 9482c49-97 83-112 130-179l-60-50c-31 16-103 63-122 93 6 27 34 122 51 136z"/>
  <path class="fil3" d="m8604 8589c11 37 40 77 66 112 37 47 60 64 126 84 0-3-17-253-192-195v-1z"/>
  <path class="fil3" d="m8767 8576c16 69 46 164 156 196 9-40-10-77-20-112-9-30-16-77-31-102l-104 17z"/>
  <path class="fil3" d="m7329 8907c44-7 116-24 156-51 53-36 102-83 34-127-44 11-163 122-190 179z"/>
  <path class="fil3" d="m7942 8818c26-4 104-49 127-70l-23-129c-93 3-110 124-104 199z"/>
  <path class="fil3" d="m8886 9838c59-17 177-132 129-216-80 3-136 127-129 216z"/>
  <path class="fil3" d="m8578 9194c-37-36-64-47-110-29-27 11-69 39-90 76l67 72 132-119h1z"/>
  <path class="fil3" d="m9120 8714c59-27 50-83 37-130-21-77-23-62-113-99-6 40 56 202 77 229h-1z"/>
  <path class="fil3" d="m7468 9022l-57-41c-16 51-20 117-39 179-17 62-40 122-60 183 60-23 79-102 93-157 20-77 39-100 64-163h-1z"/>
  <path class="fil3" d="m7993 9160c36-3 64-27 102-50 31-19 69-33 93-60-34-53-90-47-126-23-49 31-57 80-67 133h-1z"/>
  <path class="fil3" d="m8298 9606c34 20 51 24 80 10 16-7 49-30 37-59-17-41-96-16-117 49z"/>
  <path class="fil3" d="m8083 9812c59 19 119-9 130-83-31-16-44 0-73 17-37 20-40 23-57 66z"/>
  <path class="fil3" d="m8062 9e3c19-23 19-16 19-44-29-23-53-11-64 30l46 14z"/>
  <path class="fil3" d="m7428 4044c36 9 36 11 53-21l-40-4c-11 16-6 3-13 24v1z"/>
 </g>
</svg>
