<?xml version="1.0" encoding="UTF-8" standalone="no"?>
<!DOCTYPE svg  PUBLIC '-//W3C//DTD SVG 1.1//EN'  'http://www.w3.org/Graphics/SVG/1.1/DTD/svg11.dtd'>
<!-- Creator: CorelDRAW X5 -->
<svg style="shape-rendering:geometricPrecision;text-rendering:geometricPrecision;image-rendering:optimizeQuality" xmlns="http://www.w3.org/2000/svg" fill-rule="evenodd" xml:space="preserve" height="500px" width="500px" clip-rule="evenodd" xmlns:xlink="http://www.w3.org/1999/xlink" viewBox="0 0 12764 16208">
 <defs>
  <style type="text/css">
   <![CDATA[
    .fil6 {fill:black}
    .fil1 {fill:#009933}
    .fil0 {fill:lime}
    .fil4 {fill:rgb(39, 39, 39)}
    .fil2 {fill:#7BD178}
    .fil3 {fill:#947A9F}
    .fil5 {fill:white}
   ]]>
  </style>
 </defs>
 <g id="Layer_x0020_1">
  <g id="_293694360">
   <path class="fil0" d="m3236 14786c-34 54-179 175-209 175-10 0-22 12-28 24-8 20-14 20-36 0s-20-24 8-24c18 0 34-12 34-28 0-40 175-193 221-193 38 0 38 2 10 46z"/>
   <path class="fil0" d="m2922 14989c20 24 16 30-22 36-32 4-60 34-88 95-32 66-44 78-54 52-24-56-16-84 38-149 56-68 90-76 127-34z"/>
   <path class="fil1" d="m3614 14993c36 18 80 46 99 62 32 30 32 34-14 70l-50 40-97-56c-52-30-99-56-101-60-4-2-2-24 6-46 16-50 68-54 157-10z"/>
   <path class="fil1" d="m3105 15021c16 10 24 24 16 30-20 20-99-10-86-32 16-22 32-22 70 2z"/>
   <path class="fil2" d="m2912 15112c-32 50-32 121 2 221 10 32 2 28-38-16-28-30-52-74-52-97 0-60 56-159 90-159 26 0 26 8-2 50zm241 22c20 8 32 36 32 76 0 34 18 97 40 139l40 74h-88c-107 0-135-28-149-151-14-125 32-175 125-139zm3090-3891c74 48 109 90 171 213l78 153v253c0 229-8 288-84 595-46 187-86 368-92 402-6 32 2 245 16 473 26 384 34 428 103 643 70 213 76 249 76 473 2 231 0 245-58 352-105 189-155 209-814 330-125 22-227 58-378 135l-205 105-378 4c-340 2-404 10-678 68-390 84-559 82-653-8-163-155-161-308 2-368 42-18 68-10 161 48 131 80 157 84 219 18 46-48 46-50 10-90-20-22-80-56-135-76l-101-38 86-74c86-74 239-133 344-133 30 0 56-10 56-22 0-40-205-6-316 50-56 28-141 95-191 151-80 88-241 185-267 159-6-4 58-78 141-163 153-157 247-219 368-245 34-6 64-22 64-32 0-28-48-22-171 24-88 32-149 78-279 211-163 165-199 189-223 149-18-30 217-255 356-336 273-161 674-466 792-603 316-362 338-396 336-559-2-205-125-491-370-865-56-88-121-197-139-241-46-111-99-338-133-593-36-282-38-275 18-229 24 22 70 52 103 68 30 16 76 56 101 86 103 141 187 211 304 253 267 101 466 99 581-8 42-40 52-66 52-151 0-90 8-111 84-195 48-50 141-129 207-173s151-107 187-139c36-30 80-56 101-56 18 0 80-22 135-50 131-66 277-54 414 32zm-3227 3877c-28 30-34 66-30 141 4 56 6 103 4 103s-20-28-38-62c-52-105-18-213 70-217 22-2 20 8-6 36z"/>
   <path class="fil1" d="m3213 15104c-14 22-68 24-68 2 0-28 22-42 52-30 16 6 22 18 16 28z"/>
   <path class="fil3" d="m8866 6757c30 12 64 48 82 90 26 62 24 78-2 143-16 40-30 107-30 147 0 103-36 219-74 241-30 16-22 48 72 296 97 249 125 300 255 462 137 169 147 189 129 239-34 86-22 231 30 394 60 189 101 605 80 842-6 95-30 249-52 346-42 199-50 338-16 338 16 0 18 26 8 84-8 48-16 107-16 129-4 40-12 36-88-34-48-42-105-78-127-78-48 0-141 84-141 131 0 62 129 169 259 211 70 24 133 38 139 32s0-46-12-90c-32-101-30-107 12-86 18 10 46 14 62 8 14-4 60 24 101 64 40 40 111 101 157 133 86 60 123 133 99 193-18 44-115 24-201-42-46-36-90-50-135-48-40 2-97-12-139-38-92-58-137-56-165 6-20 42-16 76 20 189 38 115 42 153 24 241-16 82-12 123 12 189 54 149 54 149-2 187-197 137-314 322-322 499-2 56-6 109-8 115 0 6-38 2-84-10-72-18-86-16-109 16-20 26-22 50-8 86 24 66 22 147-4 147-12 0-64 46-119 105-66 72-105 99-129 90-40-16-30-70 52-251 30-70 56-145 56-167 0-60-74-90-316-129-183-28-231-30-257-10-16 14-30 38-30 52s-72 135-161 265c-163 241-177 281-141 374 10 28 16 52 12 52-12 0-129-193-141-233-30-99 88-296 304-497 58-54 101-121 137-213 60-161 60-173 10-237-22-30-40-82-40-121 0-38-12-95-28-123-16-30-38-78-50-111-12-30-28-54-38-54-36 0-284 255-296 308l-14 56-28-54c-36-68-36-123 2-229 32-92 10-173-42-153-50 20-82-8-72-60 6-36-6-60-44-90-30-22-52-52-50-64 6-56-6-76-54-95l-52-20 14-308c16-322 0-406-84-501-20-24-32-78-34-159-4-105-12-131-52-163-26-20-70-36-99-32-44 6-52-4-66-74-10-44-16-173-12-288 4-113 2-205-4-205-38 0-440 744-517 955-16 44-42 169-56 277-16 121-40 211-58 233-40 44-40 54 6 121 22 30 54 113 72 183 18 72 58 173 90 225 62 103 44 109-70 24-133-97-312-113-462-38-54 28-117 50-135 50-20 0-64 26-101 56-36 30-125 99-197 149-161 113-300 261-304 322-2 26-2 74 0 109 10 149-251 195-547 97-127-42-167-66-221-133-123-153-165-195-235-233-38-20-101-76-139-125-64-86-66-95-52-211 8-66 16-169 20-227 2-58 10-111 14-117 6-4 36 2 66 16l56 24-12 229-10 229 62 32c34 20 137 105 229 191 157 149 294 233 374 235 20 0 64-28 99-60 48-50 56-70 46-119-12-56-8-60 42-56 52 4 58-4 121-197 103-310 90-382-88-571-92-99-139-95-155 14-8 42-20 99-30 127-10 32-6 74 12 117 16 36 24 74 18 82-12 20-328-137-408-205-40-34-101-58-161-68-52-6-153-38-225-68s-153-54-181-52c-66 4-105-78-117-257-10-157-30-213-74-213-42 0 462-529 627-660 64-48 88-84 97-141 6-40 16-95 22-119 4-22 68-123 141-221 74-97 161-235 195-306 52-111 58-137 38-191-12-34-16-86-10-119 10-46 4-54-36-54-68 0-88-20-109-111-24-95-123-161-199-131-50 18-153 4-153-22 0-10 42-64 95-123 127-143 273-376 354-559 64-151 64-151 58-454l-4-306 62-22c97-34 143-28 229 32 76 52 92 56 302 56 157 0 251 10 322 34 62 22 149 32 227 30 155-4 173 14 191 183 6 62 26 155 44 203 16 48 30 109 30 135s10 48 22 48c14 0 18-38 10-117-16-139 14-207 99-231 34-10 105-40 157-66 84-44 105-46 173-26 66 20 90 16 205-32 207-86 259-97 400-80 201 22 251 16 406-62 151-76 181-78 362-28 78 24 113 24 195 2 64-16 147-20 227-12 119 12 135 10 257-56 143-78 171-84 251-54z"/>
   <path class="fil2" d="m7929 1544c273 58 495 135 796 271 135 62 294 117 406 139 529 111 1025 372 1385 730 292 292 382 509 378 917-2 179-16 275-56 426-50 191-221 609-255 631-24 14-24 68 0 68 30 0 195-358 261-569 34-109 74-284 86-390l24-193 107 117c123 135 267 416 320 623 52 201 46 678-8 915-22 95-38 175-34 179 24 24 50-40 80-201 24-119 42-173 52-155 40 60 119 346 141 511 12 99 54 302 90 450 38 149 78 376 90 503 10 127 38 340 60 473 52 328 48 497-22 1064-76 605-123 877-221 1309-42 187-88 410-101 493-34 231-36 235-109 279-46 28-101 42-173 42-88 0-101 4-82 28 34 40-12 52-201 52-185 0-493-42-871-119l-261-52-86-342c-46-189-86-348-86-358 0-8 22-14 48-14 141 0 857-239 857-286 0-24 2-24-314 92-288 107-569 169-647 141-44-16-60-48-111-201l-60-183 46-99c72-149 215-279 406-370 149-70 408-141 519-141 22 0 40-10 40-20 0-28-111-24-259 10-70 18-133 28-137 24s34-46 84-92c129-119 384-235 629-290 213-46 282-90 103-66-227 30-585 171-718 284l-60 50-135-255c-169-322-231-481-304-760-50-195-56-257-58-533 0-171 6-328 14-348 14-34 20-32 82 14 68 52 115 66 115 36 0-8-26-30-58-50-34-20-133-103-221-187-464-436-567-979-292-1550 97-199 99-207 68-207-32 0-179 326-221 491-48 193-52 420-8 621l32 147-165 298-167 298 14 223 12 225-159 76c-151 74-165 76-267 60-78-14-135-10-211 10-95 26-119 26-223-4-163-44-197-42-364 38-155 74-221 82-380 48-105-22-135-14-458 109-64 26-101 28-159 12-64-18-86-14-173 30-54 28-115 52-135 52-48 0-125 56-145 109-12 32-18 14-28-78-8-66-22-141-32-167-26-60-111-90-221-78-56 6-135-4-215-28-105-32-159-38-306-26-177 14-179 12-292-54l-115-68 14-103c26-215-80-774-213-1120-44-117-60-189-58-281 2-201 2-201 201-197 183 4 404-48 633-149 167-74 477-288 641-444 149-141 107-121-72 34-370 318-895 539-1225 517-394-28-668-392-668-891 0-320 103-571 332-814l105-111-123 117c-394 378-475 975-191 1416 80 125 231 255 320 279 32 10 42 22 34 46-60 153-44 288 70 611 72 205 133 466 153 657l12 131-121 181c-281 424-694 794-1134 1017-68 34-113 68-107 82s2 38-8 52c-12 22-36 20-121-8-233-76-452 14-547 225-32 70-50 86-113 99-42 6-97 26-121 42-40 26-44 24-66-42-70-215-300-302-585-219-145 42-251 117-312 219-52 92-58 111-30 111 12 0 40-36 64-80 88-157 322-257 547-235 177 16 296 157 296 352 0 101-6 113-103 215-139 147-235 191-416 191-298 0-444-76-537-281l-38-82 119-225c64-125 135-245 157-271 60-64 227-139 382-167s187-70 40-50c-129 16-286 68-354 117-32 22-62 36-68 28-10-8-107-233-107-247 0-2 52-18 117-36 139-40 426-171 426-195 0-22-54-20-68 2-18 28-310 139-454 173-213 48-247 36-80-30 219-86 408-201 440-269 38-82 36-288-6-384-18-44-62-111-99-147-62-64-68-66-185-54-66 8-137 18-155 22-30 8-26-6 20-97 46-88 54-131 54-267 0-137 14-201 90-432 105-318 203-481 350-579 84-56 115-64 223-64 193 0 259 38 300 173 12 38 2 46-82 66-179 46-267 95-267 149 0 58 70 155 113 155 16 0 111-40 209-90 181-90 225-97 261-28 60 111-14 239-187 320-279 133-436 56-621-308-52-103-86-151-92-131-12 56 153 350 241 430 44 38 109 80 141 92 60 22 60 22 50 143-6 74-34 165-72 241-64 131-64 177-2 95 56-72 121-275 121-376 0-84 2-86 66-86 99 0 316-117 372-199 78-121 48-292-58-314-32-8-58-20-58-26 0-8 42-40 95-70 70-44 97-50 109-30 24 36 28 22 54-145 24-161 139-418 243-541l58-70 32 64c18 36 42 60 52 54 12-6-6-64-40-131-225-446-131-1023 239-1460 191-225 454-408 778-543 169-70 219-78 159-28-28 24-42 80-20 80 6 0 40-32 74-70 133-153 651-507 999-682 127-64 135-64 151 0 8 28 34 72 60 99 38 38 48 74 56 195 8 133 18 161 103 290 155 237 324 360 575 412 400 82 822-171 961-575 28-84 28-121 6-292-20-171-20-203 6-243 18-26 36-90 44-141l14-92 103 8c58 6 207 32 334 60zm-4516 6273c52 26 68 74 38 119-10 14-72 16-203 4-117-10-197-10-209 2-32 32 6 167 66 227 70 70 171 76 249 14 28-22 52-36 52-32 0 38-107 316-137 356-52 68-183 76-312 22-76-34-95-36-95-12 0 16 22 34 50 42 76 20 60 44-54 78-207 60-370 28-416-86-24-56-20-66 46-155 44-58 72-117 72-153 0-72 72-123 181-127 44 0 80-10 80-22 0-46 105-223 151-257 101-72 316-82 438-20zm565-253c68 32 74 56 52 235-32 257-30 253-225 434-153 141-197 171-267 181-46 8-99 8-119 0-40-16-40-6 36-300 28-111 52-221 52-247 0-74 88-223 117-195 4 4-6 32-22 64-16 30-38 90-50 131-16 62-16 76 8 76 16 0 28-16 28-36 0-18 26-88 58-157 84-177 203-245 332-187zm-2145-963c74 82 107 171 107 296 0 66-8 143-18 171-36 92-444 288-712 336l-135 26-70-68c-74-72-131-215-131-336 0-52 20-86 109-173 181-177 444-290 688-294 103-2 129 6 163 42z"/>
   <path class="fil4" d="m6414 333c-88 60-80 60-185 10-70-34-92-38-141-18l-58 24 76 14c109 20 107 30-10 58-131 28-328 171-386 277-123 221-183 468-149 605 16 68 34 90 99 119 42 20 78 46 78 60 0 12 4 34 10 50 8 18-8 26-54 26-62 0-66 4-68 76 0 74-2 76-239 207-298 167-481 284-674 430-105 80-195 131-292 161-213 68-505 225-686 370-281 221-497 547-581 877-50 197-44 477 16 666l48 151-68 80c-95 111-221 370-249 511-22 119-26 123-143 193-66 40-123 68-129 62s-26-54-46-107c-60-173-239-243-458-179-203 58-396 314-477 625-18 66-50 165-74 217-34 78-38 117-28 219 24 227-72 408-251 475-127 48-350 209-420 304-40 56-46 82-36 181 20 221 153 388 304 380 46-2 151-2 235 0l155 2 40 95c72 175 74 165-66 430-151 282-153 308-48 468 99 147 203 197 440 209 215 10 312-10 418-90 36-28 68-46 70-44 4 4 16 32 32 60 60 123 265 155 481 76 62-24 163-46 223-50 115-8 189-54 215-133 10-32 24-36 88-26 137 24 217-16 418-205l189-177 30-205c38-253 28-302-72-344l-74-32 151-115c163-121 368-312 497-462l78-92 8 153c18 366 14 426-52 581-82 189-231 428-354 563-80 90-95 117-84 163 8 42-10 101-78 235-127 255-175 408-161 517 8 56 0 129-20 203-22 74-30 145-20 209 8 58 0 141-18 215-16 66-36 165-44 221-16 115-107 253-233 352-84 68-105 141-38 141 44 0 52 28 68 211 4 66 22 155 40 195 30 72 38 76 125 76h90l-10 84c-32 263-34 418-6 483 18 36 36 135 42 217 38 460 121 750 292 1013 273 424 372 664 360 877-6 123-14 141-97 241-243 298-342 394-555 549-388 279-529 362-649 378-90 12-123 30-201 105-50 50-121 97-155 103-82 18-167 109-181 195-10 60 0 84 78 181 78 95 107 115 217 149 70 22 167 36 213 34 56-4 105 8 151 36 99 58 288 52 660-24 281-58 348-64 674-66l362-2 231-115c207-103 255-117 452-145 444-62 605-127 708-279 36-52 74-129 86-169 34-125 24-422-18-567-22-72-58-195-82-271-32-111-46-237-64-583l-22-442 84-344c101-418 127-605 103-764-18-127-90-342-123-360-10-8-18-24-18-36 2-14 32 12 70 54 38 44 70 72 70 64 0-26-84-177-151-271-42-56-80-149-103-233-18-78-50-163-68-189-34-48-34-52 0-101 24-34 44-119 58-247 16-171 32-221 135-442 62-135 165-338 227-446l113-199 10 225c10 241 26 273 117 253 74-18 105 22 105 139 0 56 14 125 30 153 111 189 117 217 101 450-24 350-14 434 52 434 26 0 38 14 38 44 0 24 20 66 46 92 24 26 44 72 44 101 0 44 12 58 66 74 74 22 76 30 32 155-30 90-30 97 22 207 50 103 56 145 70 454 14 279 12 354-12 410-50 121-36 169 99 370 30 46 66 78 76 70 34-20 259 213 312 324 44 92 48 127 48 392 0 219-12 362-50 581-86 499-60 718 103 885 48 48 88 109 88 133 0 76 101 245 199 336 241 217 320 263 495 296 265 48 507 14 615-90l58-56 90 44c117 56 219 56 398-2 80-26 199-60 265-74s161-46 211-70c111-56 259-229 273-318 10-54 0-74-60-133-40-38-72-90-72-113 0-66-84-171-428-531-177-185-330-364-352-410-64-139-92-312-92-577 0-310 22-446 137-844 48-171 95-370 103-442 20-205-40-450-257-1046l-70-193 66 8c70 8 131-34 131-92s-76-161-155-211c-42-26-111-82-151-123-46-46-90-72-125-72-44 0-52-8-52-58 0-32 10-84 20-113 16-42 12-66-14-113-34-56-32-68 14-304 38-189 50-310 50-515v-265l34 78c18 42 50 84 70 90 32 10 56 80 125 370 48 195 97 366 111 380 22 22 535 127 828 169 239 32 547 18 581-28 16-22 38-30 60-22 48 20 251-90 261-143 4-22 22-135 40-251 18-117 62-342 101-503 86-372 135-657 211-1247 66-523 74-808 30-1064-16-92-42-302-60-462-16-161-56-398-90-525-32-129-72-328-90-442-34-229-92-448-153-567-30-58-38-119-38-261 0-462-133-832-404-1130-105-115-113-133-135-267-50-302-165-511-418-750-354-338-863-597-1375-704-97-20-263-78-382-131-378-171-756-284-1166-346-88-14-111-24-121-60-6-26-26-64-44-86-26-30-36-76-36-177 0-88-10-151-30-177-16-20-30-58-30-84 0-62-50-153-107-199-26-20-64-62-84-92s-82-86-141-127c-88-58-127-70-229-74-103-4-117-8-90-28 64-46-24-54-113-10-78 38-117 26-44-14 30-18 30-20 2-22-18 0-66 22-107 50zm-2083 8007c84-32 143 2 169 99 16 54 40 88 82 109 60 30 66 46 70 203 4 76-74 219-229 426-72 99-137 199-141 221-6 24-16 78-22 119-8 56-32 90-84 131-40 32-117 97-171 145l-97 88-4-78c0-44 0-92 2-109 4-16 8-117 12-221 4-105 16-217 28-247 12-32 22-123 22-205 0-125 12-173 72-314 72-173 145-306 173-316 8-4 16-22 16-40 0-22 6-26 22-10s38 16 78 0zm567 2584c141 171 141 189 54 473-60 193-66 203-117 201-46-4-52 4-54 70-6 215-181 187-448-72-84-80-183-163-219-183-64-32-68-36-50-107 8-40 14-135 12-211-4-117 0-135 30-135 72 0 169 40 235 99 38 32 101 68 139 78 38 12 109 48 159 82 88 60 90 60 125 22 32-36 34-50 10-119-20-64-20-97 2-181 14-56 32-103 40-103 6 0 44 38 82 84zm5767 4470c0 28-8 50-20 50-10 0-20-22-20-50s10-50 20-50c12 0 20 22 20 50zm-925 30c-22 22-40 62-40 90 0 46 8 50 86 50 76 0 255-62 255-90 0-6-30-28-64-50-86-52-185-52-237 0zm-362-3404c-40 125-42 163-30 458 10 223 6 340-10 382-14 38-14 52-2 40 42-42 56-207 36-446-16-215-14-259 22-400 22-88 36-163 34-165-4-4-26 54-50 131zm-420 3308c-92 26-147 64-189 135-38 66-34 70 111 92 133 20 499-52 499-99 0-32-119-107-211-131-95-26-117-26-209 2zm-585-1025c-121 211-107 302 64 460 103 97 127 129 137 201l14 88 4-88c2-84-4-97-117-201-64-62-129-135-143-161-32-62-10-169 62-300 32-56 54-105 48-105-4 0-36 48-70 105zm535-225c30 177 133 625 169 734l38 121-10-111c-14-129-161-734-189-782-14-22-16-12-8 38zm308-131c46 92 495 611 513 591 6-4-52-84-129-179-161-201-412-471-384-412zm-306-483c-64 16-167 54-229 84-115 56-332 239-372 314-10 22 12 8 50-32 243-241 581-370 929-352 86 4 137 0 119-10-56-32-376-34-497-4zm400-2554c58 34 103 48 137 38 121-30 181 84 396 726 84 255 86 267 86 523 0 245-4 277-74 507-105 344-135 503-149 770-12 271 24 525 101 688 34 76 141 203 366 436 173 183 340 366 368 408 52 80 48 123-6 76-18-14-38-20-46-12s8 34 36 54c137 107 181 147 181 163 0 30-237-161-298-239-30-38-68-90-88-113-18-24-38-38-46-32-6 8 38 88 101 179 60 92 111 173 111 181 0 10-24 22-52 28-64 16-143-50-223-183-48-84-141-167-185-167-40 0-24 32 30 62 28 14 80 68 115 119 32 50 88 121 121 155l62 66h-70c-36 0-95 14-129 32l-60 30-111-121c-97-107-181-163-243-163-46 0-12 40 52 60 48 16 111 70 191 167 115 135 121 149 121 249 0 129-36 159-229 193-121 20-139 18-233-26-101-46-103-50-90-119 16-105-12-179-133-346-58-82-109-153-111-157-4-2-16-2-28 2s32 82 101 177c111 155 121 181 121 273 0 74-12 119-42 157-76 97-149 121-370 121-235 0-390-32-460-99-28-26-92-74-139-109-109-74-201-179-257-288-34-66-40-111-34-221 4-88 0-135-14-131-10 4-22 32-26 60-4 30-14 54-22 54-24 0-95-84-135-161-54-101-50-458 8-754 34-173 44-292 44-543 0-390-12-424-227-649-213-223-215-239-38-495 76-113 155-237 171-279 18-40 40-74 48-74 68 2 456 80 473 97 14 14-2 80-54 207-62 153-70 193-52 231 34 76 107 62 197-38 42-48 99-99 125-113 44-24 46-34 34-145-16-129-12-131 88-95 58 18 70 18 95-14 14-22 26-82 26-137 0-117 95-314 185-382 157-121 177-141 177-177 0-22-14-68-32-105-26-48-30-95-22-207 10-115 6-169-26-261-36-105-38-189-6-189 8 0 52 22 99 50zm1118 4685c-26 56-70 78-197 99l-80 14v-101c0-97 2-103 50-103 28 0 88-18 133-38l80-36 18 58c12 38 10 74-4 107zm165-147c12 56 4 74-40 113-28 26-54 44-58 40-2-4-10-44-16-88-8-72-4-86 34-105 62-32 66-30 80 40zm-4349-4204c74 48 109 90 171 213l78 153v253c0 229-8 288-84 595-46 187-86 368-92 402-6 32 2 245 16 473 26 384 34 428 103 643 70 213 76 249 76 473 2 231 0 245-58 352-105 189-155 209-814 330-125 22-227 58-378 135l-205 105-378 4c-340 2-404 10-678 68-390 84-559 82-653-8-163-155-161-308 2-368 42-18 68-10 161 48 131 80 157 84 219 18 46-48 46-50 10-90-20-22-80-56-135-76l-101-38 86-74c86-74 239-133 344-133 30 0 56-10 56-22 0-40-205-6-316 50-56 28-141 95-191 151-80 88-241 185-267 159-6-4 58-78 141-163 153-157 247-219 368-245 34-6 64-22 64-32 0-28-48-22-171 24-88 32-149 78-279 211-163 165-199 189-223 149-18-30 217-255 356-336 273-161 674-466 792-603 316-362 338-396 336-559-2-205-125-491-370-865-56-88-121-197-139-241-46-111-99-338-133-593-36-282-38-275 18-229 24 22 70 52 103 68 30 16 76 56 101 86 103 141 187 211 304 253 267 101 466 99 581-8 42-40 52-66 52-151 0-90 8-111 84-195 48-50 141-129 207-173s151-107 187-139c36-30 80-56 101-56 18 0 80-22 135-50 131-66 277-54 414 32zm-3090 3891c20 8 32 36 32 76 0 34 18 97 40 139l40 74h-88c-107 0-135-28-149-151-14-125 32-175 125-139zm-137-14c-28 30-34 66-30 141 4 56 6 103 4 103s-20-28-38-62c-52-105-18-213 70-217 22-2 20 8-6 36zm197-16c-14 22-68 24-68 2 0-28 22-42 52-30 16 6 22 18 16 28zm-302 8c-32 50-32 121 2 221 10 32 2 28-38-16-28-30-52-74-52-97 0-60 56-159 90-159 26 0 26 8-2 50zm193-90c16 10 24 24 16 30-20 20-99-10-86-32 16-22 32-22 70 2zm509-28c36 18 80 46 99 62 32 30 32 34-14 70l-50 40-97-56c-52-30-99-56-101-60-4-2-2-24 6-46 16-50 68-54 157-10zm-692-4c20 24 16 30-22 36-32 4-60 34-88 95-32 66-44 78-54 52-24-56-16-84 38-149 56-68 90-76 127-34zm314-203c-34 54-179 175-209 175-10 0-22 12-28 24-8 20-14 20-36 0s-20-24 8-24c18 0 34-12 34-28 0-40 175-193 221-193 38 0 38 2 10 46zm5630-8029c30 12 64 48 82 90 26 62 24 78-2 143-16 40-30 107-30 147 0 103-36 219-74 241-30 16-22 48 72 296 97 249 125 300 255 462 137 169 147 189 129 239-34 86-22 231 30 394 60 189 101 605 80 842-6 95-30 249-52 346-42 199-50 338-16 338 16 0 18 26 8 84-8 48-16 107-16 129-4 40-12 36-88-34-48-42-105-78-127-78-48 0-141 84-141 131 0 62 129 169 259 211 70 24 133 38 139 32s0-46-12-90c-32-101-30-107 12-86 18 10 46 14 62 8 14-4 60 24 101 64 40 40 111 101 157 133 86 60 123 133 99 193-18 44-115 24-201-42-46-36-90-50-135-48-40 2-97-12-139-38-92-58-137-56-165 6-20 42-16 76 20 189 38 115 42 153 24 241-16 82-12 123 12 189 54 149 54 149-2 187-197 137-314 322-322 499-2 56-6 109-8 115 0 6-38 2-84-10-72-18-86-16-109 16-20 26-22 50-8 86 24 66 22 147-4 147-12 0-64 46-119 105-66 72-105 99-129 90-40-16-30-70 52-251 30-70 56-145 56-167 0-60-74-90-316-129-183-28-231-30-257-10-16 14-30 38-30 52s-72 135-161 265c-163 241-177 281-141 374 10 28 16 52 12 52-12 0-129-193-141-233-30-99 88-296 304-497 58-54 101-121 137-213 60-161 60-173 10-237-22-30-40-82-40-121 0-38-12-95-28-123-16-30-38-78-50-111-12-30-28-54-38-54-36 0-284 255-296 308l-14 56-28-54c-36-68-36-123 2-229 32-92 10-173-42-153-50 20-82-8-72-60 6-36-6-60-44-90-30-22-52-52-50-64 6-56-6-76-54-95l-52-20 14-308c16-322 0-406-84-501-20-24-32-78-34-159-4-105-12-131-52-163-26-20-70-36-99-32-44 6-52-4-66-74-10-44-16-173-12-288 4-113 2-205-4-205-38 0-440 744-517 955-16 44-42 169-56 277-16 121-40 211-58 233-40 44-40 54 6 121 22 30 54 113 72 183 18 72 58 173 90 225 62 103 44 109-70 24-133-97-312-113-462-38-54 28-117 50-135 50-20 0-64 26-101 56-36 30-125 99-197 149-161 113-300 261-304 322-2 26-2 74 0 109 10 149-251 195-547 97-127-42-167-66-221-133-123-153-165-195-235-233-38-20-101-76-139-125-64-86-66-95-52-211 8-66 16-169 20-227 2-58 10-111 14-117 6-4 36 2 66 16l56 24-12 229-10 229 62 32c34 20 137 105 229 191 157 149 294 233 374 235 20 0 64-28 99-60 48-50 56-70 46-119-12-56-8-60 42-56 52 4 58-4 121-197 103-310 90-382-88-571-92-99-139-95-155 14-8 42-20 99-30 127-10 32-6 74 12 117 16 36 24 74 18 82-12 20-328-137-408-205-40-34-101-58-161-68-52-6-153-38-225-68s-153-54-181-52c-66 4-105-78-117-257-10-157-30-213-74-213-42 0 462-529 627-660 64-48 88-84 97-141 6-40 16-95 22-119 4-22 68-123 141-221 74-97 161-235 195-306 52-111 58-137 38-191-12-34-16-86-10-119 10-46 4-54-36-54-68 0-88-20-109-111-24-95-123-161-199-131-50 18-153 4-153-22 0-10 42-64 95-123 127-143 273-376 354-559 64-151 64-151 58-454l-4-306 62-22c97-34 143-28 229 32 76 52 92 56 302 56 157 0 251 10 322 34 62 22 149 32 227 30 155-4 173 14 191 183 6 62 26 155 44 203 16 48 30 109 30 135s10 48 22 48c14 0 18-38 10-117-16-139 14-207 99-231 34-10 105-40 157-66 84-44 105-46 173-26 66 20 90 16 205-32 207-86 259-97 400-80 201 22 251 16 406-62 151-76 181-78 362-28 78 24 113 24 195 2 64-16 147-20 227-12 119 12 135 10 257-56 143-78 171-84 251-54zm-937-5214c273 58 495 135 796 271 135 62 294 117 406 139 529 111 1025 372 1385 730 292 292 382 509 378 917-2 179-16 275-56 426-50 191-221 609-255 631-24 14-24 68 0 68 30 0 195-358 261-569 34-109 74-284 86-390l24-193 107 117c123 135 267 416 320 623 52 201 46 678-8 915-22 95-38 175-34 179 24 24 50-40 80-201 24-119 42-173 52-155 40 60 119 346 141 511 12 99 54 302 90 450 38 149 78 376 90 503 10 127 38 340 60 473 52 328 48 497-22 1064-76 605-123 877-221 1309-42 187-88 410-101 493-34 231-36 235-109 279-46 28-101 42-173 42-88 0-101 4-82 28 34 40-12 52-201 52-185 0-493-42-871-119l-261-52-86-342c-46-189-86-348-86-358 0-8 22-14 48-14 141 0 857-239 857-286 0-24 2-24-314 92-288 107-569 169-647 141-44-16-60-48-111-201l-60-183 46-99c72-149 215-279 406-370 149-70 408-141 519-141 22 0 40-10 40-20 0-28-111-24-259 10-70 18-133 28-137 24s34-46 84-92c129-119 384-235 629-290 213-46 282-90 103-66-227 30-585 171-718 284l-60 50-135-255c-169-322-231-481-304-760-50-195-56-257-58-533 0-171 6-328 14-348 14-34 20-32 82 14 68 52 115 66 115 36 0-8-26-30-58-50-34-20-133-103-221-187-464-436-567-979-292-1550 97-199 99-207 68-207-32 0-179 326-221 491-48 193-52 420-8 621l32 147-165 298-167 298 14 223 12 225-159 76c-151 74-165 76-267 60-78-14-135-10-211 10-95 26-119 26-223-4-163-44-197-42-364 38-155 74-221 82-380 48-105-22-135-14-458 109-64 26-101 28-159 12-64-18-86-14-173 30-54 28-115 52-135 52-48 0-125 56-145 109-12 32-18 14-28-78-8-66-22-141-32-167-26-60-111-90-221-78-56 6-135-4-215-28-105-32-159-38-306-26-177 14-179 12-292-54l-115-68 14-103c26-215-80-774-213-1120-44-117-60-189-58-281 2-201 2-201 201-197 183 4 404-48 633-149 167-74 477-288 641-444 149-141 107-121-72 34-370 318-895 539-1225 517-394-28-668-392-668-891 0-320 103-571 332-814l105-111-123 117c-394 378-475 975-191 1416 80 125 231 255 320 279 32 10 42 22 34 46-60 153-44 288 70 611 72 205 133 466 153 657l12 131-121 181c-281 424-694 794-1134 1017-68 34-113 68-107 82s2 38-8 52c-12 22-36 20-121-8-233-76-452 14-547 225-32 70-50 86-113 99-42 6-97 26-121 42-40 26-44 24-66-42-70-215-300-302-585-219-145 42-251 117-312 219-52 92-58 111-30 111 12 0 40-36 64-80 88-157 322-257 547-235 177 16 296 157 296 352 0 101-6 113-103 215-139 147-235 191-416 191-298 0-444-76-537-281l-38-82 119-225c64-125 135-245 157-271 60-64 227-139 382-167s187-70 40-50c-129 16-286 68-354 117-32 22-62 36-68 28-10-8-107-233-107-247 0-2 52-18 117-36 139-40 426-171 426-195 0-22-54-20-68 2-18 28-310 139-454 173-213 48-247 36-80-30 219-86 408-201 440-269 38-82 36-288-6-384-18-44-62-111-99-147-62-64-68-66-185-54-66 8-137 18-155 22-30 8-26-6 20-97 46-88 54-131 54-267 0-137 14-201 90-432 105-318 203-481 350-579 84-56 115-64 223-64 193 0 259 38 300 173 12 38 2 46-82 66-179 46-267 95-267 149 0 58 70 155 113 155 16 0 111-40 209-90 181-90 225-97 261-28 60 111-14 239-187 320-279 133-436 56-621-308-52-103-86-151-92-131-12 56 153 350 241 430 44 38 109 80 141 92 60 22 60 22 50 143-6 74-34 165-72 241-64 131-64 177-2 95 56-72 121-275 121-376 0-84 2-86 66-86 99 0 316-117 372-199 78-121 48-292-58-314-32-8-58-20-58-26 0-8 42-40 95-70 70-44 97-50 109-30 24 36 28 22 54-145 24-161 139-418 243-541l58-70 32 64c18 36 42 60 52 54 12-6-6-64-40-131-225-446-131-1023 239-1460 191-225 454-408 778-543 169-70 219-78 159-28-28 24-42 80-20 80 6 0 40-32 74-70 133-153 651-507 999-682 127-64 135-64 151 0 8 28 34 72 60 99 38 38 48 74 56 195 8 133 18 161 103 290 155 237 324 360 575 412 400 82 822-171 961-575 28-84 28-121 6-292-20-171-20-203 6-243 18-26 36-90 44-141l14-92 103 8c58 6 207 32 334 60zm-4516 6273c52 26 68 74 38 119-10 14-72 16-203 4-117-10-197-10-209 2-32 32 6 167 66 227 70 70 171 76 249 14 28-22 52-36 52-32 0 38-107 316-137 356-52 68-183 76-312 22-76-34-95-36-95-12 0 16 22 34 50 42 76 20 60 44-54 78-207 60-370 28-416-86-24-56-20-66 46-155 44-58 72-117 72-153 0-72 72-123 181-127 44 0 80-10 80-22 0-46 105-223 151-257 101-72 316-82 438-20zm565-253c68 32 74 56 52 235-32 257-30 253-225 434-153 141-197 171-267 181-46 8-99 8-119 0-40-16-40-6 36-300 28-111 52-221 52-247 0-74 88-223 117-195 4 4-6 32-22 64-16 30-38 90-50 131-16 62-16 76 8 76 16 0 28-16 28-36 0-18 26-88 58-157 84-177 203-245 332-187zm-2145-963c74 82 107 171 107 296 0 66-8 143-18 171-36 92-444 288-712 336l-135 26-70-68c-74-72-131-215-131-336 0-52 20-86 109-173 181-177 444-290 688-294 103-2 129 6 163 42zm3022 34c0 90-4 99-54 109-32 6-72 18-92 24-24 10-8-24 50-109 46-66 86-123 90-123s6 44 6 99zm4283-906c0 44 155 257 284 390 137 141 137 141 119 221-30 125-24 509 10 702 58 334 205 710 438 1116l50 86-42 64c-28 38-97 88-179 129-153 74-314 219-372 334l-38 76-36-88c-48-123-62-284-32-378l26-76-153-185c-133-163-163-215-245-434l-95-249 36-74c18-42 38-127 44-187 4-60 22-143 38-181 46-101 4-217-97-267l-72-34-14-225-14-223 155-277c135-243 189-312 189-237z"/>
   <path class="fil5" d="m6971 550c36 16 76 42 90 58 16 20-10 12-70-18-121-60-233-54-348 22-107 70-103 48 4-28 92-68 211-80 324-34z"/>
   <path class="fil5" d="m6282 603c-50 8-131 34-177 60-117 60-131 40-20-24 62-36 115-50 187-50l101 2-90 12z"/>
   <path class="fil5" d="m6380 745c-117 20-163 46-300 171l-111 101 101-109c113-121 227-183 332-181 64 2 62 4-22 18z"/>
   <path class="fil5" d="m6774 804c44 20 121 74 171 121l90 84-117-82c-64-46-155-101-201-123-46-20-70-38-54-38s66 18 111 38z"/>
   <path class="fil5" d="m6423 796c0 6-54 36-119 70-70 34-125 76-133 103-8 22-18 36-24 32-6-6-4-30 4-54 10-28 58-64 139-103 139-64 133-62 133-48z"/>
   <path class="fil2" d="m6583 1389c-64 145-70 169-44 153 42-26 133-183 157-269 22-80 26-86 28-34l2 60 38-48c22-26 40-36 40-24 0 52 38 16 56-54l18-74 14 60c8 32 22 86 30 121l18 60 4-60 4-60 16 60c14 58 16 58 30 14 18-56 38-56 64 0 20 46 20 46 52-14l32-60 2 76c0 82 28 84 62 6 18-42 20-42 10 2-10 58 20 60 40 2 12-42 14-42 40 8 14 28 52 233 80 454l54 402-62 133c-82 177-231 332-412 428-141 74-151 76-336 74-322-4-509-107-694-378l-111-163-24-402c-14-221-22-428-20-462l8-60 28 68c22 54 34 62 56 44 22-20 34-16 50 12 18 32 20 30 22-14s4-46 22-16c10 20 34 36 48 36 22 0 30-28 32-117l2-115 16 92c8 50 32 123 52 161l38 68 10-131c8-72 22-149 36-171 20-34 22-24 24 64 0 56 10 111 20 117 12 8 20-32 20-109 0-66 10-145 24-177 22-52 24-46 36 90 8 88 24 159 42 177 28 26 30 12 30-127 0-86 10-175 24-197 20-38 24-36 34 20 8 34 30 84 52 111l38 50v-141l2-141 50 127 48 127-60 139z"/>
   <path class="fil2" d="m7450 1417c6 115-6 223-28 263-18 34-26 10-48-137-20-133-20-189-4-221 22-40 24-40 50-4 16 20 30 66 30 99z"/>
   <path class="fil2" d="m5731 1586c12 8 28 88 34 181 10 161 8 167-26 135-40-36-109-259-92-304 12-30 48-36 84-12z"/>
   <path class="fil1" d="m2620 5398l46 50-163 80c-88 46-175 82-191 82-38 0-92-76-92-133 0-32 24-52 107-84 147-58 237-56 294 4z"/>
   <path class="fil1" d="m3362 7976c50 10 58 58 22 137-44 95-191 117-267 42-32-32-76-167-62-191 8-14 225-6 308 12z"/>
   <path class="fil1" d="m10555 15242c6 10 2 20-8 20-12 0-22-10-22-20 0-12 4-20 8-20 6 0 16 8 22 20z"/>
   <path class="fil1" d="m10615 15301c6 10 2 24-8 30s-22-2-30-18c-12-32 18-42 38-12z"/>
   <path class="fil1" d="m10520 15327c34 34 30 50-14 62-48 12-121-56-78-72 44-18 66-16 92 10z"/>
   <path class="fil1" d="m10351 15375c48 18 38 40-36 76-131 62-247 24-153-52 44-36 129-46 189-24z"/>
   <path class="fil6" d="m6835 1463c-28 42-78 113-111 155-34 42-60 86-60 99 0 10 26-16 58-62 32-44 70-86 80-95 22-12 107-171 90-171-4 0-30 34-58 74z"/>
   <path class="fil6" d="m6935 1650c-88 88-173 161-191 163-22 0-22 4-4 12 14 6 46-4 70-20 24-14 82-32 131-40 97-12 251-105 239-141-4-14-36-26-70-30-113-12-64-76 66-90l80-8-80-2c-76-4-90 6-241 157z"/>
   <path class="fil5" d="m7142 1634c-10 34-175 117-227 115-32-2-34-4-4-12 18-4 34-22 34-40 0-24 6-26 30-6 36 30 70 10 70-42 0-28 14-38 52-38 32 0 48 10 44 24z"/>
   <path class="fil6" d="m6382 1628c0 24 42 56 111 82 70 26 64 20-36-48-40-28-74-44-74-34z"/>
   <path class="fil6" d="m6e3 1710c-64 16-62 16 28 14 111-2 149 34 52 52-109 22-66 80 90 123 22 6 105 4 181-6 101-12 121-18 70-22-38-4-88-4-111-4-30 4-32 0-14-14 20-12 2-36-72-90-105-76-111-76-225-52z"/>
   <path class="fil5" d="m6161 1811c22 14 24 24 8 40-26 26-135-14-117-42 14-24 70-22 109 2z"/>
   <path class="fil6" d="m7259 1895c-26 66-30 105-14 167l18 80 2-105c2-56 12-129 22-159 12-30 18-58 12-62-4-4-22 30-40 78z"/>
   <path class="fil6" d="m6537 1899c-8 20-14 64-12 99 2 62 2 62 20-14 20-86 14-145-8-84z"/>
   <path class="fil6" d="m6726 1962c0 70 2 74 20 34 12-30 10-60-2-80-14-26-18-16-18 46z"/>
   <path class="fil6" d="m6927 1946c30 18 76 68 107 115 28 44 52 68 52 52 0-44-84-157-137-179-68-32-82-26-22 12z"/>
   <path class="fil6" d="m6839 1978c12 60-131 195-207 195-131 0-235-103-201-195 12-28 8-28-30 6-52 46-99 135-99 183 0 20 22-10 46-64 46-99 48-101 62-44 18 72 121 135 221 135 62 0 90-14 155-78 74-72 101-147 60-171-8-6-12 10-8 34z"/>
   <path class="fil6" d="m5922 2046c30 34 58 95 66 133s26 80 40 92c18 14 12-18-16-101-26-80-60-135-92-157l-50-32 52 64z"/>
   <path class="fil6" d="m6774 2292c-44 32-92 42-187 42-143 0-255 46-324 135-34 40-38 56-18 68 50 26 288 40 378 20 294-62 533-149 533-191 0-36-127-95-225-105-76-8-109-2-157 30z"/>
   <path class="fil1" d="m7008 2298l68 26-121 14c-66 8-193 22-281 32-139 16-388 97-366 119 4 4 48-12 97-34 52-22 133-40 195-40 60 0 157-14 215-32 60-16 157-28 215-24l107 6-111 56c-60 30-131 54-153 54-24 0-82 14-129 30-113 40-462 42-462 4 0-36 78-107 147-133 32-12 109-22 171-22 74-2 141-16 185-40 82-46 131-48 223-16z"/>
   <path class="fil6" d="m6221 2374c-22 22-40 56-40 74 2 32 4 30 24-4 12-22 40-56 64-74 22-20 30-36 18-36-14 0-44 18-66 40z"/>
   <path class="fil6" d="m6700 2575c-30 8-80 34-115 58-32 22-78 50-105 60-26 10-36 20-22 20 14 2 76-26 141-60 99-52 131-60 225-52 105 8 107 6 50-18-68-30-99-32-175-8z"/>
   <path class="fil6" d="m7727 2127c203 249 406 382 609 400 58 6 225 2 368-8l261-20-352 4-352 2-137-66c-97-48-185-117-310-241-123-123-149-143-88-70z"/>
   <path class="fil6" d="m8594 2885c0 4 14 14 32 20 16 6 24 4 18-8-12-20-50-28-50-12z"/>
   <path class="fil6" d="m8685 2931c12 10 72 56 135 105 209 157 368 414 396 637 52 446-207 849-710 1094-481 235-1009 203-1631-101-111-52-257-135-326-179-70-44-127-76-127-72 0 6 74 60 167 119 462 302 965 458 1369 428 223-16 372-58 585-165 768-378 957-1154 406-1671-80-76-179-157-217-177s-58-30-48-18z"/>
   <path class="fil6" d="m8409 4519c14 6 32 4 38-2 8-6-4-12-26-10-22 0-28 6-12 12z"/>
   <path class="fil6" d="m8309 4540c12 4 36 4 50 0 12-6 2-10-26-10s-38 4-24 10z"/>
   <path class="fil6" d="m6183 4638c0 22 6 28 12 12 6-14 4-32-2-38-6-8-12 4-10 26z"/>
   <path class="fil6" d="m5353 5263c24 4 60 4 80 0 18-6-2-10-46-8-44 0-60 4-34 8z"/>
   <path class="fil6" d="m10506 5684c0 22 6 28 12 12 6-14 4-32-2-38-6-8-12 4-10 26z"/>
   <path class="fil6" d="m3453 6214c0 60 4 86 8 54 4-30 4-78 0-111-4-30-8-4-8 56z"/>
   <path class="fil6" d="m11411 6267c0 22 6 28 12 12 6-14 4-32-2-38-6-8-12 4-10 26z"/>
   <path class="fil6" d="m5504 6409c18 4 46 4 60 0 12-6-2-10-36-10-32 0-44 4-24 10z"/>
   <path class="fil6" d="m2222 6840c-4 30 82 253 129 330 60 107 141 167 334 255 84 40 171 95 197 129 24 32 36 40 24 18-30-66-107-125-229-179-223-99-292-179-432-515-12-28-22-44-22-38z"/>
   <path class="fil6" d="m2023 8056c-66 46-60 157 16 277 99 155 241 181 356 66l46-44-95-70c-52-38-121-113-155-165-66-103-99-115-169-64z"/>
   <path class="fil1" d="m2142 8096c14 28 78 101 143 159 64 60 117 113 117 119 0 22-121 72-177 72-62 0-139-68-193-175-40-82-40-145 2-191 44-50 74-46 109 16z"/>
   <path class="fil6" d="m11272 8657c0 32 4 44 10 24 4-18 4-46 0-60-6-12-10 2-10 36z"/>
   <path class="fil6" d="m1545 6635c-147 90-141 376 10 452 56 30 243 46 243 22 0-8-12-36-28-66-26-50-48-155-82-372-14-86-46-95-143-36z"/>
   <path class="fil1" d="m1667 6711c14 105 58 294 82 356 14 34 6 38-80 28-113-14-165-56-195-159-40-131 14-265 123-306 54-20 58-16 70 80z"/>
   <path class="fil6" d="m5795 7576c14 6 32 4 38-2 8-6-4-12-26-10-22 0-28 6-12 12z"/>
   <path class="fil6" d="m5037 7815c0 22 6 28 12 12 6-14 4-32-2-38-6-8-12 4-10 26z"/>
   <path class="fil6" d="m5534 8581c12 4 36 4 50 0 12-6 2-10-26-10s-38 4-24 10z"/>
   <path class="fil4" d="m7269 9120c-2 117 20 233 54 288 10 14 107 56 213 97 137 48 235 99 316 163 66 50 125 86 133 80 6-8 4-14-6-14-12 0-72-44-137-99-64-54-141-105-169-113-28-6-113-36-189-66-157-60-173-84-197-310l-14-147-4 121zm-2212-1233c-4 62 97 346 159 454 62 105 199 225 259 225 18 0 6-14-28-32-143-74-243-225-334-511-30-95-56-155-56-137zm561 229c0 42 117 362 177 485 86 169 265 358 408 430 157 78 199 74 52-6-225-123-402-362-569-768-36-90-66-153-68-141zm513-306c-16 185 12 279 121 424 30 38 66 109 82 155l28 86-10-80c-8-44-42-127-80-181-115-169-131-227-117-410 6-90 6-163 0-163s-16 76-24 169zm-1120-529c147 153 251 239 358 300l151 86 125-42c68-24 111-42 92-44-18 0-72 14-119 30l-86 30-151-84c-95-54-205-143-294-233-78-80-175-171-213-201-38-28 22 42 137 159zm2582 269c-350 90-444 92-696 12-111-34-203-58-209-54-4 6 95 42 221 82 267 86 298 86 718-22 368-95 374-92 515 46 99 97 105 103 42 26-161-191-183-195-591-90zm-901-312c20 14 109 50 195 82 199 72 284 74 752 6 338-48 432-50 613-16l50 8-46-20c-109-46-314-44-678 8-450 64-487 64-684-6-88-30-179-64-201-70-38-14-38-14-2 8zm1731 734c8 22 36 109 64 191 62 183 84 525 48 734-36 201-12 181 38-34 54-227 46-418-26-629-42-125-157-366-125-261zm-838-203c-217 78-408 263-547 535-74 145-213 460-245 563-6 16 68-125 167-314 97-189 215-394 263-456 105-141 275-271 412-318 58-20 86-36 64-36s-74 12-115 26z"/>
   <path class="fil4" d="m4945 9124c-62 16-92 48-133 141-20 48-40 86-42 86-4 0-6-32-6-72 0-46-12-80-32-95-42-26-129-4-181 48-42 42-44 86-8 211 10 34-4 54-74 103-68 46-86 70-86 117v60l139 4c76 4 203 24 279 46 78 22 143 38 145 34 0-2 18-66 36-143 20-74 54-163 76-193 44-58 74-273 44-316-20-28-103-46-157-32z"/>
   <path class="fil6" d="m5242 9452c-125 119-131 153-52 326 52 119 52 123 16 149-20 16-76 28-123 28-109 0-165 46-181 153-14 88-22 76 197 265 115 99 235 153 292 131 16-6 38-34 48-60 18-48 30-50 131-12 38 14 183-165 219-273 40-125 32-171-52-275-88-111-139-225-139-326 0-113-24-155-103-183-107-36-145-26-253 78z"/>
   <path class="fil4" d="m4150 9797c-26 14-68 58-95 97-88 139-235 312-350 410-50 42-48 131 4 255 28 64 56 99 78 99 48 0 115 36 217 119 107 84 231 131 432 165 235 40 281-6 271-273-4-133-14-173-54-229l-48-66 34-145c34-147 26-231-26-263-12-6-22-38-22-68 0-32-12-66-24-78-44-34-360-48-418-20zm-261 617v217l-52-10c-38-6-64-32-90-92-46-103-48-163-6-197 18-14 56-50 86-78 28-30 54-54 58-56 2 0 4 97 4 217z"/>
   <path class="fil6" d="m8566 10009c-8 8-82 20-165 28-207 20-277 86-199 191 16 20 30 56 30 80 0 32 32 56 137 107 121 54 159 62 310 62 135 0 179-8 199-32 24-30 16-42-58-109-76-68-84-84-84-171 0-123-28-171-99-171-30 0-62 6-70 14z"/>
   <path class="fil4" d="m7669 10077c-26 12-64 34-84 52-26 24-56 28-119 18-97-16-179 24-179 86 0 20-18 60-40 88-76 97-72 155 18 269 62 76 109 113 179 137 52 18 115 42 141 52 30 12 76 10 127-2 42-12 149-24 235-28s185-20 215-34c163-80 169-241 12-350-48-32-131-103-181-155-52-52-127-109-167-127-86-34-88-34-157-8z"/>
   <path class="fil4" d="m4786 10413c-6 10 18 58 54 107 48 64 64 109 64 171 2 103 40 163 189 286 92 78 131 97 171 90 30-6 76 6 119 32 76 46 175 56 175 16 0-12-12-86-28-161-26-121-42-149-127-235-70-70-125-105-191-121-58-16-133-58-197-113-101-84-201-117-229-72z"/>
   <path class="fil4" d="m8455 10710c-48 40-64 72-74 149-12 90-22 105-99 149-46 28-97 64-111 82-68 82 107 213 322 241 60 8 163 32 229 54 123 40 213 36 253-14 16-20 12-48-16-115-22-48-46-109-54-137-38-121-179-386-225-422-70-54-151-50-225 12z"/>
   <path class="fil4" d="m8168 10831c-18 18-88 48-159 68-70 20-157 48-193 62-54 22-92 20-231-6-92-18-171-28-177-22-20 18 54 44 219 74 147 28 175 28 201 4 18-16 95-44 169-64 131-32 235-90 235-131 0-28-28-22-64 14z"/>
   <path class="fil4" d="m8182 11416c-6 30-48 95-92 141-129 141-97 259 111 400 32 20 80 54 111 74 28 18 99 48 157 66 97 28 111 28 175-2 78-38 199-175 241-273 40-95 8-163-113-251-84-62-123-76-233-86-95-10-163-30-227-68-50-30-97-54-103-54s-18 24-26 54z"/>
   <path class="fil2" d="m8524 11523c84 0 121 12 193 62 165 117 177 179 66 320-101 129-147 161-239 161-95 0-269-88-302-153-12-22-30-38-42-34s-50-20-86-52c-84-80-82-143 14-249 42-46 84-101 90-119 12-32 20-32 107 14 66 34 127 50 199 50zm-587-1303c58 58 149 135 201 171 109 74 135 143 86 219-44 64-109 88-249 88-64 0-143 8-175 18-78 22-344-10-400-48-22-16-70-68-107-115-72-88-72-127-4-215 22-26 38-64 38-84 0-50 54-74 143-64 56 8 95 0 143-32 36-22 101-42 143-42 62 0 90 16 181 105zm742-62c8 115 14 129 82 183 113 90 99 105-105 90-193-12-384-84-384-147 0-16-14-52-34-80-48-76-6-107 183-127 84-10 161-24 167-30 8-6 28-12 46-12 28 0 36 24 44 123zm537 354c46 46 82 103 90 141l10 64-92-28c-84-26-207-127-207-171 0-20 80-80 107-80 8 0 50 34 92 74zm-557 225c26 22 82 119 125 217 44 97 99 223 125 281 24 56 40 109 32 115-24 24-163 10-275-28-64-22-145-40-179-42-90 0-233-62-267-113-28-42-24-48 80-115 119-76 135-101 135-203 0-48 14-78 52-109 66-52 109-52 173-4zm-857 680c6 20 24 60 40 90 16 28 28 84 28 123 0 40 18 92 42 123l44 54-56 141c-36 92-76 157-121 195-36 30-103 99-145 155l-76 101-14-121c-20-181-22-597-2-643 18-44 207-245 233-249 8-2 20 14 26 32z"/>
   <path class="fil6" d="m3748 7672c0 60 64 131 123 131 42 0 159-101 159-137 0-10-48-24-105-32-169-20-177-18-177 38z"/>
   <path class="fil1" d="m3937 7662c76 0 76 0 48 44-46 70-127 92-177 46-22-20-40-54-40-76 0-30 10-36 46-26 24 6 78 12 123 12z"/>
   <path class="fil6" d="m5783 13614c0 38 4 54 10 34 4-18 4-50 0-70-6-18-10-2-10 36z"/>
   <path class="fil6" d="m5377 14378c16 10 40 20 50 20 12 0 6-10-10-20s-38-20-50-20c-10 0-6 10 10 20z"/>
   <path class="fil2" d="m10665 15393c0 28-8 50-20 50-10 0-20-22-20-50s10-50 20-50c12 0 20 22 20 50zm-1355-4484c58 34 103 48 137 38 121-30 181 84 396 726 84 255 86 267 86 523 0 245-4 277-74 507-105 344-135 503-149 770-12 271 24 525 101 688 34 76 141 203 366 436 173 183 340 366 368 408 52 80 48 123-6 76-18-14-38-20-46-12s8 34 36 54c137 107 181 147 181 163 0 30-237-161-298-239-30-38-68-90-88-113-18-24-38-38-46-32-6 8 38 88 101 179 60 92 111 173 111 181 0 10-24 22-52 28-64 16-143-50-223-183-48-84-141-167-185-167-40 0-24 32 30 62 28 14 80 68 115 119 32 50 88 121 121 155l62 66h-70c-36 0-95 14-129 32l-60 30-111-121c-97-107-181-163-243-163-46 0-12 40 52 60 48 16 111 70 191 167 115 135 121 149 121 249 0 129-36 159-229 193-121 20-139 18-233-26-101-46-103-50-90-119 16-105-12-179-133-346-58-82-109-153-111-157-4-2-16-2-28 2s32 82 101 177c111 155 121 181 121 273 0 74-12 119-42 157-76 97-149 121-370 121-235 0-390-32-460-99-28-26-92-74-139-109-109-74-201-179-257-288-34-66-40-111-34-221 4-88 0-135-14-131-10 4-22 32-26 60-4 30-14 54-22 54-24 0-95-84-135-161-54-101-50-458 8-754 34-173 44-292 44-543 0-390-12-424-227-649-213-223-215-239-38-495 76-113 155-237 171-279 18-40 40-74 48-74 68 2 456 80 473 97 14 14-2 80-54 207-62 153-70 193-52 231 34 76 107 62 197-38 42-48 99-99 125-113 44-24 46-34 34-145-16-129-12-131 88-95 58 18 70 18 95-14 14-22 26-82 26-137 0-117 95-314 185-382 157-121 177-141 177-177 0-22-14-68-32-105-26-48-30-95-22-207 10-115 6-169-26-261-36-105-38-189-6-189 8 0 52 22 99 50zm1118 4685c-26 56-70 78-197 99l-80 14v-101c0-97 2-103 50-103 28 0 88-18 133-38l80-36 18 58c12 38 10 74-4 107zm165-147c12 56 4 74-40 113-28 26-54 44-58 40-2-4-10-44-16-88-8-72-4-86 34-105 62-32 66-30 80 40z"/>
   <path class="fil4" d="m9378 12019c-40 125-42 163-30 458 10 223 6 340-10 382-14 38-14 52-2 40 42-42 56-207 36-446-16-215-14-259 22-400 22-88 36-163 34-165-4-4-26 54-50 131zm-121 3364c42 22 82 48 90 58 18 30-125 64-326 76-221 14-259 4-227-54 64-119 306-161 462-80zm-300-56c-92 26-147 64-189 135-38 66-34 70 111 92 133 20 499-52 499-99 0-32-119-107-211-131-95-26-117-26-209 2zm-1472-12722c-131 48-243 113-326 189-46 44-155 107-239 143-191 78-368 191-450 286-48 54-68 105-86 201-28 167-26 452 4 619 22 125 24 115 24-201 0-392 16-503 82-581 70-84 247-197 436-277 95-40 191-99 225-137 80-84 201-163 346-223 121-48 111-64-16-18zm-2829 1717c-36 22-22 90 16 95 18 0 20-2 6-6-32-12-34-50-2-82 28-28 18-30-20-6zm2537-115c137 147 253 257 275 257 18 0 111 28 203 64 141 52 193 62 328 60 88 0 189-10 221-20 42-14 0-16-143-8-193 10-211 6-422-66l-219-74-239-233-241-235 237 255zm754 8c-32 38-2 97 54 105 36 6 36 4 4-16-20-12-36-34-36-50s16-38 36-48c30-18 30-20 2-22-18 0-44 14-60 32zm1223-1854c101 36 219 90 263 121 99 68 173 203 223 402 50 201 101 296 185 344 68 38 68 38-14-40-64-62-92-109-117-201-92-340-103-362-181-448-95-103-131-125-344-193-225-74-237-62-16 16zm535 1777c16 26 109 137 205 247 187 217 360 358 531 434 175 78 320 185 374 273 28 46 50 74 50 62s-28-60-60-107c-62-86-213-195-350-251-175-72-354-227-674-585-60-66-95-101-76-74zm760 1703c-14 64-90 243-171 398l-143 281v223c0 143 14 279 38 380 44 199 62 193 20-6-32-155-42-491-18-593 8-34 62-151 121-261 105-197 203-468 187-515-4-14-20 28-34 92zm979 553c8 50 14 171 12 271-2 211-44 338-207 627-56 101-103 191-103 199 0 34 215-348 273-485 52-129 58-161 56-372 0-129-10-253-24-281-20-42-20-36-8 40zm-223 2513c-74 388-201 674-328 748-34 20-135 48-221 64-187 32-296 82-380 175l-60 66 78-66c109-90 217-137 374-153 251-28 356-129 460-446 60-179 131-513 119-553-4-10-24 62-42 165zm-5079-4096c-12 70-22 147-22 169 0 34-18 46-103 64-56 12-167 50-247 86-78 34-179 74-223 88s-62 26-40 26 95-22 161-50c123-52 296-113 398-137 42-10 54-6 54 20 0 16 22 97 48 175 38 115 50 197 56 400l8 255-62 10c-141 26-483 50-599 42-109-8-115-6-44 10 107 24 430 24 599 0 129-20 139-18 181 26 24 26 30 30 14 8-40-52-6-68 177-86 201-18 368 0 666 72 137 34 253 58 257 54 8-10-370-125-503-155-117-26-298-28-499-10l-153 14-14-64c-6-36-12-155-12-265 0-135-10-223-32-273-16-40-38-113-46-159-14-68-10-86 16-99 64-26 543-34 710-10 219 32 436 90 561 153 54 28 99 46 99 40s-56-38-125-70c-286-135-756-205-1078-163-105 14-191 22-195 18s0-74 12-155c22-187 10-209-20-36zm183 1584c-58 10-125 28-145 38-26 14-113 14-269-2-127-12-245-18-265-14-22 4 84 20 235 34 225 22 282 22 322 2 34-20 201-32 551-44 277-8 517-20 533-24 64-16-861-6-961 10zm1995-889c-125 72-290 221-432 390-86 101-66 86 105-78 115-113 267-241 338-288 149-95 141-111-10-24zm-30-464c-50 32-147 109-217 171-70 64-135 115-143 115-16 0-149 215-221 362-58 121-28 86 105-117 115-171 368-420 537-531 50-30 76-56 60-56s-70 26-121 56zm-3261 350c42 34 135 119 205 185 133 127 135 92 6-54-70-76-233-195-269-195-10 0 16 28 58 64zm-84 265c44 42 129 121 189 179 86 82 101 90 68 40-20-34-90-105-157-159-161-129-199-151-101-60zm-668 643c-103 207-269 320-529 354l-151 18 157-8c183-8 342-72 426-175 56-66 159-255 147-269-6-4-28 32-50 80zm-1645 215c34 26 103 86 153 137 80 80 95 107 105 201 8 70 28 125 56 155 66 70 225 129 414 151 185 20 269 56 310 133 14 24 28 42 34 36 18-18-58-111-117-141-32-16-129-40-215-50-187-26-308-66-388-133-46-40-60-72-70-165-14-103-24-123-111-205-52-50-127-107-163-127l-68-36 60 44zm1456-3507c-169 173-203 221-288 400-117 249-131 352-84 621 42 243 32 308-78 535-66 135-92 219-111 354-12 97-36 231-50 298-52 239-52 296-12 452 36 129 38 169 20 277-12 70-18 131-14 137 6 4 20-54 32-131 20-113 18-155-6-235-40-133-38-286 8-523 20-109 48-261 60-338 14-84 54-197 105-294 103-201 115-304 68-573-44-255-32-334 101-613 76-163 115-215 275-376 103-103 181-187 177-187-6 0-97 88-203 195zm1319-444c-243 86-466 133-589 121l-115-10 109 22c82 18 139 16 231-2 175-36 607-185 525-181-10 0-82 24-161 50zm44 195c167 92 267 175 328 269 36 60 74 88 143 113 125 44 261 193 318 348 28 70 52 199 62 320l16 201-4-241c-2-213-10-255-54-352-72-155-143-231-275-296-68-32-157-101-219-169-58-62-157-139-221-173-163-86-243-105-92-20zm-99 9474c-24 320-20 370 42 527 78 191 92 217 193 348 111 143 135 189 163 322 18 82 26 95 26 48 4-99-52-229-151-360-201-265-235-372-249-764l-10-322-14 201zm-356 1285c209 82 422 219 615 400 72 68 123 107 111 84-12-24-92-111-181-195-171-163-382-284-537-306l-80-12 72 28zm-243 678c-195 107-523 314-523 334 0 4 88-36 195-95 247-133 573-344 525-342-4 0-92 46-197 103zm432 159c-22 8-62 38-88 66-36 40-105 66-316 117-147 36-263 70-259 76 20 18 573-127 573-151 0-34 99-95 181-111 68-12 68-14 10-14-32-2-78 6-101 16zm770 123c-92 22-253 101-477 237-269 163-495 233-857 263l-201 18 271-6c245-6 292-12 466-72 129-42 257-107 380-185 247-161 362-215 509-247 92-20 105-26 52-26-38 0-105 8-145 18zm2417-179c-121 211-107 302 64 460 103 97 127 129 137 201l14 88 4-88c2-84-4-97-117-201-64-62-129-135-143-161-32-62-10-169 62-300 32-56 54-105 48-105-4 0-36 48-70 105zm535-225c30 177 133 625 169 734l38 121-10-111c-14-129-161-734-189-782-14-22-16-12-8 38zm308-131c46 92 495 611 513 591 6-4-52-84-129-179-161-201-412-471-384-412zm-306-483c-64 16-167 54-229 84-115 56-332 239-372 314-10 22 12 8 50-32 243-241 581-370 929-352 86 4 137 0 119-10-56-32-376-34-497-4z"/>
   <path class="fil6" d="m9740 15423c-22 22-40 62-40 90 0 46 8 50 86 50 76 0 255-62 255-90 0-6-30-28-64-50-86-52-185-52-237 0zm201 10c34 18 60 36 60 42 0 22-143 68-211 68-80 0-95-40-36-105 40-44 109-46 187-6z"/>
   <path class="fil1" d="m9941 15433c34 18 60 36 60 42 0 22-143 68-211 68-80 0-95-40-36-105 40-44 109-46 187-6z"/>
   <path class="fil1" d="m9258 15383c42 22 82 48 90 58 18 30-125 64-326 76-221 14-259 4-227-54 64-119 306-161 462-80z"/>
   <path class="fil2" d="m4995 10525c64 56 139 97 197 113 113 26 286 191 286 269 0 26 10 74 22 111 12 36 16 70 10 76-8 8-52-6-101-28-48-24-119-50-159-56-84-16-259-165-296-251-18-44-20-74-6-107 16-36 8-58-50-131-92-115-40-113 97 4zm-664-2186c84-32 143 2 169 99 16 54 40 88 82 109 60 30 66 46 70 203 4 76-74 219-229 426-72 99-137 199-141 221-6 24-16 78-22 119-8 56-32 90-84 131-40 32-117 97-171 145l-97 88-4-78c0-44 0-92 2-109 4-16 8-117 12-221 4-105 16-217 28-247 12-32 22-123 22-205 0-125 12-173 72-314 72-173 145-306 173-316 8-4 16-22 16-40 0-22 6-26 22-10s38 16 78 0zm732 945c-2 64-18 129-44 171-22 36-54 117-74 177s-38 113-40 115c-2 4-78-14-171-36-99-26-199-38-245-32-105 14-101-26 10-101 88-62 103-105 66-231-20-66 46-143 115-133 36 4 44 20 44 76 0 101 24 133 70 90 20-18 42-58 50-86 22-88 70-127 149-121l72 6-2 105zm408 129c72 28 86 50 86 159 2 109 52 227 143 332 80 90 86 177 22 302-60 121-131 179-195 163-68-18-131 2-131 40 0 16-14 34-30 40-54 22-149-28-282-147-117-105-131-125-131-191 0-86 38-117 145-117 86 0 165-40 173-88 4-22-16-90-46-155-68-141-58-183 62-286 101-82 103-82 183-52zm-933 434c8 4 14 30 14 58s18 74 40 105c40 54 40 58 6 201l-34 145 56 113c50 97 56 129 48 251-12 205-28 217-261 171-195-36-255-62-394-161l-86-62 8-277c6-263 10-277 58-332 28-30 66-82 84-119 56-111 101-131 284-115 88 8 167 16 177 22zm360 1076c141 171 141 189 54 473-60 193-66 203-117 201-46-4-52 4-54 70-6 215-181 187-448-72-84-80-183-163-219-183-64-32-68-36-50-107 8-40 14-135 12-211-4-117 0-135 30-135 72 0 169 40 235 99 38 32 101 68 139 78 38 12 109 48 159 82 88 60 90 60 125 22 32-36 34-50 10-119-20-64-20-97 2-181 14-56 32-103 40-103 6 0 44 38 82 84z"/>
  </g>
 </g>
</svg>
