<?xml version="1.0" encoding="UTF-8" standalone="no"?>
<!DOCTYPE svg  PUBLIC '-//W3C//DTD SVG 1.1//EN'  'http://www.w3.org/Graphics/SVG/1.1/DTD/svg11.dtd'>
<!-- Creator: CorelDRAW X5 -->
<svg style="shape-rendering:geometricPrecision;text-rendering:geometricPrecision;image-rendering:optimizeQuality" xmlns="http://www.w3.org/2000/svg" fill-rule="evenodd" xml:space="preserve" height="500px" width="500px" clip-rule="evenodd" xmlns:xlink="http://www.w3.org/1999/xlink" viewBox="0 0 12764 16208">
 <defs>
  <style type="text/css">
   <![CDATA[
    .str0 {stroke:#996633;stroke-width:3}
    .fil5 {fill:black}
    .fil9 {fill:rgb(39, 39, 39)}
    .fil1 {fill:#336666}
    .fil8 {fill:#777777}
    .fil7 {fill:#868686}
    .fil4 {fill:#AB6E32}
    .fil0 {fill:#DEA062}
    .fil2 {fill:#FF0066}
    .fil3 {fill:#FFFF66}
    .fil6 {fill:white}
   ]]>
  </style>
 </defs>
 <g id="Layer_x0020_1">
  <g id="_288062024">
   <path class="fil0" d="m11414 13849c157 178 40 134 133 149 59-77 0-118-53-179-255-292-543-190-606-280 87-83 345 21 436 67 186 95 199 152 286 236-41-217-359-345-630-395-491-91-1168-27-1437-115-232-76-370-845-399-1055-559 46-820 41-1360-129-169-53-673-254-842-342-91-47-161-105-252-141-77 90-172 161-193 350-30 270 185 700 325 926 27 43 86 100 68 153-4 1-10-1-11-1l-34-12c-27-14-11-11-37-26-52-29-57-26-119-37-274-48-1094-190-1307-194-180-4-317 31-400 157 125-53 170-99 336-117 68-8 142-9 210-4 184 14 126 43 121 84-165-20-294-36-454 12-123 37-278 108-217 249 59-11 27 0 87-54 247-224 614-235 723-134-39 63 4 38-82 31-250-21-425-49-639 202 200 110 1138 129 1415 136 711 18 628 27 838-659-85 7-148 41-201 12 21-76-34-27 67-61l282-45c259-37 974-93 1202 3 87 37 31-12 60 50-45 27 11 32-157-3-68-14-131-21-199-29 28 57 21 41 79 94l505 458c108 94 255 263 275 279 83 67 1157 370 1308 414 232 69 684 269 906 147-41-273-411-332-725-348 5-65-52-94 255-47 164 25 328 79 436 201z"/>
   <path class="fil0" d="m5516 7082c-238-234-428-182-303-679 54-215 64-215-60-354-337-378-1677-993-1839-581-65 165 104 679 160 821 102 261 249 461 416 619 454 430 1032 324 1627 175z"/>
   <path class="fil0" d="m4112 9798c-56 323 251 342 533 420 23-55 52-108 85-109 18 25 75-26-34 145-84 132-182 335-232 490-88 275-117 586 112 719-3-243 114-865 301-913 51 108-202 260-232 756-14 229-11 425 288 354-10-255-9-450 106-699 134-290 350-355 182-161-46 53-71 88-106 155-127 250-123 444-121 704 204-3 232-27 319-161 341-531 320-426 646-841 150-191 300-429 74-648-195-188-547 17-675 111-11-12-23-23-39-41 53-46 74-60 142-98 67-37 116-47 165-95-91-45-190-132-337-126-108 4-231 66-379 75-343 22-422-185-774-165l-24 129zm1469-15c20 11 103 76 114 80 44 15 125-3 183 2 86 8 159 49 218 106l59 59c8-154-63-208-189-246-97-30-289-54-385-1z"/>
   <path class="fil0" d="m11151 9317c-152-55-518-129-627 31l-26 252c153 22 271 42 394 111 130 73 322 258 235 279-40 10 2 34-95-79-41-48-73-82-135-122-117-75-262-108-418-123-28 110-59 201-111 295s-161 179-132 272c102 332 798 444 1031 661 105 98 314 377 502 368 175-235-96-543-241-700-48-52-177-112-175-202 107 12 309 239 356 304 160 218 106 210 191 471 434 57 137-533-106-768-65-62-177-157-232-222 50-40 13-68 184 83 69 61 95 103 153 167 214 239 155 236 243 356l23 27c15-285-258-557-392-693-45-46-88-66-136-122-47-56-64-117-105-169-133-170-253-217-244-272 3-2-4-40 81 10 45 26 30 34 90 61 80-61 149-121 182-246 29-110 22-289-38-362-161-196-271 151-448 333z"/>
   <path class="fil0" d="m476 6240c167 224 370-6 982 586 827 800 815 2545 1787 4225 734 1269 1830 1456 3264 1426-4-105-73-241-83-415-500 45-762 137-1318 40-441-77-775-259-1066-487-1189-932-1370-2814-1873-4048-280-685-881-1383-1693-1327z"/>
   <path class="fil1" d="m6488 4100c107 26 296-14 419-17 270-7 589 20 835 132 188 86 231 155 307 197 112-209 303-461 244-786-50-274-287-446-613-354-381 108-626 403-909 613-68 50-233 156-283 215zm-1672 1243c91-285 83-446 240-706 328-543 783-736 1409-845 117-21 298-25 393-59-11-83-483-508-544-570l-572-549 32 228c-573-40-846-291-922-321-313-122-890 462-1062 890-54 134-175 536-138 683 16 65 1110 1163 1166 1248zm69 55l437 41c84-184 163-344 258-506 63-108 100-109 119-254 39-299 226-571 536-598 312-26 244-85 489-253-621 2-1320 309-1631 873-101 183-188 460-208 697z"/>
   <path class="fil2" d="m3617 1397c25 147 301 377 417 481 135 121 359 27 638 140 106 43 47-1 70 58-97 56-460-156-673-33 35 126 220 193 359 252 134 57 328 141 469 171 0-253 168-208 335-248 6-1 11-3 17-4 5-1 12-4 16-5l31-13c-71-190-308-492-523-543 51 50 111 108 151 162 111 148 86 109 60 132-50 45 3 47-194-176-222-251-954-520-1175-373z"/>
   <path class="fil3" d="m8456 10434c6 307-14 170-45 376 155 170 351 365 689 270 220-62 478-271 546-502-17-30-22-39-42-68l-60-67c-403 433-861 96-1088-9z"/>
   <path class="fil4" d="m6648 4172c161 96 361 246 458 365 66 81 112 123 193 212 38 42 150 197 171 251l342-106c-65-117-114-192-176-322-178-366-34-414-559-426-141-3-305-12-428 25zm-1248 1274c75 10 168 5 222 39-35 81-76 42-315 18-266-26-918-104-1105-100 452 280 518 108 1062 671 29 30 3 9 40 36 23-61 43-120 68-186 43-115 26-157 124-139-68 200-361 824-215 1017 138 182 595 419 926 439 212 13 340-75 491-76-319-50-572-19-832-196-717-488 18-1305 23-1326 16-62-83-267-109-353-35-117-45-291-94-401-90 122-231 392-286 557z"/>
   <path class="fil5" d="m7993 6794c75-135 168-260 283-349l-421 82c-1-105 6-245-21-320-114-30-240-44-359-81-120-36-231-88-344-119 110 209 121 158 187 400 31 115-10 63 108 106 139 50 147 62 311 105 137 36 190 105 256 176z"/>
   <path class="fil3" d="m5833 8726c413 25 704-276 927-555 53-67 198-232 164-329-148-33-420 259-583 380l-416 327c-77 62-72 55-92 178z"/>
   <path class="fil6" d="m6265 4966c78-96 159-84 249-4 85 76 103 134 156 265 86-8 251-31 323-65-88-277-570-923-750-619-69 116-4 305 21 424z"/>
   <path class="fil3" d="m8651 8921l-327-63-26 270c386 138 549 167 917-30-31-66-88-150-140-256-84 46-299 106-425 79z"/>
   <path class="fil2" d="m5687 2768c2-458-381-580-664-444-54 26-182 183 160 310 146 55 346 106 505 133z"/>
   <path class="fil3" d="m5839 8792c150 427 1223-363 1181-859-65 36-17-2-65 72-189 288-387 540-700 711-140 77-238 83-416 77z"/>
   <path class="fil3" d="m8212 10911c103-53 170-172 181-343 10-171-34-272-139-357-253 125-285 579-42 700z"/>
   <path class="fil2" d="m7682 6680c28 53 87 125 45 187-101-34-11-61-143-191-61-60-130-85-216-116 18 183 167 525 342 519 88-3 239-126 230-212-8-82-145-178-258-187z"/>
   <path class="fil3" d="m8266 7524c104 70 357 155 489 190 236 64 367 86 570 8-47-64-121-90-199-115-158-50-396-79-561-92-178-14-246-24-299 8z"/>
   <path class="fil3" d="m8140 9248c184-183 148-604-41-699-64 79-131 230-130 367 1 144 65 302 170 332z"/>
   <path class="fil3" d="m9385 7762c-520 188-682-35-1159-168-18 81-1 83 48 123 260 214 1129 364 1110 45z"/>
   <path class="fil3" d="m8068 9305c-57-83-134-123-160-335-23-188 51-285 107-433-332 75-291 874 53 768z"/>
   <path class="fil3" d="m9920 10527c83-235-8-495-154-576-150 174 27 509 154 576z"/>
   <path class="fil0 str0" d="m7858 4336c-122-69-178-89-297-118 28 145 171 415 258 554 47 75 45 108 172 99-135-209-269-504-133-536z"/>
   <path class="fil3" d="m9455 9062c177-149 11-504-113-535-109-27-28 212-12 271 32 117 44 209 125 264z"/>
   <path class="fil1" d="m8340 7094c23-23 5-43 0-39-50-57-118-96-164-150-100 55-111 100-174 208-97 166-103 95-49 273 62-37 100-112 145-164 47-55 150-111 243-128zm-1778 4596c82-48 39-9 77-85l-145-59c13 80 25 96 68 144zm-209-4323c5 132 166 228 281 292 122 69 338 91 412 200 209 308-437 981-880 1097-208 54-204 117-458 416-83 98-213 226-279 343 369-7 597-65 883 166 324 262 74 489-67 723 192-39 531-383 690-553 375-401 587-536 623-1095 6-97-47-294-22-341 34 7 62-66 85 183 19 211-54 588-145 747-52 90-301 344-403 456-51 56-99 97-147 153-164 190-64-1-254 329-74 128-138 264-190 399-84 218-242 744 15 921 46-118-108-141-60-312 154-17 276 96 392 172 277 182 987 444 1308 515 482 106 1042 89 1486-122l375-208-134-1187-165-33c-85 233-328 436-568 511-446 140-670-206-771-278-150 297-549 151-534-285 13-382 356-643 563-318 125 198 544 389 823 312 132-36 307-128 298-272-18-275-47-290 138-447-22-106-217-632-280-690-122-70-201 100-499 135-269 32-379-49-597-103-76 90-96 172-234 189-340 40-416-601-176-835 288-281 458 214 472 227 144 124 570 91 719 4 19-45 42-164 55-231 15-73-46-121-91-176l-205-224c-20-22-27-12-34-58 0-3 1-11 1-13s1-9 2-14c61-7 162 121 211 170 75 77 114 146 186 237 240-125 453 224 415 483-23 155-125 186-126 228 67 194 144 377 219 574 84 221 165 70 278 339 21 49 30 104 62 145 274-181 435-507 434-977-30-29-467-294-768-601-48-49-76-67-122-115l-334-349c-156-160-137-182-273-192-242-18-599-86-730-244-5 3-11 3-14 10l-73 42c-63-244 152-452 215-655-144-7-284 171-330 266-32 65-9 298-322 319-373 24-273-507-708-538-216-15-536 47-649 166zm-304 3290c140-30 598-545 169-751 12 129-6 109-20 216-9 72 26 114 15 206-14 114-117 241-164 329z"/>
   <path class="fil3" d="m9856 10587c-138-229-244-196-174-662-223 56-144 656 174 662z"/>
   <path class="fil3" d="m8121 10951c-196-218-183-520 19-764-303 64-356 691-19 764z"/>
   <path class="fil3" d="m9364 9088c-56-155-158-351-135-565-102 57-116 190-75 330 38 127 89 202 209 235z"/>
   <path class="fil6" d="m8266 6390c110-18 114-40 172-103 68-72 79-60 130-163-215 48-205 103-303 266zm-361-172l-8 252c77-12 210-16 271-53 53-32 133-158 154-221l-417 22z"/>
   <path class="fil0" d="m7814 4958c37 9 408 53 441 34 75-44 12-2 47-67-95-6-484 34-489 33zm-1785 1483c-10-75 4-63 56-100 47-34 52-36 95-75l207-153c268-180 1199-733 1459-559-59 40-144 21-278 48-621 126-1067 492-1539 840zm-35-699c66-101 746-262 840-285 311-75 643-113 977-93-24 61 11 42-103 41-354-3-516 20-874 98-233 51-437 121-654 195-42 14-73 28-109 41-70 25-32 25-77 4zm371-363c-83-185-158-339-199-554-44-230 15-487 285-413 319 87 508 567 613 727 58 88 58 35 73 94-59 32-195 3-283 20-329 64-506 284-601 282-2-84 56-68 112-156zm1569 2186c2-94-34-159-69-233-322 188-478-43-737-314-38-40-167-181-182-208 86-57 83 10 159 87 186 187 356 416 531 440 218 29 301-272 451-490 94-136 81-150 155-150 26 56 3 56-39 111 210-104 592-385 695-639 48-118 77-262 67-398-51 58-70 100-125 151-307 285-128 154-253 306-46 56-87 105-134 144-106 88-190 176-280 276-185 203-61 147-225 360-216 281-462 115-596-249-117-320-47-365-266-691-40-59-31-55-77-83-51 32-204 241-162 78 12-46 114-128 146-154 41-33 138-101 188-108 115-16 41-7 71 16-34 67-71 41-144 93 363 241 1405 438 1776-143 132-206 140-409 31-617-26 40-28 84-54 136-31 64-56 78-83 133-115-15-268-68-366-105-158-59-243-65-205-253-183-21-434-48-608-19-107 18-129 56-209 91-29 13-69 41-64-16 4-52 19-27 85-82-93-225-800-1084-1318-847-438 200-361 802-208 1209 84 224 137 209-3 373-476 558-302 1180 465 1294 303 45 780-7 971 208 78 88 256 636 615 292z"/>
   <path class="fil7" d="m10255 4442l81-14c-34-68-23-65-83-32h67c-5 3-12 3-15 11l-49 35z"/>
   <path class="fil8" d="m9176 8035c30-53-32 0 32-45l-57 9c-11 72-7 4 25 36z"/>
   <path class="fil6" d="m7827 4355l-24 46c-3 25-6 26 11 121l52 91c289 6 230 124 303 244 40-59-29-238-67-294-16-79-237-279-274-208z"/>
   <path class="fil9" d="m6689 11665c90 37 161 94 252 141 168 88 672 289 842 342 541 170 801 175 1360 129 30 210 167 979 399 1055 269 88 947 24 1437 115 271 50 590 179 630 395-87-84-100-141-286-236-91-46-349-150-436-67 63 90 351-13 606 280 53 61 112 102 53 179-93-14 25 29-133-149-108-122-272-176-436-201-307-47-250-18-255 47 314 16 684 75 725 348-222 123-674-78-906-147-151-45-1224-347-1308-414-20-16-167-185-275-279l-505-458c-59-52-51-36-79-94 68 8 131 15 199 29 168 35 112 30 157 3-29-62 27-13-60-50-228-96-943-40-1202-3l-282 45c-101 34-46-15-67 61 54 29 117-5 201-12-210 687-127 677-838 659-277-7-1215-26-1415-136 213-251 389-223 639-202 86 7 43 32 82-31-109-101-476-89-723 134-60 54-28 43-87 54-62-141 93-212 217-249 160-48 289-32 454-12 5-42 62-71-121-84-68-5-142-3-210 4-166 19-210 64-336 117 82-125 219-160 400-157 213 4 1033 146 1307 194 62 11 67 8 119 37 27 15 11 11 37 26l34 12c2 1 8 2 11 1 18-53-42-110-68-153-141-226-355-656-325-926 21-189 117-260 193-350zm-424-6699c-25-119-90-308-21-424 180-305 662 341 750 619-73 34-237 58-323 65-53-131-72-189-156-265-90-80-171-92-249 4zm-236 1476c472-348 918-714 1539-840 134-27 219-8 278-48-260-174-1192 379-1459 559l-207 153c-43 39-48 41-95 75-52 37-66 25-56 100zm-35-699c45 21 7 21 77-4 36-13 67-26 109-41 217-74 422-144 654-195 358-78 520-101 874-98 114 1 79 20 103-41-335-20-666 18-977 93-94 23-774 183-840 285zm371-363c-56 89-114 72-112 156 96 1 272-219 601-282 88-17 224 12 283-20-16-59-16-6-73-94-104-159-293-640-613-727-270-74-329 184-285 413 41 215 116 369 199 554zm1439-1001c1-2 6-12 12-20 8-13 22-12 28-26-97-33-161-78-280-109 28 145 168 410 255 549 47 75 45 108 172 99-53-67-153-233-180-341-8-25-11-48-14-79-2-13-1-31 0-47 0-2 0-4 1-7v-1c1-4 2-8 5-13zm21-9c-2 1-11 9-13 22 0 1-1 4-1 5-6 80 11 152 54 217 289 6 230 124 303 244 99 2-30-243-67-294-56-114-184-247-275-194zm-1263 7321c-43-48-55-63-68-144l145 59c-37 76 6 37-77 85zm1649-780c-243-121-211-575 42-700 105 85 149 186 139 357s-78 290-181 343zm244-476c227 106 685 442 1088 9l60 67c20 28 25 38 42 68-68 231-327 440-546 502-339 95-534-100-689-270 31-207 51-69 45-376zm-2406 223c47-87 151-214 164-329 11-92-23-134-15-206 13-107 32-87 20-216 429 206-29 721-169 751zm2072 294c-337-74-284-700 19-764-202 244-215 546-19 764zm1798-424c-127-67-304-402-154-576 145 81 237 341 154 576zm-5784-857c352-20 431 187 774 165 147-9 270-70 379-75 147-6 246 81 337 126-48 48-98 58-165 95-68 38-89 51-142 98 16 18 28 29 39 41 128-94 480-299 675-111 227 218 76 457-74 648-326 415-305 310-646 841-86 134-115 158-319 161-2-260-6-454 121-704 34-68 59-102 106-155 169-193-48-129-182 161-115 249-116 444-106 699-299 72-302-124-288-354 30-496 283-649 232-756-187 48-304 670-301 913-229-133-201-444-112-719 50-155 148-358 232-490 109-171 51-120 34-145-33 1-61 54-85 109-282-78-588-97-533-420l24-129zm1743 196c-57-5-139 13-183-2-11-4-94-69-114-80 95-53 287-29 385 1 126 38 197 92 189 246l-59-59c-59-56-132-98-218-106zm3978 721c-318-6-397-606-174-662-70 465 36 433 174 662zm1294-1270c177-182 286-529 448-333 60 73 67 251 38 362-33 125-102 186-182 246-60-26-45-34-90-61-85-49-77-12-81-10-9 54 111 102 244 272 41 52 58 113 105 169 47 57 90 76 136 122 135 137 407 409 392 693l-23-27c-87-120-29-117-243-356-57-64-84-106-153-167-171-151-134-123-184-83 55 66 167 160 232 222 243 235 540 825 106 768-85-261-31-252-191-471-48-65-249-291-356-304-1 90 127 150 175 202 145 156 416 465 241 700-187 10-397-270-502-368-233-217-929-329-1031-661-28-93 80-177 132-272 52-94 83-185 111-295 156 15 301 48 418 123 63 40 94 74 135 122 97 113 55 88 95 79 87-21-105-206-235-279-123-69-242-89-394-111l26-252c109-160 475-86 627-31zm-2499-396c126 27 341-33 425-79 52 106 109 191 140 256-368 196-531 167-917 30l26-270 327 63zm-511 327c-105-30-169-189-170-332-1-136 65-287 130-367 189 95 225 516 41 699zm1224-160c-120-33-172-108-209-235-41-140-28-272 75-330-24 213 78 410 135 565zm-33-290c-16-60-97-299 12-271 124 31 290 386 113 535-81-54-93-147-125-264zm-1262 507c-344 106-386-693-53-768-55 148-129 245-107 433 26 212 103 252 160 335zm-2230-514c178 7 276 0 416-77 313-171 511-423 700-711 48-74 0-35 65-72 42 496-1032 1287-1181 859zm-5-66c21-122 15-115 92-178l416-327c163-120 435-413 583-380 34 97-110 262-164 329-223 279-514 580-927 555zm2392-1131c477 133 639 355 1159 168 19 319-850 169-1110-45-49-40-67-42-48-123zm40-70c53-32 121-22 299-8 165 13 402 42 561 92 78 25 153 51 199 115-203 78-334 56-570-8-132-36-385-120-489-190zm-1912-157c114-119 433-181 649-166 435 31 335 563 708 538 312-20 290-253 322-319 46-95 186-273 330-266-63 203-278 411-215 655l73-42c3-7 9-7 14-10 131 158 488 226 730 244 136 10 118 32 273 192l334 349c45 48 74 66 122 115 301 307 738 572 768 601 1 470-161 796-434 977-32-41-41-96-62-145-112-269-193-118-278-339-75-197-152-380-219-574 2-42 103-73 126-228 38-259-175-608-415-483-72-90-111-160-186-237-48-49-149-177-211-170-2 4-2 11-2 14 0 2-1 10-1 13 7 46 14 37 34 58l205 224c45 55 106 103 91 176-14 67-36 186-55 231-149 87-574 121-719-4-14-12-184-507-472-227-240 234-164 875 176 835 138-16 159-99 234-189 219 54 329 135 597 103 297-35 377-205 499-135 63 58 258 584 280 690-185 157-156 171-138 447 9 144-166 235-298 272-279 77-697-114-823-312-207-326-550-64-563 318-15 436 384 582 534 285 101 71 325 417 771 278 240-75 483-278 568-511l165 33 134 1187-375 208c-443 210-1004 227-1486 122-322-71-1031-333-1308-515-115-76-238-189-392-172-47 171 106 194 60 312-256-178-98-704-15-921 52-135 117-271 190-399 190-330 89-138 254-329 48-56 96-97 147-153 103-111 351-366 403-456 91-159 164-536 145-747-23-248-51-176-85-183-25 47 28 244 22 341-36 559-247 695-623 1095-159 170-498 514-690 553 141-235 391-461 67-723-286-231-514-173-883-166 66-117 196-246 279-343 254-299 250-362 458-416 443-115 1090-788 880-1097-74-109-289-131-412-200-115-64-276-160-281-292zm1959-314c28 29 34-31 23 32l-47 14c-93 18-144 69-191 124-45 52-83 127-145 164-54-178-48-108 49-273 63-108 75-153 174-208 46 54 87 90 137 147zm-6855-228c-611-591-815-362-982-586 812-56 1413 642 1693 1327 503 1233 684 3115 1873 4048 291 228 625 410 1066 487 556 97 817 5 1318-40 10 174 78 310 83 415-1433 30-2530-157-3264-1426-972-1681-959-3425-1787-4225zm6270 42c42-62-16-134-45-187 113 9 250 104 258 187 9 86-142 209-230 212-175 6-324-335-342-519 85 31 155 57 216 116 133 130 42 157 143 191zm596-671c-21 62-101 188-154 221-61 37-194 41-271 53l8-252 417-22zm-56 194c98-163 88-218 303-266-51 104-63 91-130 163-59 63-62 85-172 103zm-273 404c-66-71-118-141-256-176-163-43-172-54-311-105-119-43-77 9-108-106-66-242-77-191-187-400 112 31 224 83 344 119 119 36 245 51 359 81 27 75 20 216 21 320l421-82c-115 90-208 214-283 349zm-2477 287c-595 150-1173 256-1627-174-166-158-314-357-416-619-55-141-225-655-160-821 162-412 1501 203 1839 581 124 138 114 139 60 354-125 497 66 445 303 679zm264-1791c26 86 125 291 109 353-5 20-739 837-23 1326 260 177 513 145 832 196-151 2-279 89-491 76-331-20-788-257-926-439-146-193 147-817 215-1017-98-17-81 25-124 139-25 66-46 125-68 186-37-27-11-6-40-36-545-562-610-390-1062-670 187-4 839 74 1105 100 239 23 280 63 315-18-54-33-147-29-222-39 55-165 196-435 286-557 49 111 59 284 94 401zm1068 773c-43 163 111-47 162-78 46 28 37 24 77 83 220 327 149 371 266 691 133 364 379 531 596 249 164-213 39-157 225-360 91-99 174-187 280-276 47-39 88-88 134-144 124-152-54-21 253-306 55-51 74-93 125-151 10 136-19 281-67 398-103 254-484 535-695 639 42-55 64-55 39-111-74 0-61 14-155 150-150 218-232 520-451 490-175-24-345-252-531-440-76-77-73-144-159-87 15 27 143 168 182 208 259 270 415 501 737 314 34 75 71 139 69 233-359 344-538-204-615-292-192-215-668-164-971-208-767-113-941-735-465-1294 140-164 87-150 3-373-154-407-230-1009 208-1209 519-237 1225 622 1318 847-66 55-81 30-85 82-4 58 35 29 64 16 80-35 101-73 209-91 174-29 425-2 608 19-37 188 47 194 205 253 97 36 251 90 366 105 27-55 53-70 83-133 26-53 28-96 54-136 109 208 100 411-31 617-371 581-1412 384-1776 143 73-52 110-25 144-93-30-24 44-32-71-16-50 7-147 75-188 108-31 26-134 108-146 154zm966-1105c4 2 394-38 489-33-35 65 28 23-47 67-33 19-404-25-441-34zm-180-385c63 130 112 205 176 322l-342 106c-21-54-133-209-171-251-81-89-127-131-193-212-97-119-296-269-458-365 123-37 287-29 428-25 525 12 381 60 559 426zm-1147-473c50-58 215-165 283-215 283-210 527-505 909-613 326-92 563 80 613 354 59 325-132 578-244 786-76-42-120-112-307-197-246-112-565-140-835-132-123 3-312 44-419 17zm-1602 1298c20-238 107-514 208-697 311-563 1010-870 1631-873-245 168-177 227-489 253-310 26-497 298-536 598-19 145-56 147-119 254-95 162-174 323-258 506l-437-41zm-69-55c-55-85-1149-1183-1166-1248-37-148 85-549 139-683 172-428 749-1011 1062-890 77 30 349 281 922 321l-32-228 572 549c61 62 533 487 544 570-95 34-276 38-393 59-625 109-1080 302-1409 845-157 260-150 421-240 706zm870-2575c-159-27-359-79-505-133-342-128-214-284-160-310 283-137 666-14 664 444zm-1015-750c-279-113-503-18-638-140-116-104-391-334-417-481 221-147 953 122 1175 373 197 222 143 220 194 176 26-23 51 16-60-132-40-53-100-112-151-162 214 50 451 352 523 543l-31 13c-5 1-11 4-16 5s-11 3-17 4c-167 40-335-4-335 248-141-30-336-114-469-171-138-59-324-126-359-252 213-123 576 89 673 33-23-59 37-15-70-58zm4504 6017c-32-32-36 36-25-36l57-9c371-34 300-313-10-425-305-110-578-91-898-132 33-52 135-228 129-298-8-88-142-220-189-253 136-134 432-254 636-533 92-126 140-291 155-466l24-555c205-105 941-190 1220-194 103-2 400 49 454 16-231-198-1407 82-1698 120l-60-160c204-181 823-696 1284-667l49-35c3-8 10-8 15-11h-67c-496-20-1081 488-1316 677-105-167-420-184-669-214-70-187-70-248-180-382 103-189 237-353 273-624 106-798-711-808-1187-380-84 75-146 140-246 197-80-99-322-303-427-410l-536-532c-48-46-57-49-109-106-71-77-138-106-207-219-155-251-184-19-327-316-27-56-56-96-88-144-98-147-253-293-481-381-189-73-457-181-656-226-1048-236-267 514-66 608-60 365 255 294 588 508-171 156-376 150-696 585-181 247-319 608-340 978-10 180 160 297 247 382 217 212 407 444 624 657 94 92 220 220 301 328-262-16-560-52-825-80-560-60-900-124-570 863 228 684 660 1173 1539 1112 251-18 595-148 682-155 29-2 339 177 723 184-110 251 311 389 445 489-144 138-327 259-481 388-96 81-431 313-469 403-35 85-49 190-11 266 35 71 119 85 167 142-121 73-425 485-558 640-59 69-20 46-125 61-191 27-366 117-585 54-176-51-333-198-579-137-90 124-74 359 17 472 75 92 336 147 473 186-113 292-361 652-232 1033 51 150 139 170 215 273 40 54 23 55 72 98 100 88 408 66 536 22 142-49 382-499 592-719 211-222 74-208 380-277 247-56 276-107 424-214-85 257-211 416-270 727-29 150-38 316 11 450 79 219 141 115 110 324-991 158-1695 130-2393-456-1549-1300-1247-3956-2504-4980-138-113-302-217-495-286-175-63-494-150-648-68-41 357 946 8 1567 1572 132 333 244 802 351 1162 115 392 253 775 394 1142 295 769 693 1478 1229 1876 914 679 1611 526 2620 596 34 157 144 276 186 412-395-45-1667-428-1849 22-106 261 121 345 335 382 448 76 1004 83 1461 92 763 15 442-389 726-732 54-65 432-69 535-74 335-18 280-12 476 161l657 607c203 176 75 131 402 228 170 50 344 103 508 155 335 106 665 201 998 304 822 252 1122-637-359-764-224-19-1045 25-1157-129-82-113-235-754-269-942 343-129 555-160 856-401 14-371-107-806-132-1180-7-101 88-149 91-372l133-75c135 156 112 204 332 339 150 92 303 142 469 208 73 29 169 65 218 109 31 28 46 57 79 90 607 603 436 257 720 220 107-14 172-56 198-160 189-772-349-862-530-1191-50-91-114-136-149-220 84-47 166-124 204-264 112-412-210-825-554-132-130-42-209-65-351-51-59 6-106 17-161 30-20 5-63 15-76 13-58-7-267-160-313-193-375-272-1055-995-1067-1003z"/>
  </g>
 </g>
</svg>
