<?xml version="1.0" encoding="UTF-8" standalone="no"?>
<!DOCTYPE svg  PUBLIC '-//W3C//DTD SVG 1.1//EN'  'http://www.w3.org/Graphics/SVG/1.1/DTD/svg11.dtd'>
<!-- Creator: CorelDRAW X5 -->
<svg style="shape-rendering:geometricPrecision;text-rendering:geometricPrecision;image-rendering:optimizeQuality" xmlns="http://www.w3.org/2000/svg" fill-rule="evenodd" xml:space="preserve" height="500px" width="500px" clip-rule="evenodd" xmlns:xlink="http://www.w3.org/1999/xlink" viewBox="0 0 12764 16208">
 <defs>
  <style type="text/css">
   <![CDATA[
    .fil14 {fill:#0085BF}
    .fil4 {fill:#008AC6}
    .fil10 {fill:#008EC0}
    .fil2 {fill:#0090CB}
    .fil13 {fill:#009CD4}
    .fil8 {fill:#373435}
    .fil0 {fill:#ABBFC9}
    .fil6 {fill:#CDBF24}
    .fil7 {fill:#E3D321}
    .fil12 {fill:#FAA831}
    .fil3 {fill:#FDE5D8}
    .fil9 {fill:#FEFEFE}
    .fil11 {fill:#FFDA23}
    .fil5 {fill:#FFF212}
    .fil1 {fill:rgb(39, 39, 39)}
   ]]>
  </style>
 </defs>
 <g id="Layer_x0020_1">
  <path class="fil0" d="m6745 3366c201 191 514 128 747-90 313-294 511-229 644-118 204 169 296 435 396 523 272 155 497 389 610 679 79 140 201 249 290 387 6 61 52 100 69 159-48 94-102 180-157 272-211-144-379-275-725-283 16-34 28-76 32-116-180-48-397-77-531-236-25-33-6-90-15-134 135-127 160-424 50-764-26 319-15 488-119 628-96 129-291 240-639 282 223 109 430 27 608-75 4 132-4 263-19 395-23 102-52 207-79 311-46 121-98 240-163 355-36 155-38 311-38 468-90-10-182-17-272-29-29 0-56 8-77 25-13-1-28-18-41-19-244-27-485-46-729-42-15 0-30 18-44 19-29-27-67-54-98-48-175-4-355 10-533 17-44 5-49 23-69 38-21-56-86-61-140-61-125-8-244 10-366 19-19-178-17-378-61-551-58-119-182-169-261-282-98-121-213-238-247-389 29-17 54-73 92-35 46-2 86 40 127 8-31-25-81-38-102-79 52-27 140 50 217 52 17-2 4-13 2-21-48-36-113-67-144-121 54-31 130 92 209 111 38 8 58-38 94-15 54 4 142 40 161 6-100-52-209-113-278-207 33 15 58 52 98 40 40 19 92 15 138 13-8-36-90-4-73-52 10-6 6-21 6-31-27-27-65-44-84-77 239 149 568 396 915 286-395-84-919-334-1001-705-111 510-543 966-1063 987-31 29-56 56-77 92 100 127 194 259 290 393-640 402-976 198-1022 127-92-184-345-340-251-560 104-148 230-286 315-449 88-144 138-303 251-437 148-221 399-343 539-566 56-182 207-317 355-441 669-560 1485 868 2260 343z"/>
  <path class="fil1" d="m9857 11672c-646-1663-1143-3382-1481-5135 71-75 121-167 194-246 129-13 290 6 384-113-46-21-113-29-130-84 21-40 58-75 94-104 121 10 292 17 359-100-63-31-130-61-186-102 21-21 31-40 54-59 104-31 261-29 301-140-61-21-125-31-175-77 33-100 113-169 138-265 63-111 136-221 190-338-8-65-59-113-75-171-44-167-213-244-280-401-134-280-324-535-595-685-115-86-257-415-480-556-109-229-367-351-541-278-138-130-333-82-452-43-77 8 13-365 37-780 37-419 112-1257 54-1272-37-10-142 152-204 249-98-84-258-151-432-164-130-15-310 8-433 65-69-86-175-290-208-287s-126 806-152 1144c-26 337 16 810-90 830-184-136-405-61-602-15-111-13-230-29-338-15-368 19-714 184-951 470-315 355-522 813-572 1289-17 180-144 318-242 460-56 81-144 161-140 267 10 140 115 244 190 357 8 31-6 67 0 104-86 1889 282 3781 877 5569 21 44 73 69 102 107-115 311-263 631-213 967 33 407 201 792 267 1197 17 63-2 140-19 207-19 46-40 94-50 144-31 54-27 130-10 194 6 77 40 161 35 242-15 71-6 146-29 217-50 169-96 343-117 520-21 127-33 267 48 382 107 169 292 261 447 376 67 48 155 44 230 63 130 2 292-8 340-165 40-98 61-207 90-311 10-54-8-107-21-159-148-307-228-635-249-969-8-90 4-173 27-253 2-140-58-278-44-416 65-556 422-1009 491-1558 15-165 6-328 31-489 309-77 472 267 614 489 113 163 238 341 422 424 25-23 63-31 56-73-48-213-188-397-228-610-52-240-138-679 253-681 125 0 234 63 345 125-109 324-267 656-198 1005 4 130 84 234 125 353 44 265 90 533 130 800 130 343-215 625-127 965 29 75 8 163 40 238 198 144 520 253 733 77 203 140 426 244 658 309 267 63 545 84 813 0 52-111 15-253-69-338-92-73-196-102-288-169-129-86-219-217-343-320-115-81-236-182-355-278-94-77-173-163-198-282-38-276 17-562 48-829 38-265 96-524 84-804-58-150-71-320-84-491 8-21 8-44 25-61 117-349 612-556 911-282 368 269 604 666 898 1009 169 157 460 539 608 366-167-180-253-397-343-612zm-3535 441c-115-94-209-224-297-330-144-232-292-526-593-566-31 2-61 13-86 21 33-203 190-359 244-558 29-86 46-175 73-259 175 577 357 1157 658 1692zm-3134-6522c67 2160 689 4295 1736 6186-259-226-462-503-762-687-134-52-173-196-201-320-533-1703-859-3489-794-5275 40 15 6 67 21 96zm493 533c21 29 72 60 95 85-65 44-146 83-229 90 130 88 282 117 449 113 54 23 126 72 174 106-44 27-77 47-161 47 77 125 242 161 380 171 88 526 115 1067 270 1581 15 71 29 142 63 205-2 84-10 167-10 249-8 328 15 635 12 961-8 92-15 163-31 251-21 77-40 159-69 232-61 121-125 232-190 357-625-1471-1045-3025-1147-4625 98 113 251 159 395 178zm892 669c-71 169 65 320 198 399-44 42-59 100-38 159 40 79 111 134 173 188-61 249-132 493-161 750-146-514-176-1038-265-1565 36 10 56 50 92 69zm261-1772c111 117 205 251 334 347 77 188 58 395 81 593-25 19-56 27-73 52-15 117 4 238-2 357-88-92-201-161-278-267-178-251-322-514-495-762-31-157-21-311 12-466 92-38 190-65 272-121 38 96 84 186 148 267zm-533 182c-69-77-119-167-190-240 8-4 15-21 27-25 61-10 125-29 188-44-33 100-21 207-25 309zm3639 823c-4 23-29 44-46 65-19-42-68-66-114-71 13-59-16-310 70-472 2 71 52 360 90 478zm215-1324c-27 343-25 685-23 1028-31 81-79 150-123 226-23-58-23-144-44-213-31-119-25-247-25-376 88-211 157-439 161-685-8-61 36 15 54 21zm1613 6992c-727-1485-1279-3050-1594-4682 52-61 73-142 54-219 40-40 54-94 61-144 355 1719 846 3409 1479 5045zm-1546-4113c299 1385 767 2732 1398 4011 79 180 188 347 290 516-464-401-723-996-1243-1329-207-138-489-84-687 36-90 50-167 136-226 226-21-219 81-409 88-622-8-109-8-213 38-311 307-698 349-1490 194-2227-4-79-31-155-42-234 4-25 25-44 27-69-27-132-38-263-73-391 23-23 46-44 69-54 10-17 31-21 42-40 42 161 84 326 125 489zm-1763 1214c44 173 79 349 144 514 27 98 88 188 98 293 10 163 4 324 19 483 10 127 10 255 38 382 4 44 27 92 33 138 19 40 27 83 50 123-8 63-10 130-27 190-159-111-397-180-577-63-163 94-207 305-171 476-136-336-234-696-349-1042 127-146 242-299 322-476 52-148 90-297 150-441 104-184 201-514 270-577zm-1393 3545c-153 338-288 687-349 1055-25 142 42 286 42 430-67 224 2 455 31 683 58 182 109 361 194 535 56 167-29 338-107 485-134 48-311 61-443-29-130-96-284-182-380-324-23-63-61-125-48-203 6-274 117-529 155-800 40-150-54-292-36-443 36-117 84-228 94-349-19-359-192-687-240-1040 211-173 407-347 608-522 119 211 295 374 478 522zm2678-361c-52 462-167 925-132 1391 15 136 90 242 201 326 130 115 272 221 405 326 157 272 503 332 660 581 2 29 19 61 15 90-251 61-503 40-744-25-242-71-462-175-673-322-46-4-63 48-96 73-171 73-376 2-537-77-27-88-8-178-46-259-21-257 167-472 167-723-52-345-94-694-167-1034 341-184 591-489 836-788 125 111 123 290 111 441zm-1329-3560c8 167-59 301-109 451s-117 299-188 441c-90 175-115 372-207 556-77 188-261 301-324 493-21 98-61 186-81 286-31 104-84 207-140 301-56 40-109 81-173 102-46 27-84 58-104 107-6 54-61 90-71 146-6 42-10 84-17 125 10 27 2 58 13 86 71-48 40-161 86-228 15-44 40-88 77-113 8 0 19 4 21 15-10 25-33 44-46 67-15 23-19 52-31 75 13 2 10-31 27-19 4 6 13 12 23 10 40-31 46-82 71-123 8-2 15-17 23-8-15 27-8 63-25 90-50 322 15 660-132 967-198-153-372-347-503-545-215 182-441 347-637 558-86-359 42-719 178-1047 382 190 556 639 971 769 8-35 4-71-13-104-46-81-109-161-142-242-65-98-98-209-163-309-104-217-203-435-313-648 84-178 184-338 257-518 42-144 71-297 75-447 8-409-38-823 4-1230 23-334 104-637 188-948 610-175 1322 251 1406 886zm1527-735c175 729 188 1508-84 2219-42 125-113 242-111 376 27 194-52 378-77 570-13 190-10 403 10 604-21-17-29-63-63-48-267 297-493 643-850 840-240-424 19-882 136-1306 29 52 33 121 61 167 23-90 38-182 21-269-40-132-115-247-138-382-23-142-42-284-35-424-15-165-2-303-21-472-113-313-259-656-232-982 552-153 809-781 1383-892zm-1198-4316c201 191 514 128 747-90 313-294 511-229 644-118 204 169 296 435 396 523 272 155 497 389 610 679 79 140 201 249 290 387 6 61 52 100 69 159-48 94-102 180-157 272-211-144-379-275-725-283 16-34 28-76 32-116-180-48-397-77-531-236-25-33-6-90-15-134 135-127 160-424 50-764-26 319-15 488-119 628-96 129-291 240-639 282 223 109 430 27 608-75 4 132-4 263-19 395-23 102-52 207-79 311-46 121-98 240-163 355-36 155-38 311-38 468-90-10-182-17-272-29-29 0-56 8-77 25-13-1-28-18-41-19-244-27-485-46-729-42-15 0-30 18-44 19-29-27-67-54-98-48-175-4-355 10-533 17-44 5-49 23-69 38-21-56-86-61-140-61-125-8-244 10-366 19-19-178-17-378-61-551-58-119-182-169-261-282-98-121-213-238-247-389 29-17 54-73 92-35 46-2 86 40 127 8-31-25-81-38-102-79 52-27 140 50 217 52 17-2 4-13 2-21-48-36-113-67-144-121 54-31 130 92 209 111 38 8 58-38 94-15 54 4 142 40 161 6-100-52-209-113-278-207 33 15 58 52 98 40 40 19 92 15 138 13-8-36-90-4-73-52 10-6 6-21 6-31-27-27-65-44-84-77 239 149 568 396 915 286-395-84-919-334-1001-705-111 510-543 966-1063 987-31 29-56 56-77 92 100 127 194 259 290 393-640 402-976 198-1022 127-92-184-345-340-251-560 104-148 230-286 315-449 88-144 138-303 251-437 148-221 399-343 539-566 56-182 207-317 355-441 669-560 1485 868 2260 343zm-2691 77c-97 128-203 211-339 317 175-311 330-696 714-804-86 54-306 242-375 487zm2126-2478c19-19 47-37 82-53 169-77 504-103 815 133 136 129-3 7 45-68 40-63 90-143 104-139 21 6 9 125 3 169-44 572-65 1145-159 1717 2 46 15 113 79 117-81 111-142 185-303 267 276 27 286-349 602-320 29 3 58 15 84 29-288 153-368 418-713 437 543 211 772-771 1233-217-114-80-335-34-454 68-507 501-769 264-846 170-708 493-1269-534-2e3 -471-222 19-564 118-800 377-191 209-299 483-418 742-38 69-79 136-121 198 117-752 710-1602 1571-1496 591-17 900 687 1473 612-449-86-691-514-1126-639 384-161 524 347 863 376-113-134-284-250-393-381 84-65 67-115 78-216 0-150 0-209 10-512 9-265 113-1133 135-1136 23-3 107 161 157 236zm2354 3926s-72 19-99 37c-40 161-151 474-211 632 2-125 18-363 12-484-8-104-2-215 8-322 92 52 201 75 303 88-1 9-13 49-13 49z"/>
  <path class="fil2" d="m6180 966c19-19 47-37 82-53 169-77 504-103 815 133 136 129-3 7 45-68 40-63 90-143 104-139 21 6 9 125 3 169-44 572-65 1145-159 1717 2 46 15 113 79 117-81 111-142 185-303 267 276 27 286-349 602-320 29 3 58 15 84 29-288 153-368 418-713 437 543 211 772-771 1233-217-114-80-335-34-454 68-507 501-769 264-846 170-708 493-1269-534-2e3 -471-222 19-564 118-800 377-191 209-299 483-418 742-38 69-79 136-121 198 117-752 710-1602 1571-1496 591-17 900 687 1473 612-449-86-691-514-1126-639 384-161 524 347 863 376-113-134-284-250-393-381 84-65 67-115 78-216 0-150 0-209 10-512 9-265 113-1133 135-1136 23-3 107 161 157 236zm300 1148c54 23 131 50 183 75 54-29 94-41 156-83 75-2 158 4 227-8-2 62-6 127-12 196-2 26-6 56-51 101 71-48 36 45 32 80-8 90-156 227-201 271s-148 48-198 29c-84 4-166 6-236-35s-251-199-266-301c-4-28-3-118-3-181 30-6 120 128 122 91-129-157-117-233-115-295 87 2 154 52 362 59z"/>
  <path class="fil3" d="m6480 2114c54 23 131 50 183 75 54-29 94-41 156-83 75-2 158 4 227-8-2 62-6 127-12 196-2 26-6 56-51 101 71-48 36 45 32 80-8 90-156 227-201 271s-148 48-198 29c-84 4-166 6-236-35s-251-199-266-301c-4-28-3-118-3-181 30-6 120 128 122 91-129-157-117-233-115-295 87 2 154 52 362 59z"/>
  <path class="fil4" d="m4431 5537c100 163 201 330 301 493 94 130 194 251 311 349 115 111 234 247 347 357 27 50 111 69 92 140-8 50-65 75-63 127 15 40 23 92-8 127-10 6-25 15-29 27-8 54 21 119-27 163-21 33-56 48-92 56-96 52-211 65-320 63-23-15-48-40-71-48-23-40-58-69-63-115 2-15 10-31 25-35 61 2 107 48 153 90 23-27 61-31 88-44-121-31-207-157-313-226-65-46-134-111-109-198 15-38 8-71 17-109-29-61-102-69-150-109-90 4-205 56-387-48 63-8 116-33 147-98-100-51-198-107-284-182-92 4-178 8-267-4 61-25 117-50 173-88-48-50-102-113-155-163-115-10-251-23-334-115 65-17 112-25 150-71-56-84-148-148-194-238 207 98 449 29 645-52 113-54 230-96 338-163 38 33 46 79 79 113z"/>
  <path class="fil5" d="m6517 6033c0 43-10 649-8 677 3 29-54 43-55-5 0-48 5-437 3-665-6-25-25-44-44-65 2-10 10-15 19-17 35-4 85 31 85 74z"/>
  <path class="fil5" d="m5814 6032c4 224 0 455 2 679-8 15-25 21-40 15-6-2-13-8-15-15-8-219-2-445-6-666-10-25-42-63-15-79 38-2 56 42 73 67z"/>
  <path class="fil6" d="m5668 6019c6 10 13 23 19 38-4 219-2 449-2 666-21 58-86 33-130 42-104-94-205-198-305-299 4-142-4-274 13-409 36-44 96-56 146-56 69-4 144-10 213-8 10 13 27 19 46 27z"/>
  <path class="fil7" d="m6345 6007c21 15 42 35 52 61 10 213 2 432 6 650 4 25-23 25-36 31-155-8-392-2-439-2s-57-35-57-60 10-414-3-607c6-21 6-50 33-58 146-15 295-21 443-15z"/>
  <path class="fil5" d="m7300 6074c6 226 0 455-10 683-236-13-474-36-710-25 8-232 3-472 9-702 240 0 490 0 712 44z"/>
  <path class="fil6" d="m7525 6049c-52 31-54 75-56 109 0 209-8 418-8 623-25-4-58 10-79-10-4-6-4-13-6-17 0-215 0-430 8-643-4-25 22-79 142-61z"/>
  <path class="fil5" d="m7809 6103c17 10 46 15 48 40-4 213-6 428-13 639-2 21-21 25-36 29-92-6-186-10-276-23-2-8-13-10-15-19 6-217 10-432 17-650 4-17 17-33 35-38 81-8 159 13 238 21z"/>
  <path class="fil4" d="m9299 5244c-19 81-81 157-121 236-13 63 48 96 94 132-77 40-182 15-234 96-15 31-77 50-61 100 38 40 79 69 125 90-61 17-146 10-205-2-73 50-130 127-188 196-10 48 48 61 75 90-79 35-157 6-236 19-104 144-215 270-324 405-42 54-36 117-94 157 0 17 0 38 10 56 21 125-104 184-173 269-77-282-64-623-56-907 235-215 485-761 598-1199 102-27 419-19 789 261z"/>
  <path class="fil8" d="m7644 5311c-36 56-75 123-144 136-8-15-21-2-31-10 58-61 136-109 171-184 10 13 2 38 4 58zm-1732-48c4 13 17 21 13 38-29-10-61-19-84-35 17-17 52-19 71-2zm-134 44c35 10 65 35 100 44-4 10-4 29-15 31-4 19-31-10-48-10-52-21-113-52-136-102 40-17 61 36 98 38zm-111 63c8 2 2 15 10 13 40 19 86 50 136 54 19 6 23 13 31 29-102 17-209-10-265-92-15-15-10-33-4-50 19-4 35 4 50 13 8 17 29 19 42 33zm-186 13c61 65 142 132 236 146 25 2 52 10 75 15-4 25-38 17-56 25-79 2-144-27-207-63-48-50-94-107-98-180 27 0 33 38 50 56zm278 280c-4 17-15 29-33 31-35 0-63-13-94-27-10-8-6-23-6-35 50-2 81 38 134 31zm0 107c4 10-6 19-8 27-42 10-73-21-109-38-6-6-10-8-13-17 38 25 86 23 130 27zm1272-725c8 54-25 94-56 132-17 8-38 31-54 17-13-4-17-8-21-15 38-50 86-92 119-146 10 6 25-4 13 13zm54 119c2 81-88 123-148 161-33 4-63 44-98 25-13 10-21-10-33-8 92-63 207-88 276-188 15-4 4 6 4 10zm27 173c-8 50-71 65-109 92-109 36-209 75-305 125-19-8-40-15-50-27 17-4-2-13 10-21 86-15 163-61 247-96 69-31 142-59 207-102-6 6 2 21 0 29zm-54 171c-38 31-81 67-132 73-15-10-50-8-46-36 58-31 119-48 178-75 4 10 4 23 0 38zm-52 207c10 4 29-10 33 6 21-10-8 8 0 19-48 44-123 27-182 56 4-2 13-15 4-12 46-23 81-52 121-75 8 13 19-6 23 6zm-42 180c-19 2-44 15-61-2-2 8-10-10-15-15-8-4-8-6-4-15 40-36 109-23 155-52-2 42-38 69-75 84zm685-307c-8-6-13 6-17 8-38 8-65 25-104 6 44-27 104-21 144-56 6 17-10 31-23 42zm19-169c12 29-21 50-40 73-17 33-61 17-86 38-44 21-94 25-140 40 84-33 167-73 238-130 10-6 17-19 27-21z"/>
  <path class="fil8" d="m7452 9989c50 54 44 130 40 205-13 29-4 86-44 92 19-102-48-221-33-297 13 2 23-2 38 0z"/>
  <path class="fil8" d="m7398 10296c2 29 2 69-27 81-19-69-27-132-35-203 19-10 29-25 44-15 13 44 8 92 19 136z"/>
  <path class="fil8" d="m7327 10348c8 33 8 69 8 107-13-2-29 13-40 2-48-31-25-88-29-130 15-2 13-19 27-17 25-27 25 25 33 38z"/>
  <path class="fil8" d="m7358 10624c2 58-15 113-15 173-29-17-44-46-44-77 2-10 2-23 0-33l-2 2c0-23 6-54 8-81 15-6 21-23 38-17 10 8 4 25 15 33z"/>
  <path class="fil8" d="m7431 10741c-4 17 4 33 8 46 4 31-4 56-6 86-21-6-38-23-50-38 4-52 0-107 13-155 10 19 50 29 35 61z"/>
  <path class="fil8" d="m7494 10906c-40 6-15-44-19-65 4-19 2-38 8-56 23 33 4 84 10 121z"/>
  <path class="fil9" d="m4885 10603c-10 8-23 6-31 0 6-84 0-173 21-253 25-36 52-86 107-84-54 98-67 224-96 336z"/>
  <path class="fil9" d="m5010 10450c21 73-50 142-61 221-15-6-29 44-29 2 6-77 13-198 90-224z"/>
  <path class="fil9" d="m5025 10805c-75-4-52-125-8-173 4 54 10 115 8 173z"/>
  <path class="fil8" d="m4885 10603c-10 8-23 6-31 0 6-84 0-173 21-253 25-36 52-86 107-84-54 98-67 224-96 336z"/>
  <path class="fil8" d="m5010 10450c21 73-50 142-61 221-15-6-29 44-29 2 6-77 13-198 90-224z"/>
  <path class="fil8" d="m5025 10805c-75-4-52-125-8-173 4 54 10 115 8 173z"/>
  <path class="fil10" d="m3455 5865c-42 29-118 57-168 25 0-63-4-153 0-213 40 65 114 132 168 188z"/>
  <path class="fil1" d="m6145 3951c0 259 279 464 614 458 326-6 585-211 585-458s-259-452-585-458c-335-6-614 199-614 458z"/>
  <path class="fil11" d="m6189 3951c0-234 259-421 571-415 304 5 546 191 546 415s-242 410-546 415c-311 5-571-181-571-415z"/>
  <path class="fil1" d="m6758 4236c-50-164-160-195-222-117-54-132-192-124-235-12-80-110-30-320 111-420 110 167 237 111 272-14 15 35 35 61 74 62 38 0 59-26 74-60 35 125 158 181 263 19 132 100 178 301 104 408-40-108-171-116-223 14-60-76-168-45-218 120z"/>
  <path class="fil12" d="m6751 6151c-54 53-167 196-40 384 5 7 14 11 23 8 9-2 15-9 15-18 0-38 17-56 28-57 11 0 36 20 39 84 0 9 8 17 18 18s20-5 23-13c13-42 27-55 31-56 0 1 10 8 21 42 12 37 17 66 20 85 4 24 7 44 30 43 21-1 25-18 30-44 4-19 10-48 22-83 9-26 17-35 20-38 4 3 14 14 25 53 3 9 12 15 22 14s18-8 19-17c4-59 24-77 31-77 6 0 19 15 19 50 0 8 6 16 15 18s19-1 24-9c97-151 27-284-24-349-4-5-11-8-18-8s-14 3-17 9c-38 54-81 72-109 78 3-5 6-11 8-20 1-5 2-9 2-14 0-7-1-13-3-18l-2-7-1-9c-1-8-3-26-22-26-14 0-26 13-34 24-2 0-3-1-4-1-7-12-18-28-31-30-10-2-12-5-16 3l-11 21-1 9-2 7c-2 5-3 12-3 20 0 4 0 8 1 13 2 8 4 14 7 19-31-11-79-39-122-105-3-5-9-9-16-9-7-1-13 2-18 6z"/>
  <path class="fil8" d="m6951 6216c-6-14-19-31-22-31-2 0-2 9-4 18-2 11-7 19-4 33 5 21 15 27 15 34v15s-94-7-169-122c-56 55-155 189-38 362 1-100 103-109 109 27 26-79 65-100 92-14 23 71 21 115 29 115s8-44 33-114c28-82 64-60 85 16 9-127 93-116 92-26 93-145 21-272-23-330-67 95-154 90-154 90v-15c0-7 10-12 15-31 3-13-1-21-3-33-2-9-2-19-3-19-4 0-16 14-23 27-8-4-20-5-28-3z"/>
  <path class="fil8" d="m6109 1819c-44 57-63 170-38 231-10 127-10 261-8 393-2 107 61 184 100 272 36 63 81 197 253 265 115 45 286 242 321 242 34 0-47-202 47-242 153-65 247-373 263-485 15-113 24-238 41-362 11-82 0-151-27-201 25-23 58-118 58-277-1-123 20-232-3-292-39-104-175-172-321-198s-448-52-585 57c-107 86-99 214-104 287-10 151 14 297 3 311zm371 295c54 23 131 50 183 75 54-29 94-41 156-83 75-2 158 4 227-8-2 62-6 127-12 196-2 26-6 56-51 101 71-48 36 45 32 80-8 90-156 227-201 271s-148 48-198 29c-84 4-166 6-236-35s-251-199-266-301c-4-28-3-118-3-181 30-6 120 128 122 91-129-157-117-233-115-295 87 2 154 52 362 59z"/>
  <path class="fil9" d="m6519 1796c-51 174-299 84-284-90 70 36 148 84 284 90z"/>
  <path class="fil9" d="m6764 1818c80-10 188-25 267-71-17 199-211 201-267 71z"/>
  <path class="fil13" d="m6796 2091c-26 25-85 55-118 68 0-121-13-274-15-395 40 102 94 225 134 328zm-86-361s78 16 142-41c41-37 103-76 163-85 0 0-78 39-112 83-42 53-115 80-193 44zm-133-16s-78 16-142-41c-41-37-103-76-163-85 0 0 78 39 113 83 42 53 115 80 193 44zm79 444c-40-18-116-37-160-70 52-85 104-200 150-326 4 119 11 277 11 396z"/>
  <path class="fil8" d="m6410 2331c28 21 115 35 206 41 91 5 139 0 206-20 7-6 10-36 9-59 14 57 24 84 44 115-17 4-38-13-51-30-91 16-189 65-427-21-16-6-20 16-42 30 6-35 27-55 30-98 6 17 14 33 26 42z"/>
  <path class="fil8" d="m6608 2489c82 14 146-40 134-21-81 136-230 68-265-17-4-11 66 27 131 37z"/>
  <path class="fil8" d="m6684 2191s20 102 1 125c-15 17-43 15-60-3 0 0 41 7 53-19 8-16 6-103 6-103z"/>
  <path class="fil10" d="m4054 3444c-97 128-203 211-339 317 175-311 330-696 714-804-86 54-306 242-375 487z"/>
  <path class="fil0" d="m7943 7682c175 729 188 1508-84 2219-42 125-113 242-111 376 27 194-52 378-77 570-13 190-10 403 10 604-21-17-29-63-63-48-267 297-493 643-850 840-240-424 19-882 136-1306 29 52 33 121 61 167 23-90 38-182 21-269-40-132-115-247-138-382-23-142-42-284-35-424-15-165-2-303-21-472-113-313-259-656-232-982 552-153 809-781 1383-892z"/>
  <path class="fil0" d="m6416 8418c8 167-59 301-109 451s-117 299-188 441c-90 175-115 372-207 556-77 188-261 301-324 493-21 98-61 186-81 286-31 104-84 207-140 301-56 40-109 81-173 102-46 27-84 58-104 107-6 54-61 90-71 146-6 42-10 84-17 125 10 27 2 58 13 86 71-48 40-161 86-228 15-44 40-88 77-113 8 0 19 4 21 15-10 25-33 44-46 67-15 23-19 52-31 75 13 2 10-31 27-19 4 6 13 13 23 10 40-31 46-82 71-123 8-2 15-17 23-8-15 27-8 63-25 90-50 322 15 660-132 967-198-153-372-347-503-545-215 182-441 347-637 558-86-359 42-719 178-1047 382 190 556 639 971 769 8-35 4-71-13-104-46-81-109-161-142-242-65-98-98-209-163-309-104-217-203-435-313-648 84-178 184-338 257-518 42-144 71-297 75-447 8-409-38-823 4-1230 23-334 104-637 188-948 610-175 1322 251 1406 886z"/>
  <path class="fil14" d="m7745 11977c-52 462-167 925-132 1391 15 136 90 242 201 326 130 115 272 221 405 326 157 272 503 332 660 581 2 29 19 61 15 90-251 61-503 40-744-25-242-71-462-175-673-322-46-4-63 48-96 73-171 73-376 2-537-77-27-88-8-178-46-259-21-257 167-472 167-723-52-345-94-694-167-1034 341-184 591-489 836-788 125 111 123 290 111 441z"/>
  <path class="fil14" d="m5066 12339c-153 338-288 687-349 1055-25 142 42 286 42 430-67 224 2 455 31 683 58 182 109 361 194 535 56 167-29 338-107 485-134 48-311 61-443-29-130-96-284-182-380-324-23-63-61-125-48-203 6-274 117-529 155-800 40-150-54-292-36-443 36-117 84-228 94-349-19-359-192-687-240-1040 211-173 407-347 608-522 119 211 295 374 478 522z"/>
  <path class="fil5" d="m6517 6033c0 43-10 649-8 677 3 29-54 43-55-5 0-48 5-437 3-665-6-25-25-44-44-65 2-10 10-15 19-17 35-4 85 31 85 74z"/>
  <path class="fil5" d="m5814 6032c4 224 0 455 2 679-8 15-25 21-40 15-6-2-13-8-15-15-8-219-2-445-6-666-10-25-42-63-15-79 38-2 56 42 73 67z"/>
  <path class="fil6" d="m5668 6019c6 10 13 23 19 38-4 219-2 449-2 666-21 58-86 33-130 42-104-94-205-198-305-299 4-142-4-274 13-409 36-44 96-56 146-56 69-4 144-10 213-8 10 13 27 19 46 27z"/>
  <path class="fil7" d="m6345 6007c21 15 42 35 52 61 10 213 2 432 6 650 4 25-23 25-36 31-155-8-392-2-439-2s-57-35-57-60 10-414-3-607c6-21 6-50 33-58 146-15 295-21 443-15z"/>
  <path class="fil5" d="m7300 6074c6 226 0 455-10 683-236-13-474-36-710-25 8-232 3-472 9-702 240 0 490 0 712 44z"/>
  <path class="fil6" d="m7525 6049c-52 31-54 75-56 109 0 209-8 418-8 623-25-4-58 10-79-10-4-6-4-13-6-17 0-215 0-430 8-643-4-25 22-79 142-61z"/>
  <path class="fil5" d="m7809 6103c17 10 46 15 48 40-4 213-6 428-13 639-2 21-21 25-36 29-92-6-186-10-276-23-2-8-13-10-15-19 6-217 10-432 17-650 4-17 17-33 35-38 81-8 159 13 238 21z"/>
  <path class="fil12" d="m6751 6151c-54 53-167 196-40 384 5 7 14 11 23 8 9-2 15-9 15-18 0-38 17-56 28-57 11 0 36 20 39 84 0 9 8 17 18 18s20-5 23-13c13-42 27-55 31-56 0 1 10 8 21 42 12 37 17 66 20 85 4 24 7 44 30 43 21-1 25-18 30-44 4-19 10-48 22-83 9-26 17-35 20-38 4 3 14 14 25 53 3 9 12 15 22 14s18-8 19-17c4-59 24-77 31-77 6 0 19 15 19 50 0 8 6 16 15 18s19-1 24-9c97-151 27-284-24-349-4-5-11-8-18-8s-14 3-17 9c-38 54-81 72-109 78 3-5 6-11 8-20 1-5 2-9 2-14 0-7-1-13-3-18l-2-7-1-9c-1-8-3-26-22-26-14 0-26 13-34 24-2 0-3-1-4-1-7-12-18-28-31-30-10-2-12-5-16 3l-11 21-1 9-2 7c-2 5-3 12-3 20 0 4 0 8 1 13 2 8 4 14 7 19-31-11-79-39-122-105-3-5-9-9-16-9-7-1-13 2-18 6z"/>
  <path class="fil8" d="m6951 6216c-6-14-19-31-22-31-2 0-2 9-4 18-2 11-7 19-4 33 5 21 15 27 15 34v15s-94-7-169-122c-56 55-155 189-38 362 1-100 103-109 109 27 26-79 65-100 92-14 23 71 21 115 29 115s8-44 33-114c28-82 64-60 85 16 9-127 93-116 92-26 93-145 21-272-23-330-67 95-154 90-154 90v-15c0-7 10-12 15-31 3-13-1-21-3-33-2-9-2-19-3-19-4 0-16 14-23 27-8-4-20-5-28-3z"/>
  <path class="fil10" d="m6322 12113c-115-94-209-224-297-330-144-232-292-526-593-566-31 2-61 13-86 21 33-203 190-359 244-558 29-86 46-175 73-259 175 577 357 1157 658 1692zm-3134-6522c67 2160 689 4295 1736 6186-259-226-462-503-762-687-134-52-173-196-201-320-533-1703-859-3489-794-5275 40 15 6 67 21 96zm493 533c21 29 72 60 95 85-65 44-146 83-229 90 130 88 282 117 449 113 54 23 126 72 174 106-44 27-77 47-161 47 77 125 242 161 380 171 88 526 115 1067 270 1581 15 71 29 142 63 205-2 84-10 167-10 249-8 328 15 635 12 961-8 92-15 163-31 251-21 77-40 159-69 232-61 121-125 232-190 357-625-1471-1045-3025-1147-4625 98 113 251 159 395 178zm892 669c-71 169 65 320 198 399-44 42-59 100-38 159 40 79 111 134 173 188-61 249-132 493-161 750-146-514-176-1038-265-1565 36 10 56 50 92 69zm261-1772c111 117 205 251 334 347 77 188 58 395 81 593-25 19-56 27-73 52-15 117 4 238-2 357-88-92-201-161-278-267-178-251-322-514-495-762-31-157-21-311 12-466 92-38 190-65 272-121 38 96 84 186 148 267zm-533 182c-69-77-119-167-190-240 8-4 15-21 27-25 61-10 125-29 188-44-33 100-21 207-25 309zm3639 823c-4 23-29 44-46 65-19-42-68-66-114-71 13-59-16-310 70-472 2 71 52 360 90 478zm215-1324c-27 343-25 685-23 1028-31 81-79 150-123 226-23-58-23-144-44-213-31-119-25-247-25-376 88-211 157-439 161-685-8-61 36 15 54 21zm1613 6992c-727-1485-1279-3050-1594-4682 52-61 73-142 54-219 40-40 54-94 61-144 355 1719 846 3409 1479 5045zm-1546-4113c299 1385 767 2732 1398 4011 79 180 188 347 290 516-464-401-723-996-1243-1329-207-138-489-84-687 36-90 50-167 136-226 226-21-219 81-409 88-622-8-109-8-213 38-311 307-698 349-1490 194-2227-4-79-31-155-42-234 4-25 25-44 27-69-27-132-38-263-73-391 23-23 46-44 69-54 10-17 31-21 42-40 42 161 84 326 125 489zm-1763 1214c44 173 79 349 144 514 27 98 88 188 98 293 10 163 4 324 19 483 10 127 10 255 38 382 4 44 27 92 33 138 19 40 27 83 50 123-8 63-10 130-27 190-159-111-397-180-577-63-163 94-207 305-171 476-136-336-234-696-349-1042 127-146 242-299 322-476 52-148 90-297 150-441 104-184 201-514 270-577z"/>
 </g>
</svg>
