<?xml version="1.0" encoding="UTF-8" standalone="no"?>
<!DOCTYPE svg  PUBLIC '-//W3C//DTD SVG 1.1//EN'  'http://www.w3.org/Graphics/SVG/1.1/DTD/svg11.dtd'>
<!-- Creator: CorelDRAW X5 -->
<svg style="shape-rendering:geometricPrecision;text-rendering:geometricPrecision;image-rendering:optimizeQuality" xmlns="http://www.w3.org/2000/svg" fill-rule="evenodd" xml:space="preserve" height="500px" width="500px" clip-rule="evenodd" xmlns:xlink="http://www.w3.org/1999/xlink" viewBox="0 0 12764 16208">
 <defs>
  <style type="text/css">
   <![CDATA[
    .fil6 {fill:#060606}
    .fil5 {fill:#090909}
    .fil3 {fill:rgb(39, 39, 39)}
    .fil4 {fill:#4ABDE7}
    .fil7 {fill:#535353}
    .fil0 {fill:#FFB531}
    .fil1 {fill:#FFF700}
    .fil2 {fill:white}
   ]]>
  </style>
 </defs>
 <g id="Layer_x0020_1">
  <g id="_294159016">
   <path class="fil0" d="m5443 12853c108 246 400 885 159 1154-59-93 104-93 24-505-119 12-213 60-371 60-787 0-1276-508-2134-508-311 0-664 78-855 246-256 224-249 554-87 788 132-140 171-223 369-324 95-48 419-168 527-111-31 29 8 8-48 26l-157 24c-186 34-374 119-503 241-623 590 5 1329 1239 1329 775 0 1943-242 2541-568 164-89 317-208 389-376 100-231-52-398-142-545-106-172-576-809-606-883-167 0-205-20-344-46z"/>
   <path class="fil0" d="m10144 15077c230-97 362-210 419-486 120-572-256-970-799-970-51 0-97 9-143 11-25 1-30 2-54-2-69-12 0 20-42-29 366-36 682-46 941 294 173 228 172 453 127 767 375-98 679-531 522-994-142-417-536-580-944-628-453-54-886 136-1276 266-822 274-1064 305-1804 230 108 231 214 214 240 340-196-83-554-754-619-1060-64 19-104 39-166 53-44 9-112 16-154 38 0 211 0 429 20 631 32 313 87 267 166 480 60 162-2 203 244 400 117 93 226 174 373 250 545 282 1249 548 1983 548 324 0 662-11 963-138z"/>
   <path class="fil1" d="m4248 9591c190 192 108 1109 510 1418 113 87 257 174 450 183 37-45 53-69 109-107 57-38 81-34 115-96 0-439-46-743-291-1007-196-211-476-372-894-392zm3724 2046c20-28 10-8 26-45 12-28 10-29 23-57 64-136 150-139 249-224-62-235-389-685-409-733-16 712-196 475-27 836 40 85 82 171 138 222zm97 60c46-3 108-83 164-129 56-47 127-64 194-107-6-96-8-138-120-110-72 18-212 114-250 185-53 81-22 122 12 161zm11 149c211 109 449-262 456-309-184-103-481 159-456 309zm290 62c163 22 342-177 310-353-117-10-310 202-310 353zm306-164c-55 54-95 105-106 185 54 48 174 81 226 18 33-111-45-174-120-203zm-3147-2755c-127-310 307-1059 1113-573l45-97c-33 442-11 342 175 577l-130-135c-3 5-11 25-12 28l-29 75c-157 414-762 51-866 12-123-46-203 89-296 113zm-2316-3269c46 24 432 472 788 527 586 90 1079 778 1340 1256 75 136 148 294 189 454 110 426-56 463 56 510l-452 11c-103-151-259-218-423-385-343-360-999-879-1066-1454-336-19-523-87-760-232 244 112 436 169 752 171l48-204c-232-14-383-85-571-205-15-27 350 319 692 96-29-33-415-320-593-544zm3214-467c238-112 189-28 271-175 45-105 73-218 110-332 43-106 81-241 83-361 38-311 16-150 8-359 106 515-95 803-191 1142 168 20 104 14 239 63 297 314 449 517 538 1034 110 637 13 878-38 1421 110-17 112-23 235-8-296 7-647 307-789 441-55-89-162-197-260-357-82-134-148-233-219-382-250-520-415-1517-93-2003 142-212 37-1546 107-126zm295-1632c278-199 816 148 891 308-280-143-418-345-891-308zm1652 8321c-50-56-20-34-53-98-47 40-141 102-231 36-78-57-11-154-91-193-84-41-157 50-185 91-61 89-39 107-6 196-71-7-92-59-142-216-26-81-56-210-72-289-75-366-151-820-296-1153-37-84-80-171-121-241-42-72-122-136-125-206 134 40 313 480 376 680 87 275 119 594 200 856 139-166 234-701 159-954-82-274-236-607-421-702l141-364c-64 21-138 58-201 93-78 43-110 100-165 88 4-45 49-67 96-97 59-37 85-50 143-78 386-189 1255-310 1321-836 36-287-126-476-208-670 95 21 70 82 164 204 178-107 584-603 743-824 744-1038 992-2456 368-3606-369-681-859-1157-1660-1478-354-142-900-268-1317-239-305 21-1020 56-1304 187 31 55 57 98 88 150 30 48 65 91 50 147-72 10-75-55-112-127-31-62-54-104-97-148-325 42-893 363-1120 514-389 259-789 621-1050 963-58 77-112 148-170 232-386 559-570 1190-485 1908-35-178 165-497 423-608-293 335-503 517-332 1057 134 425 347 700 589 941 264 264 1475 1188 1618 1443-171 66-315 412-261 582 109 343 1114 367 1432 373 180 3 494 7 675-7 214-16 156-12 179 33l-244 11c164 290 150 160 254 231-37 25-76 14-135 25-283 49-255 458-372 755-169 427-475 301-871 418-458 135-778 747-413 1200 152 189 281 213 344 280-53 29-110-19-163-57-57-41-86-69-138-100-28 281 89 395 311 469 285 95 409 50 474-186l238-6c-33 81-40 11-51 78 112 141 266 193 500 87 309-140 325-198 217-363-84 34-154 86-253 125-44 17-185 69-230 69-51 0-28 4-55-15 69-49 203-66 282-98 216-89 557-328 639-486-47-71-107-136-161-219-58-88-378-641-299-747 51 85 103 334 269 617 671 1145 1461 622 1485 242-69 24-81 36-164 32z"/>
   <path class="fil2" d="m7e3 7975c-106-152-219-169-346-614-71-248-117-559-104-829 14-278 83-572 257-690 250-168 478 163 576 274-29-303-530-1322-1019-735-343 412-122 1686 245 2266l296 418 94-91z"/>
   <path class="fil3" d="m5277 7534c-300-150-330 127-271 389 64 284 158 348 286 493-124 28-170-48-297-160-120-107-151-103-251-272-114-191-272-452-310-717-19-137-7-339 71-425 260-286 700 516 772 693zm-2127-1345c-56-32-166-147-211-175 44 64 67 87 130 146 21 17 46 34 69 48 188 119 315 154 548 168l-48 204c-316-2-508-58-752-171 236 144 424 213 760 232 59 580 717 1098 1066 1454 164 167 320 234 423 385l452-11c-111-46 54-84-56-510-41-160-114-318-189-454-261-478-754-1165-1340-1256-527-147-886-658-932-681 242 357 707 665 736 698-251 140-507 1-657-79zm561 397c0-712 924 30 1021 177-282-44-347 105-347 386 0 352 183 537 273 794-150-95-449-429-581-581-136-157-367-465-367-776z"/>
   <path class="fil4" d="m7047 7937c48-31 71-58 122-85l-25-16c-52-30 5 2-26-14-422-230-296-1284 50-1290 206-4 224 213 300 359 34-332 2-644-230-878-813-821-831 1556-192 1925z"/>
   <path class="fil2" d="m3711 6586c0 311 231 619 367 776 132 153 431 486 581 581-90-257-273-441-273-794 0-281 65-430 347-386-97-147-1021-889-1021-177z"/>
   <path class="fil4" d="m5277 7534c-72-176-512-978-772-693-78 86-91 288-71 425 37 265 196 526 310 717 101 169 131 165 251 272 127 113 173 188 297 160-128-145-222-208-286-493-59-263-29-539 271-389z"/>
   <path class="fil0" d="m5546 8932c231-121 323-144 636-134 279 9 428-42 429-341-411-358-1095-97-1065 475z"/>
   <path class="fil5" d="m5863 8857c160-37 319-6 481-13 181-8 221-117 298-231 58 228 1 396-238 407-163 8-449-72-540-163zm-317 75c-30-572 654-832 1065-475-1 299-150 349-429 341-312-10-405 13-636 134zm-23 62c93-24 179-146 302-100 104 39 710 387 867-26l29-75c1-3 4-10 7-14l152 147c-143-214-287-322-172-670l-76 158c-806-486-1237 270-1110 581z"/>
   <path class="fil0" d="m5863 8857c91 91 377 171 540 163 240-12 297-179 238-407-76 114-117 223-298 231-162 7-321-24-481 13z"/>
   <path class="fil6" d="m6723 3625c473-37 611 165 891 308-74-161-613-508-891-308z"/>
   <path class="fil7" d="m5178 405l-71-42c4 4 10 5 12 12s10 9 13 11c34 19 7 7 46 19z"/>
   <path class="fil3" d="m6393 12906c42-22 110-28 154-38 62-13 102-34 166-53 65 305 423 977 619 1060-26-126-133-109-240-340 740 76 982 44 1804-230 390-130 823-320 1276-266 408 49 802 211 944 628 158 463-147 896-522 994 45-313 46-539-127-767-258-341-575-330-941-294 42 49-27 17 42 29 24 4 29 3 54 2 46-1 91-11 143-11 543 0 919 398 799 970-58 276-189 389-419 486-301 127-639 138-963 138-734 0-1439-265-1983-548-147-76-257-157-373-250-246-197-184-238-244-400-79-213-135-167-166-480-21-203-20-421-20-631zm654-4969c-639-369-621-2746 192-1925 232 234 263 546 230 878-76-145-94-363-300-359-346 7-472 1060-50 1290 31 17-26-15 26 14l25 16c-51 26-74 53-122 85zm-47 38l-94 91-296-418c-367-580-588-1855-245-2266 489-587 990 432 1019 735-98-110-326-442-576-274-175 117-243 412-257 690-14 270 33 580 104 829 127 445 240 461 346 614zm-708-3788c59 217 177 942 3 1205-322 486-139 1475 111 1996 72 149 132 255 214 389 98 160 209 267 264 356 141-134 502-442 798-450-123-15-125-10-235 8 52-543 148-784 38-1421-89-517-241-720-538-1034 674-404 628-956 658-1091-46 398-243 729-536 935-204 144-116 105-361 93 96-340 290-663 184-1178-4 209 30 85-8 396-14 119-48 254-83 361-37 115-77 215-123 320-61 141-17 68-255 179-13-273 0-835-132-1064zm-468 8697c136-75 107-57 173-214 142 0 81 34 162 116 49 50 128 70 191 108l24 776c-30-31-523-730-551-786zm-381-32c139 27 176 47 344 46 30 74 500 711 606 883 90 147 242 314 142 545-72 167-225 286-389 376-598 326-1766 568-2541 568-1233 0-1861-740-1239-1329 129-122 317-207 503-241l157-24c57-17 18 3 48-26-107-56-432 63-527 111-198 101-238 183-369 324-161-233-168-563 87-788 191-168 544-246 855-246 857 0 1347 508 2134 508 158 0 252-48 371-60 80 412-84 412-24 505 241-268-51-908-159-1154zm3234-1097c75 29 146 85 112 196-80 51-157 22-211-26 11-80 44-116 99-170zm-299 144c11-141 189-341 295-341 20 169-141 357-295 341zm-283-63c-20-139 256-387 435-295-16 37-231 396-435 295zm-364-521l171 322c-40 43-51 30-93 78-38 43-29 55-77 102-69-192-131-336-2-501zm339 369c-34-40-53-66-12-142 38-70 171-169 243-187 112-28 112 4 118 101-67 43-139 64-195 110s-108 116-154 118zm-97-49c-57-51-98-137-138-222-169-361 11-124 27-836 20 48 340 502 402 737-99 84-185 88-249 224-13 28-11 29-23 57-16 37 0 12-19 41zm-3731-2041c418 19 697 180 894 392 245 264 291 568 291 1007-34 62-59 58-115 96-56 37-72 61-109 107-193-9-337-96-450-183-402-309-321-1226-510-1418zm4415-1503c-94-122-69-183-164-204 82 194 244 383 208 670-66 526-934 647-1321 836-59 29-85 41-143 78-47 30-92 52-96 97 55 12 87-45 165-88 63-35 137-72 201-93l-141 364c185 95 340 428 421 702 75 254-20 778-159 943-80-262-112-570-199-845-63-200-242-643-377-682 2 69 83 137 125 209 42 70 85 157 121 241 145 333 221 788 296 1153 16 80 46 208 72 289 50 157 71 209 142 216-33-89-55-108 6-196 28-41 101-132 185-91 80 39 13 137 91 193 91 66 184 4 231-36 33 64 3 42 53 98 83 5 95-7 164-32-24 379-814 902-1485-242-166-283-218-531-269-617-78 106 241 659 299 747 54 82 114 147 161 219-82 157-423 396-639 486-79 32-213 49-282 98 27 19 4 15 55 15 45 0 186-51 230-69 99-39 169-91 253-125 108 165 92 223-217 363-234 106-388 55-500-87 11-67 19 3 51-78l-238 6c-65 235-188 281-474 186-223-74-339-188-311-469 51 31 81 59 138 100 53 39 110 87 163 57-63-68-191-92-344-280-365-453-45-1065 413-1200 396-117 702 10 871-418 118-297 90-706 372-755 60-10 98 1 135-25-104-70-90 59-254-231l244-11c-23-45 36-48-179-33-181 13-495 10-675 7-318-6-1323-30-1432-373-54-170 90-517 261-582-143-255-1354-1179-1618-1443-241-241-455-516-589-941-171-540 39-722 332-1057-258 111-458 430-423 608-85-718 99-1349 485-1908 58-84 112-156 170-232 260-342 660-704 1050-963 227-151 795-471 1120-514 43 44 66 86 97 148 36 72 40 137 112 127 15-56-21-99-50-147-31-51-57-95-88-150 284-131 1e3 -165 1304-187 417-29 963 97 1317 239 801 322 1291 797 1660 1478 624 1150 376 2568-368 3606-159 221-565 717-743 824zm-2502-7746c128 201 481 932 536 1487 10 102-49 71-167 78-86 5-167 24-248 11-96-256-203-482-330-696-173-256-664-748-826-851 29 67 584 553 779 857 66 120 306 579 296 712l-738 138c-234-246-126-218-472-501-150-122-385-304-618-354 117 93 484 205 812 604 63 77 162 181 210 270l-515 195c-171 72-321 157-473 251-492 305-813 597-1157 1018-941 1151-993 2706 19 3644 317 294 626 502 887 744 48 44 50 52 94 87l375 349c66 73 136 108 190 192-105 94-300 424-213 636 168 408 1465 392 1890 383 155-3 234 75 264 206-365 226-196 429-396 835-157 317-509 278-885 356 0-480-68-802-329-1073-188-196-623-437-1037-366 422 156 46 1551 1040 1677-166 251-309 500-131 869 110 228 121 97 120 278-4 562 297 132 485 1070-877 276-1412-423-2474-440-438-7-919 142-1062 443-109 229-45 425 48 628 61 134-140 297 23 619 535 1056 3296 503 4114-22 188-121 245-175 342-419 45 39 52 62 90 103 40 43 74 69 117 104 209 173 566 344 817 451 408 175 875 293 1369 329 472 34 1074-13 1394-263 119-93 101-166 175-248 69-77 538-172 622-667 90-531-287-893-682-1003-1150-322-1787 569-3189 453-364-30-291-44-570-715 141-160 317-105 155-403l384-338c105 114 418 361 684 357 322-5 500-233 607-436 289 136 347-162 131-262 34-286-37-201-118-204-18-1-83-28-106-52-36-38-32-83-45-140-140-54-111 18-181-138-119-269-405-666-459-830-235-715-482-447-276-899 95-209 316-129 746-362 640-346 466-617 406-965 402-281 962-1076 1185-1591 485-1119 400-2252-286-3272-615-915-1699-1365-2814-1371-27-261-393-1362-608-1554z"/>
  </g>
 </g>
</svg>
