<?xml version="1.0" encoding="UTF-8" standalone="no"?>
<!DOCTYPE svg  PUBLIC '-//W3C//DTD SVG 1.1//EN'  'http://www.w3.org/Graphics/SVG/1.1/DTD/svg11.dtd'>
<!-- Creator: CorelDRAW X5 -->
<svg style="shape-rendering:geometricPrecision;text-rendering:geometricPrecision;image-rendering:optimizeQuality" xmlns="http://www.w3.org/2000/svg" fill-rule="evenodd" xml:space="preserve" height="500px" width="500px" clip-rule="evenodd" xmlns:xlink="http://www.w3.org/1999/xlink" viewBox="0 0 12764 16208">
 <defs>
  <style type="text/css">
   <![CDATA[
    .fil4 {fill:#1E66AF}
    .fil2 {fill:#373435}
    .fil3 {fill:#A54733}
    .fil0 {fill:#D6573C}
    .fil5 {fill:#F6B736}
    .fil1 {fill:#FDD1A1}
    .fil6 {fill:rgb(39, 39, 39)}
   ]]>
  </style>
 </defs>
 <g id="Layer_x0020_1">
  <path class="fil0" d="m6352 9078c41 234 106 470 176 700-562 223-1132 403-1718 553l-49 26c-482-576-984-1124-1342-1773 348-138 723-240 1082-366 582 353 1206 626 1851 860z"/>
  <path class="fil1" d="m4711 5595c-24 4-28-26-38-44l128-499 46 16-136 528z"/>
  <path class="fil2" d="m4757 8587l-1 12c-303 24-624 28-869 216-19 22-17 64-47 68-66-64-119-145-155-219l2-29c244-100 498-163 746-238 108 62 220 136 323 191z"/>
  <path class="fil2" d="m5792 9277l30 151c97 43 195 74 300 100 58-60 99-128 145-196l29 2c27 114 77 225 80 343-165 64-329 128-504 162-22-26-2-47-18-72-53-81-145-118-230-160l-1049-371c-92-37-210-111-225-225 105-211 350-162 546-183 345 51 712 132 895 448z"/>
  <path class="fil2" d="m6188 9136c12 7 16 25 3 36l-144 101c-40-21-55-58-88-90-32-44-71-71-111-97 1-18-27-38 4-53 117 21 220 70 335 103z"/>
  <path class="fil2" d="m5473 9808c34 20 74 36 83 78-63 131-226 95-347 127-118-3-228-30-319-90-50-45 42-163-59-153-81-24-164-19-232 18-120-57-254-162-290-301 7-11 14-35 38-39 390 84 765 207 1126 360z"/>
  <path class="fil2" d="m5129 10125l-7 17c-108 21-201 73-304 107l-29-8-150-207 20-28c157 30 321 60 470 119z"/>
  <path class="fil2" d="m8469 9858c142-1 266-74 400-123l5 12c-144 101-332 229-525 131-56-40-117-92-129-164l9-46c40 98 134 176 240 190zm-6357-6690l-6 5c-214 13-447 36-585 209-64 60-144 107-192 186 30 145 113 293 236 385 18 1 35 3 45 27-166 11-241-179-302-302-2-47-57-99-18-143 132-167 299-349 515-380 101-4 209-31 307 12zm-153-468l-7 12c-321-55-637-20-962-34-104-26-234-36-340-44 98-46 243-5 355 4 307 12 611-12 914 41 11 12 29 8 40 21zm820 4141c1 681-49 1399 126 2034 59 153 166 303 249 451-195-80-301-313-352-501-99-635-105-1316-41-1986l18 1zm2580 5638l-11 70c-62-40-67-129-103-191-9-42-29-85-14-126l17 7 112 240zm-359-5199c86 261 178 517 247 776v6c-92-114-121-264-176-404-37-127-75-254-94-386l23 8zm209-481c1 65 30 144-16 200-31-56-18-149-1-213l17 13zm313-603c-7 11-14 23-20 22-112-3-208-58-313-78-22-19-44-45-42-68 134 22 261 62 375 124zm235-59c6 7 5 12 5 18l-18 5c-198-116-430-181-662-241 50-32 124-2 183 3 173 55 346 116 492 216zm-572-1240c112 80 238 137 349 234-31 169-113 311-166 461 14 48 57 99 29 156-33-38-64-88-78-142 65-143 134-280 176-436-105-20-175-102-266-151l-113-68c-55 25-111 57-169 40 1-18 31-15 49-20 62-31 115-104 189-74zm420 831c-1 18-14 29-26 33-34-14-47-75-94-78 32-33 100 2 121 45zm602-356c6 6 16 19 4 24-65 1-117-55-185-18-59-4-73-79-132-83 0-6-23-8-11-19 110 26 220 64 324 96zm212-66l-12 5c-61-52-108-126-184-144-138 25-277 67-417 45-23-14-51-34-61-58l412-51c132-19 202 140 262 204zm-1028-92c-48 2-89-47-138-21-30 3-73 35-95-27-35-3-101 4-116-33 125-8 254 8 350 69l-1 12zm1408 382c-47 67-115 103-161 171 33 32 48 69 32 115-15 35-35 68-71 83 14-34 41-80 21-123l-50-39c54-85 142-149 211-209l18 2z"/>
  <path class="fil1" d="m6567 6231c-41 381-99 821-15 1188 6 1 11 13 18 1 6-147 12-307 29-453 188 239 159 616 42 903-121 269-272 529-495 736-188-91-383-172-563-286 64-72 135-137 188-210 231-314 497-613 546-1011l-5-6c-65 78-68 196-116 281-174 336-398 632-646 926-441-271-865-594-1239-966 152-207 253-442 303-704 44 122 75 248 144 354 212 93 438 152 658 211l210 40c165-64 303-172 442-279l256-246 155-468c30-9 60-7 90-11zm-1280-1798c-21 123 59 224 136 306 45 21 83 66 122 98-134 49-288-22-388-113l-13 11c106 162 302 231 499 205 54-8 103-33 141-66-58-87-143-141-183-239-3-42 46-62 83-77 62 117 186 198 329 180 187 26 319-141 504-91 58 22 121 45 158 101-27 116-99 211-171 295 68 112 111 245 60 377l-49 168c91 54 129-67 215-96 42-3 62 40 90 60-35 216-98 418-195 600-57 43-149 6-194 62l-149 474c-205 203-416 329-642 495-292-41-563-138-841-219-97-203-156-426-186-653 73-485 192-944 327-1395 76-219 124-446 239-644l108 68c68-36 131-85 208-90-63 43-196 79-210 185z"/>
  <path class="fil0" d="m3949 4814c343 459 354 1081 234 1634-29 217-109 406-114 636-24-2-45-33-55-58-11-782-56-1649-772-2101-147-82-358-111-524-41-22-19-69-17-67-52 288-208 612-420 1004-348 117 92 209 206 293 330z"/>
  <path class="fil0" d="m4664 5361c-1 95-103 252 29 316-57 280-211 587-97 874-85 260-176 519-319 750-51-34-111-97-154-154 61-410 186-790 207-1215 8-260-8-509-103-736 157 30 307 83 437 164z"/>
  <path class="fil0" d="m7153 6685c96 138 214 289 200 471-59 605-483 1034-932 1407-1 12 10 25 16 19 155-89 265-210 405-341 322-336 589-729 557-1223 161-11 332-10 489 26 98 185 32 423-92 579-360 446-873 808-1367 1071-82-12-163-42-237-72 250-247 421-541 551-851 95-306 107-696-136-910-19-66-1-142 5-213 177 8 361 4 542 36z"/>
  <path class="fil0" d="m12493 8182c-535-119-1094-156-1661-177-620-13-1207 72-1788 163-126 26-247 58-369 101l-11-13c15-117 37-251 4-366 717-311 1418-736 2204-864 389-65 781 72 1043 365 224 242 397 522 578 791z"/>
  <path class="fil3" d="m9828 8141c-57 120-88 289-14 407 217 247 584 329 717 671 207 466-63 960-366 1285-205 191-445 314-693 390-654 115-1155-291-1762-397-159-12-308 0-426 79-158-172-327-363-478-552 107-81 200-132 296-231 268 44 524 112 779 185 162 54 281 187 451 212 137-7 273-14 406-39 91 114 200 241 366 236 77-6 167-17 202-91 142 5 179-175 300-207 45-50 73-107 72-172 179-99 110-352 94-519-13-60-70-88-115-122-154-77-312-172-502-163-241 58-478 134-724 175-130-75-267-145-390-237 294-137 527-385 610-686 372-143 782-164 1177-222z"/>
  <path class="fil1" d="m1586 1341l43 198c-24 10-58-4-61 31-2 331 26 653 201 921 33 38 76 83 130 75-69-106-138-212-181-334-61-200-98-410-99-635 131-1 264 26 379 71 56 117 57 253 101 375 61 200 128 400 239 580-68 107-129 215-168 336-436 126-960-69-1357 167-36 9-72 18-98 40 117 15 223-54 327-99 364-43 756 11 1111-56 14 125 45 258 101 369 12 1 18-5 24-10-5-160-99-327-10-486 61-102 111-210 178-306 113-9 230 12 327 55-37 175-121 340-136 528 35 86 82 166 117 246-94 224-268 399-458 568-162 29-339 21-507 49 72 65 203 63 303 65 11 18 27 32 37 56-212 220-517 327-823 244-320-78-494-423-542-717 131 63 261 139 403 150-265-168-547-344-751-620-2-207 56-416 84-621 28 20 49 51 80 42 15-40-23-79-44-116-152-255-145-568-128-874 67-30 134-55 212-54 52 317 80 651 297 905 18 1 27 32 51 22-17-84-96-143-118-234-96-280-169-564-187-867 119-15 262-15 377 18 24 381 41 761 315 1054 28 20 55 51 91 42-100-168-210-348-260-541-54-223-83-462-76-698 161-11 326 2 475 61z"/>
  <path class="fil4" d="m1187 4416c337 156 724 50 975-214 152 178 303 367 375 585 3 266-105 513-239 721 29 2 50-32 70-60 117-139 189-299 232-473 315 131 363 508 478 783 32-27 19-87 10-123-41-234-135-466-268-666 280-96 525 106 699 297 390 474 388 1107 436 1708l22 102c518 573 1093 1014 1733 1383 199 104 398 203 618 267l124 4c486-234 962-570 1331-979 98-123 197-251 221-415 203 57 449 165 514 389 109 269 104 641-69 888-192 263-514 368-800 470 32-104 117-210 125-322-67 24-67 107-112 151-238 479-650 973-1160 1152-355 150-743 191-1149 171 418-127 831-261 1235-430 4-53-34-91-42-139-49-199-117-394-154-604l-73-41c-622-226-1216-497-1781-837l-59 2c-370 119-746 238-1106 375l-2 30c295 543 663 992 1076 1456-342-163-685-325-1007-516l-13 11c341 251 723 441 1112 613 70 88 141 165 225 230l411-110c326 67 676 64 983-7-488 341-1079 402-1697 365-357-57-693-149-986-331-445-443-809-862-1185-1352-228-343-424-719-450-1142-30-221-35-458-24-682 192 115 412 180 626 244 36-3 70 11 100 2l-44-45c-304-124-620-243-855-498-278-377-538-769-798-1145-108-139-266-240-413-328-90-214-70-473-56-720 28-359 170-667 341-956 55 282 184 600 475 735zm7084 4864c-184 157-342 370-339 631-242-84-492-139-742-194 141-143 255-317 369-480 133-31 261-80 390-141l323 185z"/>
  <path class="fil4" d="m4275 11366l997 119c71-1 147 11 217 23 57 419 191 825 326 1215-118-3-260-2-382-30l-13 17 3 272c-128-22-257-44-378-88-26 33-42 79-51 120-227-124-248-386-284-614 102 55 183 162 284 223 99 25 210 34 312 24-60-58-173-55-261-68l-46-16c-255-298-618-426-898-697-249-221-459-497-565-807 218 165 471 255 740 306z"/>
  <path class="fil4" d="m7947 11930c201 619 22 1316-308 1828-189-3-360-81-513-170-383-255-510-673-742-1040-225-384-502-773-783-1120 3-118 94-218 160-313 302-391 754-634 1206-747 432 454 770 983 979 1561z"/>
  <path class="fil3" d="m5875 12858c-101 4-219-5-312-18l-19 16 20 268c-141-17-280-51-413-91-41-3-39 39-52 61-22-25-57-22-79-53l44-109 383 101 13-11c-11-89-2-201-1-290l377 29 40 98z"/>
  <path class="fil0" d="m5895 12907c46 92 80 195 168 279l57-49 33 38c107 446 281 874 345 1341-215-123-443-313-506-566l-75-491c-69-100-209-123-318-179-149-59-311-107-461-166l9-41c140 23 283 81 437 93l20-28c7-94-28-173-9-261 94 13 200 16 300 29z"/>
  <path class="fil0" d="m7142 13684c62 271 145 567 57 862-48 8-93-19-127-45-180-121-337-305-411-499-72-290-126-584-241-859-50-122-123-240-155-367 9-35 41-74 77-83 222 349 412 783 799 991z"/>
  <path class="fil5" d="m6023 10573c-27-31-41-86-61-129 86-47 193-115 257-187l200-61c-105 140-235 277-396 377z"/>
  <path class="fil5" d="m3923 10564c23 79 47 152 71 225-236-83-445-212-640-369l-29-162c179 138 391 220 597 307z"/>
  <path class="fil5" d="m5781 10714c-158 59-311 124-480 158 34-51 34-133 9-189l-27-37c144-24 282-49 422-98 26 50 57 105 76 166z"/>
  <path class="fil5" d="m5276 10740c8 48-2 106-34 139-127 32-270 44-406 51-53-4-105-26-118-80-19-55-3-107 18-153 155-12 315-17 471-40 28 14 61 46 70 82z"/>
  <path class="fil5" d="m4677 10688c-28 63-61 173-1 237l-13 11c-135-10-270-27-392-60-41-74-47-158-76-231 157 30 315 48 482 43z"/>
  <path class="fil2" d="m8420 9872c142-1 266-74 400-123l5 12c-144 101-332 229-525 131-56-40-117-92-129-164l9-46c40 98 134 176 240 190zm-6357-6690l-6 5c-214 13-447 36-585 209-64 60-144 107-192 186 30 145 113 293 236 385 18 1 35 3 45 27-166 11-241-179-302-302-2-47-57-99-18-143 132-167 299-349 515-380 101-4 209-31 307 12zm-153-468l-7 12c-321-55-637-20-962-34-104-26-234-36-340-44 98-46 243-5 355 4 307 12 611-12 914 41 11 12 29 8 40 21zm820 4141c1 681-49 1399 126 2034 59 153 166 303 249 451-195-80-301-313-352-501-99-635-105-1316-41-1986l18 1zm2580 5638l-11 70c-62-40-67-129-103-191-9-42-29-85-14-126l17 7 112 240zm-359-5199c86 261 178 517 247 776v6c-92-114-121-264-176-404-37-127-75-254-94-386l23 8zm209-481c1 65 30 144-16 200-31-56-18-149-1-213l17 13zm313-603c-7 11-14 23-20 22-112-3-208-58-313-78-22-19-44-45-42-68 134 22 261 62 375 124zm235-59c6 7 5 12 5 18l-18 5c-198-116-430-181-662-241 50-32 124-2 183 3 173 55 346 116 492 216zm-572-1240c112 80 238 137 349 234-31 169-113 311-166 461 14 48 57 99 29 156-33-38-64-88-78-142 65-143 134-280 176-436-105-20-175-102-266-151l-113-68c-55 25-111 57-169 40 1-18 31-15 49-20 62-31 115-104 189-74zm420 831c-1 18-14 29-26 33-34-14-47-75-94-78 32-33 100 2 121 45zm602-356c6 6 16 19 4 24-65 1-117-55-185-18-59-4-73-79-132-83 0-6-23-8-11-19 110 26 220 64 324 96zm212-66l-12 5c-61-52-108-127-184-144-138 25-277 67-417 45-23-14-51-34-61-58l412-51c132-19 202 140 262 204zm-1028-92c-48 2-89-47-138-21-30 3-73 35-95-27-35-3-101 4-116-33 125-8 254 8 350 69l-1 12zm1408 382c-47 67-115 103-161 171 33 32 48 69 32 115-15 35-35 68-71 83 14-34 41-80 21-123l-50-39c54-85 142-149 211-209l18 2z"/>
  <path class="fil5" d="m5028 10123c-56 37-140 48-207 79-56-46-93-96-124-152 118 9 215 52 332 73zm-371-1555c-280 20-578 50-805 233-6 5-7 23-20 22-43-44-81-101-105-162 226-95 468-165 704-223l226 130zm997 580c76 83 140 182 119 293 114 50 224 88 339 127 79-29 105-128 167-176l62 265c-141 60-287 108-436 132-50-122-188-169-296-224-339-127-693-225-1031-364-69-29-142-76-183-156 0-83 98-129 165-153 258-45 552-22 787 79 116 27 210 117 306 177zm490 9c-32 27-63 54-106 69l-131-134c88 13 163 36 238 66zm-636 720c16 25-26 34-39 50-165 64-391 76-542-24-32-50 28-134-47-157-86-36-210-34-301-6-90-54-179-126-231-225l2-23c408 79 801 198 1159 386z"/>
  <path class="fil1" d="m9240 10291c-46 62-146 48-215 31-92-31-163-107-228-184l22-51c102 132 272 157 422 204zm461-899c25 132 68 266 33 405-20 34-47 67-88 70l-145-35c34-62 97-111 91-188l-131-135c20-34 68-36 105-51-5-18-22-20-34-20-52-10-99 52-142 1l-154-154c-17-1-19 16-14 28 97 126 211 247 316 356-81 124-168 253-282 351-84 12-172-1-233-48 30-81 88-141 106-223 29 2 74 35 112 9-84-66-173-126-251-197-12-1-23-2-19 10l32 50c-37 86-85 183-81 284-80 35-99 128-156 183-172 4-343 68-516 19-92-37-169-108-260-151-50-270 133-492 329-655 169 108 355 10 523-31l375-113c173 61 340 127 485 233zm-703 513c-60-70 7-165 36-240l50 45-86 194zm622-5c0 71-18 152-85 183-83 5-164-19-240-37l174-182 151 35zm-635 93c71 71 177 79 278 75l196 63c-22 45-72 89-121 114-120 20-228-47-338-73-57-22-114-50-158-101 27-45 55-96 99-128 35 3 21 37 43 51z"/>
  <path class="fil6" d="m1636 1309c30 73 47 158 58 235 116 27 252 25 347 98 100 310 201 619 337 914 22 20 19-16 37-21 127-37 284 4 391 66 22 19 26 43 18 72l-116 423c22 108 121 199 94 315-60 244-270 429-449 598-49 20-87 53-141 60l5 18c161 214 365 407 403 670 300-208 624-419 1020-335 249 150 429 418 544 687 174 43 354 87 488 198 54-91 41-227 119-310l48-14c-68-189 70-362 79-562-22-168 140-208 220-320 6-148 98-270 216-344 318-64 612 113 847 297l131 146 318 102c133 117 147 319 217 478 30 233-82 443-105 667 47 9 86 42 106 79-17 224-99 431-185 631l-51 43-17 377c177 8 390 13 564 62 94 84 143 206 200 317 163-35 362-7 519 29 66 64 76 166 105 251 298 53 576 281 641 582 777-330 1502-830 2365-888 296-6 575 69 792 245 328 274 557 676 765 1048l-2 24c-523-130-1095-156-1643-175-337-8-670 19-999 58-83 82-95 235-68 350 117 246 411 269 578 483 265 240 306 622 203 968-154 384-421 772-831 947-278 156-642 187-965 79-470-113-865-440-1391-380-42 9-85 35-122 50h-6c336 399 579 850 743 1330 155 521 21 1173-216 1640l-147 219c-180 27-339-44-489-97 61 277 171 623 18 907-211-28-374-206-498-370-203-282-204-643-316-965-63-182-162-356-188-553 21-45 41-74 85-106-215-360-452-733-718-1050 35 394 154 764 291 1129 61 129 104 263 183 382 29 8 51-43 84-12 78 137 89 297 143 443 86 344 243 676 244 1049-124-4-230-95-331-162-277-240-326-605-364-951-424-175-1061-207-1159-770-21-108-37-216-39-334-462-296-1009-641-1196-1206-135-318-191-666-247-1008-450-455-904-863-1208-1437-287-495-331-1073-315-1658-258-180-401-481-583-726-154-231-266-458-463-669-108-139-322-191-337-387-169-569 2-1242 361-1676-131-140-347-258-324-481 16-206 43-405 106-595-121-270-143-597-83-906 69-54 160-76 255-87 21-46-34-174 66-166 113-3 249-4 359 22 10-46 13-93 34-133 182-51 397-5 563 67zm6635 7971c-184 157-342 370-339 631-242-84-492-139-742-194 141-143 255-317 369-480 133-31 261-80 390-141l323 185zm969 1010c-46 62-146 48-215 31-92-31-163-107-228-184l22-51c102 132 272 157 422 204zm461-899c25 132 68 266 33 405-20 34-47 67-88 70l-145-35c34-62 97-111 91-188l-131-135c20-34 68-36 105-51-5-18-22-20-34-20-52-10-99 52-142 1l-154-154c-17-1-19 16-14 28 97 126 211 247 316 356-81 124-168 253-282 351-84 12-172-1-233-48 30-81 88-141 106-223 29 2 74 35 112 9-84-66-173-126-251-197-12-1-23-2-19 10l32 50c-37 86-85 183-81 284-80 35-99 128-156 183-172 4-343 68-516 19-92-37-169-108-260-151-50-270 133-492 329-655 169 108 355 10 523-31l375-113c173 61 340 127 485 233zm-703 513c-60-70 7-165 36-240l50 45-86 194zm622-5c0 71-18 152-85 183-83 5-164-19-240-37l174-182 151 35zm-635 93c71 71 177 79 278 75l196 63c-22 45-72 89-121 114-120 20-228-47-338-73-57-22-114-50-158-101 27-45 55-96 99-128 35 3 21 37 43 51zm-2633-915c41 234 106 470 176 700-562 223-1132 403-1718 553l-49 26c-482-576-984-1124-1342-1773 348-138 723-240 1082-366 582 353 1206 626 1851 860zm-1675 1610c-28 63-61 173-1 237l-13 11c-135-10-270-27-392-60-41-74-47-158-76-231 157 30 315 48 482 43zm599 52c8 48-2 106-34 139-127 32-270 44-406 51-53-4-105-26-118-80-19-55-3-107 18-153 155-12 315-17 471-40 28 14 61 46 70 82zm505-26c-158 59-311 124-480 158 34-51 34-133 9-189l-27-37c144-24 282-49 422-98 26 50 57 105 76 166zm-1858-150c23 79 47 152 71 225-236-83-445-212-640-369l-29-162c179 138 391 220 597 307zm2100 10c-27-31-41-86-61-129 86-47 193-115 257-187l200-61c-105 140-235 277-396 377zm1119 3111c62 271 145 567 57 862-48 8-93-19-127-45-180-121-337-305-411-499-72-290-126-584-241-859-50-122-123-240-155-367 9-35 41-74 77-83 222 349 412 783 799 991zm-1247-777c46 92 80 195 168 279l57-49 33 38c107 446 281 874 345 1341-215-123-443-313-506-566l-75-491c-69-100-209-123-318-179-149-59-311-107-461-166l9-41c140 23 283 81 437 93l20-28c7-94-28-173-9-261 94 13 200 16 300 29zm-20-49c-101 4-219-5-312-18l-19 16 20 268c-141-17-280-51-413-91-41-3-39 39-52 61-22-25-57-22-79-53l44-109 383 101 13-11c-11-89-2-201-1-290l377 29 40 98zm2072-928c201 619 22 1316-308 1828-189-3-360-81-513-170-383-255-510-673-742-1040-225-384-502-773-783-1120 3-118 94-218 160-313 302-391 754-634 1206-747 432 454 770 983 979 1561zm-3672-563l997 119c71-1 147 11 217 23 57 419 191 825 326 1215-118-3-260-2-382-30l-13 17 3 272c-128-22-257-44-378-88-26 33-42 79-51 120-227-124-248-386-284-614 102 55 183 162 284 223 99 25 210 34 312 24-60-58-173-55-261-68l-46-16c-255-298-618-426-898-697-249-221-459-497-565-807 218 165 471 255 740 306zm-3088-6950c337 156 724 50 975-214 152 178 303 367 375 585 3 266-105 513-239 721 29 2 50-32 70-60 117-139 189-299 232-473 315 131 363 508 478 783 32-27 19-87 10-123-41-234-135-466-268-666 280-96 525 106 699 297 390 474 388 1107 436 1708l22 102c518 573 1093 1014 1733 1383 199 104 398 203 618 267l124 4c486-234 962-570 1331-979 98-123 197-251 221-415 203 57 449 165 514 389 109 269 104 641-69 888-192 263-514 368-800 470 32-104 117-210 125-322-67 24-67 107-112 151-238 479-650 973-1160 1152-355 150-743 191-1149 171 418-127 831-261 1235-430 4-53-34-91-42-139-49-199-117-394-154-604l-73-41c-622-226-1216-497-1781-837l-59 2c-370 119-746 238-1106 375l-2 30c295 543 663 992 1076 1456-342-163-685-325-1007-516l-13 11c341 251 723 441 1112 613 70 88 141 165 225 230l411-110c326 67 676 64 983-7-488 341-1079 402-1697 365-357-57-693-149-986-331-445-443-809-862-1185-1352-228-343-424-719-450-1142-30-221-35-458-24-682 192 115 412 180 626 244 36-3 70 11 100 2l-44-45c-304-124-620-243-855-498-278-377-538-769-798-1145-108-139-266-240-413-328-90-214-70-473-56-720 28-359 170-667 341-956 55 282 184 600 475 735zm399-3076l43 198c-24 10-58-4-61 31-2 331 26 653 201 921 33 38 76 83 130 75-69-106-138-212-181-334-61-200-98-410-99-635 131-1 264 26 379 71 56 117 57 253 101 375 61 200 128 400 239 580-68 107-129 215-168 336-436 126-960-69-1357 167-36 9-72 18-98 40 117 15 223-54 327-99 364-43 756 11 1111-56 14 125 45 258 101 369 12 1 18-5 24-10-5-160-99-327-10-486 61-102 111-210 178-306 113-9 230 12 327 55-37 175-121 340-136 528 35 86 82 166 117 246-94 224-268 399-458 568-162 29-339 21-507 49 72 65 203 63 303 65 11 18 27 32 37 56-212 220-517 327-823 244-320-78-494-423-542-717 131 63 261 139 403 150-265-168-547-344-751-620-2-207 56-416 84-621 28 20 49 51 80 42 15-40-23-79-44-116-152-255-145-568-128-874 67-30 134-55 212-54 52 317 80 651 297 905 18 1 27 32 51 22-17-84-96-143-118-234-96-280-169-564-187-867 119-15 262-15 377 18 24 381 41 761 315 1054 28 20 55 51 91 42-100-168-210-348-260-541-54-223-83-462-76-698 161-11 326 2 475 61zm8241 6800c-57 120-88 289-14 407 217 247 584 329 717 671 207 466-63 960-366 1285-205 191-445 314-693 390-654 115-1155-291-1762-397-159-12-308 0-426 79-158-172-327-363-478-552 107-81 200-132 296-231 268 44 524 112 779 185 162 54 281 187 451 212 137-7 273-14 406-39 91 114 200 241 366 236 77-6 167-17 202-91 142 5 179-175 300-207 45-50 73-107 72-172 179-99 110-352 94-519-13-60-70-88-115-122-154-77-312-172-502-163-241 58-478 134-724 175-130-75-267-145-390-237 294-137 527-385 610-686 372-143 782-164 1177-222zm2665 42c-535-119-1094-156-1661-177-620-13-1207 72-1788 163-126 26-247 58-369 101l-11-13c15-117 37-251 4-366 717-311 1418-736 2204-864 389-65 781 72 1043 365 224 242 397 522 578 791zm-5339-1498c96 138 214 289 200 471-59 605-483 1034-932 1407-1 12 10 25 16 19 155-89 265-210 405-341 322-336 589-729 557-1223 161-11 332-10 489 26 98 185 32 423-92 579-360 446-873 808-1367 1071-82-12-163-42-237-72 250-247 421-541 551-851 95-306 107-696-136-910-19-66-1-142 5-213 177 8 361 4 542 36zm-2489-1324c-1 95-103 252 29 316-57 280-211 587-97 874-85 260-176 519-319 750-51-34-111-97-154-154 61-410 186-790 207-1215 8-260-8-509-103-736 157 30 307 83 437 164zm-715-547c343 459 354 1081 234 1634-29 217-109 406-114 636-24-2-45-33-55-58-11-782-56-1649-772-2101-147-82-358-111-524-41-22-19-69-17-67-52 288-208 612-420 1004-348 117 92 209 206 293 330zm2618 1416c-41 381-99 821-15 1188 6 1 11 13 18 1 6-147 12-307 29-453 188 239 159 616 42 903-121 269-272 529-495 736-188-91-383-172-563-286 64-72 135-137 188-210 231-314 497-613 546-1011l-5-6c-65 78-68 196-116 281-174 336-398 632-646 926-441-271-865-594-1239-966 152-207 253-442 303-704 44 122 75 248 144 354 212 93 438 152 658 211l210 40c165-64 303-172 442-279l256-246 155-468c30-9 60-7 90-11zm-1280-1798c-21 123 59 224 136 306 45 21 83 66 122 98-134 49-288-22-388-113l-13 11c106 162 302 231 499 205 54-8 103-33 141-66-58-87-143-141-183-239-3-42 46-62 83-77 62 117 186 198 329 180 187 26 319-141 504-91 58 22 121 45 158 101-27 116-99 211-171 295 68 112 111 245 60 377l-49 168c91 54 129-67 215-96 42-3 62 40 90 60-35 216-98 418-195 600-57 43-149 6-194 62l-149 474c-205 203-416 329-642 495-292-41-563-138-841-219-97-203-156-426-186-653 73-485 192-944 327-1395 76-219 124-446 239-644l108 68c68-36 131-85 208-90-63 43-196 79-210 185z"/>
 </g>
</svg>
