<?xml version="1.0" encoding="UTF-8"?>
<!DOCTYPE svg PUBLIC "-//W3C//DTD SVG 1.1//EN" "http://www.w3.org/Graphics/SVG/1.1/DTD/svg11.dtd">
<!-- Creator: CorelDRAW X5 -->
<svg xmlns="http://www.w3.org/2000/svg" xml:space="preserve" height="500px" width="500px" style="shape-rendering:geometricPrecision; text-rendering:geometricPrecision; image-rendering:optimizeQuality; fill-rule:evenodd; clip-rule:evenodd"
viewBox="0 0 12764 16208"
 xmlns:xlink="http://www.w3.org/1999/xlink"
 version="1.0">
 <defs>
  <style type="text/css">
   <![CDATA[
    .str0 {stroke:black;stroke-width:3}
    .fil4 {fill:black}
    .fil2 {fill:rgb(39, 39, 39)}
    .fil3 {fill:#F50000}
    .fil6 {fill:#FFA800}
    .fil7 {fill:#FFB9B9}
    .fil0 {fill:#FFE7D6}
    .fil1 {fill:yellow}
    .fil5 {fill:white}
   ]]>
  </style>
 </defs>
 <g id="Layer_x0020_1">
  <metadata id="CorelCorpID_0Corel-Layer"/>
  <path class="fil0" d="M2895 6919c-17,2 -34,4 -50,7 16,-2 33,-5 50,-7zm-55 8l-13 2c4,-1 9,-1 13,-2zm-20 3c-4,1 -9,1 -13,2 4,-1 9,-1 13,-2zm-17 3c-16,3 -31,5 -46,8 15,-3 30,-5 46,-8zm-49 9c-4,1 -9,2 -13,2 4,-1 9,-2 13,-2zm-18 3c-4,1 -9,2 -13,3 4,-1 9,-2 13,-3zm-16 3c-20,4 -40,9 -59,13 19,-5 39,-9 59,-13zm-61 14c-4,1 -9,2 -13,3 4,-1 9,-2 13,-3zm-16 4c-4,1 -9,2 -13,3 4,-1 9,-2 13,-3zm-14 4c-19,5 -37,10 -54,16 17,-6 36,-11 54,-16zm-55 16c-4,1 -8,3 -13,4 4,-1 8,-3 13,-4zm-14 5c-4,1 -8,3 -12,4 4,-1 8,-3 12,-4zm-13 4c-17,6 -33,12 -49,18 16,-6 32,-13 49,-18zm-50 19c-44,18 -82,38 -116,61 34,-22 73,-42 116,-61zm4681 63c-4,-4 -8,-8 -12,-12 4,4 8,8 12,12zm-14 -14l-10 -10c3,3 6,7 10,10zm-41 -44c-2,-2 -4,-4 -6,-7 2,2 4,4 6,7zm-8 -9c-2,-3 -5,-5 -7,-8 2,2 4,5 7,8zm-8 -9c-2,-2 -3,-4 -5,-6 1,2 3,4 5,6zm-6 -8c-1,-1 -2,-3 -3,-4 1,1 2,3 3,4zm-5 -6c-1,-1 -2,-2 -2,-3 1,1 2,2 2,3zm-4 -5c-1,-1 -1,-2 -2,-3 1,1 1,2 2,3zm-3 -4c0,-1 -1,-1 -1,-2 0,1 1,1 1,2zm-2 -3c0,-1 -1,-2 -1,-2 0,1 0,1 1,2zm3372 -5152c-1,-3 -1,-6 -2,-9 1,3 1,6 2,9zm-6 -24c-1,-3 -1,-5 -2,-8 1,3 1,5 2,8zm-14 -54c-1,-2 -1,-5 -2,-7 1,2 1,5 2,7zm-21 -68c-1,-3 -2,-6 -3,-9 1,3 2,6 3,9zm-19 -53c-1,-2 -2,-5 -3,-7 1,2 2,5 3,7zm-9 -22c-1,-3 -2,-6 -4,-9 1,3 2,6 4,9zm-18 -44c-1,-3 -2,-6 -4,-8l4 8zm-10 -22c-1,-2 -2,-5 -3,-7 -3,-7 -6,-13 -10,-20 -1,-2 -2,-5 -4,-7 1,2 2,5 4,7m-10 -21c-2,-3 -3,-6 -5,-9 2,3 3,6 5,9zm-11 -20c-2,-3 -3,-7 -5,-10 2,3 4,7 5,10zm-11 -20c-2,-3 -4,-7 -5,-10 2,3 4,7 5,10zm-12 -21c-2,-3 -3,-6 -5,-9 2,3 3,6 5,9zm-12 -21c-3,-5 -6,-10 -9,-15 3,5 6,10 9,15zm-16 -26c-2,-3 -4,-6 -6,-10 2,3 4,6 6,10zm-12 -19c-2,-3 -4,-7 -6,-10 2,3 4,6 6,10zm-12 -19c-2,-3 -5,-7 -7,-10 2,3 5,7 7,10zm-13 -19c-2,-3 -5,-7 -7,-10 2,3 5,7 7,10zm-13 -18c-6,-9 -12,-17 -19,-25 6,8 13,17 19,25zm-20 -27c-3,-4 -6,-7 -9,-11 3,4 6,7 9,11zm-14 -18c-3,-4 -6,-7 -8,-11 3,4 6,7 8,11zm-14 -17c-3,-4 -6,-7 -9,-11 3,4 6,7 9,11zm-14 -17c-3,-4 -6,-7 -9,-11 3,4 6,7 9,11zm-14 -16c-11,-13 -23,-26 -35,-39 12,13 23,26 35,39zm-38 -43c-3,-4 -7,-7 -11,-11 4,4 7,7 11,11zm-15 -16c-3,-4 -7,-7 -10,-10 3,3 7,7 10,10zm-15 -16c-4,-4 -7,-7 -11,-11 4,4 7,7 11,11zm-15 -14c-14,-13 -27,-26 -42,-39 14,13 28,26 42,39zm-43 -39c-4,-4 -8,-7 -12,-11 4,4 8,7 12,11zm-17 -15c-4,-3 -8,-7 -12,-10 4,3 8,7 12,10zm-16 -14c-4,-3 -8,-7 -13,-10 4,3 8,7 13,10zm-17 -14c-20,-16 -41,-32 -62,-47 21,15 42,31 62,47zm-63 -48c-5,-4 -10,-7 -15,-11 5,3 10,7 15,11zm-18 -12c-5,-3 -10,-7 -15,-10 5,3 10,7 15,10zm-17 -12c-22,-15 -45,-29 -68,-43 23,14 46,28 68,43zm-69 -43c-5,-3 -10,-6 -16,-9 5,3 10,6 16,9zm-20 -11c-5,-3 -10,-6 -15,-8 5,3 10,6 15,8zm-19 -10c-24,-13 -48,-25 -72,-37 25,12 49,24 72,37zm-3684 146c-1,-3 -2,-5 -3,-8l3 8zm-9 -28c-1,-3 -2,-6 -3,-10 1,3 2,6 3,10zm-10 -28c-1,-4 -3,-8 -4,-12 2,4 3,8 4,12zm-11 -28c-2,-5 -4,-9 -6,-14 2,5 4,9 6,14zm-11 -27c-2,-5 -5,-11 -7,-16 2,5 5,11 7,16zm-12 -27c-3,-6 -6,-12 -8,-17 3,6 6,12 8,17zm-14 -28c-3,-6 -6,-11 -9,-16 3,5 6,11 9,16zm4345 655c-1,-2 -2,-5 -3,-7m-5204 5071c-774,-497 -998,-740 -1076,-1166 -34,-174 3,-463 76,-604 62,-118 247,-239 418,-275 157,-34 418,-3 565,62 37,17 73,25 79,20 6,-6 0,-76 -14,-152 -45,-222 -34,-688 17,-888 25,-98 93,-270 149,-376 253,-489 882,-888 1225,-772 118,39 284,216 360,382l53 124 87 -101c104,-118 216,-180 323,-180 371,3 792,621 882,1298 51,368 -45,829 -242,1166 -39,65 -70,121 -70,129 0,6 67,6 149,0 169,-14 360,67 449,194 51,65 51,90 22,250 -70,399 -320,711 -753,932 -227,115 -559,236 -789,286l-95 20 51 -76c28,-42 90,-101 138,-129 45,-31 65,-53 42,-53 -22,0 -135,101 -253,225 -236,250 -388,334 -646,357 -449,42 -823,-258 -1171,-938 -87,-174 -166,-309 -171,-303 -8,8 53,149 138,315 54,113 104,216 131,279 -31,-5 -72,-23 -72,-23z"/>
  <path class="fil1 str0" d="M3650 865l2360 0c65,121 106,254 117,393 6,98 -3,258 -22,354 -34,177 -191,542 -312,722 -59,87 -59,93 -8,79 357,-104 913,-112 1284,-22 267,65 593,202 795,337 70,48 129,87 135,87 3,0 -17,-84 -42,-191 -28,-107 -51,-295 -51,-441 -3,-449 121,-781 404,-1070 101,-103 210,-185 324,-246l1065 0c406,190 696,568 776,1030 90,511 -67,1104 -385,1438 -320,337 -817,458 -1303,309 -76,-22 -140,-37 -146,-34 -3,6 25,107 62,225 149,469 160,946 34,1396 -39,132 -76,320 -87,421 -51,556 -559,1028 -1326,1239 -129,37 -236,76 -236,84 0,34 622,623 943,899l-5625 0 0 -813c204,-120 548,-171 1129,-173 694,0 1730,-126 1716,-205 0,-1 -1,-3 -1,-5l-44 -19c-12,-3 -31,-12 -54,-24l0 0 0 0c-184,-98 -666,-446 -785,-575 -272,-301 -382,-643 -312,-977 20,-95 34,-301 31,-455 -6,-180 8,-351 39,-477 59,-258 253,-652 447,-907 87,-112 157,-208 157,-211 0,-3 -104,0 -230,3 -565,25 -955,-183 -1154,-607 -166,-354 -135,-756 95,-1233 55,-115 126,-225 211,-328zm1505 5735c-774,-497 -998,-740 -1076,-1166 -34,-174 3,-463 76,-604 62,-118 247,-239 418,-275 157,-34 418,-3 565,62 37,17 73,25 79,20 6,-6 0,-76 -14,-152 -45,-222 -34,-688 17,-888 25,-98 93,-270 149,-376 253,-489 882,-888 1225,-772 118,39 284,216 360,382l53 124 87 -101c104,-118 216,-180 323,-180 371,3 792,621 882,1298 51,368 -45,829 -242,1166 -39,65 -70,121 -70,129 0,6 67,6 149,0 169,-14 360,67 449,194 51,65 51,90 22,250 -70,399 -320,711 -753,932 -227,115 -559,236 -789,286l-95 20 51 -76c28,-42 90,-101 138,-129 45,-31 65,-53 42,-53 -22,0 -135,101 -253,225 -236,250 -388,334 -646,357 -449,42 -823,-258 -1171,-938 -87,-174 -166,-309 -171,-303 -8,8 53,149 138,315 54,113 104,216 131,279 -31,-5 -72,-23 -72,-23z"/>
  <path class="fil2" d="M4641 232c-503,118 -983,503 -1202,961 -230,477 -261,879 -95,1233 199,424 590,632 1154,607 126,-3 230,-6 230,-3 0,3 -70,98 -157,211 -194,256 -388,649 -447,907 -31,126 -45,298 -39,477 3,154 -11,360 -31,455 -70,334 39,677 312,977 119,129 601,478 785,575l0 0 0 0c23,12 42,21 54,24l44 19c1,2 1,4 1,5 14,79 -1022,205 -1716,205 -736,3 -1093,84 -1264,284 -163,197 -98,508 180,862 87,107 115,169 115,244 0,56 20,138 42,185 42,79 39,95 -28,267 -84,208 -98,430 -42,649 28,107 28,163 6,233 -84,236 -6,520 185,666 56,42 185,107 286,140 160,53 183,70 183,132 0,107 185,306 435,472l222 146 188 416 188 418 -81 90c-45,48 -90,101 -98,112 -11,14 -138,-3 -284,-34 -716,-154 -1460,-129 -1845,65 -180,93 -379,317 -441,503 -149,441 37,977 475,1387 278,258 640,407 1185,486 258,37 921,37 1222,0 500,-62 1045,-225 1320,-396l126 -79 20 174c62,531 354,932 854,1174 261,126 927,306 1137,306 185,0 624,-81 868,-160 494,-160 885,-433 1031,-722 340,-671 -306,-1609 -1542,-2236 -213,-107 -413,-222 -447,-256 -67,-67 -208,-132 -390,-180 -121,-31 -135,-45 -331,-362 -115,-183 -202,-337 -194,-343 22,-22 421,132 699,272 629,315 997,618 1295,1064 56,84 104,135 104,112 0,-84 -227,-390 -449,-601 -374,-357 -969,-705 -1635,-958 -76,-28 -135,-59 -135,-70 0,-14 53,-31 121,-42 312,-53 491,-244 556,-598 22,-112 56,-188 121,-258 48,-53 104,-138 126,-185 25,-65 59,-95 121,-107 118,-22 270,-143 323,-256 22,-51 157,-208 301,-354 368,-379 486,-643 407,-916 -42,-157 -233,-359 -615,-660 -236,-183 -1067,-963 -1067,-1003 0,-8 107,-48 236,-84 767,-211 1275,-682 1326,-1239 11,-101 48,-289 87,-421 126,-449 115,-927 -34,-1396 -37,-118 -65,-219 -62,-225 6,-3 70,11 146,34 486,149 983,28 1303,-309 317,-334 475,-927 385,-1438 -95,-550 -489,-980 -1020,-1118 -427,-112 -823,6 -1146,334 -284,289 -407,621 -404,1070 0,146 22,334 51,441 25,107 45,191 42,191 -6,0 -65,-39 -135,-87 -202,-135 -528,-272 -795,-337 -371,-90 -927,-81 -1284,22 -51,14 -51,8 8,-79 121,-180 278,-545 312,-722 20,-95 28,-256 22,-354 -53,-668 -806,-1188 -1486,-1025l0 0zm840 11251c281,17 292,20 323,90 17,39 101,236 191,433l160 360 -53 118c-28,65 -53,140 -53,166 0,42 -14,39 -101,-20 -56,-39 -115,-70 -126,-70 -14,0 -17,-20 -8,-42 28,-73 -48,-233 -160,-334 -70,-67 -169,-118 -281,-149l-171 -48 -149 -301 -152 -301 146 42c81,20 278,48 435,56l0 0zm1564 -3247c211,146 497,418 438,418 -20,0 -76,-31 -126,-70 -132,-101 -444,-211 -713,-247l-233 -37 104 -157 104 -160 115 59c65,31 205,118 312,194l0 0zm-2345 -3101c-154,56 -230,95 -216,110 8,8 42,0 79,-17 34,-20 98,-45 140,-56 79,-22 84,-20 174,177 53,112 140,261 197,334 115,149 213,340 371,705 129,303 320,525 511,598 272,104 725,-56 1039,-374 129,-129 225,-194 334,-236 202,-76 545,-306 668,-449 104,-124 135,-124 202,8 22,45 51,79 59,70 8,-8 -8,-56 -37,-104 -70,-115 -247,-197 -421,-194l-138 6 160 17c233,25 256,62 121,202 -562,579 -1486,688 -2247,267 -278,-154 -587,-475 -739,-767 -65,-124 -118,-244 -118,-261 0,-28 45,-31 174,-20 110,8 157,6 132,-11 -42,-25 -376,-31 -447,-6l0 0zm1680 -1944c-104,56 -239,345 -278,598 -37,216 -3,579 70,795l37 104 -129 51c-140,53 -264,124 -247,143 8,6 56,-14 107,-45 368,-213 865,-180 1300,84 73,48 140,79 149,70 8,-6 -11,-25 -39,-42 -129,-76 -129,-73 -53,-191 284,-430 298,-1284 20,-1323 -202,-31 -396,455 -396,1003 0,286 0,289 -62,272 -37,-8 -118,-25 -183,-34l-115 -17 37 -107c70,-197 135,-576 138,-800 3,-272 -51,-475 -146,-548 -81,-67 -107,-67 -208,-14l0 0zm-104 1696c-298,104 -416,334 -278,536 132,194 354,292 668,292 213,0 360,-42 483,-146 340,-286 51,-688 -520,-725 -154,-11 -239,0 -354,42l0 0zm-1121 1711c-774,-497 -998,-740 -1076,-1166 -34,-174 3,-463 76,-604 62,-118 247,-239 418,-275 157,-34 418,-3 565,62 37,17 73,25 79,20 6,-6 0,-76 -14,-152 -45,-222 -34,-688 17,-888 25,-98 93,-270 149,-376 253,-489 882,-888 1225,-772 118,39 284,216 360,382l53 124 87 -101c104,-118 216,-180 323,-180 371,3 792,621 882,1298 51,368 -45,829 -242,1166 -39,65 -70,121 -70,129 0,6 67,6 149,0 169,-14 360,67 449,194 51,65 51,90 22,250 -70,399 -320,711 -753,932 -227,115 -559,236 -789,286l-95 20 51 -76c28,-42 90,-101 138,-129 45,-31 65,-53 42,-53 -22,0 -135,101 -253,225 -236,250 -388,334 -646,357 -449,42 -823,-258 -1171,-938 -87,-174 -166,-309 -171,-303 -8,8 53,149 138,315 54,113 104,216 131,279 -31,-5 -72,-23 -72,-23z"/>
  <path class="fil3" d="M6162 8350c-394,91 -732,367 -732,605 0,42 11,95 25,115 14,22 -6,104 -51,211 -104,253 -101,579 8,834 45,101 90,253 101,337 28,213 51,275 146,413 98,146 292,281 511,362l169 59 -110 59c-289,143 -772,157 -1255,31 -93,-25 -124,-62 -379,-475 -152,-247 -286,-447 -298,-449 -14,0 3,45 37,98 34,53 53,98 42,98 -8,0 -132,-56 -270,-126 -138,-67 -250,-115 -250,-101 0,11 132,84 292,160l292 138 169 267c157,256 163,267 107,289 -76,31 -379,0 -579,-53 -258,-73 -534,-236 -733,-433l-188 -183 73 -472c39,-258 81,-461 90,-449 11,14 42,84 67,157 28,76 56,132 62,126 6,-6 -22,-107 -65,-222 -107,-295 -124,-789 -42,-1112 88,-347 240,-639 470,-898 1109,-220 2105,488 2290,613zm-2366 -209c-146,157 -228,407 -230,711 0,253 48,376 154,388 163,20 331,-329 354,-725 8,-194 3,-258 -39,-337 -65,-126 -143,-138 -239,-37zm848 197c-152,154 -233,388 -236,682 -3,177 11,264 48,343 157,312 486,107 593,-374 56,-239 56,-343 3,-525 -76,-250 -233,-301 -407,-126l0 0z"/>
  <path class="fil4" d="M5498 6939c242,247 416,343 663,362 258,17 463,-45 660,-205 84,-70 160,-126 171,-126 8,0 244,216 525,480 281,264 635,576 784,691 489,376 570,615 340,1011 -110,194 -329,441 -514,579 -216,163 -348,177 -528,53 -233,-157 -309,-331 -256,-595 28,-132 51,-171 199,-306 194,-180 303,-351 301,-469l-3 -81 -20 84c-25,101 -104,256 -143,281 -17,11 -132,-79 -261,-197 -126,-118 -317,-272 -424,-343 -205,-138 -581,-298 -657,-284 -28,6 20,28 101,48 81,20 146,45 140,56 -6,11 -53,90 -107,174 -95,152 -104,160 -261,188 -1066,-797 -2142,-691 -2269,-675 67,-69 139,-136 218,-201 227,-191 427,-298 654,-357 101,-28 154,-51 124,-51 -202,-8 -609,199 -854,435l-98 95 -138 -70c-76,-39 -171,-70 -208,-70 -45,0 -132,-51 -227,-135 -222,-191 -275,-211 -76,-28l166 152 -152 34c-298,67 -598,295 -713,542l-62 135 -98 -135c-208,-275 -295,-514 -247,-680 87,-306 466,-418 1410,-416 449,0 963,-48 1371,-129 292,-56 286,-59 489,152l0 0z"/>
  <path class="fil5" d="M3821 7535c67,31 121,67 121,79 0,53 -115,118 -256,143 -340,65 -708,320 -932,646l-87 124 -39 -95c-79,-191 25,-486 233,-671 101,-87 334,-219 463,-258 140,-42 371,-28 497,34zm-157 410c-261,385 -402,963 -340,1401 22,174 17,272 -28,581 -84,548 -70,506 -188,483 -362,-67 -598,-345 -562,-660 22,-185 45,-216 98,-135 22,37 70,95 104,135 45,48 67,121 79,236 8,90 31,180 51,197 22,22 28,17 17,-25 -39,-138 -53,-267 -28,-267 17,0 51,25 81,59 28,31 79,73 110,90 31,17 -34,-59 -143,-166 -112,-107 -236,-261 -281,-348 -73,-138 -81,-183 -81,-421 0,-258 3,-272 118,-491 143,-270 315,-472 525,-618 160,-110 402,-208 517,-211 59,0 56,8 -48,160l0 0z"/>
  <path class="fil5" d="M6854 8408c160,34 494,188 506,233 3,14 -42,51 -104,79 -112,51 -281,267 -281,354 3,25 28,-6 62,-67 81,-157 132,-211 261,-270 135,-62 247,-67 292,-14 25,28 0,65 -107,163 -284,261 -258,646 59,902 118,95 337,132 441,79 84,-48 76,6 -25,121 -208,236 -624,194 -873,-90 -53,-59 -110,-132 -129,-163 -28,-48 -31,-48 -14,17 25,112 258,323 413,374 76,25 166,48 202,48 87,0 81,25 -28,185 -188,272 -472,402 -902,410 -253,3 -253,6 -73,20l183 17 -95 70c-53,37 -154,84 -225,104l-129 37 118 -11c81,-8 169,-45 261,-112 79,-56 163,-101 191,-101 67,0 376,-107 410,-140 104,-104 84,166 -25,354 -135,227 -390,317 -764,264 -379,-51 -688,-236 -843,-500 -65,-107 -76,-160 -76,-320 3,-104 -6,-185 -17,-177 -34,22 -138,-236 -169,-416 -31,-205 -3,-433 81,-626 45,-101 51,-140 28,-185 -48,-90 -3,-239 110,-357 289,-298 727,-396 1261,-278l0 0zm-1284 556c-81,115 -56,138 25,25 37,-48 59,-93 51,-98 -8,-8 -42,25 -76,73zm772 295c-146,48 -79,48 169,3 180,-37 185,-39 70,-39 -70,0 -177,14 -239,37zm154 -365c301,48 354,45 211,0 -62,-22 -188,-37 -281,-37l-169 0 239 37 0 0zm-25 831c-95,48 -169,93 -163,101 8,6 79,-20 157,-59 79,-42 191,-84 247,-98 104,-25 104,-25 20,-28 -48,-3 -166,37 -261,84z"/>
  <path class="fil4" d="M4152 11259c79,22 261,45 407,53l267 11 258 520 261 520 -76 48c-56,39 -132,51 -303,51 -205,0 -242,-8 -402,-98l-180 -98 -222 -489c-270,-593 -272,-609 -205,-579 31,11 118,39 194,62l0 0z"/>
  <path class="fil4" d="M6658 11371c20,25 183,289 365,593l329 545 -76 67c-124,107 -281,135 -536,101 -303,-45 -404,-101 -514,-281 -93,-157 -402,-829 -402,-873 0,-14 67,-42 149,-59 79,-17 211,-59 286,-98 157,-76 337,-73 399,6l0 0z"/>
  <path class="fil6" d="M4554 12399c301,135 520,146 739,31 98,-51 98,-62 11,-236 -39,-76 -70,-146 -70,-154 0,-28 154,20 289,93 317,169 343,461 56,649 -320,213 -879,135 -1618,-222 -399,-191 -413,-177 -28,25 365,194 565,320 733,461 67,59 129,104 138,104 31,0 -59,-84 -211,-199 -87,-67 -171,-129 -183,-140 -14,-8 87,11 225,48 500,135 896,73 1098,-171l87 -107 98 76c166,126 171,154 76,447 -87,272 -163,646 -177,862 -8,115 -20,135 -140,213 -374,250 -1185,433 -1927,433 -1140,0 -1803,-312 -2146,-1003 -118,-239 -121,-247 -121,-539 0,-281 6,-306 87,-452 112,-199 306,-348 559,-430 174,-56 256,-62 744,-62 472,0 590,8 848,67 289,65 301,67 320,149 17,87 191,303 242,303 17,0 -22,-51 -87,-112 -146,-140 -157,-281 -39,-421l76 -90 76 152c67,135 95,163 244,227l0 0z"/>
  <path class="fil6" d="M8267 12747c382,213 668,424 944,697 244,242 301,317 416,548 169,343 197,570 101,823 -146,388 -699,733 -1404,879 -475,98 -997,34 -1500,-180 -913,-388 -1177,-1154 -812,-2368l70 -244 118 90c163,124 511,225 775,227 174,0 239,-14 368,-79 205,-98 407,-315 452,-477l34 -126 126 56c70,28 211,98 312,154l0 0zm-702 725c-275,37 -741,146 -941,222 -171,62 -110,53 239,-39 385,-101 775,-163 1208,-194l323 -22 -281 -3c-154,0 -402,17 -548,37l0 0zm-8 -1123c264,121 292,264 95,514 -126,160 -379,303 -579,329 -160,22 -562,-62 -741,-152 -143,-76 -256,-211 -256,-315 0,-84 79,-306 110,-306 8,0 45,45 79,95 163,253 972,272 1081,28 22,-51 17,-84 -31,-160 -31,-53 -59,-107 -59,-118 0,-28 132,8 301,84l0 0z"/>
  <path class="fil6" d="M3984 8150c163,180 -3,986 -216,1056 -112,34 -163,-73 -163,-343 0,-278 81,-562 199,-688 90,-95 112,-98 180,-25l0 0zm-65 374c-3,121 -22,261 -45,312 -39,98 -129,149 -191,112 -28,-14 -28,-11 -3,17 51,53 191,-14 233,-110 17,-45 25,-177 20,-315l-8 -236 -6 219 0 0z"/>
  <path class="fil6" d="M4970 8366c194,289 17,1011 -270,1109 -73,25 -163,-28 -216,-124 -37,-70 -48,-152 -45,-331 3,-289 81,-520 225,-663 124,-124 219,-121 306,8l0 0zm-115 430c0,298 -3,306 -87,413 -104,129 -197,152 -233,59 -17,-37 -28,-51 -28,-31 -8,149 135,163 264,22 115,-121 169,-320 140,-525 -37,-270 -56,-247 -56,62l0 0z"/>
  <path class="fil4" d="M4812 13188c0,6 22,28 51,48 42,37 45,34 8,-11 -37,-45 -59,-59 -59,-37z"/>
  <path class="fil5" d="M6582 3240c93,101 121,261 104,612 -11,213 -37,402 -81,562 -62,216 -76,239 -140,247 -73,8 -73,8 -34,-98 48,-140 48,-242 0,-360 -34,-76 -59,-98 -115,-98 -59,0 -84,22 -124,112l-51 115 -17 -171c-31,-348 93,-800 256,-930 90,-70 129,-67 202,8l0 0z"/>
  <path class="fil5" d="M7416 3549c42,76 51,157 51,430 -3,362 -34,483 -194,758 -67,112 -81,124 -132,98 -56,-31 -56,-31 3,-104 126,-163 140,-455 22,-517 -53,-28 -73,-20 -143,62l-84 93 17 -169c39,-368 211,-741 343,-741 48,0 84,25 118,90z"/>
  <path class="fil5" d="M6638 4976c73,73 70,98 -6,152 -126,90 -385,20 -388,-101 -3,-110 295,-149 393,-51z"/>
  <path class="fil4" d="M5641 6206c79,48 250,124 388,169l244 84 -129 31c-118,31 -135,28 -169,-20 -59,-84 -216,-146 -374,-146l-143 0 -101 -202 -101 -202 121 98c67,56 188,140 264,188l0 0z"/>
  <path class="fil7" d="M5824 6408c62,31 146,107 185,169 79,121 118,152 65,53 -48,-93 3,-118 225,-104 166,8 216,22 317,98 67,48 124,104 129,126 11,56 -267,188 -469,222 -227,42 -368,-3 -522,-157 -67,-67 -163,-199 -211,-292l-84 -171 126 0c73,0 177,25 239,56z"/>
  <path class="fil4" d="M6433 6481c-8,8 -34,11 -53,3 -22,-8 -14,-17 17,-17 31,-3 48,6 37,14z"/>
  <path class="fil4" d="M6955 6610l-146 143 -110 -98c-62,-56 -140,-112 -177,-124 -65,-25 -14,-31 494,-62l84 -6 -146 146 0 0z"/>
 </g>
</svg>
