<?xml version="1.0" encoding="UTF-8"?>
<!DOCTYPE svg PUBLIC "-//W3C//DTD SVG 1.1//EN" "http://www.w3.org/Graphics/SVG/1.1/DTD/svg11.dtd">
<!-- Creator: CorelDRAW X5 -->
<svg xmlns="http://www.w3.org/2000/svg" xml:space="preserve" height="500px" width="500px" style="shape-rendering:geometricPrecision; text-rendering:geometricPrecision; image-rendering:optimizeQuality; fill-rule:evenodd; clip-rule:evenodd"
viewBox="0 0 12764 16208"
 xmlns:xlink="http://www.w3.org/1999/xlink"
 version="1.0">
 <defs>
  <style type="text/css">
   <![CDATA[
    .fil3 {fill:black}
    .fil1 {fill:rgb(39, 39, 39)}
    .fil5 {fill:#92FF32}
    .fil0 {fill:#F7BD13}
    .fil4 {fill:red}
    .fil2 {fill:white}
   ]]>
  </style>
 </defs>
 <g id="Layer_x0020_1">
  <metadata id="CorelCorpID_0Corel-Layer"/>
  <path class="fil0" d="M2029 13517l102 -71 165 -52 161 -41 184 -29 189 -15 184 -33 49 -95 377 -972 876 -2271 -37 -738 21 -437 63 -388 101 -366 28 -10 101 101 64 51c0,0 342,47 484,21 142,-26 397,-88 397,-88 0,0 324,-126 318,-123 -7,2 358,-250 358,-250l284 -330 147 -280 29 -5 160 106c0,0 359,349 443,725 85,377 88,492 88,492l3 1007 -81 941c0,0 91,1088 452,1572l111 214 112 8 61 -23 404 -509 178 -204 366 -372c0,0 444,-407 674,-516 230,-109 274,-147 523,-207 249,-60 403,19 403,19 0,0 174,94 152,342 -21,247 -85,428 -85,428 0,0 -286,712 -341,806 -55,94 -822,1390 -929,1517 -107,127 -295,341 -295,341l-20 25 134 91 145 132 227 152 139 135 80 88c0,0 72,74 77,70 5,-4 48,101 54,100 6,-1 -39,194 -39,194l-121 150c0,0 -228,69 -230,57 -1,-12 -240,31 -240,31l-150 111 -207 59 -259 -16 -309 -82 -176 45c0,0 -147,-4 -148,7 -1,10 -173,-55 -173,-55l-152 -106 -110 -77 -165 -104 -88 -72 -214 -239 -17 -46 22 -58 136 -165 -13 -20c0,0 -123,19 -126,33 -2,14 -240,-90 -240,-90l-20 84 -27 375 -75 143 -192 179 -371 212 -107 90c0,0 -196,146 -284,155 -88,9 -196,7 -196,7 0,0 -147,-17 -359,-177 0,0 -317,-67 -321,-54 -4,13 -194,-67 -194,-67l-101 -64 -64 -67 -134 -65 -130 -112c0,0 -55,-117 -70,-112 -15,5 0,-152 -11,-155 -11,-2 93,-139 93,-139l96 -88 166 -65 164 -46 48 -38c0,0 244,-129 249,-114 5,15 220,-59 220,-59l-24 -39 -138 -16 -143 -2 -142 41 -151 27c0,0 -182,22 -292,-48 -109,-70 -158,-184 -158,-184l-24 -121 -29 -42 -52 150c0,0 -64,343 -155,501 -91,158 -622,277 -622,277l-688 22 -451 -4 -92 -37 -72 -50 -51 -22c0,0 -140,-20 -144,-20 -4,0 -134,-48 -137,-42 -3,6 -88,-68 -88,-68l-47 -82 -15 -57 -26 -84 -39 -68 -41 -108 -20 -129 65 -105 117 -93 163 -62 176 -3 81 27zm2923 -2121c85,133 88,153 88,435 0,261 54,724 102,895 14,57 0,62 -222,82 -131,14 -304,26 -386,28 -148,3 -151,0 -133,-71 23,-102 449,-1505 457,-1505 3,0 45,62 94,136l0 0z"/>
  <path class="fil0" d="M6815 3469c-1,35 6,90 22,151 23,82 45,133 51,114 23,-62 111,45 111,128 0,99 -48,182 -97,165 -28,-11 -40,40 -51,233 -14,258 -14,258 -182,375 -51,34 -51,34 3,11 139,-62 210,-65 270,-6 82,82 71,216 -34,389 -85,139 -94,148 -142,102 -62,-57 -65,-99 -9,-207 26,-51 31,-88 14,-99 -17,-9 -28,9 -28,40 0,31 -11,65 -28,74 -14,9 -28,54 -28,97 0,60 34,108 145,202 275,230 324,417 159,582 -170,170 -514,207 -875,88 -116,-37 -258,-77 -315,-88 -99,-20 -108,-28 -108,-114 0,-91 3,-94 148,-111 301,-40 454,-165 389,-310 -54,-122 -204,-176 -480,-176 -275,0 -426,54 -480,176 -60,133 57,233 361,310 17,6 34,51 34,105l0 94 -346 43c-551,62 -713,34 -849,-151 -60,-85 -82,-148 -82,-236 0,-162 71,-244 290,-338 321,-136 378,-170 386,-236 9,-62 -45,-196 -68,-170 -9,6 3,45 20,85 26,60 26,85 -3,119 -60,71 -97,48 -165,-97 -74,-165 -77,-196 -17,-281 48,-68 176,-85 233,-28 17,17 43,26 54,14 11,-11 -23,-37 -74,-57l-94 -34 14 -298c17,-332 88,-599 210,-787 43,-65 82,-116 85,-111 6,6 0,62 -17,128 -14,68 -14,116 0,116 14,0 26,-31 26,-68 0,-37 26,-153 60,-261 125,-403 386,-471 542,-142 43,94 51,99 37,34 -9,-48 -43,-119 -74,-162 -57,-80 -57,-80 0,-108 60,-34 295,-43 324,-14 11,11 -9,54 -40,99 -71,99 -148,281 -119,281 14,0 45,-57 74,-128 60,-142 193,-270 281,-270 88,0 230,97 287,199 34,54 84,188 104,367 24,77 54,133 72,148l0 18 1 0zm-1273 -329c-125,74 -332,653 -332,932 0,71 20,253 40,400 31,204 34,275 9,293 -20,14 -6,17 37,6 40,-11 213,-26 383,-34 307,-14 417,6 667,116 31,11 43,0 45,-45 3,-37 51,-182 105,-321 131,-335 202,-687 179,-886 -40,-346 -270,-571 -474,-463 -65,37 -185,222 -213,324 -26,108 -51,91 -91,-57 -40,-142 -170,-295 -253,-295 -28,0 -74,14 -102,31l0 0z"/>
  <path class="fil1" d="M6777 513c-156,57 -250,182 -304,412 -26,99 -91,281 -148,403 -54,122 -108,278 -114,346 -14,108 -6,128 60,170 45,31 136,51 227,54 193,3 295,-65 361,-241l48 -125 20 247c11,136 14,503 6,809 -13,488 -42,738 -100,834l-7 0c-17,-78 -50,-120 -114,-377 -51,-204 -250,-361 -415,-327 -45,9 -133,3 -196,-14 -99,-23 -139,-20 -247,28 -71,31 -156,51 -190,43 -119,-31 -224,45 -312,233 -45,97 -105,193 -128,213 -37,31 -43,23 -43,-48 0,-114 -131,-895 -185,-1102 -57,-219 -247,-619 -338,-710 -40,-40 -105,-71 -145,-71 -80,0 -383,145 -429,204 -77,99 -409,872 -409,949 0,293 346,315 630,40 82,-80 136,-156 136,-193 0,-315 375,554 497,1150 37,187 40,267 17,395 -17,91 -31,261 -31,378 0,196 -6,219 -62,244 -105,45 -131,207 -54,361 31,68 60,139 60,153 0,14 -74,54 -165,91 -222,85 -355,222 -355,366 0,111 85,312 159,372 23,20 125,54 230,80l187 48 43 142c23,80 43,216 43,301l0 159 -173 111c-233,151 -511,429 -588,588 -105,216 -74,389 108,636 99,133 102,148 68,230 -57,136 -148,619 -168,892 -11,136 -6,386 14,568l34 327 -630 1661c-349,914 -648,1678 -665,1695 -17,20 -159,48 -310,65 -153,14 -378,62 -497,102 -119,40 -250,65 -287,60 -122,-23 -332,57 -426,165 -105,122 -108,185 -17,369 37,77 71,162 71,187 0,88 153,193 327,227 94,20 193,54 224,80 45,40 133,45 639,37 619,-9 772,-34 1025,-162 207,-108 270,-193 327,-477 28,-136 60,-256 71,-261 11,-9 31,28 40,80 20,108 105,199 224,244 116,45 352,37 457,-11 71,-34 125,-37 247,-17 82,14 125,26 91,28 -77,3 -327,99 -423,162 -114,77 -60,74 77,-3 304,-168 719,-196 1017,-68 82,34 153,54 162,45 26,-26 -310,-139 -469,-153 -142,-17 -148,-20 -85,-54 40,-23 170,-40 310,-43 224,-3 233,-6 114,-28 -71,-14 -170,-20 -224,-11 -94,17 -94,17 -74,-62 102,-403 227,-1289 338,-2423 97,-988 193,-2178 182,-2238 -9,-26 -23,48 -31,165 -11,116 -28,290 -40,383l-17 170 -80 -170c-45,-94 -82,-187 -82,-207 0,-17 -11,-34 -28,-34 -31,0 60,247 142,392 54,91 54,99 -28,994 -114,1207 -151,1539 -170,1539 -26,0 -517,-508 -611,-633 -43,-60 -85,-99 -94,-94 -20,20 216,298 486,577l227 230 -77 508c-40,278 -97,602 -125,719l-48 213 -142 37c-82,20 -207,28 -298,20 -111,-11 -187,-6 -261,26 -258,108 -568,11 -630,-202 -31,-97 108,-227 324,-307 207,-77 190,-97 -20,-26 -74,26 -185,82 -241,128 -128,99 -133,80 -60,-182 54,-199 131,-261 278,-239 68,11 94,6 82,-14 -11,-17 -71,-23 -153,-14l-136 17 26 -88c11,-48 28,-91 31,-94 23,-14 772,-68 787,-57 6,9 14,77 11,151 0,122 3,122 11,20l11 -111 57 122c31,68 62,116 71,108 9,-9 -11,-68 -45,-136 -105,-202 -173,-594 -185,-1054l-14 -417 -125 -193c-250,-392 -437,-815 -548,-1244 -57,-230 -74,-378 -85,-767 -14,-500 17,-790 125,-1145l48 -148 80 77c74,71 105,77 346,88 318,14 619,-54 949,-210 264,-128 571,-423 710,-687l94 -176 88 48c219,128 426,463 540,875 57,207 62,293 62,937 0,645 -6,753 -77,1164 -43,250 -85,480 -94,511 -11,45 -9,48 14,14 17,-23 40,-99 51,-170 17,-122 20,-119 57,142 74,554 253,1099 452,1397l97 142 -142 128c-80,71 -136,136 -128,145 9,9 68,-37 136,-99 114,-111 247,-199 247,-165 0,9 -51,94 -114,185 -62,94 -122,193 -133,219 -9,28 62,-62 159,-202 656,-946 1340,-1627 1920,-1906 236,-114 559,-179 696,-139 329,94 275,599 -156,1474 -304,616 -861,1500 -1170,1855 -99,116 -114,122 -187,94 -97,-37 -329,-40 -383,-6 -23,14 17,17 99,11 182,-20 341,28 463,133l99 85 -114 -20c-287,-57 -1071,14 -1162,105 -14,14 43,9 128,-14 642,-165 1184,-102 1474,173l128 122 -114 -11c-111,-11 -111,-11 20,23 239,60 312,173 244,372 -51,156 -145,213 -369,236l-187 17 31 -114c26,-97 20,-128 -26,-210 -60,-105 -247,-213 -409,-239 -62,-9 -37,6 71,43 301,97 403,281 287,506 -91,176 -352,233 -690,151l-148 -37 97 -94c82,-74 99,-114 99,-204 0,-179 -176,-355 -346,-346 -45,3 -34,11 40,31 145,37 278,193 278,321 0,74 -23,114 -102,179 -105,85 -281,148 -426,148 -151,0 -321,-111 -412,-267 -68,-111 -82,-125 -68,-62l17 82 -122 -71c-68,-40 -176,-139 -244,-222l-122 -148 97 -116c162,-202 2048,-2655 2337,-3042 45,-62 68,-105 48,-94 -20,11 -179,210 -355,440 -2130,2792 -1999,2644 -2229,2547l-102 -43 17 -619c11,-338 28,-1142 37,-1781l20 -1164 71 -60 74 -62 -68 -463c-37,-256 -68,-602 -68,-770 -3,-170 -11,-307 -23,-307 -45,0 -20,517 48,991 40,270 65,517 57,545 -31,94 -97,62 -108,-54 -6,-57 -11,48 -14,239 -17,1216 -68,3269 -88,3595 -20,290 -40,412 -77,474 -60,99 -216,219 -437,329 -85,43 -168,94 -185,114 -71,88 -287,213 -398,230 -156,23 -287,-20 -432,-145 -142,-122 -199,-244 -156,-341 40,-85 131,-148 355,-233 122,-45 145,-60 77,-48 -168,28 -395,151 -440,239 -54,102 -54,136 0,239 26,45 40,85 37,88 -6,6 -88,-3 -187,-17 -301,-43 -432,-145 -432,-341 0,-199 187,-344 446,-349 105,0 136,-9 105,-26 -26,-14 -99,-17 -162,-9 -267,43 -417,185 -417,395l0 108 -82 -43c-116,-62 -230,-207 -230,-295 0,-108 94,-250 202,-304 88,-45 253,-48 423,-3 40,11 14,-9 -57,-40 -182,-85 -321,-57 -474,99 -105,102 -122,139 -122,236 0,142 91,261 270,346 71,34 128,74 128,85 0,48 301,168 466,187 111,11 213,48 304,105 250,153 497,125 741,-91 57,-48 193,-133 304,-190 222,-111 412,-301 440,-440 9,-48 17,-165 17,-256 0,-94 9,-168 23,-168 11,3 51,20 91,43 40,23 108,40 151,43l82 0 -74 88c-68,80 -71,91 -34,162 57,108 258,301 381,364 60,31 162,102 227,159 148,125 318,162 517,111 105,-28 151,-26 247,9 293,102 554,88 699,-40 74,-62 128,-80 281,-91 244,-20 366,-88 415,-239 20,-60 31,-148 23,-193 -20,-102 -358,-440 -523,-525 -65,-34 -131,-82 -145,-111 -14,-28 -60,-68 -99,-88l-71 -40 119 -133c466,-523 1204,-1789 1431,-2462 204,-611 119,-917 -253,-917 -423,0 -929,281 -1477,818l-278 273 0 -375c0,-412 -40,-943 -102,-1397 -99,-707 -80,-1233 62,-1764 77,-287 264,-710 406,-917 63,-90 75,-112 124,-176 43,-54 49,-62 131,-156 82,-91 136,-168 125,-168 -62,0 -364,310 -503,520 -250,375 -432,903 -500,1448 -37,293 -26,846 28,1340 51,471 54,1798 3,1886 -88,156 -383,500 -443,517 -77,23 -139,-51 -281,-335 -128,-256 -199,-471 -273,-832 -91,-446 -99,-721 -43,-1179 68,-523 71,-1244 3,-1585 -97,-506 -287,-861 -548,-1037l-142 -97 40 -114c45,-136 40,-168 -102,-383 -105,-162 -108,-170 -74,-298 48,-196 111,-273 250,-310 202,-51 332,-196 332,-372 0,-82 -28,-139 -131,-264l-131 -162 74 -102c116,-170 142,-267 91,-386 -26,-65 -65,-105 -114,-119 -60,-14 -65,-28 -48,-77 14,-34 34,-133 45,-219 11,-85 45,-190 77,-233 37,-54 51,-119 48,-213 -3,-94 45,-304 153,-676 224,-772 344,-1437 344,-1945 3,-293 -6,-341 -68,-466 -40,-80 -105,-168 -148,-199 -102,-74 -364,-88 -528,-28l0 0zm-1826 10883c85,133 88,153 88,435 0,261 54,724 102,895 14,57 0,62 -222,82 -131,14 -304,26 -386,28 -148,3 -151,0 -133,-71 23,-102 449,-1505 457,-1505 3,0 45,62 94,136l0 0zm1281 -6299c23,14 57,28 71,28 17,0 9,-14 -14,-28 -23,-14 -54,-28 -71,-28 -14,0 -9,14 14,28zm-903 -80c-230,43 -159,54 111,20 210,-26 454,-20 679,17 40,9 20,-6 -43,-26 -131,-48 -523,-51 -747,-11l0 0zm111 -173c-71,14 -136,28 -151,31 -11,6 148,9 355,9 310,3 403,11 531,60 256,97 278,102 122,26 -264,-131 -588,-179 -858,-125l0 0zm102 -1704c-125,74 -332,653 -332,932 0,71 20,253 40,400 31,204 34,275 9,293 -20,14 -6,17 37,6 40,-11 213,-26 383,-34 307,-14 417,6 667,116 31,11 43,0 45,-45 3,-37 51,-182 105,-321 131,-335 202,-687 179,-886 -40,-346 -270,-571 -474,-463 -65,37 -185,222 -213,324 -26,108 -51,91 -91,-57 -40,-142 -170,-295 -253,-295 -28,0 -74,14 -102,31l0 0zm1273 332c-1,35 6,90 22,151 23,82 45,133 51,114 23,-62 111,45 111,128 0,99 -48,182 -97,165 -28,-11 -40,40 -51,233 -14,258 -14,258 -182,375 -51,34 -51,34 3,11 139,-62 210,-65 270,-6 82,82 71,216 -34,389 -85,139 -94,148 -142,102 -62,-57 -65,-99 -9,-207 26,-51 31,-88 14,-99 -17,-9 -28,9 -28,40 0,31 -11,65 -28,74 -14,9 -28,54 -28,97 0,60 34,108 145,202 275,230 324,417 159,582 -170,170 -514,207 -875,88 -116,-37 -258,-77 -315,-88 -99,-20 -108,-28 -108,-114 0,-91 3,-94 148,-111 301,-40 454,-165 389,-310 -54,-122 -204,-176 -480,-176 -275,0 -426,54 -480,176 -60,133 57,233 361,310 17,6 34,51 34,105l0 94 -346 43c-551,62 -713,34 -849,-151 -60,-85 -82,-148 -82,-236 0,-162 71,-244 290,-338 321,-136 378,-170 386,-236 9,-62 -45,-196 -68,-170 -9,6 3,45 20,85 26,60 26,85 -3,119 -60,71 -97,48 -165,-97 -74,-165 -77,-196 -17,-281 48,-68 176,-85 233,-28 17,17 43,26 54,14 11,-11 -23,-37 -74,-57l-94 -34 14 -298c17,-332 88,-599 210,-787 43,-65 82,-116 85,-111 6,6 0,62 -17,128 -14,68 -14,116 0,116 14,0 26,-31 26,-68 0,-37 26,-153 60,-261 125,-403 386,-471 542,-142 43,94 51,99 37,34 -9,-48 -43,-119 -74,-162 -57,-80 -57,-80 0,-108 60,-34 295,-43 324,-14 11,11 -9,54 -40,99 -71,99 -148,281 -119,281 14,0 45,-57 74,-128 60,-142 193,-270 281,-270 88,0 230,97 287,199 34,54 84,188 104,367 24,77 54,133 72,148l0 18 1 0zm-2370 6879c51,162 159,426 239,582 111,216 139,304 125,358 -11,37 -142,477 -295,977 -151,500 -332,1133 -400,1406 -136,531 -136,534 -366,667 -185,111 -417,151 -968,168 -684,23 -750,0 -750,-278 0,-159 94,-278 264,-338 65,-26 99,-45 77,-45 -23,0 -97,23 -165,54 -97,43 -133,82 -179,185 -40,88 -51,159 -40,213 17,82 14,85 -85,85 -122,0 -256,-62 -298,-139 -14,-31 -28,-114 -28,-185 0,-187 105,-298 312,-329l156 -23 -131 -3c-165,-3 -310,88 -358,224l-31 99 -48 -111c-62,-145 -20,-250 142,-344 148,-88 318,-94 420,-14 91,71 128,74 65,3 -48,-54 -48,-57 31,-97 105,-57 483,-133 639,-133 173,0 480,71 616,139 65,34 116,48 116,34 0,-31 -284,-142 -420,-165 -142,-26 -51,-65 145,-65 91,0 210,20 267,43 116,48 159,37 60,-17 -34,-20 -162,-45 -278,-54l-216 -14 625 -1642c423,-1113 633,-1627 645,-1590 11,28 62,185 114,349l0 0z"/>
  <path class="fil0" d="M7237 536c51,20 119,82 153,136 77,122 125,435 105,659 -26,247 -125,943 -159,1110 -31,145 -338,1244 -352,1258 -3,3 -26,0 -51,-11 -71,-26 -85,-176 -37,-366 88,-332 114,-781 74,-1363l-34 -540 71 -190c88,-230 153,-335 216,-338 31,0 34,-6 9,-17 -91,-37 -222,204 -358,648 -88,290 -139,338 -364,338 -185,0 -278,-57 -278,-168 0,-43 51,-182 111,-310 62,-125 128,-304 142,-392 37,-187 99,-310 204,-386 136,-102 389,-133 548,-68l0 0z"/>
  <path class="fil0" d="M4633 1382c88,97 284,503 332,693 48,193 148,767 176,1025 14,148 9,196 -48,318 -37,77 -74,142 -82,145 -9,0 -48,-151 -94,-335 -85,-361 -213,-704 -346,-929 -97,-162 -97,-165 17,-409 45,-99 77,-187 68,-196 -17,-20 -139,258 -216,491 -74,230 -131,304 -315,395 -176,88 -287,94 -364,17 -88,-88 -68,-199 108,-588 91,-202 179,-398 196,-437 23,-51 94,-105 210,-165 210,-105 281,-111 358,-26l0 0z"/>
  <path class="fil2" d="M5635 5239c0,14 -20,28 -43,28 -23,0 -43,-14 -43,-28 0,-17 20,-28 43,-28 23,0 43,11 43,28z"/>
  <path class="fil3" d="M6121 5940l244 82 -43 91c-43,88 -51,91 -173,74 -99,-11 -156,0 -239,43 -85,43 -142,51 -264,40 -148,-17 -156,-14 -250,88l-99 102 -17 -133c-9,-77 -28,-199 -43,-273 -40,-193 -43,-185 108,-199 258,-26 528,6 775,85l0 0z"/>
  <path class="fil0" d="M5184 5954c17,34 43,230 54,440 20,327 31,400 97,534 91,182 213,270 381,270 224,0 364,-199 528,-747 108,-372 156,-446 278,-446 80,0 80,3 40,77 -43,88 -111,392 -162,733 -31,196 -48,239 -131,324 -111,111 -145,102 -82,-23 26,-45 45,-102 45,-122 -3,-20 -28,14 -60,77 -77,153 -187,261 -304,301 -111,37 -332,14 -477,-45 -199,-82 -307,-372 -349,-926 -14,-179 -40,-358 -54,-400 -26,-62 -23,-77 17,-88 102,-28 148,-17 179,43l0 0z"/>
  <path class="fil4" d="M6254 6247c20,20 -94,381 -179,568 -151,335 -344,435 -554,290 -182,-122 -278,-435 -187,-608 23,-48 80,-116 119,-148 77,-60 250,-82 278,-34 9,14 -14,80 -51,148 -37,68 -77,162 -85,210 -11,45 28,-11 88,-128 91,-182 128,-222 236,-278 94,-48 153,-60 227,-48 54,11 102,23 108,28l0 0z"/>
  <path class="fil5" d="M6646 6721l68 133 -68 185c-97,253 -233,454 -437,650 -324,307 -880,500 -1338,466l-216 -17 -176 -185c-99,-105 -179,-199 -179,-213 0,-17 37,-17 94,0 199,60 710,-60 1014,-236 122,-68 185,-88 284,-82 142,9 270,-31 355,-108 31,-28 97,-65 142,-80 122,-40 204,-176 241,-415 17,-111 37,-236 45,-275 17,-71 17,-71 60,-14 23,31 71,116 111,190l0 0z"/>
  <path class="fil5" d="M4979 6713c-185,122 -488,386 -537,466 -65,105 -54,173 45,275 91,94 307,88 557,-14 256,-108 258,-108 364,-65l97 40 -128 74c-239,139 -452,199 -741,216 -264,11 -275,11 -346,-60 -193,-193 23,-594 506,-934 176,-122 202,-133 227,-88 20,37 11,57 -43,91l0 0z"/>
  <path class="fil5" d="M5027 6900c-17,173 -28,193 -159,324 -80,80 -142,168 -142,202 0,77 -148,80 -227,0 -94,-94 -74,-199 65,-332 108,-108 443,-375 471,-378 6,0 3,82 -9,185l0 0z"/>
  <path class="fil0" d="M8932 6973c-207,301 -403,819 -474,1277 -54,369 -51,784 17,1306 74,582 114,1130 114,1528 0,310 -3,329 -77,415l-74 88 20 -111c45,-239 -9,-1809 -68,-2076 -37,-156 -34,-684 3,-994 40,-329 139,-716 253,-985 43,-233 585,-950 644,-914 -2,5 -308,381 -349,456l-8 11z"/>
  <path class="fil0" d="M5209 7207c34,45 51,94 40,105 -34,34 -398,170 -452,170 -77,0 -43,-102 71,-213 111,-108 114,-108 116,-43 3,65 6,62 26,-14 11,-48 31,-136 43,-199l20 -114 37 111c23,62 68,151 99,196l0 0z"/>
  <path class="fil2" d="M5598 4165c-9,23 -17,14 -17,-17 -3,-31 6,-48 14,-37 9,9 11,34 3,54z"/>
  <path class="fil2" d="M6064 4197c-28,26 -31,23 -14,-17 9,-28 26,-43 34,-34 9,9 0,31 -20,51z"/>
  <path class="fil2" d="M5757 3210c131,142 162,358 105,707 -17,108 -34,324 -34,474l0 278 -82 0 -82 0 43 -122c54,-151 37,-429 -28,-494 -40,-40 -51,-40 -94,-6 -26,23 -65,80 -88,131 -43,108 -48,386 -9,463 23,45 14,54 -60,71 -48,11 -91,14 -99,9 -31,-34 -77,-378 -77,-619 -3,-210 11,-315 62,-466 82,-258 159,-400 236,-454 88,-62 128,-57 207,28l0 0zm727 40c145,151 185,341 139,642 -37,239 -128,542 -233,767l-65 142 -136 -45c-111,-40 -128,-54 -97,-82 51,-40 105,-247 105,-392 0,-131 -54,-247 -122,-258 -114,-23 -219,463 -133,622 26,45 20,54 -31,54 -62,0 -62,-3 -45,-406 26,-562 139,-954 321,-1096 111,-85 176,-74 298,54l0 0z"/>
 </g>
</svg>
