<?xml version="1.0" encoding="UTF-8"?>
<!DOCTYPE svg PUBLIC "-//W3C//DTD SVG 1.1//EN" "http://www.w3.org/Graphics/SVG/1.1/DTD/svg11.dtd">
<!-- Creator: CorelDRAW X5 -->
<svg xmlns="http://www.w3.org/2000/svg" xml:space="preserve" height="500px" width="500px" style="shape-rendering:geometricPrecision; text-rendering:geometricPrecision; image-rendering:optimizeQuality; fill-rule:evenodd; clip-rule:evenodd"
viewBox="0 0 12764 16208"
 xmlns:xlink="http://www.w3.org/1999/xlink"
 version="1.0">
 <defs>
  <style type="text/css">
   <![CDATA[
    .fil0 {fill:rgb(39, 39, 39)}
    .fil6 {fill:#353535}
    .fil5 {fill:#EFEFEF}
    .fil7 {fill:#F00089}
    .fil1 {fill:#F49ABE}
    .fil4 {fill:#F6F6F6}
    .fil2 {fill:#FBDEE3}
    .fil3 {fill:#FEFEFE}
   ]]>
  </style>
 </defs>
 <g id="Layer_x0020_1">
  <metadata id="CorelCorpID_0Corel-Layer"/>
  <path class="fil0" d="M5697 1361c31,50 27,23 0,77 -28,-27 -17,15 -22,-41 -5,-52 19,-33 22,-37zm3587 13808c-52,-215 -367,-490 -639,-514 123,78 249,122 360,214 62,52 95,89 146,141l133 158c-18,56 12,31 -76,64 -95,35 -325,79 -425,91 -69,-278 -388,-551 -696,-617 159,41 601,392 691,622 -1124,125 -1624,-38 -2655,-218 16,-999 107,-2000 113,-2999 6,-1014 -16,-2060 6,-3079 203,-57 314,-215 438,-308 -9,429 -77,914 -109,1351 -92,1260 -136,2211 80,3459 35,204 101,418 130,607 -64,9 -110,7 -156,39 48,36 29,24 181,3 75,-10 146,-17 224,-22 164,-12 328,-15 493,-10 543,18 1254,177 1640,541 57,54 65,76 121,125 64,56 178,199 206,285 -47,37 -144,97 -204,65zm-2900 -14710c138,44 430,254 575,333 37,-50 66,-93 88,-159 -172,-95 -354,-286 -532,-386l-71 93c-39,60 -39,46 -61,119zm-1195 263l93 127c81,-26 474,-316 532,-376l-126 -196c-96,62 -394,367 -498,445zm-472 861c-189,-40 -252,-178 -155,-354 97,4 124,31 153,123 24,75 12,156 2,231zm-23 56l54 -23c88,-321 -94,-484 -211,-417 -60,34 -80,201 -41,289 40,89 111,94 197,151 -237,28 -351,-36 -444,-192 -204,-342 424,-704 592,-510 105,121 117,331 141,514l365 -20c34,215 166,431 402,406 327,-35 271,-374 376,-446l110 -6c40,176 185,367 400,354 113,-7 187,-76 229,-138 192,-286 -116,-244 469,-271 51,-198 55,-321 183,-448 289,-287 682,122 434,474 -120,171 -202,133 -387,222 120,59 199,91 270,199 211,317 -342,573 -622,660l-208 -201c49,-78 94,-101 139,-192 167,22 261,24 364,-72 -394,88 -351,17 -560,-184 36,106 94,175 169,215 -51,111 -93,125 -151,211l-224 -108c-78,-84 -64,-83 -249,-257 -94,-69 -211,-170 -305,-219 -115,48 -361,222 -467,303 -99,77 -322,293 -444,322 -92,-80 -78,-40 -144,-163 49,-86 136,-133 145,-282 -125,272 -255,316 -591,242 142,115 224,82 409,65 90,145 69,83 165,181 -48,64 -79,75 -138,143 -42,48 -67,105 -105,155 -310,-122 -661,-354 -509,-707 49,-113 136,-171 185,-250zm2856 -274c-10,-131 76,-359 205,-247 67,58 21,154 -19,187 -40,33 -118,55 -186,61zm100 -301c-93,39 -128,96 -143,214 -20,155 29,157 165,107 279,-104 142,-390 -22,-321zm-1093 372c-29,-57 -21,-54 -2,-101 23,9 62,9 58,59 -8,92 -33,37 -56,42zm3345 2334c135,-19 179,-79 365,-61 155,15 225,83 322,100 -8,-36 35,-32 -122,-96 -134,-55 -274,-61 -416,-31 -192,41 -143,56 -150,88zm-2959 -1157l289 3c-24,245 -136,136 -315,145 34,-2 25,-3 63,10l84 39 -101 36c-232,42 -537,-42 -754,-95 0,-133 78,-217 203,-332 113,-105 174,-183 261,-285 212,44 500,259 546,451l-276 29zm-1776 5666c32,130 82,275 157,367 -45,67 -114,105 -173,155 -73,62 -105,108 -164,184 -55,70 -100,118 -153,195 -416,602 -708,1490 -900,2214 -301,1135 -36,2035 -990,3170 -568,677 -1753,1018 -1867,692 -88,-252 143,-301 336,-311 496,-27 1056,-435 1343,-752 94,-104 195,-255 280,-397 640,-1061 209,-1915 1007,-3849 172,-417 480,-999 773,-1317 116,-126 200,-270 350,-352zm1062 699c-225,-218 -3,-920 83,-1167 159,-456 161,-761 169,-1273 55,99 160,364 218,443l500 -164c2,598 -139,1393 -524,1829 -69,78 -293,324 -447,332zm-2362 5840c-273,63 -475,545 -507,582l-380 -40c90,-232 527,-604 719,-656 -315,38 -645,393 -740,648l-254 -41c18,-335 844,-715 1138,-830 237,-93 520,-160 789,-191 388,-45 851,31 898,-5 -53,-34 -138,-35 -213,-42 353,-1353 479,-3893 191,-5286l67 -20c-75,-143 -325,-329 -391,-779 -53,-358 82,-685 206,-961 352,-781 439,-971 421,-1933 40,33 37,35 73,104l178 333c80,147 157,294 232,443 121,242 144,218 144,538 -1,1027 -244,1096 -326,1745 -14,108 -23,217 -12,325 21,212 67,196 89,269 33,111 0,3223 -7,3439 -29,872 -92,1771 -103,2643 -608,300 -1969,370 -2677,302 49,-156 220,-346 337,-456l128 -132zm3163 -9761c63,35 910,891 978,1008l-779 195c-19,-370 -95,-868 -199,-1203zm18 1251c-139,-99 -389,-476 -493,-650 -216,-362 -23,-375 -191,-936 -37,-124 -170,-524 -18,-587 225,-92 543,646 616,870 127,391 197,834 225,1264l-140 39zm4545 -2010c53,-61 155,-91 230,-179 77,-90 57,-224 32,-352 113,53 271,244 170,411 -83,136 -256,142 -431,120zm-595 -742c35,60 -25,4 33,50l235 6c-62,47 -260,130 -271,189 99,6 499,-313 665,-217 49,28 387,408 -15,624 -712,382 -890,184 -1567,18 -442,-109 -427,-48 -636,219 -287,367 -556,776 -832,1156 -251,346 -225,419 -562,450 -74,-152 -358,-402 -469,-514l-486 -498c-221,-219 -188,-487 -500,-832 -166,-183 -339,-154 -358,40 -29,298 198,717 172,1141 -129,-186 -443,-912 -466,-940 -2,-2 -6,-7 -8,-9 -37,-34 -10,-19 -35,-9 -29,95 731,1543 1086,1884l-135 60c57,48 385,-69 523,-105 179,-47 356,-93 542,-135 185,-42 368,-82 553,-121 104,-22 527,-78 572,-109 -63,-33 -97,-10 -180,-8 10,-215 85,-321 235,-405 237,-133 68,-346 207,-469 156,-138 368,-26 419,136 77,245 -82,375 -153,500 130,137 565,209 802,186 -39,47 -80,67 -101,137 104,-13 131,-155 377,-250 594,-228 759,402 177,585 -45,14 -84,21 -132,31 -102,20 -92,21 -112,55 213,9 324,-95 455,-119 -11,424 -511,332 -640,421 77,52 248,-3 347,-24 -125,495 -1178,138 -1631,-234 -69,-57 -99,-106 -179,-167 4,-4 11,-14 14,-10l59 -30c79,-36 37,18 73,-48 -151,-55 -2027,673 -2362,740 -91,-269 -315,-692 -456,-953 -172,-320 -327,-630 -502,-932 -99,-171 -477,-743 -485,-947 -8,-195 212,-328 422,-283 203,43 365,253 453,263 -35,-96 -132,-135 -217,-208l2 -340c145,93 165,163 411,145 0,108 -21,272 15,354 67,-61 -26,-217 201,-243 150,-17 231,83 291,167 162,229 418,548 609,764l426 496c60,79 141,133 159,187l11 78 1460 -1660c126,-127 -47,-289 196,-418 85,-45 24,11 75,-50 33,-174 -245,-227 -218,-479 76,-240 705,-272 633,410 -94,66 -54,-31 -98,67 592,-17 842,-17 1354,182 -107,83 -299,37 -457,27zm-4423 -118c8,-12 16,-24 23,-37l0 0c27,-34 144,-230 147,-490l-312 -61c-109,-24 -140,-58 -252,-71 -207,98 -305,114 -539,194 64,247 476,946 874,535l59 -69m-469 -673c-223,68 -864,349 -1044,100l146 -80c-34,5 -153,42 -160,25 -2,-4 -8,-1 -16,-3l-5 -79 216 -38c-29,-3 -101,-4 -120,-6 -70,-10 -44,6 -78,-30 101,-169 42,-118 194,-262 41,-39 64,-73 112,-113 46,-38 97,-68 141,-103 4,2 10,2 12,8l24 16c3,2 8,6 11,9l137 110c76,54 480,292 489,352 17,108 -11,67 -58,95zm-1110 -140c0,108 -35,66 -240,104 -444,84 -662,236 -728,252 253,-91 652,-203 955,-245 13,185 -23,88 -404,308 -103,59 -304,173 -364,285 213,-108 408,-300 783,-439 228,124 210,148 596,84 38,119 126,300 189,382 123,159 117,176 100,482 -254,-84 -404,-141 -591,65 -219,243 209,790 376,1082 135,237 108,296 95,684 -49,1406 -688,1404 -620,2549 -58,65 -118,106 -181,170 -63,65 -102,124 -162,187 -719,767 -1265,2466 -1358,3515 -101,1148 -402,2138 -1521,2663 -166,78 -346,142 -552,149 -211,7 -413,101 -339,354 119,411 1394,-4 1887,-593 477,-570 751,-1137 852,-1935 53,-416 77,-819 174,-1218 176,-720 731,-2458 1401,-2800 284,239 281,2292 266,2786 -20,681 -92,1416 -208,2087 -36,212 -98,453 -123,654 -568,-41 -1138,51 -1603,263 -302,138 -1079,509 -1008,840 628,199 1971,156 2695,9 145,-29 709,-202 770,-195l822 163c696,109 1553,163 2234,-36 145,-43 250,-110 358,-151 -117,-367 -649,-707 -1030,-845 -551,-200 -1086,-188 -1694,-149 -340,-1255 -319,-2484 -233,-3807l116 -1421c26,-302 -2,-197 129,-407 276,-443 404,-1070 404,-1675 19,-50 1493,-527 1582,-539 115,-16 220,237 597,420 292,141 932,399 1252,160 71,-53 61,-73 107,-161 44,-85 72,-73 146,-118 184,-110 90,-234 170,-365 33,-55 184,-162 108,-375 -111,-311 -471,-232 -724,-74 -187,117 -636,-24 -851,-115 75,-143 214,-294 124,-534 -63,-170 -273,-277 -462,-151 -192,128 13,349 -234,484 -85,47 -138,99 -177,171 -27,50 -38,84 -49,137 -4,17 -9,59 -12,70 -28,101 -10,69 -422,146 101,-175 1033,-1460 1139,-1583 111,-129 101,-217 335,-171 304,59 590,147 883,223 420,109 518,-145 901,-99 287,34 508,-138 425,-386 -18,-52 -237,-370 -416,-427 -116,-37 -105,7 -216,-50 -339,-174 -818,-214 -1210,-188 62,-867 -793,-707 -719,-328 32,162 189,213 227,358 -102,57 -187,74 -221,222 -66,288 48,113 -141,329 -68,78 -153,153 -216,234l-648 746c-99,112 -343,425 -431,508l-586 -661c-169,-218 -377,-446 -569,-700 -165,-217 -203,-341 -555,-200 0,-165 -29,-131 87,-202 62,-52 92,-76 147,-153l17 -29 2 -4c96,-141 141,-361 155,-517 471,-39 184,-133 728,-8 285,65 586,184 669,202 -134,-168 -783,-251 -967,-312 23,-29 19,-27 36,-70l38 -92c171,0 339,14 505,35 155,20 311,65 455,85 -143,-52 -251,-98 -438,-128 -144,-23 -455,-19 -547,-43l-42 -96c285,-76 792,-312 673,-659 -37,-107 -134,-166 -211,-228 171,-75 279,-135 346,-290 167,-389 -248,-716 -537,-455 -139,125 -138,228 -197,431 -68,28 -264,40 -350,24 -15,-526 -493,-669 -665,-377 -84,142 -64,206 -74,379l8 50 -123 7 -15 -116c-17,-220 -186,-456 -442,-394 -243,59 -286,347 -302,540l-298 21c-3,-7 -7,-21 -8,-18l-28 -120c-8,-55 -12,-86 -26,-138 -109,-397 -393,-337 -611,-162 -405,325 -130,684 205,730 -63,132 -250,325 -63,598 57,83 335,329 488,330zm1190 -949c97,62 311,225 391,312l-893 28 502 -340zm-553 -780c437,-165 593,750 163,889 -422,136 -589,-728 -163,-889zm817 -61c227,-96 391,136 439,309 64,232 -23,481 -189,539 -409,144 -641,-683 -250,-848zm114 374c-203,98 -106,429 86,366 174,-57 92,-452 -86,-366zm-890 15c-197,90 -100,466 106,380 184,-77 91,-469 -106,-380z"/>
  <path class="fil1" d="M9902 3770c7,-32 -42,-47 150,-88 142,-30 282,-24 416,31 156,64 114,61 122,96 -98,-17 -167,-85 -322,-100 -186,-18 -230,41 -365,61zm1692 529c175,22 348,16 431,-120 101,-167 -56,-358 -170,-411 25,128 44,263 -32,352 -75,88 -177,118 -230,179zm-562 -692l8 -17 -41 -33c159,10 351,56 457,-27 -512,-199 -763,-199 -1354,-182 43,-98 4,-2 98,-67 72,-682 -557,-650 -633,-410 -26,252 252,305 218,479 -52,61 10,5 -75,50 -243,129 -70,291 -196,418l-1460 1660 -11 -78c-18,-53 -99,-108 -159,-187l-426 -496c-191,-216 -447,-535 -609,-764 -59,-83 -141,-184 -291,-167 -226,26 -134,183 -201,243 -37,-81 -15,-246 -15,-354 -246,18 -266,-52 -411,-145l-2 340c85,73 182,112 217,208 -88,-10 -249,-219 -453,-263 -210,-44 -430,88 -422,283 8,203 386,775 485,947 175,302 329,612 502,932 140,261 365,684 456,953 335,-67 2211,-795 2362,-740 -35,66 6,12 -73,48l-59 30c-2,-4 -10,6 -14,10 80,60 110,110 179,167 453,372 1506,729 1631,234 -99,21 -270,76 -347,24 129,-89 629,4 640,-421 -132,24 -243,128 -455,119 21,-33 10,-35 112,-55 48,-9 87,-16 132,-31 583,-183 418,-813 -177,-585 -246,94 -273,236 -377,250 21,-70 62,-89 101,-137 -238,23 -672,-50 -802,-186 71,-126 231,-255 153,-500 -51,-162 -263,-274 -419,-136 -139,123 30,335 -207,469 -149,84 -225,190 -235,405 83,-2 117,-25 180,8 -45,31 -468,87 -572,109 -185,39 -367,79 -553,121 -185,42 -363,88 -542,135 -138,36 -466,153 -523,105l135 -60c-355,-341 -1116,-1788 -1086,-1884 25,-10 -3,-24 35,9 2,2 6,7 8,9 23,28 337,754 466,940 26,-424 -201,-842 -172,-1141 19,-194 192,-223 358,-40 312,345 279,612 500,832l486 498c111,112 395,362 469,514 338,-31 312,-104 562,-450 275,-380 544,-789 832,-1156 208,-266 194,-327 636,-219 677,166 855,364 1567,-18 402,-216 64,-595 15,-624 -166,-96 -565,224 -665,217 11,-59 209,-142 271,-189l-235 -6z"/>
  <path class="fil1" d="M9284 15169l-133 -158c-51,-53 -84,-90 -146,-141 -111,-93 -237,-136 -360,-214 271,25 586,300 639,514zm-5416 -352c28,-33 -58,-9 66,-37l-66 37zm0 0l-128 132c-116,110 -288,300 -337,456 708,68 2070,-2 2677,-302 11,-871 74,-1771 103,-2643 7,-216 40,-3328 7,-3439 -22,-72 -68,-57 -89,-269 -11,-108 -2,-217 12,-325 83,-650 325,-718 326,-1745 0,-321 -23,-297 -144,-538 -75,-149 -152,-296 -232,-443l-178 -333c-36,-68 -34,-71 -73,-104 18,962 -69,1152 -421,1933 -124,276 -259,603 -206,961 66,450 317,636 391,779l-67 21c287,1393 162,3933 -191,5286 75,6 160,8 213,42 -47,37 -510,-40 -898,5 -269,31 -552,99 -789,191 -294,115 -1121,495 -1138,830l254 41c94,-255 425,-610 740,-648 -191,52 -628,424 -719,656l380 40c32,-37 234,-519 507,-582zm5416 352c60,32 156,-28 204,-65 -28,-86 -142,-229 -206,-285 -56,-48 -64,-71 -121,-125 -386,-365 -1097,-523 -1640,-541 -164,-6 -329,-2 -493,10 -78,6 -149,12 -224,22 -152,21 -133,33 -181,-3 46,-32 92,-30 156,-39 -29,-190 -94,-403 -130,-607 -215,-1249 -172,-2199 -80,-3459 32,-437 101,-922 109,-1351 -124,93 -236,251 -438,308 -21,1018 1,2065 -6,3079 -6,1000 -97,2000 -113,2999 1030,179 1531,342 2655,218 -90,-230 -532,-581 -691,-622 308,67 627,339 696,617 100,-11 331,-56 425,-91 89,-32 59,-8 76,-64z"/>
  <path class="fil1" d="M5167 8278c-150,82 -234,226 -350,352 -293,318 -601,899 -773,1317 -798,1934 -367,2788 -1007,3849 -86,142 -186,293 -280,397 -286,317 -847,725 -1343,752 -193,10 -424,60 -336,311 114,326 1299,-15 1867,-692 953,-1136 689,-2036 990,-3170 192,-724 483,-1613 900,-2214 53,-77 98,-125 153,-195 59,-76 91,-122 164,-184 59,-50 128,-88 173,-155 -75,-93 -125,-238 -157,-367z"/>
  <path class="fil2" d="M6230 8978c155,-8 379,-254 447,-332 384,-436 526,-1231 524,-1829l-500 164c-59,-79 -164,-344 -218,-443 -9,512 -11,817 -170,1273 -86,247 -308,950 -83,1167z"/>
  <path class="fil2" d="M7049 6308l140 -39c-29,-430 -98,-873 -225,-1264 -73,-224 -391,-962 -616,-870 -152,63 -19,463 18,587 168,561 -25,573 191,936 104,174 354,551 492,650z"/>
  <path class="fil3" d="M5675 1224c197,-89 290,303 106,380 -206,86 -303,-290 -106,-380zm-41 -328c-427,161 -259,1024 163,889 430,-139 274,-1053 -163,-889z"/>
  <path class="fil3" d="M6565 1208c178,-86 260,308 86,366 -192,63 -289,-268 -86,-366zm-114 -374c-392,165 -159,992 250,848 166,-59 253,-308 189,-539 -48,-173 -212,-405 -439,-309z"/>
  <path class="fil2" d="M4718 1583c10,-75 21,-156 -2,-231 -29,-92 -55,-119 -153,-123 -96,176 -34,314 155,354z"/>
  <path class="fil2" d="M7551 1365c68,-6 145,-28 186,-61 40,-32 86,-128 19,-187 -129,-112 -215,116 -205,247z"/>
  <path class="fil4" d="M6557 1436c23,-5 48,50 56,-42 4,-50 -35,-50 -58,-59 -19,47 -27,43 2,101z"/>
  <path class="fil5" d="M5697 1438c27,-54 31,-27 0,-77 -3,4 -27,-15 -22,37 5,55 -6,14 22,41z"/>
  <path class="fil6" d="M3868 14818l66 -37c-124,28 -38,4 -66,37z"/>
  <path class="fil1" d="M5685 2016l893 -28c-80,-87 -295,-250 -391,-312l-502 340zm-990 -378c-87,-56 -157,-61 -197,-151 -40,-88 -20,-255 41,-289 117,-67 299,96 211,417l-54 23zm2955 -575c164,-69 301,217 22,321 -136,51 -186,48 -165,-107 16,-118 50,-175 143,-214zm-2955 575c-49,79 -137,138 -185,250 -152,353 199,586 509,707 38,-50 63,-107 105,-155 60,-68 90,-79 138,-143 -96,-98 -75,-36 -165,-181 -185,17 -266,50 -409,-65 336,73 466,30 591,-242 -9,149 -96,196 -145,282 66,122 52,83 144,163 122,-28 345,-245 444,-322 105,-81 351,-255 467,-303 94,49 211,150 305,219 143,140 150,183 228,266l245 98c58,-86 100,-100 151,-211 -76,-41 -133,-109 -169,-215 209,201 166,272 560,184 -103,96 -196,93 -364,72 -45,91 -91,114 -139,192l208 201c280,-87 833,-343 622,-660 -72,-108 -150,-140 -270,-199 185,-89 267,-51 387,-222 247,-352 -145,-762 -434,-474 -128,127 -133,250 -183,448 -585,27 -277,-14 -469,271 -42,62 -116,131 -229,138 -214,13 -360,-178 -400,-354l-110 6c-104,72 -49,410 -376,446 -236,26 -368,-191 -402,-406l-365 20c-24,-183 -36,-393 -141,-514 -168,-194 -796,168 -592,510 93,156 207,219 444,192z"/>
  <path class="fil0" d="M5697 1361c31,50 27,23 0,77 -28,-27 -17,15 -22,-41 -5,-52 19,-33 22,-37zm-164 792l654 465 479 -515 -68 -81 -941 28 -124 103zm3751 13017c-52,-215 -367,-490 -639,-514 123,78 249,122 360,214 62,52 95,89 146,141l133 158c-18,56 12,31 -76,64 -95,35 -325,79 -425,91 -69,-278 -388,-551 -696,-617 159,41 601,392 691,622 -1124,125 -1624,-38 -2655,-218 16,-999 107,-2000 113,-2999 6,-1014 -16,-2060 6,-3079 203,-57 314,-215 438,-308 -9,429 -77,914 -109,1351 -92,1260 -136,2211 80,3459 35,204 101,418 130,607 -64,9 -110,7 -156,39 48,36 29,24 181,3 75,-10 146,-17 224,-22 164,-12 328,-15 493,-10 543,18 1254,177 1640,541 57,54 65,76 121,125 64,56 178,199 206,285 -47,37 -144,97 -204,65zm-2900 -14710c138,44 430,254 575,333 37,-50 66,-93 88,-159 -172,-95 -354,-286 -532,-386l-71 93c-39,60 -39,46 -61,119zm-1195 263l93 127c81,-26 474,-316 532,-376l-126 -196c-96,62 -394,367 -498,445zm-472 861c-189,-40 -252,-178 -155,-354 97,4 124,31 153,123 24,75 12,156 2,231zm-23 56l54 -23c88,-321 -94,-484 -211,-417 -60,34 -80,201 -41,289 40,89 111,94 197,151 -237,28 -351,-36 -444,-192 -204,-342 424,-704 592,-510 105,121 117,331 141,514l365 -20c34,215 166,431 402,406 327,-35 271,-374 376,-446l110 -6c40,176 185,367 400,354 113,-7 187,-76 229,-138 192,-286 -116,-244 469,-271 51,-198 55,-321 183,-448 289,-287 682,122 434,474 -120,171 -202,133 -387,222 120,59 199,91 270,199 211,317 -342,573 -622,660l-208 -201c49,-78 94,-101 139,-192 167,22 261,24 364,-72 -394,88 -351,17 -560,-184 36,106 94,175 169,215 -51,111 -93,125 -151,211l-224 -108c-78,-84 -64,-83 -249,-257 -94,-69 -211,-170 -305,-219 -115,48 -361,222 -467,303 -99,77 -322,293 -444,322 -92,-80 -78,-40 -144,-163 49,-86 136,-133 145,-282 -125,272 -255,316 -591,242 142,115 224,82 409,65 90,145 69,83 165,181 -48,64 -79,75 -138,143 -42,48 -67,105 -105,155 -310,-122 -661,-354 -509,-707 49,-113 136,-171 185,-250zm2856 -274c-10,-131 76,-359 205,-247 67,58 21,154 -19,187 -40,33 -118,55 -186,61zm100 -301c-93,39 -128,96 -143,214 -20,155 29,157 165,107 279,-104 142,-390 -22,-321zm-1093 372c-29,-57 -21,-54 -2,-101 23,9 62,9 58,59 -8,92 -33,37 -56,42zm3345 2334c135,-19 179,-79 365,-61 155,15 225,83 322,100 -8,-36 35,-32 -122,-96 -134,-55 -274,-61 -416,-31 -192,41 -143,56 -150,88zm-2959 -1157l289 3c-24,245 -136,136 -315,145 34,-2 25,-3 63,10l84 39 -101 36c-232,42 -537,-42 -754,-95 0,-133 78,-217 203,-332 113,-105 174,-183 261,-285 212,44 500,259 546,451l-276 29zm-1776 5666c32,130 82,275 157,367 -45,67 -114,105 -173,155 -73,62 -105,108 -164,184 -55,70 -100,118 -153,195 -416,602 -708,1490 -900,2214 -301,1135 -36,2035 -990,3170 -568,677 -1753,1018 -1867,692 -88,-252 143,-301 336,-311 496,-27 1056,-435 1343,-752 94,-104 195,-255 280,-397 640,-1061 209,-1915 1007,-3849 172,-417 480,-999 773,-1317 116,-126 200,-270 350,-352zm1062 699c-225,-218 -3,-920 83,-1167 159,-456 161,-761 169,-1273 55,99 160,364 218,443l500 -164c2,598 -139,1393 -524,1829 -69,78 -293,324 -447,332zm-2362 5840c-273,63 -475,545 -507,582l-380 -40c90,-232 527,-604 719,-656 -315,38 -645,393 -740,648l-254 -41c18,-335 844,-715 1138,-830 237,-93 520,-160 789,-191 388,-45 851,31 898,-5 -53,-34 -138,-35 -213,-42 353,-1353 479,-3893 191,-5286l67 -20c-75,-143 -325,-329 -391,-779 -53,-358 82,-685 206,-961 352,-781 439,-971 421,-1933 40,33 37,35 73,104l178 333c80,147 157,294 232,443 121,242 144,218 144,538 -1,1027 -244,1096 -326,1745 -14,108 -23,217 -12,325 21,212 67,196 89,269 33,111 0,3223 -7,3439 -29,872 -92,1771 -103,2643 -608,300 -1969,370 -2677,302 49,-156 220,-346 337,-456l128 -132zm3163 -9761c63,35 910,891 978,1008l-779 195c-19,-370 -95,-868 -199,-1203zm18 1251c-139,-99 -389,-476 -493,-650 -216,-362 -23,-375 -191,-936 -37,-124 -170,-524 -18,-587 225,-92 543,646 616,870 127,391 197,834 225,1264l-140 39zm4545 -2010c53,-61 155,-91 230,-179 77,-90 57,-224 32,-352 113,53 271,244 170,411 -83,136 -256,142 -431,120zm-595 -742c35,60 -25,4 33,50l235 6c-62,47 -260,130 -271,189 99,6 499,-313 665,-217 49,28 387,408 -15,624 -712,382 -890,184 -1567,18 -442,-109 -427,-48 -636,219 -287,367 -556,776 -832,1156 -251,346 -225,419 -562,450 -74,-152 -358,-402 -469,-514l-486 -498c-221,-219 -188,-487 -500,-832 -166,-183 -339,-154 -358,40 -29,298 198,717 172,1141 -129,-186 -443,-912 -466,-940 -2,-2 -6,-7 -8,-9 -37,-34 -10,-19 -35,-9 -29,95 731,1543 1086,1884l-135 60c57,48 385,-69 523,-105 179,-47 356,-93 542,-135 185,-42 368,-82 553,-121 104,-22 527,-78 572,-109 -63,-33 -97,-10 -180,-8 10,-215 85,-321 235,-405 237,-133 68,-346 207,-469 156,-138 368,-26 419,136 77,245 -82,375 -153,500 130,137 565,209 802,186 -39,47 -80,67 -101,137 104,-13 131,-155 377,-250 594,-228 759,402 177,585 -45,14 -84,21 -132,31 -102,20 -92,21 -112,55 213,9 324,-95 455,-119 -11,424 -511,332 -640,421 77,52 248,-3 347,-24 -125,495 -1178,138 -1631,-234 -69,-57 -99,-106 -179,-167 4,-4 11,-14 14,-10l59 -30c79,-36 37,18 73,-48 -151,-55 -2027,673 -2362,740 -91,-269 -315,-692 -456,-953 -172,-320 -327,-630 -502,-932 -99,-171 -477,-743 -485,-947 -8,-195 212,-328 422,-283 203,43 365,253 453,263 -35,-96 -132,-135 -217,-208l2 -340c145,93 165,163 411,145 0,108 -21,272 15,354 67,-61 -26,-217 201,-243 150,-17 231,83 291,167 162,229 418,548 609,764l426 496c60,79 141,133 159,187l11 78 1460 -1660c126,-127 -47,-289 196,-418 85,-45 24,11 75,-50 33,-174 -245,-227 -218,-479 76,-240 705,-272 633,410 -94,66 -54,-31 -98,67 592,-17 842,-17 1354,182 -107,83 -299,37 -457,27zm-4423 -118c8,-12 16,-24 23,-37l0 0c27,-34 144,-230 147,-490l-312 -61c-109,-24 -203,-59 -315,-72 -90,116 -352,114 -476,195 64,247 476,946 874,535l59 -69m-469 -673c-223,68 -864,349 -1044,100l146 -80c-34,5 -153,42 -160,25 -2,-4 -8,-1 -16,-3l-5 -79 216 -38c-29,-3 -101,-4 -120,-6 -70,-10 -44,6 -78,-30 101,-169 42,-118 194,-262 41,-39 64,-73 112,-113 46,-38 97,-68 141,-103 4,2 10,2 12,8l24 16c3,2 8,6 11,9l137 110c76,54 480,292 489,352 9,55 16,69 4,72 -11,3 -19,6 -63,22zm-1110 -140c0,108 -35,66 -240,104 -444,84 -662,236 -728,252 253,-91 652,-203 955,-245 13,185 -23,88 -404,308 -103,59 -304,173 -364,285 213,-108 408,-300 783,-439 228,124 210,148 596,84 38,119 126,300 189,382 123,159 117,176 100,482 -254,-84 -404,-141 -591,65 -219,243 209,790 376,1082 135,237 108,296 95,684 -49,1406 -688,1404 -620,2549 -58,65 -118,106 -181,170 -63,65 -102,124 -162,187 -719,767 -1265,2466 -1358,3515 -101,1148 -402,2138 -1521,2663 -166,78 -346,142 -552,149 -211,7 -413,101 -339,354 119,411 1394,-4 1887,-593 477,-570 751,-1137 852,-1935 53,-416 77,-819 174,-1218 176,-720 731,-2458 1401,-2800 284,239 281,2292 266,2786 -20,681 -92,1416 -208,2087 -36,212 -98,453 -123,654 -568,-41 -1138,51 -1603,263 -302,138 -1079,509 -1008,840 628,199 1971,156 2695,9 145,-29 709,-202 770,-195l822 163c696,109 1553,163 2234,-36 145,-43 250,-110 358,-151 -117,-367 -649,-707 -1030,-845 -551,-200 -1086,-188 -1694,-149 -340,-1255 -319,-2484 -233,-3807l116 -1421c26,-302 -2,-197 129,-407 276,-443 404,-1070 404,-1675 19,-50 1493,-527 1582,-539 115,-16 220,237 597,420 292,141 932,399 1252,160 71,-53 61,-73 107,-161 44,-85 72,-73 146,-118 184,-110 90,-234 170,-365 33,-55 184,-162 108,-375 -111,-311 -471,-232 -724,-74 -187,117 -636,-24 -851,-115 75,-143 214,-294 124,-534 -63,-170 -273,-277 -462,-151 -192,128 13,349 -234,484 -85,47 -138,99 -177,171 -27,50 -38,84 -49,137 -4,17 -9,59 -12,70 -28,101 -10,69 -422,146 101,-175 1033,-1460 1139,-1583 111,-129 101,-217 335,-171 304,59 590,147 883,223 420,109 518,-145 901,-99 287,34 508,-138 425,-386 -18,-52 -237,-370 -416,-427 -116,-37 -105,7 -216,-50 -339,-174 -818,-214 -1210,-188 62,-867 -793,-707 -719,-328 32,162 189,213 227,358 -102,57 -187,74 -221,222 -66,288 48,113 -141,329 -68,78 -153,153 -216,234l-648 746c-99,112 -343,425 -431,508l-586 -661c-169,-218 -377,-446 -569,-700 -165,-217 -203,-341 -555,-200 0,-165 -29,-131 87,-202 62,-52 92,-76 147,-153l17 -29 2 -4c96,-141 141,-361 155,-517 471,-39 184,-133 728,-8 285,65 586,184 669,202 -134,-168 -783,-251 -967,-312 23,-29 19,-27 36,-70l38 -92c171,0 339,14 505,35 155,20 311,65 455,85 -143,-52 -251,-98 -438,-128 -144,-23 -455,-19 -547,-43l-42 -96c285,-76 792,-312 673,-659 -37,-107 -134,-166 -211,-228 171,-75 279,-135 346,-290 167,-389 -248,-716 -537,-455 -139,125 -138,228 -197,431 -68,28 -264,40 -350,24 -15,-526 -493,-669 -665,-377 -84,142 -64,206 -74,379l8 50 -123 7 -15 -116c-17,-220 -186,-456 -442,-394 -243,59 -286,347 -302,540l-298 21c-3,-7 -7,-21 -8,-18l-28 -120c-8,-55 -12,-86 -26,-138 -109,-397 -393,-337 -611,-162 -405,325 -130,684 205,730 -63,132 -250,325 -63,598 57,83 335,329 488,330zm1190 -949c97,62 311,225 391,312l-893 28 502 -340zm-553 -780c437,-165 593,750 163,889 -422,136 -589,-728 -163,-889zm817 -61c227,-96 391,136 439,309 64,232 -23,481 -189,539 -409,144 -641,-683 -250,-848zm114 374c-203,98 -106,429 86,366 174,-57 92,-452 -86,-366zm-890 15c-197,90 -100,466 106,380 184,-77 91,-469 -106,-380z"/>
  <path class="fil0" d="M5697 1361c31,50 27,23 0,77 -28,-27 -17,15 -22,-41 -5,-52 19,-33 22,-37zm-164 792l654 465 479 -515 -68 -81 -941 28 -124 103zm3751 13017c-52,-215 -367,-490 -639,-514 123,78 249,122 360,214 62,52 95,89 146,141l133 158c-18,56 12,31 -76,64 -95,35 -325,79 -425,91 -69,-278 -388,-551 -696,-617 159,41 601,392 691,622 -1124,125 -1624,-38 -2655,-218 16,-999 107,-2000 113,-2999 6,-1014 -16,-2060 6,-3079 203,-57 314,-215 438,-308 -9,429 -77,914 -109,1351 -92,1260 -136,2211 80,3459 35,204 101,418 130,607 -64,9 -110,7 -156,39 48,36 29,24 181,3 75,-10 146,-17 224,-22 164,-12 328,-15 493,-10 543,18 1254,177 1640,541 57,54 65,76 121,125 64,56 178,199 206,285 -47,37 -144,97 -204,65zm-2900 -14710c138,44 430,254 575,333 37,-50 66,-93 88,-159 -172,-95 -354,-286 -532,-386l-71 93c-39,60 -39,46 -61,119zm-1195 263l93 127c81,-26 474,-316 532,-376l-126 -196c-96,62 -394,367 -498,445zm-472 861c-189,-40 -252,-178 -155,-354 97,4 124,31 153,123 24,75 12,156 2,231zm-23 56l54 -23c88,-321 -94,-484 -211,-417 -60,34 -80,201 -41,289 40,89 111,94 197,151 -237,28 -351,-36 -444,-192 -204,-342 424,-704 592,-510 105,121 117,331 141,514l365 -20c34,215 166,431 402,406 327,-35 271,-374 376,-446l110 -6c40,176 185,367 400,354 113,-7 187,-76 229,-138 192,-286 -116,-244 469,-271 51,-198 55,-321 183,-448 289,-287 682,122 434,474 -120,171 -202,133 -387,222 120,59 199,91 270,199 211,317 -342,573 -622,660l-208 -201c49,-78 94,-101 139,-192 167,22 261,24 364,-72 -394,88 -351,17 -560,-184 36,106 94,175 169,215 -51,111 -93,125 -151,211l-224 -108c-78,-84 -64,-83 -249,-257 -94,-69 -211,-170 -305,-219 -115,48 -361,222 -467,303 -99,77 -322,293 -444,322 -92,-80 -78,-40 -144,-163 49,-86 136,-133 145,-282 -125,272 -255,316 -591,242 142,115 224,82 409,65 90,145 69,83 165,181 -48,64 -79,75 -138,143 -42,48 -67,105 -105,155 -310,-122 -661,-354 -509,-707 49,-113 136,-171 185,-250zm2856 -274c-10,-131 76,-359 205,-247 67,58 21,154 -19,187 -40,33 -118,55 -186,61zm100 -301c-93,39 -128,96 -143,214 -20,155 29,157 165,107 279,-104 142,-390 -22,-321zm-1093 372c-29,-57 -21,-54 -2,-101 23,9 62,9 58,59 -8,92 -33,37 -56,42zm3345 2334c135,-19 179,-79 365,-61 155,15 225,83 322,100 -8,-36 35,-32 -122,-96 -134,-55 -274,-61 -416,-31 -192,41 -143,56 -150,88zm-2959 -1157l289 3c-24,245 -136,136 -315,145 34,-2 25,-3 63,10l84 39 -101 36c-232,42 -537,-42 -754,-95 0,-133 78,-217 203,-332 113,-105 174,-183 261,-285 212,44 500,259 546,451l-276 29zm-1776 5666c32,130 82,275 157,367 -45,67 -114,105 -173,155 -73,62 -105,108 -164,184 -55,70 -100,118 -153,195 -416,602 -708,1490 -900,2214 -301,1135 -36,2035 -990,3170 -568,677 -1753,1018 -1867,692 -88,-252 143,-301 336,-311 496,-27 1056,-435 1343,-752 94,-104 195,-255 280,-397 640,-1061 209,-1915 1007,-3849 172,-417 480,-999 773,-1317 116,-126 200,-270 350,-352zm1062 699c-225,-218 -3,-920 83,-1167 159,-456 161,-761 169,-1273 55,99 160,364 218,443l500 -164c2,598 -139,1393 -524,1829 -69,78 -293,324 -447,332zm-2362 5840c-273,63 -475,545 -507,582l-380 -40c90,-232 527,-604 719,-656 -315,38 -645,393 -740,648l-254 -41c18,-335 844,-715 1138,-830 237,-93 520,-160 789,-191 388,-45 851,31 898,-5 -53,-34 -138,-35 -213,-42 353,-1353 479,-3893 191,-5286l67 -20c-75,-143 -325,-329 -391,-779 -53,-358 82,-685 206,-961 352,-781 439,-971 421,-1933 40,33 37,35 73,104l178 333c80,147 157,294 232,443 121,242 144,218 144,538 -1,1027 -244,1096 -326,1745 -14,108 -23,217 -12,325 21,212 67,196 89,269 33,111 0,3223 -7,3439 -29,872 -92,1771 -103,2643 -608,300 -1969,370 -2677,302 49,-156 220,-346 337,-456l128 -132zm3163 -9761c63,35 910,891 978,1008l-779 195c-19,-370 -95,-868 -199,-1203zm18 1251c-139,-99 -389,-476 -493,-650 -216,-362 -23,-375 -191,-936 -37,-124 -170,-524 -18,-587 225,-92 543,646 616,870 127,391 197,834 225,1264l-140 39zm4545 -2010c53,-61 155,-91 230,-179 77,-90 57,-224 32,-352 113,53 271,244 170,411 -83,136 -256,142 -431,120zm-595 -742c35,60 -25,4 33,50l235 6c-62,47 -260,130 -271,189 99,6 499,-313 665,-217 49,28 387,408 -15,624 -712,382 -890,184 -1567,18 -442,-109 -427,-48 -636,219 -287,367 -556,776 -832,1156 -251,346 -225,419 -562,450 -74,-152 -358,-402 -469,-514l-486 -498c-221,-219 -188,-487 -500,-832 -166,-183 -339,-154 -358,40 -29,298 198,717 172,1141 -129,-186 -443,-912 -466,-940 -2,-2 -6,-7 -8,-9 -37,-34 -10,-19 -35,-9 -29,95 731,1543 1086,1884l-135 60c57,48 385,-69 523,-105 179,-47 356,-93 542,-135 185,-42 368,-82 553,-121 104,-22 527,-78 572,-109 -63,-33 -97,-10 -180,-8 10,-215 85,-321 235,-405 237,-133 68,-346 207,-469 156,-138 368,-26 419,136 77,245 -82,375 -153,500 130,137 565,209 802,186 -39,47 -80,67 -101,137 104,-13 131,-155 377,-250 594,-228 759,402 177,585 -45,14 -84,21 -132,31 -102,20 -92,21 -112,55 213,9 324,-95 455,-119 -11,424 -511,332 -640,421 77,52 248,-3 347,-24 -125,495 -1178,138 -1631,-234 -69,-57 -99,-106 -179,-167 4,-4 11,-14 14,-10l59 -30c79,-36 37,18 73,-48 -151,-55 -2027,673 -2362,740 -91,-269 -315,-692 -456,-953 -172,-320 -327,-630 -502,-932 -99,-171 -477,-743 -485,-947 -8,-195 212,-328 422,-283 203,43 365,253 453,263 -35,-96 -132,-135 -217,-208l2 -340c145,93 165,163 411,145 0,108 -21,272 15,354 67,-61 -26,-217 201,-243 150,-17 231,83 291,167 162,229 418,548 609,764l426 496c60,79 141,133 159,187l11 78 1460 -1660c126,-127 -47,-289 196,-418 85,-45 24,11 75,-50 33,-174 -245,-227 -218,-479 76,-240 705,-272 633,410 -94,66 -54,-31 -98,67 592,-17 842,-17 1354,182 -107,83 -299,37 -457,27zm-4423 -118c8,-12 16,-24 23,-37l0 0c27,-34 144,-230 147,-490l-312 -61c-109,-24 -140,-58 -252,-71 -207,98 -305,114 -539,194 64,247 476,946 874,535l59 -69m-469 -673c-223,68 -864,349 -1044,100l146 -80c-34,5 -153,42 -160,25 -2,-4 -8,-1 -16,-3l-5 -79 216 -38c-29,-3 -101,-4 -120,-6 -70,-10 -44,6 -78,-30 101,-169 42,-118 194,-262 41,-39 64,-73 112,-113 46,-38 97,-68 141,-103 4,2 10,2 12,8l24 16c3,2 8,6 11,9l137 110c76,54 480,292 489,352 17,108 -11,67 -58,95zm-1110 -140c0,108 -35,66 -240,104 -444,84 -662,236 -728,252 253,-91 652,-203 955,-245 13,185 -23,88 -404,308 -103,59 -304,173 -364,285 213,-108 408,-300 783,-439 228,124 210,148 596,84 38,119 126,300 189,382 123,159 117,176 100,482 -254,-84 -404,-141 -591,65 -219,243 209,790 376,1082 135,237 108,296 95,684 -49,1406 -688,1404 -620,2549 -58,65 -118,106 -181,170 -63,65 -102,124 -162,187 -719,767 -1265,2466 -1358,3515 -101,1148 -402,2138 -1521,2663 -166,78 -346,142 -552,149 -211,7 -413,101 -339,354 119,411 1394,-4 1887,-593 477,-570 751,-1137 852,-1935 53,-416 77,-819 174,-1218 176,-720 731,-2458 1401,-2800 284,239 281,2292 266,2786 -20,681 -92,1416 -208,2087 -36,212 -98,453 -123,654 -568,-41 -1138,51 -1603,263 -302,138 -1079,509 -1008,840 628,199 1971,156 2695,9 145,-29 709,-202 770,-195l822 163c696,109 1553,163 2234,-36 145,-43 250,-110 358,-151 -117,-367 -649,-707 -1030,-845 -551,-200 -1086,-188 -1694,-149 -340,-1255 -319,-2484 -233,-3807l116 -1421c26,-302 -2,-197 129,-407 276,-443 404,-1070 404,-1675 19,-50 1493,-527 1582,-539 115,-16 220,237 597,420 292,141 932,399 1252,160 71,-53 61,-73 107,-161 44,-85 72,-73 146,-118 184,-110 90,-234 170,-365 33,-55 184,-162 108,-375 -111,-311 -471,-232 -724,-74 -187,117 -636,-24 -851,-115 75,-143 214,-294 124,-534 -63,-170 -273,-277 -462,-151 -192,128 13,349 -234,484 -85,47 -138,99 -177,171 -27,50 -38,84 -49,137 -4,17 -9,59 -12,70 -28,101 -10,69 -422,146 101,-175 1033,-1460 1139,-1583 111,-129 101,-217 335,-171 304,59 590,147 883,223 420,109 518,-145 901,-99 287,34 508,-138 425,-386 -18,-52 -237,-370 -416,-427 -116,-37 -105,7 -216,-50 -339,-174 -818,-214 -1210,-188 62,-867 -793,-707 -719,-328 32,162 189,213 227,358 -102,57 -187,74 -221,222 -66,288 48,113 -141,329 -68,78 -153,153 -216,234l-648 746c-99,112 -343,425 -431,508l-586 -661c-169,-218 -377,-446 -569,-700 -165,-217 -203,-341 -555,-200 0,-165 -29,-131 87,-202 62,-52 92,-76 147,-153l17 -29 2 -4c96,-141 141,-361 155,-517 471,-39 184,-133 728,-8 285,65 586,184 669,202 -134,-168 -783,-251 -967,-312 23,-29 19,-27 36,-70l38 -92c171,0 339,14 505,35 155,20 311,65 455,85 -143,-52 -251,-98 -438,-128 -144,-23 -455,-19 -547,-43l-42 -96c285,-76 792,-312 673,-659 -37,-107 -134,-166 -211,-228 171,-75 279,-135 346,-290 167,-389 -248,-716 -537,-455 -139,125 -138,228 -197,431 -68,28 -264,40 -350,24 -15,-526 -493,-669 -665,-377 -84,142 -64,206 -74,379l8 50 -123 7 -15 -116c-17,-220 -186,-456 -442,-394 -243,59 -286,347 -302,540l-298 21c-3,-7 -7,-21 -8,-18l-28 -120c-8,-55 -12,-86 -26,-138 -109,-397 -393,-337 -611,-162 -405,325 -130,684 205,730 -63,132 -250,325 -63,598 57,83 335,329 488,330zm1190 -949c97,62 311,225 391,312l-893 28 502 -340zm-553 -780c437,-165 593,750 163,889 -422,136 -589,-728 -163,-889zm817 -61c227,-96 391,136 439,309 64,232 -23,481 -189,539 -409,144 -641,-683 -250,-848zm114 374c-203,98 -106,429 86,366 174,-57 92,-452 -86,-366zm-890 15c-197,90 -100,466 106,380 184,-77 91,-469 -106,-380z"/>
  <path class="fil2" d="M6576 3439c39,-89 167,-233 170,-527l-312 -61c-109,-24 -149,-48 -252,-71 -133,62 -368,122 -539,194 64,247 476,946 874,534l59 -69z"/>
  <path class="fil2" d="M5044 2654c34,37 8,21 78,30 20,3 91,3 120,6l-216 38 5 79c8,1 15,-2 16,3 6,17 126,-20 160,-25l-146 80c180,249 821,-32 1044,-100 0,0 62,-22 62,-22 0,0 3,-31 -4,-72 -10,-60 -413,-298 -489,-352l-137 -110c-3,-2 -9,-7 -11,-9l-24 -16c-2,-6 -8,-6 -12,-8 -45,34 -95,65 -141,103 -49,40 -72,74 -112,113 -152,144 -93,93 -194,262z"/>
  <path class="fil2" d="M7219 2584c-46,-193 -334,-407 -546,-451 -87,102 -147,180 -261,285 -125,116 -203,199 -203,332 217,54 522,138 754,95l101 -36 -84 -39c-37,-12 -29,-11 -63,-10 179,-9 291,100 315,-145l-289 -3 276 -29z"/>
  <polygon class="fil7" points="5533,2153 6187,2618 6666,2103 6598,2022 5657,2050 "/>
 </g>
</svg>
