<?xml version="1.0" encoding="UTF-8" standalone="no"?>
<!DOCTYPE svg  PUBLIC '-//W3C//DTD SVG 1.1//EN'  'http://www.w3.org/Graphics/SVG/1.1/DTD/svg11.dtd'>
<!-- Creator: CorelDRAW X5 -->
<svg style="shape-rendering:geometricPrecision;text-rendering:geometricPrecision;image-rendering:optimizeQuality" xmlns="http://www.w3.org/2000/svg" fill-rule="evenodd" xml:space="preserve" height="500px" width="500px" clip-rule="evenodd" xmlns:xlink="http://www.w3.org/1999/xlink" viewBox="0 0 12764 16208">
 <defs>
  <style type="text/css">
   <![CDATA[
    .fil6 {fill:#020202}
    .fil2 {fill:rgb(39, 39, 39)}
    .fil1 {fill:#6666FF}
    .fil7 {fill:#CC3300}
    .fil3 {fill:#F154A9}
    .fil0 {fill:#FCCCC3}
    .fil5 {fill:#FF9999}
    .fil4 {fill:white}
   ]]>
  </style>
 </defs>
 <g id="Layer_x0020_1">
  <g id="_285756224">
   <path class="fil0" d="m7818 8227c15 10 59 15 68 6 26-31-6-40-24-56-17-132-127-243-197-303l-402-8c-36 63-118 151-225 166 33-86 58-25 173-159-209-128-171-47-139-394-61-57-263-186-376-293-839-796-786-1879-238-1260 316 356 664 711 751 1258 85-75 75-125 251-111 141 11 154-95 219-90 20 36 24-3-3 37-2 3-25 22-29 25l-69 59c70 60 162 109 231 170 436 388-179 506-288 554 403 32 651-217 792-428-11-15-14-35-69-50 179 13 256 58 465 11 162-37 241-92 376-140-67 77-199 144-325 170-35 368-228 712-570 831-61 21-355 100-371 7zm-2322-4031l280-403c-231 14-443-244-478-99-32 132 129 438 197 502zm2664 2852c-13-24 0-6-6-35-20-93-41-67-119-162-746-905-360-2468 64-1837 314 469 422 1005 424 1586 77-35 154-108 255-121-69 42-114 75-177 122-85 64-405 369-441 447zm-2463-1836c-68-200-43-349 211-308-90 32-153 23-189 96-42 85 10 144-22 212zm1794-1715c9-6-20-30 69-16 125 20 124 79 129 116-25-12-177-87-197-101zm1746-493c120 100 88 388 79 520-28-45-3 49-26-59 0 0-26-316-53-461zm-205 494c-19-262 85-577 262-650-147 172-179 380-262 650zm643 239c-31-55-7-137-3-201 16-250-5-547-165-739-109-131 68-220-62-504-142-26-235 105-301 180-168 192-153-95-578 446-43 54-64 87-107 150-123 178-88 118-99 108-33-31 196-311 228-353l90-122c-726-129-1497 3-2023 356-500 336-873 719-1187 1295-320 585-327 1402 33 1960 150 233 262 336 453 492 188 153 466 428 626 615 152 178 120 118 90 149-19 29-75-58-109-88-20 37-34 89-38 137-8 111 14 27-12 127-55 214 20 642 292 733 369 123 888 85 1264-7 114-28 465-109 533-176 39-38 104-217 356-334 394-184 360 56 536-74 283-210 470-473 565-834 27-101 43-202 49-304 25-468-93-144 128-524 405-694 235-1831-202-2476-78-115-230-304-316-373-2 95 4 240-27 331-1 3-6 17-7 14s-4 10-7 14z"/>
   <path class="fil0" d="m9492 12230c-496-6-715 60-1300-96-977-260-931-1109-778-1930 112-602 296-899 336-1092-222-76-68-1-226 18-104 13-145-71-214-99-56 65-99 125-150 189-45 56-115 119-165 170-216 221-393 104-405 48-1-6-6-8-9-11-222 235-566 1015-690 1381-57 167-192 224-393 272-30 300-45 349 4 609 1 3 2 8 2 11l-14 71c-10 139 87 518 131 649 96 282 233 533 419 763 147 183 165 142 166 224-131-41-250-300-352-388-33 372 149 916 306 1168 356 570 835 452 952 504-27 26-5 17-58 28-46 9-180-9-227-19-137-28-125-36-208 48-113 114-185 201-291 319-365 406 152 502 511 490 349-11 611-166 791-448 76-119 187-273 129-451-42-128-182-265-304-302 0 29 4 96 2 119-11 109 13 36-27 76-79-180 79-550 45-649-20-23-135-10-184-12-58-3-122-16-174-29-41-10-182-56-215-80-40-29-28-7-43-57 227 52 273 152 590 117-21-90-100-252-58-330l16 24c16 30 5-17 29 88 93 405 315 843 707 1027 270 127 422 64 484 121-90 49-263-3-368-29-118 90-204 222-301 339-118 143-114 295 37 407 236 175 684 215 966 64 206-110 267-219 397-354 187-194 315-546 102-781-85-94-235-213-356-256 3 74 43 191 23 237-135-94-36-552-17-703-73 60-73 93-153 122-4-71 80-111 121-158 275-319 258-441 293-496 55-86 46-48 85-190 67-246 77-487 39-741z"/>
   <path class="fil1" d="m9577 11663c-109 47-133 57-206-38-50-66-86-147-117-239-154-460-147-1771-52-1896 2 4 4 10 5 13s4 10 4 14c13 58-22 466-25 541-9 213-12 419-1 632 15 305 71 840 293 967 475-180 867-706 854-1283-12-519-424-1977-862-2338-260-214-560-46-722 130-149 162-195 347-243 566-25 117-39 87-57 146-22 70-36 843-232 861-119 11-261-340-319-446-43-77-79-88-105-131-154 207-317 907-367 1211-185 1125 56 1657 1217 1804 341 43 968 96 1244-191l28-34-338-288zm-1013-3295l-152 55 46 300 105-355zm-3119 2728c-235 67-356 26-537 165-40 301 271 365 525 406l-2-130-1-138 15-303zm-746-3077c-143-124-395-291-328-599l-155-15c-28 203-65 380 35 568 37 70 88 151 199 140 20-2 221-78 248-94zm415-1291c21 17 69 53 92 74 50 45 32 49 98 97l-42-249-143-47-6 125zm698 572c-79-84-453-448-480-560-16 208 67 185-21 451-94 281-195 487-394 711-114 127-132 160-346 208l359 350c339 326 543 538 853 881 37 41 106 147 149 180 48-31 399-469 525-480-12 60-100 107-226 235-147 150-64 51-230 243-129 148-139 123-235 238-257 306-818 1018-859 1448 252-146 616-110 862-281 83-58 140-295 179-392 170-429 335-723 576-1099 54-84 31-375 55-516 27-160 89-313 108-462-223-137-218-427-229-740-128-83-424-177-647-414z"/>
   <path class="fil2" d="m7823 15300c65 168 100 217 268 286 308 127 566 142 870 19-266 137-462 264-842 261-149-1-356-37-410-154-53-115 40-336 114-412zm-135-7723c17-109-68-191-146-222 7 52 16 105 34 151 25 62 39 72 111 71zm-404 124c97 37 94-51 68-127-27-78-41-77-51-87l-10-10c-30 74-35 160-7 224zm1190-1386c-64-85-88-201-207-188-56 83-39 214-3 319 44 126 76 153 147 243-15 21-209 219-232 238-342-204-666-1186-460-1782 175-505 407-71 520 202 102 246 249 661 235 969zm-364 1880c10-243 118-493 296-536-25 52-106 179-74 244 131-153 69-329 365-387-68 335-272 618-587 679zm-1e3 -415c-36-124-33-206 29-318 101-185 133-598 622-177 517 445-451 580-650 495zm931 434l-123 11c-22-164-107-270-191-354 53-38 357-95 521-305 36-47 79-126 129-164 216 34 128 10 257 15 94 3 28-20 83 21-38 60-40 31-118 64l-338 194c-48 45-106 133-138 217-17 46-29 90-37 139-4 23-7 68-11 85l-32 77zm-1946-2196c0-423 248-168 391-2 229 267 580 638 645 989-51-66-104-151-213-138-67 93-16 215 30 302 124 231 205 103 155 234-150 51-1008-810-1008-1386zm1768 2154l-43 54c17 93 310 14 371-7 343-119 535-463 570-831 126-26 259-93 325-170-134 48-214 103-376 140-209 48-286 2-465-11 55 15 59 35 69 50-140 211-388 460-792 428 109-48 724-166 288-554-69-61-161-110-231-170l69-59c4-3 27-22 29-25 27-40 24-2 3-37-65-6-78 101-219 90-176-14-166 37-251 111-87-547-435-902-751-1258-549-619-602 464 238 1260 113 107 315 236 376 293-32 347-70 266 139 394-116 134-141 73-173 159 107-15 189-103 225-166l402 8c71 60 174 182 197 300zm299-1125c36-78 356-384 441-447 63-47 108-80 177-122-102 13-179 86-255 121-2-581-110-1117-424-1586-424-631-810 932-64 1837 78 95 99 69 119 162 6 29-7 11 6 35zm-669-3552c20 14 172 89 197 101-5-38-4-96-129-116-89-15-60 9-69 16zm-178 555h24c-2-125 103-292 267-219 139 61 197 171 303 234-47-94-182-240-294-282-201-75-293 97-300 267zm-1616 1160c31-68-20-127 22-212 36-73 99-63 189-96-254-41-279 108-211 308zm3335-1715c83-270 115-478 262-650-177 73-281 388-262 650zm284 26c9-132 41-420-79-520 27 145 53 461 53 461 24 108-2 14 26 59zm-3162 11783c51 135 78 182 207 237 128 54 330 56 476 56 327 0 433-113 640-226-257 404-1800 773-1323-67zm3205-1965c67-236 96-101 384-276 66-40 69-62 134-90-73 201-302 341-517 366zm-3929-1941l1 138 1 130c-254-41-565-105-525-406 181-138 302-98 537-165l-15 303zm4146 264l338 288-28 34c-276 287-903 235-1244 191-1161-147-1402-679-1217-1804 50-303 213-1004 367-1211 26 43 62 54 105 131 59 106 200 456 319 446 196-18 210-791 232-861 18-60 32-30 57-146 47-218 93-404 243-566 162-176 463-344 722-130 438 361 850 1819 862 2338 13 577-379 1103-854 1283-222-127-278-662-293-967-11-214-8-419 1-632 3-75 38-483 25-541-1-4-4-11-4-14-1-3-3-9-5-13-95 126-102 1436 52 1896 31 92 67 173 117 239 73 95 96 84 206 38zm-85 567c37 254 27 495-39 741-39 143-30 104-85 190-35 55-18 177-293 496-41 48-124 88-121 158 79-30 79-62 153-122-19 151-119 609 17 703 21-46-19-163-23-237 121 44 271 162 356 256 213 235 85 587-102 781-130 134-190 243-397 354-283 151-730 111-966-64-151-112-155-263-37-407 97-117 183-249 301-339 105 26 278 78 368 29-62-57-214 6-484-120-392-184-613-621-707-1027-24-105-13-57-29-88l-16-24c-42 78 37 240 58 330-317 35-363-65-590-117 15 49 3 28 43 57 33 24 174 70 215 80 53 13 116 26 174 29 48 3 164-11 184 12 34 99-124 468-45 649 40-40 16 33 27-76 2-24-2-90-2-119 122 37 261 173 304 302 59 178-53 332-129 451-180 283-442 437-791 448-359 11-876-84-511-490 107-119 179-206 291-319 83-84 71-76 208-48 47 10 181 28 227 19 53-11 31-2 58-28-117-52-596 66-953-504-157-252-339-796-306-1168 102 88 221 347 352 388-1-82-19-41-166-224-186-231-323-482-419-763-44-131-141-510-131-649l14-71c0-3-1-8-2-11-49-261-34-309-4-609 201-48 336-105 393-272 125-366 469-1146 690-1381 3 3 8 5 9 11 12 56 189 173 405-48 50-51 120-114 165-170 51-64 94-125 150-189 68 28 110 112 214 99 158-19 4-94 226-18-40 193-224 490-336 1092-152 821-198 1670 778 1930 585 156 804 90 1300 96zm-2234-3472c-93 38-198 17-248 127 112-31 96-72 245-68 4 153 87 157-161 415-767 796-449-599-355-728 203 41 320 84 557 102l-38 153zm545-158l572-136c46 309 47 1040-158 1232-117-49-188-236-253-370-135-279-314-267-328-332l16-130c209-42 259 55 331 12-67-60-193-66-305-62 102-297 255-76 377-92 24-44-45-64-82-74-56-15-128-11-170-47zm-449 6l387-10c-35 62-100 159-125 250-30 108 21 257-123 241-86-10-296-186-138-482zm1105 117l-46-300 152-55-105 355zm-4049-1291c44 28 65 63 112 112 31 32 70 78 76 114-60 37-70 36-156 42-42-121-61-123-33-268zm289 586c-27 17-228 93-248 94-112 10-162-70-199-140-100-189-63-365-35-568l155 15c-68 308 185 475 328 599zm50-16c-101-68-193-155-254-250 168-109 212-39 439-346 55-74 100-153 150-244 46-84 81-202 137-271 118 96 87 156 32 303-103 277-287 653-505 809zm583-1263c28 112 401 476 480 560 223 236 518 331 647 414 11 312 6 603 229 740-19 148-81 302-108 462-24 142-2 432-55 516-241 376-406 670-576 1099-39 97-96 335-179 392-247 171-610 135-862 281 41-429 601-1141 858-1448 96-115 106-90 235-238 167-192 83-93 230-243 126-128 214-175 226-235-126 11-478 449-525 480-42-33-112-139-149-180-311-343-514-555-853-881l-359-350c214-48 233-81 346-208 200-224 301-429 394-711 89-266 6-243 21-451zm-28 159c-66-49-48-52-98-97-23-21-71-57-92-74l6-125 143 47 42 249zm-2011-293c-65-110-146-333-63-468 84 154 70 253 291 438 58 48 145 118 236 139 140 33 155-30 191-136 90 48 111 7 196 25 267 499-537 534-851 2zm575 65c-199 40-436-224-502-334-87-146-168-559-77-748 39 50 67 122 106 185 44 70 71 107 128 168 68 73 227 225 312 274 6 173 94 315 32 455zm821-977c-61 97-54 199-232 468-595 898-747-25-377-535 212-292 611-493 830-27 190 405 144 738 162 1188 9 3 15-16 106 43-20 188-321 687-529 798l-169-198c-8-11-17-25-23-34-21-29-5-11-24-31-259 72-408-153-488-301 107-77 189-25 265-185 74-155-3-231-46-319l90-64c30 145 164 598 353 489-107-99-131-13-224-205-50-105-82-228-89-353 130-111 490-638 396-731zm-1525-1754c-2 57 228 764 775 482 381-196 577-673 654-746 128 202 206 470 241 761 25 211 39 732-47 910-127-45-223-98-390-34-417 159-484 579-562 778l-14 27c-680-355-735-1469-657-2178zm2333 255c-68-64-229-371-197-502 35-145 246 113 478 99l-280 403zm-1057-393c-65 168-308 427-428 513-775 552-1e3 -870-849-1582 114 357 516 745 841 917 132 70 277 128 437 152zm5236-67c3-4 6-17 7-14s6-11 7-14c31-91 25-236 27-331 87 68 239 258 316 373 436 645 607 1781 202 2476-222 380-104 56-128 524-5 103-22 203-49 304-95 361-282 624-565 834-176 130-142-110-536 74-251 118-317 297-356 334-68 66-419 148-533 176-376 91-895 130-1264 7-272-91-347-518-292-733 26-100 5-16 12-127 3-48 18-100 38-137 34 30 90 116 109 88 30-31 62 29-90-149-160-187-438-462-626-615-191-155-303-259-453-492-361-558-353-1375-33-1960 315-576 688-959 1187-1295 526-354 1296-485 2023-356l-90 122c-32 42-261 322-228 353 11 10-24 71 99-108 43-63 64-96 107-150 426-540 410-254 578-446 66-75 159-206 301-180 130 284-47 373 62 504 160 193 181 489 165 739-4 63-27 146 3 201zm-6594-488c0 257 80 569 23 792-391-353-801-930-795-1529 153 272 248 429 531 607 75 47 175 79 240 131zm1391 522c-424-78-744-312-938-540-401-471-385-577-282-1013 47-200 107-389 175-575 84-233 183-243 392-337 285-128 884-292 1225-192 113 277-23 1179-98 1476-138 547-222 716-473 1180zm-939-2371c105-337 468-816 687-953 566-353 812 337 815 618-536-63-1123 99-1503 334zm-453 1776c-182-7-493-298-614-472-605-870 698-1654 1235-1745-68 152-160 300-235 470-237 538-358 1149-386 1747zm-570-1541c102-185 164-294 307-442 134-138 229-242 399-369 184-138 731-470 1045-447-38 4-188 124-217 152-195 188-237 355-374 394-316 92-507 167-777 366-73 54-360 287-384 345zm6958 11496l-23-2 8-28c116-270 104-586 81-890 178-38 375-148 449-258-52-69-227-160-309-256l-18-22c-24-32-3 6-25-37 48-47 129-91 187-133 185-133 347-344 447-559 166-357 109-758 17-1137-149-614-431-1584-826-1829 44-57 74-69 131-116 342-284 549-674 562-1153 10-350-56-170 88-405 59-96 113-212 156-337 95-273 124-571 108-875-29-572-228-1089-496-1453-222-301-278-231-301-431-9-78-17-130-43-209-96-291-158-162-140-344 18-187 16-264-54-406-191-29-279 115-364 203-102 106-236 40-367 220-458-50-577-107-1109-21-662 107-1337 507-1712 987-43 55-80 109-182 115-185 11-322-212-427-136-149 112 39 423 99 524 104 177 70 53-96 469-277 697-89 1645 476 2107 154 126 426 362 557 507 45 50 123 152 180 186l-54 249c-330-66-818-549-1020-822-109-147-96-200-228-245-81-28-70 2-100-60 0-347-46-747-199-1002-140-234-79-81-41-460 39-390-1-949-188-1300-48-90-92-118-54-204 137-306 236-546 330-895 160-593 267-1558-33-2081-185-322-418-335-858-228-796 192-1678 933-1802 1843-94 690 244 1290 662 1743 194 211 165 25 164 416-2 616 43 585 146 1090 18 89-20 174-26 270-6 97 14 217-4 307-38 188-111 243-14 490 84 214 264 366 450 459 50 25 205 71 228 86 77 52 85 221 302 311-28 173-61 286-22 473 85 407 311 269 406 324 69 40 1260 1224 1324 1396-41 48-68 61-110 106l-322 388c-179 246-652 945-602 1269 43 280 286 329 568 380 33 66 59 484 200 843 44 112 136 262 164 350 55 168-16 1425 871 1754-169 133-499 492-613 762-216 511 506 448 832 358 565-156 1031-692 927-1109-56-221-232-279-341-372-1-95 22-208 59-277 61 150 184 342 268 427 233 235 285 187 402 286-295 330-1038 1201-36 1174 935-25 1696-971 1373-1465-122-187-226-194-428-342-8-85 36-413 66-485 9-23 91-136 112-167 61-89 70-54 190-85 240-62 517-308 516-594-145 140-237 319-517 361z"/>
   <path class="fil3" d="m4472 3770c251-464 335-633 473-1180 75-298 211-1199 98-1476-341-100-940 63-1225 192-209 94-308 104-392 337-67 187-128 375-175 575-103 436-118 542 282 1013 194 227 513 462 938 540z"/>
   <path class="fil3" d="m3164 3940c-78 709-23 1823 657 2178l14-27c78-199 145-619 562-778 167-64 263-11 390 34 86-178 72-699 47-910-35-291-113-559-241-761-77 73-273 550-654 746-547 282-777-425-775-482z"/>
   <path class="fil0" d="m4689 5694c94 94-265 620-396 731 6 126 38 249 89 353 93 192 117 106 224 205-189 109-322-344-353-489l-90 64c43 89 120 164 46 319-76 160-158 108-265 185 81 148 229 373 488 301 20 20 3 2 24 31 7 9 16 23 23 34l169 198c208-111 508-609 529-798-91-59-97-40-106-43-18-450 28-782-162-1188-218-466-618-265-830 27-370 510-218 1434 377 535 177-268 171-371 232-468zm-545 910c-84-18-106 23-196-25-36 106-51 169-191 136-91-21-178-91-236-139-221-184-207-284-291-438-83 134-2 358 63 468 314 533 1118 497 851-2zm-276 66c61-140-26-282-32-455-85-49-244-201-312-274-57-61-84-98-128-168-39-63-68-136-106-185-91 189-10 602 77 748 66 110 303 374 502 334z"/>
   <path class="fil3" d="m3081 3175c29-598 150-1209 386-1747 75-170 166-318 235-470-537 91-1840 875-1235 1745 121 174 432 465 614 472z"/>
   <path class="fil4" d="m8473 6315c14-308-133-723-235-969-113-273-346-706-520-202-206 596 118 1577 460 1782 23-19 217-216 232-238-71-90-103-117-147-243-36-105-53-236 3-319 119-12 143 103 207 188z"/>
   <path class="fil4" d="m4440 3803c-160-24-305-82-437-152-325-172-727-560-841-917-150 712 75 2134 849 1582 120-86 363-345 428-513z"/>
   <path class="fil4" d="m3534 1399c379-235 966-398 1503-334-4-281-249-971-815-618-219 136-582 615-687 953z"/>
   <path class="fil4" d="m6093 6019c0 576 858 1437 1008 1386 49-131-31-3-155-234-47-87-97-209-30-302 109-13 162 72 213 138-65-351-416-722-645-989-142-166-391-421-391 2z"/>
   <path class="fil3" d="m7803 8601c42 36 113 32 170 47 37 10 106 30 82 74-122 16-275-205-377 92 112-3 237 2 305 62-72 43-122-54-331-12l-16 130c14 65 193 53 328 332 65 134 136 321 253 370 205-192 204-923 158-1232l-572 136zm-508 5c-237-18-354-61-557-102-94 129-412 1525 355 728 249-258 165-262 161-415-149-4-133 37-245 68 50-109 154-89 248-127l38-153zm58 1c-158 295 52 472 138 482 144 16 94-134 123-241 25-91 91-189 125-250l-387 10z"/>
   <path class="fil4" d="m3105 4039c57-223-23-534-23-792-65-52-165-84-240-131-283-178-378-335-531-607-6 600 404 1177 795 1529z"/>
   <path class="fil5" d="m7290 7477l10 10c9 11 24 9 51 87 26 76 29 165-68 127-28-65-23-151 7-224zm251-122c77 31 163 113 146 222-72 1-86-8-111-71-19-46-27-100-34-151zm-433 425c199 85 1167-50 650-495-488-420-521-8-622 177-61 113-65 195-29 318z"/>
   <path class="fil4" d="m2511 1633c24-58 311-291 384-345 270-200 461-274 777-366 137-40 179-207 374-394 29-28 179-148 217-152-314-23-861 309-1045 447-171 128-265 231-399 369-143 147-205 257-307 442z"/>
   <path class="fil4" d="m4749 8004c218-156 401-532 505-809 55-147 86-207-32-303-56 69-90 188-137 271-50 91-95 170-150 244-228 308-272 237-439 346 61 96 153 182 254 250zm-306-303c85-6 95-5 156-42-6-35-46-81-76-114-47-49-68-85-112-112-28 145-9 147 33 268z"/>
   <path class="fil3" d="m7823 15300c-74 76-167 297-114 412 54 117 261 153 410 154 380 3 576-124 842-261-304 123-562 108-870-19-167-69-203-118-268-286z"/>
   <path class="fil3" d="m6154 15306c-477 840 1066 471 1323 67-207 112-313 226-640 226-145 0-348-2-476-56-129-55-156-102-207-237z"/>
   <path class="fil6" d="m8081 8143c4-17 7-66 11-90 8-49 21-91 39-137 32-84 94-178 142-222l349-188c87-30 72-13 93-68-24-51-2-27-83-21-129-5-51 10-267-24-49 37-96 126-132 173-179 203-454 268-507 305 84 84 147 203 168 367l153-11 33-84z"/>
   <path class="fil7" d="m8109 8195c314-62 519-344 587-679-296 58-234 234-365 387-32-65 49-192 74-244-178 43-286 294-296 536z"/>
   <path class="fil0" d="m9359 13341c216-25 444-164 517-366-65 27-67 49-134 90-288 175-317 40-384 276z"/>
  </g>
 </g>
</svg>
