<?xml version="1.0" encoding="UTF-8"?>
<!DOCTYPE svg PUBLIC "-//W3C//DTD SVG 1.1//EN" "http://www.w3.org/Graphics/SVG/1.1/DTD/svg11.dtd">
<!-- Creator: CorelDRAW X5 -->
<svg xmlns="http://www.w3.org/2000/svg" xml:space="preserve" height="500px" width="500px" style="shape-rendering:geometricPrecision; text-rendering:geometricPrecision; image-rendering:optimizeQuality; fill-rule:evenodd; clip-rule:evenodd"
viewBox="0 0 12764 16208"
 xmlns:xlink="http://www.w3.org/1999/xlink">
 <defs>
  <style type="text/css">
   <![CDATA[
    .fil7 {fill:#040604}
    .fil8 {fill:#0C0A0C}
    .fil11 {fill:#242224}
    .fil33 {fill:rgb(39, 39, 39)}
    .fil18 {fill:#2C2E2C}
    .fil30 {fill:#3C3A3C}
    .fil21 {fill:#4C4E4C}
    .fil12 {fill:#545254}
    .fil4 {fill:#5B3939}
    .fil13 {fill:#646264}
    .fil28 {fill:#646664}
    .fil25 {fill:#6C6A6C}
    .fil15 {fill:#737673}
    .fil32 {fill:#747274}
    .fil1 {fill:#7B849C}
    .fil14 {fill:#7C7A7C}
    .fil26 {fill:#848284}
    .fil24 {fill:#848684}
    .fil23 {fill:#8C8A8C}
    .fil31 {fill:#949694}
    .fil29 {fill:#9C9A9C}
    .fil22 {fill:#9C9E9C}
    .fil19 {fill:#A4A2A4}
    .fil20 {fill:#ACAAAC}
    .fil0 {fill:#ADADB5}
    .fil17 {fill:#BBBABB}
    .fil27 {fill:#BCBEBC}
    .fil2 {fill:#D40202}
    .fil16 {fill:#D4D6D4}
    .fil3 {fill:#E7A573}
    .fil9 {fill:#F4F6F4}
    .fil6 {fill:#FBFEFB}
    .fil5 {fill:#FCB3B3}
    .fil10 {fill:#FFCC99}
   ]]>
  </style>
 </defs>
 <g id="Layer_x0020_1">
  <metadata id="CorelCorpID_0Corel-Layer"/>
  <path class="fil0" d="M438 13724c-2,-104 212,-235 438,-200 36,6 44,4 67,23 -79,129 -97,75 -228,88 -177,19 -179,60 -278,88zm171 -539l-21 15 11 -30c58,-49 100,-109 198,-123 -17,27 -2,18 -11,53 -77,28 -104,48 -177,84zm-219 315c11,-81 74,-158 150,-213 51,-36 240,-196 309,-135 84,146 -65,145 -173,182 -130,45 -188,102 -287,166zm-14 154c-54,-122 200,-237 316,-279 370,-136 304,92 260,136 -50,-3 -22,-3 -69,-18 -16,-5 -43,-10 -62,-12 -103,-11 -205,34 -289,82 -75,43 -86,95 -155,90z"/>
  <path class="fil0" d="M669 13924c-36,-141 460,-317 694,-148 -3,38 -4,32 -27,62 -51,65 -156,122 -194,119 0,0 -156,-38 -167,-56 -10,-17 -243,6 -306,22zm659 -429c35,-3 24,-6 64,15 -13,0 -28,3 -41,0 -52,-12 16,18 -22,-15 -32,14 -114,4 -172,17 -68,15 -126,33 -162,26 90,-42 204,-73 310,-52 43,8 13,3 24,10zm-476 211c115,-170 562,-231 644,-115 -46,97 -87,5 -301,23 -220,19 -245,66 -342,91zm545 25c-48,4 -107,-31 -153,-41 -68,-15 -78,-9 -121,-14 -3,0 -6,-1 -9,-1 -2,0 -7,-2 -9,-2 -2,0 -6,0 -9,-3 -3,-3 -6,-2 -9,-4 92,-23 257,-37 322,11l-13 54z"/>
  <path class="fil0" d="M9788 12092c31,-35 100,-107 149,-99 -20,36 -99,81 -149,99zm-264 533c-25,-133 208,-264 277,-313 122,-87 314,-267 376,-20 -12,94 -247,146 -331,173 -51,17 -123,45 -170,79 -49,36 -84,82 -152,81zm76 -227c6,-11 15,-37 25,-49 34,-44 214,-169 266,-201 3,-2 13,-8 16,-10 42,-26 32,-28 75,-27 -2,38 22,8 -24,42 -19,14 -39,26 -54,35l-305 209zm91 -161c1,-3 2,-9 4,-8l12 -21c11,-16 11,-14 29,-30 36,-31 169,-136 208,-130 -27,41 -202,153 -252,188z"/>
  <path class="fil1" d="M4450 13847c15,60 14,39 73,44l247 17c114,1 232,10 346,5 63,-3 184,-30 242,-25 43,3 41,1 87,-4 529,-49 1409,-332 1860,-579 34,-19 70,-28 105,-45l169 -91c29,-15 61,-27 92,-44 122,-67 225,-129 341,-193 109,-60 473,-325 574,-408 94,-78 187,-153 273,-224 247,-205 1067,-1009 1178,-1236 107,-220 135,-323 205,-543 118,-373 139,-256 27,-479 -91,-181 -173,-394 -221,-586 -33,-132 -61,-245 -82,-375 -20,-126 -27,-237 -27,-362 0,-117 32,-261 -49,-354 -73,-83 -151,-167 -244,-227 -45,-29 -88,-64 -129,-89l-685 -379c-24,-16 -42,-31 -72,-47 -137,-75 -262,-175 -382,-279 -22,-19 -42,-40 -60,-59 -13,95 -5,230 -15,330 -22,215 -47,426 -100,634 -32,123 -77,245 -116,363 -22,67 -64,152 -92,213 -45,96 -82,186 -132,280 -30,56 -52,85 -74,136l-69 138c-49,89 -111,170 -173,252 -19,26 -28,35 -46,64l-44 64c-111,125 -200,248 -312,368 -152,163 -305,311 -482,450 -346,272 -741,566 -1154,743 -11,5 -53,16 -79,26 28,32 62,33 97,42 42,10 279,80 308,97 -74,16 -297,-47 -381,-68l-454 -102c-490,-113 -976,-123 -1484,-64 -198,23 -712,132 -909,252 -3,18 -1,-24 5,15 5,34 8,-6 -2,22 -87,-38 -211,-61 -338,-7 73,27 155,16 214,82 -112,18 -323,79 -378,169 64,-13 126,-31 193,-29l59 10 -27 27c-2,1 -18,11 -22,14 -83,60 -205,165 -218,267 83,-60 175,-178 296,-140 -81,100 -82,133 -125,241 -23,58 -31,77 -46,132 -23,83 -62,169 -80,261 -29,151 -76,351 -42,504 6,28 -6,10 -5,60 1,48 9,103 13,159 14,212 85,452 166,640 23,55 145,289 144,305 -77,-42 -155,-245 -205,-347 1,48 17,118 37,165 10,24 25,58 38,82 47,90 29,57 26,72 -139,-102 -122,-370 -181,-551 -51,-23 -95,-46 -150,-64 -31,-10 -55,-17 -83,-24 -106,-25 -318,-91 -421,-41 94,39 44,110 -33,154 13,76 -7,47 -27,99 -20,53 4,40 -39,84 -60,63 -96,80 -188,116 22,25 72,52 113,90l216 196c128,108 258,208 399,297l170 112c83,57 149,90 243,137l161 76c55,23 103,49 158,62 23,5 40,15 67,21 90,22 366,73 430,41 22,-24 93,-117 107,-145 55,-104 53,-227 106,-334 80,-162 545,-533 692,-637 -14,-7 -5,-5 -24,-9 -81,-18 -190,-14 -270,-4 -65,8 -280,80 -319,56 13,-13 36,-30 58,-42 2,-1 5,-3 7,-4l39 -15c126,-44 278,-51 406,-60 58,-4 178,13 246,23 66,9 172,15 233,42 22,-19 16,-15 28,-36z"/>
  <path class="fil1" d="M10150 12063l14 21 -111 36c85,44 141,15 159,194 93,-49 173,-111 274,-154 114,-49 336,-90 568,-196 98,-45 192,-98 284,-143 121,-59 403,-232 496,-316 102,-94 192,-168 189,-322 -1,-55 -2,-100 -41,-154 -14,67 22,119 2,177 -61,-53 -80,-480 -82,-561l36 -443 86 -419c51,-127 74,-265 110,-400 9,-36 15,-54 22,-84 14,-61 28,-106 31,-173l11 -173c2,-62 -2,-129 -7,-190l-31 -285c-10,-57 -29,-70 9,-87 42,113 44,187 65,293 39,-20 37,-13 66,-109 31,-102 30,-337 -10,-435 -21,-41 14,-11 23,-2 58,117 29,116 57,221 50,-132 -22,-292 -49,-385 77,-5 68,100 108,150 24,31 2,-4 28,31 41,55 42,86 71,145 -15,-175 -36,-192 -97,-346 -14,-5 -12,2 -30,-1 -9,-24 -3,2 11,-19 -60,-106 -226,-296 -220,-336 46,10 87,65 129,92 36,24 112,72 145,77 -28,-47 -195,-156 -244,-196 -311,-259 -405,-426 -670,-709 -154,-163 -308,-264 -468,-426l-169 -170c-86,-79 -176,-219 -282,-316 -11,-16 10,13 -2,-17 -7,-18 -17,-25 -29,-39 -54,-64 -157,-169 -171,-245 39,17 88,73 115,112 -35,-96 -270,-374 -348,-451 -93,-92 -189,-198 -302,-268 -43,-27 -67,-44 -114,-68 -253,-135 -450,-211 -739,-241 -119,-12 -154,8 -250,9 -44,0 -18,3 -43,-15 129,-89 400,-44 541,-16 63,12 104,32 165,48 407,105 859,539 1063,869 91,147 344,554 459,614 8,-46 4,-86 3,-139 -1,-163 -32,-323 -68,-480 -90,-392 -361,-881 -586,-1190 -87,-120 -184,-234 -288,-338 -48,-49 -77,-39 -113,-79 58,-14 117,20 162,29 -16,-18 -76,-53 -93,-61 -102,-50 -264,-65 -303,-121 55,-8 113,-7 152,-45 -40,-5 -113,-12 -143,-12 -122,253 -199,219 -320,376 -38,49 -67,93 -134,85 -17,-52 -12,-72 7,-106 -59,35 -78,71 -137,40 -78,93 -140,189 -226,285l-258 273c-214,213 -297,57 -711,15 -16,222 133,491 185,703 55,228 56,620 67,657 4,-15 29,-104 42,-120 10,235 -137,485 -77,803 61,324 283,486 519,664l76 56 329 190c139,103 281,157 423,247 114,73 224,146 315,240 26,26 126,139 143,150 12,-28 38,-210 52,-274 11,-48 32,-88 38,-135 3,-23 -5,-24 -1,-34l42 -66c26,-59 45,-122 87,-166 0,55 -43,128 -59,179 -10,32 -15,59 -26,90 -30,86 -80,303 -79,389 3,203 -30,226 0,537 15,158 48,311 87,463 113,438 284,759 475,1139 34,67 82,150 106,208 140,334 70,309 99,438 43,-39 338,-175 401,-159 -23,24 -305,124 -462,239 92,-32 451,-233 525,-178 -67,25 -140,41 -218,74 -179,76 -385,199 -528,324 -158,138 -258,239 -398,387 -45,47 -77,105 -125,141 30,80 18,51 16,123 34,12 10,-2 32,24 70,-28 65,-27 139,-43z"/>
  <path class="fil1" d="M11608 6988c-3,-7 10,-42 14,-6 5,49 21,-8 -3,5 -9,5 -6,14 -11,1z"/>
  <path class="fil1" d="M4453 6157l13 -17c27,47 7,8 3,28 15,115 -18,146 79,348 55,115 113,195 198,274 106,99 310,239 444,329l38 19 -127 -269c-35,-72 -82,-192 -94,-264 38,36 260,540 385,686 153,178 313,217 426,295 44,30 105,67 154,74 17,32 -40,-35 30,4l102 76c25,13 29,5 53,14 -29,-79 -25,-117 32,-154 -33,-55 -75,-77 -61,-141 33,35 78,150 172,140 -61,-62 -34,-70 -37,-141 -62,-24 -135,-69 -154,-168 41,24 84,137 224,144 -61,-124 -34,-114 5,-206 -45,-27 -108,-72 -147,-126 51,2 65,30 111,57l118 45c-7,-31 -39,-63 13,-149 37,-62 93,-69 168,-91 -21,-28 -35,-35 -55,-57 -115,-124 -234,-337 -415,-470 -146,-108 -247,-187 -414,-264 -24,-11 -46,-23 -71,-32 -31,-10 -55,-4 -61,-35 27,-21 151,50 184,62 52,18 203,99 247,128 26,17 31,20 56,32 2,-119 6,-108 56,-201 -204,-509 -616,-568 -656,-670 57,-8 315,162 375,206 2,1 5,3 6,5 76,63 190,193 242,293 21,41 35,91 60,139 89,-39 123,-172 167,-268 99,-216 201,-109 252,-99 12,-19 25,-54 33,-76 13,-34 22,-52 37,-85 14,-30 19,-57 32,-87 10,-21 14,-22 20,-41 7,-21 4,-23 10,-46 36,-126 70,-229 91,-366 10,-65 16,-132 33,-189 12,-43 29,-136 34,-188 9,-85 45,-316 22,-393 -31,29 -133,176 -199,244 -334,339 -510,334 -999,546 -133,57 -264,100 -392,160 -420,194 -662,448 -781,509 -69,35 -136,37 -197,57 52,17 117,-2 167,15 -2,49 -86,95 -145,247 -10,25 -9,18 -11,47 43,-43 74,-104 126,-141 -3,47 -27,64 -34,114 -5,35 -9,96 -5,130l34 -32z"/>
  <path class="fil1" d="M6433 4982c1,-30 0,-7 9,-30 8,45 13,21 -5,54 -2,-11 -5,-13 -4,-25z"/>
  <path class="fil1" d="M5753 5485c107,50 254,197 317,306 16,28 24,54 37,86 5,14 17,39 20,52 2,6 4,15 5,20 2,21 0,14 -4,27 -101,-133 34,-64 -275,-379 -53,-54 -92,-71 -108,-95l-19 -20c36,-17 8,-8 27,2z"/>
  <path class="fil0" d="M5792 7907c34,31 13,20 10,30 -44,-29 -11,-29 -10,-30zm1349 -1132c55,147 213,354 319,473 63,70 123,142 161,235 32,78 45,197 2,269 -13,21 -21,22 -37,52 -1,2 -2,5 -3,7 -19,39 -86,89 -123,121 -251,213 -1176,745 -1252,845 -43,56 -65,97 -86,165 -18,59 -34,185 -38,256 -9,181 -3,359 8,547 16,273 -147,237 -210,157 -52,-66 -19,-75 -102,-74 -41,-61 -140,-125 -210,-246 -40,-68 14,-98 18,-145 2,-24 -6,-55 -7,-80 -1,-33 3,-48 7,-82 13,-105 41,-187 68,-291 25,-96 -32,-189 14,-325 46,-135 115,-140 260,-188 132,-44 247,-150 315,-253 29,-43 13,-25 48,-63 81,-87 117,-171 253,-292 20,-18 43,-35 54,-59 -84,-1 -182,-1 -274,-11 -260,-28 -46,76 -390,-93l-349 -180c-94,32 -174,100 -285,143 -93,36 -250,93 -343,137 -256,123 -332,176 -511,352 -142,141 -249,275 -355,424l-108 162c-14,22 -18,38 -34,62 -47,69 -95,160 -133,236 -48,94 -89,203 -141,292 -189,322 -271,915 -266,1280 1,106 -5,523 31,596 235,-70 770,-59 1037,-37 164,13 325,38 476,72l231 53c39,10 73,20 113,30 59,14 59,18 117,-4 381,-142 916,-527 1247,-785 123,-96 218,-198 331,-307 52,-49 103,-101 149,-153 68,-77 144,-162 206,-246l128 -171c54,-65 145,-198 181,-266 23,-43 24,-55 45,-89 22,-35 37,-61 56,-93l94 -186c53,-112 137,-255 167,-374 34,-136 102,-259 131,-399l50 -207c47,-206 75,-425 76,-645 0,-122 19,-118 -50,-229 -100,-161 -152,-299 -156,-478 -3,-180 55,-292 61,-430 2,-41 -2,-69 0,-109 6,-115 3,-236 -12,-353 -33,-262 -76,-489 -185,-731 -23,54 -45,253 -73,349 -13,43 -30,74 -45,115 -56,153 -42,114 -117,261 -39,77 -229,351 -230,354 -22,57 10,174 -52,239 -18,19 -77,53 -107,79 -54,46 -87,110 -123,164l-36 85c-6,16 -19,47 -13,62z"/>
  <path class="fil1" d="M7573 2036c-65,-44 -44,-298 66,-342l28 31c8,12 7,11 20,32 -89,67 -116,188 -114,279zm479 -528c122,-44 401,85 373,191 -50,-13 -49,-61 -163,-87 -55,-13 -138,-9 -196,2 18,-34 11,-19 48,-35 -11,1 -10,1 -27,-6l25 -32c-48,10 -4,14 -43,-2l-16 -31zm-201 11c-17,-114 305,-299 378,-276 -234,90 -293,228 -378,276zm-657 34c45,-32 80,-101 149,-125 -9,23 -246,263 -104,588 45,-130 -6,-43 75,-199 15,-29 17,-124 81,-202 8,27 -14,92 -21,127 -10,49 -12,86 -14,135 37,-45 48,-127 177,-248 82,-77 189,-159 309,-204l-7 18c-8,12 -2,7 -16,20 -23,22 -82,43 -129,85 -96,84 -246,214 -289,335 -66,186 57,39 165,325 34,92 53,237 14,305l-18 -15 -13 8c-17,30 -43,69 -53,92 -27,62 -49,169 -17,238 12,27 61,62 86,84l24 -9c17,-152 -33,-132 59,-286l66 -131c16,-25 29,-34 42,-58 13,-23 26,-47 35,-67 -205,-199 -78,-209 -99,-295 -12,-50 -25,5 -21,-68 88,-50 237,69 298,223l222 -42c-37,-62 -56,-146 -47,-211 5,-38 25,-65 29,-89 8,-45 -23,-6 -10,-96 65,-21 160,19 200,43 81,49 85,114 135,207 69,-20 104,-64 179,-62 -9,13 4,6 -18,19 -8,5 -21,9 -29,13 -20,9 -38,18 -53,25 -51,25 -62,24 -92,63 30,-9 90,-26 117,-24 47,2 12,-8 30,14 -128,11 -170,65 -256,121 46,34 57,18 110,43 26,12 29,19 54,31 23,12 30,13 53,32 61,49 124,109 179,185 15,21 22,28 37,48 17,22 8,26 33,38 23,11 37,11 59,21 99,43 197,111 235,224 -65,-33 -35,-57 -95,-77 11,152 -69,242 -76,321 -11,140 -20,528 -33,614 -7,46 -11,41 -25,81 -31,87 -134,193 -241,256 -173,102 -363,98 -510,-14 -54,-41 -55,-99 -77,-172 -38,-126 -118,-250 -177,-368 -40,-80 -61,-87 -117,-136 -43,-38 -84,-105 -120,-134 53,389 -150,379 81,630 91,99 193,156 314,204 41,16 133,13 160,183 -33,-19 -39,-52 -71,-106 -72,-7 -353,-144 -413,-222 -65,45 -153,165 -167,219 110,33 200,48 308,102l444 199c35,16 20,14 54,13 -24,19 16,39 21,25 10,5 18,-55 14,-58 134,-171 440,-357 552,-519 27,-38 26,-22 28,-64 5,-117 27,-160 27,-216 1,-86 -53,-113 -56,-170 19,-61 107,-52 148,-29 47,26 86,86 123,143l29 -26c-70,-55 -182,-180 -66,-252 25,-6 168,75 194,90 69,-30 75,-72 108,-122 126,-185 31,-318 -19,-518 24,10 2,-14 29,19l56 114c20,55 27,112 38,164 26,-55 23,-139 15,-199 -13,-96 -61,-157 -97,-224 60,3 92,67 118,118 9,-27 4,19 8,-35 0,-6 0,-27 -1,-34 -11,-129 -46,-145 -94,-226 41,4 107,53 146,81 -108,-227 -329,-170 -463,-386 -42,-68 -74,-161 -114,-218 53,-1 77,136 140,171 32,-85 -7,-90 88,-271 24,-47 128,-217 200,-217 -25,40 -60,58 -92,113 -15,26 -62,113 -65,130 69,-33 164,-112 242,-68 -232,32 -334,192 -343,364 20,71 320,215 327,215 75,-28 114,-92 148,-143 53,-80 82,-284 55,-416 -19,-94 -49,-171 -97,-246 -153,-239 -411,12 -527,155 -61,76 -76,138 -121,167 4,-26 72,-190 90,-211 5,-6 21,-14 37,-30l135 -136c-48,-59 -107,-36 -189,-8 8,-61 102,-100 107,-203 -180,67 -212,221 -218,120 -1,-9 27,-231 -43,-282 -25,65 8,127 -12,185 -88,-73 -152,-196 -241,-268 -78,-63 -204,-114 -311,-117 94,89 171,113 270,295 -44,6 -239,-94 -288,-113 -90,-35 -75,-25 -147,-48 -197,-64 -271,-79 -490,-45 -81,13 -328,81 -377,139 89,-15 244,-31 303,8 -217,48 -276,75 -442,200 116,-50 292,-129 426,-116 -9,14 41,9 -72,27 -86,14 -186,50 -256,94 -58,36 -170,177 -169,224z"/>
  <path class="fil2" d="M6496 5895c12,-24 47,-80 52,-123 -223,-112 -178,240 -333,369 -54,45 -67,43 -87,104 -40,121 14,114 73,189l160 159c227,-115 249,-88 431,-88 -82,-99 -264,-194 -333,-500 -11,-47 -40,-150 -9,-190 17,52 18,87 24,122l21 -40z"/>
  <path class="fil3" d="M5851 8693c-11,-103 152,-183 235,-204 -30,46 -83,65 -131,97 -65,44 -65,73 -104,108zm3430 -4462c39,-29 37,-30 61,-59 11,-14 16,-18 27,-31 23,-29 17,-13 15,-38 -74,27 -102,62 -102,128zm-1994 -228c-82,6 -116,-33 -226,-2l58 79c-37,19 -67,28 -103,42 -18,7 -26,11 -42,20 -2,1 -25,14 -25,14 -52,41 31,93 2,170 -24,64 -4,19 -10,98l-100 693c-41,189 -165,572 -274,733 -10,15 -17,31 -26,45l-45 108c18,38 50,85 112,154 60,67 219,141 291,161 82,23 282,48 364,3 19,-11 102,-110 121,-132l189 -279c124,-191 140,-232 216,-453l50 -155c23,-94 39,-257 44,-354 15,-254 6,-170 -166,-214 -46,-12 -123,-21 -155,-53 36,-4 425,50 460,56 564,95 371,214 793,-237 47,-51 109,-121 146,-171 25,-34 125,-157 151,-178 -19,-99 -28,-88 10,-164 30,-61 2,-97 67,-148 49,-38 156,-72 159,-278l-45 -26c-68,42 -36,40 -64,79 -42,-48 -52,-91 -97,-139 -12,-13 -42,-38 -56,-45 -26,-15 -46,-15 -80,-5 26,60 55,132 55,194 0,58 -41,98 -28,168 24,-22 30,-35 53,-57 -30,164 -330,412 -476,532 -44,36 -156,122 -180,173 21,28 7,-9 39,35 -92,43 -360,-114 -481,-160l-165 -66c-158,-62 -336,-112 -510,-111 -79,0 -132,17 -203,23 4,-12 -3,-26 41,-44 56,-23 170,-17 221,-33 -26,-52 -65,-140 -81,-200 -3,-10 0,-106 -131,-34 35,40 103,101 127,159zm1913 -630c42,112 154,96 210,204 -44,48 -26,9 -34,83 -5,47 -10,53 -25,87l49 -34c4,14 12,20 -30,54 -21,16 -50,34 -70,45 -72,38 -90,42 -125,107 19,6 -23,32 103,-15 38,-14 72,-25 106,-45 36,-21 51,-31 79,-58 35,-35 30,-52 63,-67 -72,146 -74,143 -235,203 -79,29 -196,67 -150,152 72,-53 128,-66 217,-98 79,-28 127,-74 189,-117 -32,118 -193,146 -327,209 -58,28 -63,34 -71,88l144 -72c106,-40 177,-15 252,-116 291,-393 183,-306 13,-749 -25,23 -37,41 -56,67l-42 68c-1,2 -3,5 -5,8 -59,13 -91,-4 -137,-24 -41,-18 -74,-61 -115,-60 -17,28 -18,37 -2,80zm-2811 3259c42,52 95,135 139,183 75,82 111,90 153,201 23,63 121,124 179,169 122,92 258,126 165,200 52,52 57,11 81,105 -16,18 -43,37 -67,54l44 62c-51,99 -57,74 -170,89 -11,6 -39,74 -81,88 -31,10 -94,14 -142,32 -87,32 -316,319 -402,429 -43,55 -99,105 -146,147 3,1 8,-2 11,2 12,16 18,-10 29,15 -228,158 -463,69 -475,351 -5,118 23,116 -12,258 -26,104 -76,261 -75,364 0,65 18,73 11,125 -3,0 -8,-3 -9,0 -2,44 -21,-40 -31,8 -9,42 26,74 45,67 50,-21 48,-93 48,-136 14,8 26,-41 27,46 0,21 -4,37 -11,55 -14,38 -59,61 -26,88 67,55 27,-70 79,-119 18,122 -34,146 -36,149 -24,38 -1,72 38,53 31,-15 27,-35 31,-63 9,-74 11,-76 37,-91 -2,33 -3,75 -10,111 -14,67 -61,44 -10,105 68,-61 32,-106 72,-138 8,69 -20,126 13,199 18,39 83,102 140,62 31,-22 15,-15 24,-28 -38,-18 -39,-8 -69,-21 -31,-142 18,-131 65,-133 4,-283 -38,-286 -2,-644 10,-97 38,-207 87,-283 42,-65 118,-117 186,-161 58,-37 32,-14 44,-59 54,14 301,-170 357,-208 200,-137 989,-526 881,-817 -103,-276 -247,-231 -508,-761 -14,-29 -77,-158 -103,-183 -9,-9 -27,-16 -40,-24 -78,-49 -251,-47 -343,-31 -110,20 -128,39 -218,83z"/>
  <path class="fil1" d="M2547 11388c-11,-27 2,-4 11,-5 1,0 6,1 6,2 6,8 -4,36 -18,4zm-868 720c11,-34 -4,-10 23,-33 15,42 7,9 -4,29 -32,71 -46,68 -51,159 -2,37 -6,57 0,92 9,58 7,82 39,103 -2,-68 48,-143 99,-190 4,56 -127,281 -79,675 13,102 56,239 54,261 -81,-54 -73,-208 -109,-291 -181,66 -438,10 -667,66 -28,7 -71,21 -100,39 -44,29 -47,45 -52,87 87,40 102,103 55,179 93,68 128,6 130,197 137,-33 124,-52 295,-33 52,6 73,24 124,25 55,1 93,-12 149,-10 99,4 59,-5 130,13 82,21 178,31 259,65 44,18 72,47 132,30 -62,-164 -92,-553 -69,-747 5,-43 12,-65 -4,-114 28,-22 14,-15 26,-71l75 -298c10,-37 20,-63 31,-96 10,-29 8,-20 17,-43 57,-142 62,-123 112,-227 -51,23 -96,53 -138,88 -51,42 -65,72 -109,113 -18,-60 -16,-62 -5,-114 10,-45 22,-56 37,-92 -1,-32 -11,-11 17,-30 63,-78 97,-98 165,-161 -87,5 -150,51 -240,79 5,-27 1,-21 15,-44 3,-5 13,-18 14,-20l15 -25c57,-95 260,-146 332,-169 -53,-46 -130,-23 -193,-27 -31,-2 -11,1 -36,-12 40,-29 53,-54 116,-81 52,-22 102,-26 151,-24 172,5 142,-11 312,-74 109,-41 226,-79 332,-108 72,-19 250,-47 307,-74 -2,-166 -25,-339 -30,-516l-5 -179c-36,33 -57,83 -87,120 -30,38 -63,78 -98,117 -66,74 -147,166 -222,230 -177,151 -345,273 -553,400 -298,182 -582,279 -757,631 -32,64 -97,205 -88,290 26,-36 59,-128 132,-185z"/>
  <path class="fil3" d="M7478 3623c10,-54 16,-33 45,-71 11,-14 21,-42 34,-63 33,66 -11,107 -79,134zm33 -392l71 -6c44,101 -16,207 -97,267 -92,68 -234,62 -326,75l-7 57c-34,-60 -26,-118 13,-151 14,37 1,22 5,64 44,-7 86,-5 142,-14 314,-51 241,-285 240,-264l-42 -28zm-236 148c-25,-26 -79,-75 -24,-113 20,45 -9,28 28,75l82 -32c-18,34 -36,50 -86,69zm-532 -235c-17,1 -30,46 -34,45 -8,-102 -4,-85 16,-154 29,16 20,28 21,36 12,-45 17,-58 65,-94l40 31c53,32 111,29 174,199 -22,32 -33,71 -80,99 -49,29 -91,14 -154,34l-48 -196zm383 -347c-43,8 -68,-15 -120,-16 -47,-1 -106,14 -150,18 20,36 21,40 51,51 41,15 32,1 56,28 -49,5 -144,6 -187,14 -47,9 -94,84 -116,122 -34,61 -24,90 1,175 57,193 148,369 296,516 96,96 196,79 339,58 139,-20 241,-70 292,-181 44,-95 61,-214 43,-346 -56,-419 -198,-289 -279,-412 -44,-68 -54,-119 -108,-173 -25,19 -60,62 -75,84l15 56c14,-37 20,-54 49,-79 46,48 99,97 125,162 39,95 28,114 -51,171 42,33 276,110 122,239 -8,-40 40,-83 -6,-134 -87,-59 -111,-28 -193,-154 -89,-137 -79,-198 -116,-307l-120 -40c24,58 67,36 131,147z"/>
  <path class="fil0" d="M7880 2338c124,-23 310,-165 522,66 108,117 143,256 104,409 -25,97 -100,274 -172,338 -133,117 -402,8 -500,-62 -69,-49 -131,-107 -192,-177 -71,202 271,574 510,505 93,-27 171,-122 268,-140 151,-28 275,-27 382,-192 66,-102 115,-238 96,-365 -11,-77 -16,-83 -78,-95 -108,-20 -74,16 -145,2 5,-9 -5,-5 13,-20 21,-18 66,-20 97,-28 -54,-84 -99,-128 -169,-193 -285,-265 -710,-103 -734,-46z"/>
  <path class="fil0" d="M8656 2481c-15,63 -36,22 -50,6 23,-8 28,-11 50,-6z"/>
  <path class="fil0" d="M7918 3223c-75,28 -85,-33 -62,-62 40,-49 64,38 62,62z"/>
  <path class="fil0" d="M8586 2986c-52,44 -111,-52 -26,-72 29,29 34,26 26,72z"/>
  <path class="fil0" d="M8775 2996c6,22 14,-18 11,26 -39,4 -82,-32 -89,-66 -7,-34 48,-86 77,-7 19,52 -10,5 0,47z"/>
  <path class="fil0" d="M7927 3312c-8,-22 27,-66 55,-30 29,38 9,62 -27,79 -10,-15 -20,-28 -28,-49z"/>
  <path class="fil0" d="M8696 3136c-54,-2 -61,-33 -48,-89 53,4 97,39 48,89z"/>
  <path class="fil4" d="M7793 2587c-67,38 -197,85 -144,234 59,165 524,525 715,232 54,-82 200,-438 58,-546 -141,-108 -443,-25 -629,80zm-44 -20c156,-62 128,-57 310,-120 102,-35 227,-23 311,-12 -28,-42 -55,-65 -95,-89l-14 -8c-21,-12 -16,-11 -42,-18 -277,-82 -482,206 -470,247z"/>
  <path class="fil0" d="M8307 3895c-37,26 -4,38 -52,20 -124,-46 -168,-263 -229,-357l-93 -124 133 270c40,102 74,179 111,277 154,67 263,102 462,-4 360,-193 230,-438 287,-888 15,-121 100,-259 92,-341 -5,-49 -46,-61 -76,-77 0,81 18,109 -9,191 -73,221 -73,302 -113,535 -17,102 -65,265 -128,332 -85,91 -259,169 -384,166z"/>
  <path class="fil5" d="M8397 3624c-21,-51 9,-92 -1,-132 -76,-19 -350,44 -223,288 27,-40 38,-96 151,10 72,-37 81,-38 164,-54 5,-85 35,-147 111,-76l28 30c25,21 13,11 29,17 44,-43 123,-285 126,-342 -94,-73 -332,26 -386,258z"/>
  <path class="fil2" d="M7096 6626l-27 9 37 58c59,-107 48,-107 129,-206l20 -34c-77,-4 -141,55 -204,77 7,-104 254,-121 334,-164 24,-29 43,-92 29,-143 -156,142 52,111 -290,164 -71,11 -137,3 -199,-10 -199,-42 -252,-116 -307,-147 -18,-10 -7,-4 -25,-10 72,148 115,165 226,258 106,89 234,44 278,150z"/>
  <path class="fil0" d="M6173 7712c110,52 191,45 330,48 121,3 257,24 361,-49 -34,-22 29,-7 -86,-14 -226,-14 -359,-68 -481,-63 -47,2 -131,-51 -125,78zm274 -585c23,55 74,80 112,104 15,10 21,14 33,21 2,1 4,3 6,4 89,54 318,162 412,87 -18,-35 -188,-119 -289,-208 -94,-84 -220,-206 -275,-9zm560 384c38,-14 93,-29 14,-82 -75,-50 -182,13 -372,-99 -26,-15 -15,-14 -39,-24 -142,-59 -13,-31 -136,-37 -31,-1 -73,-11 -100,-18 -54,62 -60,128 14,168 98,54 283,100 394,103 70,2 148,18 225,-11zm-702 -37c-118,186 651,219 721,158 31,-27 -12,-56 -36,-65 -29,-10 -75,4 -112,4 -260,2 -366,-81 -473,-89l-101 -8z"/>
  <path class="fil6" d="M8184 2082c59,-15 138,-49 192,97 38,-35 59,-66 89,-113 -28,-98 -69,-154 -160,-195 -114,-51 -138,142 -121,211z"/>
  <path class="fil6" d="M6959 3260c-30,-32 -46,-25 -72,-75 -26,-51 -20,-77 9,-102 -29,-33 -31,-33 -73,-41 -54,44 -52,126 -36,198 13,59 15,60 66,60 45,0 76,-7 106,-40z"/>
  <path class="fil6" d="M7732 2230c68,-10 77,-26 139,53l64 -34c-41,-110 -107,-175 -194,-183 -27,51 -38,83 -9,164z"/>
  <path class="fil6" d="M8623 3740c-18,-57 -49,-84 -89,-65 -19,32 -9,57 -18,101 -86,-19 -112,21 -199,52 -53,-52 -62,-69 -105,-61 -52,191 334,48 410,-28z"/>
  <path class="fil7" d="M5753 5485c-17,6 -14,0 -8,18 17,24 55,40 108,95 310,316 174,246 275,379 3,-13 6,-6 4,-27 -1,-5 -3,-14 -5,-20 -4,-12 -15,-38 -20,-52 -12,-33 -20,-59 -37,-86 -63,-109 -211,-257 -317,-306z"/>
  <path class="fil7" d="M7850 1519c84,-47 144,-185 378,-276 -72,-24 -395,162 -378,276z"/>
  <path class="fil8" d="M5851 8693c39,-34 39,-64 104,-108 48,-32 101,-50 131,-97 -82,21 -245,101 -235,204z"/>
  <path class="fil9" d="M7226 2908c27,72 42,105 81,96 -91,-74 -40,-129 -17,-167 -16,-26 -19,-36 -48,-49 -23,28 -36,66 -16,119z"/>
  <path class="fil10" d="M6008 9847l43 -4c8,-27 18,-116 -40,-94l-20 8 17 90z"/>
  <path class="fil3" d="M6611 2962c24,-21 18,-12 33,-42 10,-20 15,-28 22,-50l-47 -5 -8 97z"/>
  <path class="fil11" d="M8656 2481c-22,-5 -27,-2 -50,6 15,16 35,57 50,-6z"/>
  <path class="fil12" d="M6438 5007c18,-33 13,-9 5,-54 -9,22 -8,-1 -9,30 0,12 2,14 4,25z"/>
  <path class="fil13" d="M5802 7937c2,-10 24,1 -10,-30 0,1 -34,2 10,30z"/>
  <path class="fil14" d="M11147 9786c26,-7 -30,-34 -20,-3 11,33 -3,9 20,3z"/>
  <path class="fil15" d="M12430 7953c-17,-45 -3,-15 -18,-20 -15,21 -21,-5 -11,19 17,3 16,-4 30,1z"/>
  <path class="fil16" d="M8743 2970c1,-3 2,-9 3,-7 1,2 11,-6 -14,-22 -3,13 -25,14 11,30z"/>
  <path class="fil17" d="M7193 1553c-18,20 -18,3 -19,41 38,-39 16,-10 19,-41z"/>
  <path class="fil18" d="M5549 3740c30,-17 22,2 9,-35 -3,6 -14,6 -9,35z"/>
  <polygon class="fil19" points="11003,5784 11020,5766 10993,5748 "/>
  <path class="fil20" d="M1558 10847c3,6 36,19 15,-5 -7,-7 -32,-26 -15,5z"/>
  <path class="fil16" d="M7880 3208c19,-12 21,12 13,-15 -8,-27 -1,-5 -16,-14l3 29z"/>
  <path class="fil21" d="M2547 11388c13,32 24,4 18,-4 0,0 -5,-2 -6,-2 -9,1 -22,-21 -11,5z"/>
  <path class="fil12" d="M12146 9741c-39,8 3,19 10,15 1,-1 7,-19 -10,-15z"/>
  <path class="fil22" d="M6477 7221c-31,-25 -1,-14 -33,-8 27,25 4,15 33,8z"/>
  <path class="fil15" d="M7551 2506l13 -8c15,-40 1,-12 -8,-17 -24,20 0,-7 -5,25z"/>
  <path class="fil12" d="M1370 10817c26,-21 15,-1 11,-35 -9,12 -16,16 -11,35z"/>
  <path class="fil23" d="M12312 8137c-9,-10 -43,-39 -23,2l23 -2z"/>
  <polygon class="fil20" points="7592,2911 7568,2920 7585,2940 "/>
  <path class="fil14" d="M5745 5502c-5,-17 -8,-11 8,-18 -19,-10 10,-20 -27,-2l19 20z"/>
  <path class="fil14" d="M10178 4161c18,-2 15,3 8,-14l-29 5 20 9z"/>
  <path class="fil24" d="M5555 10559c11,28 31,-19 9,-9 -21,9 -21,-23 -9,9z"/>
  <polygon class="fil13" points="9951,3795 9963,3779 9934,3772 "/>
  <path class="fil25" d="M8638 5028c8,24 26,-12 10,-10 -25,3 -16,-8 -10,10z"/>
  <path class="fil26" d="M7590 11422c9,35 25,-13 9,-7 -11,4 -14,-10 -9,7z"/>
  <path class="fil27" d="M4824 7428l25 -4c-12,-7 11,-46 -25,4z"/>
  <path class="fil26" d="M6399 9942c7,8 44,21 14,-3 -2,-2 -29,-14 -14,3z"/>
  <path class="fil26" d="M7154 1714l9 -6 7 -26c-31,29 -12,9 -16,32z"/>
  <path class="fil14" d="M4470 6169c4,-20 24,18 -3,-28l-13 17c17,-5 11,-8 17,12z"/>
  <path class="fil28" d="M2478 10947c-16,31 48,-11 4,-2 0,0 -3,1 -4,2z"/>
  <path class="fil29" d="M1126 10868c3,8 36,24 16,-5 -26,-36 20,-7 -6,-2 -10,2 -16,-9 -10,7z"/>
  <path class="fil30" d="M6517 4554l-30 -21c27,50 -4,9 30,21z"/>
  <path class="fil31" d="M11608 6988c5,13 2,4 11,-1 24,-12 9,45 3,-5 -4,-37 -17,-2 -14,6z"/>
  <path class="fil21" d="M7840 9996c-21,-23 7,-13 -33,-18l33 18z"/>
  <path class="fil13" d="M8290 9583c-1,3 1,24 7,7 5,-16 1,-23 -7,-7z"/>
  <path class="fil19" d="M8546 2964c3,10 26,16 13,-7 -23,-40 21,-12 -5,-1 -13,5 -13,-9 -8,8z"/>
  <path class="fil32" d="M10026 5586c-9,20 27,-13 5,-4 -1,0 -5,2 -5,4z"/>
  <path class="fil33" d="M9521 12627c-25,-133 208,-264 277,-313 122,-87 314,-267 376,-20 -12,94 -247,146 -331,173 -51,17 -123,45 -170,79 -49,36 -84,82 -152,81zm-1948 -10590c-2,-91 25,-212 114,-279 -12,-21 -11,-19 -20,-32l-28 -31c-110,44 -131,298 -66,342zm495 -497c39,16 -4,12 43,2l-25 32c18,7 16,7 27,6 -36,16 -30,1 -48,35 58,-11 141,-15 196,-2 115,26 114,74 163,87 28,-106 -251,-235 -373,-191l16 31zm479 1425c-5,-17 -5,-3 8,-8 25,-10 -18,-39 5,1 13,23 -10,17 -13,7zm40 22c8,-47 3,-44 -26,-72 -85,20 -26,117 26,72zm160 -23c-1,-2 -2,5 -3,7 -37,-16 -14,-16 -11,-30 25,16 15,24 14,22zm40 60c3,-44 -6,-4 -11,-26 -11,-42 19,5 0,-47 -29,-79 -84,-27 -77,7 7,34 49,70 89,66zm-90 114c48,-50 5,-84 -48,-89 -12,56 -6,87 48,89zm-770 175c8,21 18,34 28,49 36,-17 56,-41 27,-79 -28,-36 -63,8 -55,30zm-34 -119c8,27 6,3 -13,15l-3 -29c15,8 8,-13 16,14zm26 30c2,-24 -22,-112 -62,-62 -23,29 -13,90 62,62zm-441 400c68,-27 112,-68 79,-134 -13,21 -23,49 -34,63 -30,38 -35,17 -45,71zm33 -392l42 28c1,-21 74,212 -240,264 -55,9 -98,7 -142,14 -4,-42 8,-27 -5,-64 -40,34 -47,92 -13,151l7 -57c92,-12 233,-7 326,-75 81,-59 141,-166 97,-267l-71 6zm-236 148c50,-20 68,-35 86,-69l-82 32c-37,-48 -8,-31 -28,-75 -55,37 -1,87 24,113zm-315 -119c-30,34 -61,40 -106,40 -51,0 -53,-1 -66,-60 -16,-73 -18,-155 36,-198 43,8 44,8 73,41 -29,26 -35,52 -9,102 26,50 42,44 72,75zm-250 -72l32 -36 -3 42 53 146c64,-20 106,-5 154,-34 47,-28 58,-67 80,-99 -63,-170 -121,-167 -174,-199l-40 -31c-48,36 -53,49 -65,94 -2,-9 7,-20 -21,-36 -20,69 -24,52 -16,154zm-208 2699l-25 47 0 0c-6,-35 -7,-69 -24,-122 -32,40 -2,144 9,190 69,306 251,401 333,500 -182,0 -205,-27 -431,88l-160 -159c-59,-75 -113,-68 -73,-189 20,-61 32,-58 87,-104 155,-129 110,-480 333,-369 -4,39 -34,89 -48,116l0 0zm-5 115l51 -117c6,-12 13,-24 20,-35 109,-161 233,-544 274,-733l100 -693c6,-79 -14,-34 10,-98 29,-77 -54,-129 -2,-170 0,0 23,-13 25,-14 17,-9 24,-12 42,-20 36,-15 66,-24 103,-42l-58 -79c111,-31 145,8 226,2 -24,-58 -92,-119 -127,-159 131,-72 128,24 131,34 16,60 54,148 81,200 -51,16 -165,10 -221,33 -43,18 -37,32 -41,44 71,-6 124,-22 203,-23 174,-1 352,49 510,111l165 66c121,46 389,203 481,160 -31,-44 -17,-7 -39,-35 24,-51 137,-137 180,-173 146,-120 446,-368 476,-532 -23,22 -29,35 -53,57 -13,-70 28,-110 28,-168 0,-61 -29,-134 -55,-194 34,-10 54,-10 80,5 13,7 43,32 56,45 45,48 55,91 97,139 28,-40 -4,-38 64,-79l45 26c-3,205 -110,240 -159,278 -65,51 -37,87 -67,148 -38,77 -29,65 -10,164 -26,21 -125,144 -151,178 -37,50 -99,121 -146,171 -423,451 -230,332 -793,237 -35,-6 -424,-60 -460,-56 32,32 109,41 155,53 172,44 180,-41 166,214 -6,97 -21,260 -44,354l-50 155c-76,221 -93,262 -216,453l-189 279c-19,22 -102,121 -121,132 -82,45 -282,20 -364,-3 -72,-20 -231,-94 -291,-161 -63,-69 -95,-117 -112,-154zm3102 6398c6,-11 15,-37 25,-49 34,-44 214,-169 266,-201 3,-2 13,-8 16,-10 42,-26 32,-28 75,-27 -2,38 22,8 -24,42 -19,14 -39,26 -54,35l-305 209zm91 -161c1,-3 2,-9 4,-8l12 -21c11,-16 11,-14 29,-30 36,-31 169,-136 208,-130 -27,41 -202,153 -252,188zm97 -145c31,-35 100,-107 149,-99 -20,36 -99,81 -149,99zm-9116 1830c-36,-141 460,-317 694,-148 -3,38 -4,32 -27,62 -51,65 -156,122 -194,119 0,0 -156,-38 -167,-56 -10,-17 -243,6 -306,22zm727 -193c-48,4 -107,-31 -153,-41 -68,-15 -78,-9 -121,-14 -3,0 -6,-1 -9,-1 -2,0 -7,-2 -9,-2 -2,0 -6,0 -9,-3 -3,-3 -6,-2 -9,-4 92,-23 257,-37 322,11l-13 54zm-545 -25c115,-170 562,-231 644,-115 -46,97 -87,5 -301,23 -220,19 -245,66 -342,91zm476 -211c35,-3 24,-6 64,15 -13,0 -28,3 -41,0 -52,-12 16,18 -22,-15zm0 0c-32,14 -114,4 -172,17 -68,15 -126,33 -162,26 90,-42 204,-73 310,-52 43,8 13,3 24,10zm-889 229c-2,-104 212,-235 438,-200 36,6 44,4 67,23 -79,129 -97,75 -228,88 -177,19 -179,60 -278,88zm-63 -70c-54,-122 200,-237 316,-279 370,-136 304,92 260,136 -50,-3 -22,-3 -69,-18 -16,-5 -43,-10 -62,-12 -103,-11 -205,34 -289,82 -75,43 -86,95 -155,90zm14 -154c11,-81 74,-158 150,-213 51,-36 240,-196 309,-135 84,146 -65,145 -173,182 -130,45 -188,102 -287,166zm219 -315l-21 15 11 -30c58,-49 100,-109 198,-123 -17,27 -2,18 -11,53 -77,28 -104,48 -177,84zm3840 662c-11,21 -6,17 -28,36 -61,-27 -167,-33 -233,-42 -67,-10 -187,-27 -246,-23 -128,9 -280,15 -406,60l-39 15c-2,1 -5,3 -7,4 -21,12 -45,29 -58,42 39,24 255,-48 319,-56 80,-10 189,-14 270,4 19,4 10,3 24,9 -147,104 -612,475 -692,637 -53,107 -51,230 -106,334 -15,28 -85,121 -107,145 -64,33 -340,-19 -430,-41 -27,-7 -44,-16 -67,-21 -56,-13 -103,-40 -158,-62l-161 -76c-94,-47 -160,-79 -243,-137l-170 -112c-141,-89 -271,-189 -399,-297l-216 -196c-41,-38 -91,-64 -113,-90 92,-36 128,-53 188,-116 43,-45 18,-31 39,-84 20,-52 39,-23 27,-99 77,-44 127,-115 33,-154 103,-50 315,16 421,41 28,7 51,14 83,24 55,18 99,41 150,64 59,181 42,448 181,551 3,-15 22,18 -26,-72 -13,-24 -28,-58 -38,-82 -20,-47 -36,-118 -37,-165 50,102 128,305 205,347 1,-16 -120,-250 -144,-305 -80,-188 -152,-428 -166,-640 -4,-56 -12,-111 -13,-159 -1,-51 11,-32 5,-60 -34,-152 13,-353 42,-504 18,-92 57,-177 80,-261 15,-55 24,-74 46,-132 42,-108 44,-142 125,-241 -122,-38 -214,79 -296,140 13,-102 135,-208 218,-267 4,-3 21,-13 22,-14l27 -27 -59 -10c-67,-2 -128,17 -193,29 55,-90 266,-151 378,-169 -59,-67 -141,-55 -214,-82 126,-54 251,-31 338,7 9,-28 6,12 2,-22 -6,-40 -8,3 -5,-15 197,-120 710,-229 909,-252 508,-59 994,-49 1484,64l454 102c84,21 306,84 381,68 -29,-17 -266,-87 -308,-97 -35,-9 -69,-9 -97,-42 26,-11 69,-22 79,-26 414,-177 808,-471 1154,-743 177,-139 330,-287 482,-450 112,-120 202,-243 312,-368l44 -64c19,-28 27,-38 46,-64 62,-82 124,-164 173,-252l69 -138c22,-50 44,-80 74,-136 50,-94 87,-184 132,-280 28,-61 70,-145 92,-213 38,-118 84,-240 116,-363 53,-208 78,-419 100,-634 10,-100 1,-235 15,-330 18,19 38,40 60,59 120,104 245,204 382,279 30,16 48,32 72,47l685 379c41,25 85,60 129,89 92,60 171,144 244,227 82,93 49,237 49,354 0,126 7,237 27,362 21,130 49,243 82,375 48,192 131,405 221,586 112,223 91,107 -27,479 -70,220 -98,324 -205,543 -111,227 -931,1031 -1178,1236 -86,71 -179,146 -273,224 -101,83 -465,348 -574,408 -116,64 -218,126 -341,193 -31,17 -63,29 -92,44l-169 91c-34,17 -71,26 -105,45 -451,247 -1331,531 -1860,579 -46,4 -44,7 -87,4 -57,-4 -179,23 -242,25 -114,5 -232,-4 -346,-5l-247 -17c-59,-5 -58,16 -73,-44zm1540 -4090l20 -8c58,-21 48,67 40,94l-43 4 -17 -90zm-3894 2184l-17 30c-15,36 -27,47 -37,92 -11,51 -14,53 5,114 44,-40 58,-70 109,-113 42,-35 87,-65 138,-88 -50,104 -54,85 -112,227 -9,23 -8,14 -17,43 -11,33 -21,59 -31,96l-75 298c-12,56 2,48 -26,71 16,49 8,71 4,114 -22,194 8,583 69,747 -60,17 -88,-11 -132,-30 -82,-34 -178,-44 -259,-65 -71,-18 -31,-9 -130,-13 -56,-2 -94,11 -149,10 -51,-1 -72,-19 -124,-25 -171,-20 -158,-1 -295,33 -3,-190 -38,-129 -130,-197 47,-76 32,-139 -55,-179 6,-42 8,-58 52,-87 28,-18 71,-32 100,-39 230,-56 486,0 667,-66 35,83 28,238 109,291 2,-22 -41,-159 -54,-261 -49,-394 83,-619 79,-675 -50,47 -101,121 -99,190 -32,-22 -30,-45 -39,-103 -5,-36 -2,-55 0,-92 5,-90 20,-88 51,-159l-18 4c-74,57 -106,150 -132,185 -9,-85 56,-226 88,-290 175,-353 460,-449 757,-631 208,-127 376,-248 553,-400 75,-64 156,-157 222,-230 35,-39 68,-79 98,-117 29,-37 51,-87 87,-120l5 179c5,177 28,350 30,516 -57,27 -235,55 -307,74 -106,29 -223,67 -332,108 -170,63 -140,79 -312,74 -48,-1 -99,2 -151,24 -62,27 -76,52 -116,81 24,13 4,10 36,12 63,4 140,-19 193,27 -72,24 -275,75 -332,169l-15 25c-1,2 -11,14 -14,20 -14,24 -10,18 -15,44 90,-28 152,-75 240,-79 -68,63 -102,84 -165,161zm4683 -4243c115,7 52,-8 86,14 -104,73 -240,52 -361,49 -140,-3 -220,3 -330,-48 -6,-128 78,-76 125,-78 122,-5 255,49 481,63zm100 -126c37,0 83,-14 112,-4 23,8 67,37 36,65 -70,61 -839,28 -721,-158l101 8c107,8 212,91 473,89zm-505 -321c26,8 68,17 100,18 124,6 -5,-22 136,37 25,10 14,9 39,24 190,112 297,49 372,99 79,52 25,67 -14,82 -78,29 -155,13 -225,11 -111,-3 -296,-49 -394,-103 -74,-41 -68,-107 -14,-168zm103 -30c-29,7 -6,17 -33,-8 32,-6 2,-17 33,8zm-30 -94c55,-197 181,-75 275,8 100,89 270,173 289,208 -95,75 -323,-33 -412,-87 -2,-1 -5,-3 -6,-4 -12,-7 -17,-12 -33,-21 -38,-24 -89,-50 -112,-104zm413 59c-59,-45 -156,-106 -179,-169 -41,-111 -77,-119 -153,-201 -44,-48 -97,-131 -139,-183 89,-44 108,-63 218,-83 92,-16 264,-18 343,31 12,8 31,15 40,24 26,25 89,153 103,183 261,530 405,485 508,761 108,291 -681,680 -881,817 -56,38 -303,222 -357,208 -12,46 13,23 -44,59 -68,44 -144,96 -186,161 -50,76 -78,186 -87,283 -36,358 6,361 2,644 -47,2 -96,-10 -65,133 30,13 31,3 69,21 -9,14 7,6 -24,28 -58,40 -123,-23 -140,-62 -33,-73 -5,-130 -13,-199 -39,32 -4,78 -72,138 -51,-61 -4,-38 10,-105 8,-35 8,-77 10,-111 -27,14 -29,16 -37,91 -3,28 0,47 -31,63 -39,20 -63,-15 -38,-53 2,-3 54,-27 36,-149 -52,49 -12,174 -79,119 -33,-27 12,-50 26,-88 7,-18 11,-34 11,-55 -1,-86 -13,-37 -27,-46 0,42 2,115 -48,136 -19,8 -54,-24 -45,-67 10,-48 29,36 30,-8 0,-3 6,1 9,0 7,-52 -10,-60 -11,-125 -1,-103 50,-260 75,-364 35,-142 7,-140 12,-258 12,-282 247,-193 475,-351 -11,-25 -17,1 -29,-15 -3,-4 -7,-1 -11,-2 47,-42 103,-92 146,-147 86,-110 315,-397 402,-429 49,-18 111,-21 142,-32 42,-14 70,-82 81,-88 112,-15 119,10 170,-89l-44 -62c24,-17 52,-37 67,-54 -24,-93 -29,-53 -81,-105 93,-74 -43,-107 -165,-200zm375 -699c-81,99 -70,99 -129,206l-37 -58 27 -9c-45,-106 -172,-60 -278,-150 -111,-93 -154,-110 -226,-258 18,6 7,0 25,10 55,31 108,106 307,147 62,13 129,21 199,10 342,-53 134,-22 290,-164 14,52 -5,115 -29,143 -81,43 -327,60 -334,164 64,-22 127,-81 204,-77l-20 34zm-94 288c-6,-15 7,-46 13,-62l36 -85c36,-55 69,-118 123,-164 30,-26 89,-60 107,-79 63,-65 30,-183 52,-239 1,-3 190,-276 230,-354 75,-146 61,-107 117,-261 15,-41 32,-72 45,-115 28,-96 50,-295 73,-349 109,242 152,469 185,731 15,118 18,239 12,353 -2,41 2,69 0,109 -7,138 -65,251 -61,430 3,179 55,317 156,478 69,111 50,106 50,229 0,220 -29,438 -76,645l-50 207c-29,140 -97,263 -131,399 -30,119 -114,262 -167,374l-94 186c-19,32 -33,59 -56,93 -22,34 -23,46 -45,89 -36,69 -127,201 -181,266l-128 171c-62,84 -138,169 -206,246 -46,51 -97,103 -149,153 -114,109 -208,212 -331,307 -332,258 -867,643 -1247,785 -58,22 -59,18 -117,4 -41,-10 -74,-21 -113,-30l-231 -53c-151,-34 -312,-59 -476,-72 -268,-21 -802,-33 -1037,37 -35,-73 -29,-490 -31,-596 -5,-365 77,-958 266,-1280 53,-90 94,-198 141,-292 38,-76 86,-167 133,-236 16,-24 19,-40 34,-62l108 -162c106,-149 212,-283 355,-424 179,-177 255,-230 511,-352 93,-44 250,-101 343,-137 111,-43 191,-111 285,-143l349 180c345,169 131,65 390,93 92,10 190,9 274,11 -11,24 -34,41 -54,59 -136,122 -173,205 -253,292 -35,38 -19,19 -48,63 -68,102 -183,209 -315,253 -144,48 -214,54 -260,188 -46,136 10,229 -14,325 -27,104 -55,187 -68,291 -4,34 -8,49 -7,82 1,25 9,56 7,80 -4,47 -58,76 -18,145 71,121 169,184 210,246 82,-1 50,8 102,74 63,79 225,115 210,-157 -11,-188 -16,-366 -8,-547 3,-71 19,-197 38,-256 21,-67 43,-109 86,-165 76,-100 1001,-632 1252,-845 37,-32 104,-82 123,-121 1,-2 2,-5 3,-7 15,-30 24,-31 37,-52 44,-71 30,-191 -2,-269 -38,-93 -98,-165 -161,-235 -106,-118 -264,-326 -319,-473zm2140 -2544c0,-66 28,-100 102,-128 2,24 8,9 -15,38 -10,13 -15,16 -27,31 -23,29 -22,30 -61,59zm3130 3702c15,5 2,-25 18,20 61,154 82,170 97,346 -29,-59 -30,-90 -71,-145 -26,-34 -4,0 -28,-31 -40,-50 -31,-154 -108,-150 27,93 99,252 49,385 -28,-104 1,-104 -57,-221l-23 2c40,98 40,333 10,435 -29,96 -26,89 -66,109 -20,-106 -23,-181 -65,-293 -39,17 -19,30 -9,87l31 285c5,61 10,128 7,190l-11 173c-3,66 -17,112 -31,173 -7,30 -12,48 -22,84 -35,135 -58,273 -110,400l-86 419 -36 443c2,81 21,508 82,561 20,-59 -16,-111 -2,-177 39,55 40,99 41,154 2,154 -88,229 -189,322 -92,85 -375,258 -496,316 -93,45 -187,98 -284,143 -232,106 -455,148 -568,196 -100,43 -180,105 -274,154 -19,-179 -74,-150 -159,-194l111 -36 -14 -21c-73,17 -68,15 -139,43 -21,-25 3,-11 -32,-24 2,-72 14,-43 -16,-123 48,-36 80,-94 125,-141 140,-149 240,-250 398,-387 143,-124 349,-248 528,-324 78,-33 151,-49 218,-74 -74,-55 -432,147 -525,178 157,-115 439,-215 462,-239 -63,-16 -358,120 -401,159 -29,-130 41,-104 -99,-438 -24,-57 -72,-140 -106,-208 -191,-380 -362,-701 -475,-1139 -39,-152 -72,-305 -87,-463 -30,-311 3,-334 0,-537 -1,-86 49,-303 79,-389 11,-32 16,-59 26,-90 16,-51 59,-124 59,-179 -42,44 -61,107 -87,166l-42 66c-4,9 3,11 1,34 -6,48 -27,88 -38,135 -14,63 -40,246 -52,274 -18,-11 -118,-123 -143,-150 -91,-94 -201,-168 -315,-240 -141,-90 -284,-144 -423,-247l-329 -190 -76 -56c-237,-178 -458,-341 -519,-664 -60,-318 87,-568 77,-803 -13,16 -38,105 -42,120 -11,-37 -11,-430 -67,-657 -52,-212 -201,-481 -185,-703 414,41 497,197 711,-15l258 -273c86,-95 148,-192 226,-285 59,32 79,-5 137,-40 -19,34 -24,54 -7,106 67,8 96,-36 134,-85 121,-158 198,-124 320,-376 30,0 103,7 143,12 -39,38 -98,37 -152,45 39,56 201,71 303,121 17,8 76,43 93,61 -45,-9 -105,-43 -162,-29 35,40 64,30 113,79 104,104 200,218 288,338 225,309 496,798 586,1190 36,156 67,316 68,480 0,53 5,93 -3,139 -115,-60 -368,-467 -459,-614 -204,-330 -657,-764 -1063,-869 -60,-16 -102,-36 -165,-48 -141,-28 -412,-73 -541,16 26,18 -1,15 43,15 95,-1 131,-21 250,-9 288,30 486,106 739,241 47,25 70,42 114,68 113,70 209,176 302,268 78,77 313,355 348,451 -27,-38 -76,-94 -115,-112 14,76 117,181 171,245 12,14 22,21 29,39 12,31 -9,1 2,17 106,97 196,237 282,316l169 170c159,162 314,263 468,426 265,282 359,450 670,709 48,40 216,149 244,196 -33,-5 -109,-52 -145,-77 -42,-28 -83,-82 -129,-92 -6,40 160,230 220,336zm-4094 -4104c88,-31 113,-72 199,-52 8,-44 -2,-69 18,-101 40,-18 71,9 89,65 -76,76 -463,219 -410,28 43,-8 52,8 105,61zm-3847 2340c-6,-19 0,-17 -17,-12l-34 32c-5,-34 -1,-95 5,-130 7,-50 31,-67 34,-114 -52,36 -82,98 -126,141 1,-29 1,-22 11,-47 60,-152 144,-198 145,-247 -50,-17 -115,1 -167,-15 61,-20 128,-22 197,-57 120,-61 361,-315 781,-509 129,-60 260,-102 392,-160 490,-212 665,-207 999,-546 66,-67 168,-215 199,-244 23,77 -13,308 -22,393 -5,52 -22,146 -34,188 -17,57 -23,124 -33,189 -21,137 -55,241 -91,366 -7,23 -3,25 -10,46 -7,19 -11,20 -20,41 -14,31 -19,57 -32,87 -15,34 -24,52 -37,85 -9,22 -22,57 -33,76 -51,-10 -153,-117 -252,99 -44,96 -79,229 -167,268 -25,-48 -38,-98 -60,-139 -53,-100 -167,-230 -242,-293 -2,-2 -4,-3 -7,-5 -61,-44 -319,-215 -375,-206 40,103 452,161 656,670 -50,93 -53,82 -56,201 -26,-12 -30,-15 -56,-32 -44,-29 -195,-111 -247,-128 -34,-11 -158,-83 -184,-62 6,31 30,24 61,35 25,8 47,21 71,32 167,77 268,155 414,264 180,134 299,346 415,470 20,21 35,29 55,57 -75,22 -130,29 -168,91 -52,86 -20,118 -13,149l-118 -45c-47,-27 -60,-55 -111,-57 39,54 102,100 147,126 -39,91 -65,82 -5,206 -140,-8 -184,-120 -224,-144 19,98 92,144 154,168 4,71 -23,79 37,141 -95,10 -139,-106 -172,-140 -14,64 28,85 61,141 -57,37 -61,75 -32,154 -24,-9 -28,-1 -53,-14l-102 -76c-70,-39 -14,28 -30,-4 -49,-7 -109,-44 -154,-74 -114,-77 -273,-117 -426,-295 -126,-146 -348,-650 -385,-686 12,72 59,192 94,264l127 269 -38 -19c-134,-90 -338,-229 -444,-329 -85,-79 -142,-159 -198,-274 -97,-202 -64,-233 -79,-348zm4930 -2455l-49 34c15,-34 20,-39 25,-87 9,-74 -9,-34 34,-83 -56,-108 -168,-92 -210,-204 -16,-43 -15,-52 2,-80 41,-1 74,42 115,60 46,20 79,37 137,24 2,-3 4,-6 5,-8l42 -68c19,-26 31,-44 56,-67 170,443 278,356 -13,749 -75,101 -146,77 -252,116l-145 72c8,-54 13,-60 71,-88 134,-64 295,-92 327,-209 -62,43 -109,89 -189,117 -89,32 -145,45 -217,98 -46,-86 71,-123 150,-152 161,-60 163,-57 235,-203 -33,16 -28,32 -63,67 -27,27 -42,37 -79,58 -34,20 -68,31 -106,45 -126,46 -84,21 -103,15 35,-65 53,-69 125,-107 20,-10 49,-28 70,-45 42,-34 34,-40 30,-54zm-2075 96c198,-78 66,15 269,-132 37,99 44,107 102,176 -69,51 -134,181 -190,242 -87,-7 -86,-12 -127,-107 -20,-48 -42,-109 -55,-178zm1071 -186c54,-232 291,-331 386,-258 -3,57 -82,299 -126,342 -16,-6 -4,4 -29,-17l-28 -30c-76,-71 -106,-9 -111,76 -83,15 -92,17 -164,54 -113,-106 -124,-50 -151,-10 -127,-244 146,-308 223,-288 9,41 -21,81 1,132zm-90 271c125,3 300,-75 384,-166 63,-67 111,-230 128,-332 40,-233 39,-314 113,-535 27,-82 9,-109 9,-191 30,16 71,28 76,77 8,81 -76,220 -92,341 -57,450 73,695 -287,888 -199,106 -308,71 -462,4 -37,-98 -71,-176 -111,-277l-133 -270 93 124c60,94 105,311 229,357 48,18 15,6 52,-20zm-514 -1308c186,-105 488,-188 629,-80 141,109 -5,464 -58,546 -191,293 -656,-67 -715,-232 -53,-149 77,-196 144,-234zm-567 321c-20,-53 -7,-91 16,-119 29,13 32,23 48,49 -24,38 -75,93 17,167 -38,9 -54,-24 -81,-96zm523 -342c-11,-41 193,-329 470,-247 26,8 21,7 42,18l14 8c41,24 68,47 95,89 -84,-11 -209,-23 -311,12 -182,63 -154,58 -310,120zm-1130 299l47 5c-8,21 -12,30 -22,50 -16,30 -10,21 -33,42l8 -97zm1782 -462c-211,-230 -398,-89 -522,-66 24,-57 450,-219 734,46 71,66 116,109 169,193 -31,8 -75,11 -97,28 -18,15 -8,11 -13,20 72,14 38,-22 145,-2 62,12 67,18 78,95 19,126 -29,262 -96,365 -107,165 -231,164 -382,192 -97,18 -175,113 -268,140 -239,69 -581,-302 -510,-505 61,70 123,128 192,177 98,70 366,179 500,62 73,-64 147,-241 172,-338 39,-154 4,-292 -104,-409zm-1276 393c-64,-111 -107,-89 -131,-147l120 40c38,109 27,170 116,307 82,126 105,95 193,154 46,51 -2,94 6,134 154,-129 -81,-206 -122,-239 79,-57 90,-76 51,-171 -26,-65 -79,-114 -125,-162 -29,25 -35,41 -49,79l-15 -56c15,-22 50,-65 75,-84 54,54 64,106 108,173 81,124 222,-6 279,412 18,132 0,251 -43,346 -51,111 -153,160 -292,181 -142,21 -242,38 -339,-58 -148,-147 -239,-323 -296,-516 -25,-85 -35,-114 -1,-175 21,-38 68,-113 116,-122 43,-8 138,-9 187,-14 -24,-28 -15,-13 -56,-28 -30,-11 -31,-15 -51,-51 44,-3 103,-19 150,-18 52,1 77,24 120,16zm1058 -714c-17,-69 8,-262 121,-211 91,41 131,97 160,195 -30,47 -51,79 -89,113 -54,-146 -133,-112 -192,-97zm-451 148c-30,-80 -19,-113 9,-164 87,7 153,73 194,183l-64 34c-62,-79 -71,-63 -139,-53zm-316 111c-64,-173 -111,-92 -133,-214 -13,-74 -5,-176 27,-218 12,67 9,118 33,191 24,-44 5,-33 27,-78 124,81 256,323 172,426 -102,125 -86,190 -134,220 -44,-14 -86,-59 -115,-111 12,-51 42,-108 43,-156 -102,-72 -224,-70 -274,-104 32,-5 48,1 76,9l135 38c66,25 32,30 144,-4zm-223 -787c-3,31 19,3 -19,41 1,-39 2,-22 19,-41zm1220 2837c-2,4 1,11 -17,29 -21,22 -9,10 -18,3 -34,1 -19,3 -54,-13l-444 -199c-108,-54 -198,-69 -308,-102 13,-54 102,-175 167,-219 61,79 341,215 413,222 32,54 38,87 71,106 -28,-170 -119,-167 -160,-183 -121,-48 -224,-105 -314,-204 -231,-251 -27,-241 -81,-630 36,29 77,96 120,134 56,49 77,55 117,136 58,118 139,242 177,368 22,72 23,131 77,172 147,112 336,116 510,14 107,-63 210,-169 241,-256 15,-41 19,-35 25,-81 12,-86 21,-474 33,-614 6,-79 87,-169 76,-321 60,20 30,44 95,77 -38,-113 -136,-180 -235,-224 -22,-9 -36,-10 -59,-21 -25,-12 -16,-16 -33,-38 -16,-20 -23,-27 -37,-48 -55,-76 -117,-136 -179,-185 -23,-19 -31,-20 -53,-32 -24,-13 -28,-19 -54,-31 -53,-25 -65,-9 -110,-43 86,-56 128,-109 256,-121 -18,-22 16,-12 -30,-14 -27,-1 -87,15 -117,24 30,-39 41,-38 92,-63 15,-7 33,-16 53,-25 9,-4 22,-8 29,-13 21,-13 9,-6 18,-19 -75,-2 -110,42 -179,62 -49,-93 -54,-158 -135,-207 -40,-24 -135,-64 -200,-43 -13,91 18,52 10,96 -4,24 -24,51 -29,89 -9,65 10,149 47,211l-222 42c-61,-153 -210,-272 -298,-223 -4,73 9,18 21,68 21,86 -106,96 99,295 -9,20 -22,44 -35,67 -13,24 -26,33 -42,58l-66 131c-92,154 -41,133 -59,286l-8 29 -17 -20c-26,-22 -74,-57 -86,-84 -32,-69 -10,-176 17,-238 10,-23 36,-62 53,-92 5,-32 -19,-5 5,-25 9,5 23,-23 8,17l18 15c40,-68 21,-213 -14,-305 -107,-287 -230,-139 -165,-325 43,-121 193,-252 289,-335 47,-41 106,-63 129,-85 14,-13 8,-8 16,-20l7 -18c-120,45 -227,127 -309,204 -129,121 -140,203 -177,248 2,-49 4,-86 14,-135 7,-35 29,-101 21,-127 -64,78 -66,174 -81,202 -82,156 -31,69 -75,199 -141,-324 95,-565 104,-588 -69,24 -104,93 -149,125 -1,-47 111,-188 169,-224 70,-44 171,-80 256,-94 113,-19 62,-14 72,-27 -134,-14 -310,66 -426,116 166,-125 224,-152 442,-200 -59,-39 -214,-24 -303,-8 49,-58 296,-126 377,-139 219,-35 293,-19 490,45 72,23 57,13 147,48 48,19 243,119 288,113 -99,-182 -176,-206 -270,-295 107,3 233,54 311,117 89,71 153,194 241,268 19,-58 -13,-121 12,-185 70,52 42,273 43,282 6,102 38,-53 218,-120 -5,103 -99,142 -107,203 82,-28 140,-51 189,8l-135 136c-16,17 -32,25 -37,30 -18,21 -86,185 -90,211 45,-30 60,-91 121,-167 116,-144 374,-395 527,-155 48,76 78,152 97,246 26,131 -2,335 -55,416 -34,51 -73,115 -148,143 -7,0 -306,-143 -327,-215 9,-172 111,-332 343,-364 -77,-44 -173,34 -242,68 3,-17 50,-104 65,-130 32,-55 67,-73 92,-113 -71,-1 -175,170 -200,217 -95,180 -56,186 -88,271 -63,-35 -87,-172 -140,-171 40,57 72,150 114,218 134,215 355,159 463,386 -38,-27 -105,-76 -146,-81 48,81 83,97 94,226 1,7 1,28 1,34 -3,54 1,8 -8,35 -26,-51 -58,-115 -118,-118 36,67 85,128 97,224 8,60 11,144 -15,199 -11,-52 -19,-109 -38,-164l-56 -114c-27,-33 -5,-9 -29,-19 50,200 145,333 19,518 -33,49 -39,92 -108,122 -26,-15 -169,-97 -194,-90 -116,72 -4,198 66,252l-29 26c-37,-57 -76,-117 -123,-143 -41,-22 -130,-32 -148,29 3,57 57,84 56,170 -1,56 -22,99 -27,216 -2,42 -1,26 -28,64 -112,162 -418,347 -552,519zm-1259 -2677c4,-23 -16,-4 16,-32l-7 26c-23,149 54,300 74,447 -45,-2 -63,-15 -105,-23 -103,-19 -212,-16 -315,-33 -15,-3 -16,-4 -25,-7 60,-54 131,-84 216,-119l-40 -4c-11,1 -31,4 -44,6 -201,25 -385,145 -558,242 -91,51 -198,83 -296,119 -41,15 -49,20 -84,35 -12,6 -49,10 -75,20 -49,18 -75,60 -125,84 13,-103 115,-173 142,-262 -61,28 -108,77 -152,118 -55,51 -47,77 -79,130 -48,-54 -59,-193 -43,-262 8,-36 20,-38 20,-76 -102,109 -70,241 -43,408 -8,-5 -13,-6 -25,-19 -3,-3 -9,-11 -11,-14 -6,-8 -19,-29 -23,-36 -14,-24 -28,-56 -42,-71 -20,72 48,163 71,234 -33,34 -47,55 -68,88 -54,89 -72,213 -62,322 28,-17 30,-100 65,-142 8,34 2,115 2,161 1,166 38,371 99,529 121,312 111,173 192,285 14,20 43,140 58,182 24,64 59,121 87,173l228 10c82,0 177,106 238,158 22,18 43,30 65,34 145,-166 166,-130 359,-235 0,24 7,10 -14,41 -6,8 -14,19 -24,32 -51,71 -96,127 -157,191 -88,92 -141,162 -280,230 -118,58 -252,126 -380,178 -391,160 -828,302 -1162,542 -100,72 -181,160 -276,230 -202,150 -261,74 -369,103 26,47 54,53 97,65 25,7 32,12 59,18l55 15c-94,124 -164,237 -130,431 40,-39 39,-101 82,-149 8,49 -3,73 4,121 6,49 20,88 40,134l26 -124c27,275 99,418 297,612 51,50 107,86 164,126 121,87 212,161 338,227 50,26 117,151 229,223 15,10 21,12 39,28 16,14 20,25 24,39l-312 141c-31,0 -21,-6 -39,7 -46,32 -44,7 -103,38 -20,11 -20,14 -51,26 -352,136 -610,352 -845,643l-168 228c-11,18 -9,21 -22,42l-87 147c-8,14 -9,10 -15,19l-67 122c-43,86 -106,230 -142,291l-66 140c-1,2 -2,5 -2,7 -1,2 -1,5 -2,7l-66 148c-64,145 -88,297 -128,451 -36,138 -9,382 -74,484 -68,107 -154,204 -241,297 -31,33 -92,70 -116,109 -9,15 -15,24 -28,38 -52,56 -92,86 -152,135 -377,312 -814,443 -1127,818 -135,162 -219,437 -145,643 21,-40 15,-55 26,-94 11,-38 14,-53 31,-84 16,52 9,84 34,147 57,143 20,275 31,420 -147,39 -294,24 -441,29 -119,4 -234,20 -336,77 -58,32 -49,17 -103,29 -136,30 -166,116 -245,202 -25,27 -37,50 -59,75 -40,44 -93,106 -114,160 -16,42 -1,62 -10,97l-33 84c29,56 37,53 86,64l20 61c92,7 222,-108 387,-74 -30,108 -212,134 -164,272 181,-5 372,-35 547,82 64,43 225,208 306,277l275 216 162 110c39,25 74,45 112,71 36,25 80,50 114,68 125,68 215,114 352,176 171,78 344,118 535,113 150,-4 160,-32 225,-140 21,-35 48,-74 59,-117 40,-155 35,-241 157,-361 108,-107 585,-553 675,-559 35,-2 174,32 221,38 78,11 146,22 226,27 482,30 962,2 1442,-121 586,-150 1500,-527 2023,-874 418,-277 771,-565 1128,-893 118,-109 212,-214 323,-320 170,-162 314,-326 459,-503 153,-187 195,-355 269,-574 41,-120 59,-251 109,-366 12,-27 -2,-16 28,-36 111,209 228,375 301,597 27,83 52,142 11,194 98,65 -54,167 -104,201 -37,25 -66,62 -98,92 -110,104 -157,122 -300,270 -77,80 -149,160 -216,250 -94,125 14,21 -149,136 -109,77 -103,83 -164,197 -26,49 -31,40 -61,108 -19,43 -54,68 -68,105 -17,42 -12,68 -39,118 -80,147 22,173 154,86 166,-110 376,-151 546,-250 371,-216 349,-171 722,-296 233,-78 473,-209 681,-337 104,-64 195,-123 289,-199 198,-162 242,-369 104,-589 -62,-99 -32,-506 -10,-650 16,-103 26,-209 47,-310 67,-314 277,-861 207,-1233 50,-38 79,-78 95,-124 16,-45 16,-105 26,-149 8,-36 27,-39 40,-67 34,-75 12,-169 35,-232 39,104 69,154 84,266 59,-74 53,-233 25,-331 -16,-56 -60,-149 -84,-195 -32,-60 -73,-103 -105,-162 63,16 100,56 159,81 65,27 104,50 170,48 -24,-44 -152,-139 -197,-174 -114,-88 -222,-173 -326,-272 -102,-96 -146,-130 -253,-244 -80,-84 -156,-188 -232,-274 -160,-179 -565,-510 -638,-610 -23,-31 -10,-294 -13,-348 -3,-68 -3,-118 -21,-184l-9 -35c7,-162 -234,-712 -322,-883 -98,-191 -224,-382 -361,-547 -37,-44 -103,-111 -132,-158l-20 -9 -33 -46 59 25c13,5 11,4 21,9 27,14 5,10 42,20 15,4 23,4 35,7 -23,-53 -170,-160 -216,-190 -118,-75 -217,-77 -255,-108 129,-53 77,-44 139,-75l-17 -23c-85,27 -132,13 -202,-3 4,-17 6,-20 11,-35 1,-2 2,-5 3,-7l6 -23c27,-89 35,-88 -35,-221 -56,-107 -105,-190 -137,-317 15,-43 15,-14 25,-64 14,-69 -5,-15 26,-64 35,-57 76,-347 49,-431l25 -12c-42,-14 -27,-30 -46,-88 42,3 79,76 105,104 28,-65 -26,-189 -103,-248 14,-28 112,-96 156,-191 12,-26 21,-44 32,-70 84,-199 15,-554 -144,-676 -198,-151 -285,31 -337,-5 -1,-1 -5,-3 -6,-4 -68,-48 39,21 -19,-14 -32,-19 -59,-14 -94,-27 26,-47 87,-111 56,-165 -69,-37 -172,50 -213,97 -8,-107 -9,-148 -60,-249 -6,-12 -10,-23 -18,-33 -31,-44 -4,-9 -24,-21 -55,63 -37,112 -45,157l-6 17c-36,-57 -72,-106 -115,-161 -29,-36 -97,-90 -129,-107 -101,-52 -234,-84 -346,-44 20,26 39,40 67,61 65,48 126,104 177,167 -63,-32 -84,-27 -157,-65 -334,-173 -719,-148 -1058,35 -108,58 -86,43 -167,71 35,-4 20,-1 40,5 -50,21 -111,52 -108,97 80,-37 232,-81 312,-85 -82,65 -196,64 -335,297 -28,48 -18,17 -22,54l130 -98c-35,80 -82,134 -102,217 -21,85 -50,120 -52,237 44,-31 48,-103 81,-143z"/>
 </g>
</svg>
