<?xml version="1.0" encoding="UTF-8" standalone="no"?>
<!DOCTYPE svg  PUBLIC '-//W3C//DTD SVG 1.1//EN'  'http://www.w3.org/Graphics/SVG/1.1/DTD/svg11.dtd'>
<!-- Creator: CorelDRAW X5 -->
<svg style="shape-rendering:geometricPrecision;text-rendering:geometricPrecision;image-rendering:optimizeQuality" xmlns="http://www.w3.org/2000/svg" fill-rule="evenodd" xml:space="preserve" height="500px" width="500px" clip-rule="evenodd" xmlns:xlink="http://www.w3.org/1999/xlink" viewBox="0 0 12764 16208">
 <defs>
  <style type="text/css">
   <![CDATA[
    .fil9 {fill:rgb(39, 39, 39)}
    .fil7 {fill:#5D3212}
    .fil8 {fill:#9F9F9F}
    .fil0 {fill:#BFE7F3}
    .fil6 {fill:#CC3300}
    .fil1 {fill:#E9718A}
    .fil2 {fill:#EEF430}
    .fil3 {fill:#FA566E}
    .fil5 {fill:#FFFA9F}
    .fil4 {fill:white}
   ]]>
  </style>
 </defs>
 <g id="Layer_x0020_1">
  <g id="_287644048">
   <path class="fil0" d="m3033 5012c-105-58-101-127-281-121 7-41 210-104 281 121zm-688 4c31-20-9-30 56-2 2 73 7 22-29 39-151 4-561 66-619 217 109 151 442 121 647 81 150-30 519-192 537-252 2-6 8-6 12-8 45 112 81 341 121 472 294 980 834 1852 1529 2576 104-166 200-377 285-559 16-34 23-57 45-96 32-58 14-49 61-57-2 63-568 1175-651 1359-209 461-440 910-575 1437-234 915-207 2087 588 2707 54 42 92 69 151 106 85 53 113 29 117 118l-132-69c82 323 261 595 264 968-67 2-657-197-798-232-278-69-565-136-866-161-254-21-266-39-416 100-218 203-660 836-56 843-58-275 222-571 469-643-12 76 18 25-64 69-139 75-411 317-382 495 33 205 633 155 843 162 578 20 1356-25 1926-84 3-225-11-464-28-685-8-104-87-581-66-622 111 104 129 1020 134 1233 9 339-43 353 167 527 137 113 239 172 411 259 297 149 668 267 1019 360 240 63 356 21 374-241 26-360-197-269-239-431 94 37 234 140 266 250 46 156-5 286-47 417 96 19 194 36 274-21 53-38 130-129 151-184 121-313-104-305-131-465 249 118 220 366 127 569 318-100 609-661-247-837-499-103-1e3 -136-1521-173-63-198 4-543 51-737 39-162 95-321 148-483 14-42 21-120 55-152 100-95 278-125 436-322 476-597 337-1103 97-1752-321-867-257-1837-167-2793-72 5-144 11-216 14-135 5-152 13-167-40 1178 0 2065-534 2866-1213 168-143 321-315 453-433 361-323 238-332 277-394 33 39 44 71 76 122 136 212 557 525 811 528 243 3 405-135 114-329-63-42-442-206-462-272 185 2 528 344 729 314 74-258-84-260-287-317-109-31-336-126-343-253 54 12 144 157 454 242 55 15 133 64 171 27 150-279-414-395-614-471-137-52-323-79-308-253 13-154 125-287 97-458-48-296-547-373-517 178 12 220 104 286-29 443-458 544-1856 1081-2606 1295-114 32-102 31-148 128-74 157-194 397-310 518-146-4-585-235-719-305-212-111-136 57-380 25-173-22-200-131-280-234-210 44-817 311-995 169-53-187 144-609 217-750-119-130-233-254-364-403-647-736-602-995-878-1423l-24 25c-41-171 83-330 151-415 91-113 19-305-101-370-342-188-339 287-440 539-169 67-365 107-562 90-137-12-481-131-536 38 61 41 161 37 228 52 69 15 141 32 192 66-38 26 40 25-70 12-185-23-333-128-527-21-52 203 53 270 161 363 187-55 334-123 559-135z"/>
   <path class="fil0" d="m5611 4509c104 9 166 71 293 71 149 0 244-77 356-118-58 74-159 147-296 163-165 18-250-57-353-115zm913-775c-159 816-936 985-787-208 20-158 55-323 131-438 346-528 777 26 656 646zm-931-1029c-74-275 332-568 497-370-29 63 31 24-69 58-37 13-50 3-94 23-158 74-130 365-334 288zm468-702c-49-52-112-130-158-169-182 11-416 90-571 147-178 66-349 170-499 226 77 247 130 296 93 612-23 196-73 398-127 580-212 708-251 292 47 1038 326 819 561 1564 577 2489 86 22 216-80 417 4 98 41 67 87 165 85 75-1 189-8 248-30 33-26-34-72-90-142-302-376-604-880-604-1396 0-416 369-551 752-637 415-93 839-115 1269-156 75-163 55-220 183-343 64-61 167-126 247-166l93-62-602 81c-114 8-195-54-246-108-85-91-73-141-137-214-6 96-6 176-58 238-243 73-333-291-379-493-58-251-129-595 90-725 101-11 130 30 181 66l-38-437c-215-159-264-34-435-118-1-81 1-83 59-116 184-106 284 61 381 72l15-252c-130-104-212-229-345-326-142 59-369 229-527 250z"/>
   <path class="fil0" d="m8482 12625c46-84 101-291 116-385 64-376-146-652-334-896-53-68-246-266-311-299 86 407 174 730-49 1110-151 257-502 404-917 379-32 110-109 209-160 302 242 285 866 539 1336 149 129-107 252-234 320-360z"/>
   <path class="fil1" d="m5056 1776c174-100 384-247 553-329 68 38 85 61 125 113 41 53 77 85 119 137 71 89 146 185 229 261 169-44 355-196 512-251 159 103 410 427 571 507 159-85 565-235 678-332-9-77-29-147-67-193-214 83-517 293-670 351-47-33-78-73-118-120l-375-397-471 184c-124-103-318-422-435-538-112 36-140 80-202 114-4 2-9 5-13 7-30 15-42 18-79 41-94 57-195 132-297 183-52-37-21-13-62-63-80-98-334-423-361-488-334 92-82 296 20 416 87 102 254 318 344 397z"/>
   <path class="fil2" d="m5259 1059c143 67 149 63 251 155l212-100c112 122 326 473 438 542l414-170c112-28 34 26 138 41 151 21 238-50 320 94 69 122-8 246 37 337 59-56 168-438 189-549-64-46-616-227-724-247-137 157-302 249-462 19-49-71-64-138-72-165-1-5-4-12-5-16s-3-11-5-16l-638-194c-44 66-78 184-95 269z"/>
   <path class="fil1" d="m5362 739c49 27 1639 526 1908 621l95-284c-91-59-1736-540-1914-569-47 52-71 150-89 232z"/>
   <path class="fil3" d="m6693 7654c69-71 336-548 369-664-146-25-959 42-1108 76l-33 234c92 72 645 334 771 354zm-2317-322c154 71 666-101 864-165 151-49 44-27 173-202-73-79-617-455-736-492-86 154-354 634-300 859zm1004-190c9 110 136 223 253 233 157 14 265-68 277-213 15-191-80-227-263-230-123-2-277 84-267 210z"/>
   <path class="fil4" d="m6166 5861c387 44 353 156 514 427 136-134 117-91 281-189-141-134-599-263-579-933-39 35-70 83-94 133-94 195-122 340-122 563z"/>
   <path class="fil5" d="m8520 5231c-2 385-35 463-135 790 175-102 561-781 571-1120-299 382-142 176-436 330zm-607-570c190-139 333-412 899-307-29-103-300-165-532-58-147 68-307 226-366 365zm-2314 826c0 414 267 886 493 1191l239 306c63-5 372-22 407-35 60-21 56-57 94-121 31-52 62-95 99-137 66-74 139-150 224-210 154-109 152-83 253-142 34-20 23-14 36-25-105-66-374-207-499-163-192 67-298 181-263 428-395-24-556-459-556-797 0-347 133-460 233-689l-160 62c36-46 85-88 164-117 38-14 74-22 114-22 80-1 99 17 130 40l-178 3c-76 771 422 929 956 1175 726 335 1135-200 1094-988-8-2-16-11-19-6s-12-4-17-5l-132-12c-147-7-294-41-422-104-266-130-256-266-309-420-354 4-893 69-1234 146-384 87-746 189-746 642z"/>
   <path class="fil6" d="m6632 6535c-15-244 44-209-89-426-71-117-170-202-364-203-3 200 154 584 452 629z"/>
   <path class="fil4" d="m6779 3790c27-72 24-142 127-133 93 8 109 85 162 139 5-105-12-267-30-368-15-81-16-83-76-121-33-21-92-49-139-59-252-54-142 169-43 542zm-603 480c211-91 401-621 297-965-213 11-457 235-545 333-41 45-58 69-102 115-132 138-8 431 37 490-83-564 444-495 313 27z"/>
   <path class="fil4" d="m6663 3213c187-26 210 9 346 73-6-113-62-321-136-367s-132 0-167 60c-40 69-39 149-43 234zm-895 536c151-152 383-452 695-483-52-274-270-484-499-240-133 142-224 463-197 723z"/>
   <path class="fil7" d="m6486 1146l-438-144c35 239 303 406 438 144z"/>
   <path class="fil7" d="m7006 1858c29-60 20-178-17-233-52-77-158-67-263-56 37 55 194 243 253 281 38 24 4 18 27 8zm-1867-410c62-30 113-64 171-101 75-47 121-65 160-118-59-43-112-94-217-124-3 4-8 6-9 14s-7 10-8 14c-33 68-81 242-97 316z"/>
   <path class="fil8" d="m2372 5053c35-16 30 35 29-39-65-28-25-18-56 2h41l-14 37z"/>
   <path class="fil9" d="m8408 12642c24 109-167 277-247 343-470 390-1094 136-1336-149 51-93 128-192 160-302 416 24 767-123 917-379 223-380 135-703 49-1110 66 33 259 231 311 299 189 244 398 520 334 896-16 94-74 271-120 356-40 74-19 68-70 46zm-2814-9938c204 77 175-214 334-288 44-20 57-11 94-23 100-35 40 5 69-58-165-198-571 95-497 370zm18 1804c103 58 188 134 353 115 137-15 239-88 296-163-112 41-207 118-356 118-127 0-188-62-293-71zm564-238c130-522-396-591-313-27-45-59-169-352-37-490 44-46 61-70 102-115 88-97 333-321 545-333 104 344-86 874-297 965zm-408-522c-27-260 64-581 197-723 229-244 446-34 499 240-313 30-544 331-695 483zm757-15c121-621-310-1175-656-646-75 115-111 280-131 438-149 1193 628 1024 787 208zm-3773 1157c180-6 176 63 281 121-71-225-274-162-281-121zm2627 2251c-10-126 144-211 267-210 183 2 278 39 263 230-11 145-119 227-277 213-117-10-244-124-253-233zm1314 512c-126-20-679-282-771-354l33-234c149-34 962-101 1108-76-33 117-301 593-369 664zm-2317-322c-53-226 215-705 300-859 119 38 664 413 736 492-129 174-23 152-173 202-198 65-709 236-864 165zm2168-1223c133 217 74 182 89 426-298-45-455-429-452-629 194 1 292 86 364 203zm-378-248c0-223 27-368 122-563 24-50 55-98 94-133-19 670 439 799 579 933-164 98-145 55-281 189-161-271-127-382-514-427zm-566-373c0-452 362-555 746-642 341-77 880-141 1234-146 53 153 43 289 309 420 128 63 275 96 422 104l132 12c5 1 14 11 17 5 3-5 11 3 19 6 41 789-368 1324-1094 988-534-246-1032-404-956-1175l178-3c-32-23-50-42-130-40-40 1-77 8-114 22-79 29-128 71-164 117l160-62c-99 230-233 343-233 689 0 338 160 773 556 797-35-247 71-361 263-428 125-44 394 97 499 163-13 11-2 5-36 25-101 58-99 33-253 142-85 60-158 137-224 210-37 42-68 85-99 137-38 64-34 100-94 121-36 13-344 30-407 35l-239-306c-226-306-493-777-493-1191zm2921-256c294-154 136 52 436-330-10 340-396 1019-571 1120 101-327 133-406 135-790zm-607-570c59-138 220-297 366-365 232-107 503-45 532 58-566-105-709 168-899 307zm-5541 392l14-37h-41c-226 12-373 80-559 135-108-93-213-160-161-363 195-107 342-1 527 21 110 13 32 14 70-12-51-34-123-52-192-66-67-15-167-11-228-52 55-169 399-50 536-38 197 17 394-23 562-90 101-252 98-727 440-539 120 66 192 257 101 370-68 85-192 244-151 415l24-25c276 429 231 688 878 1423 131 149 245 273 364 403-73 141-270 563-217 750 178 142 786-125 995-169 80 103 107 212 280 234 244 31 168-136 380-25 134 70 573 302 719 305 116-122 236-361 310-518 45-96 34-95 148-128 750-214 2148-751 2606-1295 132-157 41-222 29-443-30-551 469-473 517-178 28 171-84 304-97 458-15 174 171 201 308 253 200 76 764 191 614 471-38 38-116-12-171-27-309-85-400-230-454-242 7 127 234 222 343 253 203 57 362 59 287 317-201 30-544-312-729-314 20 67 399 231 462 272 291 194 129 332-114 329-254-3-674-315-811-528-32-51-43-83-76-122-39 62 83 71-277 394-132 118-285 291-453 433-800 679-1688 1213-2865 1213 15 52 32 45 167 40 72-3 144-8 216-14-90 956-153 1926 167 2793 240 649 379 1156-97 1752-158 198-335 228-436 322-34 32-41 110-55 152-53 162-108 320-148 483-47 195-114 540-51 737 521 36 1022 70 1521 173 857 177 565 737 247 837 93-203 122-451-127-569 27 160 252 153 131 465-21 54-98 146-151 184-80 57-179 40-274 21 42-130 93-261 47-417-32-110-172-212-266-250 42 161 265 71 239 431-19 262-135 304-374 241-351-93-722-211-1019-360-173-87-274-145-411-259-210-173-158-187-167-527-5-213-23-1129-134-1233-22 41 58 518 66 622 17 222 31 460 28 685-569 60-1348 104-1926 84-210-7-810 43-843-162-28-178 243-420 382-495 82-44 52 7 64-69-246 71-527 368-469 643-604-7-162-640 56-843 149-139 162-121 416-100 301 25 589 92 866 161 141 35 731 234 798 232-2-373-181-645-264-968l132 69c-4-89-33-65-117-118-59-37-97-64-151-106-795-620-823-1792-588-2707 135-527 366-976 575-1437 83-184 649-1296 651-1359-47 8-29-1-61 57-22 39-28 61-45 96-85 182-181 393-285 559-695-724-1236-1596-1529-2576-39-131-76-360-121-472-4 2-10 2-12 8-17 60-387 222-537 252-204 41-538 70-647-81 57-152 467-213 619-217zm4696-1257c-53-54-70-131-162-139-103-9-100 61-127 133-99-373-208-596 43-542 47 10 106 38 139 59 60 38 61 40 76 121 19 101 36 263 30 368zm-405-584c4-85 3-165 43-234 35-60 93-106 167-60 73 45 130 254 136 367-136-63-159-99-346-73zm-601-1210c158-21 385-191 527-250 133 97 215 222 345 326l-15 252c-97-11-197-178-381-72-57 33-60 35-59 116 171 85 220-41 435 118l38 437c-51-36-80-77-181-66-218 129-148 474-90 725 47 202 136 566 379 493 52-62 52-142 58-238 64 73 52 123 137 214 51 54 131 116 246 108l602-81-93 62c-80 40-183 105-247 166-128 123-108 179-183 343-429 42-854 63-1269 156-383 86-752 221-752 637 0 516 302 1020 604 1396 56 70 123 115 90 142-59 21-173 28-248 30-98 1-67-44-165-85-201-85-331 18-417-4-16-925-250-1671-577-2489-298-746-259-330-47-1038 55-182 105-384 127-580 37-315-16-365-93-612 150-56 321-160 499-226 154-58 389-136 571-147 45 38 109 117 158 169zm944-144c-23 10 11 16-27-8-59-38-216-225-253-281 105-11 211-21 263 56 37 55 47 173 17 233zm-1867-410c16-74 64-247 97-316 2-3 7-6 8-14s6-9 9-14c105 31 158 81 217 124-39 53-84 71-160 118-58 37-109 71-171 101zm1454 259c-157 55-343 207-512 251-84-76-158-172-229-261-42-52-78-84-119-137-40-52-57-75-125-113-169 82-379 229-553 329-90-78-257-294-344-397-101-120-354-324-20-416 27 64 281 389 361 488 41 51 10 26 62 63 101-51 202-126 297-183 37-22 49-25 79-41 4-2 9-4 13-7 63-34 91-78 202-114 118 116 311 435 435 538l471-184 375 397c40 46 71 87 118 120 153-58 456-268 670-351 38 45 58 115 67 193-113 97-518 247-678 332-161-80-413-404-571-507zm-108-561c-135 262-403 95-438-144l438 144zm584 812c-44-90 32-215-37-337-81-144-169-73-320-94-104-14-27-69-138-41l-414 170c-113-69-326-420-438-542l-212 100c-102-92-108-88-251-155 17-85 51-203 95-269l638 194c2 5 4 12 5 16s3 11 5 16c8 27 22 94 72 165 160 230 325 138 462-19 108 20 660 200 724 247-21 110-130 493-189 549zm-1707-1219c18-82 42-180 89-232 178 29 1823 510 1914 569l-95 284c-268-94-1858-594-1908-621zm-266 685c-102-71-314-398-414-510-182 57-260 204-128 347l482 564 571-329c57 32 215 231 255 288-44 25-448 123-562 165-177 67-362 186-509 231-396-591-1770 71-1770 470 0 584 403 1662 1095 1767 326 49 346-266 480-464 335 672 794 2064 783 2914-155-66-573-427-718-433-43 48-51 69-75 120-201-113-760-889-897-1118-124-208-218-455-334-672-127-240 336-387 99-708-98-132-309-197-416-34-66 101-144 362-166 502-669 175-638-4-930 33-143 0-133 20-180 103-34 59 30 19-76 59-288 107-45 353 59 454-22 55-51 94-13 149 89 129 416 105 545 90 329-38 427-122 651-249 63 529 423 1277 645 1688 242 446 544 803 853 1177 48 58 98 92 145 160-71 207-219 474-315 681-105 226-207 446-306 678-398 935-577 2306 92 3141 68 84 158 171 245 247 144 127 116 76 205 288 95 224 188 513 217 783-343-78-668-212-1043-293-177-38-738-154-912-85-122 49-801 815-311 994 127 47 171-6 234 21 280 116 724 99 1036 92l1695-82c0 281-6 339 343 561 199 127 388 209 626 300 166 63 711 269 890 227 133-32 43-37 197-17 181 24 226-65 349-107 198-68 416-268 338-558-106-394-1016-444-1371-481-190-20-467-20-644-49-90-15-73-74-73-174 0-229 147-907 264-1110 38-66 97-68 163-112 125-84 194-151 297-251 126 69 256 184 398 250 927 435 1803-716 1302-1539-143-235-431-570-659-692 94 232 171 406 171 716 0 609-410 909-989 881 40-180 88-339 88-546 0-545-458-1132-458-2088 0-397-22-1222 79-1546 1020-161 1857-635 2541-1281 56-53 113-91 170-146 54-53 99-111 153-163 121-117 225-206 310-339 40 26 8 3 39 31 179 163 289 296 518 431 206 122 712 161 611-186l127-21c18-73 30-140 4-220-50-154 9-33 17-186 12-266-403-341-588-404-62-21-129-48-187-69-64-24-134-46-161-102-63-172 182-379 52-637-92-183-406-224-515-22-117 218 37 566-31 677-36 59-143 156-192 203-618 595-2257 1028-2452 1141-114-89 5-85-319-80 104-237 332-441 580-552 268-120 480 110 878-205 207-164 372-365 511-651 203-418 558-1542-302-1533-725 8-1293 503-1396-560 557 243 677-444 658-889l-45-532 190-114-72-265c-182 22-510 279-692 339 51-238 273-736 275-945-335-103-1741-562-1993-571-49 154-271 862-314 960zm3352 11218c-14-23-49-41-86-50-170-13-268 48-297 1-28-67 42-138 56-255-262 45-405 524-536 112-5 48-11 79-2 129 106 239 413-91 481-177-15 70-109 183-19 246 87 60 237-54 403-6z"/>
  </g>
 </g>
</svg>
