<?xml version="1.0" encoding="UTF-8" standalone="no"?>
<!DOCTYPE svg  PUBLIC '-//W3C//DTD SVG 1.1//EN'  'http://www.w3.org/Graphics/SVG/1.1/DTD/svg11.dtd'>
<!-- Creator: CorelDRAW X5 -->
<svg style="shape-rendering:geometricPrecision;text-rendering:geometricPrecision;image-rendering:optimizeQuality" xmlns="http://www.w3.org/2000/svg" fill-rule="evenodd" xml:space="preserve" height="500px" width="500px" version="1.0" clip-rule="evenodd" xmlns:xlink="http://www.w3.org/1999/xlink" viewBox="0 0 12764 16208">
 <defs>
  <style type="text/css">
   <![CDATA[
    .fil6 {fill:black}
    .fil0 {fill:rgb(39, 39, 39)}
    .fil4 {fill:#4E78A2}
    .fil3 {fill:#AD95A5}
    .fil2 {fill:#B95225}
    .fil1 {fill:#F4B395}
    .fil5 {fill:white}
   ]]>
  </style>
 </defs>
 <g id="Layer_x0020_1">
  <path class="fil0" d="m9371 947c-128 28-347 77-487 112-138 34-272 63-294 63-77 0-243 95-426 241-99 81-233 174-294 205-61 30-128 73-146 95-30 32-105 221-211 533-39 107-30 132 99 314l87 122 158 2c138 2 164-2 215-45 55-47 59-49 116-16 69 41 148 28 209-32 53-53 53-185 2-296-34-77-34-91-6-207 20-89 39-126 63-126 26 0 32 30 39 187 4 211 22 241 132 245 150 4 239-134 195-296-20-73-14-87 75-241l95-162 83 10c47 6 170 45 276 85 105 41 239 79 296 85l107 12 63 144c150 333 304 884 377 1344 49 316 59 807 22 1071-18 122-39 284-47 361-12 124-18 138-63 148-99 26-298-6-412-63-61-30-164-75-229-101l-118-43 134-59c93-39 126-61 107-73-61-39-308-12-493 55-83 28 16-47 172-134l152-85-126 12c-174 16-422 112-622 241l-170 112-49-51c-55-61-156-107-233-107-45 0-51-4-26-20 57-36 247-24 322 22 36 22 71 39 75 34 18-20-112-148-182-180-101-47-182-49-294-8-79 26-83 26-65-6 36-67 219-223 328-280 61-30 174-71 251-91l142-34-132-2c-239-4-472 79-637 223l-93 83v-89c0-231-105-584-227-766-71-107-229-264-268-264-6 0 8 43 36 95 103 207 170 505 144 655l-14 81-75-118c-164-251-375-408-578-424l-103-10 112 67c109 63 345 282 345 316 0 10-53-6-116-39-160-77-357-124-460-109-144 22-144 41-2 99 71 30 174 81 227 116l97 61-152-12c-172-14-393 16-517 71l-81 36 193 14c105 8 229 22 274 30l81 16-101 16c-55 8-136 28-176 45-69 28-79 26-134-14-32-24-99-49-148-55l-89-12 49 53 47 51-63 32c-34 18-63 41-63 49 0 39 55 65 132 65h81l-6 247c-10 337-22 381-150 487-185 152-239 213-239 262-2 39-28 65-124 120-258 146-444 420-604 878-34 99-85 217-112 264-61 103-43 156 55 156 45 0 87 22 140 71l77 71-79 71c-189 170-144 292 136 375 47 14 85 28 85 30s-51 79-112 172c-140 211-416 760-594 1186l-138 324-205 126c-410 255-675 533-1099 1162-371 545-519 695-1066 1089-442 316-549 387-702 472-79 43-197 140-302 245-130 132-217 197-353 270-302 164-414 318-359 499 30 105 93 148 180 124 81-24 152-75 357-249 154-134 235-170 235-107 0 18-24 89-55 158-41 95-57 176-69 341-12 185-22 229-75 324-32 61-77 172-95 251-43 178-93 258-266 408-229 201-286 266-322 363-43 112-22 180 67 219 34 16 57 43 61 75 12 89 101 128 189 79 32-16 51-14 77 10 47 43 107 41 168-6 47-39 51-39 71-2 69 107 247 45 424-148 144-160 363-489 448-673 211-460 493-1251 493-1387 0-67 101-247 195-347 203-217 367-300 1221-620 809-304 1060-426 1269-620 95-89 118-120 95-136-47-30-249-45-357-24-55 10-103 16-107 14-2-4 57-34 134-69 160-71 365-118 608-138 91-8 166-22 166-30 0-28-79-99-138-124-30-12-118-28-197-34l-142-14 81-24c114-34 326-30 454 8 59 16 114 26 120 20 34-36-148-266-243-304-55-24-55-24 77-89 120-59 132-61 144-30 114 320 237 493 521 730l79 67-12 166c-14 201-69 371-221 675-122 241-168 375-185 517-10 81 2 65 109-160 65-138 124-247 128-243 6 4-4 67-22 140-61 264-2 556 136 679l47 41-14-51c-6-28-18-134-24-233l-10-182 43 99c89 211 227 347 375 371l79 12-67-81c-41-53-71-116-77-168l-12-83 75 51c148 99 262 124 556 118 249-6 430 16 430 53 0 8-47 51-101 93-57 43-132 114-168 156-36 43-201 158-369 262-440 272-501 330-483 464 26 193 61 235 191 253 39 4 105 24 148 43 124 53 229 26 418-101 132-91 182-114 298-132 205-32 335-101 505-268 122-116 150-136 150-101 0 130 97 199 264 182 142-14 249-91 294-207 34-87 34-101 2-229-47-193-43-213 51-322 221-264 253-515 81-631-39-26-91-47-118-47-166 0-554-349-554-499 0-28 53-97 138-182 75-77 168-187 205-243 47-75 91-116 150-142 156-69 387-213 537-337l150-122 97 43c146 63 253 57 324-16 55-61 103-205 134-387 10-73 36-118 134-221 227-249 381-667 355-961-6-67-4-112 4-103 32 34 63 160 77 298 12 142 12 142 43 83 43-79 55-375 26-545-14-75-20-140-16-144s39 51 77 124c73 138 87 136 107-10 30-213-79-497-266-689-67-67-114-122-107-122 39 0 209 132 302 235l109 120-14-77c-51-270-276-489-545-533-112-18-109-43 4-59 114-16 266 2 365 43 39 16 73 24 77 20 26-24-176-203-296-262-124-61-148-65-349-67l-217-2-67-79c-36-43-112-128-166-185-128-140-219-337-231-501l-10-128 207-24c282-34 708-32 882 4 395 83 602 282 606 580 2 73-6 160-14 195l-16 61 41-65c97-156 128-391 73-564-8-26 8-16 49 30 138 154 185 444 103 622l-39 87 49-32c120-79 237-302 276-525 22-134 14-446-16-588-10-53-8-57 18-34 49 41 138 255 166 406l26 136 63-128c89-189 112-359 99-775-4-195-16-373-22-395-8-22 8 4 36 61l49 101 2-103c4-253-120-718-282-1046-45-91-81-170-81-176s65 53 142 130c79 77 142 134 142 124 0-8-14-71-32-140-59-229-245-549-454-772-85-93-87-99-36-87 28 8 67 20 85 26 18 8-41-63-132-156-308-318-460-596-708-1296-168-479-266-687-444-949-172-251-215-274-539-282-193-4-292 6-476 43z"/>
  <path class="fil1" d="m8277 6540c47 78 170 213 271 289 284 209 308 318 89 418-103 47-122 49-554 45-245-4-472 2-507 10-45 12-16 16 101 16 89-2 294 6 456 16 349 20 481 0 610-93l87-63 144 73c136 71 375 247 375 274-2 8-53 49-114 91-63 45-138 116-166 158-45 63-65 77-101 69-34-8-65 6-120 61-39 39-79 71-91 71-22 0-77 126-77 182 0 22-32 71-73 105-69 61-219 260-270 355-41 79-10 51 63-61 73-105 253-298 284-298 10 0 2 28-16 65-39 75-150 397-150 430 2 12 22-32 49-101 43-107 128-288 146-310 2-4 43 24 87 61 67 55 91 95 124 201 75 255 182 888 182 1087 0 128-81 118-249-32-107-95-207-122-324-83-140 47-264 255-219 371 43 114 114 138 316 107 166-24 231 14 318 195 71 152 176 266 274 304 26 10 109 18 180 18 97 0 132 6 126 24-6 14-89 87-187 160-280 213-631 371-1006 454-209 47-744 63-979 30-535-73-998-318-1241-659-105-146-211-377-213-456 0-30-8-61-18-71-49-53-116-789-95-1054 16-225 59-375 164-588 116-235 251-412 479-627 103-95 172-176 160-185-30-18-446 403-554 564l-91 140-24-75c-43-130 0-308 170-710 28-67 53-158 53-203 0-75 10-89 97-156 136-101 286-174 501-243 318-103 545-258 742-503 57-73 105-134 109-138 2-2 32 75 69 172 53 152 239 485 260 466 2-4-14-61-36-128-24-65-47-193-53-282l-10-162 142 213c138 207 312 403 278 314-51-136-116-337-132-406l-18-81 41 55c22 28 57 75 77 99l36 45-4-69c0-4-1-8-1-13l32 40z"/>
  <path class="fil2" d="m10148 988c41 20 75 47 75 57 0 12 36 61 81 112 170 195 310 479 497 1020 237 679 335 860 697 1285 32 36 30 36-47 4-43-18-81-32-85-32s49 57 118 126c233 237 448 564 537 817 28 81 26 79-144-89-93-93-180-164-191-156-14 8 10 67 61 148 103 168 187 351 262 572 95 276 162 647 81 448-20-49-47-93-61-97-28-10-28-26 10 178 16 95 36 318 43 499 12 337-8 535-69 675l-30 73-28-105c-14-59-47-144-71-191-41-81-199-270-215-255-4 4 6 67 22 138 77 335 59 655-49 884-63 138-93 164-75 67 16-79-16-249-69-359-53-107-185-274-251-318l-53-34 30 61c65 124 124 468 75 438-10-6-24-36-32-69-22-99-128-237-239-312-227-156-600-219-1058-178-152 12-300 28-333 34-51 10-61 6-67-34-8-47-10-47-34 12-16 39-22 114-18 205 14 207 93 363 298 588 89 99 164 187 164 193s-53 26-116 47c-65 20-142 51-172 65-32 16-57 24-57 20 0-6 36-53 81-105 47-51 79-99 73-103-6-6-99 36-207 93l-197 103-114-109c-124-118-225-176-363-213-79-22-85-28-85-93 0-83-81-182-221-278-122-81-237-193-290-276-3-6-7-11-11-16-3-4-5-7-8-11l-63-88c-7-32-16-67-24-98-20-65-32-124-26-128 6-6 53 43 105 107 114 138 109 118-30-213-53-124-91-227-87-227s47 26 93 57c47 32 97 65 114 75 51 30-87-195-182-294s-101-122-36-122c109 0 189-249 142-440-20-77-20-99 6-124 26-26 41-24 122 22 49 28 95 47 99 41 14-12-26-152-51-182-14-18-8-39 26-67 97-83 320-225 428-272 103-47 260-97 260-85 0 4-39 32-85 63-122 79-345 258-335 266 4 6 63-18 128-51 164-81 343-140 474-154l112-12-128 57c-99 43-122 59-91 69 49 18 333 132 479 195 99 41 146 49 270 43 170-6 154-24 180 217 14 124 99 410 134 444 39 41 39-6 0-95-105-243-134-702-71-1097 41-249 28-831-22-1127-81-479-229-1004-371-1322l-61-134 107-55c136-65 351-294 280-294-10 0-53 43-99 97-45 53-132 122-191 154-91 51-122 57-221 47-63-4-201-43-306-85-333-128-428-120-726 75-69 45-156 89-193 95-61 12-67 22-99 154-32 136-32 144 6 231 71 160 43 270-75 298-67 18-136-47-215-201-55-112-57-126-39-219 12-57 22-146 22-201 0-99 2-101 138-209 75-61 164-140 197-176 49-55 36-49-71 32-73 55-166 122-209 150-93 63-109 107-122 335-10 182-10 185 59 294 61 97 65 114 41 150-14 24-51 57-79 73-49 26-57 26-87-4s-36-30-91 2c-79 45-112 20-172-128-57-142-59-176-14-262 18-36 61-152 95-258l63-193 150-105c154-112 168-130 57-77-36 16-49 20-26 6 20-14 97-75 172-136 207-166 294-223 389-245 466-112 825-193 951-215 215-36 556-26 655 20zm-2247 631c-118 87-168 158-203 280-18 69-57 178-85 241-32 71-49 140-43 176 4 34 2 57-8 51-32-20-16-152 32-268 26-63 63-166 79-227 41-140 79-193 172-243 89-47 109-51 55-10zm1044 61c0 6-41 67-91 136-91 124-91 128-79 249 10 105 6 130-32 176-28 36-63 57-97 57-61 0-122-30-101-51 8-8 0-57-16-107-49-162-41-199 63-274 101-71 316-197 341-197 8 0 14 4 14 10z"/>
  <path class="fil2" d="m7709 3617c87 164 142 395 156 661l12 227 55-85c71-114 182-203 312-255 83-32 93-34 53-6-146 99-365 349-365 414 0 10 49-8 105-36 116-59 280-75 349-34 32 18 22 22-57 22-91 2-231 51-318 114-39 26-28 28 118 18 138-8 166-4 229 36 85 55 59 67-79 43-79-14-103-12-103 6 0 14 24 30 57 36 81 18 172 81 205 142 16 30 24 59 20 63-4 6-59-8-120-28-140-49-324-51-418-8-144 69-170 245-69 446 77 152 91 170 203 249 91 67 215 199 199 215-4 6-55-22-114-61-126-85-140-87-89-16 47 69 154 280 176 349 12 43 4 39-51-24-65-73-118-85-83-18 8 18 26 79 41 136 14 55 28 120 34 142 8 26-12 14-61-41l-73-81 12 81c6 45 28 148 51 229 20 81 39 154 39 162 0 20-213-304-280-430l-55-99-12 103c-8 59-8 160 0 227s12 122 8 122c-18 0-109-235-150-379-73-266-77-921-6-1135 12-34-22 14-114 160l-41 67 12-71c20-116 99-272 182-365l79-87-61 14c-32 8-105 34-158 61l-99 49 59-61c30-32 91-79 134-103 41-22 75-51 75-61 0-41-107-158-189-211-47-30-126-71-176-89-63-26-77-36-45-39 69 0 55-30-51-99-116-77-306-138-523-168-89-12-170-30-178-39-10-6 41-20 112-26 112-12 320 6 481 41 49 10 47 6-28-61-45-39-144-105-223-146-162-85-162-85-148-99 18-18 245 34 355 83 61 26 150 75 201 107 51 34 89 51 89 36 0-57-128-239-237-339l-118-107 89 49c124 67 270 219 383 401l93 152 28-91c47-152 16-383-87-677-24-73 105 89 172 215zm-162 1837c0 89-2 93-32 63-30-28-30-43-8-95 14-34 28-63 32-63s8 43 8 95z"/>
  <path class="fil1" d="m6638 5467c15 8 29 41 61 87 109 152 152 191 213 191 57 0 83-12 211-95 116-77 251-55 359 59 36 41 51 89 67 231 10 99 24 197 30 217 24 77-227 383-422 517-130 87-233 136-444 209-255 85-351 136-558 294-251 191-318 217-533 207-264-14-418-105-361-219 26-51 211-215 227-201 4 6-43 49-103 97l-114 89 67 26c39 14 109 41 160 59 182 69 312 14 578-235 154-146 209-185 298-211 239-69 527-300 643-515 71-136 124-347 122-489-2-85-4-83-20 32-47 371-199 606-521 815-185 120-276 136-604 105-253-22-412-18-596 14-65 12-67 14-22 26 65 14 101 122 43 122-20 0-61-28-91-65-45-53-67-65-124-59-81 6-87-16-28-109 22-34 73-158 114-276 170-493 373-756 685-890l91-39-18 51c-12 28-20 73-20 101 0 63 65 65 152 8 65-43 162-55 182-20 6 10 2 39-10 61-22 43-22 43 45 8 93-47 158-109 158-152 0-11-6-23-15-34-8-10-19-19-30-25-10-5-18-8-23-11-1-1-2-1-4-2 0 0-44-42 156 19z"/>
  <path class="fil3" d="m7137 4276l95 45-170 2c-93 2-166 6-160 12s85 30 176 51c276 67 570 229 570 314 0 14-30 45-65 69-97 59-193 164-227 249-47 107-43 109 47 30 45-41 109-87 144-105l65-32-51 87c-61 103-116 282-116 371v65l-116-6c-118-6-118-6-22 10 136 20 219 103 219 213-2 77-4 81-30 45-93-122-276-152-397-63-174 126-221 120-353-51-41-54-71-90-88-108l-9-9c-29-24-144-47-180-39-57 13 31 40 31 40 53 43 43 87-30 134-65 41-67 41-81 2-20-55-124-53-233 4-47 24-91 39-99 30-26-26 32-172 85-207 28-18 93-45 144-61 150-45 213-101 278-251 49-109 61-170 69-333 10-207-6-258-77-258-20 0-61 30-89 65l-53 67v-128c0-69 4-126 10-126 24 0 142 67 158 89 26 36-8-75-39-124-36-59-36-61 14-89 130-69 444-73 582-6zm-239 243c-41 34-61 69-57 97 2 22-20 79-51 126-77 114-140 302-142 422-2 87 6 105 65 158s79 59 150 51c128-18 235-105 312-258 36-73 71-158 77-191 12-55 14-55 41-20 28 36 28 34 30-16 0-71-30-150-95-243-26-41-45-83-39-95 18-28-93-83-168-83-34 0-85 22-124 53zm-491 738c53 2-49 81-105 81-22 0-99 26-168 61-114 53-128 55-128 22 0-49 32-89 172-201l122-99 36 69c18 36 51 67 71 67z"/>
  <path class="fil4" d="m6596 4611c20 71 20 268 0 298-12 20-20 14-30-24-16-69-79-101-134-73-39 20-41 18-28-34 28-120 112-239 156-223 12 4 28 28 36 57zm-205 529c0 8 22 20 51 28 61 14 57 57-4 65-51 8-83-32-99-120-10-65-10-67 20-30 18 22 32 47 32 57z"/>
  <path class="fil5" d="m8449 4828c-6 6-22 0-36-14-18-20-16-22 12-10 20 6 30 18 24 24z"/>
  <path class="fil5" d="m6551 4925c24 69 22 89-4 154-53 124-144 97-168-47-10-63-8-65 18-34 16 20 43 36 59 36 75 0 103-114 43-174-26-26-28-32-6-24 16 4 43 45 59 89z"/>
  <path class="fil5" d="m8244 4972c28 10 32 20 16 30-14 8-36 8-49-2-14-8-71-20-128-28l-101-12 112-2c61 0 130 6 150 14z"/>
  <path class="fil3" d="m8193 5049c73 61 91 191 51 385-14 73-65 107-160 107-75 0-95-10-130-59-112-156-158-355-95-406 79-65 270-81 335-28z"/>
  <path class="fil5" d="m5801 7016c0 43 2 95 6 118 4 30-12 45-75 67-91 30-191 18-290-34l-69-36 99-81c93-79 142-97 274-105 51-2 55 4 55 73zm6-187c8 69 6 71-59 71-57 0-71-10-95-67l-30-65 12 67 12 67-89-6c-77-6-89-12-97-57-2-28-16-57-30-65-12-8 65-16 172-16h197l8 71zm150-51c41 0 83 55 61 77-6 4-47 16-91 24-85 16-103 0-103-85 0-32 10-39 47-28 24 6 65 12 87 12zm166 20c24 2 20 10-16 30-39 20-55 20-65 4-26-41-18-61 16-47 18 6 47 12 65 12zm-114 205c-81 77-156 136-166 130-12-6-20-53-20-101 0-87 0-87 85-101 47-8 118-26 158-43 39-14 75-26 81-26s-57 63-138 142z"/>
  <path class="fil2" d="m6119 7334c-8 39-55 156-103 260-148 312-178 517-101 667 26 49 22 67-41 213-89 209-132 426-132 671 0 249 34 618 73 815 32 152 32 152-16 189-26 18-114 59-193 89-158 57-187 89-87 89 87 0 166 45 251 144 41 49 69 89 67 93-4 2-39-4-77-14-122-34-371-24-493 20-122 47-306 178-215 154 251-65 450-63 554 6l57 36-166 14c-320 28-641 140-795 276-43 36-73 69-69 73 2 4 63-12 134-32 85-26 185-41 302-41h174l-75 77c-170 174-521 343-1383 663-716 268-876 349-1085 549l-93 89 2-116c0-134-39-241-95-272-51-26-77-2-34 28 95 71 109 306 28 505-28 69-51 140-51 158 0 150-330 1069-523 1450-140 280-410 639-551 732-156 103-288 24-223-134 14-36 97-142 185-235 160-172 239-308 284-483 22-89 30-99 148-152 160-75 247-142 109-85-262 109-485 152-653 126-81-14-93-12-67 8 57 41-28 172-241 367-182 168-292 324-292 418 0 53-55 45-93-14-32-49-30-57 22-162 39-79 87-138 168-201 126-95 308-282 345-349 12-22 36-103 55-182 18-77 61-191 95-251 55-97 65-138 77-324 10-162 26-243 67-343 67-158 71-237 16-251-57-14-132 30-286 166-286 253-393 286-442 130-26-79-24-95 16-176 51-105 116-158 355-290 130-71 207-130 282-217 57-65 158-156 225-205 162-114 191-130 144-75-75 87-10 71 85-18 138-134 260-227 612-474 462-326 730-600 1048-1075 438-649 687-908 1139-1182 132-79 280-182 333-227 101-89 191-217 166-239-8-8-28 8-47 36-43 67-227 249-239 237-16-14 300-716 458-1024 77-148 189-343 245-428l103-158 122-14c134-14 300-77 353-136s75-47 61 30zm-4250 6168c-144 103-310 174-434 187-103 8-114 14-71 28 120 47 343-32 501-178 107-99 109-112 4-36zm231-1448c-225 168-333 337-330 513l2 101 24-112c32-154 105-270 262-422 132-126 152-164 43-81zm-474 1951c0 73-172 363-292 491-124 136-215 280-215 341 0 32-112 134-146 134-12 0-39-14-59-32-20-17-34-24-59-21 10-23 21-80 21-105 2-103 73-223 176-292 146-99 229-195 296-337 73-156 65-182-12-36-61 116-195 264-280 306-91 49-174 162-199 274-21 97-31 171-23 194-9 2-19 5-30 9-101 34-124 18-138-95-16-138 53-253 255-436 166-150 278-298 278-367 0-34 12-36 118-26 63 6 152 4 197-6s87-18 97-20c8 0 14 10 14 26z"/>
  <path class="fil2" d="m10551 7474c59 26 128 67 154 87l49 39-201 2c-162 0-221 10-320 49l-122 49 152 16c284 30 485 130 588 294 85 132 75 146-28 51-132-122-274-182-359-156-34 12-28 22 53 75 223 148 375 399 391 645 4 83 4 146-4 140-6-6-49-67-93-136-45-69-89-126-101-126-10 0-20 2-20 4 0 4 18 93 41 199 41 195 57 566 18 399-22-95-71-193-126-253-57-61-79-57-53 10 34 87 28 424-10 572-45 176-176 420-296 551l-99 109-2-197c0-324-85-837-170-1036-16-34-43-124-59-199-43-182-144-440-221-556-85-128-201-209-322-225-57-8-112-28-132-51-20-22-61-39-95-39-61 0-61 0-22-43 41-47 320-233 432-290 79-43 73-26-53 122l-87 103 217-107c355-176 667-213 902-103z"/>
  <path class="fil3" d="m9495 7960c49 26 118 85 152 130 81 107 203 399 251 604 20 89 53 195 69 235 45 105 89 314 124 578 34 268 41 629 10 647-12 8-14 24-6 36 34 55-41 337-107 410-61 67-146 65-306-2-93-41-122-61-112-85 8-24 2-28-28-16-67 28-185 39-262 24-105-20-205-120-294-296-99-197-164-235-353-215-174 20-195 18-237-20-85-77-24-272 107-353 114-69 199-55 324 53 59 51 138 107 176 126 65 32 69 32 107-16 36-47 41-69 28-235-16-239-97-702-164-929-45-156-65-193-132-251-89-75-130-182-109-286 16-75 53-107 47-39-10 103 8 138 144 292s284 395 284 460c0 18-16 41-34 53-22 12 24 14 142 8 150-10 189-6 278 32 57 24 120 41 138 36 30-6 28-10-6-22-130-49-126-43-136-189-12-160-77-302-237-523-107-146-136-211-116-264 16-47 154-39 258 16zm-107 1894c130 130 191 260 203 440 8 105 16 130 26 93 24-85 20-170-14-286-24-85-57-134-152-227-65-63-128-116-138-116-12 0 22 43 75 95zm-57-237c-22 14-2 20 71 20 144 0 239 32 345 114 95 71 99 39 6-47-99-93-337-142-422-87zm91-513c85 45 185 140 268 260 87 124 71 47-18-97-63-97-199-197-272-197-28 2-24 10 22 34zm-193-1241c20 22 18 36-8 61-18 18-32 43-32 53 0 43 63 164 158 306 140 209 207 349 221 462l12 97-81-22c-79-20-83-26-124-164-28-95-79-199-156-306-122-176-213-345-213-399 0-45 95-118 152-118 24 0 57 14 71 30zm-237 122c16 109 55 189 203 410 103 152 211 383 189 406-4 6-41 16-79 26-69 14-71 14-83-59-20-126-114-286-268-450-172-182-187-239-97-357 73-97 122-89 136 24z"/>
  <path class="fil2" d="m6697 11095c543 255 1350 286 1942 75 49-18 93-28 99-24 16 18-134 207-260 322-136 124-134 124-65 278 75 164 401 418 566 436 227 28 229 310 4 582-112 132-124 176-89 294 43 142 39 282-10 351-77 107-337 158-414 81-28-28-26-203 4-221 12-8 36-51 53-97 16-47 55-122 85-168 65-97 95-304 45-304-20 0-26 22-20 83 6 67-4 103-65 201-41 65-73 124-73 130 0 28-189 255-298 359-150 144-260 201-450 233-142 26-182 45-414 195-79 51-120 65-199 63-55 0-122-16-150-34-26-18-77-32-109-32-81 0-116-41-132-150-18-122 16-172 176-255 69-36 172-101 229-144 55-43 152-101 213-130 99-47 91-51-32-16-22 6 16-26 87-75 69-47 126-93 126-101 0-24 278-264 304-264 12 0 30 22 43 49 14 28 39 49 57 49s71 8 118 20c61 14 116 12 182-4l97-22-101-4c-227-12-272-26-345-105-97-105-182-126-501-122-148 2-296-4-330-12-91-24-217-89-276-146l-55-49-20 63c-22 63-14 105 47 251 16 39 16 39-49 0-36-20-95-79-130-128-65-97-154-326-156-408l-2-51-30 59c-32 59-45 395-16 442 8 14 6 16-8 8s-39-65-57-130c-57-195-10-505 118-764l39-81-77 81c-43 45-93 103-112 132-20 28 4-36 55-142 109-239 172-460 172-612 0-65 4-118 8-118s83 36 176 79zm933 2242c-36 16-109 61-162 97-51 39-160 99-241 136-160 73-288 193-288 270 2 39 6 36 28-18 34-77 107-132 302-221 83-36 182-95 221-130 39-34 112-85 160-114 97-55 87-67-20-20zm-195-79c-45 16-114 57-154 87-39 32-138 91-217 132-144 73-308 201-308 239 0 12 34-10 75-45 41-36 144-97 225-136 83-36 189-99 233-140 47-39 130-91 187-120 112-55 87-65-41-18zm474-551c53 63 140 93 260 91 199-2 217-32 26-43-112-6-197-22-243-47-65-32-69-32-43-2z"/>
  <path class="fil6" d="m8153 1568c-251 128-322 191-322 290 0 34-20 144-45 241l-43 180 57 120c73 150 93 142 30-12-45-109-47-118-14-217 18-59 45-172 57-251 14-83 39-160 57-176 18-14 138-87 266-162 128-73 223-134 213-132-12 0-126 55-255 120z"/>
  <path class="fil6" d="m8502 8818c0 22 6 28 12 12 6-14 4-32-2-39-6-8-12 4-10 26z"/>
  <path class="fil4" d="m7090 4737c140 140 140 312 2 474-128 148-278 189-371 95-47-47-51-63-43-176 8-134 107-383 174-432 65-51 164-34 237 39zm-314 187c-39 41-49 75-49 152 0 166 118 258 209 160 49-53 71-140 53-219-14-71-81-144-130-144-18 0-57 22-83 51z"/>
  <path class="fil5" d="m6898 4913c59 30 89 148 61 233-53 158-203 128-203-43v-49l41 41c32 32 51 36 81 20 77-41 69-152-16-201-45-26-12-28 36-2z"/>
  <path class="fil6" d="m7960 5154c-63 39-105 83-79 83 6 0 41-14 73-32 95-49 180-30 235 51 53 79 59 71 18-28-49-114-138-140-247-73z"/>
 </g>
</svg>
