<?xml version="1.0" encoding="UTF-8" standalone="no"?>
<!DOCTYPE svg  PUBLIC '-//W3C//DTD SVG 1.1//EN'  'http://www.w3.org/Graphics/SVG/1.1/DTD/svg11.dtd'>
<!-- Creator: CorelDRAW X5 -->
<svg style="shape-rendering:geometricPrecision;text-rendering:geometricPrecision;image-rendering:optimizeQuality" xmlns="http://www.w3.org/2000/svg" fill-rule="evenodd" xml:space="preserve" height="500px" width="500px" clip-rule="evenodd" xmlns:xlink="http://www.w3.org/1999/xlink" viewBox="0 0 12764 16208">
 <defs>
  <style type="text/css">
   <![CDATA[
    .fil1 {fill:#ACA77B}
    .fil3 {fill:#F06277}
    .fil2 {fill:#FFCC29}
    .fil0 {fill:rgb(39, 39, 39)}
   ]]>
  </style>
 </defs>
 <g id="Layer_x0020_1">
  <path class="fil0" d="m8257 633c0 52 8 120 17 153 37 120 99 495 99 588 0 54-17 148-41 212-52 151-52 171-12 179 39 8 303 167 383 229 27 19 85 74 130 120 72 70 84 93 84 165 0 126-56 179-223 204-89 14-163 16-214 4-43-10-84-19-91-19-35 0-12 70 41 126 64 68 332 466 332 493 0 31 43 49 105 45 54-4 124 6 381 56 138 27 151 33 361 138 194 99 192 99 258-29 68-128 256-276 439-344 80-29 159-64 266-118 60-31 134-56 161-56 99 0 303-118 435-252 179-179 287-412 216-456-10-6-19-27-19-47 0-62-97-140-163-134-50 6-60 16-66 64-14 150-109 326-247 468-95 97-247 202-287 202-14 0-47-99-72-216-23-103-17-322 12-489 12-76-17-103-41-35-31 103-169 159-229 93-72-74-101-243-72-410 10-52 4-60-78-89-159-56-229-99-320-198-50-52-95-93-97-89-4 4-17 68-29 142-39 266-128 381-258 336-72-25-103-58-192-196-56-87-66-120-74-260l-10-161-167-8c-93-6-185-17-204-27-21-10-62-31-95-45-68-33-237-192-303-289-25-37-60-85-80-105-33-37-35-35-35 56z"/>
  <path class="fil1" d="m8467 913c41 43 126 105 188 140 101 52 136 60 268 60l150 2v132c0 140 47 276 120 355 19 21 35 45 35 52 0 6 35 35 80 64 60 41 97 50 159 47 70-6 89-17 150-97 68-89 117-212 117-287 0-49 23-50 52-2 27 43 258 157 317 157 37 0 41 8 29 62-6 35-21 87-33 117-29 76 16 214 99 311 62 74 70 76 150 64l82-12 8 200c4 142 16 219 41 266 47 91 43 107-31 134-78 29-278 31-295 4-6-12-31-19-52-19-45 0-157-33-214-60-45-23-54-21-54 2 0 10 14 19 29 19 16 0 29 8 29 16 0 10 37 29 84 43 45 14 89 33 101 43 10 8 35 16 58 16s49 8 60 17c10 12 60 21 113 25 107 6 142 47 56 66-54 12-87 25-264 103-101 47-260 192-305 278-14 31-33 54-43 54s-56-27-103-58c-47-33-97-58-111-58-16 0-35-8-47-16-66-56-445-115-534-84-97 33-153 27-153-17 0-45-39-136-72-171-14-14-25-33-25-39 0-8-19-37-43-62-68-76-171-210-171-221 0-6 74-12 161-12 223 0 307-43 355-186 60-179-87-363-423-532-117-58-210-113-210-120 0-10 14-39 31-64 52-82 84-293 64-427-21-138-56-264-80-291-17-19-21-87-6-87 6 0 45 35 84 76z"/>
  <path class="fil1" d="m11283 2012c23 27 43 70 43 97 0 76-99 239-225 369-72 74-229 185-264 185-16 0-35 8-45 16-29 25-233 68-264 56-19-6-16-14 12-23 223-80 439-231 538-377 66-93 132-258 132-326 0-58 21-56 74 4z"/>
  <path class="fil0" d="m8762 1438c0 29 84 177 101 177 8 0 16 10 16 21 0 12 21 47 49 80 27 31 49 66 49 76 0 23-103 23-126 0-12-10-52-35-91-58-64-35-72-35-52-6 27 43 144 120 181 120 16 0 35 8 41 19 6 10 39 19 72 19 60 0 85 21 188 155 27 37 103 122 167 190s118 130 120 136c4 8-45 37-107 66s-128 70-148 91c-47 52-31 50 91-6 56-25 148-52 204-60 54-8 101-19 101-27s-23-31-54-54c-60-45-167-245-183-346-8-54-47-29-39 23 8 64-23 54-82-21-27-37-60-78-74-93-14-14-56-66-93-113-37-49-78-101-91-117-12-16-62-80-111-140s-89-118-89-130-8-21-19-21c-10 0-19 8-19 17z"/>
  <path class="fil0" d="m5520 2300c-175 109-303 291-330 470l-12 78-165 23c-91 14-181 33-198 45-19 10-47 19-60 19-33 0-301 136-381 192-70 50-118 52-118 6 0-17-25-64-54-101-31-37-62-91-68-118-8-27-29-68-47-89-84-95-303-175-427-153-41 6-126 17-190 23-208 21-357 177-439 454-14 49-39 109-56 136-66 103-85 202-84 437 0 192 8 256 45 357 50 144 43 183-82 427-74 142-78 177-23 177 35 0 35-4-12 93-39 82-54 256-21 256 12 0 23 177 27 421 10 460 31 647 91 792 54 136 130 276 188 353 37 49 84 118 105 153 19 37 56 99 78 138 47 84 113 179 146 214 33 33 111 163 103 167-4 4-33 17-64 33-72 37-186 151-186 186 0 16-17 27-39 27-49 0-49 29 4 157 68 169 163 285 289 361 56 35 74 64 35 64-12 0-56 25-101 54-45 31-97 60-115 68-72 25-33 188 70 284 27 27 50 58 50 74 0 43-313 342-466 443-80 52-150 101-155 107-27 29-282 159-371 190-37 12-97 23-130 23-35 0-62 8-62 16 0 10 29 64 64 122s78 126 93 153c16 25 39 58 50 74 14 14 25 33 25 41s17 35 39 60c21 25 39 52 39 60 0 10-87 103-192 210s-218 227-247 268c-31 41-76 95-101 122s-60 72-78 101c-17 31-39 54-47 54s-16 10-16 21c0 12-41 68-91 122-89 97-181 295-181 386 0 19-25 72-54 117-72 109-169 313-198 421-14 49-31 107-41 132s-17 78-17 120c0 41-10 82-19 87-25 16-25 334 0 350 12 6 19 68 19 136s8 165 17 218c12 50 29 146 41 210 25 130 54 235 80 285 10 19 17 50 17 70 0 19 8 43 16 52 8 12 27 54 41 97 16 43 45 117 64 165 21 49 47 107 56 130 45 113 74 165 194 346 148 221 219 303 357 406 54 41 223 202 379 359 155 155 317 311 359 342 43 33 82 62 87 68 39 43 352 216 495 272 130 52 340 97 451 97 45 0 101 8 126 16 95 35 513-10 822-87 64-16 138-33 165-39 27-4 66-16 87-23 21-10 74-27 117-39 43-14 117-43 165-64 49-21 105-47 126-56 237-95 699-342 773-414 12-12 54-45 91-70 37-27 103-82 146-120 43-41 91-74 111-74 17 0 74 50 126 111 50 62 111 130 132 151 82 80 235 216 299 262 87 64 373 293 406 324 49 47 247 153 334 179 60 17 188 25 404 25 386-4 476-23 664-148 103-68 113-78 175-167 72-103 82-115 165-196 45-45 97-76 124-76 58 0 311-134 449-239 258-198 487-482 583-722 25-64 50-120 58-126 16-14 89-173 113-243 50-155 82-344 84-515 4-151-43-373-105-503-47-95-202-264-264-284-23-6-41-21-41-31s-12-17-23-17c-14 0-95-35-181-78-117-58-179-78-251-78-82 0-91-4-80-35 62-151 72-239 72-627 2-416-2-437-87-616-49-103-163-237-200-237-50 0-29-37 50-87 84-52 194-159 194-186 0-10 35-52 76-95 66-68 80-99 99-216 19-109 19-148 0-183s-19-60 0-115c37-113 31-713-10-866-17-70-39-157-49-194s-25-99-37-136c-10-37-25-89-31-117-41-155-301-653-377-719-29-25-138-175-138-188 0-8 33-50 74-93 78-82 212-276 251-359 103-231 109-251 153-505 37-202 27-319-41-495-109-284-223-451-388-567-103-70-204-122-243-122-41 0-49-50-39-256 2-64-8-109-33-146-21-29-49-84-64-118-14-35-49-80-76-99-66-49-264-85-313-60-60 31-76 23-115-64-68-150-80-153-375-146l-258 6 6-107c25-550 25-610 2-655-19-35-19-50-2-68 39-39 27-85-35-151-52-56-56-66-27-85 27-19 23-25-19-50-27-14-50-33-50-43 0-8-17-16-37-16-21 0-43-8-49-17-6-10-35-21-64-27-31-6-93-21-142-33s-144-29-214-41c-70-10-179-27-243-39-64-10-150-23-190-31-39-6-78-17-84-27s-33-17-60-17c-29 0-84-10-120-21-111-33-177-50-309-78-124-25-124-27-111-85 29-144 33-218 10-319-27-126-39-146-163-317-128-179-155-192-336-186-124 6-165 16-237 60zm2698 5500c0 58-6 107-14 107-10 0-35-31-58-68l-43-66 50-39c27-23 52-41 56-41s8 49 8 107z"/>
  <path class="fil2" d="m5961 2325c8 6 2 17-10 21-41 16-29 43 58 128 155 157 188 229 188 416 0 148-43 214-117 185-27-12-87-29-136-43s-107-31-132-41-80-17-120-17c-43 0-78-10-78-19 0-12 10-19 19-19 12 0 19-8 19-17 0-27-227-66-320-54-128 19-130 4-6-249 82-171 105-196 142-165 29 23 58 10 146-78 16-16 105-56 146-66 50-12 185 0 200 19z"/>
  <path class="fil2" d="m3961 2820c78 41 105 76 62 76-35 0-21 33 39 97 33 35 72 95 89 134s41 89 50 111c12 23 19 107 21 185 0 157-25 256-118 464-115 256-113 252-76 252 41 0 223-315 225-390 2-16 10-37 17-49 10-10 29-82 43-159 19-107 21-151 4-188-14-27-23-62-23-76 0-21 324-194 456-245 21-8 62-25 91-39 56-27 103-10 54 19-66 41 10 43 124 4 136-47 196-52 216-23 6 10 76 19 151 19 151 2 289 29 587 117 33 10 91 27 132 37 39 12 105 31 146 43 39 10 99 27 130 35 33 10 97 29 146 47 49 16 118 35 155 43s103 21 146 33c159 37 256 56 388 74 398 52 476 72 532 130 62 64 41 74-49 23-60-37-107-45-235-45-87-2-163 2-169 10-6 6 0 43 12 82l21 72h190c239 0 324 39 388 173 37 80 39 109 29 320-6 130-17 287-25 352-14 107-19 117-74 128-31 8-78 21-101 27-47 16-50 10-72-89-17-80-76-134-146-134-89 0-117 66-72 185 19 49 43 87 52 87 31 0 19 33-16 45-19 4-50 16-68 23-25 10-39 0-56-41-54-140-76-276-76-474 0-334-54-264-72 93-8 148-2 202 35 315 23 76 39 140 35 142s-50 27-103 54c-99 50-148 101-122 126 6 8 47-8 85-33 115-74 179-103 194-87 8 6-6 25-29 43-49 35-56 66-14 66 16 0 29-8 29-17 0-10 17-25 39-31 21-6 50-23 64-35 41-39 218-132 315-169 62-25 264-62 274-52 6 4-33 52-84 105-109 111-181 237-181 322 0 66 84 188 128 188 14 0 27 8 27 17 0 10 39 35 87 58 179 84 499 39 579-84 16-23 39-91 52-153 14-60 31-111 37-111 17 0 60 99 60 138 0 19 10 41 19 47 23 16 25 379 2 441-10 25-27 93-41 151s-41 142-60 183c-21 43-37 89-37 103s-8 25-16 25c-10 0-27 21-39 49-14 27-31 60-43 74-10 14-41 50-66 84-60 74-307 243-402 276-124 43-383 21-571-45-76-25-369-175-375-188-4-10-17-16-31-16s-41-16-62-35c-19-19-66-54-101-80-66-47-64-70 6-84 60-10 47-62-16-70-105-12-245 84-350 239-99 146-54 146 95 0 62-58 118-107 126-107s39 21 64 49c27 27 117 97 198 155 134 97 198 132 334 186 23 10 62 25 87 35 49 19 159 47 340 82 91 17 134 17 171 0 27-12 70-21 95-21s52-10 58-19c6-12 25-19 41-19 50 0 206-117 332-251 80-84 148-179 198-282 142-289 161-388 153-722-6-254-10-276-64-386-31-64-60-122-64-130-14-31 188-16 214 16 49 58 85 95 159 157 54 47 72 72 60 97-8 19-16 223-17 453-4 282-14 437-31 476-14 31-31 76-39 97-41 107-171 365-247 489-45 78-84 148-84 157 0 8-45 58-99 111-107 105-214 256-289 406-54 109-231 319-268 320-23 2-130-62-159-95-6-6-49-29-97-50-212-101-515-251-524-260-6-6-45-27-87-50-43-23-148-84-233-136-177-111-402-221-445-221-16 0-35-10-41-19-6-12-91-19-186-19-181 0-208 8-396 115-43 25-99 64-124 85-120 113-235 346-235 484 0 39-6 76-14 80-10 6-54-8-103-29-274-122-394-151-705-169-10-2-12-10-4-19 6-10 0-25-12-31-31-21-651-16-689 6-21 10-70 23-109 31-68 12-74 8-155-91-47-58-120-157-165-219-45-64-103-136-128-163-97-105-247-365-247-427 0-19-8-43-19-49-10-6-19-27-19-47 0-19-14-49-31-62-29-23-31-19-17 56 8 54 6 82-8 82-12 0-21-14-21-29 0-16-8-45-17-64-60-118-78-190-99-402-8-85-25-256-39-379-23-214-16-653 14-756 8-33 6-43-10-33-45 27-47-47-6-134 58-126 54-146-21-105-54 29-68 6-23-35 21-19 60-82 87-136 25-56 52-103 58-103s31 37 56 82c47 84 85 132 105 132 25 0 10-56-45-167-124-258-157-400-171-732-6-151-2-227 12-227 12 0 21 21 21 49 0 27 12 49 27 49 17 0 29-49 39-179 6-99 21-188 31-198 12-12 19-31 19-47 0-35 111-196 173-251 52-47 99-58 99-25 0 10-8 19-19 19-10 0-19 17-19 39 0 49 16 49 56 4 33-35 103-74 167-89 87-21 293 6 375 49z"/>
  <path class="fil2" d="m9329 5638c87 52 183 134 249 221 41 50 117 214 117 251 0 16 10 29 19 29 12 0 19-21 19-49 0-78 31-56 58 39 16 52 21 151 16 252-6 113-2 163 12 159 12-4 23-31 27-58 4-29 16-52 25-52 23 0 23 103 0 192-12 39-29 124-43 192-12 66-31 126-39 132-10 6-17 27-17 47 0 39-117 278-140 287-8 4-16 17-16 27 0 35-155 231-305 383-146 148-163 177-113 177 16 0 29-6 29-16 0-8 41-39 89-70 97-60 101-58 167 66 14 27 56 101 95 165 62 105 165 313 214 431 10 25 27 66 37 93 47 118 64 157 80 188 10 19 17 49 17 64 0 16 8 45 17 64 29 56 60 169 60 216 0 23 10 62 21 84 29 54 27 620-4 777-21 113-47 171-117 284-35 56-12 72 49 33 39-27 50-27 50-8-2 60-157 188-305 252-76 33-82 56-16 56 27 0 49 6 49 14 0 19-177 103-216 103-16 0-37 8-47 17-41 35-282 70-486 70-186-2-225-6-287-45-41-23-85-43-101-43-39 0-50-56-31-165 10-54 33-179 50-278 25-142 31-254 23-534-12-400-29-515-118-771-16-49-43-167-58-262-35-214-49-278-72-336-10-23-25-62-35-87-8-23-35-80-56-126-43-84-43-84-6-233 19-82 49-196 60-254 45-190 258-530 404-637 39-31 82-64 93-74 12-12 72-54 132-97 155-111 179-181 35-103-45 23-85 37-93 31-10-10 25-87 50-113 33-31 173-338 190-418 12-54 31-138 43-188 10-50 19-161 19-247 0-169 12-185 101-134z"/>
  <path class="fil2" d="m6391 6955c17 10 87 37 157 60s150 58 179 78c27 21 56 37 64 37 6 0 50 25 97 58 47 31 93 58 105 58s21 6 21 14c0 10 19 25 45 37 161 82 295 155 301 167 4 10 17 16 29 16 14 0 103 39 198 85 140 68 198 111 297 216 113 122 181 157 122 66-45-74 0-66 66 10 62 72 84 109 128 219 12 31 29 70 39 87 10 19 17 52 17 72 0 21 8 43 17 49 10 6 21 39 27 74 16 99 70 402 91 522 10 58 19 249 19 421 0 173 8 315 16 315 10 0 27-62 41-136 14-76 33-136 43-136 25 0 10 825-17 971-12 58-25 146-33 194-16 99-80 245-183 418-84 140-136 188-268 254-130 64-138 111-17 103 62-6 82-2 76 16-6 14-21 25-35 25s-37 14-50 31c-29 35-282 163-322 163-14 0-25 8-25 19 0 10 17 19 39 19 95 0 12 68-169 136-68 25-396 17-598-16-357-58-961-348-1237-592-89-78-72-185 76-515 17-39 84-148 146-241s113-188 113-210c0-56 260-311 454-445 117-80 136-78 118 12-25 132-33 705-12 705 12 0 21-39 21-89 0-177 82-641 136-775 10-21 27-74 41-117s35-107 50-142c103-251 181-410 204-423 12-8 82-12 155-10 132 4 338-29 373-60 12-8-93-16-229-16-138 0-285-10-330-21-99-25-188-47-313-76-134-31-235-66-350-120-54-25-64-54-19-54 84 0-19-66-282-183-70-31-175-97-175-111 0-8 19-17 45-25 43-12 41-12-12-41-76-39-163-136-200-221-17-39-39-85-49-103-23-45-23-317 0-361 10-17 27-68 41-111 43-134 136-252 136-175 0 16 10 29 19 29 12 0 19-12 19-25 0-45 163-183 254-216 85-31 221-27 287 8z"/>
  <path class="fil3" d="m3672 7394c23 29 41 56 41 64 0 19-221 99-278 99-17 0-33 8-33 19 0 29 198 23 324-12 62-17 144-39 181-47 37-10 120-29 185-47 64-16 171-29 237-31 101 0 124 6 142 39 17 33 41 39 175 39 175 0 369 35 573 101 54 17 82 29 190 72 23 10 58 23 78 29 17 6 47 43 64 84s47 107 66 146c19 41 29 74 19 74-8 0-62-25-118-54-181-93-305-120-594-134-134-6-200-2-200 12s45 21 109 21c60 0 146 10 190 21 43 12 113 29 153 39 39 10 109 27 155 41 85 25 369 202 520 330 50 41 99 74 109 74 12 0 47 27 82 58 87 84 350 252 392 252 19 0 39 8 45 16 6 10 60 27 122 41s132 33 157 43 66 17 91 17 50 8 56 16c6 10-19 78-54 151-76 153-117 249-146 324-19 49-25 50-64 31-25-14-58-29-74-37s-54-62-87-122c-31-60-80-136-107-171s-74-93-103-132c-62-80-282-291-383-367-37-29-72-56-78-64-45-50-289-185-427-231-37-14-85-29-107-39-155-58-262-74-262-39 0 10 10 19 23 19 33 0 577 272 676 338 181 120 418 346 567 536 159 204 171 219 171 237 0 8-122 16-274 16-202 0-272 6-266 23 19 58 200 93 482 93 200 0 237 4 247 33 8 21-6 47-45 78-31 23-64 45-72 45-45 0-324 216-470 359-150 151-359 427-359 474 0 10-12 21-23 27-14 4-19 16-12 23 10 10 33-6 56-31l41-47-14 49c-8 27-31 72-50 101-21 27-37 56-37 64 0 6-25 49-54 93-91 136-105 210-97 524 4 157-2 284-12 280-8-2-39-45-66-91-25-49-66-118-87-155-19-37-45-72-50-78-8-6-52-66-99-136s-99-140-117-155c-17-16-72-78-118-136-47-58-89-111-95-117s-41-49-78-97c-37-49-72-91-78-97-12-12-270-532-319-645-17-39-41-113-52-165-10-50-29-132-41-181s-23-221-29-385c-4-161-16-295-23-295-25 0-49 227-47 486 0 249 16 381 47 400 10 6 17 29 17 54s12 70 27 101c16 31 43 91 60 134 56 130 74 163 105 198 45 49 87 140 76 153-8 6-50-31-97-82-45-50-118-128-161-171-43-45-117-128-165-186-49-58-103-124-122-144-17-21-52-68-78-103-49-74-72-82-72-23 0 33 97 200 136 231 6 6 33 41 58 78 27 37 84 103 126 148 43 43 113 118 157 165 80 85 91 95 227 200 41 29 122 117 179 194 58 76 140 177 185 225 45 49 120 144 171 214 50 70 101 138 115 151 52 54 27 66-115 56-78-6-190-21-249-33-58-10-144-25-190-31-45-8-87-21-93-29-6-10-31-17-56-17s-66-8-91-17c-25-10-84-27-132-41-84-23-107-31-214-72-72-27-319-150-330-163-23-27-167-115-188-115-14 0-19 14-14 29 12 29-21 43-35 14-2-8-56-56-118-109-99-82-239-243-396-451-23-31-97-126-161-212-66-85-169-221-229-301s-122-157-136-173c-41-43-16-70 85-85 52-10 126-25 163-35 84-25 311-134 346-167 14-14 33-25 41-25 14 0 58-33 128-93 64-56 163-181 206-256 25-49 50-91 56-97s21-33 37-64c29-52 68-68 89-33 16 25 113 25 103-2-4-12-41-39-84-62-95-52-204-165-204-212 0-35 165-169 210-171 12 0 23-6 23-16 0-8 29-25 64-39 33-16 82-35 107-45 56-23 54-56-4-56-27 0-54-10-60-19-6-12-25-19-41-19-89 0-416-305-416-388 0-25 25-50 165-165 66-54 105-74 169-85 8 0 31 21 52 49z"/>
  <path class="fil2" d="m2702 10002c10 21 31 49 45 64 14 14 47 56 72 93s52 72 58 78 25 29 41 50c50 76 219 249 348 357 68 58 142 120 161 138 31 29 373 204 489 252 148 60 456 150 670 192 58 12 144 29 190 41 45 10 181 17 301 17h219l58 91c117 188 132 198 256 186 101-10 216-52 328-122 35-23 49-21 91 6 64 43 64 72-2 72-29 0-78 8-111 17-33 10-126 39-206 62s-153 50-163 60c-12 8-35 16-54 16s-35 8-35 19c0 10-12 19-27 19-25 0-183 74-206 97-6 6-49 31-97 56-49 27-99 60-113 74-16 14-58 50-97 80-39 29-155 134-260 235-103 99-210 196-233 212-80 54-305 280-359 361-29 43-68 95-84 115-70 82-311 550-311 600 0 16-8 35-16 47-10 10-27 56-41 105-16 49-33 109-41 136-87 289-87 843 2 1014 10 19 17 49 17 64 0 16 10 29 19 29 12 0 19 10 19 21 0 37 122 200 212 284 97 91 254 179 390 218 49 14 115 33 148 43s82 17 111 17 52 10 52 21c0 39-688 2-748-39-10-8-58-27-107-41-107-33-447-204-497-249-21-17-93-72-161-118-264-183-631-550-798-798-47-70-93-132-105-140-35-23-37 19-4 85 17 33 27 66 21 70-12 12-8 17-82-93-82-120-161-254-175-297-6-17-17-33-27-33s-17-12-17-25c0-14-35-93-78-179-43-85-78-169-78-186 0-16-8-37-16-49-8-10-27-52-41-95s-31-95-41-117c-66-157-111-373-138-651-25-251-25-262-6-367 14-82 12-84-31-70-39 12-43 10-29-21 8-21 19-64 23-95 4-33 16-76 23-97 10-21 35-101 58-175 23-76 58-171 78-214 138-299 212-431 297-540 70-91 64-128-12-62-68 58-68 58-56 8 14-49 161-198 266-268 54-37 68-52 45-56-45-10-43-21 27-132 70-107 480-532 517-532 14 0 33 17 45 37z"/>
  <path class="fil2" d="m8603 10738c101 68 381 130 505 113 165-25 285-45 346-60 39-8 66-6 74 8 8 12 27 21 43 21s39 10 52 19c14 12 49 39 78 60 66 49 150 177 150 225-2 33-4 31-29-2-16-21-35-33-43-25-10 12 23 95 93 231 10 19 17 52 17 74 0 21 10 39 19 39 12 0 19 21 19 49 0 54-39 68-39 14-2-41-52-113-70-95-8 6-4 37 6 66 60 159 68 219 58 423-6 118-17 249-23 291-16 82-58 146-99 146-87 0-454 274-454 340 0 10-21 45-47 78l-47 56-138-23c-103-17-150-17-190-2-175 72-239 107-320 175-99 84-113 89-113 50 0-50-80-276-140-398l-60-122 23-159c23-148 41-218 80-315 33-80 35-124 8-113-16 6-27 27-27 47 0 19-6 37-16 37-8 0-25 25-39 58-16 31-33 58-39 58-8 0-16-85-17-190-4-200-17-270-101-476-19-50-16-62 49-140 37-47 80-89 91-95 17-10 17-14 0-23-35-16-31-33 23-97 27-31 85-128 132-216 45-89 93-161 107-161 16 0 50 16 78 35z"/>
  <path class="fil3" d="m5734 11228c54 52 107 97 115 97s19 14 27 29c10 27-10 39-169 105-29 12-72 21-95 21-39 0-41-6-29-157 12-144 23-192 45-192 4 0 52 43 107 97z"/>
  <path class="fil2" d="m8036 11484c8 12 21 58 31 101 10 45 27 118 39 167 29 122 43 486 17 486-10 0-39-29-62-64-25-33-52-66-60-68-8-4-16-23-16-43 0-82-91-200-218-287-52-35-93-70-91-78 0-17 241-204 285-221 49-19 58-17 74 8z"/>
  <path class="fil2" d="m6270 11579c29 12 74 29 99 39 23 10 62 25 87 35 23 10 109 35 188 60 80 23 175 50 210 62 37 10 218 16 427 12 359-6 363-6 431 43 76 52 136 115 136 140 0 8-17 6-39-8-70-45-62 2 14 76 80 76 278 357 278 394 0 10 6 19 16 19 12 0 31 37 82 165 8 21 25 64 39 97 39 93 52 130 78 223 14 49 31 109 39 136 27 87 85 350 115 515 39 225 43 254 60 447 37 392 43 439 64 431 39-12 54-120 43-295-25-346-47-565-68-660-47-225-52-299-27-357s148-196 177-196c8 0 37-17 64-39 27-21 68-39 91-39s49-10 54-19c12-19 107-27 107-10 0 6-23 33-52 58-66 58-41 62 68 10 144-70 486-41 460 39-6 19 8 49 31 70 89 80 270 385 270 454 0 21 8 41 17 47 23 16 47 173 49 328 0 111-6 134-41 159-25 17-47 60-54 111-8 47-19 109-29 142-10 31-25 93-37 136-54 216-111 386-159 480-10 19-17 49-17 64 0 16-8 29-19 29-10 0-19-27-19-58 0-33-8-58-19-58-10 0-19 21-19 49 0 45-21 97-64 153-216 297-297 386-367 412-19 6-35 19-35 29s-16 17-35 17-43 6-50 14c-62 62-484 87-662 41-85-23-140-10-87 23 50 31 4 43-72 17-134-43-239-95-303-150-200-171-482-447-563-552-31-37-52-52-52-35 0 16 21 54 49 85 62 72 60 78-6 43-76-39-375-367-540-594-50-70-97-130-105-136-6-6-33-41-58-78s-52-72-58-78c-25-19-214-309-214-328 0-10-6-21-14-25-10-4-37-47-62-99-41-80-82-120-80-78 6 80 130 381 173 414 33 27 99 138 99 169 0 39-214 268-359 385-54 43-101 82-107 87-6 6-41 33-78 58s-72 52-78 58c-21 27-192 136-212 136-12 0-21 8-21 19 0 10-8 19-17 19-33 0-216 87-216 101 0 25 87 17 113-8 12-12 29-17 35-10 19 19-33 62-167 132-70 37-130 72-136 78-17 23-319 120-418 136-52 8-130 19-171 27-82 17-241-12-386-68-109-43-319-181-381-251-47-56-120-200-120-241 0-14-12-37-23-50-39-37-31-660 10-798 17-58 37-128 43-155 8-27 21-68 31-93 10-23 25-62 35-87 17-49 165-340 219-437 19-33 54-95 76-136 45-78 115-183 134-198 6-6 33-41 58-78 68-97 93-120 118-105 12 6 68-37 132-101 433-453 777-713 1138-862 33-14 74-31 91-41 19-10 49-17 64-17 16 0 45-8 64-17 64-33 173-60 239-62 37 0 84-8 105-17 21-10 41-17 43-17 2-2 29 8 58 19z"/>
  <path class="fil2" d="m9918 12450c-10 35-6 37 52 19 132-37 251-17 420 66 84 43 122 101 181 276 14 43 33 85 41 95 8 12 16 35 16 54s10 35 19 35c12 0 19-12 19-27 0-16-8-35-19-41-23-16-25-107-2-107 66 0 126 602 76 769-29 105-54 111-54 12 0-41-17-93-39-120-21-27-39-54-39-62s-23-64-50-126c-35-78-95-155-190-247-186-181-256-223-420-256-136-29-146-27-245 12-70 29-122 39-159 31-29-8-78-19-107-25-45-8-50-17-41-52 23-76 150-185 307-264 179-87 254-101 235-41z"/>
  <path class="fil2" d="m10096 12887c8 10 4 21-8 25-47 17-25 49 23 37 27-8 49-4 49 6 0 12 31 35 70 52 151 72 285 317 311 565 14 118 47 173 47 74 0-27 10-49 21-49 23 0 17 95-17 320-17 109-159 416-223 482-23 23-64 74-89 111-111 161-655 579-697 536-6-6 19-70 54-142 84-173 101-219 157-414 14-49 45-128 72-179 153-305 136-709-50-1064-37-68-95-159-132-202-78-91-87-159-21-173 70-16 418-4 435 14z"/>
  <path class="fil2" d="m6443 14273c12 8 58 70 105 140s93 132 105 142c27 17-35 72-289 245-280 190-513 320-757 418-165 66-260 107-305 130-19 10-49 17-64 17-16 0-45 8-64 17-17 10-72 27-120 41-49 14-103 31-120 41-45 23-93 21-93-2 0-12 10-19 23-19 29 0 338-150 383-185 17-16 87-68 157-120 70-50 138-109 151-128 16-17 117-95 227-169 186-126 612-517 612-563 0-23 21-25 50-4z"/>
  <path class="fil0" d="m5895 3986c-173 84-227 151-297 371-35 109-72 216-82 233-10 19-17 50-17 70 0 19-10 45-23 58-12 12-17 29-10 35 21 21 66-29 111-124 23-50 49-95 56-101 6-6 54-60 107-122 91-109 293-266 346-266 29-2 93-47 93-66s-190-14-204 8c-6 10-19 19-31 19-39 0-14-31 60-78 43-27 78-54 78-62 0-29-107-14-186 25z"/>
  <path class="fil0" d="m6196 4871c-17 4-43 27-56 52-23 45-21 82 12 268 10 60 6 74-19 74-35 0-206 150-206 179s41 16 122-39c45-31 120-66 169-82 49-14 95-33 107-43 10-8 43-16 72-16 60 0 68-29 25-85-16-21-29-58-29-82 0-54-49-171-87-210-31-31-50-35-109-17z"/>
  <path class="fil0" d="m8205 6843c-10 14-37 64-64 113-25 49-50 91-58 97-6 6-41 49-78 97-37 49-78 99-93 113-14 16-49 58-78 97-29 41-60 78-72 85-10 8-12 19-6 27 19 17 124-60 262-196 128-126 239-311 239-400 0-58-21-74-52-33z"/>
 </g>
</svg>
