<?xml version="1.0" encoding="UTF-8" standalone="no"?>
<!DOCTYPE svg  PUBLIC '-//W3C//DTD SVG 1.1//EN'  'http://www.w3.org/Graphics/SVG/1.1/DTD/svg11.dtd'>
<!-- Creator: CorelDRAW X5 -->
<svg style="shape-rendering:geometricPrecision;text-rendering:geometricPrecision;image-rendering:optimizeQuality" xmlns="http://www.w3.org/2000/svg" fill-rule="evenodd" xml:space="preserve" height="500px" width="500px" clip-rule="evenodd" xmlns:xlink="http://www.w3.org/1999/xlink" viewBox="0 0 12764 16208">
 <defs>
  <style type="text/css">
   <![CDATA[
    .fil1 {fill:black}
    .fil7 {fill:#0A0A0A}
    .fil11 {fill:#0C0C0C}
    .fil12 {fill:#0D0D0D}
    .fil13 {fill:#0F0F0F}
    .fil3 {fill:#196BFD}
    .fil10 {fill:#222222}
    .fil5 {fill:rgb(39, 39, 39)}
    .fil9 {fill:#345255}
    .fil4 {fill:#35BA00}
    .fil14 {fill:#8F8F8F}
    .fil8 {fill:#BD1104}
    .fil2 {fill:#FDB70A}
    .fil0 {fill:#FFCC99}
    .fil6 {fill:white}
   ]]>
  </style>
 </defs>
 <g id="Layer_x0020_1">
  <path class="fil0" d="m6784 2854c-17 60-47 161-9 221 52 82 145 20 174-13 108-125 65-298-165-207zm-2230 645c0 243 83 359 186 515-10-430 97-811-13-988-90 118-173 267-173 473zm1531-251c-157 48-280 33-405-21-101-38-165-91-165-91-3 80 16 51-14 83-324-707-1043-766-626 117-95 45-78-114-97 295-90 780 199 1596 1107 1696 652 72 1409-237 1616-760 60-51 100-240 87-426-7-102-37-207-50-291-16-106 48-194 57-228 118-254-100-376-324-398-319-113-449-71-495-80l-64-77-46 59c-78 99-110 74-238 71l-252 17c-31 14-61 25-91 33zm-114 291c185-257 414-209 540-246 93-27 156-99 283-84 342 40 39 476-362 500-192 11-334-163-44-355-231 27-272 128-417 184z"/>
  <path class="fil1" d="m6168 3217l263-19c56-350-11-45 101-605 21-83 87-350 206-330 40 7 41 32 65 81l24 48c57-300-154-671-361 26 11-147 69-214 94-337-117-100-350-249-524-294 18 149 33 220 44 386-8-186-80-466-193-575-154-157-275 41-342 206 18-60 48-145 71-197-140-48-375-339-482-566-48-140-68-304-116-431-2 6-5 12-7 18-96 257-140 590-130 884 8 224 88 615 88 615-36 159-110 397-99 562 264 19 386 164 517 273-9-349 170-564 291-917 26-75 22-57 41-100 316 154 231 1013 400 1213 59 70 28 32 50 60z"/>
  <path class="fil2" d="m1555 4833l-367 670-208 335 198-48 125-49 184-57 322-69 433-28 362 60 425 120 284 139 29-90 21-371-4-317-39-29-37-23-21-76c-227-174-489-292-806-321l-294 31c-203 42-396 63-608 125zm7567 215c31-620 287-1020 752-1334 85-57 135-80 221-125 110-56 200-63 262-117-328-47-658-68-991-115-460-65-1156 941-878 1183l635 508zm-5778 1365s118-75 146-154l43-47 360-395 431-399 378-288 343-204 29-18s140 249 367 313c0 0 277 160 648 142 371-17 812-158 937-280 0 0 383-145 546-596l24-8 371 12 317 62 229 49 540 425 582 550-29 16-112-29s-453-138-649-150c0 0-851-101-1162-61 0 0-478 33-660 75 0 0-403 70-712 212 0 0-670 251-783 332-114 80-1007 465-1151 568l-184 118-32-120s-759 88-816-125z"/>
  <path class="fil3" d="m3931 8735c-149 41-293 143-445 209-78 34-150 66-229 95-80 29-186 48-261 80-133 105-215 829-215 1086 0 515 176 1039 420 1461l224 334c57 178-207-220-233-262l-225-395c-133 666-507 1469-850 1875-343 407-261 458 303 646 325 109 1362 428 1731 165l1018-786c1344 397 1626 255 2756 102 33 91 382 519 580 586 647 230 1970 361 2415-245-93-379-523-743-600-2071-23-155 447-481 675-1541 75-349 121-764 136-1195s-207-488-402-655c-534-455-1483-709-2216-709-1197 0-1990 208-3053 609-57 22-91 28-121 72-51 77-55 179-133 278-34 43-58 65-101 94-95 65-69 23-106 87-67 114-55 172-150 261-326 307-1095 326-917-185z"/>
  <path class="fil4" d="m5528 7762c110-164 532-440 835-499-24 17 9-1-46 32-15 9-41 22-58 30-395 201-399 239-731 437zm-2359 613c-16 25 0-12-24 53-55 153-58 177-247 337-250 212-111 320 63 303 300-30 702-269 941-381-56-52-154-112-216-167-73-65-116-136-192-194-156 104-110 99-324 49zm1048-1725c9 206 258 94 574 151 269 49 617 296 655 527l39 3c120-145 426-462 714-500-128 89-455 243-627 433-57 63-16 38-87 67-33 77-11 250-65 386-73 186-54 173-71 397 543-153 728-297 1514-471 573-126 1203-200 1823-164 918 53 1523 282 2171 791 59 47 443 433 376 560-55-40-48-96-101-158l-3 516c385-317 119-938-194-1235-63-59-89-93-153-149-113-99-119-89-129-171 99 40 316 307 367 346 102 79-91-35 22 15 40 17-8 18 37 4 212-707-1144-2105-1411-2381-1932-589-3343-76-4592 536-400 196-859 477-859 497z"/>
  <path class="fil4" d="m3403 6306c-212-19-435 29-622 95-178 62-328 168-476 218 100-128 294-211 482-281 236-87 386-76 616-32zm-1503-701c-219 26-402 72-603 133-349 106-241 66-424 311-362 486-1047 1394-329 1978 515 419 1895 134 2636 304 141 32 168 44 267-32 357-276 681-596 767-1072 55-304-20-417-69-670-343 17-629 65-866-138 49-52 28-17 64-42 72-50 46-22 59-71 15-11 26 48 39-63 25-203-445-230-598-220-148 9-280 31-421 61-119 25-269 81-372 92 15-74 47-57 247-108 103-26 201-47 307-63 303-47 415-23 695 18 18-55 57-88 32-139-88-174-1103-396-1431-278z"/>
  <path class="fil5" d="m2455 15763c-560 0-1146-318-1146-778 0-517 901-1103 1059-1107l22 47c61 165 104 263 357 336 365 105 449-102 557-139 45 663 174 1641-850 1641zm537-1106l-39-41c-23-19-42-31-63-44-125-78-304-122-456-129-272-11-421 46-619 145 235-41 331-102 618-94 275 8 366 104 559 162zm7198-122c74-34 77-42 130-98 41-43 63-60 119-97 92-60 197-92 317-123-276-41-492 161-567 319zm-4662-6773c331-197 336-236 731-437 17-9 42-21 58-30 55-33 23-15 46-32-303 59-725 335-835 499zm-43-457v27c71-29 31-4 87-67 172-190 499-344 627-433-288 38-594 328-713 473zm4122-1722c-218-218-445-433-696-643-158-133-324-300-539-347-269-59-517-94-799-104-201 848-1783 1214-2414 569-133-136-62-106-149-110 17-27 34-21-25-126-161-285-45-180-291-337-578-369-682-1088-244-1543l81-76c35-40 1 12 34-47-803 28-2112 539-2558 1163-87 122-381 664-450 848 227-107 661-174 927-149 150 14 325 37 447 94 148 70 200 124 305 212 71 47 49 86 83 53-19-177-85-386-140-536 55-6 38-56 107 176 116 393 72 457 125 778 248-267 205-295 273-579 30-123-20-51 54-84-8 227-94 466-204 603-109 136-124 52-136 280-6 107-14 247-49 346 36 56 54 53 93 100 46 54 32 68 74 122-32 76-81 130-143 183 269 142 486 107 797 73l41 127c494-353 2087-1064 2653-1188 744-163 2061-134 2743 140zm45 45l-2-1-39-26c-180-29-489-122-734-161-667-118-1334-106-1990 36-358 75-488 162-1082 382l-1587 793 31 96c381 3 1108 41 1191 542 22 70-18 26 46 43-33 77-11 250-65 386-73 186-54 173-71 397 543-153 728-297 1514-471 573-126 1203-200 1823-164 918 53 1523 282 2171 791 59 47 443 433 376 560-55-40-48-96-101-158l-3 516c385-317 119-938-194-1235-63-59-89-93-153-149-113-99-119-89-129-171 99 40 316 307 367 346 102 79-91-35 22 15 40 17-8 18 37 3 164-707-1e3 -1933-1266-2208-53-54-106-109-159-163zm-4036-2756c50 245 332 173 292-123-38-280-356-194-292 123zm356 667c145-56 186-157 417-184-290 192-148 366 44 355 401-23 704-459 362-500-127-15-190 57-283 84-126 36-355-12-540 246zm-2651 2328l12 5c34-236 42-636-12-763-24-16-29-13-55-40-43-46-43-45-49-63-155-76-223-233-678-287-266-31-712 39-984 115-3 9-6 17-8 24-19 102-169 367-227 470-75 135-220 352-266 471 255-52 449-232 1054-259 261-12 1032 145 1211 327h1zm11 17l-18-5c-173-45-656-362-1413-272-219 26-402 72-603 133-349 106-241 66-424 311-362 486-1047 1394-329 1978 515 419 1895 134 2636 304 141 32 168 44 267-32 357-276 681-596 767-1072 55-303-20-417-69-670-343 17-629 65-866-138 49-52 28-17 64-42 72-50 46-22 59-71 15-11 26 48 39-63 25-203-445-230-598-220-148 9-280 31-421 61-119 25-269 81-372 92 15-74 47-57 247-108 103-26 201-47 307-63 303-47 415-23 695 18 12-29 23-78 32-139zm5682 8713c244 127 462 259 751 365-153 167-238 105-440-10-193-109-232-206-311-355zm148-355l24 23c75 80 101 143 213 202 291 151 847 39 970-324 512 0 954-193 1245 207 127 175 124 448-24 577-437 380-1446 142-1897-41-198-80-343-154-522-256-77-43-193-81-196-185-3-111 92-169 186-203zm57-96c101 79 132 262 461 252 108-4 203-24 292-71 108-57 113-88 168-198 68-5 121 4 173 36-288 498-1097 362-1094-18zm79 4c334 29 704 0 726 3 85 9 20-2 48 12-128 206-482 235-637 137-86-54-93-114-137-152zm-6546 65c-163-48-274-125-309-289l759 185c-83 149-278 155-450 103zm1180-5479c-178 512 591 492 917 185 95-90 83-147 150-261 37-64 11-22 106-87 43-30 68-52 101-94 78-99 82-202 133-278 29-44 64-51 121-72 1063-400 1856-609 3053-609 733 0 1682 253 2216 709 195 167 357 229 357 594 0 1114-256 1960-849 2828-162 238-490 561-517 637 85-28 266-240 333-323 69-86 219-255 267-345 76 1328 507 1692 600 2071-471 577-1780 461-2415 245-198-67-547-495-580-586 377-56 937 182 988 179-35-142-602-199-772-228 133-71 484-173 699-276 231-110 178-56 183-126-101 19-384 166-523 218-1133 421-2286 516-3427 54-87-35-170-74-254-113-108-51-406-241-471-243 43 108 652 394 821 434l-1015 756c-368 263-1356-27-1681-135-564-189-698-239-355-646s717-1209 850-1875l225 395c25 42 289 440 233 262l-224-334c-245-423-420-946-420-1461 0-257 82-981 215-1086 76-32 182-51 261-80s151-61 229-95c152-66 296-167 445-209zm-762-359c214 51 168 55 324-49 76 58 119 129 192 194 62 54 160 114 216 167-238 112-640 351-941 381-173 18-313-91-63-303 189-160 192-184 247-337 23-65 8-27 24-53zm755-461c347-8 581-115 581-478 0-213-70-233-229-303l3-154c308 64 477 396 320 741-136 298-371 389-789 345l115-151zm154 219c679-46 887-1032 194-1210l-12-126c667-57 1339 197 1107 939-38-88 6-76-57-118-24 59 80 850-297 945 0-82 16-95-28-147-44 75-5 237-123 410-122 179-523 326-753 244-182-65-244-347-63-323 68 9 91 76 109 102 45 63 77 88 182 110-43-102-89-33-157-165 101 18 284 72 341 10-95-43-644-6-977-506 36-38 168-159 204-175 76-36 226 18 330 11zm6570-1410c-50-107-6-117 1-260 8-161-62-491 294-676 74 191 168 337 57 571-63 133-231 322-352 366zm-70-116l-551-666-342-358c235-114 569 203 670 290 170 147 320 392 223 733zm-1004-1139c261-194 438-198 718-6 127 87 426 390 318 658-61-77-70-140-198-259-641-599-725-173-838-393zm1100 498c-193-523-157-366-518-647 308-3 666 223 742 441-58 34-71 43-118 96l-106 110zm-1542-879c8-632 449-1197 1016-1485 213-109 215-134 475-92 482 77 1005 201 1391 468 532 368 749 1022 274 1678-313 433-945 900-1469 1022 41-73 44-54 104-116 220-230 198-526 58-795-50-95-116-145-190-220-321-326-857-376-1233-128 56-177 143-299 265-412 700-649 973-398 1533-460-115 3-289-88-700-45-219 23-281 31-435 136-60 33-78 43-162 107l-252 189c-50-320 218-557 429-724l170-130c31-44 24-3 5-41-60-9-393 303-443 358-193 212-228 256-196 608-90 44-228 277-260 402-109-49-103-88-188-166-63-58-124-107-192-153zm-645-546c-278-242 418-1247 878-1183 333 47 664 68 991 115-62 53-152 60-262 117-86 44-136 67-221 125-464 314-721 714-752 1334l-635-508zm-3037-942c-4-4-17-18-22-23-152-170-213-282-97-393l226 204-71 245c-26-21-6-3-37-33zm-896-98c0-206 83-355 173-473 109 177 3 558 13 988-103-156-186-272-186-515zm2230-645c229-91 272 83 165 207-29 33-122 95-174 13-38-60-8-161 9-221zm-1180 286c-136-77-221-159-191-377 11-81 296-733 330-771 206 199 225 901 298 1090 213 326-387 103-438 58zm-766 1371c-144-56-324-218-397-315-540-710 73-1351 275-1378 10 123 9 132-48 212-138 193-198 422-137 664 106 423 144 66 307 817zm1954-1747c29-17-26-3 55-21 136-30 463 50 596 94 195 65 349 146 545 213 436 148 1085 244 1216 291-236 98-434 233-559 401s-257 412-240 692c-309-192-511-682-651-938-22 29-54-71-9 95 7 24 23 53 34 77 85 177 139 274 257 436 71 98 339 410 422 468-402-56-178-124-873-96 32-191 45-333 3-531-62-290 57-194 71-429 10-172-99-264-247-301l-438-102c34-66 101-144 60-253-41-126-163-65-241-97zm-258-22c27-148 70-395 197-447 86 141 31 388-5 544-75 326-107 335-248 319l63-25c40-20 37-17 53-37 22-28 29-78 31-118 5-97-6-133-58-197-8-11-25-27-34-38zm-1170-698l27-98c11-128 59-261 31-374 87 5 122 7 181 50-40 88-92 182-89 300l7 1c60-151 164-491 357-313 113 109 176 370 201 563 16-167-19-228-37-377 174 45 387 197 503 297-25 123-78 175-81 325 225-651 384-334 361-50l-18-35c-22-38-34-71-75-78-119-21-186 236-207 319-120 560-36 111-97 624 247 24 144 38 285-128l61 82c926 37 273 481 24 541-269 65-271 327-732 287-265-23-402-184-544-277 16-137 73-193 69-340-65-59-214-229-286-255l-93 139-125-308c86 33 144 134 170 131 30-41 23 9 5-44-12-33-100-109-133-126-79-42-206-43-261 38 20 7 10 5 38 3l123-24c127 518 723 1378 1442 1033 138-66 203-173 311-206 235-73 564-221 492-503 221 21 405 118 315 377-206 597-1184 766-1259 812 9 35-35 25 76 19l246-60 47-24c-19 26 3 20-54 43-40 21-81 44-126 66-85 42-75 11-80 79 179-34 353-210 414-241 305-157 334-132 599-396l71-57c41 267 81 443-25 709-207 523-964 832-1616 760-907-101-1151-959-1099-1698 28-394 21-222 106-283-413-871 280-784 608-109 30-32 26-18 17-95 173 144 445 199 658 74-27-35 2-1-56-71-168-200-81-1073-399-1223-37 36-31 41-57 116-121 353-308 526-300 874-131-109-217-221-481-240-11-165 57-411 93-570 36 59 94 159 145 210 21-41 28 14 18-44l-82-117c-81-106-171-414-178-639-10-300 37-643 137-902 48 128 68 292 116 431 173 508 353 399 195 964-5 19-73 132-75 153-3 41 8 14 20 41 91-163 74-124 91-155zm1414-149c82-196 258-330 432-430-64 214-158 304-236 460l-196-30zm-33-30c-171-33-536-304-647-409-37-34-59-69-92-102-74-76-150-111-220-197 436-30 920 318 1022 590-29 57-41 60-64 118zm101-183c-68-59-161-214-331-339-596-436-963-59-875-366 56-198 129-327 243-432 253-232 806 7 974 175 313 314 183 752-10 962zm-1655-620c201-60 463 64 607 177 301 236 451 483 907 672 378 157 356-19 647 7 61 149-10 198-134 265-96 52-228 116-343 122-1-476-277-266-314-254-122-128-521-295-567-359-57-79-97-223-263-178-120 32-29 69-158 39-71-17-110-26-179-37l-201-455zm-142-584l-44-8c-119 475-225 724-151 1276 18 136 82 289 54 420-199 938 142 377-1206 763-438 125-1021 399-1336 632-579 428-729 1081-1132 1832-118 220-257 415-386 609-339 510-1081 1342-395 2008 738 717 3471-182 2375 749-154 131-173 330 100 361-122 524-253 733-169 1408 32 258 89 415 158 643 108 353-491 1512-653 1762-226 349-729 715 3 904l-39 31c-303 219-625 369-855 769-293 509 76 866 438 1036 404 191 1050 181 1318-102 300-318 261-935 225-1441 186 16 522 32 697-17 65-18 355-239 425-288l625-456c100-74 97-106 237-58 585 200 1283 248 1909 170 221-28 418-84 620-114 132 158 325 423 483 545 127 99 615 196 820 217-34 139-157 56-226 230-41 104 8 249 54 334 93 173 265 297 481 385 214 87 162 26 299-61 82-52 194 20 317 51 244 62 491 103 753 102 1323-3 1022-1049 304-1123-251-26-548 59-832 47 308-165 266-39 656-386-13-96-126-284-175-384-173-352-371-938-419-1330-89-728 268-633 565-1734 40-148 75-298 105-457 18-96 52-464 70-512 20-53 80-100 120-164 43-67 71-130 93-210 65-236 1-482-117-684-34-59-94-116-100-170-13-121 60-170-34-518-94-345-327-626-390-781 389-80 722-289 1004-468 953-608 1426-1939-46-2565-990-421-2337-275-3676-737-410-141-652-314-1173-301l68-335c245-50 718-229 497-480-151-29-192 22-329 36 93-200 207-342 278-606l-334 253c36-194 375-756-421-1069-849-334-899 365-994 553-153-23-223-34-400-46l-121-522z"/>
  <path class="fil4" d="m9133 5086c69 46 129 95 192 153 84 78 79 117 188 166 33-125 170-359 260-402-32-352 3-396 196-608 50-55 383-367 443-358 19 38 25-4-5 41l-170 130c-212 167-479 404-429 724l252-189c74-52 50-35 66-47 154-105 312-172 531-195 410-43 585 48 700 45-560 62-833-190-1533 460-122 113-209 235-265 412 377-248 912-198 1233 128 74 75 140 125 190 220 140 268 163 565-58 795-59 62-63 43-104 116 524-122 1156-589 1469-1022 474-657 257-1310-274-1678-386-267-908-391-1391-468-261-42-262-16-475 92-567 288-1008 853-1016 1485zm1516 1637c121-44 290-233 352-366 111-234 17-379-57-571-356 185-286 515-294 676-7 143-51 153-1 260z"/>
  <path class="fil2" d="m2992 14657c-193-58-285-154-559-162-287-8-383 53-618 94 198-99 347-156 619-145 152 6 331 50 456 129 21 13 40 25 63 44l39 41zm-537 1106c1024 0 894-978 850-1641-108 38-192 245-557 139-253-73-296-170-357-336l-22-47c-158 4-1059 590-1059 1107 0 460 586 778 1146 778z"/>
  <path class="fil6" d="m4728 8278c-45-27-235-130-279-167 134-1 251 50 279 167zm2-576c70-8 111-14 181 5 113 30 95 62 107 86l-288-90zm20-374c167-26 211 32 292 106l-292-106zm-477-405c693 178 484 1164-194 1210-104 7-254-48-330-11-35 17-167 138-204 175 332 501 881 463 977 506-56 62-240 8-341-10 68 133 114 63 157 165-104-22-136-48-182-110-19-26-41-93-109-102-181-24-119 258 63 323 230 83 631-64 753-244 118-174 80-335 123-410 44 52 28 66 28 147 377-95 273-886 297-945 63 41 19 30 57 118 232-742-439-996-1107-939l12 126z"/>
  <path class="fil2" d="m10190 14536c75-158 291-360 567-319-121 31-226 63-317 123-56 37-78 54-119 97-53 57-56 64-130 98zm-972-390c-3 380 806 517 1094 18-52-32-105-41-173-36-55 110-60 141-168 198-90 47-184 68-292 71-329 11-360-173-461-252zm-205 451c79 149 118 246 311 355 202 115 287 177 440 10-289-106-507-238-751-365zm148-355c-94 34-189 92-186 203 3 104 119 142 196 185 179 102 324 176 522 256 451 182 1460 421 1897 41 148-129 152-402 24-577-291-400-733-207-1245-207-123 363-679 476-970 324-113-59-139-122-213-202l-24-23z"/>
  <path class="fil4" d="m6787 2762c67 53 192-20 235 93 41 109-39 204-73 270l432 94c148 37 277 120 266 292-14 235-132 139-71 429 42 198 42 345 9 537 696-28 472 40 873 96-76-61-346-382-424-478-105-163-158-258-259-434-12-24-26-52-32-77-25-156-1-47 5-84 139 255 348 743 658 934-14-273 90-473 240-692 125-167 323-303 559-401-130-47-791-149-1228-297-196-67-350-148-545-213-133-44-460-124-596-94-82 18-20 7-49 25zm-5231 2068c-22-28 674-184 909-151 150 14 332 33 454 90 148 70 200 124 305 212 71 47 67 109 95 60-19-177-85-386-140-536 55-6 31-48 95 170 116 393 84 463 136 784 248-267 205-295 273-579 49-115-17-39 41-79-8 227-94 454-204 592-109 136-124 52-136 280-6 107-14 247-49 346 36 56 54 53 93 100 46 54 44 74 86 128 56-125 213-278 311-392 243-246 852-783 1183-908 17-27 54-31-22-142-161-285-11-152-306-328-556-363-655-1078-232-1536 55-41 100-84 115-124-803 28-2124 533-2570 1156-195 270-320 553-439 854z"/>
  <path class="fil4" d="m4838 4512c-163-752-201-394-307-817-61-242-1-472 137-664 57-80 59-89 48-212-202 27-815 668-275 1378 74 97 254 259 397 315z"/>
  <path class="fil6" d="m5616 2872c-64-317 253-403 292-123 41 296-242 368-292 123zm452 331c15-38 13 0-3-49-2-7-27-52-34-71-73-189-82-890-288-1089-34 38-319 690-330 771-30 218 55 300 191 377 127 72 307 130 464 62z"/>
  <path class="fil6" d="m9687 5583l342 358 551 666c97-341-53-587-223-733-101-87-434-404-670-290z"/>
  <path class="fil6" d="m9575 5467c112 220 196-206 838 393 128 119 137 182 198 259 108-268-190-570-318-658-280-192-457-188-718 6z"/>
  <path class="fil6" d="m4276 7134c159 70 229 90 229 303 0 363-234 470-581 478l-115 151c418 45 654-47 789-345 157-345-12-677-320-741l-3 154z"/>
  <path class="fil1" d="m10675 5966l106-110c46-53 59-61 118-96-75-218-434-444-742-441 351 292 311 139 518 647z"/>
  <path class="fil5" d="m7877 12097c484-311 937-1145 1092-1784 32-130 58-264 74-399 8-67 24-431 25-433-56 781-326 1486-749 2088-185 264-202 251-382 439l-61 88z"/>
  <path class="fil0" d="m3201 14110l-759-185c36 164 146 240 309 289 172 51 367 45 450-103z"/>
  <path class="fil6" d="m6535 2743c9 11 26 28 34 38 51 64 62 100 58 197-2 40-10 91-31 118-41 52-13 17-53 37l-63 25c141 16 173 7 248-319 36-156 90-403 5-544-127 51-170 299-197 447z"/>
  <path class="fil0" d="m9297 14149c44 37 51 97 137 152 155 98 509 68 637-137-27-14 37-3-48-12-22-2-392 26-726-3z"/>
  <path class="fil7" d="m3516 6248c51-26 308-320 349-365 56-61 112-116 176-170l363-328c67-51 117-94 195-152 128-95 281-187 411-284-334 116-944 631-1178 902-98 114-260 273-316 398z"/>
  <path class="fil8" d="m5393 1517c69 11 107 20 179 37 129 30 38-7 158-39 166-45 206 99 263 178 46 63 445 231 567 359 37-12 312-222 314 254 115-6 247-70 343-122 124-67 195-116 134-265-291-26-269 150-647-7-455-189-606-437-907-672-144-113-405-237-607-177l201 455zm1454 165c193-210 324-647 10-962-168-169-721-408-974-175-114 104-186 234-243 432-88 307 279-70 875 366 170 124 263 280 331 339zm-68 213l196 30c78-156 172-246 236-460-174 99-350 234-432 430z"/>
  <path class="fil9" d="m6746 1866c23-58 34-61 64-118-102-272-586-620-1022-590 69 86 146 121 220 197 32 33 55 68 92 102 112 105 476 376 647 409z"/>
  <path class="fil6" d="m5487 3631l71-245-226-204c-116 111-56 223 97 393 4 5 17 18 22 23 30 30 11 12 37 33z"/>
  <path class="fil10" d="m3403 6306c-230-43-380-55-616 32-189 70-382 153-482 281 148-50 298-156 476-218 187-65 410-114 622-95z"/>
  <path class="fil11" d="m4728 8278c-28-117-146-167-279-167 44 37 235 140 279 167z"/>
  <path class="fil12" d="m5018 7792c-12-23 6-55-107-86-70-19-111-13-181-5l288 90z"/>
  <path class="fil13" d="m5042 7435c-81-75-125-132-292-106l292 106z"/>
  <path class="fil1" d="m7753 12203c3-2 59-32 60-33 97-74 19 2 61-78-19 13-52 34-66 47-5 4-20 17-24 22-22 24-12 14-31 42z"/>
  <path class="fil14" d="m5006 471l44 8c-4-81 6-28-26-47-41 9-1-5-18 39z"/>
  <path class="fil0" d="m5036 2112c97 164 108 158 108 158s164-201 192-301c28-101 96-309-26-559s-137-283-137-283-126-377-153-519c-27 16-177 483-160 922 35 323 158 565 176 582z"/>
 </g>
</svg>
