<?xml version="1.0" encoding="UTF-8" standalone="no"?>
<!DOCTYPE svg  PUBLIC '-//W3C//DTD SVG 1.1//EN'  'http://www.w3.org/Graphics/SVG/1.1/DTD/svg11.dtd'>
<!-- Creator: CorelDRAW X5 -->
<svg style="shape-rendering:geometricPrecision;text-rendering:geometricPrecision;image-rendering:optimizeQuality" xmlns="http://www.w3.org/2000/svg" fill-rule="evenodd" xml:space="preserve" height="500px" width="500px" version="1.0" clip-rule="evenodd" xmlns:xlink="http://www.w3.org/1999/xlink" viewBox="0 0 12764 16208">
 <defs>
  <style type="text/css">
   <![CDATA[
    .fil28 {fill:none}
    .fil8 {fill:black}
    .fil15 {fill:#040404}
    .fil14 {fill:#080808}
    .fil17 {fill:#0C0C0C}
    .fil18 {fill:#101010}
    .fil12 {fill:#141414}
    .fil13 {fill:#181818}
    .fil19 {fill:#242424}
    .fil2 {fill:rgb(39, 39, 39)}
    .fil3 {fill:#4E98D7}
    .fil26 {fill:#616161}
    .fil22 {fill:#757575}
    .fil0 {fill:#7BCEF7}
    .fil21 {fill:#7D7D7D}
    .fil20 {fill:#828282}
    .fil23 {fill:#868686}
    .fil25 {fill:#8A8A8A}
    .fil27 {fill:#969696}
    .fil24 {fill:#9E9E9E}
    .fil4 {fill:#DD001C}
    .fil1 {fill:#E6E6E6}
    .fil16 {fill:#F3F3F3}
    .fil10 {fill:#FBFBFB}
    .fil9 {fill:red}
    .fil5 {fill:#FF8303}
    .fil6 {fill:#FFB71D}
    .fil11 {fill:#FFEB37}
    .fil7 {fill:white}
   ]]>
  </style>
 </defs>
 <g id="Layer_x0020_1">
  <path class="fil0" d="m7355 7940c65 25 82 60 105 124-51-23-76-64-105-111-44-57-281-302-327-330-104-64-334-274-585-300-33-3-71-10-91-10-23 1 6 8-36 5-52-4-7 4-35-17 32-28-13-14 50-25 85-15 248 22 330 59 108 48 172 107 266 164 101 62 411 355 426 440zm-1352 758l6 115c66-10 30 6 78-43l3-163c-34 15-58 53-87 90zm-302 1708l-45-27c6-49 7-43 47-73 58-42 20-22 62-74 0 81 5 127-64 173zm1365-56l-43-5-11-44c-64-60-113-151-186-175-331-107-342-457-345-764-63 35-66 70-131 99-322 146-118-73-444 111l-568 275c-69 31-95 29-160 75 3 41 15 56 27 94 16 51 13 75 25 122 42 169-25 117-29 246 98 1 230 43 324 65 129 30 409 197 506 283 265 235 538 622 617 972 30 133 21 229 28 368 42-9 291-178 354-216 156-95 1108-489 1165-633-133-91-407-186-606-398-40-43-90-64-141-98-50-33-83-79-130-124-69-66-228-169-252-254zm871-6303c-10 92 29 239 129 258-20-91-37-61-68-115 34-23 40-17 84-33 73-25 13 9 61-47 35-42 82-75 116-111-59-28-102-49-136-107-37 52-2 55-81 83-71 25-53 21-106 72zm563-839c138-70 274-3 347 121 10 17 36 69 39 85 48 221-21 257-13 367 56-26 30-22 97-17-34 40-31 28-76 50-169 83-65 119-240 184-41-45-178-59-179-330-1-156 9-305 85-431l-60-27zm800 444c-2-155-60-296 8-552 42-159 53-111 80-122 0 75-24 190-38 261-15 76-26 172-23 252 72 33 219 203 120 272-28 20 3 2-34 17-8-78 9-204-84-231-13 145 4 70-28 104zm-953-544c-7-109 24-164 98-236 125-121 203-97 300 0 27 27 56 52 80 80 79 92 63 103 106 200-100-57-158-168-280-239-194 44-187 132-304 195zm-267 77c-31 29-20 12-31 55 25 2 28-2 52 7 54 21 35 26 42 34-80 62-104 4-341 109 0 152 42 91 106 161 26 29 19 38 42 68 0 0 21 23 23 24 37 31 14 12 43 26l16-125-2-31-62-24 19-31c82-27 114-20 198 6 41 13 121 84 148 121 67 92 121 291 120 408-162 39-227 64-285 224-37 103-57 358 101 367 73-75 112-256 223-279 0 81-71 128-79 215 286-8 486-306 443-409l-157 67c77-134 164-153 304-175 64-10 85-9 123 29l-67 20c12 61 18 46 24 90 19 137-2 80 49 282 32 126 188 612 193 670 6 73 21 81 20 174-1 76 0 153-1 229 41-52 103-289 109-341 15-131-8-308-20-427-14-131-84-436-113-569-11-51-14-27-21-98-6-58-16-59-14-107 197 43 121 35 278-42-1-133-116-393-130-566-11-141-49-344-10-483 16-58 11-105 10-170-119 24-188 231-221 328-66 195-26 291-44 493-70-35-39-330-39-406 1-98 4-90 20-175-71-99-123-163-229-222-214-121-513 18-650 207-55 76-126 208-190 265zm-430 1727l59 89c124-48 205-253 292-220l105 93c60-17 125-64 157-111-64-62-106-42-154-128-67-119 30-96-13-195-68 52-42 69-93 117-33 31-28 16-59 36-26 17-34 34-60 51-82 54-204 87-294 136-207 114-308 321-283 569 20 208 141 413 281 557 56 57 201 118 280 144s279 76 355 79c417 17 1014-186 1037-670 4-75 32-93 19-171-8-50-12-7-19-67-11-101 16-94-50-275-20-54-31-112-50-169-41-122-83-290-111-418l-34-294-46-3c-67 127 26 503 29 585 7 250 147 642-257 817-77 34-304 84-374 74-207-29-302-57-468-200-20-17-52-37-63-49-96-104-179-229-184-380zm-1227 3443c146 35 252 34 361 140-174-1-213-83-461-12-357 102-122 389-292 382-63-22-31-26-68-43l-5 78 55 53c62-23 151-136 318-177 83-20 392-45 408 62-99-30-333 14-437 51-278 101-36 289-191 296 49-115-46-59 17-190-87 24-182 150-66 227-76 34-52-12-96-71-114 238 161 267 231 253 164-34 264-180 366-208-12 62-19 36-21 122-2 90-16 49-5 130 35 272 243 796 592 545 25-18 87-52 100-62 46-40 13-42 65-93 114-111 185-273 181-439-48-49-182-312-218-383-155-305-246-474-488-722-42-43-298-219-398-206-2 56 5 71 22 117 24 69 12 85 28 150zm-4397-5020l44-10c23 79 6 28-8 54-57 18-82 10-138 23-57 13-108 21-163 35-243 59-471 119-630 317-29 37-37 91-60 135 93 67 141 48 258 47 13-196 112-309 302-324 68-5 60-14 112-21 190-23 197 109 326-73 56-79 168-194 242-235 131-73 385-91 513 6-24 18 50 23-48 19-70-3-21-47-196-7-99 23-139 14-238 66-104 55-280 155-298 285-85 11-66 28-175 26-96-1-110 5-192 19-130 22-179 46-279 136-1 113-27 178 109 210 209 48 127 25 251 4 137-23 74-10 218-67 246-97 378-139 641-67 40-71 131-236 201-259l32-27 21-23c53-68 121-97 189-140 66-42 181-65 262-72 32-247-68-203-102-359-15-67-35-79-44-114-30-129 82-393 130-503l-38-65c-17-17-35-34-52-50-68-74-186 84-220 131-67 93-52 186-94 290-34 84-98 155-148 229-61 90-230 56-324 78-205 48-200 33-318 57-35 7-129 20-167 24-55 7-108 20-160 34-243 69-240 72-370 200-43 42-81 53-84 112 52 4 250-66 319-79 33-6 57-1 88-4 62-7 30-16 95-22 63-6 135 15 187-14zm3386 2851l-51 53c-143 149-295 394-377 584 88-4 284-65 380-89 205-51 139-90 366-21 63-50 77-42 157-42 31 46 63 83 86 133 31 68 27 107 53 173 48 124 21 60 52 172 62 224 225 662 254 866 325 24 306 57 545 237l124 147c43 51 71 93 104 149 29 49 71 126 102 167 109 141 165 370 254 523 36 62 66 115 145 123 543 57 839-125 1158-150 88-7 167-23 257-21-55-103-112-264-128-382-6-40 2-64-7-106-38-174-62-410-37-590 8-54 12-12 19-67 24-184-22-4 50-293 51-204 128-409 252-586 69-98 221-272 268-352 30-51 64-89 124-102l-326 490c-48 80-93 201-124 291-57 172-132 366-136 554-1 68-10 55-18 99l17 505c1 109 40 230 63 340 60 288 17 173 339 248 94 22 234 40 314 100-96 1-171-33-261-42-34-4-77 3-111-1-86-10-128-25-228-3-53 11-95-1-270 38-168 37-337 86-516 98 23 153 130 170 107 428-28 325-285 754-585 906-51 26-62 19-84 63 51 67 421 268 513 297 230 74 418 152 683 152 670-1 1243-271 1693-756 209-225 371-480 476-766l111-303c35-106 47-227 74-334 8-33 5-49 13-81 17-72 12-115 19-194 6-65 14-23 21-80 39-314-13-667-46-967l-106-509c-52-214-148-397-229-596-156-386-514-935-775-1274l-170-243c-34-53-42-73-88-119-50-50-46-75-81-126-308-443-328-734-389-850l-90-15c-7 135 71 347 119 466 127 317 95 691-58 995-221 438-591 659-1081 712-337 36-598-150-762-129-89 11-137 58-175 131-16 109 141 255 275 150l5-61-94-13c-1-22 4-90 52-98 96 18 77 59 112 132-48 75-91 123-192 128-160 9-346-160-309-327 39-175 202-120 74-330-137-225-204-558-88-795 28-57 138-195 139-237-309-51-196-48-531-49-288 0-646 99-906 108-72 3-43 16-110 21-84 6-199 0-287 0-186 0-168-15-254-21-69-4-63 7-135-13-36-10-79-22-118-31-180-41-359-96-526-184-45-24-46-35-88-57-121-64-233-141-331-239-45-46-95-68-156-129-207-212-145-171-476-43-65 25-121 69-183 109-144 93-467 444-454 592 8 88 93 310 128 402 48 130 110 246 171 371 39 79 78 155 127 225 71 100 149 227 224 316 80 96 181 183 270 270 44 43 361 267 411 303 110 79 332 183 458 254 63-43 168-108 242-129 11-56 97-276 125-317 61-87 133-185 188-273 85-136 353-347 482-439 226-163 478-286 729-413 165-84 337-138 505-207-23 70-97 75-189 122-173 88-332 167-497 268-49 30-65 21-110 48-30 18-40 40-80 64-180 107-81 40-280 182-142 102-203 170-326 286z"/>
  <path class="fil1" d="m5035 13748l-10 44-42 9c-105 98-249 88-480 376 79 207 161 295 327 438 34 29 197 112 245 137 373 198 876 184 1266 51 97-33 161-69 254-112 22-55 45-111 66-167l21-41c64-9 17-6 35 14-39 59-60 125-79 193-49 177-1 405 153 552 253 241 440 205 541 236 138 42 543-28 670-74 262-95 212-106 346-179 188-104 465-456 407-616-12-34-121-188-281-17l53 88c59 4 37 14 78-33l-61-40c51-26 38-10 88 19l-18 85c-49 24-74 17-130 13-124-312 216-309 278-167 81 186-30 309-129 460-67 103-179 168-216 224 129 63 203 12 282 7 257-18 553-138 711-339 32-26 27-21 54-51 49-41 162-203 161-256-85-13-192 21-235-39 153-38 262 54 687-135 260-116 522-340 612-608 45-133 60-177 67-325 6-138 51-14-34-338-45-170-113-221-110-273 51 40 26 46 86 56 16-37 80-275 79-349 0-74-4-67 24-126-16-62-22-33-25-111-1-38 5-90 0-127-16-123-86-376-142-476-142-257-223-308-424-434-274-172-380-42-544 0l-411 88c-121 20-519-6-598-27-456-121-180-111-548 84-88 47-174 106-259 153-45 25-92 43-141 68l-142 67c-222 99-340 115-572 236-88 46-187 74-270 142-98 80-45 160-178 234-66 36-225 87-305 93-20 60-80 110-133 137-115 60-96 9-207 11-105 98-190 145-330 177-192 45-357-4-486-4 1 125 5 239-63 339 32 76 118 143 149 321 22 124-62 236-139 315z"/>
  <path class="fil2" d="m3331 13858c-37 34-22 30-88 14l4-77c72 23 15 30 84 63zm5303-9946c-75-5-100-74-111-137-7-43-2-70-11-116-5-24 12-236 38-304 150-400 453 181 227 490l-105-15c-27 42-18 51-39 82zm252-499c-3-16-29-68-39-85-73-123-209-190-347-121l60 27c-76 125-86 275-85 431 1 272 138 285 179 330 175-65 71-101 240-184 44-22 42-10 76-50-68-6-42-9-97 17-7-110 61-146 13-367zm-539-305c117-64 110-152 304-195 122 71 180 182 280 239-43-97-27-108-106-200-24-28-53-53-80-80-97-97-175-121-300 0-75 73-106 127-98 236zm-992 4844c29 47 54 88 105 111-23-64-40-99-105-124-15-85-326-378-426-440-94-57-159-116-266-164-82-37-245-74-330-59-63 11-18-3-50 25 28 21-17 13 35 17 42 3 13-4 36-5 20-1 58 6 91 10 250 26 481 236 585 300 46 28 282 273 327 330zm-4024 5906l-3-59-59-50c-295 14-270 458 189 368 29-6 164-47 197-58 64-22 263-160 313-213 40-42 64-117 109-159 57 15 71 28 138 12 54-14 94-19 146-36 97-31 347-180 418-245 29-27 52-59 78-81 25-20 36-22 48-32 24-22-2-17 46-49 373 461-147 484-286 602-89 76-203 226-249 322-96 200-134 174-329 247-153 57-341 52-502 41-51-3-170-48-223-66-123-42-434-248-402-463 22-149 405-336 410-109l-39 29zm-389-1167c53-7 122-22 170-36l178-48c357-80 403 180 732 69 314-106 72-298 395-140l560 201c24 434-333 678-683 848-81 39-178 46-266 19-191-57-234-118-331-287l167 110c14-159-689-480-923-735zm6521 2167l-7 44-47 7c-158 200-454 321-711 339-80 6-153 57-282-7 38-56 149-121 216-224 99-150 210-274 129-460-62-142-402-145-278 167 57 4 81 11 130-13l18-85c-50-30-36-45-88-19l61 40c-41 47-19 37-78 33l-53-88c160-171 269-17 281 17 57 160-219 512-407 616-133 74-83 84-346 179-127 46-532 116-670 74-101-31-288 5-541-236-155-147-203-375-153-552 19-68 40-134 79-193-40 10-28 3-56 28-21 56-44 113-66 167-93 43-157 79-254 112-390 133-893 147-1266-51-48-26-212-108-245-137-166-144-249-231-327-438 231-288 375-279 480-376l51-53c77-79 161-191 139-315-31-178-117-245-149-321 67-99 64-214 63-339 130 0 294 49 486 4 140-33 225-80 330-177 111-2 92 49 207-11 53-27 113-78 133-137 80-7 239-57 305-93 133-74 80-153 178-234 83-68 181-96 270-142 233-120 350-136 572-236l142-67c48-25 95-43 141-68 85-47 171-106 259-153 367-195 92-205 548-84 79 21 477 47 598 27l411-88c165-42 270-171 544 0 201 126 283 177 424 434 55 100 126 353 142 476 5 37-1 89 0 127 2 78 9 49 25 111-28 60-24 52-24 126s-63 312-79 349c-60-10-35-16-86-56-3 53 65 103 110 273 86 324 41 200 34 338-7 148-23 193-67 325-90 268-353 492-612 608-425 190-534 97-687 135 43 60 149 26 235 39 2 53-112 215-161 256zm-7655-3321c101-9 109-37 192 50 42 44 99 78 78 152l-65 10c-39-44-25-13-25-59l52 19c-13-64-63-119-119-153-197-50-49 435 110 469l63 8c133 16 374-107 606-69 172 28 112-20 410 102 100 41 217 78 332 78 207 1 102 10 191 21 93 12 173-21 351 57 52 23 98 61 146 73-70-140-290-179-433-193-156-15-68 22-288-21-81-16-108-8-253-45-77-20-147-62-226-81-529-131-605 52-770 31 43-43 50-29 101-40 26-6 66-21 94-29 213-61 413-78 632 3 67 25 134 49 199 72 212 75 256 58 447 65 58 2 59 16 92 16 118-3 370 74 419 181 64 142-31 245-156 311s-280 52-403-8c-92-45-285-157-380-93 38 13 90 20 121 45l-307 56c-98 27-199 42-298 69-382 107-715-200-862-526-14-31-44-103-52-136-62-251-34-237 0-434zm3747-327c-17-19-32-36-53-54-98-109-170-147-276-223-126-90-249-147-277-169-34-26-15-12-30-31 75-27 72-45 157-46 252-4 233 9 472 121l36-4c-51-48-171-116-235-141-109-43-195-63-321-63 3-70-19-9 45-62 22-18 33-36 62-51 76-39 134-20 180-17 333 23 630 254 848 476 177 180 313 453 402 689 44 117 93 459 32 553-83 70-159 106-272 105 20-42 35-81 75-111 55-41 70-6 72-82-133 75-160 61-231 207-49 99-144 180-260 183 67-173 59-198 60-394 1-186-33-207-88-364-27-78-319-494-399-523zm-3034 587c-197-244-363-562-363-907-1-576 458-506 703-562 186-42 383 12 454 14 62 2 85-7 144 9l276 46c216 52 194 41 364 109 21 8 86 22 121 34l350 129c34 12 73 33 106 51 67 35 142 59 212 95 115 59 206 135 287 186 209 130 582 519 690 737 96 193 201 516 33 734-56 72-123 93-200 117-208 66-143 37-303 66-23 4-24 8-60 10l-207-22-317-86-347-132c-307-110-175-53-250-210-27-55-12-37-57-84 35-85 23-142 23-240 0-241-15-142-22-238-13-175-51-250-133-379 91-79 305-64 421-64 174 0 253 20 428 42 234 30 631 234 693 235-28-61-297-175-370-204-77-31-147-49-222-80-95-39-175-11-231-62 65-32 77-9 129-60-62-40-147 2-209 28-115 48-424-34-710 55-85-75-116-123-213-187-242-159-276-146-550-245-230-84-142-66-272-132 21 86 122 129 193 163 203 97 481 199 652 364 182 175 327 450 329 683 1 186 38 194 15 312-64-54-262-128-344-132-93-4-129-23-239-22-389 3-729-316-1e3 -171zm4455-1673c182 0 358-214 467-343 127 77 254 126 387 183 188 81 256 94 450 120 0 114-159 337-241 419-113 114-217 225-374 271-106-69-273-203-365-297-59-61-304-266-325-353zm35 177c21 22 31 30 54 49 24 85 183 188 252 254 47 45 80 92 130 124 51 33 101 55 141 98 199 212 473 307 606 398-57 143-1009 538-1165 633-63 38-312 208-354 216-8-139 2-235-28-368-79-351-353-738-617-972-97-86-377-253-506-283-94-22-226-65-324-65 4-129 70-77 29-246-12-47-9-72-25-122-12-38-24-53-27-94 65-46 92-44 160-75l568-275c326-184 122 35 444-111 65-29 68-64 131-99 3 307 15 657 345 764 74 24 122 115 186 175zm1338-457c-14 102-26 95-25 194-246 0-713-184-864-309 11-30 14-44 42-80l624 126c190 19 238-43 223 69zm-826-271c32-184-9-195 200-137 121 33 458 2 498 15 77 53 125 183 123 277-238 32-619-68-821-156zm-1521-874c28-36 52-75 87-90l-3 163c-47 48-11 32-78 43l-6-115zm320-215c248-70 287 11 461 12-109-106-215-105-361-140-17-64-4-81-28-150-16-46-24-62-22-117 100-13 356 163 398 206 243 248 333 417 488 722 36 72 170 334 218 383 3 166-67 328-181 439-53 51-19 54-65 93-12 11-74 44-100 62-350 251-557-273-592-545-10-81 3-40 5-130 2-86 9-60 21-122-102 28-201 174-366 208-70 14-345-14-231-253 43 58 20 104 96 71-116-77-21-203 66-227-63 131 32 76-17 190 155-7-87-195 191-296 104-38 337-82 437-51-16-107-325-83-408-62-168 41-256 154-318 177l-55-53 5-78c37 17 5 21 68 43 170 7-65-280 292-382zm-2322-749c126 19 128 74 355-122l846-519c114-53 565-350 654-356 66 87 161 448 211 596l300 1049c-65 6-174 44-229 76-82 48-222 216-258 344-30 108-8 154 56 231-77 166-122 267 38 403-68 61-178 82-260 124-84 43-177 97-262 136-49 22-95 33-148 59l-365 194c-14-51-30-89-52-135l-313-977c-51-147-316-993-374-1098-38 52-12 65 8 127l122 436 101 279c79 224 409 1294 479 1377-52 44-63 40-144 37-50-177-81-226-126-350l-46-141c-62-213-160-429-215-650-21-84-333-1024-380-1118zm152-51c-10 12-10 21-32 27-66 17-40-7-48-12 33-41 46-37 80-16zm176-160c5-54 12-38 54-42l-54 42zm179-98c-23 50-9 31-57 57 24-51 3-35 57-57zm-1003-536l-63-31c39-18 41-18 63 31zm-100-59c-68-14-49 0-81-58 58 24 49 10 81 58zm1103 595c36-101 271-170 321-255-107 21-312 195-415 262 15-101 164-173 217-260-57 11-41 14-86 52-47 38-55 57-114 82 29-52 46-70 95-98 319-359 560-257 989-456 69-32 75-3 140 6-54 50-226 144-290 177-92 48-195 111-287 164-98 56-490 323-570 326zm-1184-712c129 12 451 227 519 331 246 376 179 420 267 577l-111 26c-100-89-560-573-598-671 64 8 112 88 162 128 4-64-80-112-125-158-59-60-82-24-110-111l133 89c65 58 113 91 178 152 42 40 90 128 137 178 40-93-226-277-271-365 87 17 141 100 208 151 28-57-119-147-159-181-65-56-171-79-224-125-43-10-41-8-66-35 47-15 22-20 60 14zm678 1021l-20 29c31 50 20 76 36 137 44 167 239 783 296 932l364 1025c-89 1-575-447-669-547-106-112-216-195-293-328-21-37-218-630-230-685l-315-1054c-14-46-16-74-30-119l-133-476c75 20 530 600 618 694 61 64 65 69 114 139 51 72 239 210 263 252zm4715-2780c70-9 93-42 125-83 42-54 56-46 109-89 31 111 25 121 25 240-248 129-178 114-497 58 30-142 175-211 305-209l-67 82zm-972 141c41-47 28-49 57-87 22-29 48-43 73-70 52-57 77-119 147-102 24 67-24 62-46 140 60-31 56-45 106-85 47 54 48 56 113 86s82 40 129 85c-22 44-70 151-54 192 39-62 44-122 110-166 113 26 139 58 270 66-1 59-6 47-15 90-17 83-12 43 15 80 25-38 31-106 61-169 133-9 151-7 259-89 7 71-17 143-55 199-186 274-651 271-935 85-97-64-175-165-237-255zm563-310c77-7 418 83 642-113l2 57c-117 46-67 28-159 93-139 10-121-1-241 62-69 37-110 82-127 157-37-7-254-111-262-141-1-5-5-5-8-8 104-35 78-41 152-107zm-134-209c74 63 105 70 200 34l-30 108-156-78-45-10 9-71 21 17zm-292 68c26-17 34-34 60-51 31-20 25-4 59-36 51-48 25-65 93-117 43 99-54 76 13 195 48 86 91 65 154 128-32 47-97 94-157 111l-105-93c-87-33-167 172-292 220l-59-89c5 151 88 275 184 380 11 12 43 32 63 49 167 143 262 171 468 200 70 10 296-41 374-74 405-175 264-567 257-817-2-82-95-458-29-585l46 3 34 294c28 127 70 296 111 418 19 56 30 115 50 169 66 181 39 173 50 275 7 60 11 17 19 67 12 78-16 96-19 171-23 484-621 687-1037 670-77-3-277-53-355-79-79-26-225-87-280-144-140-144-260-349-281-557-24-247 77-455 283-569 90-49 212-82 294-136zm486-75c187-24 170 19 338-86 129-81 108-169 208-223-5 201 29 272 14 351l-52 15c-15-37 5-74-81-168-25 48 33 91 29 208-55 51-96 59-173 72-12-14-14-3-32-41-12-26-6-6-9-34-3-25 0-72 0-99-33 42-9-5-24 52-1 4-3 26-7 42-3 13-18 64-22 76-188 12-148 7-188-167zm-3007 1670l10-44 42-9c123-116 184-184 326-286 199-142 100-75 280-182 39-23 49-45 80-64 45-28 61-18 110-48 165-101 324-180 497-268 93-47 167-52 189-122-168 69-340 123-505 207-251 127-502 250-729 413-129 92-396 303-482 439-55 88-127 186-188 273-29 41-114 261-125 317-74 20-180 86-242 129-126-71-348-175-458-254-50-37-368-260-411-303-89-87-190-175-270-270-75-89-153-216-224-316-49-70-88-146-127-225-61-125-123-241-171-371-34-92-120-314-128-402-13-148 310-500 454-592 62-40 118-84 183-109 332-128 270-169 476 43 60 62 110 83 156 129 97 99 210 175 331 239 42 22 43 34 88 57 167 88 346 142 526 184 39 9 82 21 118 31 71 20 66 9 135 13 86 5 68 21 254 21 88 0 202 7 287 0 67-5 37-19 110-21 260-9 618-109 906-108 334 0 221-2 531 49-1 41-111 180-139 237-116 237-49 571 88 795 128 210-35 155-74 330-37 166 149 336 309 327 100-6 143-53 192-128-36-73-16-114-112-132-49 9-53 76-52 98l94 13-5 61c-134 106-291-41-275-150 38-74 87-120 175-131 164-21 425 165 762 129 491-53 860-274 1081-712 153-303 185-677 58-995-48-119-126-331-119-466l90 15c61 116 81 407 389 850 35 50 30 76 81 126 46 46 54 65 88 119l170 243c261 339 619 888 775 1274 80 198 176 382 229 596l106 509c33 300 85 653 46 967-7 57-15 16-21 80-7 79-2 122-19 194-7 32-4 48-13 81-27 107-38 229-74 334l-111 303c-105 286-267 541-476 766-451 486-1024 756-1693 756-264 0-453-79-683-152-92-29-462-230-513-297 22-43 33-37 84-63 300-152 557-581 585-906 22-258-84-275-107-428 178-12 348-61 516-98 175-39 217-27 270-38 101-21 142-7 228 3 34 4 77-3 111 1 90 10 165 43 261 42-80-60-220-78-314-100-322-76-279 40-339-248-23-110-62-231-63-340l-17-505c8-44 17-31 18-99 3-188 78-382 136-554 30-91 76-211 124-291l326-490c-60 13-95 51-124 102-47 81-199 255-268 352-125 177-202 382-252 586-72 289-26 108-50 293-7 54-11 13-19 67-25 180-2 416 37 590 9 42 1 66 7 106 17 117 73 278 128 382-90-2-169 14-257 21-319 25-615 207-1158 150-79-8-109-62-145-123-89-153-145-382-254-523-31-41-73-118-102-167-33-56-61-98-104-149l-124-147c-238-180-219-213-545-237-28-204-192-642-254-866-31-112-4-47-52-172-25-66-21-106-53-173-23-51-56-87-86-133-80 0-95-8-157 42-227-70-162-31-366 21-96 24-291 84-380 89 83-190 234-435 377-584zm-2551-1523c-34-70-14-43-23-113l-109-460c-11-46-13-30-27-80-39-147 316-520 443-543 24 32 19 30 34 77l92 244c52 118 129 225 129 300-91 80-221 152-311 246-111 116-172 267-228 328zm5127-668c53-51 35-47 106-72 79-27 44-31 81-83 34 58 77 79 136 107-34 36-80 69-116 111-48 56 12 22-61 47-44 15-50 10-84 33 31 54 47 24 68 115-101-19-140-165-129-258zm355-434c100 139 54 159 98 207-28 34-28 29-68 61l22 96c-196 10-325-374-258-464 79-29 157 31 207 101zm-5097 29c-65-157-22-66-55-164 5-2 23-6 28-7 89-23-67 12 26-8 103-22 72 28 149 145 133 204 152 220 288 407l-211 88c-114-118-173-337-225-461zm548 357c-135-13-176-143-203-175-95-107-171-255-229-390 77 20 135 157 229 280 56 74 195 227 204 285zm4245-540v31l58 17c7 66 5 18-13 38l-16 125c-28-14-6 5-43-26-2-2-23-24-23-24-24-31-16-39-42-68-64-71-106-10-106-161 237-105 261-46 341-109-7-7 12-13-42-34-24-9-26-5-52-7-19-28-19 35-17-39l47-16c65-57 135-189 190-265 137-189 436-327 650-207 106 59 158 123 229 222-16 85-19 77-20 175-1 76-32 371 39 406 18-203-22-298 44-493 33-97 101-304 221-328 1 65 6 112-10 170-39 140-1 342 10 483 14 173 129 433 130 566-157 77-80 85-278 42-2 48 8 48 14 107 7 71 10 47 21 98 29 133 99 438 113 569 12 119 35 297 20 427-6 53-68 290-109 341 1-76 0-153 1-229 1-93-14-101-20-174-5-58-161-544-193-670-51-202-30-146-49-282-6-44-12-29-24-90l67-20c-38-38-59-40-123-29-140 23-227 41-304 175l157-67c43 103-157 401-443 409 8-88 79-135 79-215-112 23-151 204-223 279-158-8-138-263-101-367 58-160 123-185 285-224 1-117-53-316-120-408-27-37-107-108-148-121-84-26-116-33-198-6zm686-929c70-12 96-15 101 57-52-25-55-17-104-4l3-53zm-5798 1071c-29 23-30 25-54 50-70 23-162 187-201 259-263-72-395-30-641 67-144 57-81 44-218 67-124 21-42 44-251-4-136-31-110-97-109-210 100-90 149-113 279-136 82-14 96-20 192-19 109 1 90-16 175-26 19-130 195-230 298-285 99-52 138-43 238-66 175-40 126 4 196 7 98 4 24-1 48-19-129-96-383-79-513-6-74 42-186 156-242 235-129 182-136 51-326 73-52 6-44 15-112 21-190 15-289 129-302 324-117 1-165 20-258-47 23-44 30-98 60-135 159-198 387-258 630-317 55-13 106-22 163-35 50-10 98-7 160-28 26-35 22-51-11-50l-48 12c-52 28-124 8-187 14-65 6-33 15-95 22-31 4-55-2-88 4-69 13-267 84-319 79 3-59 41-69 84-112 131-129 128-131 370-200 51-15 105-28 160-34 38-5 132-17 167-24 117-24 113-9 318-57 94-22 263 13 324-78 51-75 114-145 148-229 42-103 27-197 94-290 34-47 152-205 220-131l44 8 8 41 38 65c-48 110-160 374-130 503 8 35 29 47 44 114 34 156 134 111 102 359-81 7-196 30-262 72-68 44-136 72-189 140zm5854-1122c-82-77-74-169-219-218-209-71-632 99-906-325l14-106c6 10 53 165 179 230 61 32 245 46 304 10 22-13 13-12 23-21-56-46-86-32-124-113 110 18 173 75 312 37 193-52 404-77 554 80 99 105 64 133 69 278-1 3-128 176-204 147zm-143-118l45 8 5 46 35 64c-82 45-45 72-106 115-36 25-91 28-143 66-169 125-255 386-370 454-186 109-61 85-308 106-141 158-119 196 25 349l49-24c114 120 146 238 216 375-105 59-209 38-186 237 13 115 131 172 150 272-17 133-327 226-373 246-47 20-83 46-133 63-69-40-127-71-201-94-60-19-312-63-355-61l-1050 195c-46 9-94 0-141 3-65 5-41 24-90 19l-244-40c-103-11-131-17-224-41-385-100-789-274-1076-560l-24-22-27-29c-51-38-44 2-124-90l-45-40-58-67c-169-147-255-330-305-378-45-44-77-65-112-120 20-113 51-165-9-282-91-179-255-165-99-454 51-95 51-162 87-249-70-242-351-244-487-57-127 174-22 267-205 538-21 32-5 9-22 29-94 0-109 20-191 21-54 1-135-8-185 3-108 23-238 24-354 41-43 6-37 13-98 19-168 15-347 96-462 214-74 76-118 233-135 264-39 74-66-17-185 213-83 161-50 322 151 340 33 3 106-13 170-5 141 130 413 127 586 60 87-34 343-131 436-137 37-2 102 9 156 10 0 67 29 260 42 353 27 190 141 657 199 839 16 52 12 93 27 130 87 223 180 430 313 637 405 629 756 802 1410 1109l-146 146c-12 14-12 17-30 36-20 21-36 35-52 58-69 97-101 210-175 294l-59-193c-23-70-41-113-77-180-92-169-28-107-143-235-41-46-18-44-49-79-68-75-236-145-327-180-57-22-128-50-186-70-87-30-142-17-239-21-92-96-162-43-138 85 33 180 158 546 195 701 20 84 53 156 75 230 21 71 39 173 62 241 21 63 23 37 41 114 8 36 18 84 32 117l189 589c17 52 8 58 29 111 25 60 59 180 82 222 40 71 391 414 439 465 99 103 235 197 311 290l42 9 10 41c151 31 300 279 446 228 73-26 61-61 155-73 44 95 82 272 86 372-293 197-112 40-270 247-24 32-49 31-88 70-140-74-269-152-434-219-166-67-320-109-495-159-97-27-451-96-547-96-334 0-790 1-1053 246-250 232-224 674-109 971 45 115 177 289 277 365l-55 33c-15 7-28 11-43 18-85 35-241 120-269 111l-46-7-7-44c-79-72-73-149-111-212-16-35-18-1-8-51 64-3 23-1 45 17 46 50 8 77 24 111 80 76 112 90 189-8 10-249-292-412-402-200-152 295 95 801 426 1026 60 41 204 103 271 117 338 73 326-51 424 93 36 53 19 12 63 63 125 145 315 229 499 313 102 47 85 39 131 137 88 189 213 314 433 358-32 54-109 119-161 167-38 35-59 44-97 79-51 46-50 28-99 58-319 196-546 77-444-111 45 17 22 12 85 84 146 0 181-50 175-192-106-84-188-114-318-60-390 163-154 603 120 750 265 142 428 159 713 111 303-51 323-135 531-325 2 99 140 282 216 359 49 50 68 44 109 81 145 129 319 208 502 263 77 23 262 56 324 57 266 4 173-16 270-23 31-2 61 4 93-2 176-33 539-167 569-163-1 160-4 169 45 311 81 239 397 386 628 421 67 10 60 20 143 20h175c145 1 425-67 560-133 374-182 130-118 328-105 156 10 433-5 575-55 215-76 375-196 509-379 61-84 95-174 136-241l8-44 44-7c33-16 93-14 148-28 54-14 80-21 130-39 226-82 487-216 624-429 175-272 104-150 164-357 70-243 39-261 21-448-13-135-62-192-78-278-12-67 195-404 101-899-20-104-35-176-72-276-91-247-149-269-290-406-204-199-326-186-441-252 341-203 444-280 732-581 47-49 38-59 74-101 121-141 241-332 304-505 25-69 74-154 96-221l111-396c8-32 14-98 21-138 6-34 2-56 8-89 8-43 11-7 18-66 6-51-7-104 4-154 12-59 18-49 17-132-3-266 48-63 3-302-7-39 0-601-35-739-13-54-10-83-23-140l-159-663c-65-180-187-540-294-691-29-41-83-149-113-203-86-151-123-188-195-298-125-191-80-115-205-284l-268-387c-117-178-248-290-395-571l-117-216c-22-66-79-178-89-238 75-125 144-95 106-316l-35-179c-113-351-93-523-91-893-46-23-41-17-61-63-200 79-142 128-262 259-61-91-198-222-301-265l-27-98c98-73 190-251 172-347-14-77-33-136-84-192-256-285-617 8-854-65-51-16-132-72-165-71-9 84 22 108 38 180-72 28-151-49-203-98-106-100-88-87-100-234-100 9-94 100-131 176 39 53 39 171 133 268 298 307 732 143 934 237z"/>
  <path class="fil3" d="m2522 11797c271-145 611 174 1e3 171 110-1 146 18 239 22 82 4 280 78 344 132 23-118-13-126-15-312-2-233-147-508-329-683-171-165-449-267-652-364-71-34-173-77-193-163 130 65 42 48 272 132 274 100 307 86 550 245 97 64 128 112 213 187 285-89 595-7 710-55 62-26 147-68 209-28-52 51-64 29-129 60 56 51 137 23 231 62 75 31 144 49 222 80 73 29 343 143 370 204-62-1-459-205-693-235-175-22-254-43-428-42-116 0-330-15-421 64 82 129 120 203 133 379 7 96 23-2 22 238 0 98 12 155-23 240 46 47 31 28 57 84 76 156-56 100 250 210l347 132 317 86 207 22c36-2 36-6 60-10 161-29 96 0 303-66 77-25 145-46 200-117 169-217 63-541-33-734-108-217-481-607-690-737-81-50-172-127-287-186-70-36-145-60-212-95-33-18-71-38-106-51l-350-129c-35-12-100-26-121-34-171-68-148-57-364-109l-276-46c-58-16-82-7-144-9-70-2-268-56-454-14-244 56-704-14-703 562 1 344 167 663 363 907z"/>
  <path class="fil4" d="m5015 8469c28-59-23-29 7-183 17-87-22-26 46-52 0 50-5 149 2 193 10 56 49 81 20 113-70 62-92-45-174-87v183c-59 78-139 174-252 127-38-119 102-176 201-182-15-44-57-237-54-275l65-28c15 26 18 123 140 193zm650-384c14-56-25-4 32-55 73-105 20-157 152-219l59-3-4 39-75 104 123-60c-7 85-128 108-189 142-22 49-9 8-25 65l39 68c105-36 31-59 113-84 3 72 8 55-38 107l-128 2-31-107-27 1zm-129-415c20-24 26-31 50-52l22 1c-41 100-79 47-56 182l35-32c29-27 13-16 33-49l13-20 57 12v106c-144 14-107 87-170 26-4-4-38 0-21-98 6-33 19-48 36-77zm-697 1002c13-20 22 18 10-45-73-14-27-10-63 10-63 28-80 24-87 95 59 2 97-17 140-60zm304-770c29 111 77 106 138 11l-73-103 35 1c150 86 74 204-55 207-92-92-74-134-55-253 26-164 119-166 151-181-7 94-38 98-76 175l-49 51-16 91zm78 734c115 49 173-75 194-163-73 17-175 85-194 163zm-32-144c-67-20-20 4-50-91-15-48-23-49-25-96 37-33 31-28 83-24l-9 211zm51-142c34-94 22-99 108-159-12 74-79 95-12 173l60-62-25-76c62-11 82 26 86 160 84-40 378-196 455-163-11 64-51 59-215 110-58 18-186 62-231 102-21 37-57 361-312 235 37-83 33-117 122-172 60-37 122-62 140-135-76 38-41 47-145 40l-30-56zm-97-180c50 51 44 57-20 89l-36-52c14-28 29-27 56-36zm-379-167c118 31 61-62 150-18-25 75-69-6-113 107-40 103 58 103-35 142-43-56-20-37-26-106-5-60-8-28-20-78l44-47zm886 83c36 56 59 175-40 164 7-70 29-3 17-98-116-6-78 89-120 148-43-22-11 17-30-43 0-1-17-65-18-66-10-56 7-97 18-143 23-96 34-145 150-134 1 72-60 53-81 169 91-7 50-32 103 3zm-709-30c26 33 57 17 101 17-1-36 8-66-12-96l30-22c37 42 50 72 51 128-79 35-14-10-85 23-185 85-89-171 3-188l-88 138zm999 3c-19-130 119-197 227-192l22 57-38 23c-41-14-2 7-42-38l-108 62c86 6 87-16 148 34 10 127-145 162-235 105 87-71 138 25 172-76-76-49-51 26-147 25zm-1450 260c32-29 43-64 52-113 47-273 39-131-13-340 47-11 47-21 99-18 10 82 34 153 53 229 48 193 76 150 30 198-36-57-63-153-95-191l-27 44c103 97 12 59-27 153-17 41-9 44-42 83l-81 1 4-107 58 5c-24 44-23 20-10 56zm920-583c36 54 31 14 1 214-70-37-23-62-64-157l63-57zm-79-67c7-50 18-61 59-77l26 28c-29 57-22 51-85 49zm450-92c174-195 212 141 91 153 32-62 30-82 1-145-165 81-49 110-114 190-50-26-24-17-82-174 74-35 51-30 105-25zm-1780 158c47 95 359 1034 380 1118 56 221 154 437 215 650l46 141c45 124 75 173 126 350 82 3 92 7 144-37-70-83-401-1152-479-1377l-101-279-122-436c-20-62-46-75-8-127 58 106 323 952 374 1098l313 977c22 47 38 84 52 135l365-194c54-26 100-37 148-59 85-39 178-93 262-136 82-42 192-63 260-124-160-136-115-236-38-403-65-77-87-123-56-231 36-127 176-296 258-344 55-32 164-69 229-76l-300-1049c-50-148-145-509-211-596-88 6-540 303-654 356l-846 519c-227 195-229 140-355 122z"/>
  <path class="fil4" d="m4001 7734c-24-43-212-180-263-252-50-70-53-74-114-139-88-93-543-674-618-694l133 476c14 44 17 73 30 119l315 1054c13 55 209 648 230 685 77 133 187 216 293 328 94 100 581 548 669 547l-364-1025c-57-149-252-765-296-932-16-61-5-87-36-137l20-29z"/>
  <path class="fil3" d="m2942 12691c234 256 938 576 923 735l-167-110c96 168 140 229 331 287 87 26 184 20 266-19 350-170 707-414 683-848l-560-201c-323-157-81 34-395 140-329 111-375-149-732-69l-178 48c-48 14-118 29-170 36z"/>
  <path class="fil4" d="m5586 10805l28 34c-44-3-21 11-64-30-239-113-221-125-472-121-86 1-82 20-157 46 15 18-4 4 30 31 28 22 151 78 277 169 106 76 178 114 276 223l45 11 7 43c80 29 372 446 399 523 55 157 89 178 88 364-1 196 8 220-60 394 116-3 211-83 260-183 72-146 98-132 231-207-2 76-18 41-72 82-40 30-55 69-75 111 112 0 188-35 272-105 61-94 11-437-32-553-88-236-225-509-402-689-218-222-515-453-848-476-45-3-104-22-180 17-28 15-39 32-62 51-64 53-42-8-45 62 126 0 212 20 321 63 64 25 184 94 235 141z"/>
  <path class="fil5" d="m1809 11537c-34 197-62 183 0 434 8 32 38 104 52 136 147 326 481 633 862 526 99-28 200-43 298-69l307-56c-31-25-83-32-121-45 95-64 288 48 380 93 123 61 278 74 403 8 126-67 220-170 156-311-49-108-300-184-419-181-32 1-34-13-92-16-191-7-235 10-447-65-65-23-132-47-199-72-219-81-419-64-632-3-28 8-69 24-94 29-51 11-58-2-101 40 164 22 241-162 770-31 79 20 148 61 226 81 144 37 171 29 253 45 220 43 132 6 288 21 143 13 362 53 433 193-48-11-93-50-146-73-177-78-258-45-351-57-89-11 16-21-191-21-115 0-232-37-332-78-298-123-238-74-410-102-232-38-473 85-606 69l-63-8c-160-34-307-519-110-469 56 34 106 89 119 153l-52-19c0 47-14 15 25 59l65-10c20-74-36-108-78-152-82-87-91-59-192-50z"/>
  <path class="fil5" d="m3331 13858l39-29c-5-227-388-40-410 109-31 215 279 421 402 463 53 18 171 63 223 66 161 11 350 16 502-41 195-73 233-46 329-247 46-96 160-246 249-322 139-118 659-141 286-602-48 33-22 28-46 49-11 10-23 12-48 32-26 21-49 54-78 81-71 65-321 213-418 245-53 17-92 22-146 36-66 17-80 4-138-12-45 42-69 117-109 159-50 53-249 191-313 213-33 11-169 52-197 58-459 90-484-354-189-368l59 50 3 59z"/>
  <path class="fil6" d="m6977 10124c20 87 265 293 325 353 92 94 259 228 365 297 157-46 261-158 374-271 81-82 241-304 241-419-194-26-262-40-450-120-133-57-260-106-387-183-109 129-286 343-467 343z"/>
  <path class="fil6" d="m2810 4716c56-61 117-213 228-328 90-94 220-166 311-246 0-75-77-182-129-300l-92-244c-15-47-10-45-34-77-126 23-482 396-443 543 13 49 15 33 27 80l109 460c9 70-11 43 23 113z"/>
  <path class="fil7" d="m7745 5095c62 91 140 192 237 255 284 186 749 189 935-85 38-56 62-128 55-199-108 81-126 80-259 89-30 63-36 131-61 169-27-37-33 3-15-80 9-43 13-31 15-90-131-7-157-40-270-66-67 44-71 104-110 166-16-41 31-147 54-192-48-45-64-55-129-85s-66-33-113-86c-50 40-45 54-106 85 22-78 70-73 46-140-70-18-95 44-147 102-25 27-51 40-73 70-29 38-15 41-57 87z"/>
  <path class="fil8" d="m7605 1936c273 425 696 255 906 325 144 49 137 141 219 218 77 29 203-144 204-147-5-145 30-174-69-278-149-157-361-132-554-80-139 37-202-20-312-37 38 81 68 67 124 113-9 9-1 8-23 21-59 36-243 22-304-10-126-65-173-220-179-230l-14 106z"/>
  <path class="fil6" d="m3505 6889c45 88 310 272 271 365-48-50-96-138-137-178-64-62-113-95-178-152l-133-89c29 87 51 51 110 111 44 46 128 94 125 158-50-40-98-120-162-128 38 98 498 583 598 671l111-26c-88-157-21-200-267-577-68-104-390-320-519-331-38-35-13-30-60-14 24 26 23 25 66 35 52 46 158 68 224 125 40 35 187 125 159 181-67-51-121-134-208-151-22-49-24-50-63-31l63 31zm-100-59c-32-48-23-34-81-58 32 58 14 44 81 58z"/>
  <path class="fil6" d="m4631 7172c31-51 39-46 93-68-20 57-16 58-93 68zm-123 253c-54 22-33 6-57 57 48-26 34-8 57-57 80-3 472-270 570-326 92-53 194-116 287-164 64-33 236-127 290-177-66-9-72-38-140-6-429 199-670 97-989 456-49 29-66 46-95 98 60-25 68-44 114-82 45-37 29-41 86-52-53 87-201 160-217 260 103-67 308-242 415-262-50 84-285 154-321 255zm-179 98l54-42c-43 4-49-11-54 42z"/>
  <path class="fil6" d="m7524 9572c201 88 583 187 821 156 2-94-46-224-123-277-40-13-376 18-498-15-209-57-168-47-200 137z"/>
  <path class="fil7" d="m8634 3912c21-31 12-40 39-82l105 15c226-310-77-890-227-490-26 68-43 280-38 304 9 45 3 72 11 116 11 63 35 132 111 137z"/>
  <path class="fil5" d="m7461 9729c151 125 618 309 864 309 0-99 11-92 25-194 16-112-33-50-223-69l-624-126c-28 36-31 51-42 80z"/>
  <path class="fil5" d="m3139 3478c33 98-10 7 55 164 52 124 111 344 225 461l211-88c-136-187-155-204-288-407-76-117-45-167-149-145-93 20 63-15-26 8-5 1-23 5-28 7z"/>
  <path class="fil7" d="m8368 4569c40 175 0 179 188 167 4-13 19-63 22-76 4-16 6-38 7-42 15-58-9-11 24-52 0 27-3 74 0 99 4 28-3 8 9 34 18 38 20 27 32 41 77-14 118-22 173-72 4-117-53-160-29-208 86 94 65 131 81 168l52-15c15-79-19-150-14-351-100 54-79 142-208 223-168 105-150 62-338 86z"/>
  <path class="fil9" d="m8717 4954l67-82c-130-2-275 67-305 209 320 56 249 71 497-58 0-119 5-129-25-240-53 43-67 35-109 89-32 41-55 74-125 83z"/>
  <path class="fil7" d="m8085 3512c-67 90 62 474 258 464l-22-96c40-32 40-27 68-61-44-48 2-68-98-207-50-70-127-129-207-101z"/>
  <path class="fil8" d="m8308 4785c-74 66-48 73-152 107 3 3 7 3 8 8 7 30 225 133 262 141 17-75 58-120 127-157 120-64 102-52 241-62 92-65 42-47 159-93l-2-57c-225 195-565 105-642 113z"/>
  <path class="fil2" d="m3189 1001c55 0 46-2 88 18l75 43-29 67c-92-81-174-53-292-66l39-28c56-33 63-34 119-34zm-1358-19c134-100 204 135 183 169-19-32-36-72-63-106-49-61-60-22-120-63zm-46-3l9 77c81 26 26 1 108-6 55 16 153 266 158 455 1 40-21 103 1 146 141-273-86-958-276-672zm945 348l-1 37 38 3c9-60 173-276 406-256 68 6 98 52 179 67 22-47 56-85 66-133l-41-30c-299-173-512 93-648 313z"/>
  <path class="fil8" d="m9300 3652c32-34 15 41 28-104 93 27 77 154 84 231 38-15 6 3 34-17 99-69-49-239-120-272-3-80 8-175 23-252 14-71 38-186 38-261-27 11-37-37-80 122-68 256-10 397-8 552z"/>
  <path class="fil6" d="m3743 3998c-9-58-148-211-204-285-93-123-152-259-229-280 58 135 134 283 229 390 28 31 69 161 203 175z"/>
  <path class="fil7" d="m5941 8058c96 1 70-74 147-25-33 101-84 5-172 76 90 56 245 22 235-105-61-51-63-28-148-34l108-62c40 45 1 23 42 38l38-23-22-57c-108-4-246 63-227 192zm-1154 579c35-20-11-24 63-10 12 63 3 25-10 45-43 43-81 62-140 60 7-72 24-67 87-95zm228-168c-121-70-125-167-140-193l-65 28c-3 38 39 231 54 275-99 6-239 63-201 182 112 47 192-49 252-127v-183c82 43 104 149 174 87 29-32-10-57-20-113-8-44-2-143-2-193-68 26-29-35-46 52-30 155 21 124-7 183zm100-164c2 47 10 48 25 96 30 95-18 72 50 91l9-211c-53-5-46-10-83 24zm106 331c20-78 122-146 194-163-21 88-80 212-194 163zm19-286l30 56c105 6 69-3 145-40-19 73-80 98-140 135-89 54-85 89-122 172 255 126 291-199 312-235 45-41 173-84 231-102 164-51 204-46 215-110-77-33-371 123-455 163-4-134-24-170-86-160l25 76-60 62c-67-78 0-98 12-173-86 60-74 65-108 159zm-153-144l36 52c64-31 70-37 20-89-27 9-42 8-56 36zm563-121c-53-35-12-10-103-3 22-116 82-97 81-169-117-11-127 38-150 134-11 46-28 87-18 143 0 1 17 65 18 66 19 59-13 21 30 43 42-59 4-154 120-148 12 95-10 28-17 98 98 12 75-108 40-164zm47-55c-57 51-19-1-32 55l27-1 31 107 128-2c46-52 41-35 38-107-81 25-8 48-113 84l-39-68c16-58 3-16 25-65 62-34 182-58 189-142l-123 60 75-104 4-39-59 3c-132 63-79 115-152 219z"/>
  <path class="fil7" d="m5781 7576c-54-4-31-10-105 25 58 156 32 147 82 174 65-80-51-109 114-190 29 63 31 83-1 145 121-12 84-348-91-153zm-1251 289c51 209 60 67 13 340-9 49-19 85-52 113-13-36-14-12 10-56l-58-5-4 107 81-1c34-39 26-42 42-83 39-94 130-56 27-153l27-44c32 38 59 134 95 191 47-47 19-5-30-198-19-77-44-148-53-229-52-3-52 7-99 18zm235 138l-44 47c11 50 14 19 20 78 6 69-17 50 26 106 93-38-5-39 35-142 44-113 88-33 113-107-89-44-32 49-150 18zm266-27l-5 87-72-7 26-33 51-105c-92 17-188 273-3 188 72-33 7 12 85-23-1-56-15-86-51-128l-30 22zm214-164l-35-1v31c53 27 81 97-4 132-76-44-33-109-32-163l36-51c38-77 68-81 76-175-31 15-124 17-151 181-19 119-38 161 55 253 130-3 205-121 55-207zm103-19c41 95-6 121 64 157 30-200 36-160-1-214l-63 57zm189-122c-17 28-31 44-36 77-17 98 17 94 21 98 63 61 26-12 170-26v-106l-57-12-13 20c-20 32-4 21-33 49l-35 32c-23-135 15-82 56-182l-22-1c-24 21-30 28-50 52z"/>
  <path class="fil4" d="m3031 1064c118 13 200-15 292 66l29-67-75-43c-42-21-33-18-88-18-56 0-63 2-119 34l-39 28z"/>
  <path class="fil2" d="m1775 2481c48 39 37 22 30 83l-80-19c10-50-8-49 51-65zm15 138c37-29 23-14 50-53l16-43c-99-168-211-45-169 39 17 34 73 67 102 58z"/>
  <path class="fil2" d="m3076 1500l37 37c-22 12 26 23-42 9-28-77-8-25 5-45zm-2154 920c-1-77-8-78 64-94l-64 94zm-65-40l92 95c188-283 270-198 450-103-8-73-28-90-95-123-106-52-172-87-345 14-44 26-70 78-103 118zm1885-290c-37 42-41 46-104 37 35-50 32-39 104-37zm-1451-162c49-54 34-100 110-144-13 52-19 53-39 101-23 56 7 61-71 43zm431-188c47 29 36 0 41 64-50-39-26-15-41-64zm-45-412c14-74 24-93 89-111-32 68-24 72-89 111zm147-105l-17-39-95-29c-35 53-62 121-92 180-22 44-24 60-40 101-29 73-43 38-15 108 68-34 170-245 259-321zm-49 648l37-110c-39-34-204-145-244-149 9 50 68 100 143 195 41 52 20 46 63 64zm-495-503c-30-21-25-12-39-50 55-19 56 16 98 82-32-16-29-12-58-32zm-79-16c98 68 173 113 270 190 21-48 21-38-15-81l-189-199c-52 31-41 29-66 90zm49 598l100 33 178-374c-106 29-273 295-278 341zm995-230c70-16 45-9 88-70 36-51 60-36 30-101-28 24-100 132-118 171zm497 369c9-75 27-33 19-127l-105-40c84-21 97-12 153 28 0 66-13 104-67 139zm-410 321c69-36 52-180 120-275 75-105 128-136 243-152l30 50-112 10-48 127c184 16 293-43 284-231l-74-66c-152-3-241 24-331 158-40 60-115 307-113 378zm683-892l12 46c137 90 193-90 35-105l-47 59z"/>
  <path class="fil10" d="m8189 4639l156 78 30-108c-95 36-127 30-200-34-21 24-18-35-18 47l33 16z"/>
  <path class="fil2" d="m2330 2757c-52 3-29 13-43-32 43 11 22-12 43 32zm47 5c-14-85-123-127-133-34-11 103 82 83 133 34z"/>
  <path class="fil2" d="m922 1761c55-49 32-24 65-1-18 14 14 52-65 1zm-9 52l85 17c27-61 47-61 18-119-85-38-142 16-103 102z"/>
  <path class="fil11" d="m1831 982c60 41 71 2 120 63 27 34 44 74 63 106 21-34-49-269-183-169z"/>
  <path class="fil8" d="m5701 10406c69-46 64-92 64-173-42 52-4 31-62 74-41 30-42 24-47 73l45 27z"/>
  <path class="fil5" d="m2742 2090c54-34 68-73 67-139-56-40-70-50-153-28l105 40c8 94-10 52-19 127z"/>
  <path class="fil12" d="m2436 1417c54-23 128-122 102-172-54 34-90 113-102 172z"/>
  <path class="fil2" d="m961 3001c3-3 9-14 10-11s7-8 9-11l25-65c7-40 5-74-8-105-57 50-38 109-37 192z"/>
  <path class="fil13" d="m998 2715c52-52 33-142 33-214-49 41-17 26-28 99-9 60-39 50-5 115z"/>
  <path class="fil14" d="m1072 2784c55 27 116 32 168 9-32-38-10-27-66-32-62-5-67-2-102 24z"/>
  <path class="fil5" d="m1291 1928c78 18 48 13 71-43 20-48 26-49 39-101-76 44-61 90-110 144z"/>
  <path class="fil15" d="m811 2761c38 37 114 37 152 0-38-33-113-33-152 0z"/>
  <path class="fil4" d="m1804 2565c7-62 18-45-30-83-59 16-40 15-51 65l80 19z"/>
  <path class="fil16" d="m8671 2582c49-13 52-21 104 4-5-72-31-69-101-57l-3 53z"/>
  <path class="fil16" d="m3331 13858c-69-33-12-40-84-63l-4 77c67 16 51 20 88-14z"/>
  <path class="fil17" d="m1069 2721c73-16 75-34 91-111-53 32-78 49-91 111z"/>
  <path class="fil7" d="m5332 7668c63 2 56 8 85-49l-26-28c-41 16-52 26-59 77z"/>
  <path class="fil18" d="m2463 1490c42 21 88 18 124 0-20-13-40-28-67-31-82-7-50 23-57 31z"/>
  <path class="fil18" d="m2249 1492c39 16 86 19 126-2-8-22 15-39-56-30-21 3-58 23-70 32z"/>
  <path class="fil14" d="m940 2681c-23-59-27-44-89-71 10 42-15 23 29 64 45 42 49 11 60 7z"/>
  <path class="fil4" d="m1678 1329c65-39 58-43 89-111-65 18-75 37-89 111z"/>
  <path class="fil17" d="m2391 1436c4-51 16-16-18-65-45-66 1-25-65-45 30 75 24 53 82 110z"/>
  <path class="fil15" d="m2460 1652c17-20 32 20 17-61-7-36-20-50-37-67-5 70-13 68 19 128z"/>
  <path class="fil11" d="m1241 1318c14 38 9 29 39 50 29 20 27 16 58 32-41-66-43-101-98-82z"/>
  <path class="fil19" d="m880 2910c57-14 58-33 56-82-46 24-59 25-56 82z"/>
  <path class="fil5" d="m2742 2090c-72-2-69-13-104 37 63 9 67 6 104-37z"/>
  <path class="fil12" d="m4631 7172c77-10 73-11 93-68-54 23-61 17-93 68z"/>
  <path class="fil1" d="m4073 7699c8 4-19 29 48 12 23-6 22-15 32-27-34-22-47-25-80 16z"/>
  <path class="fil4" d="m987 2326c-72 16-65 16-64 94l64-94z"/>
  <path class="fil5" d="m922 1761c79 50 47 13 65-1-34-23-10-48-65 1z"/>
  <path class="fil18" d="m1086 2916c7-62 6-55-56-67l56 67z"/>
  <path class="fil11" d="m1764 1805c-5-65 6-36-41-64 15 49-9 25 41 64z"/>
  <path class="fil20" d="m8033 3545c18-20 20 28 13-38l-58-17v-31l-19 31 62 24 2 31z"/>
  <path class="fil21" d="m5586 10805l-36 4c44 41 20 27 64 30l-28-34z"/>
  <path class="fil5" d="m2330 2757c-21-45 0-21-43-32 14 45-9 36 43 32z"/>
  <path class="fil22" d="m8050 3240c11-43 0-26 31-55l-47 16c-2 74-2 12 17 39z"/>
  <path class="fil11" d="m2768 1367l-38-3 1-37c-13 20-21-19-10 44 65 19 29 3 47-4z"/>
  <path class="fil11" d="m3113 1536l-39-1 2-36c-13 21-33-31-5 45 68 14 20 3 42-9z"/>
  <path class="fil23" d="m6661 14525c28-25 16-17 56-28-18-20 29-23-35-14l-21 41z"/>
  <path class="fil24" d="m9664 14639c17-19 34-35 52-51l-44 7-8 44z"/>
  <path class="fil25" d="m8189 4639l-33-16c0-83-3-23 18-47l-21-17-9 71 45 10z"/>
  <path class="fil25" d="m9410 14909l47-7 7-44c-26 30-22 25-54 51z"/>
  <path class="fil25" d="m2049 11956c-30-25-28-23-53-51l7 44 46 7z"/>
  <polygon points="5361 6238 5412 6185 5371 6194" class="fil24"/>
  <path class="fil23" d="m8636 2416l-5-46-45-8c31 27 25 21 50 54z"/>
  <polygon points="4984 13801 5025 13792 5035 13748" class="fil26"/>
  <path class="fil25" d="m5556 11210l-7-43-45-11c21 18 36 35 53 54z"/>
  <path class="fil25" d="m7066 10350c-24-19-33-27-54-49l11 44 43 5z"/>
  <path class="fil24" d="m3272 2348l-8-41-44-8c17 16 35 32 52 50z"/>
  <path class="fil27" d="m1884 11693l-5-40 41 5c-22-18 19-19-45-17-10 50-8 17 8 51z"/>
  <path class="fil2" d="m1790 2619l44-6 7-47c-28 39-13 24-50 53z"/>
  <polygon points="4448 9841 4438 9800 4397 9791" class="fil24"/>
  <polyline points="2027 3334 2070 3324 2085 3372" class="fil28"/>
  <polygon points="3113 1536 3076 1500 3074 1536" class="fil11"/>
  <polygon points="3027 1565 3015 1519 2997 1533" class="fil11"/>
  <polygon points="1825 1223 1842 1209 1808 1184" class="fil25"/>
 </g>
</svg>
