<?xml version="1.0" encoding="UTF-8" standalone="no"?>
<!DOCTYPE svg  PUBLIC '-//W3C//DTD SVG 1.1//EN'  'http://www.w3.org/Graphics/SVG/1.1/DTD/svg11.dtd'>
<!-- Creator: CorelDRAW X5 -->
<svg style="shape-rendering:geometricPrecision;text-rendering:geometricPrecision;image-rendering:optimizeQuality" xmlns="http://www.w3.org/2000/svg" fill-rule="evenodd" xml:space="preserve" height="500px" width="500px" clip-rule="evenodd" xmlns:xlink="http://www.w3.org/1999/xlink" viewBox="0 0 12764 16208">
 <defs>
  <style type="text/css">
   <![CDATA[
    .fil8 {fill:#030303}
    .fil9 {fill:#060606}
    .fil11 {fill:#090909}
    .fil13 {fill:#140B02}
    .fil0 {fill:rgb(39, 39, 39)}
    .fil12 {fill:#3AB6AD}
    .fil3 {fill:#3CB6B1}
    .fil23 {fill:#42B7B4}
    .fil21 {fill:#725413}
    .fil18 {fill:#838383}
    .fil19 {fill:#8C6B04}
    .fil22 {fill:#8C8C8C}
    .fil20 {fill:#948B07}
    .fil16 {fill:#9B6D03}
    .fil15 {fill:#AA7601}
    .fil2 {fill:#AD7900}
    .fil1 {fill:#AE7900}
    .fil17 {fill:#AE7A05}
    .fil4 {fill:#EB6A6D}
    .fil6 {fill:#F5E402}
    .fil14 {fill:#FAFAFA}
    .fil7 {fill:#FCDDC8}
    .fil10 {fill:#FCFCFC}
    .fil5 {fill:#FEFEFE}
   ]]>
  </style>
 </defs>
 <g id="Layer_x0020_1">
  <path class="fil0" d="m11233 15276h33c94-121 121-461 139-652 11-116 26-248 28-362 3-131 5-244 22-371 29-218 76-456 129-659 121-461 95-358 367-285 146 40 217 11 282-81 52-73 95-173 112-279 28-174-15-334-116-464-24-31-70-69-81-110-78-285-261-563-545-633-191-47-235 30-300 68-104-62-196-144-348-173-147-27-280 42-311 193-129 15-205 116-254 213-50 98-96 220-122 339-78 359 11 421 329 542 188 72 333 140 368 335 36 201 39 436-14 628-22 81-95 278-138 325-40-30-97-128-123-169-325-497-646-1193-829-1760-96-298-165-544-432-717-114-74-244-146-368-205 12-46 47-110 68-159 66-158 130-317 186-480 88-257 276-839 125-1110-180-323-918-50-1106-101-64-17-56-106-33-164 21-53 54-99 82-138 155-211 499-477 736-598 151-77 494-213 583-310 169-184 11-401-415-308-455 99-893 421-1123 657-142 146-265 307-387 506-100 162-226 396-275 611-159 692 790 88 1203 136 305 36 210 393 133 611-76 215-163 414-269 617-108-31-178-29-259 32-70 52-120 98-183 150-124 102-216 222-329 331-36-14-82-77-114-106-114-105-236-187-382-256-147-69-326-121-495-144-56-8-146-8-194-18-45-58-141-484-161-592-84-446-83-905-134-1356-26-229-67-392-134-606 26-38 111-97 157-131 264-194 606-327 942-349 43-3 94 1 134-7 79-17 101-87 135-156 239-480 422-884 629-1378 30-71 53-140 84-207s49-137 79-205c243-34 458-109 612-233s276-331 115-576c-28-43-16-32-7-79 6-32 4-68-3-96-14-57-42-104-69-143-47-66-78-51-44-128 103-237 229-477 356-694 118-201 202-323 345-499 33-40 68-70 106-107 25-24 85-71 130-83 67-19 116 28 98 97-15 56-31 107-43 162-34 158-34 244 59 331 99 92 265 185 408 221 112 29 73 5 146 69 68 59 164 114 272 146 118 35 257 39 375-2 39-14 39-21 68-38 58-34 248 56 357-168 21-43 78-68 112-101 191-192 183-363 26-572-169-226-515-384-799-464-76-21-94-16-127-85-24-50-46-92-71-141-49-95-91-192-140-279-88-156-199-459-452-340-258 121-461 431-596 673-46 82-97 206-153 265l-12-31c-59-208-235 113-274 177-82 133-161 265-243 402-162 270-335 529-508 776-46-1-102-14-154-18-177-11-298 27-462 50 15-70 32-58 95-78 221-67 743-247 448-538-43-42-133-113-116-216 7-43 38-94 16-138-46-87-275-57-327 67-48 114 13 173 57 239-57 0-115 0-172 3-109 5-45 8-122-29 1-56 14-73-24-111-71-73-202-91-302-101-65-6-143-41-214-56-48-10-194-28-223-45 28-51 49-84 33-163-18-85-65-81-84-127 55-87 597 1 571-225-20-168-494-133-650-107-198 32-468 114-582 220-67 62-98 186-95 311 3 148 34 208 79 318-257 159-478 318-686 497-235 203-383 365-552 632-77 121-153 241-230 366-152 248-289 499-431 753-36 64-64 133-100 198-24 44-46 31-96 54-30 14-67 47-94 50-24-37-8 11-10-45-9-215-29-712-168-844-97-92-139-53-277-56-69-1-91-23-118-60-26-34-52-64-77-100-136-198-264-471-361-696-71-164-140-328-210-500-174-429-284-891-426-1332-17-51-20-98-87-82-49 12-72 46-119 52-91-124-148-456-274-625-50-67-102-95-196-37-153 95-301 333-393 500-18 32-35 63-52 97-15 31-28 74-48 103-54-16-108-42-169-61-139-42-438-126-554-48-153 104-175 433-116 611 10 31 24 49 33 76-23 31-56 56-72 108-63 197 113 456 265 554 103 67 155 49 278 34 19 29 82 95 107 119 243 236 389-8 447-25 6-2 452 63 510-288 31-184-25-334-118-477-16-25-76-101-82-116-24-62 123-244 184-149 115 179 265 702 301 911 83 474 113 1023 102 1519-6 258-6 540 16 795 55 639 252 313 313 282 39 27 60 112 74 154 48 140 126 405 123 543-61 57-127 101-187 159-21 20-35 39-55 58-241 232-412 532-488 888-126 588 13 1040 241 1492 159 315 360 545 579 797 197 227 478 471 721 648 70 51 214 137 259 202 37 54 129 232 151 302-62-11-165-54-231-74-173-53-468-144-647-103-45 10-60 28-79 70-98 224-88 848-49 1111 33 229 86 295 210 400 108 92 222 186 344 266 120 79 250 155 396 214 94 38 380 128 438 171-89-9-341-84-441-111-396-106-434-81-765-327-183-136-340-303-550-198-187 94-287 261-348 475-10 35-32 55-48 94-59 141-23 318 55 441 57 90 44 158 129 275 63 88 181 189 332 222 33 7 95 3 119 23 26 22 34 39 75 60 60 30 152 44 230 40 593-31 932-275 1302-344 276-51 846-52 984-109 162-67 1-260-50-357 79 5 341 85 433 110 143 39 283 78 428 112 354 84 587 104 949 22 281-64 563-160 826-252 307-108 702-261 1021-326 97-20 126 5 204 41 353 164 649 453 912 705l134 136c39 41 90 91 131 139 82 95 176 184 255 284 78 98 398 463 481 533 15 13 22 14 36 29z"/>
  <path class="fil1" d="m6703 6394c-39 416-537 798-658 530-26-57-10-134 12-189 22-56 76-113 88-145-32-37-61-5-101 19-389 236-923 776-1147 1172-18 31-45 86-65 106 31-325 651-955 661-979-163-86-329-177-503-249-127-52-430-164-583-168-54 79-44 109-136 176-73 54-133 61-240 71-15 7-195 249-280 302-45 28-115 16-169 5-104-22-202-57-299-91-204-71-187-87-286-30-304 175-581 465-722 839-349 931 77 1802 533 2339 127 149 222 254 374 406 187 187 417 378 619 551 32 28 63 55 98 93 34 36 307 557 348 631 228 412 468 822 763 1187 146 181 304 347 485 494 36 29 81 58 111 87-306-86-665-504-857-766-251-343-463-726-656-1110-21-43-31-39-78-58-150-59-740-251-869-217-111 29-79 642-73 728 11 157 25 329 66 473 76 269 645 623 896 735 201 90 602 242 696 393-49-16-101-42-154-56-288-78-577-136-862-224-112-34-210-60-315-117-153-84-445-299-537-328-156-50-226 17-305 92-52 49-147 184-178 258 14-3 153-69 197-83 206-66 398-73 590 31 17 9 31 17 46 25 21 11 34 19 46 35-133-36-161-76-336-84-128-6-255 14-361 56-83 33-219 104-247 172-38 91-23 296 40 351 29-17 51-65 72-90 78-91 165-161 281-223 138-73 395-134 548-42-182-2-274-25-454 57-138 63-226 143-302 230-114 132-126 208-12 353 53 67 189 205 319 208-3-154-59-267 19-440 200-444 940-163 1048 11-34-16-57-35-96-55-108-53-216-96-339-122-181-38-389-24-487 86-99 111-108 346-46 503 99 252 781 40 978-18 78-23 157-43 234-71 304-110 717-162 1045-188 74-6 223-2 270-43 19-56-35-149-59-189-29-49-65-129-123-147-286-85-520-171-787-291-282-128-630-544-815-795-76-103-148-207-226-313-56-76-113-159-171-233-17-21-43-46-59-70 56 38 95 65 138 112 125 137 232 297 349 438 372 449 557 708 1160 925 523 188 1077 364 1636 449 370 56 578 21 921-62 271-66 546-156 800-243 191-66 394-134 593-186 50-13 184-34 215-46-33-23-151-45-202-53-88-15-152-14-246-15l25-15c27-11 59-15 88-19 44-7 91-11 138-11 90 0 175 13 259 33 289 70 544 222 765 398 105 84 206 191 305 283 152 142 293 288 424 449 49 61 92 104 139 159 131 155 265 320 389 483 25 33 105 147 139 156 58-86 91-796 99-954 16-331 77-605 157-907 35-131 77-285 133-399 32-65 56-117 150-116 157 2 299 102 417-56 103-138 54-579-42-645-40 111-244 323-363 339 38-61 177-139 248-254 85-139 10-272-54-387-96-175-210-318-404-368-102-26-137-12-222 11 8 39 68 74 90 99 217 235 324 498 121 787-29 42-55 65-85 99 56-135 155-230 122-434-43-270-449-692-742-673-80 5-152 60-159 132 96 57 120 30 248 137 259 217 364 733 265 828-8-223-21-347-119-521-70-124-192-264-310-329-201-110-294 54-350 212-37 102-149 410-84 520 38 65 110 94 188 132 68 32 140 72 210 109 144 76 250 160 297 341 41 160 48 417 6 579-31 121-140 388-236 413-102-32-366-471-443-610-128-232-246-453-359-698-112-242-203-488-302-747-50-130-90-257-161-364-81-122-159-156-296-236-221-130-442-256-683-367-184-85-183-63-328 93-169 182-333 372-494 563-166 198-324 368-571 479-58 26-128 56-198 65-117 15-121-49-98-142l6 12c8 27 0 64 21 82 51 40 230-60 266-82 141-88 197-147 309-251 65-60 218-249 246-323-20-35-99-105-132-139-101-101-369-275-507-308-62 41-198 269-247 363-94 181-373 708-634 532-100-67-164-266-207-411-148-502-139-1093 32-1603 111-330 223-355 233-385-3-194-26-418-53-608-14-98-78-487-125-531-59 54-140 152-187 229-23 37-135 240-134 275-21-150 140-391 203-469 98-123 222-232 357-331 257-189 577-348 990-385 96-9 105-46 171-171 201-381 375-772 553-1164 34-76 71-159 104-236 23-54 97-204 103-248-96 20-57 88-151 193-53 59-142 105-249 86-101-18-163-72-194-154-16-43-25-95-26-145-1-53 21-121 19-153-169 2-110-24-264 163-158 191-349 378-548 530-23 18-38 29-62 44-22 14-48 25-70 43zm-2260 7696c49-3 505-90 586-106 79-16 222-45 251-97 39-70-84-181-139-189 176 185 165 188-170 258-153 32-406 75-528 135zm6683 662c71-122 102-514 82-687-40 92-46 530-113 635-114-19-530-428-648-540-34-32-179-181-202-195 58 134 703 794 881 787zm429-2227c-148 48-328 369-351 519-15 97 27 182 125 132 94-48 220-201 273-301 31-58 65-139 77-214 16-95-26-168-125-136zm-5704-5370c-100 16-284 66-298 144-17 91 138 204 212 230 127 43 185-58 241-179 79-169 47-228-155-195z"/>
  <path class="fil2" d="m6348 3465c-60-178 30-207 36-296 1-12-39-96-48-133-17-73-5-101-1-169-185 67-188 390-123 597l54 1c-17 37-262 210-312 251-320 261-612 482-857 831-78 110-145 226-219 341-73 114-141 231-212 349-70 116-140 234-206 354-42 77-182 300-198 377 64 14 74 45 106 98 302 46 555 92 822 192 185 69 352 146 518 241 55 32 108 71 160 96 55-25 34-56 36-179-145-18-196-38-293-111-245-184-364-586-288-901 77-318 275-546 508-727 47-36 189-141 251-162-18 28-75 66-103 90-242 209-491 451-570 778-92 383 155 1030 550 940l-22-61c48 0 54 76 107 12-17-40-58-41-53-82 49 2 55 41 90 54l29-20c-14-20-100-89-142-144-35-46-89-127-88-207 10 8 4 1 12 12 83 99 132 340 486 336 247-3 417-188 270-269-45-25-119-26-155-56-15-111 187-173 283-204 33-11 359-95 383-115-31-13-85-25-120-37-67-22-62-27-130-6-159 49-571 232-549 416l156 16c-152 79-400-12-504-222-93-186-51-467 18-656 91-245 222-421 369-602 67-82 91-146 177-220 33-28 84-58 113-86-69-48-203-2-261 25 32-108 268-109 349-35 28 26 38 94-15 100 9-50 17-46-30-80-34 15-340 246-206 393 112 123 496 44 405 236-36 75-92 113-126 207-31 85-24 208 17 282 134 242 830 266 1074 186 195-64 205-293 181-470-40-296-251-743 360-661l141 16c-263-81-422-118-712-71-126 20-260 79-330 53-97-37-199-87-250-151 74-10 174 92 253 112-24-132-112-129-143-147 173-36 165 79 207 146 71-73 49-387-54-412-36-9-118 102-141 133l-28 33c12-49 64-123 92-153 50-53 84-85 145-11 76 92 70 269 38 395 37-6 39-19 50-58 49-162 26-107 190-165 119-42 230-90 324-152 260-170-8-250-65-416-31-89 33-157 9-208-38-30-101-16-138 4-36 19-67 56-76 103-21 116 65 191 104 241-54 32-183 20-251 23-53 2-65 6-76 10l-6 3c12 46 50 14 85 74 55 93 84 353-70 338-46-65-1-218-62-277-41-8-40 5-78 5-8-46 38-73 60-105-13-41-33-81-61-106-60 10-66 72-80-43-127-83-331-19-415-92-3-53 22-59 31-97-55-15-287-61-338-52-83 14-166 97-311 77 99-77 378-135 365-295-5-61-52-99-65-157 36-53 138-87 222-101 91-15 209-12 292-35 136-37 21-143-73-130-68 10-189 48-256 69-278 87-427 199-541 438-18 37-32 75-44 118-10 34-15 115-38 140zm458 320c153-67 386-179 583-114 124 41 84 141 25 229-42 62-119 155-185 185 14-57 119-193-82-244-77-19-261-15-337 8-1 0 11-11-23 9 107-2 203-2 301 27 33 10 92 37 106 57 27 40-4 100-16 141-15-12-27-29-49-48-17-15-41-30-63-43-131-76-357-146-506-114 23 20 123 22 182 33 136 26 273 66 370 162 32 31 30 28 23 77 147-14 495-348 328-478-179-139-549-5-658 112z"/>
  <path class="fil2" d="m1180 2463c-77-1-350-105-582-111-120-3-170 44-203 147-31 95-28 211-14 313 17 117 40 176 118 223 160 97 385 4 523-100 65-49 107-110 150-194 27 58-77 183-100 208-130 140-382 247-589 159-42-18-75-49-105-60-89 120 13 337 82 417 39 45 92 96 151 133 242 152 522-280 598-476 33-84 30-157 43-248 72 158-68 482-196 626l-145 145c33 73 115 160 212 180 166 35 321-253 356-414 33-155 3-213-21-348 69 60 97 230 81 352-19 138-67 221-122 313 75-2 228-53 283-88 161-103 121-397 42-570-34-75-136-159-96-264 19-50 145-190 227-115 130 120 304 622 344 798 173 775 152 1349 151 2120 0 138-11 627 86 678 79 25 170-237 309 137 28 74 49 147 70 228 13 51 39 210 58 241 35-14 63-37 100-51 3-59-7-57 25-101 46-63 135-159 185-219 184-222 188-159 360-165 7-126 48-139 100-219 26-40 26-70 75-88 44-17 98-10 148-15-5-131-36-282-64-404-133 15-382 117-534 160-57 16-162 49-175-26-22-123 141-390 214-488 19-25 32-43 50-64 23-28 40-36 56-66-194-69-534-809-604-977-242-578-375-1048-533-1645-12-45-19-128-64-135-53-9-99 64-148 21-70-60-247-636-374-618-134 19-472 510-526 669zm1787 4134c66-15 149-196 182-273 51-118 110-261-33-309-54-18-143-18-187 10-41 26-38 127-39 187-1 97 5 340 77 384z"/>
  <path class="fil2" d="m9401 2993c-38-32-26-79-50-123-46 30-555 875-650 1033-35 58-198 318-213 352 21 13 125 42 210 93 78 47 105 84 164 141 1-1 3-5 4-4 2 6 24-41 26-45l81-167c154-312 524-982 803-1155 148-92 174-33 236 2 39-65 24-131 7-198 141 59-37 464-23 624s310 280 447 313c108 26 228 28 330-7 107-37 167-86 151-228-17-142-138-259-254-318-50-25-98-31-141-51 236-16 411 143 460 329 33 126-1 246-73 304-101 81-269 64-306 90 95 93 436 148 570 97 71-27 83-66 85-154 4-134-39-278-87-386-57-130-116-192-200-272 110 31 232 192 277 295 74 171 85 293 66 495 56-2 103-22 149-43 48-22 77-43 85-106 26-208-80-399-208-537-29-32-156-137-210-159 114-3 268 138 337 224 64 79 115 176 147 279 5 17 11 37 15 57l9 47c5 13 3 9 8 15 317-298 22-571-263-759-214-141-228-120-443-209-124-51-107-46-171-155-86-146-292-524-382-604-157-140-351 72-424 142-246 237-316 383-479 663-22 37-42 81-86 84zm1017-242c-115 21-112 89-50 155 87 91 441 307 607 287 99-12 108-105 55-175-36-47-104-96-164-134-105-66-285-161-448-132z"/>
  <path class="fil2" d="m8643 10801l339 158c49-57 218-505 254-615 73-220 141-451 166-699 11-113 24-301-43-376-155-173-502-117-711-87-95 14-310 57-381 1-88-69-18-243 29-318 183-293 647-624 970-767 118-52 347-129 413-233 36-57 13-122-26-153-203-157-792 146-965 261-397 262-604 474-850 881-92 152-223 407-261 611-36 196 41 219 221 185 120-22 231-56 346-86 200-53 540-151 729-36 361 218-221 1187-230 1273z"/>
  <path class="fil2" d="m8109 5363c-89 234-365 221-399 251-85 74 4 459 253 366 90-33 133-91 170-179 32-78 139-72 255-100 238-57 550-179 648-402 33-75 44-224-2-297-27 28-31 82-155 162-202 130-527 177-768 198z"/>
  <path class="fil3" d="m3974 6271c352 18 610 64 916 169 204 71 372 152 559 250 44 23 144 89 179 98 61-40 119-101 178-141-27-46-350-207-397-228-313-142-628-228-978-273-77-10-201-38-270-10-67 27-161 82-186 135z"/>
  <path class="fil4" d="m6103 5773c68-82 45-77 145-152 127-95 317-155 346-264 22-83-79-135-158-134-21 23-75 148-198 203 25-36 62-61 113-142 66-103 141-300 8-363-35-16-75-20-115-15-49 5-68 13-86 51-95 213-202 540-86 775 4 8 10 20 12 23 12 17 5 9 17 17z"/>
  <path class="fil5" d="m6545 5880c70 41 176 17 205 119 28 98-36 197-84 231-56 40-161 75-244 81-137 10-173-22-270-59l-22 39c50 54 76 76 114 115 40-1 146-32 193-41 151-32 245-38 354-121 60-45 142-110 195-160 96-91 354-371 387-454-192 6-745 146-829 251z"/>
  <path class="fil2" d="m10343 2799c-3 145 646 473 695 326 29-88-205-226-276-265-120-66-281-128-419-61z"/>
  <path class="fil2" d="m11571 12550c-173 46-490 711-259 594 103-52 186-170 244-274 28-51 61-113 82-173 23-65 38-175-67-147z"/>
  <path class="fil3" d="m3182 6766c44 37 347 128 429 139 55 7 63-12 94-40 27-24 46-45 69-73 38-46 102-110 129-159-46 23-66 33-127 42-18 86-77 175-148 198-76 25-215-44-270-71 30-70 266-108 337-150-42-70-10-71 16-132-59-13-125-20-184-30-107-17-90-4-150 48-33 29-186 182-195 229z"/>
  <path class="fil6" d="m3922 6482c-18 2-15-4-13 13 19 15 14 21 30 37 22 22 26 9 50 27 8 83-219 335-322 375-100 40-468-107-523-153-5-70 155-231 203-274 59-54 58-72 173-54 65 10 143 32 204 34 1-27 4-26-7-48-54-15-182-31-240-37-108-12-135 52-180 98-41 42-245 239-252 301 53 42 563 232 654 179 88-51 375-356 397-463l-176-36z"/>
  <path class="fil3" d="m3908 6372c341-5 649 49 941 152 135 48 262 102 385 161 61 29 119 62 176 93 115 63 139 103 174 45-24-38-306-180-341-198-120-60-248-110-381-157-254-90-626-164-925-157-14 24-23 24-30 61z"/>
  <path class="fil7" d="m6403 3134c53-58 75-173 303-303 192-109 413-132 457-157-169-11-415 42-564 85-40 12-80 24-118 38-44 16-79 19-96 67-30 84-17 196 19 270z"/>
  <path class="fil8" d="m2809 9139c-98-46-209-213-236-346-37-175 6-349 65-492 86-209 275-448 470-559 30-17 73-34 96-55-248 22-523 383-611 611-92 237-139 502 41 717 32 38 112 106 176 123z"/>
  <path class="fil6" d="m3832 6624c33-5 47-13 63-35-26-27-39-23-54-72-49-161 121-333 242-402 26-15 59-30 92-43 50-19 75-7 127-10-14-91-257-70-396 116-70 93-148 204-130 340 8 63 27 70 56 106z"/>
  <path class="fil9" d="m3402 6611c-19-10-19-15-37-27-30 10-53 38-73 61-18 21-55 48-58 80 31 32 126 23 169 10 59-17 56-70 89-112 68 18 35 48 115-10 57-41 85-63 17-85-220-71-194 19-223 83z"/>
  <path class="fil8" d="m2530 8048c81-76 94-104 214-207 76-65 156-122 248-177 142-84 282-145 444-194l129-34c6-1 19-4 23-6 25-10 11-4 21-13-226-3-492 121-644 213-165 100-355 253-435 419z"/>
  <path class="fil6" d="m3417 6795c27 33 163 65 219 43 47-19 101-95 112-162-70 16-273 87-330 119z"/>
  <path class="fil3" d="m3638 6301c181-27 105 5 191-107 17-22 52-60 59-86h-125c-35 44-110 124-125 193z"/>
  <path class="fil6" d="m3416 6654c-37-12-21-20-51-41-19 13-83 80-91 101 180 23 142-25 200-130 34 4 34 16 62 37 27-7 80-44 95-71-62-8-105-28-172-18-16 38-26 84-42 120z"/>
  <path class="fil6" d="m4070 6692c131-13 275-114 293-215l-55-11c-42 61-40 85-100 129-64 46-114 12-139 97z"/>
  <path class="fil2" d="m4138 6574c44-10 110-70 113-118-80-7-167-21-247-15 67 42 159 23 134 133z"/>
  <path class="fil10" d="m6046 6368l47 87 102-33c-29-39-65-65-99-92l-50 38z"/>
  <path class="fil11" d="m3517 6773c15 47 168 53 171-46-31-1-152 30-171 46z"/>
  <path class="fil12" d="m3641 6362c21 14 58 25 86 26l22-61c-40 0-83 7-108 35z"/>
  <path class="fil11" d="m5736 6069c44 6 97-29 67-60-29-30-76 5-67 60z"/>
  <path class="fil13" d="m5662 5831c-44-14-91 16-66 52 15 23 81 10 66-52z"/>
  <path class="fil14" d="m5980 6507l66-29c-7-20-29-60-50-74l-16 104z"/>
  <path class="fil15" d="m3781 6636c-4-17-38-67-54-78-42 50-14 82 54 78z"/>
  <path class="fil12" d="m3577 6780c43 7 63 14 72-31-17 2-28 4-43 10-24 9-18 6-30 21z"/>
  <path class="fil16" d="m6159 6561c23 14 33-3 43-21-8 1-17 0-25 3-31 11-13 1-18 18z"/>
  <path class="fil17" d="m5613 5866c28 15 27 6 32-24-23 4-31 0-32 24z"/>
  <path class="fil18" d="m494 4152c11 0 8-2 6 9 25-12 18 0 27-32-28 7-20-1-32 23z"/>
  <path class="fil18" d="m10844 1469c-10 0-8 3-8-7-37 13-10 6-33 26 7 0 11 2 19-1 19-7 12-5 22-17z"/>
  <path class="fil19" d="m5758 6048c30-4 24-3 25-25-27 4-24-3-25 25z"/>
  <path class="fil20" d="m3909 6495c-2-17-6-12 13-13-21-11-25-16-45-6l32 19z"/>
  <path class="fil21" d="m3904 6545c13-27 3-20-15-27 0 31-7 17 15 27z"/>
  <path class="fil22" d="m11595 2994l-2-10-27 11c1 1-5 6 14 4 29-3 6-1 15-5z"/>
  <path class="fil23" d="m3948 6588c21-12 6 3 17-23-25 11-14-6-17 23z"/>
 </g>
</svg>
