<?xml version="1.0" encoding="UTF-8" standalone="no"?>
<!DOCTYPE svg  PUBLIC '-//W3C//DTD SVG 1.1//EN'  'http://www.w3.org/Graphics/SVG/1.1/DTD/svg11.dtd'>
<!-- Creator: CorelDRAW X5 -->
<svg style="shape-rendering:geometricPrecision;text-rendering:geometricPrecision;image-rendering:optimizeQuality" xmlns="http://www.w3.org/2000/svg" fill-rule="evenodd" xml:space="preserve" height="500px" width="500px" version="1.0" clip-rule="evenodd" xmlns:xlink="http://www.w3.org/1999/xlink" viewBox="0 0 12764 16208">
 <defs>
  <style type="text/css">
   <![CDATA[
    .fil4 {fill:black}
    .fil0 {fill:rgb(39, 39, 39)}
    .fil7 {fill:#990000}
    .fil1 {fill:#A7CC31}
    .fil3 {fill:#E3E67D}
    .fil6 {fill:#FDB002}
    .fil8 {fill:#FF6666}
    .fil5 {fill:#FF9999}
    .fil2 {fill:white}
   ]]>
  </style>
 </defs>
 <g id="Layer_x0020_1">
  <path class="fil0" d="m5939 1212c-414 91-786 418-1115 980-56 95-141 217-190 273-74 83-114 108-259 155-407 134-579 277-782 660-48 91-89 168-91 172-2 2-91-10-199-29-128-25-302-35-515-35-381 0-645 48-939 168-176 72-190 83-254 190-223 368-399 1055-432 1686l-14 248-103 103c-236 236-294 583-145 898 35 72 120 182 232 298l176 182-6 108c-10 199-97 484-265 879-14 35 215-79 366-182 159-110 410-372 534-565l105-161 52 81c97 155 147 420 118 639-10 85-8 130 6 130 10 0 68-50 128-112 176-180 308-503 372-900 31-196 56-271 74-238 6 10-48 350-120 753s-130 794-130 869c-2 244 81 459 285 745 184 252 366 523 403 594 29 58 31 137 19 685l-12 616 60 41c56 39 228 112 335 143 37 10 46 27 46 93 0 105-31 114-360 97-416-23-709-103-904-246-46-35-58-64-68-170-35-300-116-482-248-561-176-103-358-87-517 48-52 41-118 95-149 116-64 46-151 228-213 447-54 199-168 736-168 798 0 27 27 81 62 118l62 70-74 215c-215 637-405 1344-432 1601-27 273 56 563 211 734 174 192 341 261 844 341 498 81 887 118 1227 122 283 2 321-2 345-35 27-37 21-108-17-153-10-14-23-93-25-176-19-387-203-743-443-850-50-23-172-56-269-74l-178-35-66-134c-105-213-137-407-139-840 0-207 4-381 10-387 4-4 77 14 159 41 358 116 945 201 1411 201 256 0 319-6 422-43 240-89 414-263 511-519 56-143 79-534 41-707-25-118-27-116 70-174 31-19 31-33 0-172-52-246-74-589-52-798 31-302 35-308 234-372 132-43 296-68 749-116 492-52 581-66 604-97 14-21 33-48 43-60 31-35 529-99 579-72 58 31 120 190 190 486 68 283 81 534 39 771l-23 130h-97c-130 0-333 52-457 114-207 105-310 244-279 381 19 91 126 221 240 296 64 41 116 93 132 134 112 267 639 213 2089-211 91-25 240-68 329-91 629-172 1663-912 2112-1508 205-275 362-623 333-740-19-70-101-66-153 6l-39 54-108-64c-242-149-472-182-747-105-412 114-771 350-1286 838-308 296-602 486-958 618l-124 48 6-395c4-230-2-478-17-594-74-592-302-1121-521-1208-110-46-443-46-728-2-114 17-213 31-221 31-10 0-12-39-6-89 17-110-41-190-157-221l-83-23 211-201c116-110 298-312 407-447 110-137 213-265 230-285 35-41 62-31 62 27 0 70 99 325 163 420 91 132 151 157 362 157 275 0 1537-180 1706-244 39-14 77-4 172 43 190 93 432 128 701 97 219-23 221-23 325 29 58 29 186 79 287 110 161 48 217 54 503 56 176 2 339-6 362-14 35-14 23-27-87-85-141-74-350-225-573-412l-145-122 83 19c143 29 627 19 763-19 174-48 339-112 424-165l72-46-151-17c-83-8-232-43-333-77-213-72-602-248-602-273 0-10 25-19 58-19 97 0 352-81 517-163 186-93 366-225 511-372l101-105-70 21c-105 31-461 25-654-8-91-17-329-68-527-114-581-132-714-153-980-155-279 0-434 33-639 137-153 77-343 256-441 414-41 66-85 120-97 120-14 0-194 60-401 134s-405 134-445 134c-74 0-157-72-240-213-46-74-46-81-12-132 21-29 126-143 238-252 306-300 407-538 389-908-8-143-4-190 14-190 66 0 407-112 538-176 153-74 321-219 376-329 19-35 33-103 33-151 0-205-238-352-743-451l-43-10 58-205c149-529 199-1187 114-1491-114-416-387-695-753-778-306-68-517 8-819 302-116 114-209 186-236 186-54 0-110-77-201-279-120-263-314-416-608-478-168-35-283-35-451 2zm-3256 3386c118 37 352 143 432 199 21 14 12 58-37 211-70 219-153 575-188 809l-23 157-93-99c-110-118-277-234-407-281-87-33-91-37-103-139-33-287-2-683 68-869 23-56 27-58 120-43 54 8 157 33 232 56z"/>
  <path class="fil1" d="m6326 1245c163 25 329 97 449 196 66 54 114 126 194 287 112 232 182 310 254 287 25-8 128-95 232-194 279-269 465-347 732-310 451 64 763 455 817 1024 25 275-62 908-176 1278-33 110-52 139-74 130-19-6-62-12-97-12-116 0-122-17-66-182 199-567 114-1342-174-1603-337-304-757 182-848 987-12 101-27 188-31 194-6 4-35-10-64-33-85-68-263-126-467-153-149-21-182-31-174-56 6-19 23-126 35-240 43-379-64-763-254-927-304-261-740-56-999 467-143 292-188 484-188 825 0 157-4 283-10 279-6-2-60-31-118-62-240-126-554-149-792-58-252 97-393 325-393 633 0 170 41 319 165 589 56 124 103 252 103 283 0 77-66 248-277 734-242 554-323 889-356 1471-8 132-21 242-27 242s-83-52-170-114l-157-110-12-118c-17-157-110-347-238-488-60-64-108-134-108-155 0-19-29-99-66-178l-64-143 25-170c70-467 213-962 383-1328 52-112 91-207 87-213-23-21-56 29-137 217-48 112-95 211-103 219-8 10-74-17-147-56-163-89-410-172-563-190l-118-14-39 91c-68 157-89 327-83 660 8 304 8 312-33 300-23-6-124-17-228-23-221-17-472 25-645 105l-116 52 14-221c41-631 180-1200 389-1605 93-178 116-194 378-290 267-93 505-124 914-112 432 10 606 39 592 99-6 23-2 39 6 39 10 0 52-72 91-161 95-211 250-443 358-529 112-91 298-182 482-236 180-56 277-149 449-441 341-581 714-898 1133-968 155-25 178-25 329 0z"/>
  <path class="fil2" d="m6493 1890c503 267 426 1471-128 1990-132 124-246 176-393 176-99 0-132-10-217-68-267-180-370-707-238-1224 99-383 337-732 585-856 155-79 265-83 391-17zm-602 536c-79 54-213 217-196 244 4 8 39 21 77 29 145 29 217 178 108 221-41 14-85 12-161-10-56-17-108-27-114-23-4 6-12 105-19 223-12 275 25 416 134 511 64 58 87 64 157 56 155-21 306-221 379-509 46-186 33-496-27-612-87-168-211-215-337-130z"/>
  <path class="fil2" d="m8285 2114c139 52 248 219 321 490 31 122 41 225 43 438 0 304-23 463-103 707-52 155-56 159-108 147-93-23-374-132-374-147 0-8 19-27 41-41 62-39 139-174 199-350 74-217 93-579 39-763-87-304-308-316-453-25l-54 105 83 37c108 48 143 120 95 194-39 60-122 68-192 21-43-31-46-29-60 62-17 112 0 501 23 558 10 25-23 4-83-52l-97-93 10-217c19-376 147-747 329-943 128-139 223-176 341-130z"/>
  <path class="fil3" d="m7079 3197c244 43 389 124 554 306 263 292 486 393 1055 478 478 72 759 172 852 306 54 77 41 203-29 308-190 290-726 463-1541 505-292 14-945-29-1260-83-678-118-1340-447-1957-974-124-108-228-182-228-168 0 17 56 77 124 137 95 83 145 149 219 292 283 552 867 1301 1212 1562 296 223 685 343 1102 343 370-2 647-99 846-298 174-172 252-356 279-645l12-145 132-17c72-8 137-10 145-4 6 8 12 114 10 234 0 246-29 352-145 544-149 248-395 426-709 513-207 58-556 93-761 77-97-6-172-4-172 6 0 31 83 43 290 43 300 0 652-62 877-157 81-33-99 184-474 571-205 211-441 474-523 585-85 110-267 308-403 441l-252 242-207-14c-542-37-1047-165-1582-405-205-93-637-327-722-391l-50-37 25-329c43-614 103-850 370-1462 298-680 296-662 143-997-128-279-168-436-153-625 25-329 194-511 525-567 196-33 399 2 594 103 149 77 153 81 244 292 95 223 321 374 513 339 275-52 546-329 705-722 33-83 60-165 60-184 0-41 58-41 277-2zm-1524 2978c-252 192-647 873-672 1162-8 103-6 110 60 151 64 41 91 43 329 33 143-4 308-23 368-39 101-29 110-29 128 6 27 52 153 89 246 77l77-10 35 120c43 151 122 248 199 248 178 0 829-780 829-995 0-145-85-155-420-58l-223 66-60-72c-74-89-163-128-259-114-60 10-72 6-72-25 0-68-64-283-122-407-105-228-265-279-443-143zm325 39c77 81 147 248 180 432 23 128 23 128-54 252-41 68-118 211-170 316-91 178-101 192-178 213-248 66-577 81-676 29-52-27-62-46-62-105 0-230 432-972 666-1144 120-89 207-87 294 6zm470 618c105 70 118 130 56 265-68 145-223 350-302 395-103 62-273 37-304-43-19-48 219-517 302-598 81-79 151-85 248-19zm759 81c14 118-240 486-546 788-230 228-277 230-372 25-56-116-64-207-23-223 48-19 223-265 283-397l58-124 223-66c124-37 259-64 298-62 62 4 72 12 79 60z"/>
  <path class="fil4" d="m5023 4316c265 199 620 401 927 527l172 70-85 27c-85 29-302 221-385 341l-39 56-143-190c-213-283-223-298-368-534-201-329-252-420-221-401 17 8 81 56 143 103z"/>
  <path class="fil5" d="m6359 4989c407 126 691 378 871 778 41 95 85 172 95 172 58 0-145-395-296-575-68-83-120-159-114-170 64-103 331-97 548 10 333 168 498 428 447 703-14 68-27 81-159 145-192 91-385 122-680 108-515-27-875-199-1260-606l-170-178 56-77c132-176 250-279 378-325 101-37 122-35 283 14z"/>
  <path class="fil4" d="m6903 5090h50l-46 50-48 52-81-54c-46-29-81-58-81-64 0-4 35-4 79 4 41 6 99 12 126 12z"/>
  <path class="fil4" d="m8270 5208c-2 221-120 536-250 660l-60 58v-114c0-234-118-424-360-581l-120-77 306-8c170-2 347-8 397-10l87-4v77z"/>
  <path class="fil6" d="m2255 5605c159 43 279 110 416 230 155 137 325 416 325 534 0 21 48 87 105 147 205 213 287 505 225 784l-25 114-66-124c-97-182-209-327-319-414-54-41-105-83-114-91-10-8 2-58 25-112 41-95 43-143 2-101-41 41-124 306-155 496-58 364-213 747-360 885l-62 60 12-114c21-207-68-546-174-664-33-35-31-43 21-151 62-126 64-132 35-132-10 0-58 77-105 170-151 300-304 505-527 699-105 93-347 248-387 248-6 0 10-52 39-116 72-163 145-426 174-627l25-170-184-190c-120-124-205-234-246-314-54-112-60-145-60-331 0-184 6-217 56-312 97-182 236-296 461-378 252-91 594-101 862-25zm58 219c114 124 182 232 219 347l29 87-8-99c-10-130-99-271-230-364l-103-72 93 101zm-680 99c58 110 99 283 103 436l4 85 19-105c27-132-6-302-81-418-81-124-114-122-46 2zm248-99c4 10 48 99 97 196 60 122 97 230 118 352l29 176-4-176c-8-196-60-339-180-486-37-46-64-74-60-62z"/>
  <path class="fil6" d="m10721 5909c103 17 364 70 579 120 513 118 664 143 894 145l190 2-46 48c-196 213-668 434-991 465-95 8-97 8-87-46 6-31 2-95-12-143-19-77-17-95 17-145 21-31 43-66 50-77 8-12-87-21-269-23-267 0-294-4-470-68-238-87-523-110-691-54-58 19-105 43-105 54 0 25 6 25 126-14 159-52 416-31 649 54 157 56 223 68 430 77 132 6 242 19 242 27 0 27-196 219-292 285-141 95-298 151-467 163-170 14-205 48-50 48 101 0 103 0 87 56-60 203-194 372-345 434-87 35-120 68-64 68 66-2 201-87 287-184 70-79 110-149 143-250 43-134 50-143 120-155 110-21 331-143 443-246 54-50 103-81 110-72 19 33 2 275-25 370-33 112-35 124-8 124 10 0 33-50 52-112l33-110 149 79c213 112 449 203 685 267l205 56-134 54c-271 108-627 145-927 95-128-23-141-29-124-62 12-21 21-46 21-58 0-41-35-23-58 31-21 41-35 50-72 37-41-12-41-10-17 21 25 31 23 41-27 93-70 74-43 101 31 31 68-64 33-83 352 176 118 97 269 209 335 252 120 77 120 79 64 93-89 23-480-8-639-50-81-23-203-64-275-97l-128-58 77-66c43-37 72-74 62-85-8-8-35 4-62 27-116 108-170 120-511 120-283 0-333-6-434-48-182-72-182-74-103-151 170-172 186-494 33-747-83-139-192-215-381-261l-149-35 70-103c137-203 356-366 598-443 194-64 480-66 831-10z"/>
  <path class="fil1" d="m8028 6604c85 145 170 213 259 209 41-2 263-68 490-151 358-128 424-147 503-134 310 46 470 203 519 501 37 232-33 420-190 511-141 83-1406 281-1785 281-118 0-161-8-217-48-87-58-192-261-236-455l-33-143 316-327c174-180 319-329 321-329 0-2 25 37 54 85z"/>
  <path class="fil7" d="m2959 6966c41 43 108 130 149 190l74 114-89 43c-211 108-242 399-58 554 54 43 89 56 170 56 91 0 114-10 186-79 64-58 87-97 95-163 17-120-6-221-66-292-43-52-48-72-35-145l14-87 134 95c563 393 1282 726 1874 867 234 56 639 114 796 114 87 0 101 6 101 39 0 168-1036 1396-1295 1537-130 70-294 89-443 50-62-17-118-25-122-21-25 23 46 54 168 74l134 25-27 103c-64 240-54 656 21 1020l27 130-105 39c-358 134-875 103-1247-72l-110-52v-627-625l-52-103c-29-56-155-246-279-420-306-428-391-610-393-850-2-137 254-1593 279-1593 12 0 56 35 97 77z"/>
  <path class="fil6" d="m3232 7390c14 37 33 87 43 110 12 35 19 31 52-41l35-83 43 72c116 188-2 434-209 434-126 0-242-137-242-283 0-89 68-199 147-238 93-50 99-48 130 29z"/>
  <path class="fil7" d="m6518 8269c10 6-6 35-35 66-72 77-163 283-250 571-134 449-163 643-101 730 29 43 29 46-10 46-56 0-823 79-910 95-68 10-62 2 159-228 306-319 658-740 823-987 72-110 132-205 132-211s10-37 21-66c19-50 29-54 89-41 35 8 74 21 83 25z"/>
  <path class="fil7" d="m6601 8345c6 14 6 66 0 112-10 79-17 83-95 95-46 8-87 10-91 4-23-23 122-240 161-240 8 0 19 12 25 29z"/>
  <path class="fil1" d="m7546 8515c184 37 395 445 501 964 41 203 48 298 48 709 0 300-10 544-29 658l-27 184-89 37c-269 116-838 232-838 170 0-10 23-108 52-215 70-265 97-523 72-705-29-213-137-627-192-726-70-126-101-130-521-66-203 31-372 50-378 43-33-33 134-745 213-900 25-50 50-56 335-101 168-25 321-50 337-54 60-12 451-10 517 2z"/>
  <path class="fil7" d="m10998 9224c130 39 333 157 333 190 0 46-172 354-292 525-165 232-563 633-836 840-356 271-844 569-1158 707-271 120-916 279-1318 327-263 29-707 14-900-31-290-70-519-304-463-474 33-95 112-165 271-240 182-85 496-141 496-89 0 56-70 211-95 211-43 0-35 35 17 70 99 70 393 25 844-128l176-60 17-101c8-56 21-130 27-168 8-54 23-70 87-91 149-48 461-203 631-314 95-62 285-219 420-347 538-509 931-755 1363-852 99-23 265-12 381 25z"/>
  <path class="fil7" d="m6293 9630c-14 35-81 41-101 12-6-10 10-25 35-29 27-4 54-10 62-12 8 0 10 12 4 29z"/>
  <path class="fil7" d="m2065 10530c114 58 205 246 221 457l12 153-43-39c-81-70-246-37-350 74-165 176-219 623-110 910 46 124 114 196 250 267l81 39-12 275c-8 170-4 356 10 490 27 223 101 498 155 569 19 23 33 48 33 54 0 8-126 12-279 10-211-2-279 4-279 23 0 21 81 27 337 27 478 0 709 58 860 209 79 81 192 310 228 463 27 120 39 331 21 352-29 27-881 37-1160 12-972-87-1286-354-1198-1022 14-99 77-389 139-641 205-823 271-1175 329-1752 39-389 95-606 190-751 149-228 350-290 565-180z"/>
  <path class="fil1" d="m2313 11202c265 219 614 319 1119 321 256 0 296-19 296-132 0-68 4-77 43-64 23 8 163 19 310 25 207 8 302 2 412-23 79-19 147-31 151-27 27 27 50 285 41 459-19 418-207 701-540 819-281 97-1208 21-1781-149-159-48-370-147-432-201-203-184-201-778 2-1020 114-132 223-134 379-8z"/>
  <path class="fil8" d="m6853 11835c46 12 250 29 455 35l372 14-194 37c-238 48-571 54-654 12-31-17-72-50-89-77-35-54-21-58 110-23zm4652-2470c-101 583-974 1450-1969 1955-306 155-420 192-159 50 904-486 1603-1136 1930-1789 145-290 147-292 182-292 25 0 29 17 17 77z"/>
  <path class="fil2" d="m7759 11868c-14 4-39 4-52 0-14-6-4-10 25-10s39 4 27 10z"/>
  <path class="fil8" d="m971 13067c-172 699-196 852-182 1063 23 354 209 561 604 678 329 97 482 114 1171 116 360 2 664 10 676 19 14 8 25 37 25 64 0 41-14 52-77 64-157 29-1090-60-1640-157-403-72-620-209-749-470-58-120-66-157-74-360-10-250 4-356 112-753 89-335 261-881 273-871 4 4-58 277-139 606zm391-2163c-46 134-70 279-116 716-17 172-39 339-48 370l-14 56-46-58c-25-31-46-72-46-91 0-48 116-575 168-765 39-149 122-362 134-350 2 4-12 58-33 122z"/>
  <path class="fil4" d="m4466 3638c-114 58-157 132-155 269 2 64 14 141 27 170 19 43 19 33 10-52-17-137 21-267 89-319 95-77 263-50 399 68 29 23 19 6-21-37-72-79-174-137-242-137-21 0-68 17-108 37z"/>
  <path class="fil7" d="m5879 6215c77 81 147 248 180 432 23 128 23 128-54 252-41 68-118 211-170 316-91 178-101 192-178 213-248 66-577 81-676 29-52-27-62-46-62-105 0-230 432-972 666-1144 120-89 207-87 294 6zm470 618c105 70 118 130 56 265-68 145-223 350-302 395-103 62-273 37-304-43-19-48 219-517 302-598 81-79 151-85 248-19zm759 81c14 118-240 486-546 788-230 228-277 230-372 25-56-116-64-207-23-223 48-19 223-265 283-397l58-124 223-66c124-37 259-64 298-62 62 4 72 12 79 60z"/>
 </g>
</svg>
