<?xml version="1.0" encoding="UTF-8" standalone="no"?>
<!DOCTYPE svg  PUBLIC '-//W3C//DTD SVG 1.1//EN'  'http://www.w3.org/Graphics/SVG/1.1/DTD/svg11.dtd'>
<!-- Creator: CorelDRAW X5 -->
<svg style="shape-rendering:geometricPrecision;text-rendering:geometricPrecision;image-rendering:optimizeQuality" xmlns="http://www.w3.org/2000/svg" fill-rule="evenodd" xml:space="preserve" height="500px" width="500px" clip-rule="evenodd" xmlns:xlink="http://www.w3.org/1999/xlink" viewBox="0 0 12764 16208">
 <defs>
  <style type="text/css">
   <![CDATA[
    .fil8 {fill:#160C0A}
    .fil1 {fill:rgb(39, 39, 39)}
    .fil5 {fill:#5257AA}
    .fil12 {fill:#575857}
    .fil14 {fill:#693305}
    .fil18 {fill:#6E5B45}
    .fil13 {fill:#77430E}
    .fil16 {fill:#8A7755}
    .fil17 {fill:#955011}
    .fil15 {fill:#CFD0D0}
    .fil9 {fill:#DE706C}
    .fil0 {fill:#E36E05}
    .fil3 {fill:#F0B677}
    .fil4 {fill:#F1CD8A}
    .fil2 {fill:#F2CA89}
    .fil11 {fill:#F4F4F4}
    .fil10 {fill:#FAFAFA}
    .fil7 {fill:#FBFCFD}
    .fil6 {fill:#FDFDFD}
   ]]>
  </style>
 </defs>
 <g id="Layer_x0020_1">
  <path class="fil0" d="m6202 9843c32-33 183-119 256-142 50-16 293-163 384-214 117-66 290-229 384-237 90 134-27 429-106 578-25 47-12 6-66 115-75 150-246 452-403 518-122 51-171-28-222-98-82-111-239-343-226-520zm-3246-1009c28 18 182 206 198 226 22 29 15 37 37 68 10 14 36 40 50 54l400 470c55 77-26 87-89 101l-252 62c-83 14-36-1-89-14-97-23-84-7-126-88-96-185-232-768-129-879zm3779-1980s20-1 6 63c-8 38-42 109-61 150-33 73-48 126-82 189-61 113-114 253-176 370-61 116-136 223-198 344-31 61-70 135-149 90-60-35-72-96-114-160-22-34-27-52-49-92-135-248-206-293 19-413 58-31 551-388 636-453 87-67 111-112 166-87zm759-744c-27 43-25 29-77 70-31 24-47 36-74 55-112 80-355 290-501 268-3-40 104-246 134-297 21-35 31-53 41-100-114 15-728 370-998 401-26 13-46 18-73 33-52 28-28 17-95 24-59 7-126 34-185 46-127 26-74 2-159 74-46 39-72 55-132 89-11 101 121 312-135 513-40 31-102 48-138 79 14 30 5 10 23 39 65 107 65 185-5 307-83 147-208 152-316 179 0 2 322 890 359 1058 9 43 25 75 32 109l73 361c14 120-14 139-71 210-110-5-143-57-202-108-86-74-105-114-161-138 2 75 14 148 21 228 9 100-7 146-10 221-4 147-9 297-53 419-128 357-263 285-416 3-53-97-113-203-150-318-22-70-168-470-172-521-11-128 2-91-44-194-33-74-81-342-92-361-90 39-114 309-268 291-124-176-45-560-61-812-84-79-198-200-217-349-35-273 57-344 55-485-44-29-54-30-91-77-29-36-46-67-80-89-51 13-116 65-152 83-68 34-91 21-120 99-40 108-80 222-106 339-57 263-69 533-51 803 41 610 58 617 178 1161 24 110 116 426 152 524 45 123 117 381 171 489 24 49 40 102 64 158 161 388 514 1099 751 1455 47 71 50 98 100 123l10-20c1-4 46-218 54-334 7-98 12-93 33-177 18-70-13-214 79-182 11 4 19 14 28 24 206 228 415 394 665 582 124 92 115 117 286 165 116-69 284-494 337-647 90-6 78 36 149 86 39 28 92 59 132 88 59 42 226 157 290 161 45-40 147-248 174-327 16-47 20-86 73-91 28 40 37 123 54 176 49 148 116 385 205 479 127 1 362-273 447-371l162-175c32-33 284-369 312-371 83-7 196 534 196 537l51 50c64-54 24-73 95-116 61-66 458-745 552-905 36-62 64-133 98-188 239-395 165-765 53-1169-55-198-341-1022-346-1080-36-31-3 35-34-46-9-23-4-18-8-44l-40-1c-44 116-71 149-246 94-33-10-110-31-150-41-400-94-228-125-115-402 12-29 8-31 22-57 62-110 61-117 116-234 111-237 88-224-112-336-57-32-108-73-173-113-60-37-132-83-179-119-46-35-118-99-184-108-10 41-46 205-75 221-33-50 34-328 47-407l103-360c44-147 141-381 189-523 42-125 41-132 89-143 63 84 1 254 52 344l74-269c42-292 117-298 118-425-41 17-61 53-104 85-40 30-65 50-104 77-64 45-161 138-221 152z"/>
  <path class="fil1" d="m8458 15323c-59-35-131-209 113-219-3 57-42 44-55 103-14 66 13 87-58 116zm-1569-367c-36-20-180-2-134-159 24-82 69-137 75-226-44 2-41 14-78 94-148 317 63 339 137 291zm-3805-5243c42 81 29 65 126 88 54 13 6 28 89 14l252-62c62-14 144-24 89-101l-400-470c-14-14-41-40-50-54-21-31-14-38-37-68-16-21-170-208-198-226-103 111 33 694 129 879zm3117 130c-13 178 144 409 226 520 51 70 100 149 222 98 157-66 328-368 403-518 54-108 41-67 66-115 79-149 196-445 106-578-94 8-266 171-384 237-91 51-335 198-384 214-72 23-223 110-256 142zm533-2988c-55-25-79 21-166 87-85 65-578 422-636 453-226 120-155 165-19 413 22 40 27 59 49 92 42 65 54 126 114 160 79 45 118-29 149-90 62-121 136-228 198-344 62-117 115-257 176-370 34-63 49-116 82-189 19-41 53-112 61-150 13-64-6-63-6-63zm71-3955c18 15-1 11 31 18 168 36 347-261 245-352-61 117-12 248-217 307-33 9-38 10-59 27zm892-78c31 38 54 23 176 34 147 13 224 30 167 171-64 156-136 188-159 293 67-8 119-87 155-139 96-138 151-308-61-360-60-15-224-41-278 1zm-1186-1337c57 39 62-32 191 145l101 144c33 52 0 33 57 34 52-97-121-350-198-374-41-12-128-16-151 50zm99 957c58 4 72 26 67 86l-72-17 5-68zm-94 337c-288-14-376-493-257-753 83-182 242-150 342-34 90 105 136 254 136 419l-18 53c-38-31-52-74-130-70-63 3-104 39-127 83-61 117-36 224 55 303zm228-216c40-23 25-38 25-143 1-148-12-269-90-402-46-78-78-126-153-172-214-128-391 166-340 587 25 209 130 318 297 377h1c77 9 143-16 192-56 34-27 87-127 67-191m-763-1052c-69-79-155-6-196 53-16 24-116 153-105 192 36 136 144-114 262-204 49-38 19 9 39-42zm368 1792c159 0 485 86 615 143 368 163 344 396 338 803-2 130-2 257-4 389-4 194-22 553-62 721-60 19-333 184-414 239-40 27-42 52-88 81-87 54-38-21-154 93-50 49-97 73-163 99-96 38-307 202-403 269-78 55-319 261-399 283-80-43-112-98-183-134-66-34-142-75-211-102s-154-66-234-77c-82-11-24 6-140-19-59-12-98-2-148 8l-209-621c-97-298-184-754-163-1075 18-274 75-210 439-408l278-147c293 77 353 20 643 2-16 37-2 20-37 57-43 46-98 80-112 104-121 52-192 124-358 166-58 15-94 7-141 37-5 135 411 376 599 415 50 10 70 10 115 46-41 67-275 253-379 203-67-33-130-75-201-111-120-59-148-98-216-87-23 86 22 448 61 476 38-26 8-14 4-182-2-69-8-135-8-214 72 7 206 112 273 152 249 147 722 285 998 136 339-182 389-668 455-1011 14-71 11-134 25-197 79 9 65 44 149 48-37-136-432-207-415-55 67 34 112-33 214-11 15 334-287 702-590 760-209 40-389 21-587-47-88-30-150-62-223-116-56-42-173-97-179-171 77-36 150-42 226-84l151-82c3-2 20-15 23-18 17-17 6-5 20-26 72 0 199-147 250-208 47-55 22-35 93-64 146-61 257-153 347-265 6-6 30-4 42-84 7-49 0-68-5-115h66zm980 2006c-65 6-25 5-39-9 65-398 76-1001 43-1414-25-308-161-415-421-503-51-17-83-31-141-43-111-24-197-46-309-61l-18-11c-31-12-132-22-165-17-43 7-31 8-44 40 28 234-268 374-445 430-204 64-571 141-750 41-109-61-175-245-217-380-56-180-35-591 96-739 192-216 918 214 1137 228-11-51-9-19-42-63 18-45 54-78 75-124 135-309-73-992-303-771l-92 122c-16-19-17-19-25-63l-64-500c57-36 423-105 505-112 193-16 386-37 597-23l413 48c38 6 79 24 120 32 269 52 386 122 476 142 46 12 39 4 60 42-24 10-8 16-51 8-48-9-38-19-46-26-347 33-394 211-401 576-2 128 56 418 210 452 96 21 184-38 231-91 37-40 178-225 209-284 16-30 34-82 65-105 10 15 8-1 13 28 3 13 2 36 2 50-1 80-16 224 23 283 56 2 57-7 81-46 14-22 35-54 50-79 44-74 63-170 76-193 65 125 91 787 101 957 10 186-31 838-40 1026-3 66-86 614-126 661-11 12-145 86-173 100-26 13-655 352-670 390zm-1320-259c20-108 291-239 430-235 1 59-131 148-165 167-65 37-174 78-265 68zm2988 9873c72 5 174 40 194 97l1 182c-40 26-44 18-73 51-27 31-20 41-67 57 11-113 39-204-11-303l-44-84zm-1314-3144c28-48-8-13 35-40 41 16 34 22 43 68 12 105 69 155 65 293-9 330-113 963-152 1337-11 105-32 220-44 324-21 190-102 480-81 664 54 46 35 31 107 61 35 15 81 33 118 50 143 66 402 222 529 315 14 10 34 23 40 35 15 31 1 6 4 25 3 21-1 20 7 35 194 3 552-114 632 63 90 199-65 495-237 537 10-60 35-83 56-137 47-122 80-348-89-372-107-15-483 62-541 91-42 21-33 18-46 53 75 38 129-29 225-30 1 62-11 120 28 166 35 41 87 62 141 38 23-44 21-93 49-145 21-38 52-79 76-115 49 0 86 4 127 28 55 61-33 420-250 560-248 159-361-169-638-138-292 33-499 78-693-105-98-92-118-146-298-113-237 43-478 107-463-150 13-228 128-21-60-614-78-246-173-530-229-785-17-79-33-113-49-196-13-67-34-145-50-214-30-127-72-273-99-401-31-148-51-286-79-435-12-63-29-120-40-205-8-60-33-163-31-227 95 18 380 289 535 293 71-93 146-225 190-334 45 29 47 78 64 140 27 104 118 380 214 407 135 40 404-268 492-363 59-63 377-412 394-463zm-4014-2699c-25-102-34-206-35-328l2-195c4-81-10-143 17-171 66-67 274 190 339-478l25-278c59 11 138 101 304 183 126 62 238 67 397 84 25 55 59 115 83 175 28 69 44 128 74 200 76 187 350 1177 306 1291-4 1-9 0-11 3l-30 1c-101-30-331-364-405-371-20 44 25 190 28 269 10 270 67 546-67 844-29 65-25 105-106 118-57-11-215-293-238-348l-165-431-204-690c-17-66-26-185-55-239-94 30-106 227-171 290-57 55-15 75-89 70zm3691-1847c-7-95 154-560 201-689 54-147 51-192 105-210 11 180 7 184 28 367 9 72-1 79 66 82 11-45 14-213 62-388 69-252 103-441 248-689 49-83 130-213 204-263 107 46 570 511 671 614 201 205 621 714 782 945 78 112 270 426 325 547 56 124 29 131-73 302-121 202-415 509-608 689-40 38-86 75-115 105-95 96-248 218-350 301-51 41-211 162-271 175-55-196-122-399-187-593-33-98-54-193-93-298-29-79-95-215-108-293 95 23 383 242 481 236 65-4 23 0 46-15l-368-221c-113-72-242-142-363-221l-685-478zm-3045-805c2-2 6-10 7-7l35-20 142-51c59-25 128-86 189-71 69 17 103 77 103 162 0 96-45 138-85 193-90 11-350-111-392-206zm402-251c196-67 701 155 768 265 55 89-110 304-210 274-113-34-42-34-230-31-81 1-174-5-252-18-11-84 129-219 3-378-51-64-74-16-78-112zm-923-204c13-55 223-325 265-371l398 571c38 49 40 32 62 86-17 20-14 20-47 38-21 11-38 18-62 26-218 80-172-14-335-144-92-74-140-81-230-123l-82-15c-1-25-14-4 1-38 21-48 5-12 31-29zm-151 24c-70 0-135-21-200-32-276-45-776-6-1060-1-64 1-94 9-155 11-65 2-108-16-124 37 49 22 579 4 734 4 282 0 842 11 1086 143 89 48 100 62 171 127 192 178 224 301 525 397 381 122 662-14 716 193 46 179-44 320-205 391-176 77-672-146-750-142 10 59 29 61 121 94 132 47 436 121 506 155 121 58 199 441-300 443-174 1-297-34-448-113-49-26-96-65-147-99-126-84-53-103-144-100-25 161-65 745-170 799-212 41-374-197-374-385 0-184 8-126 41-264 71-299-87-206-128-374-21-86 15-178-10-267-58 19-40 7-52 80-22 132-28 98-180 199-94 62-218 119-331 162-255 96-486 227-806 184-233-31-444-246-580-413-202-249-431-882-199-1108 355-345 1301-548 1836-672 267-62 597-119 894-114 155 271 173 85-175 537-30 39-53 82-91 127zm441-1507l66 207c105 304 154 443 245 759 10 36 29 76 38 101l146 428c23 70 84 139 36 206-65-8-130-120-167-167-106-135-197-209-280-396-37-84-355-566-329-703 9-50 83-181 109-229 31-57 91-180 136-206zm3351 1617c20 9 34 3 58 1 60-14 157-107 221-152 39-27 64-46 104-77 43-32 63-68 104-85-1 127-76 133-118 425l-74 269c-51-89 12-260-52-344-48 12-47 18-89 143-48 142-145 376-189 523l-103 360c-12 79-79 357-47 407 29-16 64-180 75-221 66 10 138 73 184 108 47 36 119 82 179 119 65 40 116 82 173 113 200 111 222 99 112 336-55 118-53 125-116 234-15 26-11 28-22 57-113 277-285 308 115 402 40 9 117 30 150 41 176 55 202 22 246-94 7-65-24-60 6-108 48 28 20 3 44 91 10 36 22 68 32 108 4 58 291 882 346 1080 111 404 186 773-53 1169-34 55-61 127-98 188-94 159-492 839-552 905-16 46-28 52-49 89-23 40-18 52-71 58l-25-80c0-3-113-544-196-537-29 3-281 338-312 371l-162 175c-85 98-321 372-447 371-89-94-157-331-205-479-17-52-26-136-54-176-53 5-57 45-73 91-27 79-129 287-174 327-65-4-231-119-290-161-40-29-94-61-132-88-71-51-60-92-149-86-53 152-221 578-337 647-170-48-162-73-286-165-251-187-459-354-665-582-9-10-17-20-28-24-92-32-61 113-79 182-21 84-26 79-33 177-8 116-53 330-54 334l-10 20c-50-25-53-53-100-123-237-355-590-1066-751-1455-23-56-39-109-64-158-54-108-126-365-171-489-36-98-128-414-152-524-120-545-137-551-178-1161-18-271-6-541 51-803 26-117 65-231 106-339 29-79 52-66 120-99 36-18 101-69 152-83 34 22 52 53 80 89 37 47 47 48 91 77 2 142-90 213-55 485 19 149 133 270 217 349 16 252-64 636 61 812 155 18 179-252 268-291 12 20 59 288 92 361 46 103 33 67 44 194 4 51 150 452 172 521 37 114 97 220 150 318 152 282 288 354 416-3 44-123 49-273 53-419 2-76 18-121 10-221-7-80-19-153-21-228 56 24 75 63 161 138 59 51 92 103 202 108 57-71 85-90 71-210l-73-361c-7-34-22-66-32-109-37-167-359-1056-359-1058 108-27 233-32 316-179 69-122 70-199 5-307-17-29-9-9-23-39 36-31 98-48 138-79 256-201 124-412 135-513 60-34 86-51 132-89 85-71 31-48 159-73 59-12 127-39 185-46 67-8 43 3 95-24 28-15 47-20 73-33 34-30-44-25 42-25-21-11-66 0-96 5-82-15-147 46-319 56 14-64 19-61 64-97 76-62 1219-837 1330-902 67-39 124-74 175-109l383-214c63-32 131-72 192-108 129-76 461-248 594-302 64-26 158-84 222-83-29 231-383 665-501 778-193 186-80 112-326 310l-342 295zm-1469-3660c41 13 42 18 36 71-47-5-67-21-36-71zm-163 276c-89-23-96-84-118-169-38-147-29-324 42-466 38-76 63-94 103-156l90 1c72 87 100 85 142 221 34 112 48 190 23 319-48-27-18-11-51-46-55-59-119-27-169 20-65 60-70 161-63 277zm-4794 3565v371c28 22 56 192 98 281 44 96 77 171 134 255 88 131 238 287 383 381 278 181 607 167 939 67 75-23 233-98 293-104-8 62-31 117-47 167-18 57-27 105-42 169-86 386-24 1167 62 1557 40 183 112 527 165 697 32 103 73 204 106 316 159 538 381 994 635 1481 63 121 421 727 517 772 97-41 41-100 91-154l181 511c68 169 139 335 215 490 38 77 84 149 120 228 64 142 228 427 317 566 26 41 49 67 41 126l-534 333c-197 130-317 254-483 381-74-16-173-65-257-46-82 19-155 72-162 169-16 204 200 360 267 369 73 2 1-2 48 8-12 6 25 42-10 3-26-30 11 32-16-27-25-34-111-84-149-125-40-43-95-131-83-213 10-67 72-118 166-118 111 0 154 47 247 52 60-115 90-102 231-221 125-105 411-296 559-377 81-44 236-113 285-179-238-444-477-803-662-1296-19-50-42-104-64-158-89-217-159-444-211-672-22-94-23-87-2-181l24-121c4-20 2-29 22-59 49 16 32 13 66 47 79 80 417 371 511 437 92 65 319 249 423 209 111-43 216-408 286-452 19 33 57 329 69 402 20 120 56 279 87 392 90 326 192 794 299 1130l237 722c23 96-30 247-59 350-1 4-2 7-3 10-29 85-315 50-408 203-38 62-43 127-100 185-86 86-294 139-419 148-232 17-70 18-397 178-127 62-136 17-247 37l-29 17 9 11c73 47 41-6 69 47h125c27-51 45-13 173-87 67-39 106-55 165-95 143-96 405 1 602-190 47-45 63-121 94-180 60-112 215-159 388-153 143 176 576-26 689 48 29 19 24 24 45 45l172 140c114 72 203 55 358 54 131-1 308-33 362-29 124 9 319 307 579 117 45-33 64-72 104-104 36-29 87-18 153-54l229-175c143-115 310-387 45-496-97-40-234-69-356-62s-188 92-334 11c-119-66-339-255-508-322-105-41-182-83-293-123-3-166 44-353 75-524 13-75 37-158 43-235 15-183 74-599 100-792 22-165 48-364 50-531 106 55 200-109 296-236 162-218 305-446 427-688 119-235 309-516 329-802 32-460-10-513-140-949-31-105-121-362-125-459l436-301c105-75 293-247 402-338 150-126 543-589 609-780 6-18 2-21 14-36 20-25 3-12 35-22v-72c-35-1-27-53-77-170-91-211-344-579-492-779-68-92-387-473-467-559-93-101-181-179-253-266-79-96-170-176-253-253l-278-244c27-92 315-411 343-650 7-56-4-79-54-82s-110 31-156 46c-64 21-118 64-180 73 7-179 63-389 76-583 35-518 49-762 31-1297-4-119-18-190-26-298-6-86-48-225-39-294 26 14 163 216 189 73 8-43-7-131-14-169-15-82-44-104-57-189l260 146c72 40 227 119 290 53 114-120 41-748-83-1013-19-40-57-77-88-107-45-44-86-47-164-44-116 5-209 78-281 122-74 46-181 140-244 167 2-92 73-217 116-283 39-60 156-203 162-225l38-43c24-21 2-2 26-20l-61 23c-64 26-123 123-177 202-28 41-51 72-74 120-24 49-28 102-69 114 9-399-2-481-293-722h-56c33 49 34 35 77 70 98 79 141 144 185 256 47 119 68 382 34 510-42-13-233-128-301-165-371-202-356-203-780-390-465-205-1043-283-1537-88-62 24-132 29-121 101 95 16 226 7 321 19 62 8 87 15 141 22 33 4 69 6 99 20 52 25 10 2 32 22-24 20-128 56-187 85-138 68-222 135-336 211-174 116-614 545-638 733 58-12 232-161 359-222 83-40 322-158 411-174 4 89 29 172 39 261 10 86 2 205 23 289 27 112 8 462 8 599-25 0-179-62-230-79-85-29-162-54-269-53-420 6-497 762-290 1118 60 103 136 144 143 190l-288 135c-97 43-200 108-273 158-230 159-144 404-137 694-51-51-108-306-150-394-84 0-103 32-170 150-35 61-82 157-110 215-34 71-86 146-53 240 27 79 89 155 94 230-330 17-569 51-861 111-138 28-267 62-400 86-312 57-1164 356-1390 553-234 203-147 243-204 292z"/>
  <path class="fil2" d="m3644 6e3c38-45 61-88 91-127 347-452 330-267 175-537-297-5-627 52-894 114-534 124-1481 327-1836 672-233 226-4 859 199 1108 136 168 347 382 580 413 320 43 551-88 806-184 113-43 238-100 331-162 152-101 158-68 180-199 12-73-6-61 52-80 25 89-11 181 10 267 41 168 199 76 128 374-33 138-41 81-41 264 0 187 162 426 374 385 105-54 145-639 170-799 91-3 18 16 144 100 51 34 98 73 147 99 150 79 274 113 448 113 499-2 421-385 300-443-71-34-374-108-506-155-92-33-111-34-121-94 78-4 575 219 750 142 161-71 251-211 205-391-53-207-335-71-716-193-301-96-333-219-525-397-71-66-82-79-171-127-244-132-803-143-1086-143-155 0-685 18-734-4 16-52 59-34 124-37 61-2 91-10 155-11 284-5 783-45 1060 1 64 11 130 31 200 32z"/>
  <path class="fil2" d="m7875 2856c-122-11-145 4-176-34 54-42 217-16 278-1 212 52 157 222 61 360-36 52-88 132-155 139 23-105 96-137 159-293 57-141-20-158-167-171zm-1068 44c21-17 26-18 59-27 206-59 156-190 217-307 102 91-77 388-245 352-32-7-13-3-31-18zm-61-337c21 64-33 164-67 191-50 40-113 67-193 56-167-59-272-168-297-377-51-421 125-715 340-587 75 45 107 94 153 172 78 133 90 254 90 402-1 105 14 121-25 143zm-763-1052c-20 51 10 4-39 42-117 90-225 340-262 204-10-39 89-169 105-192 40-59 127-132 196-53zm880 298c-57-2-23 18-57-34l-101-144c-128-177-133-106-191-145 23-66 109-62 151-50 77 23 250 276 198 374zm-628 1483c14-32 1-34 44-40 33-5 134 5 165 17l18 11c112 14 198 37 309 61 59 13 91 26 141 43 260 87 396 194 421 503 33 413 22 1016-43 1414 15 14-26 15 39 9 14-38 644-377 670-390 28-14 163-87 173-100 40-47 123-595 126-661 9-188 50-840 40-1026-10-170-36-832-101-957-14 23-32 119-76 193-15 24-36 57-50 79-25 39-25 48-81 46-40-59-24-203-23-283 0-14 0-37-2-50-6-29-3-14-13-28-31 23-48 75-65 105-31 58-173 244-209 284-48 52-135 111-231 91-153-33-212-324-210-452 7-365 54-543 401-576l56 4c-10-7-11-19-19-29-89-20-207-90-476-142-42-8-82-26-120-32l-413-48c-211-14-404 7-597 23-82 7-447 76-505 112l64 500c8 44 10 44 25 63l92-122c230-220 439 463 303 771-20 46-57 79-75 124 33 44 31 12 42 63-219-14-945-444-1137-228-131 148-152 559-96 739 42 135 107 319 217 380 179 100 547 23 750-41 177-56 472-196 445-430z"/>
  <path class="fil3" d="m6247 3502c-90 112-201 205-347 265-71 29-46 9-93 64-52 61-178 208-250 208-14 21-3 9-20 26-3 3-19 15-23 18l-151 82c-77 42-149 48-226 84 5 74 123 129 179 171 73 55 135 86 223 116 198 68 378 87 587 47 303-58 605-426 590-760-102-22-147 44-214 11-17-151 378-81 415 55-84-4-70-38-149-48-14 63-11 126-25 197-67 344-117 829-455 1011-277 149-749 11-998-136-68-40-201-145-273-152 0 79 7 145 8 214 4 168 34 156-4 182-39-28-85-389-61-476 68-11 96 27 216 87 71 35 134 78 201 111 104 51 338-136 379-203-45-36-65-36-115-46-188-39-604-281-599-415 47-30 83-22 141-37 166-42 237-114 358-166 14-25 69-59 112-104 35-37 21-20 37-57-289 19-350 75-643-2l-278 147c-364 198-422 133-439 408-21 321 66 777 163 1075l209 621c50-10 89-20 148-8 116 24 58 8 140 19 80 11 165 50 234 77s145 67 211 102c71 37 103 91 183 134 79-22 320-228 399-283 96-68 307-232 403-269 66-26 113-49 163-99 115-114 67-39 154-93 46-28 48-54 88-81 82-54 354-219 414-239 40-168 58-527 62-721 3-132 2-259 4-389 6-407 30-640-338-803-130-57-456-144-615-143h-66c5 47 13 65 5 115-12 80-36 78-42 84z"/>
  <path class="fil2" d="m6890 14956c-74 48-284 26-137-291 37-80 35-92 78-94-6 89-51 143-75 226-47 157 98 140 134 159zm794-3176c-18 51-335 400-394 463-88 95-357 403-492 363-95-28-186-303-214-407-16-61-19-110-64-140-44 109-119 241-190 334-155-4-440-275-535-293-2 64 23 167 31 227 11 86 29 142 40 205 28 150 48 287 79 435 27 128 69 274 99 401 16 69 37 147 50 214 16 83 32 117 49 196 56 254 151 539 229 785 189 593 73 386 60 614-15 258 227 193 463 150 180-33 200 21 298 113 194 183 401 138 693 105 276-31 390 297 638 138 218-140 305-499 250-560-41-24-78-28-127-28-24 36-55 78-76 115-28 51-27 100-49 145-54 24-106 3-141-38-39-46-27-104-28-166-97 1-150 68-225 30 13-34 4-32 46-53 58-29 434-106 541-91 169 24 136 251 89 372-21 54-46 77-56 137 172-42 327-339 237-537-80-177-438-59-632-63-8-15-3-14-7-35-3-19 11 7-4-25-6-12-26-25-40-35-127-92-386-248-529-315-38-17-83-36-118-50-72-30-54-15-107-61-21-183 60-473 81-664 12-104 33-220 44-324 39-374 143-1007 152-1337 4-138-52-188-65-293l-43-47c-14 18-20 10-35 19z"/>
  <path class="fil4" d="m8045 7713c121 79 250 149 363 221l368 221c-23 15 19 11-46 15-98 6-386-213-481-236 13 78 79 214 108 293 39 106 60 200 93 298 65 194 132 398 187 593 61-13 220-133 271-175 102-82 254-204 350-301 29-30 75-68 115-105 192-180 487-487 608-689 102-171 130-178 73-302-55-121-247-435-325-547-161-230-581-740-782-945-101-103-564-567-671-614-75 50-156 180-204 263-146 248-180 437-249 689-48 175-51 344-62 388-67-4-58-10-66-82-22-183-18-187-28-367-54 18-51 63-105 210-48 129-208 594-201 689l685 478z"/>
  <path class="fil2" d="m4072 15658l52 4c-37-112-122-194-8-298 64-59 214-109 319-96-20 65-49 32-170 77-393 146 138 546 320 527-2-13-267-417-49-569 94-66 217-17 315 1l247 54c50 11 47 7 59 58l-83-6c-1 53 7 93-27 115-38 24-85 18-124 5 4 13 112 82 167-55 18-45-7-11 26-43 62 240-217 189-248 132-59-100 21-143-146-217-201-89-318 219-48 542 66 79 60 39 107 96 111-20 120 25 247-37 327-160 165-161 397-178 125-9 333-61 419-148 57-57 62-122 100-185 93-153 380-118 408-203 1-3 2-7 3-10 29-103 82-254 59-350l-237-722c-107-336-209-803-299-1130-31-113-67-272-87-392-12-73-50-368-69-402-70 45-175 410-286 452-104 40-331-144-423-209-93-66-431-356-511-437-34-34-17-32-66-47-20 30-17 39-22 59l-24 121c-20 94-20 87 2 181 52 228 122 455 211 672 22 54 45 107 64 158 185 494 424 853 662 1296-49 67-204 135-285 179-148 81-434 272-559 377-142 119-171 106-231 221-92-6-136-53-247-52-94 0-156 52-166 118-13 82 43 170 83 213 38 41 124 91 149 125z"/>
  <path class="fil5" d="m3669 9081c74 5 32-15 89-70 65-62 77-260 171-290 28 54 37 173 55 239l204 690 165 431c23 56 180 337 238 348 81-13 77-53 106-118 133-299 77-574 67-844-3-80-47-225-28-269 74 7 304 341 405 371l30-1c2-4 7-2 11-3 44-114-230-1104-306-1291-29-72-46-131-74-200-24-60-58-119-83-175-159-17-271-22-397-84-165-82-245-172-304-183l-25 278c-65 668-273 411-339 478-27 28-14 90-17 171l-2 195c0 122 10 226 35 328z"/>
  <path class="fil5" d="m5964 6486c25-28 16-27 67-33 105-12 115-13 218-79 78-50 186-76 287-117 85-34 204-87 277-123 116-58 208-134 279-117 2 99-148 298-144 377 52 8 73-40 111-65 46-29 92-44 130-65 75-43 172-129 246-155l342-295c246-198 133-124 326-310 118-113 472-548 501-778-65-1-158 57-222 83-133 55-465 227-594 302-61 36-129 75-192 108l-383 214c-51 36-108 70-175 109-111 65-1254 840-1330 902-45 37-50 33-64 97 172-10 237-71 319-56z"/>
  <path class="fil5" d="m4085 4492c-45 25-105 148-136 206-26 48-100 180-109 229-26 137 292 619 329 703 83 188 174 261 280 396 37 47 103 159 167 167 48-68-14-136-36-206l-146-428c-9-25-28-65-38-101-91-315-141-455-245-759l-66-207z"/>
  <path class="fil5" d="m5275 6718c101 30 265-185 210-274-68-110-572-332-768-265 4 96 27 48 78 112 126 159-14 294-3 378 78 13 172 19 252 18 188-3 117-4 230 31z"/>
  <path class="fil6" d="m6517 2780c-91-79-116-186-55-303 23-44 63-80 127-83 78-3 92 39 130 70l18-53c0-165-46-314-136-419-100-116-258-147-342 34-119 260-30 739 257 753z"/>
  <path class="fil0" d="m3794 5976l-14 39c34 24 39 10 65 44 90 43 138 50 230 123 163 130 117 224 335 144 24-9 41-15 62-26 33-18 30-18 47-38-22-54-24-37-62-86l-398-571c-42 47-252 316-265 371z"/>
  <path class="fil7" d="m5803 2726c-8-116-2-217 63-277 51-47 114-79 169-20 33 35 3 20 51 46 25-128 11-207-23-319-42-136-70-134-142-221l-90-1c-40 62-65 80-103 156-71 142-80 319-42 466 22 85 28 146 118 169z"/>
  <path class="fil8" d="m4072 15658c26 59-11-2 16 27 35 39-2 3 10-3-47-10 25-5-48-8 29 41 70 53 135 75 141 48 225 176 456 170 34 44 52 61 109 81l29-17c-47-57-41-18-107-96-270-323-152-631 48-542 167 74 88 117 146 217 31 57 310 109 248-132-32 32-8-2-26 43-55 137-162 68-167 55-22-19-18-54-34-90-23-49-32-39-50-85 39 1 215 39 236 55l83 6c-12-51-8-47-59-58l-247-54c-98-18-221-66-315-1-218 152 47 556 49 569-182 19-712-381-320-527 121-45 150-12 170-77-105-12-254 37-319 96-114 104-30 186 8 298l-52-4z"/>
  <path class="fil1" d="m5964 6486c30-5 75-15 96-5-86 0-8-5-42 25 270-31 883-385 998-401-10 47-20 65-41 100-31 52-138 257-134 297 146 22 389-187 501-268 28-20 43-31 74-55 53-41 50-27 77-70-24 2-38 8-58-1-74 27-171 113-246 155-38 21-83 36-130 65-39 25-59 73-111 65-5-79 145-278 144-377-71-17-163 59-279 117-74 37-192 89-277 123-101 41-210 67-287 117-103 66-113 67-218 79-51 6-42 5-67 33z"/>
  <path class="fil2" d="m4315 6430c42 95 302 217 392 206 40-55 85-98 85-193 0-84-34-144-103-162-61-15-131 45-189 71l-142 51-35 20c-1-3-5 5-7 7z"/>
  <path class="fil9" d="m6009 5051c91 11 199-31 265-68 34-19 166-108 165-167-138-4-409 127-430 235z"/>
  <path class="fil4" d="m9041 15007c50 100 22 190 11 303 47-16 40-26 67-57 29-33 33-25 73-51l-1-182c-20-58-122-93-194-97l44 84z"/>
  <path class="fil10" d="m4922 15530c40 14 87 19 124-5 34-22 27-62 27-115-21-16-197-54-236-55 18 46 27 35 50 85 16 36 12 71 34 90z"/>
  <path class="fil11" d="m8458 15323c71-29 44-49 58-116 13-59 52-46 55-103-244 10-172 184-113 219z"/>
  <path class="fil12" d="m8435 772l61-23c-25 17-2-1-26 20l-38 43c33-13 147-82 168-119-61-10-43 1-91 25-60 30-39-2-74 54z"/>
  <path class="fil13" d="m8348 8676l40 1c4 26 0 21 8 44 31 82-2 15 34 46-10-40-22-71-32-108-24-88 4-63-44-91-30 48 1 42-6 108z"/>
  <path class="fil14" d="m7927 12176l25 80c54-6 49-18 71-58 21-37 33-43 49-89-71 43-31 62-95 116l-51-50z"/>
  <path class="fil15" d="m6003 2521c6-52 5-57-36-71-30 50-10 66 36 71z"/>
  <path class="fil16" d="m7678 1585c8 7-1 17 46 26 42 8 27 2 51-8-21-38-14-30-60-42 8 9 9 22 19 29l-56-4z"/>
  <path class="fil17" d="m3845 6058c-26-33-31-19-65-44l14-39c-25 17-9-18-31 29-15 34-2 13-1 38l82 15z"/>
  <path class="fil18" d="m7683 11780c16-9 22-1 35-19l43 47c-9-46-2-52-43-68-44 27-8-9-35 40z"/>
 </g>
</svg>
