<?xml version="1.0" encoding="UTF-8" standalone="no"?>
<!DOCTYPE svg  PUBLIC '-//W3C//DTD SVG 1.1//EN'  'http://www.w3.org/Graphics/SVG/1.1/DTD/svg11.dtd'>
<!-- Creator: CorelDRAW X5 -->
<svg style="shape-rendering:geometricPrecision;text-rendering:geometricPrecision;image-rendering:optimizeQuality" xmlns="http://www.w3.org/2000/svg" fill-rule="evenodd" xml:space="preserve" height="500px" width="500px" version="1.0" clip-rule="evenodd" xmlns:xlink="http://www.w3.org/1999/xlink" viewBox="0 0 12764 16208">
 <defs>
  <style type="text/css">
   <![CDATA[
    .str0 {stroke:#3C7143;stroke-width:3}
    .fil2 {fill:black}
    .fil10 {fill:#21562A}
    .fil0 {fill:rgb(39, 39, 39)}
    .fil4 {fill:#3C7143}
    .fil8 {fill:gray}
    .fil11 {fill:#937B35}
    .fil5 {fill:#9D4C37}
    .fil1 {fill:#BEDDCE}
    .fil7 {fill:#CCCCCC}
    .fil3 {fill:#ECB795}
    .fil12 {fill:#F3A785}
    .fil6 {fill:#F48359}
    .fil9 {fill:white}
   ]]>
  </style>
 </defs>
 <g id="Layer_x0020_1">
  <path class="fil0" d="m5922 364c-116 100-186 220-233 409l-40 152-76-125c-85-140-343-394-377-373-13 6 32 66 95 133 148 148 250 292 193 269-110-40-227-53-330-34-59 13-114 21-119 21-4 0-2 11 6 23 6 13 42 17 80 11 36-6 100-2 140 6l74 19-78 2c-91 2-106 34-28 53 89 23 59 47-59 47-148 2-299 70-354 161s-53 119 4 68c28-21 15-2-23 42-144 169-210 385-227 743-15 345-21 377-78 402-30 15-64 66-95 148-25 70-61 152-78 184-42 74-42 74 34 91l66 15-70 72c-51 53-64 78-47 95s0 42-57 95c-89 83-224 277-205 299 8 6 53-23 100-66 47-42 89-76 93-76 6 0-23 55-64 121-40 66-72 133-72 148 0 49 2 49-193-121-180-157-688-843-1306-1764l-311-464-6 100c-8 129 106 796 309 1814l165 821h-269-269l-11 68c-42 248-30 483 36 633 11 28-44 64-265 178-409 210-694 409-929 644-392 396-525 745-502 1325 19 512 125 826 430 1274 339 500 599 783 809 879 184 83 570 184 769 201 142 11 184 4 370-55 119-36 235-89 269-119 72-66 87-66 114-6 15 36 8 68-34 142l-55 97-2 635c-4 944 17 845-252 1179l-227 282 8 169c4 114 21 197 49 254 38 78 55 89 222 146 140 47 233 64 419 72l237 11v176c0 95 8 197 19 224 23 59 165 214 224 246 51 25 335 68 462 68h89l25 104c15 66 21 180 13 294-19 286 23 432 248 883l193 381-70 23c-74 23-83 40-123 246-30 146-95 250-186 292-49 23-66 42-59 70 6 23-4 44-25 51-478 163-612 258-591 415 25 188 207 318 502 356 462 59 921-40 1469-313 326-163 351-184 351-284 0-47-23-157-53-243-30-87-53-167-53-180s23-51 53-87c80-95 91-165 32-212-25-21-78-38-119-38-91 0-91 8-6-430 93-491 100-692 34-946-30-110-59-218-68-239-13-28-6-34 19-23s34 0 34-47c0-57 6-61 78-61 102 0 138-61 127-212l-8-106 38 85c57 123 53 224-13 286-30 28-47 57-38 66 15 15 174 42 413 72 64 8 108 25 121 49 11 19 19 169 19 332 0 438 44 584 305 1012 70 114 123 214 114 220-6 6-34 23-59 36-64 32-72 129-28 267 36 108 25 243-32 390-32 83 23 169 97 155 28-4 61 4 74 19s112 64 222 106 224 95 254 121c61 47 252 100 370 100 42 0 100 17 129 40 89 70 224 93 567 95 373 2 474-19 584-121 102-93 123-180 70-284s-138-167-305-237c-100-40-150-78-203-148-66-85-252-214-406-284-55-23-59-34-51-110 6-47 23-125 38-176 38-121 11-163-102-163h-83l8-279c8-241-8-462-53-686l-11-53 165 17c203 21 273 2 445-129 186-140 207-176 216-354 11-174-30-288-140-415-66-72-174-277-174-328 0-15 34-51 72-80 89-68 161-207 161-309-2-104-72-243-180-360-110-119-207-301-254-483-19-74-32-135-28-140 4-2 49-28 102-53 131-66 254-186 254-252 0-30-21-74-47-102l-44-49h64c91 0 140-66 241-326 80-212 87-237 61-303-28-83-19-108 21-59 30 36 87 42 119 11 17-17 30-15 47 6 53 64 216 406 216 455 0 55-66 258-85 258-6 0-6-47-4-104 6-91 2-108-42-138-55-36-169-28-227 17-17 13-57 80-91 150-74 159-76 271-8 370 70 106 85 163 55 233-21 51-19 74 11 131 21 38 55 106 78 150 21 42 74 102 119 129 42 30 100 74 123 102 25 28 114 85 197 131l152 80 121-32c66-17 135-38 155-44 23-11 57 17 123 102 155 207 157 241 21 601-47 119-83 237-83 265 2 68 87 265 165 379 121 178 292 233 464 150 142-66 656-737 739-961 42-119 49-360 11-491-34-114-144-227-224-227-91 0-267 80-392 178l-123 95-214-220c-163-167-214-233-203-263 70-224 89-464 51-701-17-119-15-165 13-258 64-214 83-597 55-1050-15-229-34-489-47-578-11-91-28-296-38-457-23-364-53-445-279-779-212-313-252-394-356-694-44-129-176-483-290-783l-207-546 121-112c129-121 135-144 89-277-17-47-32-87-32-89s25 4 55 15c85 34 91 28 66-70-11-49-21-227-23-396-4-337-17-390-146-525-76-78-89-80-265-28-123 38-142 38-222 11-49-19-182-42-299-51-114-11-214-25-220-32-6-4 4-47 23-89 83-191 140-561 184-1181 25-345 55-1954 36-1937-6 6-34 68-64 140-51 119-478 1020-932 1956l-178 370-38-74c-19-40-61-100-91-133-51-53-53-59-17-85 34-25 30-32-59-78-57-32-89-59-76-72 11-11 6-49-11-93-17-40-32-100-32-133 0-34-17-70-40-87s-44-57-49-91c-8-89-64-89-161-2l-83 76-15-157c-25-273-95-462-252-667-91-119-315-311-432-370-91-44-212-42-309 6-42 21-78 36-78 32 0-57 205-282 370-406l64-49-74 13c-135 25-263 140-430 392-28 38-36 42-36 17 0-85 146-379 290-584 49-70 4-57-95 30zm-3874 7833c-44 34-59 19-78-76l-15-74 66 61c59 57 61 64 28 89z"/>
  <path class="fil1" d="m8694 1516c-38 491-288 1010-747 1556-155 182-186 212-237 207-34-2-64-8-68-13-4-4-17-78-28-163l-19-155 449-934c248-514 498-1035 555-1160l104-227 6 322c2 178-2 432-15 565z"/>
  <path class="fil2" d="m5545 976c53 23 89 57 108 102l30 68 2-64c2-36 8-51 15-34 8 21 19 17 40-21 28-51 28-51 30 23v74l55-70c165-207 377-165 680 140 273 271 360 523 375 1067 4 201 4 205-38 182-25-13-104-80-174-148-150-142-246-328-252-481-4-123-64-250-135-286-30-17-78-55-108-87-97-106-271-146-246-55 23 70 57 241 51 248-4 2-38-76-78-174-38-100-74-176-78-171-6 4 0 74 13 155 11 80 19 203 19 273-2 125-4 123-34-74-17-110-38-210-49-220-66-68-138 112-123 305l11 116-61-138c-53-119-59-148-42-216 13-44 17-80 15-80-17 0-201 294-222 351-38 106-70 157-97 157-36 0-135 123-135 167 0 19-11 47-23 59-13 13-44 85-70 157-25 74-91 227-146 337-142 288-188 542-144 779l19 93-100 42c-135 57-396 127-451 119-23-4-55-23-68-44-36-57 93-290 235-415 64-57 108-108 97-114s-70 17-133 51c-61 34-116 59-121 55-13-13 93-102 229-191 125-83 358-326 358-375 0-13-23-21-51-21-30 0-83-25-119-57-57-47-66-66-53-121 6-36 21-199 32-362 30-438 87-635 237-805 80-93 186-150 320-169 123-19 116-32-32-53l-112-17 157-2 155-2-11-55c-8-53-6-55 70-42 42 6 114 28 157 44z"/>
  <path class="fil1" d="m2647 1791c536 792 957 1366 1171 1592l112 119-53 87c-51 78-76 97-123 89-11 0-17 6-17 19 0 11-64 38-140 64l-140 42-95-42c-129-57-320-186-525-360l-169-142-91-474c-51-260-97-493-104-517-4-23 40 34 100 127 309 474 779 1033 1020 1209 140 104 148 83 11-25-148-114-459-478-838-982l-311-413-57-360c-87-527-85-510-61-487 11 11 150 216 311 455z"/>
  <path class="fil3" d="m6109 1446l64 59-72 76-72 76-13-87c-8-47-19-108-28-135-15-66 40-61 121 11z"/>
  <path class="fil3" d="m5780 1709c17 121 32 271 32 332 0 78 8 110 25 106 42-15 64-123 66-341l2-207 38 95c34 87 34 104 6 184-42 116-40 119 21 61 44-40 53-44 53-15 0 19 11 36 21 36 13 0 21-28 21-61 0-76 66-129 161-129 83 0 93 13 180 220 80 191 237 379 413 491l108 68 100 299c89 260 102 318 93 432-21 332-413 826-815 1025-146 72-159 74-341 66-167-8-207-19-366-95-188-91-464-277-597-404-275-267-313-760-93-1200 47-93 106-222 133-286l49-116 2 85 4 85 34-97c19-53 47-93 57-89 13 4 34-21 47-57 30-76 167-146 288-148 42 0 78-8 78-19 0-36-104-104-180-116-40-8-74-19-74-23 0-19 104-243 112-243 6 0-2 44-19 100-17 53-30 110-30 127 0 36 42 36 44 0 0-13 17-64 38-110l38-85 85 182c87 184 152 271 125 161-32-127-57-383-42-445 32-155 44-135 83 135zm250 917c32 30 57 68 57 85 0 57-309 72-364 17-19-19-15-36 15-68 21-23 34-49 25-55-6-6-28 13-49 44-42 66-19 129 47 123 23-2 66 4 95 17 61 23 214-8 252-55 25-30-25-106-91-140-38-17-36-13 13 32zm106-502c-87 17-155 102-155 197 0 252 368 299 415 55 28-152-106-282-260-252zm-730 123c-72 40-102 93-102 186 0 112 155 224 263 193 53-15 140-91 140-121 0-13-21-4-47 19-28 21-36 25-21 8 32-38 34-131 0-165-15-15-51-25-80-25-70 0-106 36-106 108 0 64 30 95 106 110 32 4 11 11-47 13-171 4-246-131-133-241 66-68 193-72 273-8 68 53 74 21 4-42-64-59-176-76-250-34zm885 673c4 15-4 44-19 66-23 34-64 40-271 44-133 2-282 13-328 21-74 13-95 8-131-28-42-42-42-42-66 11-15 30-19 59-15 66 6 6 17-6 25-25 11-30 23-25 91 28 135 106 182 119 434 110 91-2 110-11 184-93 155-167 163-180 140-203-32-32-57-30-44 4z"/>
  <path class="fil1" d="m8672 2227c-38 635-25 586-212 779-89 91-224 222-301 290l-142 125-127-59-129-61 148-146c180-178 343-385 481-616 112-184 246-495 269-627 30-159 34-55 13 315z"/>
  <path class="fil3" d="m7125 2067c0 40-11 64-30 64-44 0-97 59-97 108 0 21-19 59-42 83-49 49-51 34-19-97 17-61 49-114 97-157 38-36 76-64 80-64 6 0 11 28 11 64z"/>
  <path class="fil3" d="m7216 2251c6 44 17 97 25 116 11 28 4 38-19 38s-34 19-34 59c0 74-70 152-135 152-93 0-131-186-55-275 23-28 42-70 42-97 0-53 23-68 108-70 49-2 57 8 68 76z"/>
  <path class="fil3" d="m4589 2589c30 32 36 47 15 38-55-21-129-138-114-176 13-30 19-23 34 25 8 34 38 85 66 112z"/>
  <path class="fil2" d="m7339 2583c-17 19-4 44 51 97 110 106 165 254 174 459 2 95 11 197 19 227 13 53 11 55-57 42-102-19-265-91-303-133-17-19-40-78-53-131s-51-176-87-271c-34-95-64-184-64-195s23-19 53-19c57 0 159-91 159-142 0-23 13-23 66 4 49 25 59 40 42 61z"/>
  <path class="fil3" d="m4622 2689c25 8 47 25 47 40 0 42-231 248-279 248-42 0-40-6 32-80 42-44 78-87 78-95s-28-15-59-15c-72 0-95-19-70-51 11-13 30-64 42-112l25-91 68 72c38 38 91 76 116 85z"/>
  <path class="fil1" d="m8586 3129c-32 216-100 438-138 453-34 15-138-17-303-91l-114-51 135-102c148-112 419-377 421-413 0-13 6-11 13 4 6 15 0 106-15 199z"/>
  <path class="fil3" d="m7466 3436c140 36 148 40 167 114 70 260 80 472 30 580-53 112-625 650-925 870-72 55-167 112-210 129-104 42-199 152-231 265-51 193-8 521 142 1071 30 110 49 203 44 210-17 15-220-339-426-737l-180-345-131-28c-271-55-597-258-796-495-102-121-100-112-68-246 28-104 11-133-74-133-74 0-229-89-267-155-21-36-55-135-76-224-34-157-108-328-212-493-61-97-61-102-6-102 25 0 148-34 275-76s235-74 237-70 32 61 64 127c70 140 176 246 406 411 354 252 648 354 889 307 163-32 286-95 474-246 260-207 523-582 565-805l13-68 72 49c40 28 140 68 222 89z"/>
  <path class="fil1" d="m3028 3618c47 34 150 93 231 131l146 68-241 38c-133 19-269 32-303 28-66-6-72-23-169-512-13-55-4-53 119 64 74 66 171 150 218 184z"/>
  <path class="fil3" d="m2490 4757c28 197 64 263 152 292 61 21 76 40 108 146 21 66 61 150 87 186l51 66-116 25c-64 15-239 87-387 161-233 114-284 150-349 235-42 55-95 114-119 129-57 40-119 165-135 279-8 53-68 203-133 337-119 241-121 246-129 470l-8 229 108 237c59 131 142 282 184 332 47 57 91 144 116 233l40 142-74 146c-40 80-68 157-61 167 8 13 53-51 100-140 129-248 161-256 489-131 102 38 184 55 279 55 127 0 138 4 157 55 25 66 6 188-34 231-21 21-76 30-174 28-102-2-159 6-193 30-32 23-40 38-23 49 15 8 36 4 49-8 13-13 93-23 178-23 119 0 163-8 193-38s66-36 212-30c95 4 174 15 174 23s-30 61-66 114c-42 64-87 104-121 112-32 6-127 32-214 55-85 23-178 36-203 30-28-6-55-4-64 8-32 49 112 47 326-8 243-61 296-102 375-273 28-57 49-78 87-78 25 0 49 6 49 13 0 28-180 222-252 271-42 30-157 78-256 110-152 47-201 53-328 42-294-28-711-152-881-267-263-174-870-1029-982-1378-129-409-150-942-53-1258 129-409 379-720 828-1027 180-125 972-557 989-540 4 2 17 76 28 161z"/>
  <path class="fil3" d="m9559 5771c119 309 248 661 288 783 74 227 201 470 356 677 152 205 246 411 246 536 0 61 19 296 42 523 89 862 93 1480 11 1755-30 97-32 144-13 328 23 203 11 404-32 576-17 66-30 64-106-15-55-59-57-66-23-85 44-25 100-129 100-188 0-61-34-36-49 38-8 38-49 91-114 142-55 44-146 125-201 176l-100 95-112-23c-61-15-155-32-207-42-102-17-121-47-97-144 19-70 131-135 231-135 57 0 83-11 91-38 34-102 64-163 146-311 51-87 83-163 74-169-15-11-125 157-205 315-19 34-28 28-68-55-23-51-44-112-44-133 0-47-80-138-121-138-38 0-36-21 15-138 40-95 40-100 4-207-23-61-78-180-127-265-49-87-89-163-89-174 0-8 44-70 97-135 93-112 97-121 83-218l-13-102 106-78c116-87 144-159 123-318-23-167-167-286-478-398l-188-68-15-129c-36-324-180-876-307-1179-38-87-87-207-112-265-38-89-44-150-47-381 0-351 28-423 260-650 161-157 368-337 379-328 2 2 100 258 218 565zm362 5369c83 11 110 28 176 106 42 49 76 100 76 112 0 19-74 49-193 74-38 8-100-15-227-87-171-97-210-140-186-214 11-34 28-36 135-21 66 8 165 23 218 30zm-106-504c13 61 8 70-42 80-135 30-195 57-235 108-44 59-57 195-21 231 13 13 15 42 6 68l-17 44-70-55c-78-61-78-76 0-320 34-106 55-140 108-167 174-89 252-87 271 11zm-70-163c4 23-28 42-108 68-163 51-186 76-248 258l-55 163-38-72-38-72 87-174c55-108 106-182 135-195 76-32 256-17 265 23zm-55-157c59 53 47 70-51 70-176 0-235 32-296 152l-57 112v-74c0-112 68-260 127-277 100-28 237-19 277 17zm-182-258c8 17 6 66 0 106-13 64-25 74-91 87-68 13-80 28-133 142-53 119-59 125-83 83-38-72-28-167 32-286 32-61 66-123 76-138 32-38 184-34 199 6zm114-2606c-93 61-229 210-254 279-38 100-21 102 40 6 59-93 167-201 286-290 80-61 23-57-72 4z"/>
  <path class="fil4" d="m5435 5505c85 40 212 85 284 100l127 25 121 235c169 335 387 722 489 870 87 129 106 180 478 1266 165 483 360 1192 392 1427 8 61 25 112 36 112 68 0-214-1126-417-1666-30-76-49-146-42-155 6-11 2-21-6-25-32-11-235-595-356-1014-15-53 100-91 222-76 214 25 529 227 1018 648 305 263 726 661 713 673-15 15-373-144-506-227-74-44-142-76-152-70-64 40 381 258 769 379 677 212 836 267 951 324 184 93 258 193 258 351 0 104-15 129-131 216l-106 76 11 108c11 106 6 112-106 252-66 78-127 148-138 155-11 8-49-13-83-44-55-55-61-57-74-21-8 21-4 78 8 129 23 85 19 106-51 288-108 279-116 292-231 292-112 0-123 30-42 123 70 83 68 110-15 186-102 93-146 116-451 237-381 148-561 182-908 167-241-11-349-28-828-140-589-138-741-184-796-237-125-125-377-254-525-271l-112-13 112-80 114-80-138 13-138 13-138-125c-76-68-157-136-182-148-64-34-140 13-161 95-23 91-76 114-284 129-161 8-186 4-292-47-207-102-470-436-709-900-123-239-123-218 4-370 44-51 74-61 188-74 178-19 248-64 504-337 326-345 423-521 500-893 32-159 34-214 13-468-28-313-61-453-155-639-34-68-55-135-47-148s91-114 182-224c167-199 402-538 428-616 13-38 23-32 127 53 64 51 184 127 269 167zm1721 2348c328 193 459 290 667 500 229 231 347 303 680 413 241 80 641 174 824 193 76 6 25-11-148-51-504-121-811-222-1027-343-59-34-193-146-299-250-197-195-436-364-701-498-220-110-218-93 4 36zm34 593c4 4 144 87 311 182 800 455 1308 887 1514 1283 30 57 55 97 57 87 0-11-30-76-66-146-220-434-794-910-1562-1296-201-100-288-138-254-110zm-53 881c-305 517-644 887-1016 1111-171 104-131 95 78-13 301-157 661-544 910-984 78-138 146-282 133-282-4 0-51 76-106 167zm-550-1643c-301 557-434 675-993 891-354 138-553 246-758 415-349 286-561 442-749 548-220 127-222 142-4 32 186-95 421-252 595-398 326-277 493-377 908-542 512-203 635-290 826-586 97-148 277-493 265-504-4-4-42 61-89 144zm1363-4236c123 59 279 129 351 157 150 57 438 119 478 104 15-6 100 6 184 30 157 38 161 38 305-2l146-42 53 51c116 108 138 186 142 534 2 176 13 339 23 360 15 34 11 38-19 28-21-8-61-21-89-28l-51-13 40 91c57 135 68 199 38 235-13 19-125 116-248 218-275 229-495 442-555 536-23 40-55 110-70 159-32 102-25 116-85-218-80-468-318-976-601-1294-121-135-129-87-11 59 205 250 362 534 464 834 66 193 66 201-4 146-138-104-438-301-705-459-377-222-466-269-466-235 2 15 123 93 269 176 320 178 792 483 910 591 80 72 87 87 110 252 42 292 47 311 61 311 8 0 15 74 17 165 2 184 40 332 157 608 155 360 318 987 318 1213v106l-260-78-260-76-157-167c-191-201-779-720-1033-912-102-76-265-180-362-229-157-78-197-89-318-89-76 0-155 8-174 17-32 15-44-21-102-254-106-442-129-574-129-728 0-222 74-366 218-423 216-85 1084-849 1169-1029 61-127 17-525-87-798-13-36-8-38 47-25 34 8 161 64 284 123zm-3815 275c176 275 254 438 290 610 57 273 125 343 406 415 19 4 19 25 4 76-34 119-23 157 80 282l100 121-61 119c-68 131-305 453-470 639l-102 119-112-123c-142-152-364-301-574-383-182-70-498-142-635-142-78 0-104-11-161-72-40-42-83-123-104-195-21-70-40-138-47-152-4-13-30-25-57-25-28 0-66-13-85-28-36-25-42-53-110-491-32-201-104-404-171-478-28-32-23-36 49-49 44-6 152-13 239-13 212 0 629-53 830-104 288-74 400-129 468-231 32-49 68-89 78-89 8 0 74 89 144 195zm-1816 360c57 93 119 260 133 368 13 83 11 87-61 121-40 19-78 36-85 36-6 0-25-34-42-74-36-87-42-519-8-519 13 0 40 32 64 68z"/>
  <path class="fil5" d="m3435 5560c428 104 764 337 963 667 108 180 142 301 180 625 38 328 23 476-72 766-76 231-178 375-470 673-277 282-220 258-703 299-159 13-322 19-362 11-68-13-70-17-64-95 4-44-2-104-17-129-21-40-21-44 15-34 271 83 381 91 567 44 227-57 390-152 563-326 131-131 171-191 224-320 89-216 133-445 133-692 0-370-68-663-188-824-186-246-629-476-1044-540-180-28-292 4-493 142-74 51-207 127-294 165-133 61-165 87-201 159-25 47-44 116-44 157 0 40-32 144-72 231-114 246-150 415-123 584 11 78 21 169 23 201 2 74 28 123 142 269 49 64 138 199 195 299 114 195 135 218 214 241 28 8 91 44 142 80 78 55 87 70 59 85-51 30-169 6-390-74-188-72-210-85-366-248-142-148-182-207-282-421l-119-248 13-222c13-216 15-229 131-462 68-140 125-288 135-358 19-108 104-260 146-260 8 0 47-42 85-95 59-83 110-116 343-235 150-74 309-146 354-157 116-30 476-8 675 42z"/>
  <path class="fil6" d="m3356 5771c324 89 677 299 819 483 116 155 186 514 169 883-21 417-133 701-364 917-224 212-565 345-792 311-167-25-415-114-510-182-51-36-123-78-161-95-53-21-97-78-197-241-70-116-165-260-214-320-47-59-89-129-93-152-36-195-49-398-34-487 21-108 116-360 161-428 17-23 30-78 30-123 0-159 74-256 237-309 42-15 138-66 212-114 246-163 292-182 440-184 76 0 210 19 296 42zm-265 610c-205 176-398 385-445 485-87 182-49 347 144 637 114 169 406 476 517 538 34 19-44-72-171-201-343-347-529-684-478-864 38-131 140-267 377-500 133-131 239-239 235-239s-85 66-178 144z"/>
  <path class="fil4" d="m8706 11096c25 47 93 140 150 205 129 146 184 279 163 392l-15 80-28-66c-32-78-110-140-339-265-207-114-402-303-483-468-32-66-57-125-57-129s64-32 142-57c78-28 182-64 229-85l85-36 55 171c30 95 74 210 97 256zm-5276-1922c207 377 334 536 722 904 400 381 538 491 798 644 89 51 163 108 163 125 0 55-146 349-227 455-161 210-457 394-804 495-349 102-838 91-1133-28-110-44-165-163-165-354v-133l227-284c269-332 241-201 246-1162 4-582 8-654 44-726 21-42 42-78 44-78 4 0 42 64 85 142zm1520 722c171 155 231 195 284 195h55l-57 44c-76 59-40 104 87 104 125 0 360 121 534 273 64 55 138 78 671 203 557 129 517 116 430 152-148 64-478 136-686 146-646 38-1334-248-1893-788l-203-195 87 15c171 32 474-34 474-104 0-11 8-42 21-72 30-78 91-70 197 25zm578 1073c93 28 248 61 343 74l174 25-13 152c-6 83-2 227 8 320 21 167 21 169-47 282-76 131-294 351-523 529-188 150-231 165-315 125-57-30-72-28-184 19-229 91-625 112-948 49-91-17-121-36-201-129l-95-110-6-195-8-195 114-15c174-23 449-110 605-188 356-178 605-459 703-790l28-87 97 42c53 23 174 64 269 91zm1886-74c114 13 250 11 373-4 108-13 212-23 233-25 25-2 53 36 93 121l55 121-76 229c-40 125-87 277-100 337-47 205-413 853-527 932-36 25-106 51-157 59-49 8-127 36-174 61-74 40-119 44-381 44-163 0-324-8-358-17-59-17-59-17-21-59 57-64 47-188-34-349-36-74-106-248-152-385-83-239-87-260-95-572l-11-322h127c191 0 464-55 686-135 140-53 218-70 269-64 40 6 152 21 250 30zm-1243 1135c55 182 64 243 59 392l-6 178-100-6c-91-6-102-2-102 38 0 25-8 42-21 38-11-4-112-83-224-174-188-157-201-171-165-197 89-64 354-341 406-423 32-49 64-83 70-74 8 8 44 112 83 229zm2153-754c64 57 176 140 252 182 74 42 144 91 155 110 8 21 23 116 30 216 15 224 85 428 201 578 112 144 146 229 150 375 4 155-38 224-207 354-127 93-148 102-275 108-136 8-745-57-974-104-129-28-275-144-358-290l-47-85 78-15c174-32 222-80 402-392 199-345 279-517 313-673 36-152 140-470 155-470 4 0 61 47 125 106z"/>
  <path class="fil5" d="m10453 11109c97 104 178 197 180 205 4 8-53 55-127 106l-131 91-42-53c-23-28-100-119-169-203l-125-152 97-93c55-51 108-93 121-93 11 0 100 87 197 193z"/>
  <path class="fil7" d="m11497 11322c87 68 116 161 116 364 0 218-42 351-114 351-112 0-390-220-517-406-61-93-57-102 110-218 110-76 246-135 311-138 19 0 61 21 93 47z"/>
  <path class="fil8" d="m10796 11471c55 61 146 171 201 243 127 165 279 292 411 341l102 38-38 49-40 49-326-74c-180-40-402-91-493-110-140-30-163-40-152-70 38-97 34-229-8-309-23-47-42-85-38-87 2-2 61-42 129-91 70-49 131-89 140-89 8 0 59 51 114 110z"/>
  <path class="fil9" d="m8912 11676c38 42 38 49 4 138-57 146-89 159-106 42-6-55-13-135-13-182 0-72 4-80 38-61 19 11 55 38 76 64z"/>
  <path class="fil7" d="m10679 12068c89 23 104 36 180 171 47 80 131 195 186 252l100 104-104 121c-159 182-301 233-447 157-70-36-210-235-265-381-40-104-30-163 59-375 49-112 42-110 290-49z"/>
  <path class="fil8" d="m10967 12129c23 6 68 17 97 23 30 6 64 34 78 64 13 28 51 83 85 123l64 72-59 72-61 74-93-97c-83-87-227-307-227-345 0-8 17-11 38-4 19 4 55 15 78 19z"/>
  <path class="fil8" d="m11323 12210c91 23 93 32 36 104l-42 53-64-74c-95-110-83-125 70-83z"/>
  <path class="fil3" d="m5797 12567c155 129 165 144 214 296 121 366 121 498 11 1080-36 193-72 411-78 487l-15 138-148 28c-182 34-546 23-631-19-49-23-80-76-161-273-55-133-169-377-254-540-135-263-155-318-176-476-13-100-17-227-8-284l17-104 89 89c123 121 142 83 21-44-91-97-157-214-157-277 0-21 47-38 159-55 87-13 216-42 286-68 110-38 140-40 191-19 83 34 138 17 273-83 131-97 85-114 368 125z"/>
  <path class="fil3" d="m7239 12796c51 97 229 284 301 313 36 15 212 49 392 72 180 25 332 51 339 55 49 30 93 548 72 843l-15 227-106 53c-157 78-400 135-656 150-227 13-227 13-248-38-11-30-72-142-138-250-267-438-313-595-309-1029 2-150 0-294-4-318-4-34 11-42 89-55 53-8 129-30 169-47s76-34 78-34c2-2 19 25 36 57z"/>
  <path class="fil10" d="m8539 14339c4 25-13 85-38 133-25 51-38 104-32 129 8 23 4 55-8 70-19 23-8 32 47 42 40 8 89 32 110 55 38 42 36 42-47 42-64 0-95 13-129 53-64 74-104 66-195-36l-78-89-38 165c-38 176-100 267-176 267-21 0-127 38-235 85-106 47-199 85-203 85s-11-21-15-49c-6-40-19-47-100-47-83 0-97-6-108-51l-11-51-28 57c-15 32-38 55-53 49-32-11-30-95 6-263 28-119 25-144-6-233-70-197-70-197 197-197 171 0 233 6 233 25 0 21 4 21 19 0 8-17 97-42 193-59 184-32 440-129 529-199 70-55 157-47 165 15z"/>
  <path class="fil10" d="m4959 14371c11 15 32 55 44 87 28 64 13 64-66-2-19-17-42-25-51-17-30 30 131 140 267 182 93 30 193 42 330 42 155 0 201 6 224 34 17 21 32 119 40 243 8 125 23 220 40 237 21 21 21 13 4-34-13-34-23-131-23-218 0-102-13-182-32-220-32-61-32-64 11-64 72 0 318-68 318-87 0-11-19-19-42-19-32 0-42-15-42-53 0-47 8-53 70-53 38 0 87 13 108 28 36 28 36 32 4 91-19 34-53 85-76 114l-42 53 64 180c123 349 89 392-290 368-222-13-256-21-347-76-116-74-167-70-205 11-21 42-40 57-64 47-21-8-102-23-184-34-176-23-243-49-243-91 0-19 21-53 49-78l47-44-106 15c-197 25-191 28-197-49-4-47 2-68 21-68 51 0 148-121 186-231l36-108 51 55c59 64 165 121 279 152 64 17 78 17 78-8 0-17-19-30-42-30-72 0-229-85-296-161-83-95-83-174 0-205 49-17 57-17 78 11z"/>
  <path class="fil11" d="m8831 14900c135 93 138 114 15 127-55 6-140 28-186 49-114 53-326 271-404 409l-61 114-121-15c-68-6-152-23-188-36-64-21-66-28-55-112 21-142 55-197 140-224 112-36 142-70 184-222 21-74 47-135 55-135s32 23 51 53c47 70 138 70 203 2 32-34 78-55 133-61 47-4 95-8 108-11 15-2 70 28 127 64z"/>
  <path class="fil10" d="m4542 15049c0 11 23 51 53 85 119 140 188 351 165 498l-13 70h-203c-332 0-502-70-584-243-44-97-40-127 28-201 38-47 129-95 290-159 224-89 265-95 265-49z"/>
  <path class="fil11" d="m4737 15123c8 74 72 106 265 133 258 38 292 47 343 93 47 42 108 155 108 201 0 42-423 150-599 150-55 0-59-4-47-72 21-106-25-290-104-421-74-121-74-142-11-142 25 0 40 19 44 57z"/>
  <path class="fil10" d="m9009 15097c15 17 38 32 51 32 55 0 282 125 347 191 129 133 76 284-133 373-191 78-819 53-957-40-38-25-70-53-70-59 0-8 38-72 87-144 97-148 237-275 364-339 106-53 273-59 311-13z"/>
  <path class="fil10" d="m5486 15248c78 42 159 74 193 72s112-2 176 0l116 4-233 114-233 112-28-78c-15-42-61-112-104-157-49-49-70-89-64-110 17-44 21-44 176 42z"/>
  <path class="fil10" d="m7796 15375c-21 108-21 108-76 78-30-15-83-38-119-51l-64-21 138-59c76-32 140-57 140-57 2 2-6 51-19 110z"/>
  <path class="fil9" d="m7464 15309c0 36-4 38-53 19-28-11-30-17-6-32 40-28 59-23 59 13z"/>
  <path class="fil2" d="m5869 1143c-55 15-108 34-116 44-8 8 8 8 38 0s114-17 191-17c233 0 428 116 574 343 80 123 78 87 0-51-70-123-207-256-307-296-108-44-267-55-379-23z"/>
  <path class="fil2" d="m5209 1239c-233 106-400 445-423 860l-11 169 32-167c68-356 152-574 277-709 93-106 133-129 273-163l106-25-85-2c-47 0-123 17-169 38z"/>
  <path class="fil2" d="m4756 2312c0 23 6 30 13 13 6-15 4-34-2-40-6-8-13 4-11 28z"/>
  <path class="fil9" d="m6297 2204c102 51 116 152 34 233-28 30-70 53-95 53h-42l42-42c51-51 53-91 8-135-38-40-138-44-174-8-34 34-32 100 2 144 13 19 4 11-21-17-66-66-61-123 13-197 70-68 142-78 233-30z"/>
  <path class="fil9" d="m6151 2363c0 11-8 21-21 21-11 0-21-11-21-21 0-13 11-21 21-21 13 0 21 8 21 21z"/>
  <path class="fil12" d="m6130 3059c0 25-246 47-347 28-80-13-74-15 83-28 93-6 191-13 218-15 25-2 47 4 47 15z"/>
  <path class="fil12" d="m6162 3136c-57 47-83 53-243 53-144 0-193-8-243-42l-64-42 180 13c100 6 222 2 275-8 150-32 163-28 95 28z"/>
  <path class="fil2" d="m6471 3661c-4 57-76 191-133 239-119 110-339 165-457 116-53-23-135-116-243-277-49-70-44-40 6 70 25 51 76 125 119 165 70 68 85 72 237 78 144 6 176 0 279-53 93-47 127-78 165-159 30-59 47-123 40-159-4-32-11-42-13-21z"/>
  <path class="fil2" d="m1451 5937c0 8 34 34 74 55 42 23 108 74 148 112 40 40 74 59 74 44 0-30-55-100-108-140-51-38-188-91-188-72z"/>
  <path class="fil2" d="m9471 8983c13 4 38 4 53 0 13-6 2-11-28-11s-40 4-25 11z"/>
  <path class="fil2 str0" d="m3936 10550c-97 167-349 428-527 546-70 47-216 129-326 184-110 57-195 102-188 102 32 0 256-87 368-144 322-161 595-442 735-752 53-119 30-95-61 64z"/>
  <path class="fil2" d="m4135 11064c-133 135-356 290-716 495-133 76-235 140-224 140s110-42 220-95c366-174 737-453 828-620 32-61 32-61-108 80z"/>
  <path class="fil2" d="m5179 11532c-144 174-510 394-965 582-210 87-184 91 55 11 464-157 853-409 963-620 40-78 32-74-53 28z"/>
  <path class="fil2" d="m6987 11498c6 34 17 193 23 349 17 320-8 453-110 605l-55 83 66-61c76-74 140-229 159-398 17-131-15-406-61-548-19-59-28-70-21-30z"/>
  <path class="fil2" d="m8230 12216c95 182 341 415 525 498 150 68 171 51 32-23-83-44-205-146-354-294-125-125-216-205-203-180z"/>
  <path class="fil2" d="m7946 12633c125 184 311 309 529 356 180 38 197 23 36-28-218-70-311-125-481-284-150-140-150-140-85-44z"/>
  <path class="fil2" d="m7927 14769c-6 133-23 267-38 296-23 49-23 49 6 15 51-64 85-313 64-442-21-108-21-102-32 131z"/>
  <path class="fil2" d="m7614 14646c-2 19 8 61 21 95 13 32 36 121 51 197 25 125 28 129 30 51 2-80-100-419-102-343z"/>
  <path class="fil2" d="m7677 15121c0 23 6 30 13 13 6-15 4-34-2-40-6-8-13 4-11 28z"/>
  <path class="fil9" d="m5630 2260c16 10 31 23 44 37-5-5-11-11-18-17-8-7-16-14-26-20zm74 87c6 15 10 30 13 47-4-1-6 10-6 33 0 16 1 26 3 30-3 15-9 29-16 42-8 1-23 10-39 25-28 21-36 25-21 8 32-38 34-131 0-165-15-15-51-25-80-25-70 0-106 36-106 108 0 64 30 95 106 110 32 4 11 11-47 13-70 2-124-20-156-54-17-25-28-54-31-85 2-34 19-69 53-103 66-68 193-72 273-8 31 24 49 31 53 24z"/>
  <path class="fil9" d="m5558 2426c0 11-8 21-21 21-11 0-21-11-21-21 0-13 11-21 21-21 13 0 21 8 21 21z"/>
  <path class="fil2" d="m5711 2426c0 30 4 40 11 25 4-13 4-38 0-53-6-13-11-2-11 28z"/>
 </g>
</svg>
