<?xml version="1.0" encoding="UTF-8"?>
<!DOCTYPE svg PUBLIC "-//W3C//DTD SVG 1.1//EN" "http://www.w3.org/Graphics/SVG/1.1/DTD/svg11.dtd">
<!-- Creator: CorelDRAW X5 -->
<svg xmlns="http://www.w3.org/2000/svg" xml:space="preserve" height="500px" width="500px" style="shape-rendering:geometricPrecision; text-rendering:geometricPrecision; image-rendering:optimizeQuality; fill-rule:evenodd; clip-rule:evenodd"
viewBox="0 0 12764 16208"
 xmlns:xlink="http://www.w3.org/1999/xlink"
 version="1.0">
 <defs>
  <style type="text/css">
   <![CDATA[
    .fil3 {fill:black}
    .fil0 {fill:rgb(39, 39, 39)}
    .fil1 {fill:#3C7DD9}
    .fil5 {fill:lightcyan}
    .fil2 {fill:#FC9E1A}
    .fil6 {fill:#FDFF30}
    .fil7 {fill:#FE0000}
    .fil8 {fill:#FE9F1D}
    .fil4 {fill:white}
   ]]>
  </style>
 </defs>
 <g id="Layer_x0020_1">
  <metadata id="CorelCorpID_0Corel-Layer"/>
  <path class="fil0" d="M4453 995c-312,92 -603,729 -566,1241l14 229 -172 214c-397,492 -689,958 -798,1273 -94,275 -80,297 89,146 166,-149 232,-163 300,-57 40,60 46,117 31,360 -11,157 -14,283 -9,277 6,-6 71,-180 146,-383 263,-726 526,-1347 621,-1467 23,-26 57,-9 149,74 66,60 223,177 346,263 126,83 240,160 255,174 14,14 -40,100 -129,203 -260,300 -255,292 -146,269 49,-11 92,-11 92,0 0,14 -80,106 -177,206l-180 183 137 -11 137 -9 -20 114c-51,306 -6,615 103,715 54,51 57,49 57,-31 0,-143 43,-166 83,-46 54,146 134,255 209,280 34,9 126,89 203,174 226,246 435,343 821,377l186 17 23 172c11,94 17,269 14,386l-9 214 -214 106c-257,129 -752,252 -1401,352 -755,117 -1061,223 -1313,458 -277,260 -326,592 -157,1098 74,229 77,240 29,315 -177,269 -232,589 -123,712 49,54 46,57 -117,114 -92,34 -197,94 -232,132l-66 69 169 20c92,11 223,37 295,60 117,34 120,37 29,29 -134,-14 -329,34 -386,97 -43,49 -40,51 77,71 275,46 529,220 669,460 69,117 71,134 43,323 -66,426 -20,881 117,1121 34,63 57,114 49,120 -71,57 -197,134 -217,134 -11,0 -49,-66 -77,-146 -143,-403 -563,-609 -1029,-500 -260,63 -581,232 -875,469 -775,618 -1141,1227 -1144,1899 0,369 114,612 357,755 243,143 375,160 1052,157 397,-3 663,6 744,29 166,46 552,46 692,-3 63,-20 209,-103 326,-180 117,-80 277,-166 357,-194 377,-140 297,-252 -446,-638 -403,-209 -452,-263 -383,-432 23,-54 60,-106 80,-112 403,-109 532,-152 723,-246 126,-63 306,-177 400,-252l172 -140 172 94c320,174 549,226 1001,226 446,0 641,-34 1227,-212l363 -109 160 97c558,335 1104,844 1353,1267l112 186 -17 257c-14,226 -9,275 43,372 117,234 277,315 569,289 921,-83 1673,-675 2196,-1727 286,-575 506,-1324 512,-1750 6,-389 -69,-469 -440,-495 -137,-9 -255,-43 -446,-132 -409,-183 -635,-149 -927,140 -129,126 -217,183 -392,255 -123,49 -269,114 -323,143l-100 54 -31 452c-31,426 -60,641 -129,907l-29 109 -114 -129c-152,-172 -566,-446 -944,-626l-306 -146 143 -157c183,-203 483,-655 675,-1007l146 -272 357 -172c395,-186 392,-180 460,-512 66,-317 51,-1101 -31,-1481 -11,-57 -3,-83 37,-94 789,-275 1341,-698 1664,-1273 312,-555 343,-1161 89,-1704 -71,-152 -103,-189 -237,-266 -89,-49 -166,-106 -172,-126 -9,-23 17,-120 57,-220 123,-300 57,-569 -206,-852 -66,-71 -143,-172 -166,-223 -66,-126 -240,-263 -386,-303 -89,-23 -137,-57 -177,-126 -112,-189 -412,-249 -701,-140 -203,77 -286,143 -357,280l-63 123 17 -172c14,-180 -54,-1444 -97,-1753 -14,-100 -46,-212 -69,-249 -26,-40 -46,-120 -46,-183 0,-177 -54,-392 -114,-446 -92,-83 -194,-34 -263,123 -51,114 -63,214 -77,649 -14,463 -23,526 -80,615 -74,123 -217,260 -346,337 -92,54 -103,54 -212,11 -89,-34 -143,-40 -252,-17 -120,26 -149,23 -206,-23l-66 -54 71 -49c140,-97 332,-275 423,-395 246,-312 92,-543 -438,-655 -172,-34 -243,-34 -615,9 -486,54 -360,86 -1144,-283 -626,-295 -875,-355 -1138,-280l0 0zm4570 3180c0,54 -26,80 -114,114 -212,83 -300,343 -214,641 103,360 286,498 755,558 260,34 275,40 326,129 51,92 51,92 -11,177 -57,77 -60,100 -34,194 60,206 69,346 40,566 -46,312 -74,360 -266,435l-160 66 -146 -140c-92,-89 -180,-214 -249,-355 -92,-192 -120,-226 -232,-280 -92,-46 -152,-54 -229,-40 -129,23 -266,154 -266,255 0,57 -14,74 -63,74 -134,0 -194,-37 -269,-169 -43,-71 -80,-134 -86,-140 -3,-6 -49,11 -103,40 -51,29 -143,60 -206,71l-112 20 14 -192c9,-106 60,-317 117,-489 174,-518 197,-552 469,-766 134,-106 420,-335 635,-512 214,-174 392,-320 397,-320 3,-3 6,29 6,63l0 0zm-3517 4452c17,392 34,466 149,592l57 63 140 -54c166,-66 549,-260 672,-343l92 -60 11 114c9,109 6,114 -114,172 -69,34 -194,126 -277,206l-152 143 -240 -26c-129,-14 -323,-17 -426,-9l-189 17 69 -152c132,-283 74,-535 -166,-718 -80,-60 -123,-114 -117,-146 6,-29 -6,-60 -23,-71 -51,-31 -31,-94 37,-109 34,-9 154,-11 263,-9l200 3 14 386 0 0z"/>
  <path class="fil1" d="M5067 1081c97,31 289,114 429,186 137,71 383,186 543,255l289 123 326 -43c449,-60 749,-40 958,66 92,46 189,117 220,160 49,69 51,92 23,189 -43,140 -189,309 -412,478l-180 134 -29 -152 -29 -152 -257 -86c-229,-74 -297,-86 -601,-86 -295,0 -375,11 -572,77 -303,100 -549,249 -798,480l-203 189 37 180c20,97 34,183 29,189 -20,20 -466,-295 -626,-440 -226,-209 -295,-372 -295,-706 0,-189 17,-306 66,-449 63,-192 237,-489 326,-563 157,-129 423,-137 755,-29l0 0z"/>
  <path class="fil2" d="M8754 1015c60,40 92,137 112,343 17,146 11,206 -11,206 -17,0 -31,-29 -31,-63 0,-34 -6,-54 -17,-46 -9,9 6,432 31,941 43,838 46,952 6,1178 -69,389 -129,483 -463,732 -363,269 -909,703 -1184,944 -189,166 -209,177 -192,106 11,-46 9,-71 -6,-63 -60,37 -123,446 -69,446 14,0 20,-37 11,-83 -6,-46 3,-109 20,-140 51,-94 1167,-1004 1610,-1310 157,-109 232,-260 300,-601 46,-232 46,-309 6,-1124 -26,-480 -40,-881 -34,-886 6,-9 34,11 66,43 69,69 97,277 146,1061 46,735 29,1195 -49,1327 -60,100 -543,512 -1084,918 -329,249 -583,489 -907,855 -163,186 -203,217 -263,206 -120,-23 -217,-143 -217,-266 0,-266 140,-489 455,-723 297,-220 581,-526 689,-744 157,-317 183,-675 63,-944l-57 -132 112 -43c143,-57 217,-166 174,-257 -26,-60 -14,-77 154,-197 129,-94 206,-177 275,-297l92 -163 40 223c23,120 46,214 54,206 9,-6 -14,-172 -49,-366 -51,-289 -60,-412 -46,-681 20,-386 54,-526 140,-586 69,-49 80,-51 123,-20l0 0z"/>
  <path class="fil3" d="M6878 2253c123,31 246,74 269,92 23,20 51,92 63,160 17,114 14,126 -29,109 -214,-83 -872,-94 -1247,-23 -86,17 -240,43 -340,57 -103,17 -252,63 -332,103 -154,74 -194,129 -289,392 -26,74 -57,132 -69,123 -9,-6 -34,-83 -54,-172 -34,-149 -31,-163 31,-240 114,-149 429,-380 672,-495 412,-200 849,-234 1324,-106l0 0z"/>
  <path class="fil3" d="M4038 2680l63 77 -97 183c-109,206 -272,603 -475,1155l-137 372 -3 -177c0,-197 -34,-317 -100,-340 -71,-29 -177,11 -283,106l-100 86 31 -109c74,-269 395,-795 775,-1278 177,-220 206,-249 234,-203 14,29 57,86 92,129l0 0z"/>
  <path class="fil4" d="M7115 2634c74,23 169,63 209,89 71,46 71,49 20,106 -51,57 -51,57 49,0 214,-132 480,-97 543,69 43,109 -9,172 -192,243 -143,54 -209,63 -495,57 -729,-17 -1504,-9 -1587,20 -66,23 -37,26 129,11 117,-11 277,-20 355,-20l140 0 160 400c297,738 429,907 769,995l149 37 -137 129c-74,74 -186,169 -249,212 -197,140 -303,252 -377,397 -83,166 -117,409 -66,500 29,57 29,63 -20,37 -83,-46 -163,-146 -292,-369 -69,-114 -143,-223 -169,-243 -43,-34 -43,-31 -3,34 140,217 226,366 226,386 0,43 -446,-11 -606,-71 -232,-86 -372,-200 -540,-435 -83,-114 -140,-183 -126,-152 49,134 43,137 -40,51 -54,-57 -112,-172 -154,-312l-69 -220 -26 197 -29 197 -51 -97c-46,-86 -51,-143 -37,-386 9,-160 26,-320 37,-360 20,-69 20,-69 -37,-23 -31,29 -86,51 -120,51 -57,0 -43,-26 109,-194 97,-109 174,-206 174,-214 0,-11 -43,-11 -92,0l-94 17 57 -69c31,-37 103,-123 163,-189 57,-63 132,-183 166,-260l63 -143 100 112c100,109 523,386 523,340 0,-11 -74,-66 -163,-114 -438,-249 -540,-455 -303,-623 177,-126 366,-163 824,-160 383,0 452,9 649,74 123,40 214,63 206,49 -26,-43 -392,-143 -598,-163l-200 -20 129 -20c197,-29 769,-3 924,46l0 0zm460 2808c-132,340 -212,635 -214,804l-6 143 -146 -26c-83,-11 -226,-49 -317,-80 -94,-34 -263,-69 -375,-77l-206 -17 -20 -197c-9,-112 -14,-206 -6,-212 6,-6 57,31 114,86 92,86 315,189 409,189 20,0 186,-172 366,-383 297,-343 423,-469 480,-472 9,-3 -26,109 -80,243l0 0z"/>
  <path class="fil5" d="M6915 3211c92,17 123,43 212,177 60,89 163,194 234,240 114,71 152,83 286,71l152 -11 -20 146c-40,306 -246,701 -389,746 -100,31 -240,-11 -412,-123 -146,-94 -174,-132 -286,-363 -132,-272 -357,-826 -357,-872 0,-31 409,-37 581,-11l0 0z"/>
  <path class="fil4" d="M10072 3452c120,71 174,160 206,326 34,180 71,212 46,37 -23,-154 -9,-163 154,-80 166,86 309,263 360,452 63,223 74,243 60,109l-14 -114 114 126c194,217 243,518 120,758 -60,123 -57,120 -137,46 -40,-37 -71,-54 -71,-37 0,17 20,37 40,46 23,9 63,57 89,106l46 89 -80 -23c-43,-11 -163,-23 -266,-20 -240,3 -463,89 -706,275 -103,77 -192,137 -194,132 -3,-6 -34,-60 -66,-123 -31,-63 -83,-140 -117,-169 -69,-63 -83,-31 -17,40 40,43 31,46 -120,37 -217,-17 -432,-77 -555,-157 -149,-100 -260,-349 -263,-581 -3,-220 51,-315 226,-397 109,-51 117,-63 149,-240 43,-229 132,-438 217,-518 174,-163 601,-229 781,-117l0 0zm-907 555c-14,43 -29,112 -29,152 0,46 -49,126 -143,229 -77,86 -143,172 -143,189 0,34 0,37 152,-157 57,-71 152,-160 209,-194 106,-66 117,-114 14,-57 -71,37 -80,-3 -31,-132 17,-43 23,-83 17,-92 -9,-9 -29,20 -46,63l0 0z"/>
  <path class="fil1" d="M11176 5388c92,43 197,112 234,154 69,83 200,395 174,418 -9,9 -49,-11 -94,-43 -512,-360 -1138,-340 -1561,51l-129 117 -37 -109 -34 -106 189 -180c412,-389 835,-489 1258,-303l0 0z"/>
  <path class="fil6" d="M11141 5765c246,94 460,255 489,372 14,51 23,120 17,152 -9,51 -17,49 -123,-34 -366,-297 -852,-337 -1333,-112 -100,49 -223,117 -272,154l-92 69 -11 -120c-11,-109 -3,-129 97,-226 137,-134 337,-252 506,-300 180,-51 523,-29 721,46l0 0z"/>
  <path class="fil1" d="M11256 6120c240,114 397,263 397,372 -3,435 -306,1044 -703,1424 -392,369 -812,583 -1556,795 -397,112 -612,194 -692,263 -49,40 -14,31 112,-29 172,-86 663,-243 686,-223 34,37 -598,829 -824,1032 -80,71 -132,132 -114,132 80,0 643,-643 918,-1049 54,-83 120,-154 149,-160 29,-9 51,-11 51,-11 0,3 20,146 43,320 69,526 51,1087 -49,1424 -31,106 -49,117 -412,292 -209,97 -420,212 -475,252 -157,117 -443,249 -675,309 -798,203 -1762,-166 -2070,-798 -83,-166 -94,-217 -94,-420 0,-194 11,-255 80,-392 97,-200 295,-400 480,-498l140 -69 -17 92c-26,146 -74,289 -120,360 -23,34 -34,71 -23,83 9,9 51,-60 94,-152 66,-143 77,-209 80,-418l0 -252 194 -174c206,-189 389,-412 518,-641 212,-372 469,-612 786,-732 117,-46 246,-63 486,-71 180,-9 412,-31 515,-57 352,-80 786,-214 895,-275 166,-94 129,-114 -40,-23 -275,146 -309,137 -129,-29 89,-80 163,-160 163,-177 0,-14 -57,31 -129,103 -69,71 -137,132 -152,132 -11,0 -3,-103 20,-226 51,-255 71,-280 369,-429 269,-134 443,-177 709,-163 172,9 269,29 386,83l0 0z"/>
  <path class="fil1" d="M6549 6254c-11,17 20,29 77,29 194,0 315,57 478,229 209,214 286,252 683,317 332,57 701,166 761,226 20,20 -37,29 -186,29 -583,3 -1112,297 -1464,815 -203,300 -523,578 -864,752l-114 57 0 -220c0,-186 -14,-246 -94,-415 -106,-226 -297,-503 -446,-643 -57,-54 -103,-114 -103,-132 0,-49 343,-243 429,-243 103,-3 303,-100 475,-232 80,-60 154,-112 163,-112 40,0 17,83 -66,246 -46,92 -80,172 -74,174 14,14 86,-106 132,-214 46,-114 74,-94 146,114 34,103 51,129 54,80 0,-40 -40,-154 -86,-252 -49,-100 -94,-237 -103,-300 -9,-66 -20,-160 -29,-212 -14,-97 9,-114 169,-120 49,-3 74,9 63,26l0 0zm1410 326c86,137 149,255 143,260 -26,26 -629,-103 -732,-154 -97,-49 -340,-280 -315,-303 6,-3 86,6 183,23 152,26 197,23 343,-29 92,-31 180,-54 194,-51 14,3 97,117 183,255z"/>
  <path class="fil7" d="M8756 6328c37,23 112,137 163,252 63,140 143,255 229,335 71,69 132,132 132,143 0,23 -363,83 -495,83 -60,0 -117,-20 -146,-54 -29,-31 -112,-83 -189,-114 -120,-51 -146,-77 -169,-169 -46,-154 -37,-326 14,-403 100,-140 309,-174 460,-71l0 0z"/>
  <path class="fil6" d="M6269 6706c-89,94 -395,292 -455,292 -123,0 -415,137 -592,275 -6,6 57,83 140,174 372,415 569,838 532,1144 -17,152 -17,154 46,137 137,-40 460,-255 641,-420 103,-97 263,-280 357,-412 94,-132 237,-297 320,-369 292,-257 732,-415 1135,-412l186 3 -214 49c-117,26 -277,77 -355,114 -220,109 -469,363 -646,663 -209,355 -629,784 -964,978 -343,200 -658,326 -718,289 -92,-57 -146,-289 -149,-641 0,-483 -97,-741 -392,-1058l-166 -180 126 -109c149,-132 1181,-655 1210,-612 11,14 -9,57 -43,94z"/>
  <path class="fil7" d="M8222 6666c0,40 11,103 29,143 23,63 20,74 -23,74 -40,0 -146,-140 -200,-266 -6,-11 34,-20 92,-20 89,0 103,9 103,69l0 0z"/>
  <path class="fil1" d="M5393 6992c-132,74 -289,180 -349,232l-112 92 169 189c166,183 326,455 363,615l17 80 -189 0c-220,0 -558,69 -635,132 -49,34 -49,37 -3,23 77,-29 57,34 -40,117 -312,260 -781,280 -1290,51 -189,-83 -209,-129 -209,-480 0,-154 17,-232 71,-337 180,-357 555,-518 1573,-678 212,-34 483,-86 601,-114 117,-29 229,-51 243,-54 17,0 -80,60 -212,134l0 0z"/>
  <path class="fil6" d="M4933 8313c0,54 -89,209 -192,335 -117,146 -389,286 -609,309 -169,20 -438,-14 -678,-86 -140,-43 -152,-51 -203,-194 -31,-80 -54,-152 -51,-154 3,-3 114,34 246,83 315,112 635,137 872,66 134,-37 203,-83 340,-217 160,-154 275,-212 275,-140l0 0z"/>
  <path class="fil1" d="M4950 8530c-63,189 -169,315 -340,406 -140,74 -169,77 -535,77 -400,0 -698,-46 -723,-112 -11,-29 31,-23 160,20 240,77 663,83 869,11 177,-63 409,-260 512,-440 94,-157 117,-140 57,37l0 0z"/>
  <path class="fil4" d="M5148 8630c57,51 123,129 146,172 63,126 51,337 -31,500 -69,140 -74,143 -323,223 -237,74 -260,77 -429,46 -106,-23 -275,-31 -406,-20 -194,11 -232,6 -272,-37 -66,-74 -23,-143 157,-240l149 -80 60 57c100,94 263,149 426,146l152 -6 -174 -20c-189,-20 -418,-132 -469,-226 -23,-49 -11,-57 109,-71 340,-49 578,-192 695,-423 31,-60 69,-109 83,-109 14,0 71,40 129,89l0 0zm-1824 280c34,54 269,120 586,160 71,9 149,34 166,57 26,31 11,51 -77,94 -97,51 -120,51 -180,17 -123,-66 -317,-49 -452,37 -66,43 -120,92 -120,106 0,14 23,6 51,-17 143,-129 335,-169 478,-103 83,37 89,60 29,109 -57,46 -54,112 6,177 43,49 40,51 -123,54 -92,0 -243,11 -335,23 -160,20 -169,17 -237,-63 -100,-117 -92,-254 34,-503 54,-112 109,-203 120,-203 11,0 37,26 54,54l0 0z"/>
  <path class="fil4" d="M6037 9494c11,9 -11,80 -46,154 -194,412 -37,941 377,1270 192,152 558,326 812,386 197,46 646,60 801,26 217,-49 535,-169 683,-260 92,-54 172,-94 174,-89 20,17 -352,643 -520,881 -232,326 -586,678 -798,789 -183,97 -872,312 -1273,397 -329,71 -915,71 -1170,0 -200,-54 -575,-232 -575,-272 0,-14 23,-54 51,-89 49,-63 54,-63 143,-17 49,26 106,46 126,46 20,-3 -29,-34 -112,-74 -83,-40 -206,-134 -277,-214 -123,-137 -246,-395 -246,-512 0,-31 -11,-57 -26,-57 -29,0 29,240 80,335 46,89 40,97 -43,66 -137,-54 -246,-149 -300,-269l-57 -117 17 100c14,80 6,114 -40,154 -54,51 -57,49 -129,-92 -100,-194 -143,-500 -120,-829 23,-297 74,-498 149,-581 29,-31 34,-54 14,-54 -17,0 -57,40 -86,86l-51 86 -51 -114c-92,-206 -343,-389 -629,-460 -132,-34 -134,-34 -69,-71 80,-46 315,-51 455,-11l100 26 -80 -69c-80,-71 -197,-112 -429,-143 -152,-20 -152,-49 3,-126 177,-89 423,-123 858,-112 223,6 406,0 406,-14 0,-11 -54,-20 -120,-23 -112,0 -117,-3 -51,-31 83,-31 512,-14 583,26 40,23 17,46 -137,137 -103,60 -183,114 -177,123 9,6 92,-34 186,-94 214,-129 478,-237 703,-289 174,-40 849,-43 889,-3l0 0z"/>
  <path class="fil8" d="M11161 11170c234,117 423,172 626,183 220,11 280,60 323,257 37,172 3,469 -100,861 -315,1207 -969,2153 -1776,2557 -337,172 -841,266 -989,189 -200,-103 -214,-317 -43,-712 54,-126 157,-369 232,-538 223,-518 255,-669 255,-1264 0,-335 -14,-592 -43,-735l-43 -220 132 -54c71,-31 194,-80 272,-109 86,-31 212,-117 317,-217 315,-292 540,-346 838,-197l0 0zm-1536 909c49,346 46,961 0,1210 -49,252 -123,463 -317,889 -92,200 -186,429 -214,512 -60,183 -46,403 31,492 54,60 54,60 -3,29 -86,-46 -206,-180 -240,-272 -83,-217 -34,-429 269,-1130 252,-592 386,-1215 386,-1810 0,-109 11,-197 26,-197 14,0 40,126 63,277l0 0zm-1358 435c160,77 392,206 518,286 220,140 523,423 523,489 0,54 -192,546 -317,812l-117 255 -77 -143c-232,-420 -838,-1004 -1364,-1313 -69,-40 -126,-83 -126,-92 0,-11 74,-54 166,-97 89,-43 229,-134 306,-206 80,-71 157,-129 172,-129 17,-3 160,60 317,137z"/>
  <path class="fil8" d="M3003 11770c223,100 372,280 429,523 17,69 9,83 -60,112 -46,17 -166,43 -269,54l-186 26 203 -9c234,-11 463,-100 658,-260l123 -100 134 86c77,46 154,86 174,86 40,0 352,306 352,346 0,11 -92,106 -203,209 -143,134 -283,226 -492,329 -369,180 -595,240 -921,243 -232,3 -272,-6 -392,-77 -146,-83 -180,-132 -257,-335 -26,-71 -49,-103 -49,-71 -3,89 94,277 186,363 112,103 297,166 489,166 132,0 154,9 140,46 -92,237 -54,292 349,495 415,212 692,389 692,440 0,63 -94,132 -237,174 -74,23 -220,100 -326,177 -103,74 -237,152 -292,172 -126,46 -543,49 -718,6 -71,-17 -420,-31 -801,-34l-672 -3 -180 -83c-317,-146 -463,-392 -463,-772 3,-646 377,-1281 1084,-1844 495,-395 764,-515 1147,-515 174,0 275,11 357,51l0 0z"/>
  <path class="fil3" d="M6391 1661c0,6 43,26 94,43 83,29 86,26 37,-11 -51,-40 -132,-57 -132,-31z"/>
  <path class="fil3" d="M2088 13678c252,20 495,43 543,51 51,11 74,9 57,-9 -37,-34 -595,-89 -855,-86 -146,3 -77,14 255,43l0 0z"/>
  <path class="fil3" d="M2345 13824c-63,6 -352,29 -643,51 -520,43 -701,66 -681,86 6,6 275,-14 595,-43 323,-31 698,-57 838,-57 146,0 249,-11 249,-29 0,-29 -112,-31 -357,-9l0 0z"/>
 </g>
</svg>
