<?xml version="1.0" encoding="UTF-8" standalone="no"?>
<!DOCTYPE svg  PUBLIC '-//W3C//DTD SVG 1.1//EN'  'http://www.w3.org/Graphics/SVG/1.1/DTD/svg11.dtd'>
<!-- Creator: CorelDRAW X5 -->
<svg style="shape-rendering:geometricPrecision;text-rendering:geometricPrecision;image-rendering:optimizeQuality" xmlns="http://www.w3.org/2000/svg" fill-rule="evenodd" xml:space="preserve" height="11.693in" width="8.2677in" clip-rule="evenodd" xmlns:xlink="http://www.w3.org/1999/xlink" viewBox="0 0 8268 11693">
 <defs>
  <style type="text/css">
   <![CDATA[
    .str0 {stroke:rgb(39, 39, 39);stroke-width:9.38189}
    .str1 {stroke:rgb(39, 39, 39);stroke-width:9.38189;stroke-linecap:round}
    .fil5 {fill:none}
    .fil1 {fill:rgb(39, 39, 39)}
    .fil2 {fill:#6ECDE3}
    .fil0 {fill:#963233}
    .fil4 {fill:#C0C2C4}
    .fil3 {fill:#FCE622}
   ]]>
  </style>
 </defs>
 <g id="Layer_x0020_1">
  <g id="_244335760">
   <path class="fil0" d="m6385 5787l38 64-6 38s-3-5-9-12c-13-17-39-46-66-50 0 0-33 0-37 10l-23-1-13 19 11 4-1 3c-28-5-87 25-87 25 6 5 18 30 18 30 22 38-8 82-8 82v6l-22-2v-5h9s26-42 18-66c0 0-8-34-22-45l-20-1s-7-1-17 0v-1s24-49 15-85l83-21s41-11 92-3l41 9 7 2z"/>
   <path class="fil0" d="m6304 5836l38 2s38 26 54 34c0 0 6 0 10 6 5 5 9 16 6 37 0 0-5 25-13 35l-59 48-9-1s32-22 29-54c0 0-5-46-35-67l-47-17-11-4 13-19 23 1z"/>
   <path class="fil1" d="m6407 5876l-1 1c-5-5-10-6-10-6-17-8-54-34-54-34l-38-2c4-10 37-10 37-10 28 4 53 33 66 50z"/>
   <polygon points="6396 5962 6393 5989 6352 6025 6347 5996" class="fil0"/>
   <path class="fil1" d="m6120 5888c32-36 18-97 18-97-27-72-78-70-78-70-29-1-52 22-52 22-18 19-21 47-21 47-7 44 19 82 19 82 24 39 75 41 75 41 2-3 11-10 11-10 11-9 27-16 27-16zm-157-4c6-3 13-5 20-5 0 0-38-39-11-111l-14-19-20-45c-6-14-32-42-40-50l23-6 19-5s23-66 46-90c-3 8-5 17-5 26 0 0 3 93 37 127 0 0 47-19 73-5 0 0 50 18 64 79 0 0 53-28 83-24l89 8 46 9v1l4 10v2l-41-9c-52-8-92 3-92 3l-83 21c8 36-15 85-15 85v1c-17 1-43 6-59 26 0 0-14 14-13 31h-2c-41-9-80-49-80-49-7 3-15 6-22 11-24 15-47 37-55 46l-12-14-1-1c8-11 31-40 62-53z"/>
   <path class="fil0" d="m5987 5553c24-65 117-77 117-77v-1c42 15 76 43 76 43s-55 25-53 69c0 0-12 49 59 104 0 0-1-5-3-13l22 15h3c0 9 3 21 15 26 0 0 30 12 61 15 0 0 55 7 75-14l4-4c5 20 14 57 14 57l-3-1-46-9-89-8c-30-5-83 24-83 24-14-61-64-79-64-79-27-14-73 5-73 5-34-34-37-127-37-127 0-10 2-18 5-26z"/>
   <path class="fil0" d="m6363 5716c-2 3-4 4-4 4-20 21-75 14-75 14-30-4-61-15-61-15-12-5-15-16-15-26 0-8 1-14 1-14l-1-32c5-30 32-38 32-38 33-11 63 1 63 1 7 1 14 5 21 10 18 13 35 32 35 32 27 26 11 52 4 62z"/>
   <path class="fil1" d="m6361 5942c2 32-29 54-29 54l9 1-81 15 1 1c-6 0-18 3-21 4l-2-11-38-3v-6l103-1c49-36 15-116 15-116l-6-3-35-17 1-3 47 17c30 21 35 67 35 67z"/>
   <polygon points="6262 6013 6261 6013 6260 6012 6341 5997 6353 6068 6271 6101 6278 6025" class="fil0"/>
   <polygon points="6353 6068 6247 6135 6237 6132 6237 6132 6208 6124 6217 6116 6241 6126 6271 6101" class="fil0"/>
   <path class="fil0" d="m6339 5628c-4-3-9-6-13-9-10-7-18-14-18-14-12-12-62-9-62-9-42 0-55 28-55 28-11 13-9 38-6 53 1 8 3 13 3 13-70-55-59-104-59-104-2-44 53-69 53-69l79-35 14 9c19 18 36 60 36 60 5 19 29 77 29 77z"/>
   <path class="fil1" d="m6325 5620l-1 1c-7-5-15-9-21-10 0 0-30-12-63-1 0 0-27 7-32 38l1 32s-1 6-1 14h-3l-22-15c-3-15-5-40 6-53 0 0 13-28 55-28 0 0 50-2 62 9 0 0 8 7 18 14z"/>
   <path class="fil0" d="m6319 5881s34 80-15 116l-103 1s31-45 8-82l103-35 1-3 6 3z"/>
   <path class="fil0" d="m6313 5878l-1 3-103 35s-12-26-18-30c0 0 59-29 87-25l35 17z"/>
   <path class="fil1" d="m6278 6025l-7 76-29 25-24-10 36-31-13-67c4-1 16-4 21-4l16 12z"/>
   <path class="fil0" d="m5922 5543c-28 28-62 64-82 98 0 0-18 50 15 117l7 5s4 37 6 58c0 2 1 4 1 6 0 0-54-99-73-120 0 0-108-130-152-160 0 0-125-122-143-150 0 0-72-84-93-121 0 0-8-14-5-40 15 54 154 205 154 205 34 41 174 135 174 135 14-31 121-116 121-116 36-38 137-99 137-99-5-53-42-225-42-225-38-156-108-242-108-242v-2c8-1 17-1 25-1 0 0 42 2 78 46 0 0 47 41 95 168 0 0 16 41 26 70 0 0 39 87 76 140 0 0 43 75 95 133 0 0 15 27 26 33l-79 35s-34-27-76-43c-14-5-30-9-45-10 0 0-41-9-88 34 0 0-22 18-50 45z"/>
   <polygon points="6240 6017 6253 6085 6118 6038 6169 6002 6178 6002 6200 6004 6238 6006" class="fil0"/>
   <polygon points="6253 6085 6217 6116 6217 6116 6207 6124 6208 6124 6208 6124 6168 6115 6140 6108 6083 6094 6087 6088 6118 6038" class="fil0"/>
   <polygon points="6237 6132 6237 6132 6236 6134 6169 6168 6167 6117 6168 6115 6208 6124 6208 6124" class="fil0"/>
   <path class="fil0" d="m6205 5932c8 23-18 66-18 66h-9c-35-3-70-20-82-26-8-5-14-11-18-16-3-4-4-8-4-12-1-17 13-31 13-31 44-8 118 20 118 20z"/>
   <path class="fil0" d="m6183 5888c14 11 22 45 22 45s-74-27-118-20c16-20 42-25 59-26 10-1 17 0 17 0l20 1z"/>
   <path class="fil1" d="m6178 5998v5l-10-1-50 36-32 50-4-2-10-7 2-10 33-52 38-21s-28-12-49-25c12 7 47 24 82 26z"/>
   <polygon points="6111 6157 6111 6154 6113 6151 6139 6109 6140 6108 6168 6115 6167 6117 6169 6168 6122 6195 6078 6159" class="fil1"/>
   <path class="fil0" d="m6145 5997l-38 21s-83-60-121-55c13-8 31-14 38-16 2 0 3-1 3-1 26-1 48 8 50 9 3 4 7 9 13 13 0 0 2 1 5 3 21 14 49 25 49 25z"/>
   <path class="fil0" d="m6140 6108v2l-26 41-1-1-90-76 3-11c5 3 9 5 13 7l34 14 1-4 10 7 4 2-4 6 57 14z"/>
   <path class="fil2" d="m6138 5792s15 61-18 97c0 0-16 7-27 16 0 0-9 7-11 10 0 0-51-2-75-41 0 0-26-38-19-82 0 0 3-29 21-47 0 0 23-23 52-22 0 0 51-2 78 70z"/>
   <polygon points="6037 6148 6032 6144 5974 6092 5979 6090 6022 6074 6112 6150 6113 6151 6111 6154 6046 6154 6044 6154" class="fil0"/>
   <path class="fil0" d="m6026 6063c-4-2-8-5-13-8-16-11-31-23-31-23-15-15-14-33-12-44 2-8 5-12 5-12 2-5 6-9 12-13 38-5 121 55 121 55l-33 52-2 10-1 4-34-14c-4-2-8-4-13-7z"/>
   <path class="fil0" d="m6104 5475v1s-94 13-117 77c-23 25-46 90-46 90l-19 5-1-5s-12-58 2-100c27-27 50-45 50-45 47-43 88-34 88-34 15 1 31 5 45 10z"/>
   <path class="fil0" d="m6074 5943c0 4 2 8 4 12-2-1-24-10-50-9 0 0-1 0-3 1v-1c-27-11-53-38-53-38l-2-3c7-4 15-8 22-11 0 0 39 39 80 49h2z"/>
   <path class="fil0" d="m6046 6154l-30 27s-45 5-58-1l-12-23h11l8 17 44-3 28-23 7 6h2z"/>
   <polygon points="6037 6148 6010 6172 5966 6175 5958 6157 6008 6156 6031 6144 6032 6144" class="fil1"/>
   <polygon points="6032 6144 6031 6144 6008 6156 5959 6100 5974 6092" class="fil0"/>
   <path class="fil1" d="m6022 6074l-43 16-10-12s19-23 44-23c4 3 9 6 13 8l-3 11z"/>
   <path class="fil0" d="m6025 5946v1c-7 2-26 7-38 16-6 4-10 8-12 13 0 0-3 5-5 12h-2l-10-9c-11-6-19-9-26-9l-22-14 4-4c9-9 31-31 55-46l2 3s26 27 53 38z"/>
   <path class="fil0" d="m5933 5970c7 0 15 3 26 9l10 9h2c-3 11-3 28 12 44 0 0 15 12 31 23-25 0-44 23-44 23s-3-2-7-6c-9-9-26-25-38-44-6-9-11-19-13-29v-8c1-8 6-21 21-21z"/>
   <polygon points="5904 6101 5959 6100 6008 6156 5958 6157 5957 6157 5945 6154 5946 6158 5945 6158 5898 6101" class="fil0"/>
   <path class="fil1" d="m5979 6089l-6 2-14 8-55 1-6-13 51-4 12-13c4 4 7 6 7 6l10 12z"/>
   <path class="fil0" d="m5958 5749l14 19c-27 72 11 111 11 111-7 1-13 3-20 5-44-53-10-135-10-135l1-2 3 2z"/>
   <path class="fil0" d="m5947 5138s38 172 42 225c0 0-101 61-137 99 0 0-107 86-121 116 0 0-140-94-174-135 0 0-138-151-154-205 0 0 1-6 3-15 4-18 11-47 20-58 0 0 41-70 115-111 0 0 88-55 93-66 0 0 109-79 167-89 0 0 19-3 38-5v2s70 86 108 242z"/>
   <path class="fil0" d="m5962 6071l-12 13-27-56h1c12 19 28 35 38 44z"/>
   <path class="fil0" d="m5938 5704l20 45-3-2-56-37-25 5c0-8 3-60 22-65l3 3c8 9 33 36 40 50z"/>
   <path class="fil0" d="m5873 5716l25-5 56 37-1 2s-34 82 10 135c-31 12-54 41-62 53-2 3-3 5-3 5-14-11-23-67-29-120s-8-104-8-104l12-3z"/>
   <path class="fil0" d="m5924 6028l27 56-51 4-7 1-7-68s-6-33 24-30h2c-1 4 0 8 0 8 2 10 7 20 13 29h-1z"/>
   <path class="fil1" d="m5840 5641c20-34 53-70 82-98-14 42-2 100-2 100l1 5-23 6-3-3c-19 4-22 57-22 65l-12 3s2 50 8 104c-2-22-6-58-6-58l-7-5c-33-67-15-117-15-117z"/>
   <path class="fil3" d="m5728 4677c8 21 10 38 10 38l125 178c-8 0-16 1-25 1-20 2-38 5-38 5-58 11-167 89-167 89-5 11-93 66-93 66-74 41-115 111-115 111-9 10-16 40-20 58l-143-206c-35-26-53-67-54-70 14 12 38 7 38 7 25-17 23-60 23-60-2-48-17-103-17-103-10-21-7-29-4-32 2-1 3-1 3-1 22-5 53-1 53-1 107 6 154 42 154 42l61-26 46 72s14 22 47 9l88-30s28-11 9-38l-47-62 41-16-16-90c20 16 32 40 40 59z"/>
   <path class="fil0" d="m5730 4677h-2c-7-20-20-43-40-59-23-54-71-84-71-84h29s79 62 83 143z"/>
   <path class="fil3" d="m5710 4786c19 27-9 38-9 38l-88 30c-33 13-47-9-47-9l-46-72c0-5 4-9 7-11h1c3-2 6-3 11-5l75-28h1c9-3 16-5 16-5l1-1 4-1c15-2 27 3 27 3l47 62z"/>
   <path class="fil1" d="m5688 4618l16 90-41 16s-12-6-27-3l-4 1 28-27c15-16-2-60-2-60l-29-41-21-23h-4v-1-23l13-12s47 30 71 84z"/>
   <path class="fil0" d="m5658 4635s18 43 2 60l-28 27-17 6h-1c-21 7-56 19-75 28l-5 2s-3 1-7 4l-67 31s-68-34-110-35l-19-28s-8-12 0-19l42-58s19-16 44-25l110-40 50-22 26 3h4l21 23 29 41z"/>
   <path class="fil3" d="m5611 4428s2 57-6 73l-71 31-160 54s-30 2-56-21l-113-83s-9-6 8-36l13-33s12-20-8-55l-80-148s-14-31-53-42c0 0-72-30-81-45 8-20 19-57 29-94 0-1 0-1 1-2 12-40 25-87 35-132 0 0 74-77 158-117 8-4 16-7 25-10 0 0 44-18 82-26 12-3 23-5 32-5 0 0 22-3 45 3 0 0 8 3 18 16 7 10 15 26 20 52l47 142s3 4 3 10c-10 4-126 47-158 58 0 0-83 27-142 44l-18 6s-27 8-18 31c0 0 2 20 34 12 0 0 106-27 170-53 0 0 125-48 143-55l3-2c2 3 4 7 4 13l57 224s2 5 2 10h-1l-206 76s-70 23-77 29c0 0-29 12-17 37 0 0 11 15 38 3 0 0 92-34 138-48l137-49c1 2 2 5 3 9 0 0 21 64 20 123z"/>
   <path class="fil0" d="m5604 4546v23 1l-26-3-50 22-110 40c-26 8-44 25-44 25l-42 58c-8 7 0 19 0 19l19 28c42 1 110 35 110 35l67-31c-4 3-7 6-7 11l-61 26s-47-36-154-42c0 0-30-3-53 1 0 0-2 0-3 1 2-2 5-3 9-5 0 0-20-59-66-63l-47 11c2-43-39-194-39-194-16-54-114-170-114-170-31-25-36-69-36-69l-1-1c25-61 45-140 45-140 1-2 2-4 3-7 9 15 81 45 81 45 39 11 53 42 53 42l80 148c20 36 8 55 8 55l-13 33c-17 31-8 36-8 36l113 83c25 23 56 21 56 21l160-54 71-31v45z"/>
   <path class="fil0" d="m5326 3393c13-4 27-12 37-25 0 0 27-32 12-99 0 0-6-47-66-91 0 0-61-37-126 13l-1-96s50-51 87-94c16-20 30-37 34-49 0 0 114 94 150 142 0 0 42 53 82 136 0 0 35 39 56 178 0 0 11 83-1 129 5-135-22-161-22-161-30-42-130-56-143-57h-1s3 39-7 70c-4 8-17 32-29 52-13 18-36 42-68 46 0 0-60 5-101-15-27-22-22-111-22-111l1-1c18 16 47 36 81 37 0 0 24 4 49-4z"/>
   <path class="fil0" d="m5590 3537l-3 9s-35 104-163 127v-7s133-42 147-123c0 0 7-130-35-163 0 0-53-52-111-61 12 2 113 16 143 57 0 0 27 26 22 161z"/>
   <path class="fil3" d="m5587 4295l-137 49c-45 14-138 48-138 48-27 12-38-3-38-3-12-25 17-37 17-37 8-6 77-29 77-29l206-76h1c0 5-2 9-9 11 0 0-14 8-5 23 0 0 3 9 15 8 0 0 7-2 11 5z"/>
   <path class="fil1" d="m5536 3380c42 33 35 163 35 163-14 81-147 123-147 123v7h-4c-7-34-15-62-15-62-6-31-28-56-45-72 9 4 15 10 15 10 17 9 34 69 34 69s6 14 6 27c0 0 36-42 55-130 0 0 14-89-9-139 0 0-16-31-38-50 0 0 2 41-6 61 0 0 0 1-1 3 9-31 7-70 7-70h1c58 9 111 61 111 61z"/>
   <path class="fil3" d="m5512 4001l-3 2c-18 7-143 55-143 55-64 27-170 53-170 53-31 7-34-12-34-12-9-23 18-30 18-30l18-6c59-17 142-44 142-44 32-11 148-54 158-58 0 3 0 6-2 9 0 0-8 8-2 19 0 0 4 8 13 9 0 0 2 2 4 5z"/>
   <path class="fil0" d="m5462 3375c23 50 9 139 9 139-19 88-55 130-55 130 0-13-6-27-6-27l13-25c0-1 0-2-1-3-8-41-55-103-64-114l-2-2 12-9c4-3 11-13 18-24 9-13 14-23 14-23 7-7 12-17 15-29 1-2 1-3 1-3 8-20 6-61 6-61 22 19 38 50 38 50z"/>
   <path class="fil0" d="m5421 3673c5 27 10 57 8 80l-1 1c-9-14-18-16-18-16-23-6-45-3-45-3-9 0-20 2-32 5l-1-5s-28-97-73-150l-5-2c43-34 85-50 85-50 8 0 16 3 23 6 17 16 39 41 45 72 0 0 8 28 15 62z"/>
   <path class="fil1" d="m5423 3593c0-1 0-2-1-3 0 1 1 2 1 3z"/>
   <path class="fil1" d="m5361 3539c-7-3-15-6-23-6 0 0-42 16-85 50-14 11-29 25-42 41l-47 41-57 50 41-170 9-39 3-12v-3l3-12s7-22-21-41l-30-23-17-124 28-65-44-116-11-20 12-53s23-33 44-30c0 0 38-3 52 9l26 37s-36 28-39 42l-3 102s-1 6-1 14c-3 4-4 7-4 7-8 13-1 53 2 70v2c0 2 1 4 1 5 0 0 12 42 17 50l1 24c-1 15 0 28 2 39v12s2 9 8 20c7 16 16 22 16 22 2 2 4 3 6 4 6 5 14 9 23 13 0 0 84 28 124-6l2 2c6 8 32 44 47 78 0 0 14 25 17 36 0 1 0 2 1 3l-13 25s-17-59-34-69c0 0-6-5-15-10z"/>
   <path class="fil0" d="m5324 3335c45-3 36-73 36-73-10-34-33-52-33-52-25-22-56-9-56-9-44 16-28 78-28 78 17 64 81 56 81 56zm50-66c16 67-12 99-12 99-10 14-23 21-37 25-34 2-81-26-81-26-39-23-56-67-56-67-25-58-5-109-5-109 64-50 126-13 126-13 59 44 66 91 66 91z"/>
   <path class="fil0" d="m5361 3261s9 70-36 73c0 0-64 8-81-56 0 0-16-63 28-78 0 0 31-12 56 9 0 0 23 17 33 52z"/>
   <path class="fil0" d="m5332 3735l1 5c-38 9-82 26-82 26-8 3-17 6-25 10v-1s-45-77-59-110l-1-2 47-41c13-16 27-29 42-41l5 2c45 53 73 150 73 150z"/>
   <path class="fil0" d="m5245 3367s47 28 81 26c-25 8-49 4-49 4-34-1-64-22-81-37-11-10-17-17-17-17h-1c-4-13-12-39-17-47 0-1-1-3-1-5v-2c-2-18 0-56 2-76 4-6 12-16 23-20 0 0-20 51 5 109 0 0 17 44 56 67z"/>
   <path class="fil0" d="m5265 2997l4 3c-36 43-87 94-87 94l1 96c-10 4-18 14-23 20 1-9 1-14 1-14l3-102c3-14 39-42 39-42l13-5 48-50z"/>
   <path class="fil0" d="m5265 2997l-48 50-13 5c-1-4-16-73-77-88h-2c-7-2-12-2-12-2-3 0-5 1-8 1h-4s50-34 163 34z"/>
   <path class="fil0" d="m5247 4778c16 29 22 126 22 126-2 18-7 30-13 37 1-7 7-70-12-127 0 0-30-78-69-102 0 0-13-9-29-11l47-11c46 5 66 63 66 63-4 1-7 3-9 5-8 8-2 19-2 19z"/>
   <path class="fil0" d="m5184 4838c15 12 11-8 11-8l-62-88-2 21 53 75zm60-24c19 56 13 120 12 127-10 12-21 13-21 13-40-5-59-43-59-43-28-35-45-138-45-138-7-42 14-70 14-70 17 1 29 11 29 11 39 25 69 102 69 102z"/>
   <path class="fil0" d="m5226 3776v1c-84 40-158 117-158 117-10 45-23 92-35 132 11-40 21-81 26-99 2-7 3-10 3-10 4-12 28-122 45-202h1l57-50 1 2c14 33 59 110 59 110z"/>
   <path class="fil0" d="m5218 3471c-2-1-5-2-7-4-10-8-17-18-22-26-4-8-7-18-9-32l-2-39c0-6 1-12 1-19 0 0-1-3-2-8h1s6 8 17 17l-1 1s-5 89 22 111z"/>
   <path class="fil1" d="m5211 3467c-2-1-4-3-6-4 0 0-8-5-16-22 5 8 12 18 22 26z"/>
   <path class="fil0" d="m5204 3053l-26-37c-14-13-52-9-52-9-20-3-44 30-44 30l-12 53 11 20 44 116-51-119-88-78v-6h3l52 46-7-41h1c13-27 63-43 63-43 11-11 59-3 59-3-9-11-22-16-32-18h2c61 15 76 84 77 88z"/>
   <path class="fil1" d="m5196 4831s4 20-11 8l-53-75 2-21 62 88z"/>
   <path class="fil1" d="m5178 3370l2 39c-2-11-2-24-2-39z"/>
   <path class="fil0" d="m4801 3536c3-23-9-76-9-76-9-40-36-92-36-92-7-18-36-65-36-65-16-24-30-16-30-16-10 14 5 27 5 27 28 29 60 109 60 109 16 33 21 94 21 94 5 56-19 115-19 115-3 14 8 15 8 15 6 3 13-6 13-6 4-5 12-29 12-29 8-17 12-75 12-75zm-266-385c18-17 222-74 222-74 21-8 83-13 83-13 3 4 31 21 31 21 17 8 30 3 30 3 8-13-11-41-11-41l58-18h38l88 78 51 119-28 65 17 124 38 33c14 9 12 35 10 44l-1 3c-206 106-362 331-362 331l-2 2-152-166c57-72 48-184 48-184-8-109-107-191-107-191-32-38-85-48-85-48l13-74c0-4 21-14 21-14z"/>
   <path class="fil1" d="m5161 3494l1-3v3z"/>
   <path class="fil1" d="m5161 3494l-3 12 3-12z"/>
   <path class="fil0" d="m5161 3494l-3 12-29 117c-14 14-124 57-124 57-37 8-96 51-96 51-23 16-109 100-109 100l-3-4 2-2s155-225 362-331z"/>
   <path class="fil0" d="m3580 3709l-42-78-145-68-26 57 213 89zm913-46c35-6 64-18 64-18 69-16 93-116 93-116l-1-2 4-1 17-3 1-42-21-2c-1-21-15-66-15-66-24-79-93-119-93-119-98-64-201-4-201-4l-18 12c-50 41-64 111-64 111l-14-1-1 40 14 4c5 30 17 57 29 80 22 41 49 67 49 67 35 47 106 61 106 61v1l-7 129c1 16 10 14 10 14 17 1 17-13 17-13l6-128c9 0 17-1 25-3zm615 51c-17 81-41 190-45 202 0 0-1 4-3 10h-1l-391 176h-1c-23-15-100-59-215-80 0 0-170-52-343-14 0 0-178-125-230-148 0 0-292-147-304-147l-218-92h-1c56-124 102-256 102-256l1-3 32 11c227 69 396 191 396 191 29 12 132 109 164 139 6 6 10 9 10 9l213-106c-53-67-58-128-58-128-20-72 19-149 19-149 48-100 156-110 156-110l-39-83-42-27-230-125-208-88c-2 5-22 11-22 11-45 14-70-14-70-14-17-16 0-36 0-36l-145-57 1-3 59-124 181 8c9 12 38 42 128 89l245 130 21 20-1 1c6 38 56 81 56 81 38 30 74 35 99 33 19-1 31-6 31-6 19-6-2-94-2-94l-2-4 10-6s109-47 122-63c0 0 26-23 23-52 0 0-5-60-16-78h1l92 36 58 79s25 14 30 16c5 3 179 158 179 158h34v6h-38l-58 18s20 28 11 41c0 0-13 6-30-3 0 0-28-17-31-21 0 0-62 4-83 13 0 0-204 57-222 74 0 0-21 10-21 14l-13 74s52 10 85 48c0 0 99 82 107 191 0 0 9 112-48 184l152 166 3 4s86-85 109-100c0 0 59-42 96-51 0 0 109-42 124-57l29-117-9 39-41 170h-1z"/>
   <path class="fil1" d="m5161 3211c-2 21-4 58-2 76-4-17-11-57-2-70 0 0 2-3 4-7z"/>
   <path class="fil0" d="m5125 2964c9 2 23 8 32 18 0 0-48-8-59 3 0 0-50 16-63 43h-1l-2-11-8-9 1-1s47-36 81-43l20 1z"/>
   <path class="fil0" d="m4712 4155c-12-21-26-41-37-48 0 0-2-2-7-5h1c15-6 264-101 391-176h1c-5 18-15 59-26 99 0 1 0 1-1 2-16 54-29 94-29 94-1 3-2 5-3 7-25 15-88 33-88 33-33 13-172 47-172 47s-13-27-29-54z"/>
   <path class="fil1" d="m4668 4103l391-176c-127 75-375 170-391 176z"/>
   <path class="fil0" d="m5034 3028l7 41-52-46h-3-34s-174-155-179-158-30-16-30-16l-58-79-92-36h-1c-1-2-2-4-4-5 0 0 37-76-39-164 0 0-2-3-6-6l1-2 183 128 296 322 8 9 2 11z"/>
   <path class="fil0" d="m5001 4129s-20 78-45 140c-7 18-15 34-23 47-28 18-143 22-143 22l-3 1c-4-17-19-75-43-124l-3-6s139-35 172-47c0 0 63-18 88-33z"/>
   <path class="fil0" d="m4790 4351c-1-2-1-5-2-7 0 0 0-2-1-5l3-1s114-4 143-22c-2 4-57 130-76 142h-52s-4-66-15-106z"/>
   <path class="fil0" d="m4760 4423l30-72c11 41 15 107 15 107l-53 270s-19 11-41-3l49-301z"/>
   <path class="fil1" d="m4792 3459s12 53 9 76c0 0-4 58-12 75 0 0-8 25-12 29 0 0-6 9-13 6 0 0-11-1-8-15 0 0 24-59 19-115 0 0-5-61-21-94 0 0-32-80-60-109 0 0-15-13-5-27 0 0 15-8 30 16 0 0 29 47 36 65 0 0 27 52 36 92z"/>
   <path class="fil0" d="m4154 4149l-15-111-23-7 18 123c17 23 20-5 20-5zm-194-52c4-3 6-4 6-4l126-74s230 83 255 94c0 0 68 41 255 38 0 0 93-3 110 4 16 27 29 54 29 54l3 6-15-25v64s2 22 12 4l3-44c24 49 39 106 43 124 1 3 1 5 1 5 1 2 1 5 2 7l-30 72s-57-5-98 11c0 0-174 38-432-62l-168-57s-99-28-129-9h-1l-1-5-41-151c29-22 58-43 70-52z"/>
   <path class="fil0" d="m4162 4436l-17-90-18-6 18 99c12 17 17-3 17-3zm554 101l21-111-13 1-22 111c7 11 14 0 14 0zm44-114l-49 301s-391-16-453-54c0 0-90-33-141-35 0 0-90-49-120-35l-21-14-43-280h1c30-19 129 9 129 9l168 57c258 100 432 62 432 62 41-16 98-11 98-11z"/>
   <path class="fil1" d="m4729 4190l15 25-3 44c-10 18-12-4-12-4v-64z"/>
   <path class="fil0" d="m4711 4724c22 14 41 3 41 3s-38 214-46 236l-21 19-1-1-22-2-11-14c19-14 60-242 60-242z"/>
   <path class="fil1" d="m4736 4426l-21 111s-7 11-14 0l22-111 13-1z"/>
   <path class="fil0" d="m4166 4724l-9-80-18-3 11 87c11 11 17-5 17-5zm495 94l19-91-12-2-17 86s0 17 11 6zm50-94s-41 228-60 242c-209 38-608-117-608-117l-47-250c30-14 120 35 120 35 52 3 141 35 141 35 62 38 453 54 453 54z"/>
   <path class="fil0" d="m4684 4981l1 1-28 27-106 157s-65-33-103-30c0 0-52 3-60-5 0 0-76-24-90-22l-168-141-49-38-2-2c-14-15-35-79-35-79s399 155 608 117l11 14 22 2z"/>
   <path class="fil1" d="m4679 4727l-19 91c-11 10-11-6-11-6l17-86 12 2z"/>
   <path class="fil0" d="m4675 4108c10 6 24 27 37 48-17-7-110-4-110-4-187 3-255-38-255-38-24-11-255-94-255-94l18-11c172-38 343 14 343 14 115 21 192 66 215 80 5 3 7 5 7 5z"/>
   <path class="fil0" d="m4324 3302c3-2 70-34 130-19 0 0 80 13 117 60 0 0 48 53 57 147l19-12h3v-1l21 2-1 42-17 3-4 1-20 8s-10 75-72 110c0 0-28 12-64 18 60-16 99-93 99-93 19-35 16-86 16-86-17-103-91-140-91-140-62-41-145-22-145-22-67 16-87 89-87 89-19 58-6 103 4 124-13-23-24-50-29-80l-14-4 1-40 14 1s14-69 64-111l1 1z"/>
   <path class="fil0" d="m4650 3478v1h-3l-19 12c-9-94-57-147-57-147-37-47-117-60-117-60-60-14-127 18-130 19l-1-1c5-5 11-9 18-12 0 0 103-59 201 4 0 0 69 40 93 119 0 0 14 45 15 66z"/>
   <path class="fil0" d="m4649 3526l1 2s-24 100-93 116c62-35 72-110 72-110l20-8z"/>
   <path class="fil1" d="m4609 2812c3 29-23 52-23 52-13 16-122 63-122 63l-10 6-52 30-94-8-35-33-21-20 2-3c9 6 17 13 18 16l30-22-16-57c28 24 80 11 80 11h1l-3 66 34 36 38-19 1-11 2-36s89-49 131-27l16-19 3-4s5-36 0-42l-33-30-75 20v-1l47-42v-121l-8-2 11-3 2 131 1 21 25-6 33 31s6-47-14-59c0 0 22-77 2-116 0 0-32-65-51-59l-1-2c6-2 13 2 17 5s6 6 6 6c76 88 39 164 39 164 1 1 3 3 4 5 11 19 16 78 16 78z"/>
   <path class="fil2" d="m4607 3484s4 52-16 86c0 0-39 77-99 93-8 1-17 2-25 3l-24-2h-2v-1s-71-14-106-61c0 0-26-26-49-67-9-21-23-66-4-124 0 0 20-74 87-89 0 0 84-19 145 22 0 0 74 37 91 140z"/>
   <path class="fil1" d="m4577 2731c20 13 14 59 14 59l-33-31-25 6-1-21-2-131-11 3 1-55c2-3 4-5 7-6 19-6 51 59 51 59 20 39-2 116-2 116z"/>
   <path class="fil4" d="m4421 2911s4-4 2-12c0 0-8-13-15-15 0 0-12-3-15 3 0 0 8 28 28 24zm62-85c7-20-17-23-17-23-8-3-18 6-18 6 10 20 35 17 35 17zm89-19c6-11-2-19-6-23-9-9-24-4-24-4-4 10 0 19 6 23 12 10 24 4 24 4zm17-16c5 6 0 42 0 42l-3 4-3-2c-58-19-149 36-149 36l-3 49-17 3-28-27-5-67 75-41 25-7 75-20 33 30z"/>
   <path class="fil0" d="m4588 1999s3 205-8 237c0 0-2 4-5 9h-1s-12-157-1-286h4c4 4 10 14 11 41z"/>
   <path class="fil4" d="m4586 2838l-16 19c-42-22-131 27-131 27l-2 36h-5l3-49s91-55 149-36l3 2z"/>
   <path class="fil0" d="m4577 1958h-4c-12 130 1 286 1 286h1c-4 6-11 15-20 20v-1s-18-247 1-305c0 0 8-21 13-5h6s1 0 3 2z"/>
   <path class="fil0" d="m4577 1925l-3 30h-6c-4-16-13 5-13 5-19 58-1 305-1 305v1c-2 2-5 3-8 4 0 0-21 62-36 88l-10-316 6-8 7-10c2-7-13-79-27-141 0-1 0-2-1-3h1s16-129 60-132h2c13 52 24 115 27 177z"/>
   <path class="fil1" d="m4566 2785c4 4 12 12 6 23 0 0-12 7-24-4-7-4-10-12-6-23 0 0 15-5 24 4z"/>
   <path class="fil0" d="m4550 1748h-2c-44 3-60 132-60 132h-1c-10-46-19-85-19-85 11-19 35-150 40-177 1-3 1-5 1-5s21 56 40 135z"/>
   <path class="fil0" d="m4528 2618v121l-47 42v1l-25 7-75 41-14 11v8h-1s-52 12-80-11l-6-21-158-79-77-38s-38-19-55-14h-47l-9-25-41-6-20 25-34-91 26 65h220l28-15 5-7 98 78 33 6 6 24c8 7 26 16 26 16 55 42 111-42 111-42 11-3 137-95 137-95z"/>
   <path class="fil0" d="m4519 2617l8 2s-126 92-137 95c0 0-55 85-111 42 0 0-18-10-26-16l-6-24-33-6-98-78 40-56 1 1 44 19c16 0 10 28 10 28 67 34 93-18 93-18l198-107 13-2 3 121z"/>
   <path class="fil3" d="m3861 1902c66-1 112-14 136-24 13-5 20-9 20-9l14-26 176-7 9 22c10 4 21 7 31 10 65 18 136 19 171 18 14 0 22-1 22-1h9l36-1 4-1c14 61 29 134 27 141l-7 10-6 8-23 27-5 6c-7 2-119 38-126 142-2 11-2 20-2 24l-62 21h-1l-31-64h-1c-13-3-135-32-256 2l-15 39-15 31h-1l-36-13c-1-21-10-123-93-158l-15-29-14-27-1-2 12-141 19 2h2 25z"/>
   <path class="fil0" d="m4502 2042l10 316c-2 4-4 7-6 9l-1 1-4 4-21-301-1-1 23-27z"/>
   <path class="fil3" d="m4284 1510c2 0 3-1 5-1 0 0 138 6 221 104 0 0 0 2-1 5l-4-1s-42 4-80 171h-1l-580 17s-2-71-13-76h-1v-4l10-3 3-88s84-93 184-117v106l12-3 183-12s28-90 61-98z"/>
   <path class="fil0" d="m4500 2371l4-4 1-1h3l-3 62-3 68-198 107s-26 52-93 18c0 0 7-28-10-28l-44-19-1-1 4-6 301-127c-49 11-185 2-185 2l-306 3c-42 16-116 8-116 8l-12-44 18 43c39 6 105-9 112-10h1l303-6h2c68 15 190 2 190 2 9-2 29-65 29-65l3-2z"/>
   <path class="fil3" d="m4505 1618l4 1c-5 28-30 159-40 177 0 0 9 39 19 85 0 1 0 2 1 3l-4 1-36 1v-1l-19-60-5-34v-2h1c38-166 80-171 80-171z"/>
   <path class="fil0" d="m4477 2329c0-14-3-25-8-25-4 0-8 11-8 25s3 25 8 25c4 0 8-11 8-25zm-96 34l-30-102 124-186 5-6 1 1 21 301-3 2s-21 63-29 65c0 0-122 13-190-2h-2v-2l-71-84s-10-1-26-2l27-3s5-26 11-55h1c23 12 82 91 82 91l79-18z"/>
   <path class="fil1" d="m4465 2804s24 3 17 23c0 0-25 3-35-17 0 0 10-8 18-6z"/>
   <path class="fil1" d="m4469 2304c4 0 8 11 8 25s-3 25-8 25c-4 0-8-11-8-25s3-25 8-25z"/>
   <path class="fil1" d="m4474 2075l-124 186-62 17-36-53s-2-8-9-12l5-10 34 60h1l63-19v-3l2-1c-1-8-1-16 0-23 6-38 31-107 126-142z"/>
   <path class="fil0" d="m4467 3666l-6 128s0 14-17 13c0 0-8 1-10-14l7-129h2l24 2z"/>
   <path class="fil1" d="m4117 2630l-5 7-28 15h-220l-26-65c1-4 0-10-1-17-2-21-9-57-26-84 0 0 25-10 32-75l12 44s73 8 116-8l306-3s136 10 185-2l-301 127-4 6-40 56z"/>
   <path class="fil0" d="m4456 2937s20 88 2 94c0 0-12 5-31 6v-2s9-44-25-72l52-30 2 4z"/>
   <path class="fil1" d="m4448 1884v1h-9s-8 1-22 1v-1s21-24-41-31c0 0-71-6-104 1 0 0-23 3-24 10l-1 2c-11-3-21-6-31-10l-9-22v-3l223-8 19 60z"/>
   <polygon points="4437 2920 4436 2931 4399 2950 4364 2914 4367 2848 4367 2840 4381 2829 4386 2897 4414 2923 4431 2920" class="fil4"/>
   <polygon points="4424 1791 4430 1824 4206 1833 3843 1846 3844 1805 4424 1789" class="fil3"/>
   <path class="fil0" d="m4402 2964c33 28 25 72 25 72v2c-25 2-61-3-99-33 0 0-50-44-56-81l1-1 35 33 94 8z"/>
   <path class="fil1" d="m4423 2899c2 8-2 12-2 12-19 4-28-24-28-24 3-6 15-3 15-3 7 1 15 15 15 15z"/>
   <path class="fil2" d="m4376 1855c62 7 41 31 41 31v1c-35 1-105 0-171-18l1-2c1-6 24-10 24-10 34-7 104-1 104-1z"/>
   <path class="fil0" d="m4183 3227c23-16 17-25 17-25-8-12-25-1-25-1-13 9-42 53-42 53-27 36-36 90-36 90-11 84-4 122-4 122 3 27 21 68 21 68 10 14 17 7 17 7 6-9 2-18 2-18-7-11-16-65-16-65-8-48 11-129 11-129 10-51 55-103 55-103zm-130 475c-4-6-124-193-224-251 0 0-314-221-427-255l22-41 106-16 7-43 9-57-94-100s6-11 3-28l47-81 127-31 7 3 145 57s-17 20 0 36c0 0 25 28 70 14 0 0 20-6 22-11l208 88 230 125 42 27 39 83s-108 9-156 110c0 0-39 77-19 149 0 0 5 61 58 128l-213 106s-4-3-10-9z"/>
   <path class="fil3" d="m4380 2364l-79 18s-59-79-82-91h-1c6-24 12-51 18-65l6-12c7 5 9 12 9 12l36 53 62-17 30 102z"/>
   <path class="fil1" d="m4348 2241l-2 1c0-4 0-13 2-24-1 7 0 15 0 23z"/>
   <path class="fil4" d="m4287 2881c0-8-9-15-21-15s-21 7-21 15 9 15 21 15 21-7 21-15zm-1-44l16 57-30 22c-1-3-9-9-18-16-13-9-29-19-29-19l-9-45-123-64 4-7c3 1 7 2 11 2 11 0 20-6 20-13 0-5-4-9-9-11l3-6 158 79 6 21z"/>
   <path class="fil1" d="m4266 2866c12 0 21 7 21 15s-9 15-21 15-21-7-21-15 9-15 21-15z"/>
   <path class="fil0" d="m4277 2435v2l-303 6h-1l-1-5 51-87c28-10 114-6 157-3 15 1 26 2 26 2l71 84z"/>
   <path class="fil1" d="m3877 2683c-2-3-3-5-3-5l49 46 52-2s22-3 44 13l74 38 123 64 9 45s15 9 29 19l-2 3-245-130c-91-47-120-77-128-89z"/>
   <path class="fil1" d="m4248 2203l-5 10c-2-2-4-3-7-3 0 0-212-15-231 1 0 0-2 1-5 4l-4-10c9-3 117-34 251-5l1 2z"/>
   <path class="fil0" d="m4284 1510c-33 8-61 98-61 98l-183 12v-95s67-46 244-15z"/>
   <path class="fil3" d="m4243 2214l-6 12c-6 15-12 41-18 65l-65-8-1-14h-77l-3 15-56 8s-2 0-4 2l-10-74-2-4c3-3 5-4 5-4 19-16 231-1 231-1 3 1 5 2 7 3z"/>
   <path class="fil0" d="m4153 2283l65 8c-6 29-11 55-11 55l-27 3c-43-3-129-7-157 3l-3-4-8-53 4-2 56-8 3-15h77l1 14z"/>
   <path class="fil1" d="m4206 1833v3l-176 7-14 26s-7 4-20 9l-1-4s-6-13-43-11c0 0-73 2-85 16 0 0-17 13-7 22h-25l7-55 363-13z"/>
   <path class="fil1" d="m4200 3202s6 9-17 25c0 0-45 52-55 103 0 0-19 81-11 129 0 0 8 54 16 65 0 0 5 9-2 18 0 0-6 6-17-7 0 0-18-41-21-68 0 0-7-39 4-122 0 0 9-54 36-90 0 0 29-44 42-53 0 0 17-11 25 1z"/>
   <path class="fil1" d="m4157 4644l9 80s-6 15-17 5l-11-87 18 3z"/>
   <path class="fil1" d="m4145 4346l17 90s-5 20-17 3l-18-99 18 6z"/>
   <path class="fil1" d="m4139 4039l15 111s-3 28-20 5l-18-123 23 7z"/>
   <path class="fil1" d="m4119 2742c5 2 9 6 9 11 0 7-9 13-20 13-4 0-8-1-11-2-5-2-9-6-9-11 0-7 9-13 20-13 4 0 8 1 11 2z"/>
   <path class="fil4" d="m3934 2678c0-7-10-13-23-13-12 0-23 6-23 13s10 13 23 13 23-6 23-13zm188 58l-3 6c-3-1-7-2-11-2-11 0-20 6-20 13 0 5 4 9 9 11l-4 7-74-38c-22-16-44-13-44-13l-52 2-49-46 20-25 41 6 9 25h47c17-5 55 14 55 14l77 38z"/>
   <path class="fil0" d="m4110 4008l-18 11-126 74s-2 2-6 4c-7-3-154-76-227-114 0 0-279-138-475-166 25 3 163 24 215 52 0 0-19-71-85-87l-95-25-39 59-1-1c26-42 48-83 48-83 19-33 39-72 57-112h1l218 92c12 0 304 147 304 147 52 23 230 148 230 148z"/>
   <path class="fil0" d="m4043 4849s21 64 35 79c-18-15-116-96-133-103l-27-12 1-2 123 39z"/>
   <path class="fil0" d="m4053 3702c-32-31-135-127-164-139 0 0-169-122-396-191l-32-11-61-21v-8l1-5-1-20 1-113c113 34 427 255 427 255 100 58 220 245 224 251z"/>
   <path class="fil0" d="m3996 4599l47 250-123-39-1 2-112-53-128-43-98-28c-5-12-43-110-46-133 0 0-7-62 12-89v-2c11 3 22 7 26 12v-14l16-3c19 0 385 125 385 125l21 14z"/>
   <polygon points="4041 1525 4041 1620 4029 1623 4029 1517" class="fil0"/>
   <path class="fil0" d="m3864 2344c0-12-3-23-6-23s-6 10-6 23 3 23 6 23 6-10 6-23zm42 37l44 11 51-87c2-6 8-9 11-11l8 53 3 4-51 87 1 5c-7 2-72 16-112 10l-18-43-11-26-4-135s-10-10-14-27h3s14-4 1-152l15 29c83 35 92 137 93 158l-2-1c-16-127-84-145-84-145l86 167-20 102z"/>
   <path class="fil3" d="m4002 2220l10 74c-4 2-9 5-11 11l-51 87-44-11 20-102 34 11 33-62c2-6 4-9 7-12l2 4z"/>
   <path class="fil1" d="m3996 2206l4 10c-2 2-5 6-7 12l-33 62-34-11-86-167s69 19 84 145l2 1v4l36 9h1l2 1 12-32 16-34h1z"/>
   <path class="fil2" d="m3996 1874l1 4c-24 10-70 23-136 24-10-9 7-22 7-22 12-14 85-16 85-16 37-2 43 11 43 11z"/>
   <polygon points="3964 2271 3979 2240 3966 2272" class="fil1"/>
   <path class="fil0" d="m3933 4305l43 280s-366-125-385-125l-16 3-62-147s-12-25-4-52v-2c42 9 79 17 79 17 59-7 116-26 158-43v1s81 16 97 35l90 27 1 5z"/>
   <path class="fil1" d="m3963 2271l-36-9v-4l36 13z"/>
   <path class="fil0" d="m3891 4150l41 151-90-27c-16-19-97-35-97-35v-1c40-16 66-30 66-30 8-5 44-31 80-57z"/>
   <path class="fil1" d="m3911 2665c13 0 23 6 23 13s-10 13-23 13c-12 0-23-6-23-13s10-13 23-13z"/>
   <path class="fil0" d="m3405 4074c7 5-36-50-105-85 0 0-57-29-79-32 0 0 26 80 22 96 0 0 144 9 162 21zm556 23c-12 9-41 30-70 52-36 26-72 53-80 57 0 0-132-78-305-112 0 0-221-45-263-38-9-63-47-162-47-162 16-13 38-46 58-78l1 1h2 2c197 28 475 166 475 166 72 38 220 111 227 114z"/>
   <path class="fil0" d="m3877 2683l-181-8 31-80 103-6c0-10-2-21-4-31-3-14-6-27-10-39l6-2c6 17 12 37 15 52 1 10 1 17 1 17l34 91s1 2 3 5z"/>
   <path class="fil1" d="m3857 2321c3 0 6 10 6 23s-3 23-6 23-6-10-6-23c0-12 3-23 6-23z"/>
   <path class="fil3" d="m3844 1805v41l-7 55h-2l-19-2 15-170h1c11 5 13 76 13 76z"/>
   <path class="fil1" d="m3838 2569c1 7 2 13 1 17 0 0 0-7-1-17z"/>
   <path class="fil0" d="m3831 2588l-103 6-31 80-278 135-1-1-7-9-1-17h3l267-125 36-88 110-11h2c2 10 3 20 4 31z"/>
   <path class="fil0" d="m3827 2558h-2l-110 11-36 88-267 125h-3l-2-27s-100-116-142-122c0 0 149-83 183-116 0 0 48-42 52-47l230-49s34-17 48 16c0 0 23 35 39 81 4 12 8 25 10 39z"/>
   <path class="fil0" d="m3819 2071c12 148-1 152-1 152h-3c-1-4-2-8-2-12 0 0-12-124-9-167l14 27z"/>
   <path class="fil0" d="m3332 4235c-29-4-58-7-73-8h-10c5-29-5-155-5-155 0-5-1-9-2-15 42-7 263 38 263 38 174 34 305 112 305 112s-26 14-66 30c-42 17-99 36-158 43 0 0-37-8-79-17-35-7-73-15-94-18 0 0-41-6-82-11z"/>
   <path class="fil1" d="m3696 2674l-59 124-1 3-7-3-127 31-47 81h-1c0-37-22-70-22-70-6-11-13-20-20-27l6-5 1 1 278-135z"/>
   <polygon points="3537 3631 3580 3709 3366 3620 3393 3563" class="fil1"/>
   <path class="fil0" d="m3573 4464v14c-4-5-15-9-26-12-18-5-39-7-39-7-40-11-114 5-114 5-24 5-68 73-68 73l-8-122s-15-73-32-127l2-1s32-49 43-53c41 5 82 11 82 11 21 3 59 11 94 18v2c-8 27 4 52 4 52l62 147z"/>
   <path class="fil0" d="m3581 4688c-8-2-15-4-19-5 0 0-117-19-141-8 0 0-67 18-94 39l-1-178s43-68 68-73c0 0 74-16 114-5 0 0 21 2 39 7v2c-19 27-12 89-12 89 3 23 41 121 46 133z"/>
   <path class="fil1" d="m3452 2939l94 100-9 57-68-54c-22 15-33 39-37 51l-5-2s9-35 26-42l-45-31-3 22 3-41-7-1c27-16 37-37 38-38 11-16 15-33 15-49h1c3 17-3 28-3 28z"/>
   <path class="fil4" d="m3470 3042l68 54-7 43-56 6-45-45s1-3 3-8c4-12 15-36 37-51z"/>
   <path class="fil1" d="m3531 3139l-106 16-22 41-1 113-4-60-94 39s-15 125-37 161c2-7 43-143 29-158 0 0-83-9-113-46 0 0-102-124-104-138l-28-52c53-18 98-32 98-32l4-2c31 37 95 70 95 70 52 30 152 12 152 12l2-12 1-8 1-14 24 22 5 2c-2 5-3 8-3 8l45 45 56-6z"/>
   <path class="fil0" d="m3243 4057c1 5 1 10 2 15 0 0 10 127 5 155l-132-435c1 3 16 35 41 22 0 0 38-20 82-103 0 0 2-3 5-9v-1c17-27 36-59 54-96l56-119 11-35c11-32 26-79 35-110l61 21-1 3s-46 133-102 256c-18 40-38 79-57 112 0 0-22 42-48 83-20 32-42 64-58 78 0 0 38 99 47 162z"/>
   <path class="fil1" d="m3389 3783c66 16 85 87 85 87-52-29-190-49-215-52h-2-2l39-59 95 25z"/>
   <path class="fil0" d="m3411 2908c21-42-16-77-16-77-26-33-80-21-80-21-47 12-40 61-40 61h52v12l-47 7c2 38 49 47 49 47 54 21 82-28 82-28zm43 2c0 16-4 34-15 49-3 3-82 74-164 16 0 0-56-33-56-94 0 0-2-47 12-68 0 0 19-23 47-33 0 0 38-9 59-2 0 0 43 2 76 34 8 7 14 16 20 27 0 0 22 33 22 70z"/>
   <path class="fil4" d="m3409 3019l45 31c-16 7-26 42-26 42l-24-22 2-29 3-22z"/>
   <path class="fil0" d="m3439 2960c-1 2-10 22-38 38-7 4-14 8-23 11 0 0-42 14-108-14 0 0-52-26-66-77 0 0-12-54 14-96 0 0 23-30 59-40-28 9-47 33-47 33-14 21-12 68-12 68 0 61 56 94 56 94 83 57 161-13 164-16z"/>
   <path class="fil0" d="m3072 2628l-46-27s-91 52-113 68c0 0-35 28-26 52 0 0 4 9 24 7 0 0 16-1 35-20 0 0 93-70 126-80zm345 180l-6 5c-33-32-76-34-76-34-21-7-59 2-59 2-35 9-59 40-59 40-26 42-14 96-14 96 14 52 66 77 66 77 66 28 108 14 108 14 9-3 16-7 23-11l7 1-3 41-4 27 2 1-1 14h-5s-114 22-166-23c0 0-58-36-77-70 0 0-20-23-22-75 0 0-4-24-2-33l1-3-239 7s-33 7-42 33l-96 136s-82 35-96 63c0 0-56 56-63 82 0 0-7 56 5 89-19-26-26-73-26-73-12-75 9-176 9-176 12-68 68-160 68-160 23-54 129-162 129-162 42-45 87-68 87-68l68-23 143-52c30-12 63-2 63-2 40 12 113 61 113 61h11c42 6 142 122 142 122l2 27 1 17 7 9z"/>
   <path class="fil0" d="m3394 2831s38 35 16 77c0 0-28 49-82 28 0 0-47-9-49-47l47-7v-12h-52s-7-49 40-61c0 0 54-12 80 21z"/>
   <path class="fil1" d="m3300 3989c69 35 113 90 105 85-18-12-162-21-162-21 4-16-22-96-22-96 21 4 79 32 79 32z"/>
   <path class="fil0" d="m3402 3083l-1 8-2 12s-101 19-152-12c0 0-64-33-95-70-2-2-4-5-6-7 0 0-31-28-21-108l6-26c-2 9 2 33 2 33 2 52 22 75 22 75 19 34 77 70 77 70 52 45 166 23 166 23h5z"/>
   <path class="fil4" d="m3342 3511l6-16-25-2s-15 5-2 14l20 4zm33-98l2-16-43-2s-14 4-3 17l44 2zm27-105v25l-35 117c-7 22-13 38-13 38-18 46-88 176-108 212v1c-30 47-54 76-54 76l-13 19 24-52c24-21 38-50 48-78 3-3 5-5 5-6 0 0 1-6 1-17 9-36 9-65 9-65 2-9 2-63 2-98v-31c22-36 37-161 37-161l94-39 4 60z"/>
   <path class="fil1" d="m3377 3397l-2 16-44-2c-11-12 3-17 3-17l43 2z"/>
   <path class="fil1" d="m3348 3496l-6 16-20-4c-13-9 2-14 2-14l25 2z"/>
   <path class="fil0" d="m3332 4235c-11 4-43 53-43 53l-2 1c-9-29-19-53-28-58v-3c15 1 44 4 73 8z"/>
   <path class="fil0" d="m3295 3291c15 15-26 150-29 158v17h-4s-70-123-161-156c0 0-90-42-205-19 0 0-95 18-122 36l-25 34-8-6c-1 0-2-1-3-1l34-52 110-179 165-66h1 1l28 52c2 14 104 138 104 138 29 36 113 46 113 46z"/>
   <path class="fil3" d="m2939 3950s19-21 2-38c0 0-89-103-124-129 0 0-82-63-117-80 0 0-23-16-38 0 0 0-16 14 14 31 0 0 124 91 150 117 0 0 61 63 77 89 0 0 21 28 35 9zm209-232s14-12 5-26c0 0-35-59-101-108 0 0-124-103-185-136 0 0-26-19-47-5 0 0-19 23 19 40 0 0 115 63 162 110 0 0 96 91 117 122 0 0 14 21 31 2zm118-252v15c-1 48-8 129-10 163-2 7-4 15-6 23-25 26-133 125-133 125-14 22-144 145-144 145-38 27-57 82-57 82-9 21-18 21-18 21l-70 43c-3 2-5 3-8 6l-1-1-57 18-236-206 12-160 74-38 122-196-4-117 21-28 25-34c27-19 122-36 122-36 115-23 205 19 205 19 90 33 161 156 161 156h4z"/>
   <path class="fil1" d="m3245 3701c-3 6-5 9-5 9-45 83-82 103-82 103-24 13-39-19-41-22 0 0 108-100 133-125-9 28-24 57-48 78l-24 52 13-19s24-29 54-76z"/>
   <path class="fil3" d="m3153 3692c9 14-5 26-5 26-16 19-31-2-31-2-21-31-117-122-117-122-47-47-162-110-162-110-38-16-19-40-19-40 21-14 47 5 47 5 61 33 185 136 185 136 66 49 101 108 101 108z"/>
   <path class="fil0" d="m2899 3011c12-8 11-31 11-31l-2-94-27 5 2 100c2 14 16 20 16 20zm253 11l-4 2s-44 14-98 32h-1-1c-48 16-104 36-140 51l-1-3-66 11c-59 14-84 38-84 38-38 20-67 86-67 86l-12-19s-26-45-19-103c14-28 96-63 96-63l96-136c9-26 42-33 42-33l239-7c0 1-1 2-1 3l-6 26c-9 80 21 108 21 108 2 2 4 5 6 7z"/>
   <path class="fil0" d="m3026 2601l46 27c-33 9-126 80-126 80-19 19-35 20-35 20-19 2-24-7-24-7-9-23 26-52 26-52 21-16 113-68 113-68z"/>
   <path class="fil1" d="m3047 3056l-165 66-110 179-34 52c-20-9-24-57-24-57-14-111 94-147 94-147 28-11 61-22 61-22 4-5 19-12 38-21 36-16 92-35 140-51z"/>
   <path class="fil3" d="m2942 3912c16 16-2 38-2 38-14 19-35-9-35-9-16-26-77-89-77-89-26-26-150-117-150-117-31-16-14-31-14-31 14-16 38 0 38 0 35 16 117 80 117 80 35 26 124 129 124 129z"/>
   <path class="fil1" d="m2910 2979s2 23-11 31c0 0-14-6-16-20l-2-100 27-5 2 94z"/>
   <path class="fil0" d="m2906 3105l1 3c-20 9-34 16-38 21 0 0-33 11-61 22 0 0-108 36-94 147 0 0 4 47 24 57l-9 15s-17-17-22-31c0 0-20-30-17-99 0 0 30-66 67-86 0 0 25-23 84-38l66-11z"/>
   <path class="fil0" d="m2817 4088l1 1c-38 32-100 139-100 139l-8 3-43 58-25-33c28-40 43-128 43-128l74-23 57-18z"/>
   <path class="fil0" d="m2760 4106l-74 23c-8-11-172-152-172-152l11-77 236 206z"/>
   <path class="fil0" d="m2735 4236l19 9s0 33-31 66l-79 76 57-76-45 2 53-81 15 13 9-9z"/>
   <path class="fil0" d="m2749 3361l-21 28 4 117-122 196-74 38-12 160-11 77c-25-18-162 6-162 6 9-12 17-34 23-54 6-22 10-41 10-41 67-40 134-174 134-174 20-34 39-123 39-123l148-185 23-37 12-14 8 6z"/>
   <path class="fil0" d="m2711 4233l-53 81 45-2-57 76c27-35 52-73 52-73-38-7-134 23-134 23l-42-40 1-1-4-15-115-93-2 1-2-2-12 2-52-45c26-82-16-152-16-152l-33 16v-1c12-7 27-15 39-18 0 0 33-2 49-61-6 20-14 42-23 54 0 0 137-23 162-6 0 0 164 142 172 152 0 0-15 88-43 128l25 33 43-58z"/>
   <path class="fil3" d="m2564 4337s96-30 134-23c0 0-25 38-52 73-20 26-40 50-53 58 0 0-40 54-54 77l-79 124v-2c0-8 1-39-9-77-2-10-5-18-8-25v-1c-8-23-21-46-39-68 0 0-21-32-62-69l-3-3c-3-3-7-7-12-11-2-2-4-4-7-5-30-25-69-50-116-69-19-9-40-18-62-26 0 0-18-9-48-15-7-2-14-3-19-3l7-68 12 5 81-108s74-65 114-92l33-16s42 70 16 152l52 45 12-2 2 2-6 2-36 52s-19 38 5 59l70 61s26 23 45-5l42-61 42 40z"/>
   <path class="fil1" d="m2677 3220l-77 68c-12-33-5-89-5-89 7-26 63-82 63-82-7 59 19 103 19 103z"/>
   <path class="fil3" d="m2519 4295l3 3-42 61c-19 28-45 5-45 5l-70-61c-23-21-5-59-5-59l36-52 6-2 116 95 2 11z"/>
   <path class="fil0" d="m2458 4646c11 60-5 93-5 93-19 59-72 123-72 123-23 38-164 181-164 181l-67 75-13-37c-12-17-50-28-76-34-30-9-64-15-98-9-33 4-58 14-58 14-74 18-113 4-116 3l12-31c6-12 13-30 18-47l4-11c3-17 3-38 2-62-1-17-2-35-6-53-7-46-17-92-24-122l-6-34s0-1-1-2l21-70 2-12 4 1s56-38 86-86l105-147 68-106c7 1 13 2 19 3 36 10 92 34 92 34 6 2 13 5 19 7 55 26 93 51 116 69 2 2 5 4 7 5 3 3 7 6 10 8l-2 2-106 291-73 183-53 142 31-20c63-42 169-175 169-175 31-41 136-278 136-278l5-2v1c3 9 6 17 8 25 7 33 9 74 9 74 0 1 0 2 1 3v2z"/>
   <path class="fil0" d="m2440 4542l-5 2s-105 238-136 278c0 0-106 133-169 175l-31 20 53-142 73-183 106-291 2-2c1 1 2 2 3 2l3 3 8 8c75 75 86 120 86 120 2 2 5 5 6 9z"/>
   <path class="fil0" d="m2362 3922l12 7c-16 59-49 61-49 61-12 3-27 11-39 18-15 9-27 17-27 17-21 15-84 68-84 68-21 0-14-21-14-21 23-38 87-106 87-106 19-26 94-84 94-84l26 16-5 23z"/>
   <path class="fil0" d="m2234 5624c6 18-26 41-32 45l-1 1-59 6 16-36-52-66c27-2 58 5 58 5 61 9 70 45 70 45z"/>
   <path class="fil0" d="m2220 5659c8 8 2 23 2 23-5 19-38 42-38 42-31 20-77 27-77 27l-1-1 5-7 15-10-31-31-9-11h48l9-14 59-6 1-1 18-10z"/>
   <path class="fil0" d="m2e3 5190l-1 1c-2 2-4 4-6 7l-1 1-80 89c-20-16-64-90-64-90-20-42-27-133-27-133v-2c54 4 128-22 128-22 4-1 9-2 13-3 23-3 49-3 73 5 0 0 11 2 26 5 44 14 76 34 76 34l13 37 27 91c7 33-18 69-18 69 1-3 14-35 14-35 3-28-14-50-14-50-19-16-54-28-54-28-10-6-22-8-33-7-21 1-39 9-39 9-12 3-23 12-32 23z"/>
   <path class="fil1" d="m2158 5193s18 22 14 50c0 0-12 31-14 35l1-78c-17-27-88-42-88-42 11-1 23 1 33 7 0 0 35 12 54 28z"/>
   <path class="fil0" d="m2159 5376s5 89-19 113c0 0-28 45-61 23 0 0-31-17-42-83l-1-12-1-26v-1s84-29 124-15z"/>
   <path class="fil0" d="m2159 5200l-1 78-1 64s-17 1-38 3c-34 3-80 9-90 19l-38-158s20-44 80-49c0 0 70 16 88 42z"/>
   <path class="fil1" d="m2153 5352l6 23c-39-14-124 15-124 15l-1-21s47-16 86-19c12-1 24-1 33 2z"/>
   <polygon points="2149 5639 2151 5641 2132 5690 1976 5674 2010 5624 2010 5622 2012 5622" class="fil0"/>
   <polygon points="2096 5573 2149 5639 2012 5622 2010 5622 2012 5548" class="fil0"/>
   <path class="fil1" d="m2119 5346v5c-39 3-86 19-86 19l1 21v1l1 26h-4l-11-61s-9-2-19-7c-14-6-31-17-38-32 0 0-19-47 7-89 0 0 8-15 21-30l1-1 6-7 1-1c10-10 21-19 32-23 0 0 18-8 39-9-59 5-80 49-80 49l38 158c10-10 56-16 90-19z"/>
   <polygon points="2093 5701 2118 5731 2116 5734 1943 5734 1940 5734 1945 5668 1980 5666 1975 5675 2081 5686 2084 5690 2082 5690" class="fil0"/>
   <polygon points="2110 5742 2105 5749 2087 5774 1938 5765 1940 5734 1943 5734 2116 5734" class="fil0"/>
   <path class="fil0" d="m2076 4062l5 41-7 169-68 106-105 147c-30 49-86 86-86 86l-4-1 45-293 17-28 161-219c41-49 42-8 42-8z"/>
   <path class="fil0" d="m2003 5349c11 5 19 7 19 7l11 61s-90-3-131-39c0 0-19-11-39-32l46-54 4-5 68 52 22 9z"/>
   <path class="fil0" d="m2033 5417l-25 34-40 58-1-1c-1-1-4-3-8-5-1 0-1-1-2-1l-13-8c-7 5-93 1-93 1-14-3-24-8-29-12-4-4-6-7-6-7l46-129c20 21 39 32 39 32 41 35 131 39 131 39z"/>
   <polygon points="1976 5606 1996 5548 2010 5554 2009 5622 1977 5664 1949 5657 1974 5610" class="fil1"/>
   <path class="fil0" d="m2003 5349l-22-9-68-52 80-89c-12 15-21 30-21 30-26 42-7 89-7 89 7 15 25 26 38 32z"/>
   <path class="fil0" d="m1968 5509l30 31-22 67-164-97-1-1 7-29s2 1 5 3c6 5 15 12 29 12 29 6 65 6 86 0 4-1 13 3 19 7 1 0 2 1 2 1l8 5c1 0 1 1 1 1z"/>
   <polygon points="1976 5606 1974 5610 1938 5668 1782 5560 1811 5509 1812 5510" class="fil0"/>
   <polygon points="1938 5668 1935 5757 1916 5759 1901 5737 1892 5734 1910 5665" class="fil1"/>
   <path class="fil1" d="m1938 5668l-28-3-19 69 16-73-67-43-82-2h-2l75-2-52-46s-17-26-7-47c0 0 22-46 45-44 0 0 2 3 6 7-3-2-5-3-5-3l-7 29-29 51 156 108z"/>
   <path class="fil0" d="m1913 5288l-4 5-46 54s-83 29-99 39c0 0-45 25-63 40-2 2-8 7-11 9v-3l3-46 21-196c12-9 74-135 74-135 9 5 21 7 33 8v2s7 90 27 133c0 0 44 74 64 90z"/>
   <polygon points="1907 5661 1892 5734 1890 5735 1889 5734 1758 5617 1758 5616 1840 5617" class="fil0"/>
   <polygon points="1889 5734 1890 5735 1852 5766 1717 5640 1721 5635 1743 5610 1756 5616 1758 5616 1758 5617" class="fil0"/>
   <path class="fil0" d="m1863 5347l-46 129c-22-1-45 44-45 44-9 21 7 47 7 47l52 46-75 2-42-49c-19-7-25 19-25 19l33 48-1 2-4 4 1 1-1 2-37-56 11-150c3-2 9-8 11-9 19-15 63-40 63-40 15-9 99-39 99-39z"/>
   <path class="fil0" d="m1824 4904c1 31-1 54-1 54-1 6-3 12-5 18l-18 47c-5 10-8 17-8 17-11 30-78 149-78 149-22 38-30 77-30 77-11 42-16 120-16 120 2 36 19 31 19 31v14l-17-6c-38-36-53-199-53-199-16-100 14-261 14-261 5-59 92-267 92-267 20-41 36-36 36-36 14 0 25 23 27 30l-1 3s3 13 8 33l20 107 3 15c3 18 5 36 6 53z"/>
   <path class="fil1" d="m1714 5566l42 49-13-5-22 25 1-2-33-48s6-26 25-19z"/>
   <path class="fil1" d="m1715 5189l-21 196-3 46h-2v-14s-17 5-19-31c0 0 5-78 16-120 0 0 8-39 30-77z"/>
   <path class="fil5 str0" d="m3927 2258c-1-21-10-123-93-158l-15-29-14-27-1-2 12-141 15-170v-4l10-3 3-88s84-93 184-117l12 9v95l183-12s28-90 61-98c2 0 3-1 5-1 0 0 138 6 221 104"/>
   <line y1="2271" x2="3963" x1="3964" y2="2271" class="fil5 str0"/>
   <path class="fil5 str0" d="m4282 2263l-31-64h-1c-13-3-135-32-256 2l-15 39"/>
   <line y1="2242" x2="4283" x1="4345" y2="2263" class="fil5 str0"/>
   <path class="fil5 str0" d="m4473 2075c-7 2-119 38-126 142"/>
   <path class="fil5 str0" d="m4510 1614s0 2-1 5c-5 28-30 159-40 177 0 0 9 39 19 85 0 1 0 2 1 3 14 61 29 134 27 141l-7 10-6 8-23 27-5 6"/>
   <path class="fil5 str0" d="m4484 1884l-36 1h-9s-8 1-22 1c-35 1-105 0-171-18-11-3-21-6-31-10l-9-22-176 7-14 26s-7 4-20 9c-24 10-70 23-136 24h-25-2l-19-2"/>
   <polyline points="4448 1884 4430 1824 4206 1833 3843 1846 3836 1901 3836 1901" class="fil5 str0"/>
   <polyline points="4029 1517 4029 1623 4041 1620" class="fil5 str0"/>
   <path class="fil5 str0" d="m4041 1525s67-46 244-15h1"/>
   <path class="fil5 str0" d="m4510 1614s21 56 40 135c13 52 24 115 27 177l-3 30s1 0 3 2c4 4 10 14 11 41 0 0 3 205-8 237 0 0-2 4-5 9-4 6-11 15-20 20-2 2-5 3-8 4 0 0-21 62-36 88-2 4-4 7-6 9l-1 1-4 4-3 2s-21 63-29 65c0 0-122 13-190-2h-2l-303 6h-1c-7 2-72 16-112 10l-18-43-11-26-4-135s-10-10-14-27c-1-4-2-8-2-12 0 0-12-124-9-167"/>
   <path class="fil5 str0" d="m3972 2438l51-87c28-10 114-6 157-3 15 1 26 2 26 2l71 84"/>
   <path class="fil5 str0" d="m4283 2263l63-19v-3c0-4 0-13 2-24 6-38 31-107 126-142"/>
   <path class="fil5 str0" d="m4474 2075l-124 186-62 17-36-53s-2-8-9-12c-2-2-4-3-7-3 0 0-212-15-231 1 0 0-2 1-5 4-2 2-5 6-7 12l-33 62-34-11-86-167s69 19 84 145l2 1 36 13h1l15-31 16-34h1c9-3 117-34 251-5l1 2 34 60"/>
   <path class="fil5 str0" d="m4422 2354l-42 10-79 18s-59-79-82-91h-1l-65-8-1-14h-77l-3 15-56 8s-2 0-4 2c-4 2-9 5-11 11l-51 87-44-11-21-5"/>
   <polyline points="4381 2366 4380 2364 4350 2262" class="fil5 str0"/>
   <polyline points="3906 2382 3906 2381 3926 2279" class="fil5 str0"/>
   <path class="fil5 str1" d="m4207 2346s5-26 11-55c6-24 12-51 18-65l6-12 5-10 2-4 4-7s41-128 152-163"/>
   <path class="fil5 str1" d="m4020 2347l-8-53-10-74-2-4-4-10-2-4s-39-101-128-150"/>
   <path class="fil5 str0" d="m4575 2245s-12-157-1-286"/>
   <path class="fil5 str0" d="m4555 2265s-18-247 1-305c0 0 8-21 13-5"/>
   <polyline points="4502 2041 4502 2042 4512 2358" class="fil5 str0"/>
   <polyline points="4480 2070 4500 2371 4500 2372" class="fil5 str0"/>
   <path class="fil5 str0" d="m3817 2223s14-4 1-152v-2"/>
   <path class="fil5 str0" d="m4488 1880s16-129 60-132"/>
   <path class="fil5 str0" d="m4505 1618s-42 4-80 171h-1l-580 17s-2-71-13-76"/>
   <line y1="1824" x2="4424" x1="4430" y2="1791" class="fil5 str0"/>
   <line y1="1846" x2="3844" x1="3843" y2="1805" class="fil5 str0"/>
   <path class="fil5 str0" d="m4417 1886s21-24-41-31c0 0-71-6-104 1 0 0-23 3-24 10"/>
   <path class="fil5 str0" d="m3996 1874s-6-13-43-11c0 0-73 2-85 16 0 0-17 13-7 22"/>
   <polyline points="4509 2367 4506 2429 4503 2497 4516 2495 4519 2617 4528 2618 4528 2740 4481 2781" class="fil5 str0"/>
   <path class="fil5 str0" d="m3874 2677s1 2 3 5c9 12 38 42 128 89l245 130 21 20 35 33 94 8 52-30 10-6s109-47 122-63c0 0 26-23 23-52 0 0-5-60-16-78-1-2-2-4-4-5 0 0 37-76-39-164 0 0-2-3-6-6-5-4-11-7-17-5-2 0-4 2-6 4"/>
   <line y1="2586" x2="3873" x1="3839" y2="2677" class="fil5 str0"/>
   <path class="fil5 str0" d="m3812 2486c1 2 6 15 11 31 6 17 12 37 15 52"/>
   <path class="fil5 str0" d="m3839 2406s-5 67-27 80"/>
   <path class="fil5 str0" d="m4503 2497l-198 107s-26 52-93 18c0 0 7-28-10-28l-44-19"/>
   <path class="fil5 str0" d="m4528 2618s-126 92-137 95c0 0-55 85-111 42 0 0-18-10-26-16l-6-24-33-6-98-78"/>
   <path class="fil5 str0" d="m3843 2410l12 44s73 8 116-8l306-3s136 10 185-2l-301 127-4 6-40 56-5 7-28 15h-220l-26-65s0-7-1-17c-2-21-9-57-26-84 0 0 25-10 32-75z"/>
   <path class="fil5 str0" d="m4367 2848l-3 66 34 36 38-19 1-11 2-36s89-49 131-27l16-19 3-4s5-36 0-42l-33-30-75 20-25 7-75 41-14 11v8z"/>
   <path class="fil5 str0" d="m4381 2829l5 67 28 27 17-3 3-49s91-55 149-36"/>
   <path class="fil5 str0" d="m4254 2900c9 6 17 13 18 16l30-22-16-57-6-21-158-79-77-38s-38-19-55-14h-47l-9-25-41-6-20 25 49 46 52-2s22-3 44 13l74 38 123 64 9 45s15 9 29 19z"/>
   <path class="fil5 str0" d="m4366 2848s-52 12-80-11l-1-1"/>
   <path class="fil5 str0" d="m4456 2937s20 88 2 94c0 0-12 5-31 6-25 2-61-3-99-33 0 0-50-44-56-81"/>
   <path class="fil5 str0" d="m4427 3036s9-44-25-72"/>
   <path class="fil5 str0" d="m3827 2558c2 10 3 20 4 31l-103 6-31 80-278 135-1-1-7-9-1-17-2-27s-100-116-142-122c0 0 149-83 183-116 0 0 48-42 52-47l230-49s34-17 48 16c0 0 23 35 39 81 4 12 8 25 10 39z"/>
   <polyline points="3825 2558 3715 2570 3679 2657 3412 2782" class="fil5 str0"/>
   <path class="fil5 str0" d="m4593 2734l92 36 58 79s25 14 30 16c5 3 179 158 179 158h34 3l52 46-7-41-2-11-8-9-296-322-183-128-1-1"/>
   <polyline points="3878 2683 3877 2683 3696 2674 3637 2798" class="fil5 str0"/>
   <path class="fil5 str0" d="m3455 2911l47-81 127-31 7 3 145 57s-17 20 0 36c0 0 25 28 70 14 0 0 20-6 22-11l208 88 230 125 42 27 39 83s-108 9-156 110c0 0-39 77-19 149 0 0 5 61 58 128l-213 106s-4-3-10-9c-32-31-135-127-164-139 0 0-169-122-396-191l-32-11-61-21v-8-25l1-113 22-41 106-16 7-43 9-57-94-100s6-11 3-28z"/>
   <path class="fil5 str0" d="m4053 3702c-4-6-124-193-224-251 0 0-314-221-427-255"/>
   <path class="fil5 str0" d="m5125 3225l-51-119-88-78h-38l-58 18s20 28 11 41c0 0-13 6-30-3 0 0-28-17-31-21 0 0-62 4-83 13 0 0-204 57-222 74 0 0-21 10-21 14l-13 74s52 10 85 48c0 0 99 82 107 191 0 0 9 112-48 184l152 166 3 4s86-85 109-100c0 0 59-42 96-51 0 0 109-42 124-57l29-117"/>
   <path class="fil5 str0" d="m5162 3491c1-9 4-34-10-44l-38-33"/>
   <line y1="3241" x2="4535" x1="4522" y2="3150" class="fil5 str0"/>
   <path class="fil5 str0" d="m4799 3825s155-225 362-331"/>
   <path class="fil5 str0" d="m4492 3663c-8 1-17 2-25 3l-6 128s0 14-17 13c0 0-8 1-10-14l7-129v-1s-71-14-106-61c0 0-26-26-49-67-13-23-24-50-29-80l-14-4 1-40 14 1s14-69 64-111c5-5 11-9 18-12 0 0 103-59 201 4 0 0 69 40 93 119 0 0 14 45 15 66l21 2-1 42-17 3-4 1-20 8s-10 75-72 110c0 0-28 12-64 18"/>
   <path class="fil5 str0" d="m4324 3302c3-2 70-34 130-19 0 0 80 13 117 60 0 0 48 53 57 147l19-12"/>
   <polyline points="4649 3523 4650 3478 4650 3478" class="fil5 str0"/>
   <path class="fil5 str0" d="m4649 3529s-24 100-93 116"/>
   <line y1="3665" x2="4467" x1="4444" y2="3666" class="fil5 str0"/>
   <path class="fil5 str0" d="m4294 3549s-3-5-7-14c-9-21-23-66-4-124 0 0 20-74 87-89 0 0 84-19 145 22 0 0 74 37 91 140 0 0 4 52-16 86 0 0-39 77-99 93-3 1-5 1-8 2"/>
   <path class="fil5 str0" d="m4183 3227s-45 52-55 103c0 0-19 81-11 129 0 0 8 54 16 65 0 0 5 9-2 18 0 0-6 6-17-7 0 0-18-41-21-68 0 0-7-39 4-122 0 0 9-54 36-90 0 0 29-44 42-53 0 0 17-11 25 1 0 0 6 9-17 25z"/>
   <path class="fil5 str0" d="m4756 3631s24-59 19-115c0 0-5-61-21-94 0 0-32-80-60-109 0 0-15-13-5-27 0 0 15-8 30 16 0 0 29 47 36 65 0 0 27 52 36 92 0 0 12 53 9 76 0 0-4 58-12 75 0 0-8 25-12 29 0 0-6 9-13 6 0 0-11-1-8-15z"/>
   <path class="fil5 str0" d="m5034 4026c11-40 21-81 26-99 2-7 3-10 3-10 4-12 28-122 45-202 10-49 18-86 18-86"/>
   <path class="fil5 str0" d="m5004 4122c8-20 19-57 29-94"/>
   <path class="fil5 str0" d="m4932 4315c8-13 16-29 23-47 25-61 45-140 45-140 1-2 2-4 3-7"/>
   <path class="fil5 str0" d="m4668 4103c5 3 7 5 7 5 10 6 24 27 37 48 16 27 29 54 29 54l3 6c24 49 39 106 43 124 1 3 1 5 1 5 1 2 1 5 2 7 11 41 15 107 15 107h52c19-12 74-138 76-142"/>
   <path class="fil5 str0" d="m3116 3792l132 435h10c15 1 44 4 73 8 41 5 82 11 82 11 21 3 59 11 94 18 42 9 79 17 79 17 59-7 116-26 158-43 40-16 66-30 66-30 8-5 44-31 80-57 29-22 58-43 70-52 4-3 6-4 6-4l126-74 18-11c172-38 343 14 343 14 115 21 192 66 215 80"/>
   <path class="fil5 str0" d="m3245 3701c-3 6-5 9-5 9-45 83-82 103-82 103-24 13-39-19-41-22"/>
   <path class="fil5 str0" d="m3366 3451c-7 22-13 38-13 38-18 46-88 176-108 212"/>
   <path class="fil5 str0" d="m3401 3341c-9 31-24 77-35 110"/>
   <path class="fil5 str0" d="m4110 4008s-178-125-230-148c0 0-292-147-304-147l-218-92"/>
   <path class="fil5 str0" d="m3257 3818h-2"/>
   <path class="fil5 str0" d="m3961 4098c-7-3-154-76-227-114 0 0-279-138-475-166"/>
   <path class="fil5 str0" d="m3811 4207s-132-78-305-112c0 0-221-45-263-38h-2"/>
   <path class="fil5 str0" d="m3460 3365s-46 133-102 256c-18 40-38 79-57 112 0 0-22 42-48 83-20 32-42 64-58 78 0 0 38 99 47 162 1 5 1 10 2 15 0 0 10 127 5 155"/>
   <polygon points="3580 3709 3537 3631 3393 3563 3366 3620" class="fil5 str0"/>
   <path class="fil5 str0" d="m3259 3818c25 3 163 24 215 52 0 0-19-71-85-87l-95-25-39 59h2 2z"/>
   <path class="fil5 str0" d="m3405 4074c7 5-36-50-105-85 0 0-57-29-79-32 0 0 26 80 22 96 0 0 144 9 162 21z"/>
   <path class="fil5 str0" d="m4668 4103c15-6 264-101 391-176"/>
   <polyline points="4668 4103 4668 4103 4668 4103" class="fil5 str0"/>
   <path class="fil5 str0" d="m4741 4209s139-35 172-47c0 0 63-18 88-33"/>
   <path class="fil5 str0" d="m4790 4338s114-4 143-22"/>
   <path class="fil5 str0" d="m4078 4928c-18-15-116-96-133-103l-27-12-112-53-128-43-98-28c-8-2-15-4-19-5 0 0-117-19-141-8 0 0-67 18-94 39l-1-178-8-122s-15-73-32-127c-9-29-19-53-28-58"/>
   <path class="fil5 str0" d="m4081 4930l-2-2"/>
   <path class="fil5 str0" d="m4805 4457l-53 270s-38 214-46 236l-21 19-28 27-106 157s-65-33-103-30c0 0-52 3-60-5 0 0-76-24-90-22l-168-141-49-38"/>
   <path class="fil5 str0" d="m3288 4287s32-49 43-53"/>
   <path class="fil5 str0" d="m3745 4238s81 16 97 35l90 27 1 5 43 280s-366-125-385-125l-16 3-62-147s-12-25-4-52"/>
   <path class="fil5 str0" d="m3326 4537s43-68 68-73c0 0 74-16 114-5 0 0 21 2 39 7 11 3 22 7 26 12v-14"/>
   <path class="fil5 str0" d="m3582 4689v-1c-5-12-43-110-46-133 0 0-7-62 12-89"/>
   <polyline points="3975 4586 3996 4599 4043 4849 3920 4810" class="fil5 str0"/>
   <path class="fil5 str0" d="m4043 4849s21 64 35 79l2 2"/>
   <path class="fil5 str0" d="m4043 4849s399 155 608 117l11 14 22 2"/>
   <path class="fil5 str0" d="m4752 4727s-19 11-41-3c0 0-41 228-60 242"/>
   <path class="fil5 str0" d="m4797 4419l-37 4s-57-5-98 11c0 0-174 38-432-62l-168-57s-99-28-129-9"/>
   <path class="fil5 str0" d="m4092 4019s230 83 255 94c0 0 68 41 255 38 0 0 93-3 110 4 1 0 1 1 2 1"/>
   <path class="fil5 str0" d="m4791 4348l-1 3-30 72-49 301s-391-16-453-54c0 0-90-33-141-35 0 0-90-49-120-35"/>
   <line y1="4301" x2="3891" x1="3932" y2="4150" class="fil5 str0"/>
   <path class="fil5 str0" d="m3439 2960c-1 2-10 22-38 38-7 4-14 8-23 11 0 0-42 14-108-14 0 0-52-26-66-77 0 0-12-54 14-96 0 0 23-30 59-40 0 0 38-9 59-2 0 0 43 2 76 34 8 7 14 16 20 27 0 0 22 33 22 70 0 16-4 34-15 49"/>
   <path class="fil5 str0" d="m3411 2908s-28 49-82 28c0 0-47-9-49-47l47-7v-12h-52s-7-49 40-61c0 0 54-12 80 21 0 0 38 35 16 77z"/>
   <path class="fil5 str0" d="m3439 2960c-3 3-82 74-164 16 0 0-56-33-56-94 0 0-2-47 12-68 0 0 19-23 47-33"/>
   <path class="fil5 str0" d="m3254 2634s-73-49-113-61c0 0-33-9-63 2l-143 52-68 23s-45 23-87 68c0 0-106 108-129 162 0 0-56 91-68 160 0 0-21 101-9 176 0 0 7 47 26 73"/>
   <path class="fil5 str0" d="m2946 2708s93-70 126-80l-46-27s-91 52-113 68c0 0-35 28-26 52 0 0 4 9 24 7 0 0 16-1 35-20z"/>
   <path class="fil5 str0" d="m2728 3369s-17-17-22-31c0 0-20-30-17-99l-12-19-77 68c-12-33-5-89-5-89 7-26 63-82 63-82 14-28 96-63 96-63l96-136c9-26 42-33 42-33l239-7-1 3-6 26c-9 80 21 108 21 108 2 2 4 5 6 7 31 37 95 70 95 70 52 30 152 12 152 12l2-12 1-8 1-14 2-29 3-41"/>
   <path class="fil5 str0" d="m3047 3056c-48 16-104 36-140 51-20 9-34 16-38 21 0 0-33 11-61 22 0 0-108 36-94 147 0 0 4 47 24 57 1 0 2 1 3 1l-12 14"/>
   <path class="fil5 str0" d="m3147 3023s-44 14-98 32h-1"/>
   <path class="fil5 str0" d="m3398 3083s-114 22-166-23c0 0-58-36-77-70 0 0-20-23-22-75 0 0-4-24-2-33 0-1 0-2 1-3"/>
   <path class="fil5 str0" d="m2689 3239s30-66 67-86c0 0 25-23 84-38l66-11"/>
   <path class="fil5 str0" d="m3250 3666c-9 28-24 57-48 78l-24 52 13-19s24-29 54-76v-1c17-27 36-59 54-96l56-119 11-35 35-117 1-5-1-20-4-60-94 39s-15 125-37 161"/>
   <path class="fil5 str0" d="m3266 3449v17 15c0 35 0 89-2 98 0 0 0 29-9 65-2 7-4 15-6 23"/>
   <path class="fil5 str0" d="m3266 3448c2-7 43-143 29-158 0 0-83-9-113-46 0 0-102-124-104-138l-28-52h-1-1l-165 66-110 179-34 52-9 15-23 37-148 185s-19 89-39 123c0 0-67 134-134 174 0 0-4 19-10 41-6 20-14 42-23 54 0 0 137-23 162-6 0 0 164 142 172 152 0 0-15 88-43 128l25 33 43-58 8-3s62-107 100-139c3-3 6-5 8-6l70-43s8 0 18-21c0 0 20-55 57-82 0 0 130-123 144-145 0 0 108-100 133-125 3-3 5-5 5-6 0 0 1-6 1-17 3-35 9-115 10-163v-31z"/>
   <path class="fil5 str0" d="m3262 3465s-70-123-161-156c0 0-90-42-205-19 0 0-95 18-122 36l-25 34-21 28 4 117-122 196-74 38-12 160 236 206 57-18"/>
   <line y1="4106" x2="2686" x1="2760" y2="4129" class="fil5 str0"/>
   <line y1="3899" x2="2513" x1="2524" y2="3977" class="fil5 str0"/>
   <path class="fil5 str0" d="m2677 3220s-26-45-19-103"/>
   <path class="fil5 str0" d="m3531 3139l-56 6-45-45s1-3 3-8c4-12 15-36 37-51l68 54-7 43z"/>
   <path class="fil5 str0" d="m3427 3091s9-35 26-42l-45-31-3 22-4 27 2 1 24 22z"/>
   <path class="fil5 str0" d="m2838 3483s115 63 162 110c0 0 96 91 117 122 0 0 14 21 31 2 0 0 14-12 5-26 0 0-35-59-101-108 0 0-124-103-185-136 0 0-26-19-47-5 0 0-19 23 19 40z"/>
   <path class="fil5 str0" d="m2677 3734s124 91 150 117c0 0 61 63 77 89 0 0 21 28 35 9 0 0 19-21 2-38 0 0-89-103-124-129 0 0-82-63-117-80 0 0-23-16-38 0 0 0-16 14 14 31z"/>
   <path class="fil5 str0" d="m2645 4387l57-76-45 2 53-81 15 13 9-9 19 9s0 33-31 66l-79 76z"/>
   <path class="fil5 str0" d="m2286 4008c12-7 27-15 39-18 0 0 33-2 49-61l-12-7 5-23-26-16s-75 59-94 84c0 0-63 68-87 106 0 0-7 21 14 21 0 0 63-53 84-68 0 0 12-9 27-17z"/>
   <path class="fil5 str0" d="m2454 4016s-23 19-21 28c0 0 131 75 174 145l23-23"/>
   <path class="fil5 str0" d="m2400 4067s-16 9-19 19c0 0 162 120 183 162l16-19"/>
   <path class="fil5 str0" d="m2318 4385c-30-25-69-50-116-69-6-3-13-5-19-7 0 0-56-24-92-34-7-2-14-3-19-3l7-68 12 5 81-108s74-65 114-92l33-16s42 70 16 152l52 45 12-2 2 2 116 95 2 11 3 3 42 40s96-30 134-23c0 0-25 38-52 73-20 26-40 50-53 58 0 0-40 54-54 77l-79 124v-2c0-8 1-39-9-77-2-8-5-17-8-25"/>
   <path class="fil5 str0" d="m2337 4401c-1-1-2-2-3-2-3-3-6-6-10-8"/>
   <path class="fil5 str0" d="m2441 4543v-1c-8-23-21-46-39-68 0 0-21-32-62-69"/>
   <path class="fil5 str0" d="m2402 4189l-6 2-36 52s-19 38 5 59l70 61s26 23 45-5l42-61 1-1-4-15-115-93-2 1z"/>
   <path class="fil5 str0" d="m1963 5038c23-3 49-3 73 5 0 0 11 2 26 5 26 6 64 17 76 34"/>
   <path class="fil5 str0" d="m1788 5055c3 1 42 15 116-3 0 0 26-10 58-14"/>
   <path class="fil5 str0" d="m1824 4904c1 23 1 45-2 62l-4 11-18 47-12 31"/>
   <path class="fil5 str0" d="m1818 4851c3 18 5 36 6 53"/>
   <path class="fil5 str0" d="m1795 4728c7 30 17 76 24 122"/>
   <path class="fil5 str0" d="m2149 5119l67-75s141-144 164-181c0 0 53-64 72-123 0 0 16-33 5-93v-2c0-1 0-2-1-3 0 0-1-41-9-74-2-10-5-18-8-25v-1c-2-4-4-7-6-9 0 0-11-45-86-120l-8-8-3-3c-3-3-7-7-12-11-2-2-4-4-7-5-23-18-60-43-116-69-19-9-40-18-62-26 0 0-18-9-48-15-6-1-12-2-19-3l7-169-5-41s-2-41-42 8l-161 219-17 28-45 293-2 12-21 70-1 3s3 13 8 33"/>
   <path class="fil5 str0" d="m1815 4611s56-38 86-86l105-147 68-106"/>
   <path class="fil5 str0" d="m2436 4543s-105 238-136 278c0 0-106 133-169 175l-31 20 53-142 73-183 106-291"/>
   <path class="fil5 str0" d="m1788 4692c-3-7-13-29-27-30 0 0-16-5-36 36 0 0-88 208-92 267 0 0-30 161-14 261 0 0 16 163 53 199l17 6v-14s-17 5-19-31c0 0 5-78 16-120 0 0 8-39 30-77 0 0 67-119 78-149 0 0 3-7 8-17 6-12 13-30 18-47 2-6 4-12 5-18 0 0 2-23 1-54-1-17-2-35-6-53l-3-15-20-107-6-34s0-1-1-2"/>
   <path class="fil5 str0" d="m2e3 5190c10-10 21-19 32-23 0 0 18-8 39-9 11-1 23 1 33 7 0 0 35 12 54 28 0 0 18 22 14 50 0 0-12 31-14 35 0 0 25-36 18-69l-27-91-13-37s-32-21-76-34"/>
   <path class="fil5 str0" d="m1994 5198c2-2 4-5 6-7"/>
   <path class="fil5 str0" d="m1968 5509l40-58 25-34-11-61s-9-2-19-7c-14-6-31-17-38-32 0 0-19-47 7-89 0 0 8-15 21-30"/>
   <path class="fil5 str0" d="m1852 5495s86 3 93-1l13 8"/>
   <path class="fil5 str0" d="m1721 5635l1-2-33-48s6-26 25-19l42 49 75-2-52-46s-17-26-7-47c0 0 22-46 45-44 0 0 2 3 6 7"/>
   <path class="fil5 str0" d="m1963 5038c-4 1-9 2-13 3 0 0-73 26-128 22-12-1-24-3-33-8 0 0-62 126-74 135l-21 196-3 46v3l-11 150 37 56 1-2"/>
   <path class="fil5 str0" d="m1821 5065s7 90 27 133c0 0 44 74 64 90l68 52 22 9 19 8"/>
   <path class="fil5 str0" d="m2033 5417s-90-3-131-39c0 0-19-11-39-32 0 0-83 29-99 39 0 0-45 25-63 40-2 2-8 7-11 9l-1 1"/>
   <polyline points="1817 5476 1863 5347 1908 5293 1913 5288 1992 5199 1994 5198 1999 5191 2e3 5190 2006 5184" class="fil5 str0"/>
   <path class="fil5 str0" d="m2071 5158s70 16 88 42l-1 78-1 64s-17 1-38 3c-34 3-80 9-90 19l-38-158s20-44 80-49z"/>
   <path class="fil5 str0" d="m2120 5350c12-1 24-1 33 2l6 23s5 89-19 113c0 0-28 45-61 23 0 0-31-17-42-83l-1-12-1-26v-1l-1-21s47-16 86-19z"/>
   <path class="fil5 str0" d="m2035 5390s84-29 124-15"/>
   <path class="fil5 str0" d="m1957 5502c-7-4-15-8-19-7-21 6-57 5-86 0-14-3-24-8-29-12-3-2-5-3-5-3l-7 29-29 51 156 108 36-58 1-4 22-67-30-31"/>
   <path class="fil5 str0" d="m1967 5508c-1-1-4-3-8-5"/>
   <polygon points="1974 5610 1949 5657 1977 5664 2009 5622 2010 5554 1996 5548 1976 5606" class="fil5 str0"/>
   <polygon points="2010 5622 2010 5624 1976 5674 2132 5690 2151 5641 2149 5639 2096 5573 2012 5548" class="fil5 str0"/>
   <polyline points="2012 5622 2149 5639 2154 5639" class="fil5 str0"/>
   <polyline points="1976 5607 1976 5606 1976 5606 1812 5510" class="fil5 str0"/>
   <path class="fil5 str0" d="m2202 5669c6-4 38-26 32-45 0 0-9-36-70-45 0 0-31-7-58-5l52 66-16 36"/>
   <polygon points="1756 5616 1743 5610 1721 5635 1717 5639 1717 5640 1852 5766 1890 5735 1892 5734 1907 5661 1840 5617 1758 5616" class="fil5 str0"/>
   <polygon points="1892 5734 1901 5737 1916 5759 1935 5757 1938 5668 1910 5665" class="fil5 str0"/>
   <polygon points="2084 5690 2081 5686 1975 5675 1980 5666 1945 5668 1940 5734 1938 5765 2087 5774 2105 5749 2110 5742 2116 5734 2118 5731 2093 5701" class="fil5 str0"/>
   <polyline points="2119 5734 2116 5734 1943 5734" class="fil5 str0"/>
   <line y1="5734" x2="1758" x1="1889" y2="5617" class="fil5 str0"/>
   <path class="fil5 str0" d="m2106 5751s47-7 77-27c0 0 33-23 38-42 0 0 6-16-2-23l-18 10-1 1-59 6-9 14h-48-2l11 11 31 31-15 10-1 1"/>
   <path class="fil5 str0" d="m5024 3007s47-36 81-43c3-1 5-1 8-1 0 0 5 0 12 2 9 2 23 8 32 18 0 0-48-8-59 3 0 0-50 16-63 43"/>
   <path class="fil5 str0" d="m5204 3053c-1-4-16-73-77-88h-2l-20-1h-4s50-34 163 34l-48 50-13 5z"/>
   <path class="fil5 str0" d="m5214 3040s-21-72-83-82"/>
   <path class="fil5 str0" d="m5388 3440c-13 18-36 42-68 46 0 0-60 5-101-15-2-1-5-2-7-4-2-1-4-3-6-4 0 0-8-5-16-22-4-8-7-18-9-32-2-11-2-24-2-39 0-6 1-12 1-19 0 0-1-3-2-8-4-13-12-39-17-47 0-1-1-3-1-5v-2c-4-17-11-57-2-70 0 0 2-3 4-7 4-6 12-16 23-20l-1-96s50-51 87-94c16-20 30-37 34-49 0 0 114 94 150 142 0 0 42 53 82 136 0 0 35 39 56 178 0 0 11 83-1 129l-3 9s-35 104-163 127v-7s133-42 147-123c0 0 7-130-35-163 0 0-53-52-111-61"/>
   <path class="fil5 str0" d="m5424 3319s3 39-7 70c-3 11-8 21-15 29 0 0-5 10-14 23"/>
   <path class="fil5 str0" d="m5424 3319h1c12 2 113 16 143 57 0 0 27 26 22 161"/>
   <path class="fil5 str0" d="m5179 3342s6 8 17 17c18 16 47 36 81 37 0 0 24 4 49-4 13-4 27-12 37-25 0 0 27-32 12-99 0 0-6-47-66-91 0 0-61-37-126 13 0 0-20 51 5 109 0 0 17 44 56 67 0 0 47 28 81 26h2"/>
   <path class="fil5 str0" d="m5361 3261s9 70-36 73c0 0-64 8-81-56 0 0-16-63 28-78 0 0 31-12 56 9 0 0 23 17 33 52z"/>
   <path class="fil5 str0" d="m5195 3360s-5 89 22 111l1 1"/>
   <path class="fil5 str0" d="m5357 3474l2 2c9 11 56 73 64 114 0 1 1 2 1 3l-13 25s6 14 6 27c0 0 36-42 55-130 0 0 14-89-9-139 0 0-16-31-38-50 0 0 2 41-6 61 0 0 0 1-1 3-4 8-17 32-29 52-7 11-14 21-18 24l-12 9z"/>
   <path class="fil5 str0" d="m5340 3522s9 6 21 17c17 16 39 41 45 72 0 0 8 28 15 62 5 27 10 57 8 80"/>
   <path class="fil5 str0" d="m5332 3735s-28-97-73-150"/>
   <path class="fil5 str0" d="m5226 3776s-45-77-59-110"/>
   <path class="fil5 str0" d="m5034 4026c12-40 25-87 35-132 0 0 74-77 158-117 8-4 16-7 25-10 0 0 44-18 82-26 12-3 23-5 32-5 0 0 22-3 45 3 0 0 8 3 18 16 7 10 15 26 20 52l47 142s3 4 3 10c0 3 0 6-2 9 0 0-8 8-2 19 0 0 4 8 13 9 0 0 2 2 4 5s4 7 4 13l57 224s2 5 2 10-2 9-9 11c0 0-14 8-5 23 0 0 3 9 15 8 0 0 7-2 11 5 1 2 2 5 3 9 0 0 21 64 20 123 0 0 2 57-6 73l-71 31-160 54s-30 2-56-21l-113-83s-9-6 8-36l13-33s12-20-8-55l-80-148s-14-31-53-42c0 0-72-30-81-45 0 0 13-40 29-94 0-1 1-2 1-2z"/>
   <path class="fil5 str0" d="m5499 3959h-1c-10 4-126 47-158 58 0 0-83 27-142 44l-18 6s-27 8-18 31c0 0 2 20 34 12 0 0 106-27 170-53 0 0 125-48 143-55"/>
   <path class="fil5 str0" d="m5575 4248l-206 76s-70 23-77 29c0 0-29 12-17 37 0 0 11 15 38 3 0 0 92-34 138-48l137-49"/>
   <path class="fil5 str0" d="m5146 4702c2-43-39-194-39-194-16-54-114-170-114-170-31-25-36-69-36-69"/>
   <polyline points="5604 4500 5604 4546 5604 4569" class="fil5 str0"/>
   <path class="fil5 str0" d="m5615 4729c-21 7-56 19-75 28-5 2-9 4-11 5h-1l-67 31s-68-34-110-35l-19-28s-8-12 0-19l42-58s19-16 44-25l110-40 50-22 26 3h4l21 23 29 41s18 43 2 60l-28 27-1 1s-6 2-16 5"/>
   <path class="fil5 str0" d="m5725 4677h2 2c-5-81-83-143-83-143h-29l-13 12"/>
   <path class="fil5 str0" d="m5617 4534s47 30 71 84"/>
   <path class="fil5 str0" d="m5249 4759c2-2 5-3 9-5 0 0-20-59-66-63l-47 11s-21 28-14 70c0 0 17 103 45 138 0 0 19 39 59 43 0 0 12 0 21-13 6-7 11-19 13-37 0 0-6-96-22-126 0 0-6-11 2-19z"/>
   <path class="fil5 str0" d="m5256 4942v-1c1-7 7-70-12-127 0 0-30-78-69-102 0 0-13-9-29-11"/>
   <path class="fil5 str0" d="m5209 4947c1 3 19 43 54 70l143 206"/>
   <path class="fil5 str0" d="m5864 4893l-125-178s-2-17-10-38c-7-20-20-43-40-59l16 90-41 16s-12-6-27-3l-4 1-17 6h-1l-75 28-5 2s-3 1-7 4-7 6-7 11l-61 26s-47-36-154-42c0 0-30-3-53 1 0 0-2 0-3 1-3 3-6 10 4 32 0 0 14 55 17 103 0 0 2 43-23 60 0 0-24 4-38-7"/>
   <path class="fil5 str0" d="m5520 4773l46 72s14 22 47 9l88-30s28-11 9-38l-47-62"/>
   <path class="fil5 str0" d="m6180 5517s-34-27-76-43c-14-5-30-9-45-10 0 0-41-9-88 34 0 0-22 18-50 45-28 28-62 64-82 98 0 0-18 50 15 117l7 5s4 37 6 58c0 2 1 4 1 6 0 0-54-99-73-120 0 0-108-130-152-160 0 0-125-122-143-150 0 0-72-84-93-121 0 0-8-14-5-40 0 0 1-6 3-15 4-18 11-47 20-58 0 0 41-70 115-111 0 0 88-55 93-66 0 0 109-79 167-89 0 0 19-3 38-5 8-1 17-1 25-1 0 0 42 2 78 46 0 0 47 41 95 168 0 0 16 41 26 70 0 0 39 87 76 140 0 0 43 75 95 133 0 0 15 27 26 33"/>
   <path class="fil5 str0" d="m5839 4896s70 86 108 242c0 0 38 172 42 225 0 0-101 61-137 99 0 0-107 86-121 116 0 0-140-94-174-135 0 0-138-151-154-205"/>
   <path class="fil5 str0" d="m5134 4743l62 88s4 20-11 8l-53-75 2-21z"/>
   <path class="fil5 str0" d="m6180 5517s-55 25-53 69c0 0-12 49 59 104 0 0-1-5-3-13-3-15-5-40 6-53 0 0 13-28 55-28 0 0 50-2 62 9 0 0 8 7 18 14 4 3 9 6 13 9 0 0-25-59-29-77 0 0-18-42-36-60l-14-9-79 35z"/>
   <path class="fil5 str0" d="m6325 5621c-7-5-15-9-21-10 0 0-30-12-63-1 0 0-27 7-32 38l1 32s-1 6-1 14c0 9 3 21 15 26 0 0 30 12 61 15 0 0 55 7 75-14l4-4c8-10 23-37-4-62 0 0-17-19-35-32z"/>
   <line y1="5693" x2="6184" x1="6206" y2="5678" class="fil5 str0"/>
   <path class="fil5 str0" d="m6304 5836l38 2s38 26 54 34c0 0 6 0 10 6 5 5 9 16 6 37 0 0-5 25-13 35l-59 48-9-1s32-22 29-54c0 0-5-46-35-67l-47-17-11-4 13-19 23 1z"/>
   <path class="fil5 str0" d="m6313 5878l6 3s34 80-15 116l-103 1s31-45 8-82c0 0-12-26-18-30 0 0 59-29 87-25l35 17z"/>
   <path class="fil5 str0" d="m6096 5971c12 7 47 24 82 26h9s26-42 18-66c0 0-8-34-22-45l-20-1s-7-1-17 0c-17 1-43 6-59 26 0 0-14 14-13 31 0 4 2 8 4 12 3 4 7 9 13 13 0 0 2 1 5 3"/>
   <polyline points="6261 6013 6260 6012 6341 5997 6353 6068 6247 6135 6237 6132 6237 6132 6208 6124 6207 6124 6217 6116 6217 6116 6241 6126 6271 6101 6278 6025 6262 6013" class="fil5 str0"/>
   <polyline points="6217 6116 6253 6085 6240 6017 6238 6006 6200 6004 6178 6002 6169 6002 6118 6038 6087 6088 6083 6094 6140 6108 6168 6115 6208 6124 6208 6124" class="fil5 str0"/>
   <path class="fil5 str0" d="m6073 6079l2-10 33-52 38-21s-28-12-49-25c-8-5-14-11-18-16-2-1-24-10-50-9 0 0-1 0-3 1-7 2-26 7-38 16-6 4-10 8-12 13 0 0-3 5-5 12-3 11-3 28 12 44 0 0 15 12 31 23 4 3 9 6 13 8 5 3 9 5 13 7l34 14 1-4z"/>
   <line y1="6008" x2="6278" x1="6339" y2="6025" class="fil5 str0"/>
   <line y1="6101" x2="6353" x1="6271" y2="6068" class="fil5 str0"/>
   <line y1="6085" x2="6118" x1="6253" y2="6038" class="fil5 str0"/>
   <path class="fil5 str0" d="m6108 6018s-83-60-121-55"/>
   <path class="fil5 str0" d="m6239 6018h1c4-1 16-4 21-4h1"/>
   <polyline points="6083 6086 6073 6079 6071 6078" class="fil5 str0"/>
   <line y1="5881" x2="6209" x1="6311" y2="5916" class="fil5 str0"/>
   <path class="fil5 str0" d="m6087 5912c44-8 118 20 118 20"/>
   <line y1="6117" x2="6169" x1="6167" y2="6168" class="fil5 str0"/>
   <polyline points="6141 6115 6124 6143 6116 6156 6111 6157 6078 6159 6122 6195 6169 6168 6236 6134" class="fil5 str0"/>
   <polyline points="6139 6109 6113 6151 6111 6154 6046 6154 6044 6154 6037 6148 6032 6144 5974 6092 5979 6090 6022 6074 6023 6074 6026 6063 6026 6061" class="fil5 str0"/>
   <polyline points="6112 6150 6022 6074 6021 6073" class="fil5 str0"/>
   <path class="fil5 str0" d="m5962 6071c4 4 7 6 7 6s19-23 44-23"/>
   <path class="fil5 str0" d="m5969 5988l-10-9c-11-6-19-9-26-9-15 0-20 12-21 21-1 4 0 8 0 8 2 10 7 20 13 29 12 19 28 35 38 44"/>
   <path class="fil5 str0" d="m6046 6155l-30 27s-45 5-58-1l-12-23-2-3 13 2v1l8 17 44-3 28-23 1-1"/>
   <polyline points="6031 6144 6008 6156 5958 6157 5946 6158 5945 6158 5898 6101 5904 6101 5959 6100 5974 6092" class="fil5 str0"/>
   <line y1="6156" x2="5959" x1="6008" y2="6100" class="fil5 str0"/>
   <path class="fil5 str0" d="m5909 5990c-31-3-24 31-24 31l7 68 7-1 51-4 12-13 1-1"/>
   <line y1="6084" x2="5924" x1="5950" y2="6028" class="fil5 str0"/>
   <path class="fil5 str0" d="m5873 5716l-12 3s2 50 8 104c6 53 15 109 29 120 0 0 1-2 3-5 8-11 31-40 62-53 6-3 13-5 20-5 0 0-38-39-11-111l-14-19-3-2-56-37-25 5z"/>
   <path class="fil5 str0" d="m6104 5475s-94 13-117 77c-3 8-5 17-5 26 0 0 3 93 37 127 0 0 47-19 73-5 0 0 50 18 64 79 0 0 53-28 83-24l89 8 46 9 3 1s-9-38-14-57c0-1 0-2-1-2"/>
   <path class="fil5 str0" d="m6145 5885s24-49 15-85l83-21s41-11 92-3l41 9 7 2 38 64-6 38s-3-5-9-12c-13-17-39-46-66-50 0 0-33 0-37 10v1"/>
   <polygon points="6352 6025 6393 5989 6396 5962 6347 5996" class="fil5 str0"/>
   <path class="fil5 str0" d="m6072 5943c-41-9-80-49-80-49-7 3-15 6-22 11-24 15-47 37-55 46l-4 4 22 14"/>
   <path class="fil5 str0" d="m5953 5749s-34 82 10 135c0 0 0 1 1 1"/>
   <path class="fil5 str0" d="m5972 5908s26 27 53 38"/>
   <path class="fil5 str0" d="m5873 5716v-1c0-8 3-60 22-65l3 3c8 9 33 36 40 50l20 45"/>
   <path class="fil5 str0" d="m5898 5653l23-6 19-5s23-66 46-90c0-1 1-1 1-2"/>
   <path class="fil5 str0" d="m6060 5722s51-2 78 70c0 0 15 61-18 97 0 0-16 7-27 16 0 0-9 7-11 10 0 0-51-2-75-41 0 0-26-38-19-82 0 0 3-29 21-47 0 0 23-23 52-22z"/>
   <line y1="6078" x2="5979" x1="5969" y2="6089" class="fil5 str0"/>
   <polyline points="5899 6088 5904 6101 5905 6103" class="fil5 str0"/>
   <line y1="5938" x2="5915" x1="5902" y2="5951" class="fil5 str0"/>
   <line y1="5783" x2="6374" x1="6378" y2="5773" class="fil5 str0"/>
   <path class="fil5 str0" d="m5920 5643s-12-58 2-100"/>
   <path class="fil0" d="m4129 6214l109-119 3-2 111-121 4-4h-1l5-5s67-83 175-74c0 0 20 3 47 11 21 6 45 15 66 28 17 10 31 22 41 36 0 0 39 38 19 92 0 0-99 303-100 321-20-92-80-103-80-103-70-34-149 52-149 52-95 106-313 665-313 665l-2 2c-8-7-17-17-23-30 0 0-58-98-108-206 7-10 146-219 160-352 0 0 14-124 2-147l-3-3 37-40z"/>
   <path class="fil1" d="m4650 5925l-1 2c-21-13-46-22-66-28l1-3s-1-13-5-33c-8-49-30-139-76-188 0 0-134-69-236 28 0 0-36 26-48 44 25-80 56-177 68-196 0 0 49-45 87-23 0 0 150 73 169 99 0 0 61 47 75 183l9 99 23 16z"/>
   <path class="fil3" d="m4564 5611c20 19 25 31 25 31 61 63 61 284 61 284l-23-16-9-99c-14-136-75-183-75-183-19-26-169-99-169-99-38-21-87 23-87 23-12 19-43 116-68 196-6 19-11 38-16 54-6 21-11 38-14 48-2 6-3 10-3 10l-20 8v-1l102-326s26-56 87-40l98 34c18 9 36 20 54 31 0 0 1 0 1 1 26 17 44 32 57 44z"/>
   <polygon points="4597 9187 4593 9184 4534 9053 4605 9124 4628 9223 4589 9198" class="fil0"/>
   <path class="fil0" d="m4359 9167l56 3-2-5h1l107 3 3 12 69 5 5 3-8 11 39 25-17 54h-466c-3-28 50-80 50-80l106-17 50-13h7z"/>
   <path class="fil0" d="m4608 6376c-2 17-2 27-14 55l-223 517-57 131-19-6-200-63s-15-5-30-18l2-2s217-558 313-665c0 0 78-86 149-52 0 0 59 11 80 103z"/>
   <polygon points="4520 9167 4481 9034 4366 9021 4413 9165 4414 9170 4359 9167 4320 8987 4320 8985 4506 8990 4534 9053 4593 9184 4524 9179" class="fil0"/>
   <path class="fil0" d="m4577 5864c3 20 5 33 5 33l-1 3c-27-8-47-11-47-11-108-9-175 74-175 74l-5 5-166-63-1 10h-2c4-37 5-64 5-64h-2c3-10 8-27 14-48l4 1s117 5 151 20c0 0 43 0 61-7v-1c12 4 19 7 19 7 89 3 136 40 139 42z"/>
   <path class="fil0" d="m4578 5864c-3-2-50-39-139-42 0 0-7-3-19-7-40-13-133-39-207-30l-6 18-4-1c5-16 10-34 16-54 12-18 48-44 48-44 102-97 236-28 236-28 46 49 68 139 76 188z"/>
   <path class="fil3" d="m4560 5536l3 75c-12-12-30-27-57-44 15 9 30 19 41 28l-2-59-246-120-48 41c-6-2-11-3-17-4l69-53c74 32 250 133 256 136z"/>
   <path class="fil3" d="m4453 5261l108 274c-6-3-182-104-256-136 0 0-82-195-94-237 0 0-12-61 59-33 0 0 63 21 87 42 0 0 68 45 96 89z"/>
   <path class="fil1" d="m4458 5537c-20-11-44-23-71-35-1 0-2-1-3-1-25-16-76-29-108-37-8-2-16-5-24-7l48-41 246 120 2 59c-12-9-26-19-41-28 0 0-1 0-1-1-14-9-30-18-48-29z"/>
   <polygon points="4481 9034 4520 9167 4413 9164 4413 9165 4366 9021" class="fil0"/>
   <polygon points="4396 8977 4506 8990 4320 8985 4314 8985 4249 9029 4251 9026 4151 8948" class="fil0"/>
   <path class="fil1" d="m4458 5537c18 10 34 20 48 29-18-11-37-21-54-31l6 2z"/>
   <path class="fil1" d="m4458 5537l-6-2c-30-16-57-29-65-33 27 12 51 24 71 35z"/>
   <path class="fil3" d="m4235 5453c6 1 11 3 17 4l-1 1s10 2 26 6c57 17 108 37 108 37 1 0 2 1 3 1 8 4 35 17 65 33l-98-34c-61-16-87 40-87 40l-102 326v1l-126 49c9 41-31 118-33 122h-1c22-55 27-111 27-111 10-59-23-80-23-80l-37-8c91-310 176-394 176-394v-3l40 3c14 2 29 5 46 9z"/>
   <path class="fil1" d="m4419 5815v1c-19 7-61 7-61 7-34-15-151-20-151-20l6-18c75-9 168 17 207 30z"/>
   <path class="fil0" d="m4396 8977l-245-29 122-19 22 4 22 4s23 6 52 20l27 20z"/>
   <polygon points="3795 8816 4134 8776 4392 8854 4378 8869 4159 8804 4136 8798 3812 8837 3618 9056 3587 9060 3583 9059 3584 9058 3793 8816" class="fil0"/>
   <path class="fil0" d="m4392 8854l-258-78-161-163v-1c60 12 127 31 198 62l-11 8 27 17 205 155z"/>
   <path class="fil1" d="m4159 8804l219 65s-77 29-83 63l-22-4-115-124v-1z"/>
   <path class="fil0" d="m4377 6950c16 52-44 238-44 238-14 81-116 408-116 408-8 11-52 195-52 195-1 3-1 6-2 10h-5l-5-34c-27-205 131-633 131-633l28-55 57-131 6 3z"/>
   <path class="fil0" d="m4320 8987l38 180h-7l-50 13-106 17s-53 53-50 80h-313l9-24 222-27 77-136 100-50 9-11 65-44h6v1z"/>
   <polygon points="4355 5967 4351 5971" class="fil1"/>
   <polygon points="4355 5967 4351 5971 4331 5990 4187 5917 4187 5915 4188 5904" class="fil1"/>
   <path class="fil0" d="m4351 5971l-111 121-72-64c9-39 14-81 18-114h2v3l144 72 20-18z"/>
   <path class="fil3" d="m4298 5110s46 49 58 63c-23-21-87-42-87-42-70-28-59 33-59 33 12 42 94 237 94 237l-69 53c-16-4-32-7-46-9l-40-3c0-21 0-136-26-187 0 0-35-101-35-120 0 0-9-80 42-94 0 0 31-2 49 2l51 13 67 53z"/>
   <path class="fil0" d="m4314 7079l-28 55-253-92s-179-241-207-568c7 40 14 77 23 111 66 275 173 402 173 402 17 28 39 38 39 38 22 12 189 77 189 77 39 17 44-23 44-23l1-4 19 6z"/>
   <path class="fil0" d="m3933 6755c51 108 108 206 108 206 6 13 15 23 23 30 15 13 30 18 30 18l200 63-1 4s-5 41-44 23c0 0-167-64-189-77 0 0-22-9-39-38 0 0-107-127-173-402l18-4c12 52 38 115 67 175z"/>
   <path class="fil0" d="m4032 7041l253 92s-158 429-131 633l5 34h5c-4 29-8 77-11 131h-3l-20 11-166-61c-3-149 19-502 19-502 9-188 50-339 50-339z"/>
   <path class="fil0" d="m4159 8805l115 124-122 19c-97-11-288 47-288 47l-67 69c-103 6-131 60-131 60-27 38-19 153-19 153h-5v-27l-17 2-80-62c-32-35-124-89-130-92 9-21 19-44 31-70l2 1 136 33 3 1 31-5 194-219 324-39 23 7v1z"/>
   <path class="fil1" d="m4252 5457c8 2 16 4 24 7-15-4-26-6-26-6l1-1z"/>
   <path class="fil0" d="m4251 9026l-2 3-9 11-100 50-77 136-222 27-9 24h-36s8-101-12-137c0 0-17-42-49-30 0 0-47 33-50 106 0 0-5 43 0 60h-39s-9-116 19-153c0 0 28-54 131-60l67-69s191-58 288-47l100 78z"/>
   <polygon points="4240 6093 4238 6095" class="fil1"/>
   <path class="fil1" d="m4240 6093l-2 2-20 16-54-62 1-9c1-4 2-7 3-11l72 64z"/>
   <path class="fil0" d="m4238 6095l-109 119c1-9 5-69-74-137l1-1c26 22 49 44 49 44 16 9 30-2 30-2 12-20 22-48 29-78l-1 9 54 62 20-16z"/>
   <path class="fil3" d="m4071 4927l161 129-51-13c-19-5-49-2-49-2-52 14-42 94-42 94 0 19 35 120 35 120 26 51 26 166 26 187l-124-11s-14-152-110-298c0 0-80-131-136-160l127-80c30-16 61 2 61 2l104 32z"/>
   <path class="fil0" d="m3648 8633c-64 95-146 268-202 393-12 26-22 50-31 70-21 47-33 78-33 78l-27-3-2-2c150-375 287-573 287-573 2-1 4-2 6-2 104-38 355 7 355 7 38 6 213 65 219 67l-33 31-27-17 11-8c-72-31-138-50-198-62-190-37-313 4-313 4-4 5-8 11-12 17z"/>
   <path class="fil3" d="m4188 5850h2s-1 27-5 64c-3 33-9 75-18 114l-1-1-1 12c-7 30-17 58-29 78 0 0-14 12-30 2 0 0-23-22-49-44-18-15-36-30-50-38 2-4 42-81 33-122l126-49 20-8s1-4 3-10z"/>
   <path class="fil1" d="m4166 6027l1 1c-1 4-2 7-3 11l1-12z"/>
   <path class="fil0" d="m4150 7933h3c-6 110-10 248-12 313h-4l-144-56s-14-5-37-6v-10l8-291 166 61 20-11z"/>
   <path class="fil3" d="m4150 5441v3s-84 84-176 394c-8-2-38 6-38 6-30 10-62 53-62 53-35 40-42 117-42 117-2 26 3 52 9 71l-31 16c-1 1-2 2-2 3l-1-1c-111-70-120-187-121-208l42-31s52-26 89-94l174-307s16-28 35-33l124 11z"/>
   <path class="fil0" d="m4137 8245h4c-1 23-1 36-1 36-6 186 77 380 80 386-6-2-180-61-219-67-40-65-45-360-45-417 23 1 37 6 37 6l144 56z"/>
   <path class="fil0" d="m3973 8613l161 163-339 40-147-183c4-6 8-12 12-17 0 0 123-41 313-4v1z"/>
   <path class="fil0" d="m4055 6077c79 67 75 128 74 137l-37 40-101 110 13-197c5-36-19-33-19-33l-52-4v-1c12-6 24-16 24-16 22-19 38-48 49-76h1c13 8 32 23 50 38l-1 1z"/>
   <path class="fil3" d="m3992 6363l101-110 3 3c13 23-2 147-2 147-14 133-153 342-160 352-28-60-54-124-67-175-7-30-10-55-6-74l108-118 23-25z"/>
   <path class="fil0" d="m4059 4918l-1 1c-47-33-185-52-185-52-4 1-9 2-13 4l-1-2-237-96-129-91v-2c49 6 178 26 225 54 0 0 185 59 246 108 0 0 87 58 113 88l-6-2-12-9z"/>
   <path class="fil0" d="m4059 4918l12 9-104-32s-31-19-61-2l-127 80-21-1v-2s55-80 102-99c4-2 9-3 13-4 0 0 138 19 185 52l1-1z"/>
   <path class="fil0" d="m4011 5846s33 20 23 80c0 0-5 57-27 111-11 29-27 57-49 76 0 0-12 10-24 16-3 2-6 3-9 4 0 0-15 4-30 4v-1s52-14 85-89c0 0 33-78 31-132 0 0 3-48-35-77l37 8z"/>
   <path class="fil0" d="m4032 7041s-41 152-50 339c0 0-22 353-19 502-47-45-238-339-238-339-39-75-174-350-174-350-42-70-131-66-131-66l-5-1c19-82 39-143 39-143 44-152 178-343 178-343 30-44 93-120 126-158 12-14 20-23 20-23 41-25 45 6 45 6 0 3 1 5 1 8 28 327 207 568 207 568z"/>
   <path class="fil0" d="m3932 6039s38-63 30-149c0 0-3-11-11-20-7-8-19-13-37-4 0 0-34 21-51 59 0 0-34 67-24 110 0 0 0 35 16 49 0 1 1 1 2 1 0 0 40 12 75-46zm42-201c38 28 35 77 35 77 2 54-31 132-31 132-33 75-85 89-85 89v1c-16 0-34-4-40-21 0 0-5-10-11-25-1-2-1-4-2-7-6-19-11-45-9-71 0 0 7-77 42-117 0 0 31-43 62-53 0 0 30-7 38-6z"/>
   <path class="fil0" d="m3915 5132c96 145 110 298 110 298-19 5-35 33-35 33l-174 307c-38 68-89 94-89 94l-42 31v-3l-16-251-96-103c-2 8-12 26-24 43 39-67 66-144 66-144 40-63 30-167 30-167l2-319-196 58c32-16 240-73 240-73l14 33 52 2 21 1c56 28 136 160 136 160z"/>
   <path class="fil0" d="m3986 6134s23-4 19 33l-13 197-23 25-1-1 18-253z"/>
   <path class="fil0" d="m3986 6134l-18 253 1 1-108 118c-4 19-1 44 6 74l-18 4c-8-35-16-72-23-111 0-3-1-5-1-8 0 0-5-31-45-6 0 0-8 9-20 23 0 0 15-143 37-256 12-64 27-118 43-134l3-1c5 16 11 25 11 25 6 17 23 21 40 21 16 0 30-4 30-4 3-1 6-2 9-4v1l52 4z"/>
   <path class="fil0" d="m3964 7883l-8 291v10c-18 0-41 2-67 12 0 0-221 86-235 105 0 0-33 14-22 81l12 210 1 2c-2 1-4 2-6 2 0 0-137 198-287 573l-91-76-3-2-9-7 36-139s12-50 25-104c1-3 1-5 2-8 15-61 31-125 32-127 3-5 33-88 33-88 53-117 73-394 73-394l-14-393c-30-124-50-418-50-418-11-86 8-199 28-287l5 1s89-5 131 66c0 0 134 275 174 350 0 0 191 294 238 339z"/>
   <path class="fil0" d="m3962 5890c8 86-31 149-31 149-35 59-75 46-75 46-1 0-1-1-2-1l2-2 95-212c8 8 11 20 11 20z"/>
   <path class="fil0" d="m3956 8183c1 57 6 352 45 417 0 0-251-45-355-7l-1-2-12-210c-11-67 22-81 22-81 14-19 235-105 235-105 26-10 49-13 67-12z"/>
   <path class="fil0" d="m3951 5870l-95 212-2 2c-16-14-16-49-16-49-10-43 24-110 24-110 17-38 51-59 51-59 18-9 30-4 37 4z"/>
   <path class="fil0" d="m3859 4870l1 2c-47 19-102 99-102 99v2l-52-2-14-33s-30-59-91-108l2-2 19-54 237 96z"/>
   <path class="fil0" d="m3843 6091l-3 1c-16 15-30 70-43 134l-3-1 5-23s-11-68 9-98c1-1 2-2 2-3l31-16c1 2 1 5 2 7z"/>
   <path class="fil3" d="m3806 6104l1 1c-20 30-9 98-9 98l-5 23-7 35-361-242-123-104 1-2c28 19 112 75 164 83 0 0 66 30 106-16l113-84c1 21 10 138 121 208z"/>
   <path class="fil3" d="m3784 9140c20 36 12 137 12 137h-111c-5-17 0-60 0-60 3-74 50-106 50-106 31-12 49 30 49 30z"/>
   <path class="fil0" d="m3795 8816h-2l-210 242v2l-136-33-2-1c56-125 138-298 202-393l147 183z"/>
   <path class="fil0" d="m3685 5892v3l-113 84c-40 47-106 16-106 16-52-8-136-63-164-83l-9-6-112-140 2-1 178 19c61 0 87-56 87-56 12-14 68-99 68-99l148 134 21 129z"/>
   <path class="fil0" d="m3669 5641l16 251-21-129-148-134 1-1c11-14 22-30 31-46 11-18 22-35 24-43l96 103z"/>
   <path class="fil3" d="m3648 4952l-2 319s9 103-30 167c0 0-27 77-66 144-13 20-27 40-31 46 0 1-1 1-1 1s-56 84-68 99c0 0-26 56-87 56l-178-19-87-108s-9-9-11-23h3l181 26c80 14 122-16 122-16 75-52 131-235 131-235 23-52 2-127 2-127l-82-270 6-2v1c1 0 2-1 3-1l196-58z"/>
   <path class="fil0" d="m3642 9250v27h-9v-18h-48l-127-108-42-55c6 3 98 57 130 92l80 62 17-2z"/>
   <path class="fil0" d="m3632 9259v18h-169-3v-29l-78-74s13-30 33-78l42 55 127 108h48z"/>
   <path class="fil0" d="m3622 4773l-19 54-2 2c-48-39-116-72-203-63 0 0-50 2-98 27-24 12-47 29-64 54 22-50 49-96 80-126 0 0 96-61 157-45 0 0 7 1 19 2v2l129 91z"/>
   <path class="fil0" d="m3602 4829c60 49 91 108 91 108s-208 56-240 73l-3 1c-4-7-52-80-97-76 0 0-33 8-64 23l-1-1 15-161-2-3c48-25 98-27 98-27 87-9 154 23 203 63z"/>
   <path class="fil3" d="m3437 5021l7-8 82 270s21 75-2 127c0 0-56 183-131 235 0 0-42 31-122 16l-181-26h-3c-1-7 0-15 3-24l22-38 9-16s77 7 185-176l84 91s19 14 23-14l-91-113s77-136 73-277l42-48z"/>
   <polygon points="3460 9248 3460 9277 3447 9277 3446 9253 3262 9093 3353 9169 3355 9171 3382 9174" class="fil0"/>
   <path class="fil0" d="m3195 5054c-5 4-9 8-13 12 15-33 58-70 58-70 10-15 29-28 49-38 31-15 64-23 64-23 45-5 93 69 97 76l-6 2-7 8c-2-3-42-59-101-50l-115 66-1 1c-9 5-17 11-24 17z"/>
   <path class="fil0" d="m3446 9253l1 24h-234c11-5 20-44 26-85 8-52 12-108 12-108l9 7 3 2 184 160z"/>
   <path class="fil0" d="m3437 5021l-42 48c5 141-73 277-73 277l91 113c-5 28-23 14-23 14l-84-91c-108 183-185 176-185 176l-9 16c-5-5-34-41-47-142 22 57 81 28 81 28 63-42 114-128 114-128 29-50 42-107 48-154 7-52 5-91 5-91-5-68-73-56-73-56-7 2-14 5-20 8l1-1 115-66c59-9 99 47 101 50z"/>
   <path class="fil0" d="m3160 5092l21-24s0-1 1-1c4-4 8-8 13-12l24-17c6-3 13-6 20-8 0 0 68-12 73 56 0 0 2 39-5 91l-14-2c2-15 11-101-43-106 0 0-46-5-97 61 0 0-43 55-65 135v1l-9 4-1-2s43-134 67-162c7-9 11-13 13-16v1z"/>
   <path class="fil0" d="m3188 9167l123-326c-13 54-25 104-25 104l-36 139s-4 56-12 108h-2l-49-24z"/>
   <path class="fil0" d="m3294 5175l14 2c-6 47-19 104-48 154 0 0-50 86-114 128 0 0-59 30-81-28-1-10-2-20-3-31 0-20 2-51 9-72 0 0 2 84 45 99 0 0 41 19 84-52 0 0 83-115 94-197v-2z"/>
   <path class="fil0" d="m3162 5089s-1 0-2 2c3-15 30-137 77-243 17-25 41-42 64-54l2 3-15 161 1 1c-20 10-39 22-49 38 0 0-43 38-58 70-9 10-16 18-20 23z"/>
   <path class="fil0" d="m3251 5069c53 4 45 90 43 106v2c-11 82-94 197-94 197-43 70-84 52-84 52-42-14-45-99-45-99l50-20 1 3s11 69 61 5c0 0 49-66 59-131 0 0 0-75-66-15 0 0-33 36-49 79l-37 19v-1c21-80 65-135 65-135 52-66 97-61 97-61z"/>
   <path class="fil0" d="m3176 5169c66-60 66 15 66 15-9 66-59 131-59 131-50 64-61-5-61-5l-1-3 51-20c14 14 25-7 25-7 21-36 8-62 8-62-25-23-35 8-35 8l-42 21c16-42 49-79 49-79z"/>
   <path class="fil0" d="m3204 5218s13 26-8 62c0 0-11 21-25 7l-2-61s11-32 35-8z"/>
   <polygon points="3169 5226 3172 5287 3121 5307 3071 5327 3071 5275 3081 5270 3090 5266 3127 5247" class="fil0"/>
   <path class="fil5 str0" d="m3160 5092v-1c3-15 30-137 77-243 22-50 49-96 80-126 0 0 96-61 157-45 0 0 7 1 19 2 49 6 178 26 225 54 0 0 185 59 246 108 0 0 87 58 113 88l-6-2-104-32s-31-19-61-2l-127 80-21-1-52-2-14-33s-208 56-240 73c-1 0-2 1-3 1v-1c-4-7-52-80-97-76 0 0-33 8-64 23-20 10-39 22-49 38 0 0-43 38-58 70 0 0 0 1-1 1l-21 24"/>
   <polyline points="3859 4870 3622 4773 3493 4682" class="fil5 str0"/>
   <path class="fil5 str0" d="m3692 4938s-30-59-91-108c-48-39-116-72-203-63 0 0-50 2-98 27-24 12-47 29-64 54l-6 9"/>
   <line y1="4957" x2="3303" x1="3288" y2="4797" class="fil5 str0"/>
   <line y1="4827" x2="3622" x1="3603" y2="4773" class="fil5 str0"/>
   <path class="fil5 str0" d="m3758 4970s55-80 102-99c4-2 9-3 13-4 0 0 138 19 185 52"/>
   <polyline points="3219 5037 3195 5054 3194 5055" class="fil5 str0"/>
   <path class="fil5 str0" d="m3437 5021c-2-3-42-59-101-50l-115 66-1 1"/>
   <path class="fil5 str0" d="m3437 5021"/>
   <path class="fil5 str0" d="m3162 5089s-1 0-2 2c-2 2-6 7-13 16-23 28-67 162-67 162"/>
   <path class="fil5 str0" d="m3162 5089"/>
   <path class="fil5 str0" d="m3160 5092"/>
   <path class="fil5 str0" d="m3160 5092"/>
   <path class="fil5 str0" d="m3160 5092l1-1s1-1 1-2"/>
   <path class="fil5 str0" d="m3071 5327c-7 22-9 52-9 72v22c1 3 2 7 3 10 22 57 81 28 81 28 63-42 114-128 114-128 29-50 42-107 48-154 7-52 5-91 5-91-5-68-73-56-73-56-7 2-14 5-20 8-9 5-17 11-24 17-5 4-9 8-13 12-9 10-16 18-20 23"/>
   <polygon points="3071 5327 3071 5275 3081 5270 3090 5266 3127 5247 3169 5226 3172 5287 3121 5307" class="fil5 str0"/>
   <path class="fil5 str0" d="m3122 5311s11 69 61 5c0 0 49-66 59-131 0 0 0-75-66-15 0 0-33 36-49 79"/>
   <path class="fil5 str0" d="m3071 5327s2 84 45 99c0 0 41 19 84-52 0 0 83-115 94-197v-2c2-15 11-101-43-106 0 0-46-5-97 61 0 0-43 55-65 135"/>
   <path class="fil5 str0" d="m3112 5573l-1-1c-5-5-34-41-47-142-1-10-2-20-3-31 0-5-1-10-1-15"/>
   <path class="fil5 str0" d="m3516 5630s-56 84-68 99c0 0-26 56-87 56l-178-19-87-108s-9-9-11-23c-1-7 0-15 3-24l22-38 9-16s77 7 185-176l84 91s19 14 23-14l-91-113s77-136 73-277l42-48 7-8 6-2 3-1 196-58-2 319s9 103-30 167c0 0-27 77-66 144-10 17-20 32-31 46l-1 1"/>
   <path class="fil5 str0" d="m3444 5013l82 270s21 75-2 127c0 0-56 183-131 235 0 0-42 31-122 16l-181-26"/>
   <path class="fil5 str0" d="m3169 5226s11-32 35-8c0 0 13 26-8 62 0 0-11 21-25 7"/>
   <path class="fil5 str0" d="m3549 5581c11-18 22-35 24-43l96 103 16 251-21-129-148-134 1-1c4-6 18-26 31-46z"/>
   <path class="fil5 str0" d="m3180 5765l2 2 112 140 9 6c28 19 112 75 164 83 0 0 66 30 106-16l113-84 42-31s52-26 89-94l174-307s16-28 35-33c0 0-14-152-110-298 0 0-80-131-136-160"/>
   <path class="fil5 str0" d="m4560 5536l-108-274c-28-45-96-89-96-89-12-14-58-63-58-63l-67-53-161-129-12-9"/>
   <polyline points="4564 5611 4564 5611 4560 5536" class="fil5 str0"/>
   <path class="fil5 str0" d="m4234 5454l1-1 69-53s-82-195-94-237c0 0-12-61 59-33 0 0 63 21 87 42"/>
   <path class="fil5 str0" d="m4560 5536c-6-3-182-104-256-136"/>
   <path class="fil5 str0" d="m3302 5915l123 104 361 242 7-35 5-23s-11-68 9-98c1-1 2-2 2-3l31-16"/>
   <path class="fil5 str0" d="m4165 5867l102-326s26-56 87-40l98 34 6 2h1"/>
   <path class="fil5 str0" d="m3685 5892v3c1 21 10 138 121 208"/>
   <path class="fil5 str0" d="m3974 5838c91-310 176-394 176-394v-3c0-21 0-136-26-187 0 0-35-101-35-120 0 0-9-80 42-94 0 0 31-2 49 2l51 13 4 1"/>
   <path class="fil5 str0" d="m4165 6039c-7 30-17 58-29 78 0 0-14 12-30 2 0 0-23-22-49-44-18-15-36-30-50-38 2-4 42-81 33-122l126-49 20-8s1-4 3-10c3-10 8-27 14-48 5-16 10-34 16-54 25-80 56-177 68-196 0 0 49-45 87-23 0 0 150 73 169 99 0 0 61 47 75 183l9 99 23 16s0-221-61-284c0 0-5-11-25-31-12-12-30-27-57-44 0 0-1 0-1-1-14-9-30-18-48-29-20-11-44-23-71-35-1 0-2-1-3-1 0 0-51-20-108-37-8-2-16-5-24-7-6-2-11-3-17-4-16-4-32-7-46-9l-40-3-124-11"/>
   <path class="fil5 str0" d="m4190 5850s-1 27-5 64c-3 33-9 75-18 114"/>
   <path class="fil5 str0" d="m3974 5838l37 8s33 20 23 80c0 0-5 57-27 111-11 29-27 57-49 76 0 0-12 10-24 16-3 2-6 3-9 4 0 0-15 4-30 4-16 0-34-4-40-21 0 0-5-10-11-25-1-2-1-4-2-7-6-19-11-45-9-71 0 0 7-77 42-117 0 0 31-43 62-53 0 0 30-7 38-6z"/>
   <path class="fil5 str0" d="m3855 6084c0 1 1 1 2 1 0 0 40 12 75-46 0 0 38-63 30-149 0 0-3-11-11-20-7-8-19-13-37-4 0 0-34 21-51 59 0 0-34 67-24 110 0 0 0 35 16 49z"/>
   <line y1="6082" x2="3951" x1="3857" y2="5870" class="fil5 str0"/>
   <path class="fil5 str0" d="m3893 6136s52-14 85-89c0 0 33-78 31-132 0 0 3-48-35-77"/>
   <path class="fil5 str0" d="m3933 6130l52 4s23-4 19 33l-13 197v2"/>
   <line y1="6134" x2="3968" x1="3986" y2="6387" class="fil5 str0"/>
   <path class="fil5 str0" d="m3759 6482s15-143 37-256c12-64 27-118 43-134"/>
   <path class="fil5 str0" d="m4129 6215v-1c1-9 5-69-74-137-14-12-30-23-48-35"/>
   <path class="fil5 str0" d="m4583 5897s-1-13-5-33c-8-49-30-139-76-188 0 0-134-69-236 28 0 0-36 26-48 44 0 1-1 1-1 2"/>
   <path class="fil5 str0" d="m4578 5864c-3-2-50-39-139-42 0 0-7-3-19-7-40-13-133-39-207-30l-6 18s117 5 151 20c0 0 43 0 61-7"/>
   <path class="fil5 str0" d="m3867 6580c-7-30-10-55-6-74l108-118 23-25 101-110 37-40 109-119 2-2 111-121 4-4 5-5s67-83 175-74c0 0 20 3 47 11 21 6 45 15 66 28 17 10 31 22 41 36 0 0 39 38 19 92 0 0-99 303-100 321-2 17-2 27-14 55l-223 517-57 131-19-6-200-63s-15-5-30-18c-8-7-17-17-23-30 0 0-58-98-108-206-28-60-54-124-67-175z"/>
   <path class="fil5 str0" d="m3933 6756c7-10 146-219 160-352 0 0 14-124 2-147"/>
   <path class="fil5 str0" d="m4067 6990s217-558 313-665c0 0 78-86 149-52 0 0 59 11 80 103"/>
   <path class="fil5 str0" d="m4220 8668c-6-2-180-61-219-67 0 0-251-45-355-7-2 1-4 2-6 2 0 0-137 198-287 573"/>
   <path class="fil5 str0" d="m3262 9093l91 76 2 2 27 3s13-30 33-78c9-21 19-44 31-70 56-125 138-298 202-393 4-6 8-12 12-17 0 0 123-41 313-4 60 12 127 31 198 62l-11 8 27 17 33-31"/>
   <path class="fil5 str0" d="m3311 8841c-13 54-25 104-25 104l-36 139 9 7"/>
   <path class="fil5 str0" d="m4294 7077s-5 41-44 23c0 0-167-64-189-77 0 0-22-9-39-38 0 0-107-127-173-402-8-35-16-72-23-111 0-3-1-5-1-8 0 0-5-31-45-6 0 0-8 9-20 23-32 38-96 114-126 158 0 0-135 191-178 343 0 0-20 61-39 143-20 88-39 201-28 287 0 0 20 294 50 418l14 393s-20 277-73 394c0 0-30 83-33 88-2 2-17 66-32 127-1 3-1 5-2 8"/>
   <path class="fil5 str0" d="m4220 8668c-2-6-86-200-80-386 0 0 0-13 1-36 2-64 5-202 12-313 3-55 7-103 11-131 1-3 1-7 2-10 0 0 44-185 52-195 0 0 102-327 116-408 0 0 59-186 44-238"/>
   <path class="fil5 str0" d="m4314 7079l-28 55-253-92s-179-241-207-568"/>
   <path class="fil5 str0" d="m4286 7133s-158 429-131 633l5 34"/>
   <path class="fil5 str0" d="m4032 7041s-41 152-50 339c0 0-22 353-19 502l-8 291v10c1 57 6 352 45 417"/>
   <path class="fil5 str0" d="m4137 8245l-144-56s-14-5-37-6c-18 0-41 2-67 12 0 0-221 86-235 105 0 0-33 14-22 81l12 210"/>
   <path class="fil5 str0" d="m3421 7127s89-5 131 66c0 0 134 275 174 350 0 0 191 294 238 339l166 61 20-11"/>
   <polyline points="4187 8699 4392 8854 4378 8869 4159 8804 4136 8798 3812 8837 3618 9056 3587 9060 3583 9059 3448 9027" class="fil5 str0"/>
   <polyline points="3584 9058 3793 8816 3795 8816 4134 8776 4392 8854" class="fil5 str0"/>
   <line y1="8776" x2="3973" x1="4134" y2="8613" class="fil5 str0"/>
   <polyline points="3795 8816 3795 8816 3648 8633 3648 8633" class="fil5 str0"/>
   <polyline points="3312 8841 3311 8841 3188 9167 3237 9191" class="fil5 str0"/>
   <path class="fil5 str0" d="m3251 9084s-4 56-12 108c-6 41-15 80-26 85h234 13v-29l-78-74"/>
   <polyline points="3447 9277 3446 9253 3262 9093 3259 9091" class="fil5 str0"/>
   <path class="fil5 str0" d="m4378 8869s-77 29-83 63"/>
   <path class="fil5 str0" d="m4159 8805l115 124 22 4 22 4s23 6 52 20l27 20 2 1"/>
   <path class="fil5 str0" d="m3415 9097c6 3 98 57 130 92l80 62 17-2v27h-9v-18h-48l-127-108-42-55z"/>
   <line y1="9277" x2="3632" x1="3463" y2="9277" class="fil5 str0"/>
   <path class="fil5 str0" d="m3646 9277s-9-116 19-153c0 0 28-54 131-60l67-69s191-58 288-47l122-19"/>
   <path class="fil5 str0" d="m3832 9277l9-24 222-27 77-136 100-50 9-11 2-3-100-78 245 29 110 13 28 63 58 131-69-5-3-12-39-134-116-13 47 143 2 5-56-3h-7l-50 13-106 17s-53 53-50 80h-313z"/>
   <polyline points="4249 9029 4314 8985 4320 8985 4506 8990" class="fil5 str0"/>
   <polyline points="4359 9167 4359 9167 4320 8987" class="fil5 str0"/>
   <polyline points="4534 9052 4534 9053 4605 9124 4628 9223 4611 9277 4145 9277" class="fil5 str0"/>
   <polyline points="4599 9185 4597 9187 4589 9198 4628 9223" class="fil5 str0"/>
   <path class="fil5 str0" d="m3796 9277s8-101-12-137c0 0-17-42-49-30 0 0-47 33-50 106 0 0-5 43 0 60"/>
   <polyline points="3793 9204 3780 9205 3782 9235 3795 9233" class="fil5 str0"/>
   <polyline points="3687 9253 3707 9249 3708 9218 3688 9221" class="fil5 str0"/>
   <polyline points="3642 9277 3646 9277 3685 9277 3796 9277 3832 9277" class="fil5 str0"/>
   <polyline points="4413 9164 4520 9167 4521 9167" class="fil5 str0"/>
   <polyline points="4774 5010 4706 5043 4607 5165 4548 5162" class="fil5 str0"/>
   <path class="fil5 str0" d="m4654 5224s-42-38-47-59"/>
   <path class="fil5 str0" d="m4674 5598s-5-163-19-184c0 0-14-20-19 0 0 0 17 168 9 201"/>
   <path class="fil3" d="m4873 5807c9 2 17 5 25 8 0 0 31 8 33 88l-19 446v2c-8-18-42-90-113-102 0 0-95-21-186 152 0 0-2 6-6 15l-7-1 8-45 15-58 57-174 23-77s14-67-11-92c0 0-22-29-52-49 0 0 0-65-1-70 0 0-9-146-38-199 23 27 41 191 41 191s61-36 99-38c0 0 75-13 132 1z"/>
   <path class="fil3" d="m4912 6351c0 13-1 79-12 105 0 0-8 27-5 63 0 0 2 69-17 131l-97 394-17 23s-42 3-53 19c0 0-17 28-3 69 0 0 22 20 29 22 0 0 9 12 1 58 0 0-25 91-36 99l-10-5s43-99 26-138c0-2-1-45-123-54 0 0-69-11-136 48l-177 199 84-331s10-50 8-86h1c8-11 35-26 35-26 18-9 31-30 31-30 28-27 80-172 80-172 14-40 42-170 42-170 11-59 34-124 44-153l6-15c91-174 186-152 186-152 71 11 106 84 113 102z"/>
   <path class="fil0" d="m4872 5649c12 47 2 142 0 157-57-14-132-1-132-1-38 2-99 38-99 38s-17-164-41-191c12-19 64-55 64-55 47-8 183 14 183 14 20 12 23 38 23 38z"/>
   <path class="fil0" d="m4840 5362c2 16 29 230 9 249 0 0-136-22-183-14 0 0-52 36-64 55 0 0-25-38-45-45l2-67-16-67 96-141 16-3 5-1c61-5 150 26 150 26 16 6 25 9 31 10z"/>
   <path class="fil0" d="m4840 5362c-6-1-15-3-31-10 0 0-89-30-150-26l-5 1v-1l1-103c17-46 117-117 132-127 6 37 14 79 23 113l38 148s4 6-7 5z"/>
   <path class="fil0" d="m4774 5010s5 39 12 87c-15 10-114 81-132 127l-1 103v1l-16 3-96 141-87-199s-28-63-108-108c0 0-32-48-49-56 0 0 76 11 90 22 0 0 34 13 51 8 5-1 8-2 9-3 3 0 66 4 103 30l106-157 56-50 61 52z"/>
   <path class="fil3" d="m4599 6416l7 1c-11 29-34 94-44 153 0 0-28 130-42 170 0 0-52 145-80 172 0 0-13 21-31 30 0 0-27 15-35 26h-1c0-6-1-11-2-15l131-313 96-224z"/>
   <path class="fil5 str0" d="m4448 5137c3 0 66 4 103 30l106-157 56-50 61 52s5 39 12 87c6 37 14 79 23 113l38 148s4 6-7 5c-6-1-15-3-31-10 0 0-89-30-150-26l-5 1-16 3-96 141-87-199s-28-63-108-108c0 0-32-48-49-56 0 0 76 11 90 22 0 0 34 13 51 8 5-1 8-2 9-3h1 1"/>
   <path class="fil5 str0" d="m4788 5096s-1 0-2 1c-15 10-114 81-132 127l-1 103"/>
   <path class="fil5 str0" d="m4840 5361v1c2 16 29 230 9 249 0 0-136-22-183-14 0 0-52 36-64 55 0 0-25-38-45-45l2-67-16-67"/>
   <path class="fil5 str0" d="m4872 5809v-2c2-16 11-110 0-157 0 0-3-25-23-38"/>
   <path class="fil5 str0" d="m4602 5652c23 27 41 191 41 191s61-36 99-38c0 0 75-13 132 1 9 2 17 5 25 8 0 0 31 8 33 88l-19 446v2c0 13-1 79-12 105 0 0-8 27-5 63 0 0 2 69-17 131l-97 394-17 23s-42 3-53 19c0 0-17 28-3 69 0 0 22 20 29 22 0 0 9 12 1 58 0 0-25 91-36 99l-10-5s43-99 26-138c0-2-1-45-123-54 0 0-69-11-136 48l-177 199 84-331s10-50 8-86c0-6-1-11-2-15l131-313 96-224 8-45 15-58 57-174 23-77s14-67-11-92c0 0-22-29-52-49 0 0 0-65-1-70 0 0-9-146-38-199z"/>
   <path class="fil5 str0" d="m4913 6355s0-1-2-4c-8-18-42-90-113-102 0 0-95-21-186 152 0 0-2 6-6 15-11 29-34 94-44 153 0 0-28 130-42 170 0 0-52 145-80 172 0 0-13 21-31 30 0 0-27 15-35 26"/>
   <path class="fil5 str0" d="m4884 6614s-2-101-49-137c0 0-52-40-99-20 0 0-49 25-70 103l-63 276-32 156"/>
   <path class="fil5 str0" d="m4496 7010l82-19s158 15 191 52l-4 18"/>
   <path class="fil5 str0" d="m4565 6993s186 53 204 59"/>
   <path class="fil5 str0" d="m4675 7325s46-90 1-120c0 0-60-53-163-6 0 0-68 21-109 57 0 0-33 26-36 29"/>
   <path class="fil5 str0" d="m4151 7941s70-160 52-297"/>
   <path class="fil1" d="m4521 7346l-2-2c7-4 14-9 21-13l-20 15z"/>
   <path class="fil0" d="m4743 7359s27 30 8 63l-84 311c-2-9-9-34-9-34-20-50-88-23-88-23-33 8-89 81-89 81-50 53-310 576-310 576l-30-63 11-338s11-136 16-160c0 0 28-108 56-192 258-214 259-212 288-230 3-2 5-3 8-5l2 2 20-15c25-14 55-26 101-16 0 0 56 5 102 44z"/>
   <path class="fil1" d="m4540 7331c-8 4-15 9-21 13-10-10-59-63-79-115l13-8s39 75 87 110z"/>
   <path class="fil1" d="m4426 7411s-50-36-74-104l12-12s29 70 79 101l-16 15z"/>
   <path class="fil0" d="m4666 7732s2 27-14 55l-300 571s-119 8-181-27c0 0 260-522 310-576 0 0 56-73 89-81 0 0 67-27 88 23 0 0 8 25 9 34z"/>
   <path class="fil5 str0" d="m4170 8332l-30-63 11-338s11-136 16-160c0 0 28-108 56-192 258-214 259-212 288-230 3-2 5-3 8-5 7-4 14-9 21-13 25-14 55-26 101-16 0 0 56 5 102 44 0 0 27 30 8 63l-84 311s2 27-14 55l-300 571s-119 8-181-27z"/>
   <path class="fil5 str0" d="m4170 8332s260-522 310-576c0 0 56-73 89-81 0 0 67-27 88 23 0 0 8 25 9 34"/>
   <path class="fil0 str0" d="m4344 8366l-17 36-80 216-11 116-44-34 33-33s-67-194-72-271l-9-113 27 49s36 31 174 34z"/>
   <polygon points="4221 7589 4287 7365" class="fil1"/>
   <line y1="7589" x2="4287" x1="4221" y2="7365" class="fil5 str0"/>
   <polyline points="4551 5167 4611 5164 4654 5224" class="fil5 str0"/>
   <polyline points="4611 5164 4707 5048 4774 5010" class="fil5 str0"/>
   <path class="fil0" d="m4694 7240c1 10 1 22-2 37 0 0-7 35-15 44l2 1c0 1-1 2-1 3 0 0-50-19-86-12 0 0-56 6-116 61l-93 73-156 128 56-195s108-119 144-140c0 0 61-36 117-53l15-3s74-16 113 15c1 1 3 2 4 3l1 1c6 6 14 17 17 35v1z"/>
   <path class="fil1" d="m4718 7191c16 32-26 137-26 137l-14-6c16-36 18-63 15-82v-1c-3-21-13-32-17-35-2-2-4-4-5-4-24-25-83-21-83-21-14 0-29 4-45 8-79 17-155 79-155 79l69-80c59-56 132-48 132-48 116 13 129 53 129 53z"/>
   <path class="fil5 str0" d="m4694 7240c1 10 1 22-2 37 0 0-7 35-15 44l2 1 14 6s42-105 26-137c0 0-13-40-129-53 0 0-73-8-132 48l-69 80s76-62 155-79"/>
   <path class="fil5 str0" d="m4677 7204c4 3 14 14 17 35"/>
   <path class="fil5 str0" d="m4672 7200c1 1 3 2 4 3l1 1"/>
   <path class="fil5 str0" d="m4543 7187l15-3s74-16 113 15"/>
   <path class="fil5 str0" d="m4678 7321c0 1-1 2-1 3 0 0-50-19-86-12 0 0-56 6-116 61l-93 73-156 128 56-195s108-119 144-140c0 0 61-36 117-53 16-5 31-8 45-8 0 0 59-3 83 21 1 0 2 2 5 4 6 6 14 17 17 35v1c3 19 1 45-15 82z"/>
   <path class="fil1" d="m4536 7332s-55-46-81-105l-15 6s38 74 78 109l18-11z"/>
   <path class="fil1" d="m4439 7396s-48-34-77-99l-9 13s14 50 70 101l16-15z"/>
   <path class="fil1" d="m4359 7463s-56-49-66-91l-7 9s12 56 62 90l12-9z"/>
  </g>
 </g>
</svg>
