<?xml version="1.0" encoding="UTF-8" standalone="no"?>
<!DOCTYPE svg  PUBLIC '-//W3C//DTD SVG 1.1//EN'  'http://www.w3.org/Graphics/SVG/1.1/DTD/svg11.dtd'>
<!-- Creator: CorelDRAW X5 -->
<svg style="shape-rendering:geometricPrecision;text-rendering:geometricPrecision;image-rendering:optimizeQuality" xmlns="http://www.w3.org/2000/svg" fill-rule="evenodd" xml:space="preserve" height="500px" width="500px" clip-rule="evenodd" xmlns:xlink="http://www.w3.org/1999/xlink" viewBox="0 0 12764 16208">
 <defs>
  <style type="text/css">
   <![CDATA[
    .str0 {stroke:#52362A;stroke-width:3}
    .fil6 {fill:black}
    .fil4 {fill:#0A0C0A}
    .fil13 {fill:#0D0B0E}
    .fil12 {fill:#101010}
    .fil8 {fill:#141616}
    .fil20 {fill:#1D1D1C}
    .fil3 {fill:rgb(39, 39, 39)}
    .fil7 {fill:#52362A}
    .fil1 {fill:#5598CD}
    .fil18 {fill:#666666}
    .fil5 {fill:#6BA9D8}
    .fil22 {fill:#6E7171}
    .fil24 {fill:#747479}
    .fil21 {fill:#ADADAD}
    .fil14 {fill:#D4D1D4}
    .fil19 {fill:#D6D6D6}
    .fil23 {fill:#D8DBD9}
    .fil11 {fill:#E8B484}
    .fil17 {fill:#E9EBE9}
    .fil2 {fill:#EC3E35}
    .fil16 {fill:#EFEFEF}
    .fil9 {fill:#F2F4F2}
    .fil15 {fill:#F4F1F1}
    .fil10 {fill:#F6F6F6}
    .fil0 {fill:white}
   ]]>
  </style>
 </defs>
 <g id="Layer_x0020_1">
  <path class="fil0" d="m2939 2620c306-75 569 136 671 319 276 494 247 1141 144 1710-115 633-356 1282-680 1837-34 58-68 94-99 149-207 360-702 939-1210 1047-248 53-508-56-638-235-155-214-252-561-264-865-40-1035 372-2259 954-3067 152-211 301-384 468-538 201-185 386-291 653-356zm263-399c-506 139-478 168-812 427-254 197-670 766-837 1034-593 955-1039 2285-913 3433 72 658 400 1428 1183 1291 600-105 1146-708 1417-1073 750-1012 1280-2581 1135-3813-54-458-242-1026-649-1220-123-59-361-123-524-78z"/>
  <path class="fil1" d="m7652 6516c-50 0-35-2-77-18-32 40-35 52-77 78-46-20-57-29-78-77 67 13 23 8 76 32 20-24 31-37 53-75-24-60-33-29-32-88 54 20 64 65 104 108l20-14c82-70 56-94 119-144 17 36 11 41-32 105-32 47-40 56-76 92zm-1404 682c60 26 648-31 716-62-90-69-626 5-716 62zm249-390c378-16 376-33 718 1-66-55-291-129-382-169l-336 168zm-1241-975c49 40 23 147 108 265 58-16 62-40 101-82 97-106 23-73 102-91-25 120-102 127-142 206 17 43 57 116 94 143 104-55 95-107 167-111-17 52-107 144-182 154-59-40-52-75-94-138-46-71-10-12-65-46-28-18-31-37-58-59-70 52-87 111-191 106-24-48-60-130-66-193-7-74 1-44 25-59 38 66 7 140 77 217 60-24 93-83 140-123l-31-142c-1-87-4-18 15-48zm2968-140c37-31 43-61 53-110 23-106-9-79 40-139 51 83-39 234-65 285 18 46 15 42 50 64 17-32 17-47 31-80 24-55-2-41 60-38l-70 164c-109-16-81-78-145-111-31 65-15 57-62 105-80-11-197-141-224-234 82 37 123 161 208 194 63-94 37-103 24-204 85 43 13 30 100 104zm-1237-184c-8-22-3-38 7-63 23-58 11-42 59-59 0 58-9 103-66 122zm-233 159c-49-7-43-9-83-40-214-165-518-352-756-481-72-39-243-120-269-174 47 4 380 190 455 235l280 169c66 38 347 235 373 292zm1399-713c-70 71-175 121-254 187-49 40-90 54-140 92l-393 272c-56 39-80 54-124 93-42 38-88 76-135 90 47-116 381-317 500-406 58-43 514-341 543-350 27-51 5-32 61-43-19 47-11 35-59 65zm792-501l-21-99c84 24 15 74 103 123 20-55-11-50 36-95 19 54 18 88-20 136-55-7-15-3-34-10-58-20-161-11-193-109l129 54zm34-151c-10-67-50-117-58-183 79 34 96 140 95 224-69-2-138-24-169-68 39-20 62 21 132 27zm-497 114c4-101 71-445 154-463l-114 421c-24 59-19 27-40 42zm614 816c33-162 367-523-10-1062-51-73-95-131-158-198-39-42-36-50-87-99-261-253-278-221-659-212 14 40-17 5 29 37l149 84c32 19 69 39 95 59 49 35 51 53 66 84-65-22-124-80-188-116l-378-209c-72-37-112-78-202-103l7 145c280 11 110 383 64 451l-41 58 129 385c-128-47-82-307-188-356 3 132 16 342-38 440l-394 551c-70 109-126 189-308 140l-120-11c44 66 55 36 110 89-41 26-114-31-154-51-190-99-162 80-408-380-61-113-129-226-175-336-41-97-37-113-29-207 4-49 13-207-12-249-48 69-78 363-155 435-8-13-23 22-9-52 4-25 13-42 19-61 25-79 105-339 111-387 15-132-199-283-43-501l109 47 7-153c-76 2-547 200-631 238-113 52-497 227-578 296-3 108-21 83 78 178 44 42 39 55 76 94 167 175 308 457 297 711-61-104-59-352-291-640l-110-122c-49-52-2-23-55-37l-52 577c184 52 301 62 307 284 90 70 152 9 226 129 14 100-4 205 6 306 13 124 39 167-41 247-59 27-282-58-319-143-17-39-7-32-14-65-20-87 1-35-37-53-90 80 14 202-240 316-35 36 35 148-140 249-117 68-90-29-169 174-31 78-16 84 23 144 193 302 369 446 710 575 106 40 207 82 341 44 360-102 303-73 527-326 80-90 143-118 204-231-45-42-305-171-413-239-99-63-107-61-113-113l816-11c59-43 83-99 126-161 26-37 40-58 63-92 41-61 37-65 74-86 89 71 109 233 216 304 90 27 614-106 720-121-33 115-165 228-239 303l-278 259c39 120 123 210 163 361l184 19c-81 51-95-24-163 25-36 26 20-6-31 22-240-114-580-74-881-66-458 12-553 201-767 192l31-69c-181-13-239 231-814-77-185-100-386-265-492-452-31-54-18-59-63-81-36 105 38 152 88 211 78 93 246 233 352 298 323 198 926 415 1263 302 180-60 343-96 556-98 290-3 137 103 579-23 182-52 318-105 486-179l202-121c57-41 131-115 148-207-51 22-6-13-48 29-23 23-148 205-254 223 19-49 202-209 257-282 39-53 74-92 111-151 360-572 300-908 358-1001 52 30 16 84 7 146 195-1 338-82 445-221 24-31 8-21 48-52z"/>
  <path class="fil1" d="m6290 9348c78 100 172 182 278 266 208 165 423 290 654 427 548 325 285 148 749 334 245 98 936 470 960 637-72-5-53-52-133-86-160 297-133 741 102 887 272 169 553 299 902 226 228-47 507-354 587-577 106-297 13-521-206-716-43-38-34-44-87-52-21 40-43 162-56 205-23 75-42 127-73 191-58 121-137 238-243 279-63 1-308-171-336-240 67 13 235 148 321 187 190-113 318-443 344-732 18-203 17-92-197-317-176-185-304-458-360-707-89-401 50-330-198-591-261-274-820-560-1167-687-112-41-293-116-404-134-114-18-377-1-477 36-159 59-442 356-559 509-106 139-372 508-400 653z"/>
  <path class="fil2" d="m3770 4169c51-477-5-1247-471-1473-251-122-585 1-767 141l-271 224c-77 63-161 163-228 251-23 29-35 34-60 64l-156 215c-308 424-635 1190-757 1705-110 467-81 390-139 835-73 561 70 1318 474 1482 281 114 588-14 769-150 378-282 431-386 716-752 41-52 64-97 96-152 326-565 484-885 657-1554 105-407 94-435 137-835z"/>
  <path class="fil2" d="m1834 4454c37-35 237-436 282-519l215-389c33-56 37-82 81-107 39 59-51 818-48 970l665-37c2 72-196 257-256 328l-448 511c-66 74-34 217-53 337-16 99-23 250-28 352-5 100-38 638-65 688-98-51-254-677-325-807-78 37-530 614-593 669-41 36-47 57-101 65-39-199 445-1385 449-1467 2-34-43-220-54-271-19-95-26-190-33-295 99-24 195-28 310-30z"/>
  <path class="fil2" d="m3004 5242c-113 363-459 1109-715 1371-49 50-46 62-83 102-165 177-471 429-760 364-104-23-159-87-216-153-200-231-194-931-136-1191l39-235c14-146 102-401 118-450 148-439 255-661 468-1048l200-295c37-55 38-42 81-89 163-177 417-465 705-470 466-47 544 943 479 1151 0 194-81 776-180 942z"/>
  <path class="fil1" d="m1110 5973c-14 118-11 241-9 360 17 708 456 964 953 461 174-178 21 0 305-344 170-225 286-439 407-707 103-229 277-705 332-969l54-412c0-3 7-29 13-56 7-130 10-643-126-878-72-143-192-270-396-230-201 39-289 130-412 233-397 332-800 1138-945 1649l-111 400-44 268-22 225z"/>
  <path class="fil3" d="m9768 15205c60 38 109 84 166 131 109 89 412 299 534 349 167 68 541-23 713-104 152-72 128-87 186-110-11 51-18 56-60 82-188 118-641 255-846 169-74-31-117-66-185-109-19-12-32-17-48-28-114-77-295-205-389-292-15-13-27-22-41-36-33-35-20-36-31-52zm-4146-6305c31 63 78 22 149 2l322-105c142-52 128-26 153-85l-623 189zm-244 77c19 10-35 33 96 2 59-14 54 0 74-49-70-5-126 1-171 46zm2274-2460c37-35 44-44 76-92 43-64 49-70 32-105-63 50-36 74-119 144l-20 14c-40-43-50-88-104-108-1 58 8 28 32 88-22 37-34 50-53 75-53-24-10-19-76-32 21 47 32 56 78 77 43-26 46-38 77-78 42 17 27 18 77 18zm572-822c-87-74-15-61-100-104 13 101 39 110-24 204-85-33-127-157-208-194 27 93 144 223 224 234 47-48 31-40 62-105 63 33 36 96 145 111l70-164c-62-3-36-17-60 38-14 33-15 48-31 80-35-22-31-18-50-64 26-51 116-202 65-285-49 60-17 33-40 139-10 49-16 79-53 110zm-2860 405c-86-118-59-225-108-265-19 30-16-39-15 48l31 142c-47 39-80 98-140 123-71-77-39-151-77-217-24 15-32-15-25 59 6 63 42 145 66 193 104 5 121-54 191-106 26 22 29 41 58 59 55 35 19-24 65 46 42 63 35 97 94 138 75-10 165-102 182-154-71 4-63 56-167 111-37-28-77-101-94-143 40-80 117-86 142-206-79 18-5-15-102 91-39 42-43 66-101 82zm4887 7562c-36 114-48 114-27 262 132 100 55 57 134 186 37 61 101 130 148 177 92 93 115 134 152 172l324 325c57 52 115 98 172 153 90 87 212 275 208 456-82 87-138 134-278 185-132 48-227 69-391 91-197 26-341-65-503-187-77-58-350-235-391-321-133-280 29-261-246-572-122-139-103-125-44-461 36-12 12 4 33-2l32-16c-99-200-21-59-94-283-45-139 146-168-1-615-29-87-81-204-96-278 58 12 99 32 157 41 78 12 140-4 214 7 17 73 10 114 21 162 13 59 19 50 26 62 109-10 200-27 287-77 27-246 0-269 117-308-27 163-99 519-57 682 14 54 71 94 103 159zm-1515-1668c125 65 160 178 538 264 290 65 733 44 966-181 86-83 74-39 200-201 64-82 99-150 136-264 18-53 37-107 44-160 10-71-1-115 30-168 137 724-281 1803-1140 1648-269-49-441-318-588-554-58-93-165-273-187-382zm-3710-205c48-136 76-106 114-358 55-363-82-419 84-607 42 36 28 52 36 116 7 52 15 75 16 141 6 228-23 631-251 708zm807-679c-4 52-275 80-325 18 122-17 190 0 315-29l51-35-41 46zm-567-339c23-51 76-146 128-176 68 100 97 281 53 397-37 99-73 318-131 381-32-79 54-288-51-603zm4832-155c86 12 212 126 283 178 44 32 47 21 87 68 137 161 130 253 118 497-19 364-254 608-492 756-273 169-757 143-1055 23-136-55-275-149-341-279-61-120-131-384-62-512 23 138 12 220 86 333 73 111 106 126 219 199 282 182 424 224 753 224 428 0 1170-777 535-1373-49-46-101-57-130-114zm-4354-563c14-33 119-180 145-196 24 47 36 136 63 199 145 337 193 272 105 590-38 136-102 255-177 348-56 70-69 77-172 89-70 8-166 13-219-5-6-56 22-139 31-289l226-7c11-101 51-276-12-348-45-3-119 12-155 3-44-11-11-2-33-22 54-28 150-15 207-28 8-116-46-247-10-334zm-910 1324c39-15 21 19 78-84 36-64 128-246 188-275 43 123 12 564-127 738-61 77-139 159-238 211-82 43-228 147-314 154-301 26-462-34-645-259-124-152 140-251-20-770-235-762-237-499-63-1035 95-291 302-657 460-915 78-128 288-468 376-533 28 20 49 32 77 58 85 75 159 128 253 196 233 167 472 306 718 456 181 110 210 128 456 131-39 181-320 563-439 731l-469 691c-87 130-248 308-292 504zm1455-2029c27-145 294-514 400-653 117-153 400-450 559-509 101-37 363-54 477-36 111 18 293 93 404 134 347 126 906 412 1167 687 248 260 109 190 198 591 55 249 184 522 360 707 214 225 215 115 197 317-26 289-154 619-344 732-86-40-254-174-321-187 28 69 274 241 336 240 106-41 185-158 243-279 30-64 50-116 73-191 13-42 35-165 56-205 52 8 44 14 87 52 219 195 312 419 206 716-80 223-358 530-587 577-349 72-630-57-902-226-235-146-262-590-102-887 80 34 61 81 133 86-23-167-715-539-960-637-463-186-200-9-749-334-230-136-446-262-654-427-105-83-199-165-278-266zm-1345-1278l140 72c4 69-13 67 10 135l53 15c45-45 35-45 46-107l196 50c-3 55-33 143-43 230-130 0-336-81-430-140l27-255zm188 179c-2-3-6-7-7-9s-5-7-6-10c-7-24-4-111 44-158 31 37-6 136-31 177zm722 97c256 8 501-21 730-81 99-26 120-60 166-233 38-140-28-142 216-192-10 73-12 146-23 213-24 148-29 93 13 171-459 287-1340 483-1427 537 25 16-34 16 48 15 57-1 541-146 582-160 206-70 393-156 577-219-28 72-365 289-393 376 76-8 363-268 433-330l261-249c19-20 106-105 129-119 0 0 467-168 551 37-532-45-610 51-931 402-269 295-348 432-534 782-74 139-339 129-505 70-167-59-1104-678-1194-792 15-64 80-124 134-243 2-4 17-37 18-40 12-21 10-14 23-27 161 104 432 253 649 246 148-191 109-390 201-532 120 28 234 0 346 40l-73 326zm-898-328c6-70 28-121 50-170 79 16 156 48 240 70 90 23 164 36 254 57l-97 220c-41-2-118-21-150-35-74-32-18-30-41-114l-65-21-65 77-127-85zm2427-29c15-58 28-55 68-108 21 13 32-10 47 91l-115 17zm-1362 313c0-38 34-144 43-202 20-123 20-99 135-106 109-6 350-70 426-63-6 56-45 188-68 244-20 49-5 28-41 54-57 38-419 85-495 72zm-1291-276c-28-46 1-111 29-146 7 57-1 110-29 146zm2474-10c-122 37-91 86-195 114l38-163 94-25c47 50 2 76 88 25-24-63-12 7-41-66 79-6 79-32 150-63-24 140-18 142-134 177zm-2348 267c-89-18-147-99-190-157-31-42-46-63-47-125-1-136 27-118 32-124 112 65-61 147 93 193 48-40 22-22 48-84l61 29c3 110-18 137 2 267zm-96-443c-95 1 13 18-64 19-16 0-33-5-42-32-11-33 20-93 33-123l259 110c-11 49-53 132-94 158-107-63 3-66-93-134zm2659-4c-41-75-4-76 0-83 10 6 81 3 0 83zm-387-36c48-33 103-51 154-78l116-69c59-17 5-4 29 5 34 113-18 112-60 183l-100-25c-25 69-17 107-130 99l-9-116zm459-113c-58-18-29 6-33-34 38 12 12-11 33 34zm-124-97c84-38 77-108 136-123l4 97c-43 37-48 12-71 50-26 42 8 28-34 69l-34-93zm-1805 338c-32-60-65-293-74-376-11-99-56-319-31-412 81 28 478 95 491 103l-320 125c-33 18-18 11-39 38 164-9 449-180 484-146 48 88-3 600-33 704-102 8-396-9-477-36zm574-684c100-17 262 2 380-9 74-7 292-40 340-33-19 133-262 610-335 705l-421 51c-21-56 24-253 29-330 10-127-13-259 7-385zm112-47c90-57 627-131 716-62-68 31-656 87-716 62zm858-46l39-14c2-6 8-5 11-8 110-5 292-77 395-106-19 62-12 38-56 81-58 57-38 67-112 120-112 81-4-31-126 106-146 164-203 415-313 460-78 32-274 94-352 103 15-54 66-130 91-178 273-528 139-539 421-564zm-1187-166c19-48 16-47 80-63 131-34 99-3 108 4l-188 60zm-415 941c-131-13-362-56-466-122l-175-934c73 28 178 100 254 141 84 46 189 72 267 118 31 94 30 294 51 415l68 381zm-1251-1029c-14-48 7-50 35-69l36 133c-40-22-24-5-53-34-3-3-18-29-19-30zm3134 421c-14-58-7-39 111-152 68-66 73-98 122-156 20-24 349-179 366-180-54 116-125 278-206 355-35 33-219 138-267 153-21 7-41 9-58 17-37 16-25 15-39 27l49 31c-80 98 5 45-168 186-59 48-142 95-225 126 23-70 98-184 136-247 39-64 89-182 180-160zm-555-679c91 40 316 114 382 169-342-33-340-17-718-1l336-168zm-2192 695c-41-30-65-57-97-90-37-39-140-167-155-214-16-51-76-264-65-302 15-51 92-207 128-242 45 29 62 68 114 118l240 223 178 963c-45-12-235-97-259-122-9-9-95-280-98-295 48 22 60 46 121 59-24-59-55-61-106-98zm3248-214c27-65 87-150 120-232 106-259 34-79 128-190 18 122-91 390-249 422zm-1813-997c840 0 539 52 802-286 21-27 15-18 32-31 37 37 62 100 88 147 36 67 53 86 93 134 222 16 490-70 678-115-13 98-383 399-471 501 4 124 142 249 142 371-119-22-366-146-522-210-157-64-218 39-498 165-169 76-213 50-387 85 17-68 300-287 380-442-65-85-465-235-505-321l169 3zm-1434-88c0-46 85-283 107-316 154 149-3 328-107 316zm552-566c25 57 19 122 55 159 8 8 98 73 106 77-99-6-243-143-161-235zm-325 289c-71-81-102-119-67-233 28-89 38-199 82-275 209 36 185 460-15 508zm600-79c-60 15-120-13-165-45-57-39-53-78-65-151-26-166 27-192 47-354 83 21 130 18 180 76 3 86 17 441 3 473zm-585-491c54-21 102 17 112 74l-92-47c-29-22-3 5-20-28zm83-351c384-5 312 481 134 614-67-115 15-220-203-309l68-305zm1335-170c-17-53-48-100-55-159-6-52 9-139 11-202 51 25 95 107 111 155-9 34-25 71-32 107-22 110 13 47-35 99zm-3100-2447c163-45 401 19 524 78 407 194 595 763 649 1220 145 1232-385 2801-1135 3813-271 366-817 968-1417 1073-784 137-1112-633-1183-1291-125-1148 320-2477 913-3433 166-268 582-837 837-1034 334-258 306-288 812-427zm2925 1599c52 43 99 125 84 219-37-33-90-161-84-219zm-19-99c12-56 4-46 45-76 63 32 101 131 62 218l-107-142zm153-527c-85-184-202-257 44-478 2 71-18 57-34 124 3 1 7 4 8 4l15 7c1 1 7 3 11 5-28 79-119 156-59 276 47 95 23 48 15 62zm-3284-965c35-39 19-29 84-57 417-181 919-274 1289 44 87 75 220 204 275 297l112 212c103 205 159 437 203 677 111 603-1 1428-162 2003-110 392-305 935-494 1286-375 699-734 1243-1402 1722-147 106-400 251-589 311-796 252-1293-178-1531-882-31-91-10-57-5-68 111 198 91 248 308 463 45 44 171 123 238 151 571 246 1200-183 1582-560 116-114 116-133 184-203 552-570 1072-1785 1248-2552 172-753 242-1914-235-2528-77-99-111-118-194-193-136-123-385-189-580-186-142 2-211 45-332 63zm6175 4394l27-4-252-184c-52-39-185-150-251-165 31 76 38 24 82 101-71-19-271-215-318-270 12-47 38-108 63-154 28 13 5-4 28 18 40 37 11 47 74 55-19-55-18-9-40-73 83-46 590-59 700-618l-15-32-30 69c-121 331-309 488-699 528l85-339c122-14 223-38 311-90 56-33 171-145 188-208l-8-22c-41 31-24 21-48 52-108 139-250 220-445 221 9-62 45-116-7-146-58 92 2 429-358 1001-37 59-72 98-111 151-55 74-238 233-257 282 106-18 231-200 254-223 41-42-3-7 48-29-17 91-91 166-148 207l-202 121c-168 74-304 127-486 179-442 126-289 20-579 23-213 2-376 38-556 98-337 113-940-104-1263-302-106-65-274-205-352-298-50-60-124-106-88-211 45 22 32 26 63 81 106 187 307 352 492 452 574 309 632 65 814 77l-31 69c214 9 309-180 767-192 301-8 641-48 881 66 51-28-5 4 31-22 68-48 82 26 163-25l-184-19c-40-151-124-241-163-361l278-259c74-75 206-188 239-303-107 15-630 148-720 121-107-71-128-233-216-304-37 21-33 25-74 86-23 34-37 55-63 92-43 62-67 118-126 161l-816 11c6 52 14 49 113 113 107 68 367 197 413 239-61 113-125 141-204 231-223 253-167 224-527 326-133 38-235-4-341-44-341-130-516-274-710-575-38-60-53-65-23-144 79-203 52-106 169-174 174-101 105-213 140-249 254-114 150-236 240-316 39 19 17-33 37 53 8 33-2 26 14 65 37 85 260 170 319 143 80-80 53-123 41-247-10-101 7-206-6-306-74-120-136-59-226-129-7-223-124-233-307-284l52-577c53 14 6-15 55 37l110 122c232 288 229 535 291 640 11-254-130-535-297-711-37-39-32-51-76-94-99-95-81-71-78-178 81-69 465-245 578-296 83-38 555-236 631-238l-7 153-109-47c-157 218 57 369 43 501-5 48-86 308-111 387-6 19-15 36-19 61-13 75 1 39 9 52 77-72 107-366 155-435 26 43 16 200 12 249-8 94-12 110 29 207 46 110 114 223 175 336 246 460 218 282 408 380 40 21 114 77 154 51-56-53-66-24-110-89l120 11v-30c-68-8-298-17-325-27-55-21-308-456-305-526 2-51 20-173 43-214 42 33 17 38 72 52-9-58-35-62-38-78-1-6-4-7-6-11 14-16 6-20 17-39l-8-9c-58-7-24 17-63-35-16-22-21-34-37-56-21-31-49-68-66-104-51-108 25-814 40-947 35-312 24-355 254-435 145-50 480-81 642-36 43 9 73 34 73-27-195-48-856-67-958 187-12 29-11 40-19 74l-29 69c-38-146 47-149 69-265 12-64-13-264-15-346-74 23-40 9-76 91-31 68-156 323-152 363 80 160 158 241 147 469-307 142-625 232-924 388-56 30-251 137-290 136-36-377-38-656-157-1021-205-628-666-1053-1370-960-406 54-701 265-990 492-118 93-376 312-454 427l-135 159c-760 888-1363 2438-1368 3650-3 625 72 1383 530 1830 24 24 40 52 66 73 653 554 1597 16 2013-356 204-182 530-521 697-772 108-162 230-329 317-502l35-46c20 14 11 4 28 22 112 114 219 245 299 382 172 297 113 267 44 529-105 397 247 202-15 572-43 61-79 128-125 185-275 342-539 784-715 1185-72 164-112 288-172 462-118 344 113 612 189 997 45 230-62 349-65 542 56 102 282 328 427 349 78 12 305 14 380 0 54-10 431-235 505-281 388-243 290-429 457-729 74 52 196 66 323 39 206-43 417-580 372-782-13-59-81-204-110-263-165-331-140-289-9-571 67-145 70-120 213-181 64 39 82 77 134 121 225 190 461 369 720 517 52 30 100 64 153 94 396 224 498 213 893 376 175 72 467 256 615 386-160 469-312 488-87 1096 107 290 355 698 551 854 123 98 76 36 137 202 276 760-17 601 83 828 87 196-29 397-33 603-4 215 245 244 257 464 5 95 24 193 54 282 47 143 270 242 383 327 270 200 405 309 756 222 187-47 388-100 508-206 119-105-19-428-86-530-63-96-567-555-712-709-30-32-42-61-74-97-189-214-104-216-235-303 1-45-3-119 5-158 11-57 42-70 17-129-25-58-51-43-77-94-68-135-1-321 14-457 12-108 19-200 25-318 293-186 474-809 479-1169 3-236-41-502-155-661-86-120-309-288-477-356 40-200-91-189-285-428-109-135-188-312-240-500-178-645 92-472-543-942-285-211-640-380-989-495-85-28-205-49-262-109-122-129-193-104-227-143-10-11-58-120-59-124-2-23 35-105 43-138 37-152 14-166 5-303 86-69 222-134 327-197 56-33 99-73 154-109 178-117 156-395 202-583 9-37 159-291 192-350 114 51 221 229 339 260 104 27 116 24 203 90 62 47 121 92 199 122z"/>
  <path class="fil1" d="m4835 11377c44-196 205-375 292-504l469-691c119-168 400-550 439-731-246-3-275-21-456-131-247-150-485-289-718-456-94-67-169-120-253-196-28-25-49-38-77-58-88 65-298 405-376 533-158 259-365 624-460 915-175 536-172 273 63 1035 160 519-103 618 20 770 183 225 344 285 645 259 86-7 232-111 314-154 99-53 177-135 238-211 139-175 171-615 127-738-60 29-152 211-188 275-57 102-39 69-78 84z"/>
  <path class="fil2" d="m2977 2229c120-18 190-61 332-63 195-3 445 63 580 186 82 75 117 94 194 193 477 614 407 1775 235 2528-176 767-696 1982-1248 2552-68 70-68 89-184 203-382 377-1011 806-1582 560-67-29-193-107-238-151-217-214-197-265-308-463-5 11-25-23 5 68 238 704 736 1134 1531 882 189-60 442-205 589-311 667-479 1026-1023 1402-1722 189-351 384-894 494-1286 161-575 273-1400 162-2003-44-240-101-473-203-677l-112-212c-55-93-189-222-275-297-370-318-872-225-1289-44-64 28-49 18-84 57z"/>
  <path class="fil2" d="m10005 14344c29-8 264-48 290-46 95 9 243 290 303 361 145 170 163 192 20 201-164 11-222 32-309 38-42-71-300-505-304-554zm94-3728c29 57 81 68 130 114 634 597-107 1373-535 1373-328 0-471-43-753-224-113-72-145-88-219-199-75-113-63-195-86-333-68 128 2 392 62 512 66 130 205 225 341 279 298 120 782 146 1055-23 238-148 473-393 492-756 13-244 19-336-118-497-40-47-42-36-87-68-71-52-196-166-283-178zm-1362 1377c23 109 129 289 187 382 147 237 319 506 588 554 860 156 1278-924 1140-1648-31 53-19 97-30 168-8 54-27 107-44 160-38 114-72 182-136 264-126 163-115 119-200 201-233 225-677 247-966 181-378-86-413-199-538-264zm1051 1674c429-22 225-102 291 241l177 93c-43 28-84-31-154-24 18 86 70 55 68 144-336 19-226 111-348-80-10-15-13-16-21-25-102 70-78 101-150 104 14-70 93-97 133-151l4-303zm7-62c-13-59-29-292 23-316 1 0 256-72 264-72l-3 336c-76 58-185 67-285 52zm456 56c-32-65-89-105-103-159-42-163 30-519 57-682-117 39-90 62-117 308-87 50-179 67-287 77-7-12-13-3-26-62-11-48-4-89-21-162-74-11-136 5-214-7-58-9-99-29-157-41 16 74 68 191 96 278 147 447-44 476 1 615 73 225-5 83 94 283l-32 16c-20 6 3-10-33 2-59 336-79 322 44 461 275 311 113 292 246 572 41 86 314 263 391 321 162 123 305 214 503 187 164-22 259-43 391-91 140-51 196-99 278-185 4-182-118-370-208-456-57-55-115-101-172-153l-324-325c-37-38-60-80-152-172-47-47-111-116-148-177-79-129-1-86-134-186-21-148-9-148 27-262z"/>
  <path class="fil1" d="m5378 8977c44-46 100-51 171-46-20 49-15 35-74 49-131 30-78 7-96-2zm868-266c-25 60-10 34-153 85l-322 105c-70 20-118 61-149-2l623-189zm-391-364l73-326c-112-40-226-13-346-40-92 142-53 341-201 532-218 7-488-143-649-246-13 13-10 6-23 27-1 2-16 35-18 40-53 119-119 179-134 243 90 114 1027 733 1194 792 166 59 431 69 505-70 186-350 265-487 534-782 320-351 398-447 931-402-85-205-551-38-551-37-23 14-110 98-129 119l-261 249c-70 62-358 323-433 330 28-87 365-303 393-376-184 63-370 149-577 219-41 14-525 159-582 160-82 1-23 1-48-15 87-54 968-250 1427-537-42-78-37-23-13-171 11-68 13-140 23-213-245 50-179 52-216 192-46 173-67 207-166 233-229 60-474 89-730 81z"/>
  <path class="fil3" d="m9393 5631l14-241c17-40 507-273 642-108-53 31-131 29-196 47-338 93-372 255-459 302zm-413-1327c-70-7-93-47-132-27 31 44 99 67 169 68 0-85-16-190-95-224 9 67 48 116 58 183zm-34 151l-129-54c32 98 135 89 193 109 19 7-21 3 34 10 39-49 39-82 20-136-47 46-16 41-36 95-89-49-20-99-103-123l21 99zm-463-37c21-15 15 16 40-42l114-421c-83 18-150 363-154 463zm-329 537l-2-22c-29 9-485 307-543 350-120 89-454 291-500 406 47-14 92-52 135-90 44-39 68-54 124-93l393-272c50-37 91-51 140-92 80-66 184-116 254-187zm-1399 713c-26-57-307-254-373-292l-280-169c-76-45-409-231-455-235 26 55 198 136 269 174 238 129 542 316 756 481 40 31 34 33 83 40zm483-1435c22-24-23-9 50-30 74-21 25 12 72-33 78-4 105-93 105-162l100 15c-33 90-66 107-122 166-111 115-62 49-205 43zm105-87l-10-17c42-54-10-62 89-72-11 63-26 70-79 89zm-96-11l25 33c-24 22-79 35-93 13 23-37 9-37 68-45zm288 326c33-49 84-173 150-206-1 110 3 303-63 372-29-34-67-131-87-166zm68-181c-13 29-52 104-79 129-23 21-10 12-46 25 4-57 68-135 114-165 24-43-3-25 42-38l-31 49zm-859-128c-15 16 22 12-38 31-30 9-99 0-125-10-112-41-98-68-106-86 96-14 78 7 121 65 102 4 97-33 148 1zm-241 113c-44-73-108-111-126-221l79 8c-55 99 139 156 240 160-36 27-30 23-93 39-47 12-47 14-100 14zm1245-149c-11-72 0-140 25-199 14-33 27-54 44-79 37-56 33-43 62-59-7 128-54 290-131 337zm15-278c-9-93 8-236 95-119-16 27-69 102-95 119zm-1163-753c111-11 698-42 756 18 36 38 98 621 99 709-4 2-8 5-11 6s-8 4-11 5c-123 56-134 125-228 173l-42-319-390-2c-29 86-36 197-51 303-91-7-122-104-240-126l119-768zm1269-139c-23 44-45 82-58 133-22-25-15-9-31-50l-53-128c-12-27-22-163-23-185 37 19 144 169 165 230zm-102-227c-17-10-30 7-46-44-17-54 8-43 9-45 31 33 21-2 37 89zm-486 69c0 60-31 36-73 27 121 10 313 60 376 122 143 140 155 653 132 833-33 265 30 207-61 430-94-75-54-169-54-182-186-105-311 82-439 115 16-32 100-125 124-147l135-132 209 75c24-173-24-431-89-592-30-74-44-67-115-104l-27-142c-131-75-601-76-752-52-120 19-87 51-103 177-170 66-144 105-196 308-28 108-76 327-37 423 233 5 75-148 361 57 41 29 38 33 73 66 48 45 35 13 59 73-188-46-194-147-459-122-27 144-56 69-70 131 11 126 120 172 163 277l8 9c48-4 216-91 272-122 150-80 308-235 274-26-10 60-12 61 0 116 34-36 11 13 26-38l25-128c67 2 375 175 428 222-18 73-27 21-31 88 47-12 28-19 79-49l67 176c-45 85-191 264-258 357-121 169-82 234-341 247v30c182 49 238-31 308-140l394-551c54-98 41-307 38-440 106 49 61 309 188 356l-129-385 41-58c46-69 216-440-64-451l-7-145c89 25 130 66 202 103l378 209c65 37 123 94 188 116-16-30-18-48-66-84-27-19-63-40-95-59l-149-84c-46-32-15 2-29-37 381-8 398-41 659 212 50 49 48 57 87 99 63 67 107 125 158 198 377 539 43 900 10 1062l8 22c73-49 76-174 140-220 32 63-1 188 5 260l15 32c19-25 14-73 20-94 19-72 2-21 26-50 76 224 79 467-63 656-57 76-113 166-223 195-113 29-331 6-361 20 99 57 292 50 402 4 138-58 182-188 259-224-55 273-8 480 145 691 37 50 104 102 141 144-167 29-365-48-431-51l-27 4c96 117 642 100 835 107 142 5 839 46 902-10l-65-11c-108-18-163 13-273 0-134-16-548-18-720-25-77-3-75 0-114-46 29-47 163-28 285-28 47 0 237-19 247 15l-496 2c-103-10-43-6-69-32-7-23 3-4-11-29-97-165-203-281-195-545 4-141 159-427 289-497 87-47 361-131 466-123 133 10 450 407 591 389-7-30 91-14 120-10-239-11-241-84-374-187-103-80-213-181-329-243-217-116-309-298-842-19l-13-21-50-169c-29-78-54-123-82-186 173-482-158-871-372-1092-437-451-588-113-880-279-64-36-215-115-251-148 1-252 79-319 158-491-70-132-113-286-166-387-35-68-1-26-49-50-106 456 134 485 19 608-5-12-4-7-11-33-3-10-5-24-8-39-45-171-260-219-414-256z"/>
  <path class="fil0" d="m2324 4442c-14-107 48-670 52-866l-25 18c-76 81-444 875-473 891-105 13-228 11-305 37 7 253 80 496 76 543-3 42-266 780-306 897-44 131-113 328-136 469 51-21 11 7 51-43l118-145c44-56 452-523 491-539 60 81 204 658 280 753 3-5 12 12 18-76l41-572c90-599-99-426 259-812 34-36 41-54 83-102l289-330c22-25 14-29 37-56 42-50 49-19 82-97l-633 31z"/>
  <path class="fil0" d="m6076 6123l-169-3c40 86 440 236 505 321-80 155-363 374-380 442 174-36 218-9 387-85 280-126 341-229 498-165 156 64 403 188 522 210 1-122-138-247-142-371 88-102 457-403 471-501-187 45-455 131-678 115-40-49-56-68-93-134-25-47-50-110-88-147-17 13-12 4-32 31-263 338 37 286-802 286z"/>
  <path class="fil4" d="m10962 6689c17-16-10-13 30-21 54-11 123 8 147 21-13 6 9 7-39 14-42 6-100-1-139-14zm455-537c22-228 222-171 426-210 58 12 285 257 333 345-28 86-104 197-163 226-62-58-41-93-78-180-31-74-63-106-102-160-80-109-239-65-416-21zm167-232c69-40 228-77 306-22-38 29 10 17-80 8-128-13-167 41-227 14zm-76-7c2-60 23-108 56-147 120 41 220 79 244-56 10-54-5-28 20-71 164-54 292 124 359 195 78 83 101 106 103 191 2 92-29 185-102 222-52-114-161-267-245-340-61-53-119-80-224-66-113 15-149 58-212 72zm536-323c21 63 39 42 75 109-44-34-60-63-116-83-68-24-82 7-144-38 99-22 103 1 185 12zc-40-50-137-54-206-43 28-210 68-256 299-247 1 0 445 390 170 609-73-78-120-280-263-319zm-483 130c2-333 77-466 73-615 103 16 179 59 257 94-20 93-60 165-85 266-65 262-4 328-158 287-26-7-70-24-88-31zm-17 707l-10 72c-114 52-73-5-78-11 111-21 35-2 68-40l-115-29c8-100 41-59 110-68 71-9 24-3 42-18-32-14-91-16-131-9-64 12-48 35-66 84-162-125 116-235 389-231 40 86 209 342 220 373-25 41-24 41-59 71-90 75-89 104-265 65-142-32-329 8-486-32l-94-99c-11-99 103-485 186-547 50-38 117-37 134-102-64-10-47 7-102 35-45-71-73-262-75-364 110-101 257-270 330-410 30-58 7-37 59-58-11 158-61 260-76 483 0 7-3 40-5 45-7 27-9 21-16 32-65-105 57-303 15-394-67 43-81 296-71 377 7 55 27 65 63 95-28 88-52 82-46 216-60 92-91 72-95 241-57 48-153 102-62 215 58 72 130 124 251 123 41 64 26 87 100 106-20-62-48-86-68-167-11-47-2-40-27-77-54 51 23-51-21 23zm-598-645c-29-4-128-20-120 10 27 47 145 10 258 77l-42 98c-7 77-4 15 13 38 74-61 48-151 124-203 32 40 56 128 63 179-158 100-153 334-236 522 36 92 77 89 105 151-277-4-181-43-273-92-17 35 2 46 6 70-170 15-379-23-547-28-206-6-406 5-611-7 26 26-34 22 69 32l496-2c-10-34-201-15-247-15-122 0-256-19-285 28 385-41 788 32 1170 30-4 3-9 3-11 9-10 30 1 1-33 21l-10 5c-2 1-6 3-9 5l65 11c74 8 109 19 196 19 64 0 159-14 217-7 130 16 255 28 402 19 176-11 188-38 273-144 71-89 139-98 203-214 34-61 1-32 72-129 37-50 60-73 77-143s-9-117 15-182c15-39 60-85 82-134 84-189-174-443-257-538-115-14-180 15-259 12l29-88c-105-70-221-122-375-134-38 38-81 116-111 161-80 119-154 203-253 304-78 79-22 128-25 225l-88 66-141-29z"/>
  <path class="fil1" d="m6438 4430c-43-105-152-151-163-277 14-62 43 13 70-131 265-25 272 76 459 122-24-60-10-28-59-73-35-32-32-36-73-66-286-206-128-52-361-57-40-96 9-315 37-423 52-203 26-242 196-308 15-125-17-157 103-177 151-24 621-23 752 52l27 142c71 37 85 30 115 104 65 162 112 419 89 592l-209-75-135 132c-24 21-108 115-124 147 129-33 253-220 439-115 0 13-39 107 54 182 91-223 28-165 61-430 22-180 11-693-132-833-63-61-255-111-376-122-162-45-497-14-642 36-231 80-219 123-254 435-15 134-90 840-40 947 17 36 44 74 66 104 15 22 20 34 37 56 39 52 6 28 63 35z"/>
  <path class="fil5" d="m9264 5328c-110 559-617 573-700 618 23 64 21 18 40 73-63-8-34-18-74-55-23-21 0-4-28-18-25 47-51 108-63 154 47 55 247 251 318 270-44-77-51-25-82-101 66 15 199 126 251 165l252 184c66 3 265 80 431 51-37-42-104-94-141-144-153-211-200-417-145-691-77 36-121 166-259 224-110 46-303 53-402-4 30-14 248 9 361-20 110-29 166-119 223-195 142-189 140-432 63-656-25 30-7-22-26 50-6 21-1 69-20 94z"/>
  <path class="fil0" d="m6812 3494c-19-70 3-164 28-215 262-30 292 12 300 230l-329-16zm-212-408l-119 768c119 21 149 119 240 126 16-106 22-217 51-303l390 2 42 319c94-48 105-117 228-173 3-1 9-4 11-5 3-1 7-4 11-6 0-89-62-672-99-709-58-60-645-29-756-18z"/>
  <path class="fil3" d="m3770 4169c-42 400-31 428-137 835-173 669-331 988-657 1554-31 54-55 99-96 152-285 366-338 471-716 752-182 136-488 263-769 150-405-163-547-921-474-1482 58-445 29-368 139-835 122-515 449-1281 757-1705l156-215c25-30 38-35 60-64 68-88 152-188 228-251l271-224c181-140 515-263 767-141 466 226 521 996 471 1473zm-2675 1567c-58 260-64 960 136 1191 57 66 112 129 216 153 289 65 595-188 760-364 38-40 35-52 83-102 256-262 601-1008 715-1371 99-166 180-748 180-942 65-208-12-1198-479-1151-288 4-542 292-705 470-43 47-45 34-81 89l-200 295c-213 387-320 608-468 1048-17 49-104 303-118 450l-39 235zm1230-1294l633-31c-32 78-39 47-82 97-23 27-15 31-37 56l-289 330c-42 48-49 66-83 102-357 386-169 213-259 812l-41 572c-5 89-14 71-18 76-76-95-220-672-280-753-38 15-446 483-491 539l-118 145c-40 50 0 22-51 43 23-142 92-338 136-469 39-117 303-855 306-897 3-48-70-290-76-543 76-26 200-24 305-37 29-16 398-810 473-891l25-18c-5 196-67 759-52 866zm-491 12c-115 2-211 6-310 30 7 105 14 200 33 295 10 51 55 237 54 271-4 82-489 1268-449 1467 54-8 59-29 101-65 63-55 515-632 593-669 71 130 227 756 325 807 27-50 60-589 65-688 5-102 13-253 28-352 19-120-14-263 53-337l448-511c59-71 257-256 256-328l-665 37c-3-152 88-912 48-970-45 25-49 50-81 107l-215 389c-44 83-245 484-282 519zm1332-148c-7 27-13 54-13 56l-54 412c-56 264-229 740-332 969-121 269-237 482-407 707-284 344-131 166-305 344-497 503-936 248-953-461-3-120-5-243 9-360l22-225 44-268 111-400c145-510 548-1317 945-1649 123-103 211-194 412-233 205-40 324 87 396 230 136 235 133 748 126 878zm-226-1687c-267 65-453 171-653 356-166 154-316 327-468 538-582 808-994 2032-954 3067 12 304 109 651 264 865 129 179 389 288 638 235 507-108 1003-687 1210-1047 32-55 66-92 99-149 323-555 565-1203 680-1837 103-569 131-1215-144-1710-102-183-365-394-671-319z"/>
  <path class="fil0" d="m5563 7930c82 27 375 45 477 36 30-105 81-617 33-704-35-34-320 137-484 146 21-27 7-20 39-38l320-125c-13-8-411-75-491-103-25 93 20 313 31 412 9 83 43 316 74 376z"/>
  <path class="fil2" d="m6137 7246c-19 125 3 257-7 385-6 76-50 274-29 330l421-51c72-95 315-572 335-705-48-7-266 26-340 33-119 11-280-8-380 9z"/>
  <path class="fil2" d="m5039 7806c104 66 335 109 466 122l-68-381c-21-121-20-321-51-415-78-46-183-73-267-118-77-41-182-114-254-141l175 934z"/>
  <path class="fil0" d="m4747 7433c-61-13-73-37-121-59 3 15 89 286 98 295 24 25 214 111 259 122l-178-963-240-223c-51-50-68-89-114-118-36 35-112 191-128 242-11 38 49 251 65 302 15 47 118 175 155 214 31 33 56 60 97 90 51 37 82 39 106 98z"/>
  <path class="fil0" d="m7157 7131c41 79 39-10 82 86-64-9-69-18-132-64-282 25-148 36-421 564-25 48-77 124-91 178 77-9 274-71 352-103 109-45 166-296 313-460 122-137 14-25 126-106 73-53 53-63 112-120 43-42 36-18 56-81-103 29-285 101-395 106z"/>
  <path class="fil6" d="m10005 14344c4 50 263 483 304 554 87-6 145-27 309-38 143-9 125-32-20-201-60-70-208-351-303-361-25-2-260 38-290 46z"/>
  <path class="fil5" d="m9105 5256c-17 63-132 175-188 208-89 53-189 76-311 90l-85 339c390-40 578-197 699-528l30-69c-6-72 27-197-5-260-64 46-67 171-140 220z"/>
  <path class="fil2" d="m7388 7320c-91-21-141 96-180 160-38 63-114 177-136 247 83-32 167-78 225-126 173-140 87-88 168-186l-49-31c14-12 2-11 39-27 17-7 37-10 58-17 48-15 232-120 267-153 81-77 152-239 206-355-17 1-346 157-366 180-49 57-53 90-122 156-117 113-124 93-111 152z"/>
  <path class="fil7" d="m6022 8302c76 12 439-34 495-72 36-25 21-4 41-54 23-56 62-188 68-244-76-7-318 56-426 63-114 7-115-18-135 106-9 57-43 163-43 202z"/>
  <path class="fil6" d="m9788 13667l-4 303c-39 54-119 80-133 151 72-3 48-34 150-104 8 9 11 10 21 25 122 191 12 99 348 80 2-89-50-58-68-144 70-7 111 52 154 24l-177-93c-66-344 138-263-291-241z"/>
  <path class="fil2" d="m11560 5720c18 7 62 24 88 31 154 41 93-25 158-287 25-101 65-173 85-266-78-34-154-78-257-94 3 149-71 283-73 615zm-37 728c-33 38 44 19-68 40 5 6-36 63 78 11l10-72c44-75-34 28 21-23 25 37 16 30 27 77 20 81 47 105 68 167-74-20-59-42-100-106-121 1-192-51-251-123-91-113 5-167 62-215 3-169 35-149 95-241-6-134 18-128 46-216-36-29-56-39-63-95-10-81 3-333 71-377 42 91-81 289-15 394 7-11 9-5 16-32 1-6 4-38 5-45 15-223 65-325 76-483-51 20-29 0-59 58-73 140-220 308-330 410 2 102 31 292 75 364 56-28 38-44 102-35-17 66-83 65-134 102-83 62-197 448-186 547l94 99c157 40 344 1 486 32 175 39 175 10 265-65 35-30 34-30 59-71-11-31-180-286-220-373-273-3-551 107-389 231 18-48 2-72 66-84 40-7 98-5 131 9-17 14 29 9-42 18-69 9-103-32-110 68l115 29zm-561 241c38 13 97 20 139 14 48-7 26-8 39-14-24-13-93-31-147-21-41 8-14 5-30 21zm-1277-92c205 12 405 2 611 7 168 5 377 43 547 28-4-24-23-35-6-70 91 49-4 89 273 92-29-62-69-59-105-151 83-188 78-422 236-522-7-51-31-139-63-179-75 52-50 141-124 203-17-24-19 38-13-38l42-98c-114-67-231-30-258-77-141 18-458-378-591-389-105-8-379 76-466 123-130 70-284 356-289 497-8 264 98 380 195 545 14 25 4 6 11 29zm1139 113c3-2 7-4 9-5s7-4 10-5c34-20 23 8 33-21 2-6 8-6 11-9-382 2-785-71-1170-30 39 46 37 42 114 46 171 8 585 10 720 25 110 13 165-18 273 0zm916-118c48 102 16 73 9 88-45-17-15 10-37-33-4-7-109-269-113-305 53 28 45 15 59 85 19 100 32 60 82 165zm-324-440c177-44 335-88 416 21 39 53 71 86 102 160 36 87 15 122 78 180 59-29 135-140 163-226-48-88-274-334-333-345-204 40-403-18-426 210zm91-240c64-15 99-57 212-72 105-14 162 13 224 66 84 73 192 226 245 340 73-37 104-131 102-222-2-85-25-108-103-191-68-72-196-249-359-195-26 43-11 17-20 71-24 135-124 98-244 56-34 39-55 87-56 147zm76 7c59 28 99-27 227-14 89 9 42 21 80-8-78-55-237-19-306 22zm459-330c-82-10-86-33-185-12 63 45 76 15 144 38 56 19 72 49 116 83-35-68-54-47-75-109 142 39 190 241 263 319 275-219-169-609-170-609-231-9-271 37-299 247 69-11 166-6 206 43z"/>
  <path class="fil2" d="m5470 5680c14-33 0-388-3-473-49-59-96-56-180-76-20 162-73 188-47 354 11 73 8 112 65 151 45 31 105 60 165 45z"/>
  <path class="fil7" d="m4956 8018l127 85 65-77 65 21c23 83-33 81 41 114 32 14 109 33 150 35l97-220c-90-22-164-34-254-57-85-22-161-54-240-70-22 48-44 100-50 170z"/>
  <path class="fil7" d="m4918 8325c94 59 300 140 430 140 9-87 40-176 43-230l-196-50c-12 63-1 63-46 107l-53-15c-23-68-7-66-10-135l-140-72-27 255z"/>
  <path class="fil6" d="m9796 13605c100 15 209 6 285-52l3-336c-8 0-263 72-264 72-52 24-36 257-23 316z"/>
  <path class="fil5" d="m9393 5631c87-47 122-209 459-302 65-18 144-17 196-47-135-164-625 68-642 108l-14 241z"/>
  <path class="fil0" d="m6867 4741c45-16 34-11 43 30-91-5-24-10-43-30zm-187-56l118 52c-86 50-36-29-153-32-10 62 17 74 48 111 74 7 134-1 207 13 170 31 182 37 270-30 44-33 50-30 69-74-101-81-53 60-160 15 38-42 53-24 75-77-71-25-150 33-259 24-99-8-182-93-216-3z"/>
  <path class="fil6" d="m6812 3494l329 16c-9-218-38-260-300-230-25 50-47 144-28 215z"/>
  <path class="fil8" d="m6646 4705c117 3 66 82 153 32l-118-52c33-90 117-5 216 3 109 9 188-49 259-24-22 53-37 36-75 77 107 45 59-97 160-15-19 44-25 41-69 74-88 67-100 60-270 30-73-13-133-6-207-13-30-37-58-49-48-111zm-51 35c80 157 166 99 356 132 118 21 249 28 336-132-27-71-82-95-159-129-128 17-172 74-300 27-135-50-195-24-232 102z"/>
  <path class="fil2" d="m9768 15205c11 15-2 16 31 52 13 14 26 23 41 36 94 87 275 215 389 292 16 11 30 16 48 28 68 43 110 78 185 109 205 87 658-51 846-169 43-27 49-31 60-82-58 23-34 38-186 110-172 81-546 172-713 104-122-49-425-259-534-349-58-47-107-93-166-131z"/>
  <path class="fil7" d="m4857 8284c-20-130 0-157-2-267l-61-29c-26 62 0 43-48 84-154-47 19-128-93-193-5 6-34-12-32 124 1 62 15 82 47 125 43 58 101 139 190 157z"/>
  <path class="fil7" d="m7033 7802l9 116c113 7 106-30 130-99l100 25c43-72 94-70 60-183-24-9 30-22-29-5l-116 69c-51 27-106 45-154 78z"/>
  <path class="fil7" d="m4762 7841c96 68-14 70 93 134 40-26 83-110 94-158l-259-110c-13 30-44 89-33 123 9 27 25 32 42 32 77-1-31-19 64-19z"/>
  <path class="fil0" d="m7889 7121c157-32 266-300 249-422-94 111-23-69-128 190-34 82-93 167-120 232z"/>
  <path class="fil7" d="m7189 7903c29 73 16 4 41 66-85 50-40 25-88-25l-94 25-38 163c103-28 73-77 195-114 116-35 110-38 134-177-71 32-71 57-150 63z"/>
  <path class="fil2" d="m4642 6036c104 12 261-167 107-316-22 33-107 270-107 316zm257-893c218 90 135 194 203 309 178-133 250-618-134-614l-68 305zm-14 46c17 33-9 5 20 28l92 47c-10-57-58-95-112-74zm-15 570c200-48 224-472 15-508-44 76-54 186-82 275-36 114-4 152 67 233z"/>
  <path class="fil9" d="m6261 3193c8-15 31 32-15-62-60-121 32-197 59-276-4-2-9-4-11-5l-15-7c-1-1-6-3-8-4 17-67 36-53 34-124-246 221-129 294-44 478z"/>
  <path class="fil10" d="m7812 3080c12-51 35-88 58-133-21-61-129-211-165-230 1 22 11 158 23 185l53 128c16 41 9 25 31 50z"/>
  <path class="fil11" d="m7360 4172c-48 45 1 12-72 33s-28 6-50 30c143 6 95 71 205-43 56-58 89-76 122-166l-100-15c0 69-27 158-105 162z"/>
  <path class="fil12" d="m7078 4497c-102 16-34 59-152 71-76-39-36-67-120-74 46 157 256 146 272 3z"/>
  <path class="fil13" d="m6720 4957c50 29 75 8 176 28 73 14 118 32 170 3-36-44-61-22-160-41-38-7-48-11-88-12-110-4-87 14-98 22z"/>
  <path class="fil8" d="m11749 6679c7-14 39 14-9-88-50-105-63-65-82-165-13-70-6-58-59-85 4 35 109 297 113 305 23 44-7 16 37 33z"/>
  <path class="fil7" d="m7369 7592l34 93c42-41 8-27 34-69 24-39 28-13 71-50l-4-97c-59 15-52 85-136 123z"/>
  <path class="fil2" d="m5834 11109l-10-11c-125 29-192 13-315 29 50 62 321 34 325-18zm-807 679c227-77 257-480 251-708-2-66-10-89-16-141-8-64 6-80-36-116-166 188-30 244-84 607-38 252-66 222-114 358zm240-1017c105 314 19 524 51 603 57-64 94-282 131-381 44-116 14-297-53-397-52 30-105 125-128 176zm488-383c-57 13-153 0-207 28 22 20-11 12 33 22 36 8 109-6 155-3 63 72 23 247 12 348l-226 7c-10 150-37 233-31 289 54 17 149 13 219 5 103-12 116-19 172-89 75-93 139-213 177-348 88-317 40-253-105-590-27-63-39-152-63-199-26 17-132 163-145 196-36 87 18 218 10 334z"/>
  <path class="fil14" d="m6744 4153c-51-33-46 3-148-1-43-58-25-78-121-65 7 18-6 45 106 86 26 10 96 19 125 10 59-18 23-14 38-31z"/>
  <path class="fil2" d="m5356 5705c-8-4-99-69-106-77-36-36-30-102-55-159-81 92 62 229 161 235z"/>
  <path class="fil11" d="m6211 4039c15-94-32-177-84-219-6 58 47 186 84 219zm292 227c53 0 52-2 100-14 64-16 57-11 93-39-101-4-295-61-240-160l-79-8c18 110 82 148 126 221zm392 946c-31-41-21-53 0-84 40 25 49 64 0 84zm-175-255c11-8-12-27 98-22 40 2 50 5 88 12 99 19 124-3 160 41-52 29-96 12-170-3-101-20-126 1-176-28zm-125-216c37-126 97-152 232-102 128 48 173-10 300-27 77 34 132 58 159 129-86 161-218 153-336 132-189-33-275 25-356-132zm484-243c-16 142-226 153-272-3 84 7 44 35 120 74 118-12 50-55 152-71zm-632-58c-12 18-4 23-17 39 2 4 5 5 6 11 3 15 29 20 38 78-55-14-30-19-72-52-23 41-40 163-43 214-3 70 250 505 305 526 27 11 257 20 325 27 259-13 220-77 341-247 67-94 213-273 258-357l-67-176c-51 29-32 37-79 49 4-67 13-15 31-88-52-46-361-219-428-222l-25 128c-15 51 8 3-26 38-12-54-10-55 0-116 34-210-124-54-274 26-57 30-225 118-272 122zm-144 229c48-52 14 11 35-99 7-35 23-72 32-107-16-49-60-130-111-155-2 63-17 150-11 202 6 59 38 106 55 159zm1232-205c20 35 58 132 87 166 66-69 62-262 63-372-66 33-117 158-150 206zm68-181l-11-10c-46 30-110 107-114 165 36-14 23-4 46-25 27-24 66-100 79-129zm145-164c77-48 124-210 131-337-28 16-25 3-62 59-17 25-30 46-44 79-25 59-35 126-25 199zm15-278c27-17 79-92 95-119-87-117-104 26-95 119zm-1655-119l107 142c39-87 1-186-62-218-41 30-33 20-45 76z"/>
  <path class="fil7" d="m7384 7990l115-17c-15-101-26-78-47-91-40 52-53 50-68 108z"/>
  <path class="fil15" d="m5133 8249c25-41 62-140 31-177-48 47-50 134-44 158 1 3 5 8 6 10s5 6 7 9z"/>
  <path class="fil16" d="m5920 6987l188-60c-8-7 23-38-108-4-64 17-61 16-80 63z"/>
  <path class="fil2" d="m4325 6963l-36-133c-28 19-50 20-35 69 0 1 16 27 19 30 28 29 13 13 53 34z"/>
  <path class="fil12" d="m6988 5510c57-19 66-65 66-122-49 17-37 1-59 59-10 25-15 41-7 63z"/>
  <path class="fil17" d="m7333 4131l10 17c53-19 68-26 79-89-99 10-47 19-89 72z"/>
  <path class="fil18" d="m7107 7153c63 46 68 55 132 64-43-96-42-7-82-86-3 3-9 3-11 8l-39 14z"/>
  <path class="fil16" d="m4731 8027c28-35 36-89 29-146-28 35-57 100-29 146z"/>
  <path class="fil19" d="m7179 4181c14 23 68 9 93-13l-25-33c-59 8-45 8-68 45z"/>
  <path class="fil7 str0" d="m7421 7837c81-81 10-78 0-83-4 7-41 9 0 83z"/>
  <path class="fil20" d="m6895 5212c49-20 40-59 0-84-21 31-31 43 0 84z"/>
  <path class="fil21" d="m7767 2721c-16-91-7-56-37-89 0 1-25-9-9 45 16 51 29 35 46 44z"/>
  <path class="fil3" d="m8152 4933l2 22c48-30 39-18 59-65-56 11-34-8-61 43z"/>
  <path class="fil22" d="m7592 4271l11 10 31-49c-46 13-18-5-42 38z"/>
  <path class="fil23" d="m7492 7689c-22-45 5-22-33-34 4 40-24 16 33 34z"/>
  <polygon points="5824 11097 5834 11109 5875 11062" class="fil24"/>
 </g>
</svg>
