<?xml version="1.0" encoding="UTF-8"?>
<!DOCTYPE svg PUBLIC "-//W3C//DTD SVG 1.1//EN" "http://www.w3.org/Graphics/SVG/1.1/DTD/svg11.dtd">
<!-- Creator: CorelDRAW X5 -->
<svg xmlns="http://www.w3.org/2000/svg" xml:space="preserve" height="500px" width="500px" style="shape-rendering:geometricPrecision; text-rendering:geometricPrecision; image-rendering:optimizeQuality; fill-rule:evenodd; clip-rule:evenodd"
viewBox="0 0 12764 16208"
 xmlns:xlink="http://www.w3.org/1999/xlink"
 version="1.0">
 <defs>
  <style type="text/css">
   <![CDATA[
    .fil5 {fill:black}
    .fil1 {fill:rgb(39, 39, 39)}
    .fil0 {fill:#27833E}
    .fil2 {fill:#9EA3A6}
    .fil4 {fill:#F69701}
    .fil3 {fill:white}
   ]]>
  </style>
 </defs>
 <g id="Layer_x0020_1">
  <metadata id="CorelCorpID_0Corel-Layer"/>
  <path class="fil0" d="M10153 6985l0 -177 -31 -142 53 -276c106,216 174,438 190,668 4,92 8,394 -15,487 -6,136 -4,248 6,248 17,0 39,-134 39,-235 0,-52 7,-63 39,-63 95,0 203,205 231,442 11,90 -19,175 -41,121 -6,-13 -30,-47 -54,-75l-43 -50 35 75c78,160 90,358 26,479 -22,41 -39,52 -90,52 -65,0 -95,-22 -110,-84 -4,-21 -9,93 -11,252 -2,159 -11,321 -22,362 -39,138 -183,216 -274,147 -80,-60 -101,-155 -90,-407 6,-123 15,-250 21,-280 7,-47 6,-47 -11,9 -24,80 -60,121 -131,149 -185,76 -269,-168 -145,-429 30,-65 84,-159 117,-205 90,-127 97,-147 22,-69 -21,23 -43,50 -65,79l-40 -13c-3,-2 -6,-4 -9,-6 -86,-62 -90,-67 -78,-177 11,-129 104,-336 175,-390 26,-22 75,-39 110,-39 127,0 145,35 84,149 -19,35 -39,95 -47,131 -11,63 -11,63 30,-19 35,-71 52,-84 97,-84 76,0 127,75 138,209 7,78 13,97 24,71 43,-110 -9,-267 -106,-319 -73,-39 -71,-28 -35,-222 5,-26 6,-336 10,-370l1 1z"/>
  <path class="fil1" d="M4952 543c-47,106 -69,231 -114,658 -39,382 -71,526 -298,1361 -257,949 -310,1341 -224,1680 45,172 125,351 211,472 62,84 62,88 34,151 -35,82 -34,448 2,729l26 198 -209 22c-116,13 -233,30 -263,41 -50,15 -48,17 13,7 35,-4 157,-13 269,-21l203 -13 -9 76c-21,140 -60,173 -313,252 -125,39 -224,75 -220,78 4,4 48,-6 99,-21 52,-15 140,-39 198,-52l106 -26 -54 101c-28,56 -58,132 -65,172 -7,37 -26,80 -43,93 -17,15 -19,21 -6,13 15,-7 22,9 22,60l0 71 35 -45 35 -45 6 129c9,140 67,283 159,390l48 56 -13 -56c-6,-32 -17,-76 -22,-103 -9,-41 0,-37 80,39 50,48 117,101 149,117 65,32 213,69 213,52 0,-6 -22,-39 -50,-75 -32,-43 -39,-62 -21,-56 237,91 526,134 774,116l173 -11 121 121c67,67 121,129 121,138 0,11 -48,19 -106,17 -60,0 -153,15 -207,34 -108,37 -448,235 -703,412 -196,136 -498,317 -643,388 -211,101 -298,213 -298,380 0,177 172,442 485,738 84,82 149,149 145,151 -4,4 -34,15 -67,26 -58,21 -69,17 -168,-56 -58,-43 -108,-80 -112,-82 -4,-2 -9,-35 -15,-75 -9,-82 -78,-157 -144,-157 -22,0 -65,15 -95,34 -54,34 -56,32 -173,-30l-117 -63 -26 63c-15,34 -39,132 -56,220 -17,88 -35,177 -39,200 -7,34 -22,41 -71,39 -164,-6 -201,71 -142,293 26,93 45,235 52,377 9,198 17,233 56,285 48,67 34,93 -56,93 -28,0 -106,17 -175,39 -242,75 -420,315 -420,569 0,132 39,226 106,252 71,26 103,9 358,-196 231,-185 451,-347 518,-382 37,-19 45,-15 80,56 22,41 65,90 95,106 48,28 54,39 45,88 -6,30 -15,248 -21,485 -11,435 2,737 62,1354 35,369 28,414 -76,490 -97,73 -177,90 -459,99 -218,7 -283,4 -339,-19 -39,-17 -75,-22 -78,-15 -6,7 -67,0 -136,-19 -403,-104 -843,50 -1046,369 -101,157 -140,308 -131,500 9,177 45,280 125,352 21,19 60,71 84,114 125,211 351,317 578,272 86,-15 97,-13 159,35 164,131 407,140 742,28 578,-192 1348,-742 1514,-1080 32,-62 60,-129 65,-145 7,-28 54,-11 313,116 662,324 1152,479 1591,498 172,7 228,2 345,-32 76,-21 186,-47 244,-56 183,-30 315,-91 412,-188 50,-50 103,-91 116,-91 47,0 138,-103 159,-179 30,-104 26,-194 -15,-323 -108,-345 -442,-597 -796,-599 -117,0 -323,52 -520,131 -173,69 -293,84 -533,67l-175 -13 226 -229c254,-255 343,-401 358,-578 17,-214 -116,-509 -589,-1298 -28,-48 -26,-50 157,-233 298,-300 558,-666 802,-1138 233,-449 313,-746 304,-1115l-7 -228 205 67c429,144 656,160 849,63 207,-104 485,-438 699,-839 50,-93 121,-201 160,-244 37,-43 75,-103 82,-136 7,-32 28,-65 47,-76 97,-52 117,-254 39,-408 -22,-41 -39,-78 -39,-82 0,-4 43,0 93,7 131,21 198,-7 261,-108l54 -84 13 71c13,71 -2,466 -24,582 -9,58 -15,62 -60,48 -82,-24 -168,-15 -222,24 -82,60 -173,259 -185,403 -9,112 -7,125 37,170 22,22 51,41 71,47l37 20c-71,103 -134,228 -153,310 -54,244 97,414 267,298l69 -47 -11 185c-13,224 11,334 91,401 69,60 157,60 241,4 106,-71 119,-119 119,-427 0,-255 7,-306 37,-257 21,32 119,21 159,-19 22,-22 47,-60 56,-86 24,-62 24,-205 0,-285 -13,-48 -11,-73 7,-93 41,-48 48,-121 28,-235 -43,-229 -136,-364 -255,-364 -32,0 -35,-21 -47,-248 -15,-282 -63,-524 -142,-701 -32,-71 -60,-172 -65,-233 -6,-65 -24,-131 -45,-159 -45,-63 -183,-132 -265,-132l-65 -2 41 -34c22,-19 75,-39 117,-47 200,-32 399,-192 457,-364 45,-134 32,-293 -28,-341 -88,-71 -198,-32 -382,138 -88,80 -164,129 -274,177 -84,35 -162,71 -173,80 -13,11 -43,9 -76,-2 -45,-17 -75,-13 -166,19 -185,67 -177,67 -177,21 0,-65 -58,-145 -119,-168 -149,-52 -421,149 -489,360 -28,91 -41,108 -95,127 -35,11 -95,15 -136,7 -97,-17 -336,22 -336,56 0,13 -21,37 -45,52 -75,50 -101,84 -142,192 -37,103 -37,106 -4,131 19,13 50,62 67,108 21,54 43,82 63,82 17,0 86,13 153,32 86,22 159,30 248,22 106,-9 136,-6 190,28 56,32 65,47 65,106 0,106 95,274 246,438 132,145 134,145 129,242 -4,67 -19,114 -52,160 -75,101 -211,239 -310,311 -82,60 -97,65 -175,54 -112,-15 -367,-138 -668,-319 -323,-196 -548,-310 -718,-362 -76,-22 -153,-48 -168,-56 -43,-22 -91,-185 -93,-311l0 -114 164 -166c170,-172 274,-338 321,-511 39,-144 41,-144 73,-47 32,91 34,93 58,48 13,-26 30,-110 37,-186 7,-78 15,-131 17,-119 0,13 11,24 21,24 28,0 22,-110 -9,-214 -30,-101 -28,-119 9,-75 13,15 32,28 39,28 26,0 -30,-97 -84,-147 -26,-26 -48,-52 -48,-62 0,-19 311,-175 438,-222 52,-19 84,-34 73,-34 -47,-4 -285,80 -418,147 -114,56 -147,65 -181,50 -24,-9 -43,-24 -43,-30 2,-17 343,-282 483,-375 203,-132 205,-134 76,-73 -144,69 -278,159 -474,315l-142 112 -84 -21c-47,-11 -84,-26 -84,-30 0,-45 349,-414 494,-526l56 -41 -82 43c-106,56 -345,280 -440,412l-75 104 -177 0c-222,2 -306,-32 -390,-155 -32,-47 -88,-106 -123,-134 -39,-30 -84,-93 -116,-160 -48,-108 -116,-183 -166,-183 -15,0 -43,17 -63,37 -35,35 -37,35 -134,-7 -54,-24 -114,-48 -132,-56 -32,-9 -30,-19 17,-106 73,-132 170,-237 351,-379 308,-241 522,-513 712,-899 250,-513 358,-1061 338,-1712 -13,-433 -52,-608 -132,-608 -90,0 -175,159 -347,634 -142,392 -241,571 -664,1203 -416,627 -612,985 -681,1255 -32,131 -50,166 -106,218 -37,34 -71,60 -73,58 -11,-11 63,-231 181,-533 132,-338 198,-561 255,-862 47,-254 47,-938 -2,-1208 -76,-433 -226,-869 -364,-1067 -91,-132 -140,-140 -186,-30l0 0 -1 10zm391 10907c101,22 196,60 248,93 170,112 352,354 490,643 123,261 123,270 -11,429 -62,73 -190,200 -285,280 -170,142 -643,466 -658,451 -17,-17 -103,-530 -123,-737 -30,-300 -4,-880 50,-1149 13,-63 60,-65 289,-11l0 1zm808 -2860c-26,60 -65,145 -84,190 -63,145 -235,421 -319,515 -76,82 -90,90 -177,95 -52,2 -112,13 -131,22 -60,34 -142,-60 -211,-239 -34,-88 -84,-213 -114,-278 -30,-65 -54,-121 -54,-125 0,-4 65,-39 145,-80 254,-127 559,-201 837,-205l155 -2 -48 106 0 0 1 1zm3610 -538c-3,-2 -6,-4 -9,-6 -86,-62 -90,-67 -78,-177 11,-129 104,-336 175,-390 26,-22 75,-39 110,-39 127,0 145,35 84,149 -19,35 -39,95 -47,131 -11,63 -11,63 30,-19 35,-71 52,-84 97,-84 76,0 127,75 138,209 7,78 13,97 24,71 43,-110 -9,-267 -106,-319 -73,-39 -71,-28 -35,-222 30,-172 37,-528 9,-625 -11,-45 -11,-93 6,-157l24 -93 39 93c99,229 147,593 129,972 -6,136 -4,248 6,248 17,0 39,-134 39,-235 0,-52 7,-63 39,-63 95,0 203,205 231,442 11,90 -19,175 -41,121 -6,-13 -30,-47 -54,-75l-43 -50 35 75c78,160 90,358 26,479 -22,41 -39,52 -90,52 -65,0 -95,-22 -110,-84 -4,-21 -9,93 -11,252 -2,159 -11,321 -22,362 -39,138 -183,216 -274,147 -80,-60 -101,-155 -90,-407 6,-123 15,-250 21,-280 7,-47 6,-47 -11,9 -24,80 -60,121 -131,149 -185,76 -269,-168 -145,-429 30,-65 84,-159 117,-205 90,-127 97,-147 22,-69 -21,23 -43,50 -65,79l-40 -13 1 1z"/>
  <path class="fil2" d="M5088 563c71,93 186,352 252,563 125,412 179,819 164,1240 -17,489 -91,822 -304,1358 -65,166 -140,377 -164,468 -48,177 -76,244 -104,244 -32,0 -22,-39 121,-524 168,-565 278,-1001 317,-1257 56,-375 28,-858 -75,-1261 -45,-177 -153,-483 -170,-483 -6,0 -4,52 4,117 26,265 -47,653 -306,1589 -201,727 -200,714 -200,1082 2,362 34,537 149,787 35,78 65,164 65,192 0,90 136,431 160,405 6,-6 -2,-34 -17,-63 -84,-168 -119,-416 -69,-509 41,-75 164,-34 326,108 32,28 45,37 34,22 -43,-47 -26,-56 112,-56 155,0 295,34 407,95 73,41 84,58 116,164 41,140 60,142 30,2 -22,-106 -4,-186 47,-186 34,0 91,60 144,145 30,50 32,62 7,52 -15,-6 -41,-17 -56,-22 -22,-9 -26,0 -17,50 32,181 106,328 252,504l73 88 -56 9c-30,7 -82,37 -116,67l-62 56 91 -45c108,-54 162,-58 226,-17 37,24 47,26 47,6 0,-15 22,-2 48,28l48 54 -60 24c-32,15 -82,43 -112,63 -52,37 -63,37 -255,17 -110,-13 -209,-30 -218,-37 -9,-9 -34,-76 -52,-151 -60,-239 -149,-397 -330,-574 -114,-114 -198,-177 -287,-220 -233,-116 -308,-99 -285,63 26,200 173,457 418,729l136 155 -136 0c-75,2 -200,13 -276,28 -166,32 -505,71 -517,58 -21,-21 -62,-449 -62,-640 0,-222 22,-326 60,-289 26,26 52,30 52,7 0,-7 -35,-56 -76,-106 -106,-129 -216,-354 -259,-537 -88,-360 -41,-675 270,-1820 201,-744 226,-858 261,-1242 41,-431 90,-662 140,-662 9,0 37,28 63,62l0 0 1 0z"/>
  <path class="fil2" d="M6973 974c76,183 82,863 11,1290 -129,772 -481,1410 -992,1801 -78,60 -185,155 -235,211 -88,99 -95,103 -160,91l-71 -11 306 -300c533,-522 716,-753 835,-1061 145,-377 220,-766 231,-1225 6,-231 4,-289 -11,-233 -52,211 -88,300 -201,522 -166,324 -324,573 -571,899 -427,565 -533,742 -636,1067 -52,160 -56,168 -136,207 -45,21 -84,35 -90,32 -4,-6 22,-58 58,-117 37,-60 63,-112 60,-116 -6,-4 -30,7 -56,24 -60,39 -62,24 -19,-123 84,-283 242,-567 707,-1259 395,-589 470,-727 625,-1154 151,-412 248,-606 302,-606 9,0 28,28 43,62l0 -1z"/>
  <path class="fil3" d="M5283 1514c60,274 82,556 69,843 -15,371 -97,740 -356,1613 -65,220 -127,438 -134,485l-17 84 -43 -82c-71,-134 -132,-420 -145,-655 -15,-311 22,-526 228,-1263 186,-683 261,-1007 282,-1246l13 -149 34 99c19,54 50,175 71,270l0 0 -2 1z"/>
  <path class="fil3" d="M6859 1904c-37,420 -123,828 -231,1082 -123,291 -261,474 -696,921 -200,207 -201,209 -315,229 -63,11 -119,15 -125,11 -17,-19 75,-269 157,-435 88,-175 190,-324 490,-720 246,-323 461,-666 606,-966 63,-131 117,-237 119,-239 4,0 0,52 -6,116l0 0 1 1z"/>
  <path class="fil2" d="M5233 4198c-101,166 -116,194 -116,216 0,15 34,-2 80,-39 43,-35 125,-86 181,-114 56,-26 82,-34 56,-17 -84,60 -170,140 -188,179 -19,34 -17,35 50,24l73 -13 -80 48 -80 50 -60 -47c-34,-24 -78,-50 -103,-58 -41,-13 -41,-15 -9,-71 30,-50 201,-220 224,-220 6,0 -7,28 -28,60l0 0 0 2z"/>
  <path class="fil2" d="M5537 4287c-90,91 -127,99 -84,21 17,-32 132,-110 168,-114 4,0 -34,43 -84,93l0 0z"/>
  <path class="fil2" d="M5377 4383c-47,30 -60,17 -24,-22 22,-24 37,-30 41,-17 6,13 -4,30 -17,39z"/>
  <path class="fil2" d="M5640 4431c-2,9 -17,39 -34,71l-32 56 -149 -9 -149 -9 60 -34c34,-17 63,-32 65,-30 4,0 26,-7 52,-17 99,-37 186,-50 186,-28l0 0 1 0z"/>
  <path class="fil3" d="M5285 4797c175,86 401,313 492,498 65,134 123,310 123,377 0,28 -17,34 -104,34 -95,0 -101,-2 -73,-30 97,-97 -222,-464 -347,-397 -32,17 -37,32 -28,78 11,52 6,50 -65,-43 -134,-181 -263,-494 -233,-571 15,-39 75,-26 235,54l0 0z"/>
  <path class="fil3" d="M6330 5071c28,35 65,95 84,131l32 65 -63 -62c-71,-67 -116,-76 -144,-28 -15,28 -26,17 -65,-71 -26,-56 -54,-131 -60,-166l-13 -63 90 65c48,35 112,93 140,129l0 0 -1 0z"/>
  <path class="fil3" d="M10369 5246c30,22 35,50 35,157 0,110 -7,140 -56,220 -76,121 -226,224 -367,252 -62,13 -134,41 -162,65 -28,22 -80,47 -117,54 -67,13 -67,13 -95,-78 -47,-140 -58,-228 -34,-255 13,-15 90,-54 173,-88 112,-47 185,-93 283,-183 181,-162 265,-198 339,-144l0 0 1 0zm-1121 910c114,90 157,300 82,418 -21,34 -90,97 -153,138 -63,43 -116,88 -116,99 0,32 84,69 160,69 50,0 75,13 104,52 47,62 117,201 138,265 13,43 13,41 15,-17 2,-78 -60,-213 -121,-261 -24,-19 -45,-39 -45,-45 0,-4 47,-13 106,-19 160,-17 218,15 285,159 32,65 56,145 56,179 0,140 -125,248 -300,261 -60,4 -110,17 -110,26 0,22 192,11 250,-13 65,-28 -21,99 -104,155 -65,43 -97,50 -200,50 -194,-2 -317,-84 -319,-213l0 -65 52 50c30,28 58,45 65,39 7,-7 -75,-103 -181,-213 -347,-360 -399,-578 -164,-697 48,-24 110,-69 136,-99 65,-69 166,-222 166,-248 0,-30 86,-112 117,-112 15,0 50,19 78,41l3 1zm-188 -608c30,28 39,60 56,157 24,151 104,242 213,242 97,0 186,47 201,104 17,63 -6,101 -88,145l-63 35 -80 -80c-69,-69 -86,-78 -138,-67 -65,13 -127,60 -127,97 0,48 -37,45 -99,-9 -65,-58 -106,-159 -106,-261 0,-32 -7,-58 -19,-58 -9,0 -19,26 -19,58 0,56 -4,58 -58,47 -32,-6 -88,-11 -121,-11 -60,0 -63,-4 -52,-52 32,-131 131,-254 269,-338 76,-47 190,-50 231,-9l0 0 0 0zm448 123c4,13 21,90 39,168 24,114 52,177 132,297 144,216 136,306 -26,352 -37,9 -108,19 -155,19 -88,0 -88,0 -88,-63 0,-35 -6,-90 -13,-121 -11,-50 -6,-58 54,-84 93,-39 134,-108 112,-194 -21,-82 -106,-134 -224,-134 -82,0 -121,-30 -155,-117 -21,-50 -17,-54 78,-97 104,-50 233,-62 244,-24l0 0 2 -2z"/>
  <path class="fil3" d="M6559 5257c11,0 4,11 -15,26 -41,30 -65,22 -65,-21 0,-19 11,-24 30,-17 17,6 39,11 50,11l0 1z"/>
  <path class="fil3" d="M6908 5283c0,6 -41,84 -93,173 -50,90 -93,170 -93,181 0,24 2,21 131,-173l114 -173 69 13c37,7 75,17 84,22 7,4 -26,45 -76,90 -91,82 -339,358 -278,310 35,-28 43,-4 9,34 -21,19 -19,22 4,17 21,-4 30,15 34,73 7,91 -37,144 -136,162 -41,7 -67,26 -75,50 -34,104 -201,117 -341,26 -84,-56 -78,-84 13,-84 24,0 41,-4 35,-9 -13,-15 -416,35 -686,84 -405,73 -957,233 -1160,338 -41,21 -78,34 -82,30 -17,-17 69,-213 117,-270 50,-58 60,-62 351,-106 358,-54 807,-99 1212,-119l298 -15 -321 -4c-436,-4 -1136,62 -1384,129 -35,9 -69,13 -75,9 -19,-21 123,-144 218,-190l99 -48 489 11c269,7 573,19 675,24 103,7 183,7 177,2 -9,-9 -494,-54 -886,-82l-186 -13 112 -15c229,-35 1039,13 1190,71 116,43 159,35 194,-41 26,-52 28,-73 9,-97 -11,-17 -34,-58 -48,-91 -15,-34 -45,-71 -65,-84 -28,-17 -39,-43 -39,-91 0,-76 30,-108 117,-127 76,-17 274,-26 274,-13l0 0 -1 -4z"/>
  <path class="fil3" d="M7219 5390c4,24 -144,138 -349,267 -101,63 -76,35 149,-164 155,-138 192,-157 200,-103l0 0z"/>
  <path class="fil3" d="M7340 5539c26,45 54,103 60,129 7,28 -6,13 -30,-34 -43,-84 -84,-106 -63,-37 58,198 84,421 54,451 -9,7 -37,-56 -65,-142l-48 -155 -2 121c-2,160 -43,311 -129,474 -78,151 -278,371 -416,459 -50,34 -91,67 -91,76 0,24 24,21 69,-11 37,-26 39,-24 47,117 13,222 50,285 347,589 349,358 449,528 526,903 63,317 45,636 -56,936 -147,438 -550,1106 -908,1505 -248,278 -608,520 -849,569 -99,21 -117,19 -298,-37 -155,-48 -379,-97 -448,-97 -7,0 -30,-48 -52,-108 -34,-90 -39,-134 -34,-282 7,-173 7,-175 71,-224 233,-179 379,-338 459,-500 37,-75 80,-121 190,-205 828,-621 1195,-1473 947,-2202 -69,-203 -186,-412 -330,-589 -71,-88 -121,-160 -110,-160 9,0 19,-11 19,-24 0,-21 -28,-17 -134,11 -95,24 -226,39 -425,45 -250,9 -311,4 -451,-30 -159,-37 -364,-125 -429,-185 -67,-58 -30,9 60,108 50,56 84,104 75,108 -60,21 -278,-164 -343,-293 -17,-32 -39,-58 -50,-58 -19,0 -15,34 13,159 6,21 -9,4 -32,-37 -50,-90 -69,-291 -37,-388 22,-63 28,-67 250,-140 125,-41 308,-97 405,-123 186,-50 903,-198 951,-196 43,0 -155,86 -388,168 -117,39 -255,93 -308,121 -99,48 -242,173 -278,241 -11,21 13,2 56,-41 106,-110 213,-166 494,-261 134,-45 310,-116 388,-153l140 -71 50 39c39,32 54,69 78,188 35,190 37,183 -28,149 -30,-15 -63,-28 -75,-28 -41,0 6,43 84,76 58,26 84,50 93,86 28,116 104,149 242,108 138,-39 214,-129 214,-248 0,-65 15,-108 56,-170 60,-86 67,-114 37,-114 -9,0 -32,28 -50,60l-34 62 -6 -129c-4,-91 4,-147 26,-194 24,-54 26,-78 9,-132 -19,-60 -17,-71 22,-99 22,-19 60,-34 80,-34 88,0 159,-26 203,-71 26,-24 47,-54 47,-63 0,-9 -19,6 -41,32 -28,32 -69,52 -117,58l-75 11 140 -95c76,-50 149,-91 159,-88 11,2 41,41 69,88l0 1zm-205 2378c101,108 159,315 166,595l4 112 19 -121c39,-244 -60,-546 -201,-619 -28,-15 -26,-7 13,34l-1 -1z"/>
  <path class="fil3" d="M4763 5843c0,4 -30,24 -65,47l-65 37 0 -45c0,-41 7,-47 65,-47 35,0 65,4 65,7l0 1z"/>
  <path class="fil4" d="M8694 5996c93,9 101,13 127,84 17,39 60,99 95,131 62,52 65,60 41,103 -47,88 -151,196 -216,222 -35,15 -90,54 -119,86l-54 58 -54 -39 -56 -41 47 -67c65,-97 41,-97 -54,2 -75,78 -90,86 -170,86 -117,0 -351,-54 -336,-78 11,-17 50,-11 144,15 26,7 32,-2 32,-58 0,-50 15,-82 54,-123l54 -54 -47 -34c-47,-34 -47,-35 -17,-93l32 -60 -84 -41c-47,-22 -80,-47 -75,-56 6,-7 93,-15 196,-15 183,0 188,2 242,54 30,30 60,80 65,112 13,60 45,80 45,30 0,-45 -47,-147 -80,-175 -17,-13 -28,-30 -24,-37 11,-17 103,-22 213,-9l0 0 -1 -3zm-625 119c62,35 63,43 45,93 -17,45 -15,60 9,88 28,32 28,37 -6,78 -19,24 -35,63 -35,90 0,41 -6,43 -65,32 -41,-7 -76,-4 -93,11 -22,19 -32,13 -48,-30 -11,-30 -32,-67 -47,-86 -24,-24 -24,-43 -7,-103 13,-39 32,-84 43,-99 19,-24 125,-108 138,-112 2,0 32,17 67,37l0 0 -1 1zm1928 -39c117,54 145,112 144,291 -2,82 -15,173 -28,205 -13,30 -24,69 -26,84 -7,52 -84,185 -119,205 -52,28 -172,22 -310,-11l-121 -30 37 -52c52,-73 21,-88 -37,-19 -43,52 -63,62 -198,76 -82,11 -168,11 -190,4 -39,-15 -34,-22 69,-95 62,-43 127,-103 145,-134 30,-52 41,-56 136,-56 131,0 233,-28 283,-78 54,-54 39,-192 -34,-298 -30,-43 -62,-90 -69,-103 -24,-41 224,-30 317,11l0 0 1 0z"/>
  <path class="fil3" d="M6777 6253c0,205 -4,235 -39,280 -52,67 -131,104 -220,104 -95,0 -119,-32 -170,-242 -56,-239 -56,-237 62,-228 86,7 106,2 157,-41 32,-26 62,-48 67,-48 6,0 15,60 22,132 9,88 19,125 30,108 24,-39 21,-142 -9,-213 -28,-67 -26,-71 78,-82 17,-2 22,56 22,229l0 0 0 1z"/>
  <path class="fil2" d="M6216 7215c306,367 433,684 435,1082 2,481 -194,923 -591,1341 -155,162 -466,431 -498,431 -9,0 -15,-58 -15,-127 0,-136 -37,-308 -91,-418 -34,-67 -32,-69 6,-78 22,-6 78,-11 125,-11 82,0 93,-6 185,-104 116,-129 218,-302 366,-614 108,-233 110,-235 166,-226 186,30 214,32 214,13 0,-34 -134,-48 -448,-47 -270,2 -330,7 -494,50 -198,54 -573,226 -632,291 -30,34 -32,39 -6,39 17,0 35,-9 41,-19 35,-56 84,26 224,388 80,207 86,233 65,283 -37,88 -103,131 -205,131 -80,0 -101,-9 -188,-88 -435,-379 -669,-694 -669,-899 0,-153 86,-241 382,-390 82,-41 328,-192 546,-336 526,-347 673,-421 850,-429 116,-6 149,0 228,39 50,26 123,78 160,117 39,37 76,63 84,56 17,-17 -138,-172 -200,-198 -28,-11 -76,-62 -108,-110 -34,-48 -97,-123 -142,-166l-84 -76 78 -17c43,-11 88,-19 101,-21 13,-2 65,48 116,110l0 0 -1 3z"/>
  <path class="fil2" d="M7003 7344c177,60 371,159 679,341 343,205 481,276 625,323l103 34 -65 28c-50,22 -58,30 -32,37 101,22 431,-220 582,-425l67 -91 95 60c86,54 110,60 242,60 80,0 145,4 145,9 0,6 -35,73 -76,149 -285,524 -630,858 -886,858 -162,0 -748,-147 -821,-207 -13,-11 -28,-54 -34,-97 -21,-123 -127,-384 -207,-507 -41,-62 -183,-224 -315,-360 -132,-134 -233,-246 -222,-246 9,0 63,15 119,35l0 0 1 -1z"/>
  <path class="fil2" d="M4038 9250c60,30 73,45 62,69 -7,17 -19,88 -22,155 -13,242 127,485 263,455 155,-32 194,-32 224,0 19,17 32,50 32,75 0,37 -32,62 -200,153 -123,67 -211,127 -229,160 -30,47 -34,48 -60,19 -19,-22 -22,-48 -13,-80 45,-153 2,-362 -95,-462 -39,-41 -43,-62 -45,-313 0,-147 0,-269 4,-269 2,0 39,17 80,39l0 0 -1 -1z"/>
  <path class="fil2" d="M3922 9474c0,69 -4,149 -9,181 -11,52 -15,56 -56,37 -28,-13 -43,-34 -37,-50 4,-17 22,-114 43,-216 37,-205 56,-190 60,48l-1 0z"/>
  <path class="fil3" d="M5397 9518c0,99 -131,250 -263,306 -88,39 -97,39 -140,11 -48,-32 -82,-97 -82,-160 0,-32 6,-34 39,-15 52,26 177,7 254,-39 63,-37 129,-140 121,-186 -4,-17 9,-11 34,17 21,24 37,54 37,67l0 0 0 -1z"/>
  <path class="fil2" d="M4608 9610c-4,11 -24,22 -47,26 -28,4 -50,-11 -78,-56 -60,-101 -45,-116 47,-50 47,34 82,69 78,80z"/>
  <path class="fil2" d="M4909 10917c-19,121 19,332 76,429 35,60 35,69 6,255 -21,134 -30,328 -30,649 -2,526 15,642 181,1322l97 399 -82 67c-302,252 -608,427 -770,442 -149,15 -211,-26 -302,-198 -86,-160 -257,-343 -451,-477l-132 -93 226 0c334,-2 504,-63 580,-214 35,-69 35,-155 -11,-614 -43,-442 -62,-1233 -35,-1490 9,-97 32,-250 48,-338l30 -162 76 26c93,32 241,9 393,-60 52,-24 101,-45 106,-45 6,-2 4,45 -6,101l0 0 0 1z"/>
  <path class="fil3" d="M4291 10934c-6,13 -17,63 -22,112 -15,95 -15,93 -67,67 -30,-17 -110,-144 -110,-175 0,-6 39,-13 90,-17 48,-4 95,-7 104,-9 7,-2 11,7 6,22l-1 0zm58 -1675c30,21 41,47 41,99 0,91 45,239 86,283 45,48 86,45 226,-22 65,-32 131,-52 144,-48 15,6 28,52 34,116 7,80 21,116 56,151 45,47 45,50 21,144 -13,52 -24,114 -24,138 0,62 37,73 39,11 0,-28 11,-88 22,-132 21,-75 30,-84 132,-125 117,-48 235,-147 278,-239 26,-50 30,-52 47,-21 63,123 76,382 24,535 -63,194 -242,401 -496,571 -179,119 -315,170 -459,170 -99,0 -119,-7 -164,-52 -67,-67 -170,-317 -170,-414 0,-97 28,-123 259,-244 209,-110 278,-117 358,-37 60,62 67,104 28,194 -32,76 -95,119 -216,147 -114,26 -127,62 -15,45 175,-28 274,-117 289,-261 13,-108 -60,-196 -175,-211 -69,-9 -80,-17 -80,-56 0,-121 -95,-173 -233,-127 -84,30 -91,30 -138,-4 -73,-54 -136,-194 -147,-332 -11,-145 17,-224 97,-272 71,-43 84,-43 138,-6l0 0 -2 -1zm-479 489c80,41 110,71 151,151 52,101 67,228 35,336 -11,39 -15,41 -37,13 -13,-15 -34,-24 -43,-19 -9,7 21,52 69,101 62,63 91,112 104,170 11,45 48,144 86,220 76,159 67,177 -73,162 -104,-11 -198,-56 -326,-159 -136,-108 -173,-196 -173,-414 0,-119 -11,-216 -37,-306 -43,-147 -48,-252 -15,-285 39,-39 155,-24 259,30l0 0 0 0zm21 1067c62,41 125,75 138,75 52,0 21,30 -138,134 -90,58 -270,192 -405,298 -132,106 -257,200 -276,207 -91,35 -153,-78 -140,-254 24,-304 283,-531 610,-533 86,-2 116,7 211,73l0 0 0 0z"/>
  <path class="fil2" d="M6503 11516c194,323 354,640 416,821 62,186 54,295 -34,459 -75,142 -326,408 -567,604 -97,78 -170,149 -164,159 6,9 54,-17 106,-60l97 -76 138 11c76,6 205,11 287,11l147 0 -142 151c-78,84 -179,203 -226,267 -47,65 -114,132 -155,157 -283,159 -742,41 -1097,-282 -116,-106 -125,-121 -166,-295 -11,-43 2,-56 149,-145 341,-209 738,-545 882,-744l58 -82 -48 -132c-93,-259 -231,-490 -403,-677l-106 -114 82 -11c127,-19 278,-82 425,-181 75,-48 144,-88 155,-86 9,4 84,114 164,246l0 0 2 -1z"/>
  <path class="fil3" d="M7786 13257c298,56 559,306 627,602 45,192 -9,371 -119,397 -28,7 -80,45 -114,84 -75,86 -257,177 -390,194 -54,7 -99,7 -99,4 0,-6 13,-67 30,-138 52,-224 0,-433 -138,-546 -69,-56 -298,-142 -343,-127 -13,6 15,19 60,30 47,11 131,48 186,82 82,50 112,82 159,172 50,101 56,127 52,280 -4,229 -17,261 -140,302 -132,47 -481,47 -714,0 -356,-69 -804,-239 -1298,-489 -255,-129 -274,-142 -283,-198 -6,-34 -17,-91 -24,-127l-13 -65 91 82c123,108 311,218 477,278 110,39 170,48 315,50 162,0 188,-6 287,-56 82,-43 127,-82 181,-159 106,-155 401,-462 483,-504 164,-84 433,-162 569,-166 32,-2 104,7 159,17l0 0 -1 1zm84 224c153,90 261,196 323,321 50,101 58,134 60,283 2,194 30,155 34,-47 4,-241 -110,-420 -351,-546 -155,-80 -198,-88 -65,-11l0 0 -1 0z"/>
  <path class="fil3" d="M3213 13656c45,17 101,30 125,30 65,0 373,214 520,364 84,84 153,175 194,257 76,151 142,203 270,214 172,13 453,-127 776,-386 65,-54 123,-90 127,-78 11,32 -86,200 -177,306 -255,300 -951,748 -1380,890 -414,136 -731,54 -819,-211 -43,-127 -26,-280 39,-403 48,-88 246,-295 373,-390l56 -43 -56 28c-157,78 -345,255 -416,393 -67,125 -71,334 -9,451 50,93 43,99 -145,99 -155,0 -242,-34 -339,-127 -116,-112 -144,-183 -144,-371 0,-347 132,-597 395,-752 54,-32 78,-52 52,-47 -157,43 -362,241 -431,416 -35,86 -43,145 -43,315 -2,228 -13,239 -91,91 -60,-110 -58,-405 2,-552 106,-267 343,-457 647,-522 104,-24 377,-7 474,26l0 0 0 2z"/>
  <path class="fil5" d="M6270 5886c11,4 34,4 47,0 11,-6 2,-9 -24,-9 -26,0 -35,4 -22,9l-1 0z"/>
  <path class="fil5" d="M4211 6555c-34,26 -34,28 7,7 22,-11 41,-24 41,-28 0,-15 -9,-11 -48,21z"/>
  <path class="fil5" d="M10203 6736c11,95 22,259 24,367 4,166 6,186 22,131 37,-125 -7,-606 -60,-660 -6,-6 0,69 13,162l0 0 1 0z"/>
 </g>
</svg>
