<?xml version="1.0" encoding="UTF-8" standalone="no"?>
<!DOCTYPE svg  PUBLIC '-//W3C//DTD SVG 1.1//EN'  'http://www.w3.org/Graphics/SVG/1.1/DTD/svg11.dtd'>
<!-- Creator: CorelDRAW X5 -->
<svg style="shape-rendering:geometricPrecision;text-rendering:geometricPrecision;image-rendering:optimizeQuality" xmlns="http://www.w3.org/2000/svg" fill-rule="evenodd" xml:space="preserve" height="500px" width="500px" version="1.0" clip-rule="evenodd" xmlns:xlink="http://www.w3.org/1999/xlink" viewBox="0 0 12764 16208">
 <defs>
  <style type="text/css">
   <![CDATA[
    .fil7 {fill:black}
    .fil5 {fill:#0F0D0E}
    .fil0 {fill:rgb(39, 39, 39)}
    .fil4 {fill:#6B8A6B}
    .fil1 {fill:#813689}
    .fil2 {fill:#B78CC2}
    .fil6 {fill:#FFFFCC}
    .fil3 {fill:white}
   ]]>
  </style>
 </defs>
 <g id="Layer_x0020_1">
  <path class="fil0" d="m5858 4706c-42 3-186 14-322 24-705 51-1228 149-1577 296-457 191-918 566-1174 954-229 346-327 374-891 259-137-27-325-59-422-69-495-54-917 122-1091 454-95 180-119 308-108 571 8 186 22 268 88 532 85 335 141 505 210 637 42 85 44 86 39 440-5 247 2 412 20 542 32 241 100 457 163 520l47 47h322 322l27-68c15-37 32-98 37-136 7-37 15-68 20-68 7 0 25 19 46 44 37 46 125 73 242 75 41 0 117 14 171 29l98 29 37 129c122 410 385 767 671 906 163 80 278 95 588 75 569-34 783-88 976-247 56-46 176-186 217-256 2-3 75 19 163 47 210 71 510 142 815 195 783 132 2534 71 3888-137l278-42 154 76c200 98 339 134 529 136 85 0 451-24 813-54l661-58 91-53c120-71 342-280 435-412 276-386 356-932 229-1550-44-212-137-517-213-693-53-124-64-173-78-342-41-505-258-905-639-1177l-105-76 53-49c47-44 53-58 46-124-17-139-127-237-327-288-127-34-349-34-461-2-103 30-229 137-269 229-30 68-30 68-127 68-142 0-852 98-1160 163-53 10-59 3-296-293-493-613-933-986-1320-1115-349-117-705-161-1347-168-269-3-525-3-568 0z"/>
  <path class="fil1" d="m7154 4789c122 15 308 51 415 78 498 124 910 442 1474 1140 136 168 261 312 280 322 59 32 302 224 440 347 269 242 434 469 408 571-29 112-273 168-1101 252-835 83-1484 117-2306 119h-762l-285-115c-156-63-507-215-779-335-273-122-593-264-712-317l-217-95 49-49 49-47 583-24c991-41 1059-42 1633-69 1752-78 2711-158 2755-229 19-30-30-154-122-305-234-385-569-723-854-864-232-114-347-125-1237-125-801 0-1027 12-1609 85-371 47-676 108-906 181-273 86-274 90-327 263-63 210-83 342-85 549l-2 180-69-30c-37-17-102-36-141-42-39-7-71-15-71-22 0-5 15-114 34-239s34-313 34-417c0-212-12-237-119-247-58-5-58-7 95-93 180-105 435-208 632-259 285-73 786-142 1332-186 308-24 1237-8 1491 25z"/>
  <path class="fil2" d="m7341 5085c515 25 652 59 879 210 169 114 434 383 590 603 63 88 110 163 107 166s-42-14-90-37c-130-66-464-176-645-213-517-105-1081-66-1655 114-112 34-220 61-244 59-24 0-130-39-237-85-329-141-522-190-745-190-312 0-740 132-1311 403-34 17 30-376 93-568l34-105 114-42c601-227 2023-371 3112-315z"/>
  <path class="fil2" d="m3656 5365c30 37 10 515-29 703l-30 144-102 12c-276 30-551 205-551 351 0 37-5 39-71 29-156-25-234-117-234-274 0-69 8-93 44-127 24-22 85-105 137-183 117-178 207-276 410-446 146-120 330-234 383-234 12 0 30 12 42 25z"/>
  <path class="fil3" d="m5694 5820c81 25 235 83 342 129 207 91 266 100 383 58 139-49 513-141 693-168 261-42 713-39 969 7 242 42 530 134 735 232 137 68 156 83 190 151 20 41 30 78 24 83-19 10-195 41-359 61-168 19-1069 85-1174 85h-71l-2-83c-3-195-215-400-449-434-152-22-325 63-422 210-66 98-69 207-10 295l41 59-213 10c-119 7-258 14-308 15l-93 3 5-63c12-136-117-322-276-396-171-81-435-34-578 103-91 86-103 174-49 318 14 34 25 66 25 69s-158 12-351 17c-195 7-412 15-485 20-130 7-130 7-122-32 15-56-17-127-83-188-42-39-59-73-68-130l-12-78 166-78c293-137 637-258 883-308 178-37 485-22 669 32z"/>
  <path class="fil2" d="m11381 5868c173 36 305 151 305 263 0 68-25 86-163 115-274 58-410 53-661-27-173-56-193-108-88-229 124-141 330-181 606-122z"/>
  <path class="fil4" d="m7036 6002c178 66 374 295 361 417-5 47-5 47-144 53l-141 5 42-46c44-49 54-120 25-178-27-47-141-100-220-100-207 0-320 173-191 288l53 47-91 12c-49 5-100 5-110-2-39-24-86-159-75-215 15-68 78-178 130-227 103-97 207-112 361-54z"/>
  <path class="fil4" d="m5667 6115c39 20 98 61 130 90 73 63 151 215 142 281-5 47-7 47-146 56-130 8-173 0-114-24 14-5 39-36 54-69 27-56 27-63 0-119-36-75-115-115-224-115-98 0-181 37-222 98s-19 151 46 200l53 37-117 10c-63 5-124 2-136-7-36-25-59-188-39-264s110-164 205-200c85-32 280-19 366 25z"/>
  <path class="fil1" d="m10741 6218c53 27 154 63 224 80 130 30 168 58 80 58-91 0-188 117-124 151 44 24 457 56 549 44 174-24 142-141-56-197l-75-20 93-20c90-19 97-19 193 32 193 100 429 357 551 598 119 237 154 439 188 1081 10 186 20 378 25 424 10 119-20 454-54 576-174 644-774 1025-2050 1304-1096 239-2251 354-3546 356-629 0-837-12-1169-69-884-152-1462-420-1669-778-22-37-95-258-161-488-295-1032-525-1550-805-1804-173-159-368-210-525-141-97 42-93 42-93 10 0-78-164-61-247 27-61 63-47 139 46 239l68 73-44-75c-25-41-49-98-54-129-7-44 0-61 37-90 25-20 69-37 95-37 41 0 49 7 49 42 0 22-15 80-34 127-24 61-36 142-42 285-7 139-24 258-58 393-49 195-76 371-95 612l-10 130-83 10c-95 14-178 64-234 146-36 53-39 75-34 186 8 139 39 213 120 300l53 56h-44c-95 0-144-34-237-166-230-324-527-803-625-1011-69-147-264-659-352-923-75-229-203-481-247-488-34-5-34-12-24-127 22-237 127-444 290-571 114-90 186-127 335-168 259-73 479-64 962 34 132 27 298 54 368 61l127 10v86c0 49 15 119 34 159l32 71-122 61c-119 61-300 190-300 213 0 37 44 25 110-34 166-146 405-237 667-256 151-12 193-8 280 19 58 17 210 46 339 61 130 17 239 39 242 47 3 10-61 27-151 39-86 10-190 34-229 53-63 27-73 39-73 83s10 54 81 81c64 25 129 30 351 30 290 0 388-19 407-76 17-53-39-137-112-168-80-34-83-49-12-56 42-3 144 37 420 171 691 332 1174 545 1474 649 193 68 373 75 1364 49 1919-47 2943-166 3e3 -346 22-68 8-149-39-237-64-120-364-412-595-579-103-75-188-141-188-146-2-10 573-107 845-141 302-39 400-34 512 22zm-9692 1033c-19 32-5 102 32 171 19 34 29 37 110 27 139-15 195-47 64-36-95 8-107 7-130-29-15-20-27-56-27-80 0-39 2-41 124-32l122 8-85-30c-115-41-190-41-210 0zm2638 385c-56 30-61 78-12 124 80 75 515 203 862 256 435 66 388 30-76-58-500-95-678-144-754-208-47-39-51-47-29-69 58-56 303-42 634 39 327 80 557 188 606 288 14 27 25 39 25 25 2-108-229-259-534-346-264-76-630-102-723-51zm278 508c-71 37-108 110-108 213 0 342 593 579 1443 581 291 0 322-3 432-42 137-49 174-97 142-181-59-159-293-268-923-427-147-37-334-90-413-114-190-59-486-75-573-30zm4870 437c-224 127-268 136-383 64-266-164-562-144-979 66-108 56-220 100-247 100s-107-20-178-44c-124-41-130-42-152-12-44 61-3 134 197 357 159 176 293 264 645 427 429 198 627 271 735 271 241 0 854-271 1138-501 151-124 329-407 330-527 0-36-2-36-97-10-54 15-146 27-202 29l-105 2-108-103c-139-134-254-193-373-193-76 0-112 12-222 75zm3215-1023c-144 71-764 615-815 715-34 66-8 136 69 183 112 69 401 36 684-78 180-71 234-110 266-186 51-120 15-523-54-629-30-47-63-49-151-5zm-12-501c-130 47-366 271-434 413-76 156 136 154 283-3 37-41 34-39-68 15-105 58-174 73-191 46-3-7 5-44 22-81 58-127 346-346 456-346 20 0 37 3 37 8 0 25-78 161-132 229-54 69-51 68 44-25 59-56 114-125 124-159 19-53 17-61-19-90-44-36-41-36-122-7z"/>
  <path class="fil3" d="m6939 6269c-7 37-78 46-93 10-5-15 0-36 12-42 32-20 86 2 81 32z"/>
  <path class="fil2" d="m3864 6325c115 53 232 159 232 210 0 37-30 91-81 146-39 42-56 47-149 47-141 0-422-29-598-61-185-34-273-69-273-110 0-44 103-142 200-191 249-124 457-137 669-41z"/>
  <path class="fil3" d="m5452 6296c27 32 8 59-42 59-44 0-66-37-37-66 25-25 54-24 80 7z"/>
  <path class="fil2" d="m2589 6356c0 75 34 154 90 215 19 22 32 41 27 44-3 3-44 14-88 24-68 15-86 14-107-8-41-39-58-98-58-191 0-76 5-86 56-117 75-46 80-44 80 34z"/>
  <path class="fil2" d="m11303 6381c10 42 34 54 53 27 10-19 156 25 171 53 30 49-117 61-396 29-90-10-168-22-171-25-17-15 44-56 97-63 42-7 59-2 73 24 24 47 53 20 41-37-10-47-10-49 56-49 58 0 69 7 78 42z"/>
  <path class="fil2" d="m3858 6849c20 64 22 68 51 42 29-25 34-24 76 17 25 25 42 54 39 64-14 41-127 59-351 59-322-2-462-44-342-107 91-47 393-81 393-44 0 8 12 17 25 17 30 0 32-15 8-75-15-41-12-44 32-44 41 0 51 10 68 69z"/>
  <path class="fil1" d="m434 7342c39 86 115 293 173 457l105 302-25 80c-15 46-32 107-37 137-15 73-25 59-90-103-110-273-246-840-229-957 5-39 15-71 22-71s44 71 81 156z"/>
  <path class="fil1" d="m2733 7462l85 41-73 12c-163 25-337 154-446 332-29 46-56 85-61 85s-5-49 2-108c20-195 83-322 183-371 81-41 210-36 310 10z"/>
  <path class="fil5" d="m2939 7613c30 30 56 59 56 66 0 5-44 37-98 71-241 149-459 456-552 778-227 786 93 1772 661 2033 66 30 114 39 235 39 141 0 163-5 269-58 166-81 351-271 478-490 5-8 227 171 227 185 0 5-63 78-139 159-667 715-1340 649-1743-169-254-517-318-1206-174-1855 115-513 349-806 651-811 63-2 85 7 130 53z"/>
  <path class="fil6" d="m3099 7826c36 53 81 136 105 183l44 86-41 125c-36 114-58 212-85 391-7 39-24 71-51 88-24 15-64 66-91 114l-49 86-12-66c-24-149-12-456 32-742 53-341 58-364 75-364 7 0 39 44 73 98z"/>
  <path class="fil5" d="m2902 8095c-42 268-61 666-34 735 5 14 15 122 24 244 8 120 20 235 29 252 39 98-244-197-476-495l-98-125 37-137c53-198 169-427 285-554 114-125 264-249 273-224 3 10-15 147-39 303z"/>
  <path class="fil5" d="m12508 8158c200 623 225 1147 78 1572-73 212-171 369-332 530-83 85-195 183-247 217l-95 61-430 34c-237 20-461 39-498 42-56 5-63 3-36-12 285-176 507-369 683-600 53-68 134-152 181-186 234-166 369-318 478-534 125-249 168-547 141-1005-8-149-19-295-24-322-17-103 39 7 102 202z"/>
  <path class="fil5" d="m3370 8368c39 100 88 234 110 300l41 117-58-56c-68-66-163-102-241-91-32 5-58 5-58 2 0-83 102-473 119-462 8 5 47 91 86 191z"/>
  <path class="fil5" d="m774 9447c22 132 63 225 108 252 39 24 88-30 114-124 25-97 51-363 51-549 0-169 14-202 51-114s-3 493-69 720c-42 144-105 232-156 225-76-10-161-242-197-539-22-174-24-676-2-839 8-66 25-161 37-212 20-85 24-39 32 483 5 320 19 629 30 695z"/>
  <path class="fil6" d="m932 8619c80 166 95 230 66 274-19 30-64-42-144-232-47-108-61-163-59-235v-97l29 59c14 32 63 136 108 230z"/>
  <path class="fil5" d="m854 8782c34 68 80 149 103 180l42 56-34 37c-49 53-103 180-115 273-19 127-37 90-47-97-12-190-20-571-15-571 3 0 32 56 66 122z"/>
  <path class="fil6" d="m3339 8700c73 30 137 103 185 205 29 66 37 117 39 230 0 134-5 156-59 263-66 129-149 193-251 193-288 2-420-547-193-800 98-108 180-136 280-91z"/>
  <path class="fil6" d="m2470 8941c163 212 574 623 676 676 81 41 190 25 285-41 71-51 75-53 64-15-42 144-103 217-200 241-71 17-710-58-861-102-47-14-115-376-117-608 0-139 17-296 32-295 5 0 59 64 120 144z"/>
  <path class="fil5" d="m1367 9337c71 107 134 208 141 225 14 32-8 180-39 252l-19 47h-235-234l32-56c66-114 114-334 144-662l12-117 36 58c19 32 93 146 163 252z"/>
  <path class="fil3" d="m2030 9124c0 30 5 81 10 110 10 53 10 54-34 42-69-17-159 7-188 51-51 76-3 114 152 122l83 3 29 151c15 81 25 152 24 156-3 2-46-8-95-24-112-37-235-158-266-256-10-39-20-114-20-164 0-81 7-103 51-152 51-59 124-91 208-95 41-2 46 3 46 56z"/>
  <path class="fil6" d="m990 9263c-12 169-37 317-64 368-14 25-20 27-41 10-20-17-24-44-15-124 19-174 88-417 120-417 7 0 7 73 0 163z"/>
  <path class="fil6" d="m3748 9747c5 134 15 307 20 383l12 142-93 86c-137 130-263 188-424 197-73 3-132 0-132-7s22-41 49-75c168-212 368-795 435-1264l12-85 54 191c46 158 58 232 66 430z"/>
  <path class="fil3" d="m2020 9330c15 5 27 25 27 42 0 25-12 32-58 32-32 0-80-8-107-19-46-17-46-19-15-42 36-25 107-30 152-14z"/>
  <path class="fil5" d="m3005 9837c237 27 308 24 376-19 51-34 49-12-15 174-64 183-166 381-242 471l-58 68-64-32c-188-88-361-285-488-554-44-90-78-171-78-180 0-8 71-3 168 14 93 17 273 42 401 58z"/>
  <path class="fil5" d="m3924 9959l36 49-61 97c-34 53-68 91-73 88-7-3-14-95-15-203-2-108-8-210-14-225-3-17 14 10 42 58 27 49 64 110 85 137z"/>
  <path class="fil5" d="m11517 10066c-273 315-559 507-844 568-156 32-252 32-420 0-134-25-408-141-385-161 7-7 102-29 208-49 507-100 1081-268 1381-408 75-34 139-61 142-58s-34 51-83 108z"/>
  <path class="fil5" d="m4554 10411c0 34-137 195-217 254-114 83-205 120-368 152-139 27-420 63-429 53-3-2 47-32 110-68 156-85 312-213 481-395l141-152 141 69c78 39 141 78 141 86z"/>
  <path class="fil7" d="m8713 6578c-147 47-486 110-796 149-630 80-1447 119-2600 122-866 3-759 24 212 39 830 15 1643-22 2263-102 383-47 854-151 1032-224 69-30-2-19-110 15z"/>
  <path class="fil3" d="m12174 7618c25 54 3 54-36 0-24-32-25-42-7-42 14 0 32 19 42 42z"/>
  <path class="fil6" d="m12169 7750c27 90 34 273 15 408-12 76-15 81-110 130-125 63-164 63-244-7l-64-56 20-110c10-61 19-125 17-144-2-44-25 46-41 154l-12 85-25-49c-15-29-30-97-36-154l-7-103 98-86c56-47 146-117 202-156l102-71 29 36c17 20 42 76 56 124z"/>
  <path class="fil2" d="m11652 8036c0 129 53 224 156 283l83 47-134 37c-168 44-180 46-156 3 36-68 12-200-56-295l-32-49 56-58c30-32 63-58 69-58 7 0 14 39 14 88z"/>
  <path class="fil6" d="m11559 8329v102l-86 5c-78 5-91 0-124-41-20-25-36-69-36-100 0-46 15-71 88-136l90-80 32 73c22 46 34 114 36 176z"/>
  <path class="fil7" d="m11984 7967c-8 80-10 159-7 178 5 17 14-34 20-114 8-80 10-159 7-178-5-17-14 34-20 114z"/>
  <path class="fil7" d="m11959 8212c0 19 5 24 10 10 5-12 3-27-2-32-5-7-10 3-8 22z"/>
  <path class="fil7" d="m11452 8304c-10 41-15 78-12 81 10 10 46-115 39-136-5-12-17 14-27 54z"/>
  <path class="fil2" d="m4130 8158c0 3-19 47-42 98-54 115-54 205 0 310 22 46 39 85 36 88-15 15-163-120-188-176-44-93-39-203 14-254 39-41 181-91 181-66z"/>
  <path class="fil6" d="m4320 8177c42 5 180 39 305 75l225 64 54 80c103 151 95 249-30 369-66 64-95 81-141 81-66 0-344-68-437-107-76-32-152-134-183-242-37-134 27-359 98-339 15 3 64 12 108 19z"/>
  <path class="fil2" d="m5237 8416c256 73 427 146 508 212 68 56 102 117 86 156-12 32-114 78-198 88-39 5-61 3-49-2 34-15 71-102 71-164 0-156-208-247-371-164-63 32-120 115-120 178 0 42 46 122 88 152 37 27 30 29-139 19-98-5-203-14-232-20l-56-10 69-51c161-117 178-285 42-435l-36-41 68 14c37 7 158 37 268 69z"/>
  <path class="fil6" d="m5520 8585c64 42 85 76 85 134 0 59-47 114-124 142-102 39-102 24-10-125 39-61 66-115 61-120s-42 47-83 119c-83 144-108 156-185 80-66-68-64-125 8-198 47-47 69-58 132-58 41 0 93 12 115 27z"/>
  <path class="fil7" d="m4439 8468c-86 51-154 98-149 102 5 5 71-30 149-78 180-108 195-120 174-119-8 0-88 44-174 95z"/>
  <path class="fil7" d="m4649 8543c-125 83-168 122-90 81 47-25 232-154 232-161 0-14-19-3-142 80z"/>
  <path class="fil2" d="m9204 8592c37 15 119 76 180 132 146 134 174 144 334 122 69-8 132-22 141-27 29-17 15 46-29 137-97 195-247 337-532 498-485 274-778 354-1003 273-156-56-537-227-750-335-159-81-210-117-352-256-178-174-251-264-137-174 91 73 212 124 325 134 71 8 120 27 195 75 235 152 573 237 952 242 263 2 373-19 566-110 114-53 302-185 373-259 32-34 58-44 115-44 53 0 73-7 73-25 0-20-34-24-224-15-369 14-385 15-617 108-303 120-325 122-493 36-198-105-298-117-613-78-280 34-391 29-501-25-75-36-229-161-229-186 0-7 32-2 73 12 39 15 114 27 164 27 81 2 117-10 280-93 417-212 649-230 935-71 139 80 193 73 391-41 81-47 163-88 181-93 47-12 122 3 203 39z"/>
  <path class="fil3" d="m9450 9022c0 14-242 166-317 200-73 34-117 37-437 44-195 3-474-2-620-10-249-15-271-20-410-80-81-36-146-66-142-71 20-20 376-58 483-51 105 5 147 19 271 81 197 100 247 98 529-15 117-46 227-88 246-93 39-8 398-15 398-5z"/>
  <path class="fil3" d="m8564 9312c349 0 371 8 144 53-220 42-529 19-689-53-46-20-39-22 76-12 69 7 281 12 469 12z"/>
  <path class="fil7" d="m3275 8990c-34 32-42 58-42 130 0 105 34 166 91 166 22 0 51-14 66-30 63-69 49-254-22-291-44-24-47-22-93 25z"/>
  <path class="fil3" d="m3385 9120c0 112-68 154-100 63-19-56-10-125 20-166 27-32 80 37 80 103z"/>
 </g>
</svg>
